ISO-10303-21;
HEADER;
/* Generated by software containing ST-Developer
 * from STEP Tools, Inc. (www.steptools.com) 
 */

FILE_DESCRIPTION(
/* description */ (''),
/* implementation_level */ '2;1');

FILE_NAME(
/* name */ 'BusBar.step',
/* time_stamp */ '2025-07-18T14:32:12+02:00',
/* author */ (''),
/* organization */ (''),
/* preprocessor_version */ 'ST-DEVELOPER v20.1',
/* originating_system */ 'Autodesk Translation Framework v14.10.0.0',
/* authorisation */ '');

FILE_SCHEMA (('AUTOMOTIVE_DESIGN { 1 0 10303 214 3 1 1 }'));
ENDSEC;

DATA;
#10=MECHANICAL_DESIGN_GEOMETRIC_PRESENTATION_REPRESENTATION('',(#13),#1260);
#11=SHAPE_REPRESENTATION_RELATIONSHIP('SRR','None',#1266,#12);
#12=ADVANCED_BREP_SHAPE_REPRESENTATION('',(#14),#1259);
#13=STYLED_ITEM('',(#1293),#14);
#14=MANIFOLD_SOLID_BREP('BusBar',#740);
#15=FACE_BOUND('',#94,.T.);
#16=FACE_BOUND('',#95,.T.);
#17=FACE_BOUND('',#96,.T.);
#18=FACE_BOUND('',#108,.T.);
#19=FACE_BOUND('',#113,.T.);
#20=FACE_BOUND('',#115,.T.);
#21=PLANE('',#745);
#22=PLANE('',#749);
#23=PLANE('',#753);
#24=PLANE('',#757);
#25=PLANE('',#760);
#26=PLANE('',#765);
#27=PLANE('',#766);
#28=PLANE('',#767);
#29=PLANE('',#777);
#30=PLANE('',#785);
#31=PLANE('',#788);
#32=PLANE('',#791);
#33=PLANE('',#796);
#34=PLANE('',#800);
#35=PLANE('',#801);
#36=PLANE('',#802);
#37=PLANE('',#806);
#38=PLANE('',#811);
#39=PLANE('',#812);
#40=PLANE('',#815);
#41=FACE_OUTER_BOUND('',#80,.T.);
#42=FACE_OUTER_BOUND('',#81,.T.);
#43=FACE_OUTER_BOUND('',#82,.T.);
#44=FACE_OUTER_BOUND('',#83,.T.);
#45=FACE_OUTER_BOUND('',#84,.T.);
#46=FACE_OUTER_BOUND('',#85,.T.);
#47=FACE_OUTER_BOUND('',#86,.T.);
#48=FACE_OUTER_BOUND('',#87,.T.);
#49=FACE_OUTER_BOUND('',#88,.T.);
#50=FACE_OUTER_BOUND('',#89,.T.);
#51=FACE_OUTER_BOUND('',#90,.T.);
#52=FACE_OUTER_BOUND('',#91,.T.);
#53=FACE_OUTER_BOUND('',#92,.T.);
#54=FACE_OUTER_BOUND('',#93,.T.);
#55=FACE_OUTER_BOUND('',#97,.T.);
#56=FACE_OUTER_BOUND('',#98,.T.);
#57=FACE_OUTER_BOUND('',#99,.T.);
#58=FACE_OUTER_BOUND('',#100,.T.);
#59=FACE_OUTER_BOUND('',#101,.T.);
#60=FACE_OUTER_BOUND('',#102,.T.);
#61=FACE_OUTER_BOUND('',#103,.T.);
#62=FACE_OUTER_BOUND('',#104,.T.);
#63=FACE_OUTER_BOUND('',#105,.T.);
#64=FACE_OUTER_BOUND('',#106,.T.);
#65=FACE_OUTER_BOUND('',#107,.T.);
#66=FACE_OUTER_BOUND('',#109,.T.);
#67=FACE_OUTER_BOUND('',#110,.T.);
#68=FACE_OUTER_BOUND('',#111,.T.);
#69=FACE_OUTER_BOUND('',#112,.T.);
#70=FACE_OUTER_BOUND('',#114,.T.);
#71=FACE_OUTER_BOUND('',#116,.T.);
#72=FACE_OUTER_BOUND('',#117,.T.);
#73=FACE_OUTER_BOUND('',#118,.T.);
#74=FACE_OUTER_BOUND('',#119,.T.);
#75=FACE_OUTER_BOUND('',#120,.T.);
#76=FACE_OUTER_BOUND('',#121,.T.);
#77=FACE_OUTER_BOUND('',#122,.T.);
#78=FACE_OUTER_BOUND('',#123,.T.);
#79=FACE_OUTER_BOUND('',#124,.T.);
#80=EDGE_LOOP('',(#472,#473,#474,#475));
#81=EDGE_LOOP('',(#476,#477,#478,#479));
#82=EDGE_LOOP('',(#480,#481,#482,#483));
#83=EDGE_LOOP('',(#484,#485,#486,#487));
#84=EDGE_LOOP('',(#488,#489,#490,#491));
#85=EDGE_LOOP('',(#492,#493,#494,#495));
#86=EDGE_LOOP('',(#496,#497,#498,#499));
#87=EDGE_LOOP('',(#500,#501,#502,#503,#504,#505,#506,#507,#508,#509,#510,
#511));
#88=EDGE_LOOP('',(#512,#513,#514,#515));
#89=EDGE_LOOP('',(#516,#517,#518,#519));
#90=EDGE_LOOP('',(#520,#521,#522,#523));
#91=EDGE_LOOP('',(#524,#525,#526,#527));
#92=EDGE_LOOP('',(#528,#529,#530,#531));
#93=EDGE_LOOP('',(#532,#533,#534,#535,#536,#537,#538,#539));
#94=EDGE_LOOP('',(#540));
#95=EDGE_LOOP('',(#541));
#96=EDGE_LOOP('',(#542,#543,#544,#545,#546,#547,#548,#549,#550,#551,#552,
#553));
#97=EDGE_LOOP('',(#554,#555,#556,#557));
#98=EDGE_LOOP('',(#558,#559,#560,#561,#562,#563,#564,#565,#566,#567,#568,
#569,#570,#571,#572,#573));
#99=EDGE_LOOP('',(#574,#575,#576,#577));
#100=EDGE_LOOP('',(#578,#579,#580,#581));
#101=EDGE_LOOP('',(#582,#583,#584,#585));
#102=EDGE_LOOP('',(#586,#587,#588,#589));
#103=EDGE_LOOP('',(#590,#591,#592,#593));
#104=EDGE_LOOP('',(#594,#595,#596,#597));
#105=EDGE_LOOP('',(#598,#599,#600,#601));
#106=EDGE_LOOP('',(#602,#603,#604,#605));
#107=EDGE_LOOP('',(#606,#607,#608,#609));
#108=EDGE_LOOP('',(#610));
#109=EDGE_LOOP('',(#611,#612,#613,#614));
#110=EDGE_LOOP('',(#615));
#111=EDGE_LOOP('',(#616,#617,#618,#619));
#112=EDGE_LOOP('',(#620,#621,#622,#623,#624,#625));
#113=EDGE_LOOP('',(#626));
#114=EDGE_LOOP('',(#627,#628,#629,#630,#631,#632));
#115=EDGE_LOOP('',(#633));
#116=EDGE_LOOP('',(#634,#635,#636,#637));
#117=EDGE_LOOP('',(#638,#639,#640,#641));
#118=EDGE_LOOP('',(#642,#643,#644,#645));
#119=EDGE_LOOP('',(#646,#647,#648,#649));
#120=EDGE_LOOP('',(#650,#651,#652,#653));
#121=EDGE_LOOP('',(#654,#655,#656,#657,#658,#659,#660,#661,#662,#663,#664,
#665,#666,#667,#668,#669));
#122=EDGE_LOOP('',(#670,#671,#672,#673));
#123=EDGE_LOOP('',(#674,#675,#676,#677));
#124=EDGE_LOOP('',(#678,#679,#680,#681));
#125=LINE('',#1048,#192);
#126=LINE('',#1051,#193);
#127=LINE('',#1054,#194);
#128=LINE('',#1056,#195);
#129=LINE('',#1057,#196);
#130=LINE('',#1062,#197);
#131=LINE('',#1066,#198);
#132=LINE('',#1068,#199);
#133=LINE('',#1069,#200);
#134=LINE('',#1074,#201);
#135=LINE('',#1078,#202);
#136=LINE('',#1080,#203);
#137=LINE('',#1081,#204);
#138=LINE('',#1087,#205);
#139=LINE('',#1090,#206);
#140=LINE('',#1092,#207);
#141=LINE('',#1094,#208);
#142=LINE('',#1098,#209);
#143=LINE('',#1102,#210);
#144=LINE('',#1103,#211);
#145=LINE('',#1107,#212);
#146=LINE('',#1110,#213);
#147=LINE('',#1113,#214);
#148=LINE('',#1115,#215);
#149=LINE('',#1119,#216);
#150=LINE('',#1123,#217);
#151=LINE('',#1127,#218);
#152=LINE('',#1131,#219);
#153=LINE('',#1142,#220);
#154=LINE('',#1145,#221);
#155=LINE('',#1148,#222);
#156=LINE('',#1152,#223);
#157=LINE('',#1156,#224);
#158=LINE('',#1160,#225);
#159=LINE('',#1164,#226);
#160=LINE('',#1168,#227);
#161=LINE('',#1169,#228);
#162=LINE('',#1171,#229);
#163=LINE('',#1172,#230);
#164=LINE('',#1175,#231);
#165=LINE('',#1178,#232);
#166=LINE('',#1181,#233);
#167=LINE('',#1182,#234);
#168=LINE('',#1185,#235);
#169=LINE('',#1189,#236);
#170=LINE('',#1190,#237);
#171=LINE('',#1195,#238);
#172=LINE('',#1196,#239);
#173=LINE('',#1199,#240);
#174=LINE('',#1200,#241);
#175=LINE('',#1204,#242);
#176=LINE('',#1207,#243);
#177=LINE('',#1210,#244);
#178=LINE('',#1215,#245);
#179=LINE('',#1219,#246);
#180=LINE('',#1224,#247);
#181=LINE('',#1227,#248);
#182=LINE('',#1232,#249);
#183=LINE('',#1236,#250);
#184=LINE('',#1241,#251);
#185=LINE('',#1242,#252);
#186=LINE('',#1244,#253);
#187=LINE('',#1246,#254);
#188=LINE('',#1247,#255);
#189=LINE('',#1249,#256);
#190=LINE('',#1253,#257);
#191=LINE('',#1255,#258);
#192=VECTOR('',#825,10.);
#193=VECTOR('',#828,10.);
#194=VECTOR('',#831,10.);
#195=VECTOR('',#832,10.);
#196=VECTOR('',#833,10.);
#197=VECTOR('',#838,10.);
#198=VECTOR('',#843,10.);
#199=VECTOR('',#844,10.);
#200=VECTOR('',#845,10.);
#201=VECTOR('',#850,10.);
#202=VECTOR('',#855,10.);
#203=VECTOR('',#856,10.);
#204=VECTOR('',#857,10.);
#205=VECTOR('',#862,10.);
#206=VECTOR('',#865,10.);
#207=VECTOR('',#868,10.);
#208=VECTOR('',#869,10.);
#209=VECTOR('',#872,10.);
#210=VECTOR('',#877,10.);
#211=VECTOR('',#878,10.);
#212=VECTOR('',#883,10.);
#213=VECTOR('',#886,10.);
#214=VECTOR('',#891,10.);
#215=VECTOR('',#894,10.);
#216=VECTOR('',#897,10.);
#217=VECTOR('',#900,10.);
#218=VECTOR('',#903,10.);
#219=VECTOR('',#906,10.);
#220=VECTOR('',#917,1.5);
#221=VECTOR('',#920,10.);
#222=VECTOR('',#923,10.);
#223=VECTOR('',#926,10.);
#224=VECTOR('',#929,10.);
#225=VECTOR('',#932,10.);
#226=VECTOR('',#935,10.);
#227=VECTOR('',#938,10.);
#228=VECTOR('',#939,10.);
#229=VECTOR('',#940,10.);
#230=VECTOR('',#941,10.);
#231=VECTOR('',#944,1.5);
#232=VECTOR('',#947,10.);
#233=VECTOR('',#950,10.);
#234=VECTOR('',#951,10.);
#235=VECTOR('',#954,10.);
#236=VECTOR('',#959,10.);
#237=VECTOR('',#960,10.);
#238=VECTOR('',#965,10.);
#239=VECTOR('',#966,10.);
#240=VECTOR('',#969,10.);
#241=VECTOR('',#970,10.);
#242=VECTOR('',#975,10.);
#243=VECTOR('',#978,10.);
#244=VECTOR('',#983,10.);
#245=VECTOR('',#988,3.125);
#246=VECTOR('',#995,10.);
#247=VECTOR('',#1000,10.);
#248=VECTOR('',#1003,10.);
#249=VECTOR('',#1008,10.);
#250=VECTOR('',#1011,10.);
#251=VECTOR('',#1018,10.);
#252=VECTOR('',#1019,10.);
#253=VECTOR('',#1022,10.);
#254=VECTOR('',#1025,10.);
#255=VECTOR('',#1026,10.);
#256=VECTOR('',#1029,10.);
#257=VECTOR('',#1036,3.);
#258=VECTOR('',#1039,3.);
#259=CIRCLE('',#743,1.);
#260=CIRCLE('',#744,1.);
#261=CIRCLE('',#747,1.);
#262=CIRCLE('',#748,1.);
#263=CIRCLE('',#751,1.);
#264=CIRCLE('',#752,1.);
#265=CIRCLE('',#755,1.);
#266=CIRCLE('',#756,1.);
#267=CIRCLE('',#758,1.);
#268=CIRCLE('',#759,1.);
#269=CIRCLE('',#762,1.);
#270=CIRCLE('',#764,1.);
#271=CIRCLE('',#768,2.00000000000001);
#272=CIRCLE('',#769,2.00000000000001);
#273=CIRCLE('',#770,1.99999999999999);
#274=CIRCLE('',#771,2.00000000000001);
#275=CIRCLE('',#772,3.);
#276=CIRCLE('',#773,3.);
#277=CIRCLE('',#775,1.5);
#278=CIRCLE('',#776,1.5);
#279=CIRCLE('',#778,2.5);
#280=CIRCLE('',#779,2.5);
#281=CIRCLE('',#780,2.5);
#282=CIRCLE('',#781,2.5);
#283=CIRCLE('',#782,1.5);
#284=CIRCLE('',#784,1.5);
#285=CIRCLE('',#787,2.5);
#286=CIRCLE('',#790,2.5);
#287=CIRCLE('',#793,2.5);
#288=CIRCLE('',#795,2.5);
#289=CIRCLE('',#797,3.125);
#290=CIRCLE('',#799,3.125);
#291=CIRCLE('',#803,2.00000000000001);
#292=CIRCLE('',#804,1.99999999999999);
#293=CIRCLE('',#805,3.);
#294=CIRCLE('',#807,2.00000000000001);
#295=CIRCLE('',#808,2.00000000000001);
#296=CIRCLE('',#809,3.);
#297=VERTEX_POINT('',#1044);
#298=VERTEX_POINT('',#1045);
#299=VERTEX_POINT('',#1047);
#300=VERTEX_POINT('',#1049);
#301=VERTEX_POINT('',#1053);
#302=VERTEX_POINT('',#1055);
#303=VERTEX_POINT('',#1059);
#304=VERTEX_POINT('',#1061);
#305=VERTEX_POINT('',#1065);
#306=VERTEX_POINT('',#1067);
#307=VERTEX_POINT('',#1071);
#308=VERTEX_POINT('',#1073);
#309=VERTEX_POINT('',#1077);
#310=VERTEX_POINT('',#1079);
#311=VERTEX_POINT('',#1083);
#312=VERTEX_POINT('',#1084);
#313=VERTEX_POINT('',#1086);
#314=VERTEX_POINT('',#1088);
#315=VERTEX_POINT('',#1093);
#316=VERTEX_POINT('',#1095);
#317=VERTEX_POINT('',#1097);
#318=VERTEX_POINT('',#1101);
#319=VERTEX_POINT('',#1105);
#320=VERTEX_POINT('',#1109);
#321=VERTEX_POINT('',#1117);
#322=VERTEX_POINT('',#1118);
#323=VERTEX_POINT('',#1120);
#324=VERTEX_POINT('',#1122);
#325=VERTEX_POINT('',#1124);
#326=VERTEX_POINT('',#1126);
#327=VERTEX_POINT('',#1128);
#328=VERTEX_POINT('',#1130);
#329=VERTEX_POINT('',#1133);
#330=VERTEX_POINT('',#1135);
#331=VERTEX_POINT('',#1138);
#332=VERTEX_POINT('',#1139);
#333=VERTEX_POINT('',#1141);
#334=VERTEX_POINT('',#1143);
#335=VERTEX_POINT('',#1147);
#336=VERTEX_POINT('',#1149);
#337=VERTEX_POINT('',#1151);
#338=VERTEX_POINT('',#1153);
#339=VERTEX_POINT('',#1155);
#340=VERTEX_POINT('',#1157);
#341=VERTEX_POINT('',#1159);
#342=VERTEX_POINT('',#1161);
#343=VERTEX_POINT('',#1163);
#344=VERTEX_POINT('',#1165);
#345=VERTEX_POINT('',#1167);
#346=VERTEX_POINT('',#1170);
#347=VERTEX_POINT('',#1174);
#348=VERTEX_POINT('',#1176);
#349=VERTEX_POINT('',#1180);
#350=VERTEX_POINT('',#1184);
#351=VERTEX_POINT('',#1188);
#352=VERTEX_POINT('',#1192);
#353=VERTEX_POINT('',#1193);
#354=VERTEX_POINT('',#1198);
#355=VERTEX_POINT('',#1202);
#356=VERTEX_POINT('',#1206);
#357=VERTEX_POINT('',#1211);
#358=VERTEX_POINT('',#1214);
#359=VERTEX_POINT('',#1221);
#360=VERTEX_POINT('',#1223);
#361=VERTEX_POINT('',#1225);
#362=VERTEX_POINT('',#1228);
#363=VERTEX_POINT('',#1231);
#364=VERTEX_POINT('',#1233);
#365=VERTEX_POINT('',#1235);
#366=VERTEX_POINT('',#1238);
#367=EDGE_CURVE('',#297,#298,#259,.T.);
#368=EDGE_CURVE('',#297,#299,#125,.T.);
#369=EDGE_CURVE('',#299,#300,#260,.T.);
#370=EDGE_CURVE('',#300,#298,#126,.T.);
#371=EDGE_CURVE('',#297,#301,#127,.T.);
#372=EDGE_CURVE('',#302,#301,#128,.T.);
#373=EDGE_CURVE('',#299,#302,#129,.T.);
#374=EDGE_CURVE('',#303,#301,#261,.T.);
#375=EDGE_CURVE('',#303,#304,#130,.T.);
#376=EDGE_CURVE('',#304,#302,#262,.T.);
#377=EDGE_CURVE('',#303,#305,#131,.T.);
#378=EDGE_CURVE('',#306,#305,#132,.T.);
#379=EDGE_CURVE('',#304,#306,#133,.T.);
#380=EDGE_CURVE('',#307,#305,#263,.T.);
#381=EDGE_CURVE('',#307,#308,#134,.T.);
#382=EDGE_CURVE('',#308,#306,#264,.T.);
#383=EDGE_CURVE('',#307,#309,#135,.T.);
#384=EDGE_CURVE('',#310,#309,#136,.T.);
#385=EDGE_CURVE('',#308,#310,#137,.T.);
#386=EDGE_CURVE('',#311,#312,#265,.T.);
#387=EDGE_CURVE('',#311,#313,#138,.T.);
#388=EDGE_CURVE('',#313,#314,#266,.T.);
#389=EDGE_CURVE('',#314,#312,#139,.T.);
#390=EDGE_CURVE('',#311,#298,#140,.T.);
#391=EDGE_CURVE('',#315,#312,#141,.T.);
#392=EDGE_CURVE('',#315,#316,#267,.T.);
#393=EDGE_CURVE('',#317,#316,#142,.T.);
#394=EDGE_CURVE('',#317,#309,#268,.T.);
#395=EDGE_CURVE('',#318,#314,#143,.T.);
#396=EDGE_CURVE('',#315,#318,#144,.T.);
#397=EDGE_CURVE('',#318,#319,#269,.T.);
#398=EDGE_CURVE('',#319,#316,#145,.T.);
#399=EDGE_CURVE('',#317,#320,#146,.T.);
#400=EDGE_CURVE('',#320,#310,#270,.T.);
#401=EDGE_CURVE('',#313,#300,#147,.T.);
#402=EDGE_CURVE('',#320,#319,#148,.T.);
#403=EDGE_CURVE('',#321,#322,#149,.T.);
#404=EDGE_CURVE('',#323,#322,#271,.T.);
#405=EDGE_CURVE('',#323,#324,#150,.T.);
#406=EDGE_CURVE('',#325,#324,#272,.T.);
#407=EDGE_CURVE('',#325,#326,#151,.T.);
#408=EDGE_CURVE('',#327,#326,#273,.T.);
#409=EDGE_CURVE('',#327,#328,#152,.T.);
#410=EDGE_CURVE('',#321,#328,#274,.T.);
#411=EDGE_CURVE('',#329,#329,#275,.T.);
#412=EDGE_CURVE('',#330,#330,#276,.T.);
#413=EDGE_CURVE('',#331,#332,#277,.T.);
#414=EDGE_CURVE('',#332,#333,#153,.T.);
#415=EDGE_CURVE('',#333,#334,#278,.T.);
#416=EDGE_CURVE('',#334,#331,#154,.T.);
#417=EDGE_CURVE('',#333,#335,#155,.T.);
#418=EDGE_CURVE('',#336,#335,#279,.T.);
#419=EDGE_CURVE('',#336,#337,#156,.T.);
#420=EDGE_CURVE('',#338,#337,#280,.T.);
#421=EDGE_CURVE('',#339,#338,#157,.T.);
#422=EDGE_CURVE('',#340,#339,#281,.T.);
#423=EDGE_CURVE('',#341,#340,#158,.T.);
#424=EDGE_CURVE('',#342,#341,#282,.T.);
#425=EDGE_CURVE('',#342,#343,#159,.T.);
#426=EDGE_CURVE('',#344,#343,#283,.T.);
#427=EDGE_CURVE('',#344,#345,#160,.T.);
#428=EDGE_CURVE('',#322,#345,#161,.T.);
#429=EDGE_CURVE('',#321,#346,#162,.T.);
#430=EDGE_CURVE('',#346,#334,#163,.T.);
#431=EDGE_CURVE('',#343,#347,#164,.T.);
#432=EDGE_CURVE('',#347,#348,#284,.T.);
#433=EDGE_CURVE('',#348,#344,#165,.T.);
#434=EDGE_CURVE('',#349,#342,#166,.T.);
#435=EDGE_CURVE('',#347,#349,#167,.T.);
#436=EDGE_CURVE('',#341,#350,#168,.T.);
#437=EDGE_CURVE('',#350,#349,#285,.T.);
#438=EDGE_CURVE('',#351,#340,#169,.T.);
#439=EDGE_CURVE('',#350,#351,#170,.T.);
#440=EDGE_CURVE('',#352,#353,#286,.T.);
#441=EDGE_CURVE('',#353,#336,#171,.T.);
#442=EDGE_CURVE('',#335,#352,#172,.T.);
#443=EDGE_CURVE('',#353,#354,#173,.T.);
#444=EDGE_CURVE('',#337,#354,#174,.T.);
#445=EDGE_CURVE('',#354,#355,#287,.T.);
#446=EDGE_CURVE('',#355,#338,#175,.T.);
#447=EDGE_CURVE('',#339,#356,#176,.T.);
#448=EDGE_CURVE('',#356,#351,#288,.T.);
#449=EDGE_CURVE('',#355,#356,#177,.T.);
#450=EDGE_CURVE('',#357,#357,#289,.T.);
#451=EDGE_CURVE('',#357,#358,#178,.T.);
#452=EDGE_CURVE('',#358,#358,#290,.T.);
#453=EDGE_CURVE('',#352,#332,#179,.T.);
#454=EDGE_CURVE('',#359,#346,#291,.T.);
#455=EDGE_CURVE('',#360,#359,#180,.T.);
#456=EDGE_CURVE('',#361,#360,#292,.T.);
#457=EDGE_CURVE('',#331,#361,#181,.T.);
#458=EDGE_CURVE('',#362,#362,#293,.T.);
#459=EDGE_CURVE('',#363,#348,#182,.T.);
#460=EDGE_CURVE('',#364,#363,#294,.T.);
#461=EDGE_CURVE('',#365,#364,#183,.T.);
#462=EDGE_CURVE('',#345,#365,#295,.T.);
#463=EDGE_CURVE('',#366,#366,#296,.T.);
#464=EDGE_CURVE('',#327,#360,#184,.T.);
#465=EDGE_CURVE('',#326,#361,#185,.T.);
#466=EDGE_CURVE('',#328,#359,#186,.T.);
#467=EDGE_CURVE('',#324,#364,#187,.T.);
#468=EDGE_CURVE('',#323,#365,#188,.T.);
#469=EDGE_CURVE('',#325,#363,#189,.T.);
#470=EDGE_CURVE('',#366,#329,#190,.T.);
#471=EDGE_CURVE('',#362,#330,#191,.T.);
#472=ORIENTED_EDGE('',*,*,#367,.F.);
#473=ORIENTED_EDGE('',*,*,#368,.T.);
#474=ORIENTED_EDGE('',*,*,#369,.T.);
#475=ORIENTED_EDGE('',*,*,#370,.T.);
#476=ORIENTED_EDGE('',*,*,#368,.F.);
#477=ORIENTED_EDGE('',*,*,#371,.T.);
#478=ORIENTED_EDGE('',*,*,#372,.F.);
#479=ORIENTED_EDGE('',*,*,#373,.F.);
#480=ORIENTED_EDGE('',*,*,#374,.F.);
#481=ORIENTED_EDGE('',*,*,#375,.T.);
#482=ORIENTED_EDGE('',*,*,#376,.T.);
#483=ORIENTED_EDGE('',*,*,#372,.T.);
#484=ORIENTED_EDGE('',*,*,#375,.F.);
#485=ORIENTED_EDGE('',*,*,#377,.T.);
#486=ORIENTED_EDGE('',*,*,#378,.F.);
#487=ORIENTED_EDGE('',*,*,#379,.F.);
#488=ORIENTED_EDGE('',*,*,#380,.F.);
#489=ORIENTED_EDGE('',*,*,#381,.T.);
#490=ORIENTED_EDGE('',*,*,#382,.T.);
#491=ORIENTED_EDGE('',*,*,#378,.T.);
#492=ORIENTED_EDGE('',*,*,#381,.F.);
#493=ORIENTED_EDGE('',*,*,#383,.T.);
#494=ORIENTED_EDGE('',*,*,#384,.F.);
#495=ORIENTED_EDGE('',*,*,#385,.F.);
#496=ORIENTED_EDGE('',*,*,#386,.F.);
#497=ORIENTED_EDGE('',*,*,#387,.T.);
#498=ORIENTED_EDGE('',*,*,#388,.T.);
#499=ORIENTED_EDGE('',*,*,#389,.T.);
#500=ORIENTED_EDGE('',*,*,#367,.T.);
#501=ORIENTED_EDGE('',*,*,#390,.F.);
#502=ORIENTED_EDGE('',*,*,#386,.T.);
#503=ORIENTED_EDGE('',*,*,#391,.F.);
#504=ORIENTED_EDGE('',*,*,#392,.T.);
#505=ORIENTED_EDGE('',*,*,#393,.F.);
#506=ORIENTED_EDGE('',*,*,#394,.T.);
#507=ORIENTED_EDGE('',*,*,#383,.F.);
#508=ORIENTED_EDGE('',*,*,#380,.T.);
#509=ORIENTED_EDGE('',*,*,#377,.F.);
#510=ORIENTED_EDGE('',*,*,#374,.T.);
#511=ORIENTED_EDGE('',*,*,#371,.F.);
#512=ORIENTED_EDGE('',*,*,#389,.F.);
#513=ORIENTED_EDGE('',*,*,#395,.F.);
#514=ORIENTED_EDGE('',*,*,#396,.F.);
#515=ORIENTED_EDGE('',*,*,#391,.T.);
#516=ORIENTED_EDGE('',*,*,#392,.F.);
#517=ORIENTED_EDGE('',*,*,#396,.T.);
#518=ORIENTED_EDGE('',*,*,#397,.T.);
#519=ORIENTED_EDGE('',*,*,#398,.T.);
#520=ORIENTED_EDGE('',*,*,#394,.F.);
#521=ORIENTED_EDGE('',*,*,#399,.T.);
#522=ORIENTED_EDGE('',*,*,#400,.T.);
#523=ORIENTED_EDGE('',*,*,#384,.T.);
#524=ORIENTED_EDGE('',*,*,#370,.F.);
#525=ORIENTED_EDGE('',*,*,#401,.F.);
#526=ORIENTED_EDGE('',*,*,#387,.F.);
#527=ORIENTED_EDGE('',*,*,#390,.T.);
#528=ORIENTED_EDGE('',*,*,#398,.F.);
#529=ORIENTED_EDGE('',*,*,#402,.F.);
#530=ORIENTED_EDGE('',*,*,#399,.F.);
#531=ORIENTED_EDGE('',*,*,#393,.T.);
#532=ORIENTED_EDGE('',*,*,#403,.T.);
#533=ORIENTED_EDGE('',*,*,#404,.F.);
#534=ORIENTED_EDGE('',*,*,#405,.T.);
#535=ORIENTED_EDGE('',*,*,#406,.F.);
#536=ORIENTED_EDGE('',*,*,#407,.T.);
#537=ORIENTED_EDGE('',*,*,#408,.F.);
#538=ORIENTED_EDGE('',*,*,#409,.T.);
#539=ORIENTED_EDGE('',*,*,#410,.F.);
#540=ORIENTED_EDGE('',*,*,#411,.F.);
#541=ORIENTED_EDGE('',*,*,#412,.F.);
#542=ORIENTED_EDGE('',*,*,#385,.T.);
#543=ORIENTED_EDGE('',*,*,#400,.F.);
#544=ORIENTED_EDGE('',*,*,#402,.T.);
#545=ORIENTED_EDGE('',*,*,#397,.F.);
#546=ORIENTED_EDGE('',*,*,#395,.T.);
#547=ORIENTED_EDGE('',*,*,#388,.F.);
#548=ORIENTED_EDGE('',*,*,#401,.T.);
#549=ORIENTED_EDGE('',*,*,#369,.F.);
#550=ORIENTED_EDGE('',*,*,#373,.T.);
#551=ORIENTED_EDGE('',*,*,#376,.F.);
#552=ORIENTED_EDGE('',*,*,#379,.T.);
#553=ORIENTED_EDGE('',*,*,#382,.F.);
#554=ORIENTED_EDGE('',*,*,#413,.T.);
#555=ORIENTED_EDGE('',*,*,#414,.T.);
#556=ORIENTED_EDGE('',*,*,#415,.T.);
#557=ORIENTED_EDGE('',*,*,#416,.T.);
#558=ORIENTED_EDGE('',*,*,#415,.F.);
#559=ORIENTED_EDGE('',*,*,#417,.T.);
#560=ORIENTED_EDGE('',*,*,#418,.F.);
#561=ORIENTED_EDGE('',*,*,#419,.T.);
#562=ORIENTED_EDGE('',*,*,#420,.F.);
#563=ORIENTED_EDGE('',*,*,#421,.F.);
#564=ORIENTED_EDGE('',*,*,#422,.F.);
#565=ORIENTED_EDGE('',*,*,#423,.F.);
#566=ORIENTED_EDGE('',*,*,#424,.F.);
#567=ORIENTED_EDGE('',*,*,#425,.T.);
#568=ORIENTED_EDGE('',*,*,#426,.F.);
#569=ORIENTED_EDGE('',*,*,#427,.T.);
#570=ORIENTED_EDGE('',*,*,#428,.F.);
#571=ORIENTED_EDGE('',*,*,#403,.F.);
#572=ORIENTED_EDGE('',*,*,#429,.T.);
#573=ORIENTED_EDGE('',*,*,#430,.T.);
#574=ORIENTED_EDGE('',*,*,#426,.T.);
#575=ORIENTED_EDGE('',*,*,#431,.T.);
#576=ORIENTED_EDGE('',*,*,#432,.T.);
#577=ORIENTED_EDGE('',*,*,#433,.T.);
#578=ORIENTED_EDGE('',*,*,#431,.F.);
#579=ORIENTED_EDGE('',*,*,#425,.F.);
#580=ORIENTED_EDGE('',*,*,#434,.F.);
#581=ORIENTED_EDGE('',*,*,#435,.F.);
#582=ORIENTED_EDGE('',*,*,#424,.T.);
#583=ORIENTED_EDGE('',*,*,#436,.T.);
#584=ORIENTED_EDGE('',*,*,#437,.T.);
#585=ORIENTED_EDGE('',*,*,#434,.T.);
#586=ORIENTED_EDGE('',*,*,#436,.F.);
#587=ORIENTED_EDGE('',*,*,#423,.T.);
#588=ORIENTED_EDGE('',*,*,#438,.F.);
#589=ORIENTED_EDGE('',*,*,#439,.F.);
#590=ORIENTED_EDGE('',*,*,#440,.T.);
#591=ORIENTED_EDGE('',*,*,#441,.T.);
#592=ORIENTED_EDGE('',*,*,#418,.T.);
#593=ORIENTED_EDGE('',*,*,#442,.T.);
#594=ORIENTED_EDGE('',*,*,#441,.F.);
#595=ORIENTED_EDGE('',*,*,#443,.T.);
#596=ORIENTED_EDGE('',*,*,#444,.F.);
#597=ORIENTED_EDGE('',*,*,#419,.F.);
#598=ORIENTED_EDGE('',*,*,#445,.T.);
#599=ORIENTED_EDGE('',*,*,#446,.T.);
#600=ORIENTED_EDGE('',*,*,#420,.T.);
#601=ORIENTED_EDGE('',*,*,#444,.T.);
#602=ORIENTED_EDGE('',*,*,#422,.T.);
#603=ORIENTED_EDGE('',*,*,#447,.T.);
#604=ORIENTED_EDGE('',*,*,#448,.T.);
#605=ORIENTED_EDGE('',*,*,#438,.T.);
#606=ORIENTED_EDGE('',*,*,#446,.F.);
#607=ORIENTED_EDGE('',*,*,#449,.T.);
#608=ORIENTED_EDGE('',*,*,#447,.F.);
#609=ORIENTED_EDGE('',*,*,#421,.T.);
#610=ORIENTED_EDGE('',*,*,#450,.T.);
#611=ORIENTED_EDGE('',*,*,#450,.F.);
#612=ORIENTED_EDGE('',*,*,#451,.T.);
#613=ORIENTED_EDGE('',*,*,#452,.F.);
#614=ORIENTED_EDGE('',*,*,#451,.F.);
#615=ORIENTED_EDGE('',*,*,#452,.T.);
#616=ORIENTED_EDGE('',*,*,#414,.F.);
#617=ORIENTED_EDGE('',*,*,#453,.F.);
#618=ORIENTED_EDGE('',*,*,#442,.F.);
#619=ORIENTED_EDGE('',*,*,#417,.F.);
#620=ORIENTED_EDGE('',*,*,#430,.F.);
#621=ORIENTED_EDGE('',*,*,#454,.F.);
#622=ORIENTED_EDGE('',*,*,#455,.F.);
#623=ORIENTED_EDGE('',*,*,#456,.F.);
#624=ORIENTED_EDGE('',*,*,#457,.F.);
#625=ORIENTED_EDGE('',*,*,#416,.F.);
#626=ORIENTED_EDGE('',*,*,#458,.F.);
#627=ORIENTED_EDGE('',*,*,#427,.F.);
#628=ORIENTED_EDGE('',*,*,#433,.F.);
#629=ORIENTED_EDGE('',*,*,#459,.F.);
#630=ORIENTED_EDGE('',*,*,#460,.F.);
#631=ORIENTED_EDGE('',*,*,#461,.F.);
#632=ORIENTED_EDGE('',*,*,#462,.F.);
#633=ORIENTED_EDGE('',*,*,#463,.F.);
#634=ORIENTED_EDGE('',*,*,#456,.T.);
#635=ORIENTED_EDGE('',*,*,#464,.F.);
#636=ORIENTED_EDGE('',*,*,#408,.T.);
#637=ORIENTED_EDGE('',*,*,#465,.T.);
#638=ORIENTED_EDGE('',*,*,#455,.T.);
#639=ORIENTED_EDGE('',*,*,#466,.F.);
#640=ORIENTED_EDGE('',*,*,#409,.F.);
#641=ORIENTED_EDGE('',*,*,#464,.T.);
#642=ORIENTED_EDGE('',*,*,#461,.T.);
#643=ORIENTED_EDGE('',*,*,#467,.F.);
#644=ORIENTED_EDGE('',*,*,#405,.F.);
#645=ORIENTED_EDGE('',*,*,#468,.T.);
#646=ORIENTED_EDGE('',*,*,#460,.T.);
#647=ORIENTED_EDGE('',*,*,#469,.F.);
#648=ORIENTED_EDGE('',*,*,#406,.T.);
#649=ORIENTED_EDGE('',*,*,#467,.T.);
#650=ORIENTED_EDGE('',*,*,#462,.T.);
#651=ORIENTED_EDGE('',*,*,#468,.F.);
#652=ORIENTED_EDGE('',*,*,#404,.T.);
#653=ORIENTED_EDGE('',*,*,#428,.T.);
#654=ORIENTED_EDGE('',*,*,#413,.F.);
#655=ORIENTED_EDGE('',*,*,#457,.T.);
#656=ORIENTED_EDGE('',*,*,#465,.F.);
#657=ORIENTED_EDGE('',*,*,#407,.F.);
#658=ORIENTED_EDGE('',*,*,#469,.T.);
#659=ORIENTED_EDGE('',*,*,#459,.T.);
#660=ORIENTED_EDGE('',*,*,#432,.F.);
#661=ORIENTED_EDGE('',*,*,#435,.T.);
#662=ORIENTED_EDGE('',*,*,#437,.F.);
#663=ORIENTED_EDGE('',*,*,#439,.T.);
#664=ORIENTED_EDGE('',*,*,#448,.F.);
#665=ORIENTED_EDGE('',*,*,#449,.F.);
#666=ORIENTED_EDGE('',*,*,#445,.F.);
#667=ORIENTED_EDGE('',*,*,#443,.F.);
#668=ORIENTED_EDGE('',*,*,#440,.F.);
#669=ORIENTED_EDGE('',*,*,#453,.T.);
#670=ORIENTED_EDGE('',*,*,#463,.T.);
#671=ORIENTED_EDGE('',*,*,#470,.T.);
#672=ORIENTED_EDGE('',*,*,#411,.T.);
#673=ORIENTED_EDGE('',*,*,#470,.F.);
#674=ORIENTED_EDGE('',*,*,#458,.T.);
#675=ORIENTED_EDGE('',*,*,#471,.T.);
#676=ORIENTED_EDGE('',*,*,#412,.T.);
#677=ORIENTED_EDGE('',*,*,#471,.F.);
#678=ORIENTED_EDGE('',*,*,#454,.T.);
#679=ORIENTED_EDGE('',*,*,#429,.F.);
#680=ORIENTED_EDGE('',*,*,#410,.T.);
#681=ORIENTED_EDGE('',*,*,#466,.T.);
#682=CYLINDRICAL_SURFACE('',#742,1.);
#683=CYLINDRICAL_SURFACE('',#746,1.);
#684=CYLINDRICAL_SURFACE('',#750,1.);
#685=CYLINDRICAL_SURFACE('',#754,1.);
#686=CYLINDRICAL_SURFACE('',#761,1.);
#687=CYLINDRICAL_SURFACE('',#763,1.);
#688=CYLINDRICAL_SURFACE('',#774,1.5);
#689=CYLINDRICAL_SURFACE('',#783,1.5);
#690=CYLINDRICAL_SURFACE('',#786,2.5);
#691=CYLINDRICAL_SURFACE('',#789,2.5);
#692=CYLINDRICAL_SURFACE('',#792,2.5);
#693=CYLINDRICAL_SURFACE('',#794,2.5);
#694=CYLINDRICAL_SURFACE('',#798,3.125);
#695=CYLINDRICAL_SURFACE('',#810,1.99999999999999);
#696=CYLINDRICAL_SURFACE('',#813,2.00000000000001);
#697=CYLINDRICAL_SURFACE('',#814,2.00000000000001);
#698=CYLINDRICAL_SURFACE('',#816,3.);
#699=CYLINDRICAL_SURFACE('',#817,3.);
#700=CYLINDRICAL_SURFACE('',#818,2.00000000000001);
#701=ADVANCED_FACE('',(#41),#682,.F.);
#702=ADVANCED_FACE('',(#42),#21,.F.);
#703=ADVANCED_FACE('',(#43),#683,.F.);
#704=ADVANCED_FACE('',(#44),#22,.F.);
#705=ADVANCED_FACE('',(#45),#684,.F.);
#706=ADVANCED_FACE('',(#46),#23,.F.);
#707=ADVANCED_FACE('',(#47),#685,.F.);
#708=ADVANCED_FACE('',(#48),#24,.F.);
#709=ADVANCED_FACE('',(#49),#25,.F.);
#710=ADVANCED_FACE('',(#50),#686,.F.);
#711=ADVANCED_FACE('',(#51),#687,.F.);
#712=ADVANCED_FACE('',(#52),#26,.F.);
#713=ADVANCED_FACE('',(#53),#27,.F.);
#714=ADVANCED_FACE('',(#54,#15,#16,#17),#28,.F.);
#715=ADVANCED_FACE('',(#55),#688,.T.);
#716=ADVANCED_FACE('',(#56),#29,.T.);
#717=ADVANCED_FACE('',(#57),#689,.T.);
#718=ADVANCED_FACE('',(#58),#30,.T.);
#719=ADVANCED_FACE('',(#59),#690,.F.);
#720=ADVANCED_FACE('',(#60),#31,.T.);
#721=ADVANCED_FACE('',(#61),#691,.F.);
#722=ADVANCED_FACE('',(#62),#32,.T.);
#723=ADVANCED_FACE('',(#63),#692,.T.);
#724=ADVANCED_FACE('',(#64),#693,.T.);
#725=ADVANCED_FACE('',(#65,#18),#33,.T.);
#726=ADVANCED_FACE('',(#66),#694,.F.);
#727=ADVANCED_FACE('',(#67),#34,.T.);
#728=ADVANCED_FACE('',(#68),#35,.T.);
#729=ADVANCED_FACE('',(#69,#19),#36,.T.);
#730=ADVANCED_FACE('',(#70,#20),#37,.T.);
#731=ADVANCED_FACE('',(#71),#695,.T.);
#732=ADVANCED_FACE('',(#72),#38,.T.);
#733=ADVANCED_FACE('',(#73),#39,.T.);
#734=ADVANCED_FACE('',(#74),#696,.T.);
#735=ADVANCED_FACE('',(#75),#697,.T.);
#736=ADVANCED_FACE('',(#76),#40,.T.);
#737=ADVANCED_FACE('',(#77),#698,.F.);
#738=ADVANCED_FACE('',(#78),#699,.F.);
#739=ADVANCED_FACE('',(#79),#700,.T.);
#740=CLOSED_SHELL('',(#701,#702,#703,#704,#705,#706,#707,#708,#709,#710,
#711,#712,#713,#714,#715,#716,#717,#718,#719,#720,#721,#722,#723,#724,#725,
#726,#727,#728,#729,#730,#731,#732,#733,#734,#735,#736,#737,#738,#739));
#741=AXIS2_PLACEMENT_3D('',#1042,#819,#820);
#742=AXIS2_PLACEMENT_3D('',#1043,#821,#822);
#743=AXIS2_PLACEMENT_3D('',#1046,#823,#824);
#744=AXIS2_PLACEMENT_3D('',#1050,#826,#827);
#745=AXIS2_PLACEMENT_3D('',#1052,#829,#830);
#746=AXIS2_PLACEMENT_3D('',#1058,#834,#835);
#747=AXIS2_PLACEMENT_3D('',#1060,#836,#837);
#748=AXIS2_PLACEMENT_3D('',#1063,#839,#840);
#749=AXIS2_PLACEMENT_3D('',#1064,#841,#842);
#750=AXIS2_PLACEMENT_3D('',#1070,#846,#847);
#751=AXIS2_PLACEMENT_3D('',#1072,#848,#849);
#752=AXIS2_PLACEMENT_3D('',#1075,#851,#852);
#753=AXIS2_PLACEMENT_3D('',#1076,#853,#854);
#754=AXIS2_PLACEMENT_3D('',#1082,#858,#859);
#755=AXIS2_PLACEMENT_3D('',#1085,#860,#861);
#756=AXIS2_PLACEMENT_3D('',#1089,#863,#864);
#757=AXIS2_PLACEMENT_3D('',#1091,#866,#867);
#758=AXIS2_PLACEMENT_3D('',#1096,#870,#871);
#759=AXIS2_PLACEMENT_3D('',#1099,#873,#874);
#760=AXIS2_PLACEMENT_3D('',#1100,#875,#876);
#761=AXIS2_PLACEMENT_3D('',#1104,#879,#880);
#762=AXIS2_PLACEMENT_3D('',#1106,#881,#882);
#763=AXIS2_PLACEMENT_3D('',#1108,#884,#885);
#764=AXIS2_PLACEMENT_3D('',#1111,#887,#888);
#765=AXIS2_PLACEMENT_3D('',#1112,#889,#890);
#766=AXIS2_PLACEMENT_3D('',#1114,#892,#893);
#767=AXIS2_PLACEMENT_3D('',#1116,#895,#896);
#768=AXIS2_PLACEMENT_3D('',#1121,#898,#899);
#769=AXIS2_PLACEMENT_3D('',#1125,#901,#902);
#770=AXIS2_PLACEMENT_3D('',#1129,#904,#905);
#771=AXIS2_PLACEMENT_3D('',#1132,#907,#908);
#772=AXIS2_PLACEMENT_3D('',#1134,#909,#910);
#773=AXIS2_PLACEMENT_3D('',#1136,#911,#912);
#774=AXIS2_PLACEMENT_3D('',#1137,#913,#914);
#775=AXIS2_PLACEMENT_3D('',#1140,#915,#916);
#776=AXIS2_PLACEMENT_3D('',#1144,#918,#919);
#777=AXIS2_PLACEMENT_3D('',#1146,#921,#922);
#778=AXIS2_PLACEMENT_3D('',#1150,#924,#925);
#779=AXIS2_PLACEMENT_3D('',#1154,#927,#928);
#780=AXIS2_PLACEMENT_3D('',#1158,#930,#931);
#781=AXIS2_PLACEMENT_3D('',#1162,#933,#934);
#782=AXIS2_PLACEMENT_3D('',#1166,#936,#937);
#783=AXIS2_PLACEMENT_3D('',#1173,#942,#943);
#784=AXIS2_PLACEMENT_3D('',#1177,#945,#946);
#785=AXIS2_PLACEMENT_3D('',#1179,#948,#949);
#786=AXIS2_PLACEMENT_3D('',#1183,#952,#953);
#787=AXIS2_PLACEMENT_3D('',#1186,#955,#956);
#788=AXIS2_PLACEMENT_3D('',#1187,#957,#958);
#789=AXIS2_PLACEMENT_3D('',#1191,#961,#962);
#790=AXIS2_PLACEMENT_3D('',#1194,#963,#964);
#791=AXIS2_PLACEMENT_3D('',#1197,#967,#968);
#792=AXIS2_PLACEMENT_3D('',#1201,#971,#972);
#793=AXIS2_PLACEMENT_3D('',#1203,#973,#974);
#794=AXIS2_PLACEMENT_3D('',#1205,#976,#977);
#795=AXIS2_PLACEMENT_3D('',#1208,#979,#980);
#796=AXIS2_PLACEMENT_3D('',#1209,#981,#982);
#797=AXIS2_PLACEMENT_3D('',#1212,#984,#985);
#798=AXIS2_PLACEMENT_3D('',#1213,#986,#987);
#799=AXIS2_PLACEMENT_3D('',#1216,#989,#990);
#800=AXIS2_PLACEMENT_3D('',#1217,#991,#992);
#801=AXIS2_PLACEMENT_3D('',#1218,#993,#994);
#802=AXIS2_PLACEMENT_3D('',#1220,#996,#997);
#803=AXIS2_PLACEMENT_3D('',#1222,#998,#999);
#804=AXIS2_PLACEMENT_3D('',#1226,#1001,#1002);
#805=AXIS2_PLACEMENT_3D('',#1229,#1004,#1005);
#806=AXIS2_PLACEMENT_3D('',#1230,#1006,#1007);
#807=AXIS2_PLACEMENT_3D('',#1234,#1009,#1010);
#808=AXIS2_PLACEMENT_3D('',#1237,#1012,#1013);
#809=AXIS2_PLACEMENT_3D('',#1239,#1014,#1015);
#810=AXIS2_PLACEMENT_3D('',#1240,#1016,#1017);
#811=AXIS2_PLACEMENT_3D('',#1243,#1020,#1021);
#812=AXIS2_PLACEMENT_3D('',#1245,#1023,#1024);
#813=AXIS2_PLACEMENT_3D('',#1248,#1027,#1028);
#814=AXIS2_PLACEMENT_3D('',#1250,#1030,#1031);
#815=AXIS2_PLACEMENT_3D('',#1251,#1032,#1033);
#816=AXIS2_PLACEMENT_3D('',#1252,#1034,#1035);
#817=AXIS2_PLACEMENT_3D('',#1254,#1037,#1038);
#818=AXIS2_PLACEMENT_3D('',#1256,#1040,#1041);
#819=DIRECTION('axis',(0.,0.,1.));
#820=DIRECTION('refdir',(1.,0.,0.));
#821=DIRECTION('center_axis',(0.,1.,0.));
#822=DIRECTION('ref_axis',(-0.866025403784439,0.,0.5));
#823=DIRECTION('center_axis',(0.,-1.,0.));
#824=DIRECTION('ref_axis',(-0.866025403784439,0.,0.5));
#825=DIRECTION('',(0.,-1.,0.));
#826=DIRECTION('center_axis',(0.,-1.,0.));
#827=DIRECTION('ref_axis',(-0.866025403784439,0.,0.5));
#828=DIRECTION('',(0.,1.,0.));
#829=DIRECTION('center_axis',(-0.5,0.,0.866025403784438));
#830=DIRECTION('ref_axis',(0.866025403784438,0.,0.5));
#831=DIRECTION('',(0.866025403784438,0.,0.5));
#832=DIRECTION('',(0.,1.,0.));
#833=DIRECTION('',(0.866025403784438,0.,0.5));
#834=DIRECTION('center_axis',(0.,1.,0.));
#835=DIRECTION('ref_axis',(-1.60246890531964E-15,0.,1.));
#836=DIRECTION('center_axis',(0.,-1.,0.));
#837=DIRECTION('ref_axis',(-1.60246890531964E-15,0.,1.));
#838=DIRECTION('',(0.,-1.,0.));
#839=DIRECTION('center_axis',(0.,-1.,0.));
#840=DIRECTION('ref_axis',(-1.60246890531964E-15,0.,1.));
#841=DIRECTION('center_axis',(0.499999999999999,0.,0.866025403784439));
#842=DIRECTION('ref_axis',(0.866025403784439,0.,-0.499999999999999));
#843=DIRECTION('',(0.866025403784439,0.,-0.499999999999999));
#844=DIRECTION('',(0.,1.,0.));
#845=DIRECTION('',(0.866025403784439,0.,-0.499999999999999));
#846=DIRECTION('center_axis',(0.,1.,0.));
#847=DIRECTION('ref_axis',(0.866025403784438,0.,0.5));
#848=DIRECTION('center_axis',(0.,-1.,0.));
#849=DIRECTION('ref_axis',(0.866025403784438,0.,0.5));
#850=DIRECTION('',(0.,-1.,0.));
#851=DIRECTION('center_axis',(0.,-1.,0.));
#852=DIRECTION('ref_axis',(0.866025403784438,0.,0.5));
#853=DIRECTION('center_axis',(1.,0.,9.34531165509392E-16));
#854=DIRECTION('ref_axis',(9.34531165509392E-16,0.,-1.));
#855=DIRECTION('',(9.34531165509392E-16,0.,-1.));
#856=DIRECTION('',(0.,1.,0.));
#857=DIRECTION('',(9.34531165509392E-16,0.,-1.));
#858=DIRECTION('center_axis',(0.,1.,0.));
#859=DIRECTION('ref_axis',(-0.866025403784439,0.,-0.5));
#860=DIRECTION('center_axis',(0.,-1.,0.));
#861=DIRECTION('ref_axis',(-0.866025403784439,0.,-0.5));
#862=DIRECTION('',(0.,-1.,0.));
#863=DIRECTION('center_axis',(0.,-1.,0.));
#864=DIRECTION('ref_axis',(-0.866025403784439,0.,-0.5));
#865=DIRECTION('',(0.,1.,0.));
#866=DIRECTION('center_axis',(0.,1.,0.));
#867=DIRECTION('ref_axis',(1.,0.,0.));
#868=DIRECTION('',(-3.73812466203756E-16,0.,1.));
#869=DIRECTION('',(-0.866025403784439,0.,0.5));
#870=DIRECTION('center_axis',(0.,-1.,0.));
#871=DIRECTION('ref_axis',(5.20802394228881E-16,0.,-1.));
#872=DIRECTION('',(-0.866025403784438,0.,-0.500000000000001));
#873=DIRECTION('center_axis',(0.,-1.,0.));
#874=DIRECTION('ref_axis',(0.866025403784439,0.,-0.5));
#875=DIRECTION('center_axis',(-0.5,0.,-0.866025403784439));
#876=DIRECTION('ref_axis',(-0.866025403784439,0.,0.5));
#877=DIRECTION('',(-0.866025403784439,0.,0.5));
#878=DIRECTION('',(0.,-1.,0.));
#879=DIRECTION('center_axis',(0.,1.,0.));
#880=DIRECTION('ref_axis',(5.20802394228881E-16,0.,-1.));
#881=DIRECTION('center_axis',(0.,-1.,0.));
#882=DIRECTION('ref_axis',(5.20802394228881E-16,0.,-1.));
#883=DIRECTION('',(0.,1.,0.));
#884=DIRECTION('center_axis',(0.,1.,0.));
#885=DIRECTION('ref_axis',(0.866025403784439,0.,-0.5));
#886=DIRECTION('',(0.,-1.,0.));
#887=DIRECTION('center_axis',(0.,-1.,0.));
#888=DIRECTION('ref_axis',(0.866025403784439,0.,-0.5));
#889=DIRECTION('center_axis',(-1.,0.,-3.73812466203756E-16));
#890=DIRECTION('ref_axis',(-3.73812466203756E-16,0.,1.));
#891=DIRECTION('',(-3.73812466203756E-16,0.,1.));
#892=DIRECTION('center_axis',(0.500000000000001,0.,-0.866025403784438));
#893=DIRECTION('ref_axis',(-0.866025403784438,0.,-0.500000000000001));
#894=DIRECTION('',(-0.866025403784438,0.,-0.500000000000001));
#895=DIRECTION('center_axis',(0.,1.,0.));
#896=DIRECTION('ref_axis',(1.,0.,0.));
#897=DIRECTION('',(1.,0.,0.));
#898=DIRECTION('center_axis',(0.,1.,0.));
#899=DIRECTION('ref_axis',(1.,0.,0.));
#900=DIRECTION('',(0.,0.,1.));
#901=DIRECTION('center_axis',(0.,1.,0.));
#902=DIRECTION('ref_axis',(0.,0.,1.));
#903=DIRECTION('',(-1.,0.,0.));
#904=DIRECTION('center_axis',(0.,1.,0.));
#905=DIRECTION('ref_axis',(-1.,0.,0.));
#906=DIRECTION('',(0.,0.,-1.));
#907=DIRECTION('center_axis',(0.,1.,0.));
#908=DIRECTION('ref_axis',(0.,0.,-1.));
#909=DIRECTION('center_axis',(0.,-1.,0.));
#910=DIRECTION('ref_axis',(1.,0.,0.));
#911=DIRECTION('center_axis',(0.,-1.,0.));
#912=DIRECTION('ref_axis',(1.,0.,0.));
#913=DIRECTION('center_axis',(0.,0.,-1.));
#914=DIRECTION('ref_axis',(-0.942809041582063,0.333333333333333,0.));
#915=DIRECTION('center_axis',(0.,0.,-1.));
#916=DIRECTION('ref_axis',(-0.942809041582063,0.333333333333333,0.));
#917=DIRECTION('',(0.,0.,-1.));
#918=DIRECTION('center_axis',(0.,0.,1.));
#919=DIRECTION('ref_axis',(-0.942809041582063,0.333333333333333,0.));
#920=DIRECTION('',(0.,0.,1.));
#921=DIRECTION('center_axis',(0.,0.,-1.));
#922=DIRECTION('ref_axis',(-1.,0.,0.));
#923=DIRECTION('',(1.,0.,0.));
#924=DIRECTION('center_axis',(0.,0.,-1.));
#925=DIRECTION('ref_axis',(0.707106781186547,-0.707106781186547,0.));
#926=DIRECTION('',(0.,1.,0.));
#927=DIRECTION('center_axis',(0.,0.,1.));
#928=DIRECTION('ref_axis',(-0.707106781186547,0.707106781186547,0.));
#929=DIRECTION('',(-1.,0.,1.33226762955019E-16));
#930=DIRECTION('center_axis',(0.,0.,1.));
#931=DIRECTION('ref_axis',(0.707106781186547,0.707106781186547,0.));
#932=DIRECTION('',(0.,1.,0.));
#933=DIRECTION('center_axis',(0.,0.,-1.));
#934=DIRECTION('ref_axis',(-0.707106781186547,-0.707106781186547,0.));
#935=DIRECTION('',(1.,0.,0.));
#936=DIRECTION('center_axis',(0.,0.,1.));
#937=DIRECTION('ref_axis',(0.942809041582063,0.333333333333333,0.));
#938=DIRECTION('',(1.,0.,0.));
#939=DIRECTION('',(0.,1.,0.));
#940=DIRECTION('',(0.,1.,0.));
#941=DIRECTION('',(1.,0.,0.));
#942=DIRECTION('center_axis',(0.,0.,1.));
#943=DIRECTION('ref_axis',(0.942809041582063,0.333333333333333,0.));
#944=DIRECTION('',(0.,0.,1.));
#945=DIRECTION('center_axis',(0.,0.,-1.));
#946=DIRECTION('ref_axis',(0.942809041582063,0.333333333333333,0.));
#947=DIRECTION('',(0.,0.,-1.));
#948=DIRECTION('center_axis',(0.,1.,0.));
#949=DIRECTION('ref_axis',(1.,0.,0.));
#950=DIRECTION('',(-1.48029736616688E-16,0.,-1.));
#951=DIRECTION('',(-1.,0.,0.));
#952=DIRECTION('center_axis',(1.48029736616688E-16,0.,1.));
#953=DIRECTION('ref_axis',(-0.707106781186547,-0.707106781186547,0.));
#954=DIRECTION('',(1.48029736616688E-16,0.,1.));
#955=DIRECTION('center_axis',(0.,0.,1.));
#956=DIRECTION('ref_axis',(-0.707106781186547,-0.707106781186547,0.));
#957=DIRECTION('center_axis',(1.,0.,-1.48029736616688E-16));
#958=DIRECTION('ref_axis',(-1.48029736616688E-16,0.,-1.));
#959=DIRECTION('',(-1.48029736616688E-16,0.,-1.));
#960=DIRECTION('',(0.,1.,0.));
#961=DIRECTION('center_axis',(0.,0.,-1.));
#962=DIRECTION('ref_axis',(0.707106781186547,-0.707106781186547,0.));
#963=DIRECTION('center_axis',(0.,0.,1.));
#964=DIRECTION('ref_axis',(0.707106781186547,-0.707106781186547,0.));
#965=DIRECTION('',(0.,0.,-1.));
#966=DIRECTION('',(0.,0.,1.));
#967=DIRECTION('center_axis',(-1.,0.,0.));
#968=DIRECTION('ref_axis',(0.,0.,1.));
#969=DIRECTION('',(0.,1.,0.));
#970=DIRECTION('',(0.,0.,1.));
#971=DIRECTION('center_axis',(0.,0.,1.));
#972=DIRECTION('ref_axis',(-0.707106781186547,0.707106781186547,0.));
#973=DIRECTION('center_axis',(0.,0.,-1.));
#974=DIRECTION('ref_axis',(-0.707106781186547,0.707106781186547,0.));
#975=DIRECTION('',(0.,0.,-1.));
#976=DIRECTION('center_axis',(-1.48029736616688E-16,0.,-1.));
#977=DIRECTION('ref_axis',(0.707106781186547,0.707106781186547,0.));
#978=DIRECTION('',(1.48029736616688E-16,0.,1.));
#979=DIRECTION('center_axis',(0.,0.,-1.));
#980=DIRECTION('ref_axis',(0.707106781186547,0.707106781186547,0.));
#981=DIRECTION('center_axis',(0.,1.,0.));
#982=DIRECTION('ref_axis',(0.,0.,1.));
#983=DIRECTION('',(1.,0.,1.77635683940025E-16));
#984=DIRECTION('center_axis',(0.,-1.,0.));
#985=DIRECTION('ref_axis',(1.,0.,0.));
#986=DIRECTION('center_axis',(0.,1.,0.));
#987=DIRECTION('ref_axis',(1.,0.,0.));
#988=DIRECTION('',(0.,-1.,0.));
#989=DIRECTION('center_axis',(0.,1.,0.));
#990=DIRECTION('ref_axis',(1.,0.,0.));
#991=DIRECTION('center_axis',(0.,1.,0.));
#992=DIRECTION('ref_axis',(0.,0.,1.));
#993=DIRECTION('center_axis',(0.,1.,0.));
#994=DIRECTION('ref_axis',(1.,0.,0.));
#995=DIRECTION('',(-1.,0.,0.));
#996=DIRECTION('center_axis',(0.,1.,0.));
#997=DIRECTION('ref_axis',(0.,0.,1.));
#998=DIRECTION('center_axis',(0.,-1.,0.));
#999=DIRECTION('ref_axis',(0.,0.,-1.));
#1000=DIRECTION('',(0.,0.,-1.));
#1001=DIRECTION('center_axis',(0.,-1.,0.));
#1002=DIRECTION('ref_axis',(-1.,0.,0.));
#1003=DIRECTION('',(-1.,0.,0.));
#1004=DIRECTION('center_axis',(0.,1.,0.));
#1005=DIRECTION('ref_axis',(1.,0.,0.));
#1006=DIRECTION('center_axis',(0.,1.,0.));
#1007=DIRECTION('ref_axis',(0.,0.,1.));
#1008=DIRECTION('',(-1.,0.,0.));
#1009=DIRECTION('center_axis',(0.,-1.,0.));
#1010=DIRECTION('ref_axis',(0.,0.,1.));
#1011=DIRECTION('',(0.,0.,1.));
#1012=DIRECTION('center_axis',(0.,-1.,0.));
#1013=DIRECTION('ref_axis',(1.,0.,0.));
#1014=DIRECTION('center_axis',(0.,1.,0.));
#1015=DIRECTION('ref_axis',(1.,0.,0.));
#1016=DIRECTION('center_axis',(0.,1.,0.));
#1017=DIRECTION('ref_axis',(-1.,0.,0.));
#1018=DIRECTION('',(0.,1.,0.));
#1019=DIRECTION('',(0.,1.,0.));
#1020=DIRECTION('center_axis',(-1.,0.,0.));
#1021=DIRECTION('ref_axis',(0.,0.,1.));
#1022=DIRECTION('',(0.,1.,0.));
#1023=DIRECTION('center_axis',(1.,0.,0.));
#1024=DIRECTION('ref_axis',(0.,0.,-1.));
#1025=DIRECTION('',(0.,1.,0.));
#1026=DIRECTION('',(0.,1.,0.));
#1027=DIRECTION('center_axis',(0.,1.,0.));
#1028=DIRECTION('ref_axis',(0.,0.,1.));
#1029=DIRECTION('',(0.,1.,0.));
#1030=DIRECTION('center_axis',(0.,1.,0.));
#1031=DIRECTION('ref_axis',(1.,0.,0.));
#1032=DIRECTION('center_axis',(0.,0.,1.));
#1033=DIRECTION('ref_axis',(1.,0.,0.));
#1034=DIRECTION('center_axis',(0.,1.,0.));
#1035=DIRECTION('ref_axis',(1.,0.,0.));
#1036=DIRECTION('',(0.,-1.,0.));
#1037=DIRECTION('center_axis',(0.,1.,0.));
#1038=DIRECTION('ref_axis',(1.,0.,0.));
#1039=DIRECTION('',(0.,-1.,0.));
#1040=DIRECTION('center_axis',(0.,1.,0.));
#1041=DIRECTION('ref_axis',(0.,0.,-1.));
#1042=CARTESIAN_POINT('',(0.,0.,0.));
#1043=CARTESIAN_POINT('Origin',(-4.14419089847957,11.0750020675703,17.4026497308104));
#1044=CARTESIAN_POINT('',(-4.64419089847957,15.0750020675703,18.2686751345948));
#1045=CARTESIAN_POINT('',(-5.14419089847957,15.0750020675703,17.4026497308104));
#1046=CARTESIAN_POINT('Origin',(-4.14419089847957,15.0750020675703,17.4026497308104));
#1047=CARTESIAN_POINT('',(-4.64419089847957,11.0750020675703,18.2686751345948));
#1048=CARTESIAN_POINT('',(-4.64419089847957,11.0750020675703,18.2686751345948));
#1049=CARTESIAN_POINT('',(-5.14419089847957,11.0750020675703,17.4026497308104));
#1050=CARTESIAN_POINT('Origin',(-4.14419089847957,11.0750020675703,17.4026497308104));
#1051=CARTESIAN_POINT('',(-5.14419089847957,11.0750020675703,17.4026497308104));
#1052=CARTESIAN_POINT('Origin',(-5.14419089847957,11.0750020675703,17.98));
#1053=CARTESIAN_POINT('',(-0.500000000000003,15.0750020675703,20.6613248654052));
#1054=CARTESIAN_POINT('',(-5.14419089847957,15.0750020675703,17.98));
#1055=CARTESIAN_POINT('',(-0.500000000000003,11.0750020675703,20.6613248654052));
#1056=CARTESIAN_POINT('',(-0.500000000000003,11.0750020675703,20.6613248654052));
#1057=CARTESIAN_POINT('',(-3.85814317385966,11.0750020675703,18.7225));
#1058=CARTESIAN_POINT('Origin',(-1.66533453693773E-15,11.0750020675703,
19.7952994616207));
#1059=CARTESIAN_POINT('',(0.499999999999996,15.0750020675703,20.6613248654052));
#1060=CARTESIAN_POINT('Origin',(-1.66533453693773E-15,15.0750020675703,
19.7952994616207));
#1061=CARTESIAN_POINT('',(0.499999999999996,11.0750020675703,20.6613248654052));
#1062=CARTESIAN_POINT('',(0.499999999999997,11.0750020675703,20.6613248654052));
#1063=CARTESIAN_POINT('Origin',(-1.66533453693773E-15,11.0750020675703,
19.7952994616207));
#1064=CARTESIAN_POINT('Origin',(-3.88578058618805E-15,11.0750020675703,
20.95));
#1065=CARTESIAN_POINT('',(4.64419089847956,15.0750020675703,18.2686751345948));
#1066=CARTESIAN_POINT('',(-3.88578058618805E-15,15.0750020675703,20.95));
#1067=CARTESIAN_POINT('',(4.64419089847956,11.0750020675703,18.2686751345948));
#1068=CARTESIAN_POINT('',(4.64419089847956,11.0750020675703,18.2686751345948));
#1069=CARTESIAN_POINT('',(1.2860477246199,11.0750020675703,20.2075));
#1070=CARTESIAN_POINT('Origin',(4.14419089847956,11.0750020675703,17.4026497308104));
#1071=CARTESIAN_POINT('',(5.14419089847956,15.0750020675703,17.4026497308104));
#1072=CARTESIAN_POINT('Origin',(4.14419089847956,15.0750020675703,17.4026497308104));
#1073=CARTESIAN_POINT('',(5.14419089847956,11.0750020675703,17.4026497308104));
#1074=CARTESIAN_POINT('',(5.14419089847956,11.0750020675703,17.4026497308104));
#1075=CARTESIAN_POINT('Origin',(4.14419089847956,11.0750020675703,17.4026497308104));
#1076=CARTESIAN_POINT('Origin',(5.14419089847956,11.0750020675703,17.98));
#1077=CARTESIAN_POINT('',(5.14419089847957,15.0750020675703,12.6173502691896));
#1078=CARTESIAN_POINT('',(5.14419089847956,15.0750020675703,17.98));
#1079=CARTESIAN_POINT('',(5.14419089847957,11.0750020675703,12.6173502691896));
#1080=CARTESIAN_POINT('',(5.14419089847957,11.0750020675703,12.6173502691896));
#1081=CARTESIAN_POINT('',(5.14419089847956,11.0750020675703,16.495));
#1082=CARTESIAN_POINT('Origin',(-4.14419089847957,11.0750020675703,12.6173502691896));
#1083=CARTESIAN_POINT('',(-5.14419089847956,15.0750020675703,12.6173502691896));
#1084=CARTESIAN_POINT('',(-4.64419089847957,15.0750020675703,11.7513248654052));
#1085=CARTESIAN_POINT('Origin',(-4.14419089847957,15.0750020675703,12.6173502691896));
#1086=CARTESIAN_POINT('',(-5.14419089847957,11.0750020675703,12.6173502691896));
#1087=CARTESIAN_POINT('',(-5.14419089847956,11.0750020675703,12.6173502691896));
#1088=CARTESIAN_POINT('',(-4.64419089847957,11.0750020675703,11.7513248654052));
#1089=CARTESIAN_POINT('Origin',(-4.14419089847957,11.0750020675703,12.6173502691896));
#1090=CARTESIAN_POINT('',(-4.64419089847957,11.0750020675703,11.7513248654052));
#1091=CARTESIAN_POINT('Origin',(3.5527136788005E-14,15.0750020675703,15.01));
#1092=CARTESIAN_POINT('',(-5.14419089847956,15.0750020675703,12.04));
#1093=CARTESIAN_POINT('',(-0.500000000000001,15.0750020675703,9.35867513459481));
#1094=CARTESIAN_POINT('',(1.30186023657741E-37,15.0750020675703,9.07));
#1095=CARTESIAN_POINT('',(0.500000000000001,15.0750020675703,9.35867513459481));
#1096=CARTESIAN_POINT('Origin',(-2.77555756156289E-16,15.0750020675703,
10.2247005383792));
#1097=CARTESIAN_POINT('',(4.64419089847957,15.0750020675703,11.7513248654052));
#1098=CARTESIAN_POINT('',(5.14419089847957,15.0750020675703,12.04));
#1099=CARTESIAN_POINT('Origin',(4.14419089847957,15.0750020675703,12.6173502691896));
#1100=CARTESIAN_POINT('Origin',(1.30186023657741E-37,11.0750020675703,9.07));
#1101=CARTESIAN_POINT('',(-0.5,11.0750020675703,9.35867513459481));
#1102=CARTESIAN_POINT('',(-1.28604772461988,11.0750020675703,9.81249999999999));
#1103=CARTESIAN_POINT('',(-0.500000000000001,11.0750020675703,9.35867513459481));
#1104=CARTESIAN_POINT('Origin',(-2.77555756156289E-16,11.0750020675703,
10.2247005383792));
#1105=CARTESIAN_POINT('',(0.500000000000001,11.0750020675703,9.35867513459481));
#1106=CARTESIAN_POINT('Origin',(-2.77555756156289E-16,11.0750020675703,
10.2247005383792));
#1107=CARTESIAN_POINT('',(0.500000000000001,11.0750020675703,9.35867513459481));
#1108=CARTESIAN_POINT('Origin',(4.14419089847957,11.0750020675703,12.6173502691896));
#1109=CARTESIAN_POINT('',(4.64419089847957,11.0750020675703,11.7513248654052));
#1110=CARTESIAN_POINT('',(4.64419089847957,11.0750020675703,11.7513248654052));
#1111=CARTESIAN_POINT('Origin',(4.14419089847957,11.0750020675703,12.6173502691896));
#1112=CARTESIAN_POINT('Origin',(-5.14419089847956,11.0750020675703,12.04));
#1113=CARTESIAN_POINT('',(-5.14419089847957,11.0750020675703,13.525));
#1114=CARTESIAN_POINT('Origin',(5.14419089847957,11.0750020675703,12.04));
#1115=CARTESIAN_POINT('',(3.85814317385969,11.0750020675703,11.2975));
#1116=CARTESIAN_POINT('Origin',(3.5527136788005E-14,11.0750020675703,15.01));
#1117=CARTESIAN_POINT('',(-50.5,11.0750020675703,7.51));
#1118=CARTESIAN_POINT('',(50.5,11.0750020675703,7.51));
#1119=CARTESIAN_POINT('',(-50.5,11.0750020675703,7.51));
#1120=CARTESIAN_POINT('',(52.5,11.0750020675703,9.51000000000001));
#1121=CARTESIAN_POINT('Origin',(50.5,11.0750020675703,9.51000000000001));
#1122=CARTESIAN_POINT('',(52.5,11.0750020675703,20.51));
#1123=CARTESIAN_POINT('',(52.5,11.0750020675703,9.51000000000001));
#1124=CARTESIAN_POINT('',(50.5,11.0750020675703,22.51));
#1125=CARTESIAN_POINT('Origin',(50.5,11.0750020675703,20.51));
#1126=CARTESIAN_POINT('',(-50.5,11.0750020675703,22.51));
#1127=CARTESIAN_POINT('',(50.5,11.0750020675703,22.51));
#1128=CARTESIAN_POINT('',(-52.5,11.0750020675703,20.51));
#1129=CARTESIAN_POINT('Origin',(-50.5,11.0750020675703,20.51));
#1130=CARTESIAN_POINT('',(-52.5,11.0750020675703,9.51000000000001));
#1131=CARTESIAN_POINT('',(-52.5,11.0750020675703,20.51));
#1132=CARTESIAN_POINT('Origin',(-50.5,11.0750020675703,9.51000000000001));
#1133=CARTESIAN_POINT('',(42.0000006705523,11.0750020675703,15.0000002235174));
#1134=CARTESIAN_POINT('Origin',(45.0000006705523,11.0750020675703,15.0000002235174));
#1135=CARTESIAN_POINT('',(-48.,11.0750020675703,15.));
#1136=CARTESIAN_POINT('Origin',(-45.,11.0750020675703,15.));
#1137=CARTESIAN_POINT('Origin',(-36.0857864376269,12.5750020675703,18.76));
#1138=CARTESIAN_POINT('',(-37.5,13.0750020675703,22.51));
#1139=CARTESIAN_POINT('',(-36.0857864376269,14.0750020675703,22.51));
#1140=CARTESIAN_POINT('Origin',(-36.0857864376269,12.5750020675703,22.51));
#1141=CARTESIAN_POINT('',(-36.0857864376269,14.0750020675703,7.51));
#1142=CARTESIAN_POINT('',(-36.0857864376269,14.0750020675703,18.76));
#1143=CARTESIAN_POINT('',(-37.5,13.0750020675703,7.51));
#1144=CARTESIAN_POINT('Origin',(-36.0857864376269,12.5750020675703,7.51));
#1145=CARTESIAN_POINT('',(-37.5,13.0750020675703,18.76));
#1146=CARTESIAN_POINT('Origin',(50.5,11.0750020675703,7.51));
#1147=CARTESIAN_POINT('',(-15.,14.0750020675703,7.51));
#1148=CARTESIAN_POINT('',(25.25,14.0750020675703,7.51));
#1149=CARTESIAN_POINT('',(-12.5,16.5750020675703,7.51));
#1150=CARTESIAN_POINT('Origin',(-15.,16.5750020675703,7.51));
#1151=CARTESIAN_POINT('',(-12.5,18.5750020675703,7.51));
#1152=CARTESIAN_POINT('',(-12.5,11.0750020675703,7.51));
#1153=CARTESIAN_POINT('',(-10.,21.0750020675703,7.51));
#1154=CARTESIAN_POINT('Origin',(-10.,18.5750020675703,7.51));
#1155=CARTESIAN_POINT('',(10.,21.0750020675703,7.50999999999999));
#1156=CARTESIAN_POINT('',(6.25,21.0750020675703,7.50999999999999));
#1157=CARTESIAN_POINT('',(12.5,18.5750020675703,7.50999999999999));
#1158=CARTESIAN_POINT('Origin',(10.,18.5750020675703,7.51000000000001));
#1159=CARTESIAN_POINT('',(12.5,16.5750020675703,7.50999999999999));
#1160=CARTESIAN_POINT('',(12.5,11.0750020675703,7.50999999999999));
#1161=CARTESIAN_POINT('',(15.,14.0750020675703,7.51));
#1162=CARTESIAN_POINT('Origin',(15.,16.5750020675703,7.51000000000001));
#1163=CARTESIAN_POINT('',(36.0857871081792,14.0750020675703,7.51));
#1164=CARTESIAN_POINT('',(25.25,14.0750020675703,7.51));
#1165=CARTESIAN_POINT('',(37.5000006705523,13.0750020675703,7.51));
#1166=CARTESIAN_POINT('Origin',(36.0857871081792,12.5750020675703,7.51));
#1167=CARTESIAN_POINT('',(50.5,13.0750020675703,7.51));
#1168=CARTESIAN_POINT('',(25.25,13.0750020675703,7.51));
#1169=CARTESIAN_POINT('',(50.5,11.0750020675703,7.51));
#1170=CARTESIAN_POINT('',(-50.5,13.0750020675703,7.51));
#1171=CARTESIAN_POINT('',(-50.5,11.0750020675703,7.51));
#1172=CARTESIAN_POINT('',(25.25,13.0750020675703,7.51));
#1173=CARTESIAN_POINT('Origin',(36.0857871081792,12.5750020675703,11.26));
#1174=CARTESIAN_POINT('',(36.0857871081792,14.0750020675703,22.51));
#1175=CARTESIAN_POINT('',(36.0857871081792,14.0750020675703,11.26));
#1176=CARTESIAN_POINT('',(37.5000006705523,13.0750020675703,22.51));
#1177=CARTESIAN_POINT('Origin',(36.0857871081792,12.5750020675703,22.51));
#1178=CARTESIAN_POINT('',(37.5000006705523,13.0750020675703,11.26));
#1179=CARTESIAN_POINT('Origin',(3.5527136788005E-14,14.0750020675703,15.01));
#1180=CARTESIAN_POINT('',(15.,14.0750020675703,22.51));
#1181=CARTESIAN_POINT('',(15.,14.0750020675703,18.76));
#1182=CARTESIAN_POINT('',(-25.25,14.0750020675703,22.51));
#1183=CARTESIAN_POINT('Origin',(15.,16.5750020675703,18.76));
#1184=CARTESIAN_POINT('',(12.5,16.5750020675703,22.51));
#1185=CARTESIAN_POINT('',(12.5,16.5750020675703,18.76));
#1186=CARTESIAN_POINT('Origin',(15.,16.5750020675703,22.51));
#1187=CARTESIAN_POINT('Origin',(12.5,11.0750020675703,22.51));
#1188=CARTESIAN_POINT('',(12.5,18.5750020675703,22.51));
#1189=CARTESIAN_POINT('',(12.5,18.5750020675703,18.76));
#1190=CARTESIAN_POINT('',(12.5,11.0750020675703,22.51));
#1191=CARTESIAN_POINT('Origin',(-15.,16.5750020675703,11.26));
#1192=CARTESIAN_POINT('',(-15.,14.0750020675703,22.51));
#1193=CARTESIAN_POINT('',(-12.5,16.5750020675703,22.51));
#1194=CARTESIAN_POINT('Origin',(-15.,16.5750020675703,22.51));
#1195=CARTESIAN_POINT('',(-12.5,16.5750020675703,11.26));
#1196=CARTESIAN_POINT('',(-15.,14.0750020675703,11.26));
#1197=CARTESIAN_POINT('Origin',(-12.5,11.0750020675703,7.50999999999999));
#1198=CARTESIAN_POINT('',(-12.5,18.5750020675703,22.51));
#1199=CARTESIAN_POINT('',(-12.5,11.0750020675703,22.51));
#1200=CARTESIAN_POINT('',(-12.5,18.5750020675703,11.26));
#1201=CARTESIAN_POINT('Origin',(-10.,18.5750020675703,11.26));
#1202=CARTESIAN_POINT('',(-10.,21.0750020675703,22.51));
#1203=CARTESIAN_POINT('Origin',(-10.,18.5750020675703,22.51));
#1204=CARTESIAN_POINT('',(-10.,21.0750020675703,11.26));
#1205=CARTESIAN_POINT('Origin',(10.,18.5750020675703,18.76));
#1206=CARTESIAN_POINT('',(10.,21.0750020675703,22.51));
#1207=CARTESIAN_POINT('',(10.,21.0750020675703,18.76));
#1208=CARTESIAN_POINT('Origin',(10.,18.5750020675703,22.51));
#1209=CARTESIAN_POINT('Origin',(4.44089209850063E-15,21.0750020675703,15.01));
#1210=CARTESIAN_POINT('',(-6.25,21.0750020675703,22.51));
#1211=CARTESIAN_POINT('',(-3.125,21.0750020675703,15.01));
#1212=CARTESIAN_POINT('Origin',(1.30186023657741E-37,21.0750020675703,15.01));
#1213=CARTESIAN_POINT('Origin',(1.30186023657741E-37,16.0750020675703,15.01));
#1214=CARTESIAN_POINT('',(-3.125,16.0750020675703,15.01));
#1215=CARTESIAN_POINT('',(-3.125,16.0750020675703,15.01));
#1216=CARTESIAN_POINT('Origin',(1.30186023657741E-37,16.0750020675703,15.01));
#1217=CARTESIAN_POINT('Origin',(4.44089209850063E-15,16.0750020675703,15.01));
#1218=CARTESIAN_POINT('Origin',(3.5527136788005E-14,14.0750020675703,15.01));
#1219=CARTESIAN_POINT('',(-25.25,14.0750020675703,22.51));
#1220=CARTESIAN_POINT('Origin',(3.5527136788005E-14,13.0750020675703,15.01));
#1221=CARTESIAN_POINT('',(-52.5,13.0750020675703,9.51000000000001));
#1222=CARTESIAN_POINT('Origin',(-50.5,13.0750020675703,9.51000000000001));
#1223=CARTESIAN_POINT('',(-52.5,13.0750020675703,20.51));
#1224=CARTESIAN_POINT('',(-52.5,13.0750020675703,12.26));
#1225=CARTESIAN_POINT('',(-50.5,13.0750020675703,22.51));
#1226=CARTESIAN_POINT('Origin',(-50.5,13.0750020675703,20.51));
#1227=CARTESIAN_POINT('',(-25.25,13.0750020675703,22.51));
#1228=CARTESIAN_POINT('',(-48.,13.0750020675703,15.));
#1229=CARTESIAN_POINT('Origin',(-45.,13.0750020675703,15.));
#1230=CARTESIAN_POINT('Origin',(3.5527136788005E-14,13.0750020675703,15.01));
#1231=CARTESIAN_POINT('',(50.5,13.0750020675703,22.51));
#1232=CARTESIAN_POINT('',(-25.25,13.0750020675703,22.51));
#1233=CARTESIAN_POINT('',(52.5,13.0750020675703,20.51));
#1234=CARTESIAN_POINT('Origin',(50.5,13.0750020675703,20.51));
#1235=CARTESIAN_POINT('',(52.5,13.0750020675703,9.51000000000001));
#1236=CARTESIAN_POINT('',(52.5,13.0750020675703,17.76));
#1237=CARTESIAN_POINT('Origin',(50.5,13.0750020675703,9.51000000000001));
#1238=CARTESIAN_POINT('',(42.0000006705523,13.0750020675703,15.0000002235174));
#1239=CARTESIAN_POINT('Origin',(45.0000006705523,13.0750020675703,15.0000002235174));
#1240=CARTESIAN_POINT('Origin',(-50.5,11.0750020675703,20.51));
#1241=CARTESIAN_POINT('',(-52.5,11.0750020675703,20.51));
#1242=CARTESIAN_POINT('',(-50.5,13.0750020675703,22.51));
#1243=CARTESIAN_POINT('Origin',(-52.5,11.0750020675703,9.51000000000001));
#1244=CARTESIAN_POINT('',(-52.5,11.0750020675703,9.51000000000001));
#1245=CARTESIAN_POINT('Origin',(52.5,11.0750020675703,20.51));
#1246=CARTESIAN_POINT('',(52.5,13.0750020675703,20.51));
#1247=CARTESIAN_POINT('',(52.5,13.0750020675703,9.51000000000001));
#1248=CARTESIAN_POINT('Origin',(50.5,11.0750020675703,20.51));
#1249=CARTESIAN_POINT('',(50.5,13.0750020675703,22.51));
#1250=CARTESIAN_POINT('Origin',(50.5,11.0750020675703,9.51000000000001));
#1251=CARTESIAN_POINT('Origin',(-50.5,11.0750020675703,22.51));
#1252=CARTESIAN_POINT('Origin',(45.0000006705523,11.0750020675703,15.0000002235174));
#1253=CARTESIAN_POINT('',(42.0000006705523,11.0750020675703,15.0000002235174));
#1254=CARTESIAN_POINT('Origin',(-45.,11.0750020675703,15.));
#1255=CARTESIAN_POINT('',(-48.,11.0750020675703,15.));
#1256=CARTESIAN_POINT('Origin',(-50.5,11.0750020675703,9.51000000000001));
#1257=UNCERTAINTY_MEASURE_WITH_UNIT(LENGTH_MEASURE(0.01),#1261,
'DISTANCE_ACCURACY_VALUE',
'Maximum model space distance between geometric entities at asserted c
onnectivities');
#1258=UNCERTAINTY_MEASURE_WITH_UNIT(LENGTH_MEASURE(0.01),#1261,
'DISTANCE_ACCURACY_VALUE',
'Maximum model space distance between geometric entities at asserted c
onnectivities');
#1259=(
GEOMETRIC_REPRESENTATION_CONTEXT(3)
GLOBAL_UNCERTAINTY_ASSIGNED_CONTEXT((#1257))
GLOBAL_UNIT_ASSIGNED_CONTEXT((#1261,#1262,#1263))
REPRESENTATION_CONTEXT('','3D')
);
#1260=(
GEOMETRIC_REPRESENTATION_CONTEXT(3)
GLOBAL_UNCERTAINTY_ASSIGNED_CONTEXT((#1258))
GLOBAL_UNIT_ASSIGNED_CONTEXT((#1261,#1262,#1263))
REPRESENTATION_CONTEXT('','3D')
);
#1261=(
LENGTH_UNIT()
NAMED_UNIT(*)
SI_UNIT(.MILLI.,.METRE.)
);
#1262=(
NAMED_UNIT(*)
PLANE_ANGLE_UNIT()
SI_UNIT($,.RADIAN.)
);
#1263=(
NAMED_UNIT(*)
SI_UNIT($,.STERADIAN.)
SOLID_ANGLE_UNIT()
);
#1264=SHAPE_DEFINITION_REPRESENTATION(#1265,#1266);
#1265=PRODUCT_DEFINITION_SHAPE('',$,#1268);
#1266=SHAPE_REPRESENTATION('',(#741),#1259);
#1267=PRODUCT_DEFINITION_CONTEXT('part definition',#1272,'design');
#1268=PRODUCT_DEFINITION('2025-07-14-13-53-35-904','Box',#1269,#1267);
#1269=PRODUCT_DEFINITION_FORMATION('',$,#1274);
#1270=PRODUCT_RELATED_PRODUCT_CATEGORY('Box','Box',(#1274));
#1271=APPLICATION_PROTOCOL_DEFINITION('international standard',
'automotive_design',2009,#1272);
#1272=APPLICATION_CONTEXT(
'Core Data for Automotive Mechanical Design Process');
#1273=PRODUCT_CONTEXT('part definition',#1272,'mechanical');
#1274=PRODUCT('2025-07-14-13-53-35-904','Box',$,(#1273));
#1275=PRESENTATION_STYLE_ASSIGNMENT((#1295));
#1276=PRESENTATION_STYLE_ASSIGNMENT((#1296));
#1277=PRESENTATION_STYLE_ASSIGNMENT((#1297));
#1278=PRESENTATION_STYLE_ASSIGNMENT((#1298));
#1279=PRESENTATION_STYLE_ASSIGNMENT((#1299));
#1280=PRESENTATION_STYLE_ASSIGNMENT((#1300));
#1281=PRESENTATION_STYLE_ASSIGNMENT((#1301));
#1282=PRESENTATION_STYLE_ASSIGNMENT((#1302));
#1283=PRESENTATION_STYLE_ASSIGNMENT((#1303));
#1284=PRESENTATION_STYLE_ASSIGNMENT((#1304));
#1285=PRESENTATION_STYLE_ASSIGNMENT((#1305));
#1286=PRESENTATION_STYLE_ASSIGNMENT((#1306));
#1287=PRESENTATION_STYLE_ASSIGNMENT((#1307));
#1288=PRESENTATION_STYLE_ASSIGNMENT((#1308));
#1289=PRESENTATION_STYLE_ASSIGNMENT((#1309));
#1290=PRESENTATION_STYLE_ASSIGNMENT((#1310));
#1291=PRESENTATION_STYLE_ASSIGNMENT((#1311));
#1292=PRESENTATION_STYLE_ASSIGNMENT((#1312));
#1293=PRESENTATION_STYLE_ASSIGNMENT((#1313));
#1294=PRESENTATION_STYLE_ASSIGNMENT((#1314));
#1295=SURFACE_STYLE_USAGE(.BOTH.,#1315);
#1296=SURFACE_STYLE_USAGE(.BOTH.,#1316);
#1297=SURFACE_STYLE_USAGE(.BOTH.,#1317);
#1298=SURFACE_STYLE_USAGE(.BOTH.,#1318);
#1299=SURFACE_STYLE_USAGE(.BOTH.,#1319);
#1300=SURFACE_STYLE_USAGE(.BOTH.,#1320);
#1301=SURFACE_STYLE_USAGE(.BOTH.,#1321);
#1302=SURFACE_STYLE_USAGE(.BOTH.,#1322);
#1303=SURFACE_STYLE_USAGE(.BOTH.,#1323);
#1304=SURFACE_STYLE_USAGE(.BOTH.,#1324);
#1305=SURFACE_STYLE_USAGE(.BOTH.,#1325);
#1306=SURFACE_STYLE_USAGE(.BOTH.,#1326);
#1307=SURFACE_STYLE_USAGE(.BOTH.,#1327);
#1308=SURFACE_STYLE_USAGE(.BOTH.,#1328);
#1309=SURFACE_STYLE_USAGE(.BOTH.,#1329);
#1310=SURFACE_STYLE_USAGE(.BOTH.,#1330);
#1311=SURFACE_STYLE_USAGE(.BOTH.,#1331);
#1312=SURFACE_STYLE_USAGE(.BOTH.,#1332);
#1313=SURFACE_STYLE_USAGE(.BOTH.,#1333);
#1314=SURFACE_STYLE_USAGE(.BOTH.,#1334);
#1315=SURFACE_SIDE_STYLE('',(#1335));
#1316=SURFACE_SIDE_STYLE('',(#1336));
#1317=SURFACE_SIDE_STYLE('',(#1337));
#1318=SURFACE_SIDE_STYLE('',(#1338));
#1319=SURFACE_SIDE_STYLE('',(#1339));
#1320=SURFACE_SIDE_STYLE('',(#1340));
#1321=SURFACE_SIDE_STYLE('',(#1341));
#1322=SURFACE_SIDE_STYLE('',(#1342));
#1323=SURFACE_SIDE_STYLE('',(#1343));
#1324=SURFACE_SIDE_STYLE('',(#1344));
#1325=SURFACE_SIDE_STYLE('',(#1345));
#1326=SURFACE_SIDE_STYLE('',(#1346));
#1327=SURFACE_SIDE_STYLE('',(#1347));
#1328=SURFACE_SIDE_STYLE('',(#1348));
#1329=SURFACE_SIDE_STYLE('',(#1349));
#1330=SURFACE_SIDE_STYLE('',(#1350));
#1331=SURFACE_SIDE_STYLE('',(#1351));
#1332=SURFACE_SIDE_STYLE('',(#1352));
#1333=SURFACE_SIDE_STYLE('',(#1353));
#1334=SURFACE_SIDE_STYLE('',(#1354));
#1335=SURFACE_STYLE_FILL_AREA(#1355);
#1336=SURFACE_STYLE_FILL_AREA(#1356);
#1337=SURFACE_STYLE_FILL_AREA(#1357);
#1338=SURFACE_STYLE_FILL_AREA(#1358);
#1339=SURFACE_STYLE_FILL_AREA(#1359);
#1340=SURFACE_STYLE_FILL_AREA(#1360);
#1341=SURFACE_STYLE_FILL_AREA(#1361);
#1342=SURFACE_STYLE_FILL_AREA(#1362);
#1343=SURFACE_STYLE_FILL_AREA(#1363);
#1344=SURFACE_STYLE_FILL_AREA(#1364);
#1345=SURFACE_STYLE_FILL_AREA(#1365);
#1346=SURFACE_STYLE_FILL_AREA(#1366);
#1347=SURFACE_STYLE_FILL_AREA(#1367);
#1348=SURFACE_STYLE_FILL_AREA(#1368);
#1349=SURFACE_STYLE_FILL_AREA(#1369);
#1350=SURFACE_STYLE_FILL_AREA(#1370);
#1351=SURFACE_STYLE_FILL_AREA(#1371);
#1352=SURFACE_STYLE_FILL_AREA(#1372);
#1353=SURFACE_STYLE_FILL_AREA(#1373);
#1354=SURFACE_STYLE_FILL_AREA(#1374);
#1355=FILL_AREA_STYLE('Acciaio - Satinato',(#1375));
#1356=FILL_AREA_STYLE('Alluminio - Satinato',(#1376));
#1357=FILL_AREA_STYLE('Opaque(202,209,238)',(#1377));
#1358=FILL_AREA_STYLE('Opaque(255,255,255)',(#1378));
#1359=FILL_AREA_STYLE('Opaque(178,114,80)',(#1379));
#1360=FILL_AREA_STYLE('Opaque(47,191,148)',(#1380));
#1361=FILL_AREA_STYLE('Opaque(110,110,110)',(#1381));
#1362=FILL_AREA_STYLE('Opaque(64,64,64)',(#1382));
#1363=FILL_AREA_STYLE('Opaque(211,211,211)',(#1383));
#1364=FILL_AREA_STYLE('Opaque(204,204,204)',(#1384));
#1365=FILL_AREA_STYLE('Opaque(41,41,41)',(#1385));
#1366=FILL_AREA_STYLE('Opaque(245,245,245)',(#1386));
#1367=FILL_AREA_STYLE('Opaque(14,14,14)',(#1387));
#1368=FILL_AREA_STYLE('Opaque(212,179,45)',(#1388));
#1369=FILL_AREA_STYLE('Opaque(171,171,171)',(#1389));
#1370=FILL_AREA_STYLE('Opaque(0,192,0)',(#1390));
#1371=FILL_AREA_STYLE('Opaque(51,51,51)',(#1391));
#1372=FILL_AREA_STYLE('Opaque(0,128,0)',(#1392));
#1373=FILL_AREA_STYLE('Rame - Grezzo',(#1393));
#1374=FILL_AREA_STYLE('Nylon 12 (con la stampante 3D Formlabs Fuse 1)',
(#1394));
#1375=FILL_AREA_STYLE_COLOUR('Acciaio - Satinato',#1395);
#1376=FILL_AREA_STYLE_COLOUR('Alluminio - Satinato',#1396);
#1377=FILL_AREA_STYLE_COLOUR('Opaque(202,209,238)',#1397);
#1378=FILL_AREA_STYLE_COLOUR('Opaque(255,255,255)',#1398);
#1379=FILL_AREA_STYLE_COLOUR('Opaque(178,114,80)',#1399);
#1380=FILL_AREA_STYLE_COLOUR('Opaque(47,191,148)',#1400);
#1381=FILL_AREA_STYLE_COLOUR('Opaque(110,110,110)',#1401);
#1382=FILL_AREA_STYLE_COLOUR('Opaque(64,64,64)',#1402);
#1383=FILL_AREA_STYLE_COLOUR('Opaque(211,211,211)',#1403);
#1384=FILL_AREA_STYLE_COLOUR('Opaque(204,204,204)',#1404);
#1385=FILL_AREA_STYLE_COLOUR('Opaque(41,41,41)',#1405);
#1386=FILL_AREA_STYLE_COLOUR('Opaque(245,245,245)',#1406);
#1387=FILL_AREA_STYLE_COLOUR('Opaque(14,14,14)',#1407);
#1388=FILL_AREA_STYLE_COLOUR('Opaque(212,179,45)',#1408);
#1389=FILL_AREA_STYLE_COLOUR('Opaque(171,171,171)',#1409);
#1390=FILL_AREA_STYLE_COLOUR('Opaque(0,192,0)',#1410);
#1391=FILL_AREA_STYLE_COLOUR('Opaque(51,51,51)',#1411);
#1392=FILL_AREA_STYLE_COLOUR('Opaque(0,128,0)',#1412);
#1393=FILL_AREA_STYLE_COLOUR('Rame - Grezzo',#1413);
#1394=FILL_AREA_STYLE_COLOUR(
'Nylon 12 (con la stampante 3D Formlabs Fuse 1)',#1414);
#1395=COLOUR_RGB('Acciaio - Satinato',0.627450980392157,0.627450980392157,
0.627450980392157);
#1396=COLOUR_RGB('Alluminio - Satinato',0.96078431372549,0.96078431372549,
0.964705882352941);
#1397=COLOUR_RGB('Opaque(202,209,238)',0.792156862745098,0.819607843137255,
0.933333333333333);
#1398=COLOUR_RGB('Opaque(255,255,255)',1.,1.,1.);
#1399=COLOUR_RGB('Opaque(178,114,80)',0.698039215686274,0.447058823529412,
0.313725490196078);
#1400=COLOUR_RGB('Opaque(47,191,148)',0.184313725490196,0.749019607843137,
0.580392156862745);
#1401=COLOUR_RGB('Opaque(110,110,110)',0.431372549019608,0.431372549019608,
0.431372549019608);
#1402=COLOUR_RGB('Opaque(64,64,64)',0.250980392156863,0.250980392156863,
0.250980392156863);
#1403=COLOUR_RGB('Opaque(211,211,211)',0.827450980392157,0.827450980392157,
0.827450980392157);
#1404=COLOUR_RGB('Opaque(204,204,204)',0.8,0.8,0.8);
#1405=COLOUR_RGB('Opaque(41,41,41)',0.16078431372549,0.16078431372549,0.16078431372549);
#1406=COLOUR_RGB('Opaque(245,245,245)',0.96078431372549,0.96078431372549,
0.96078431372549);
#1407=COLOUR_RGB('Opaque(14,14,14)',0.0549019607843137,0.0549019607843137,
0.0549019607843137);
#1408=COLOUR_RGB('Opaque(212,179,45)',0.831372549019608,0.701960784313725,
0.176470588235294);
#1409=COLOUR_RGB('Opaque(171,171,171)',0.670588235294118,0.670588235294118,
0.670588235294118);
#1410=COLOUR_RGB('Opaque(0,192,0)',0.,0.752941176470588,0.);
#1411=COLOUR_RGB('Opaque(51,51,51)',0.2,0.2,0.2);
#1412=COLOUR_RGB('Opaque(0,128,0)',0.,0.501960784313725,0.);
#1413=COLOUR_RGB('Rame - Grezzo',0.,0.,0.);
#1414=COLOUR_RGB('Nylon 12 (con la stampante 3D Formlabs Fuse 1)',0.247058823529412,
0.247058823529412,0.247058823529412);
ENDSEC;
END-ISO-10303-21;
