G04*
G04 #@! TF.GenerationSoftware,Altium Limited,Altium Designer,25.0.2 (28)*
G04*
G04 Layer_Physical_Order=1*
G04 Layer_Color=204*
%FSLAX44Y44*%
%MOMM*%
G71*
G04*
G04 #@! TF.SameCoordinates,69D28B2F-FB57-41E7-A4BE-4A81C47ECC68*
G04*
G04*
G04 #@! TF.FilePolarity,Positive*
G04*
G01*
G75*
%ADD10C,0.4000*%
%ADD11C,0.1000*%
%ADD13C,0.2000*%
%ADD16C,0.3000*%
%ADD19R,1.1000X0.9500*%
%ADD20R,1.4000X0.9500*%
%ADD21R,0.9000X1.0500*%
%ADD22R,0.9500X1.1000*%
%ADD23R,1.0500X0.9000*%
%ADD24R,0.5000X0.8500*%
%ADD25R,1.1000X0.6000*%
%ADD26R,0.4500X1.6000*%
%ADD27R,1.7000X1.0000*%
G04:AMPARAMS|DCode=28|XSize=0.2393mm|YSize=0.9611mm|CornerRadius=0.1196mm|HoleSize=0mm|Usage=FLASHONLY|Rotation=180.000|XOffset=0mm|YOffset=0mm|HoleType=Round|Shape=RoundedRectangle|*
%AMROUNDEDRECTD28*
21,1,0.2393,0.7218,0,0,180.0*
21,1,0.0000,0.9611,0,0,180.0*
1,1,0.2393,0.0000,0.3609*
1,1,0.2393,0.0000,0.3609*
1,1,0.2393,0.0000,-0.3609*
1,1,0.2393,0.0000,-0.3609*
%
%ADD28ROUNDEDRECTD28*%
G04:AMPARAMS|DCode=29|XSize=0.9611mm|YSize=0.2393mm|CornerRadius=0.1196mm|HoleSize=0mm|Usage=FLASHONLY|Rotation=180.000|XOffset=0mm|YOffset=0mm|HoleType=Round|Shape=RoundedRectangle|*
%AMROUNDEDRECTD29*
21,1,0.9611,0.0000,0,0,180.0*
21,1,0.7218,0.2393,0,0,180.0*
1,1,0.2393,-0.3609,0.0000*
1,1,0.2393,0.3609,0.0000*
1,1,0.2393,0.3609,0.0000*
1,1,0.2393,-0.3609,0.0000*
%
%ADD29ROUNDEDRECTD29*%
%ADD30R,0.9611X0.2393*%
%ADD31R,0.9000X1.5000*%
G04:AMPARAMS|DCode=32|XSize=1.97mm|YSize=0.59mm|CornerRadius=0.0738mm|HoleSize=0mm|Usage=FLASHONLY|Rotation=180.000|XOffset=0mm|YOffset=0mm|HoleType=Round|Shape=RoundedRectangle|*
%AMROUNDEDRECTD32*
21,1,1.9700,0.4425,0,0,180.0*
21,1,1.8225,0.5900,0,0,180.0*
1,1,0.1475,-0.9113,0.2213*
1,1,0.1475,0.9113,0.2213*
1,1,0.1475,0.9113,-0.2213*
1,1,0.1475,-0.9113,-0.2213*
%
%ADD32ROUNDEDRECTD32*%
%ADD33R,1.6000X1.0000*%
%ADD34R,0.7400X2.7900*%
%ADD35R,0.3000X1.4000*%
%ADD36R,1.4000X0.3000*%
%ADD37R,0.5500X1.2000*%
%ADD38R,0.8000X0.9000*%
%ADD39R,7.5000X3.0000*%
%ADD40R,0.6000X1.1000*%
%ADD41R,2.7430X2.1590*%
%ADD42R,1.0000X1.7000*%
%ADD43R,0.9500X0.9500*%
%ADD44R,0.8700X0.9800*%
%ADD45R,1.7500X2.5000*%
%ADD46R,0.8000X0.3500*%
%ADD47R,0.9500X0.9500*%
%ADD48R,0.4500X1.3100*%
%ADD49R,4.0000X2.6500*%
%ADD50R,0.9500X0.7000*%
%ADD51R,1.3100X0.4500*%
%ADD52R,2.6500X4.0000*%
%ADD53R,1.2000X1.4000*%
%ADD54R,1.4500X1.1500*%
%ADD55R,0.6000X1.1500*%
%ADD56R,0.3000X1.1500*%
%ADD57R,0.7000X0.9500*%
%ADD58R,0.8500X0.5000*%
%ADD69R,3.1000X3.1000*%
%ADD102C,0.6500*%
G04:AMPARAMS|DCode=103|XSize=1mm|YSize=2.1mm|CornerRadius=0.5mm|HoleSize=0mm|Usage=FLASHONLY|Rotation=180.000|XOffset=0mm|YOffset=0mm|HoleType=Round|Shape=RoundedRectangle|*
%AMROUNDEDRECTD103*
21,1,1.0000,1.1000,0,0,180.0*
21,1,0.0000,2.1000,0,0,180.0*
1,1,1.0000,0.0000,0.5500*
1,1,1.0000,0.0000,0.5500*
1,1,1.0000,0.0000,-0.5500*
1,1,1.0000,0.0000,-0.5500*
%
%ADD103ROUNDEDRECTD103*%
G04:AMPARAMS|DCode=104|XSize=1mm|YSize=1.8mm|CornerRadius=0.5mm|HoleSize=0mm|Usage=FLASHONLY|Rotation=180.000|XOffset=0mm|YOffset=0mm|HoleType=Round|Shape=RoundedRectangle|*
%AMROUNDEDRECTD104*
21,1,1.0000,0.8000,0,0,180.0*
21,1,0.0000,1.8000,0,0,180.0*
1,1,1.0000,0.0000,0.4000*
1,1,1.0000,0.0000,0.4000*
1,1,1.0000,0.0000,-0.4000*
1,1,1.0000,0.0000,-0.4000*
%
%ADD104ROUNDEDRECTD104*%
%ADD105C,2.0000*%
%ADD106C,0.1500*%
%ADD107C,0.5000*%
%ADD108C,0.1485*%
%ADD109C,0.7000*%
%ADD110C,4.1000*%
%ADD111O,3.9000X1.9500*%
%ADD112C,1.9500*%
%ADD113C,2.3000*%
%ADD114C,3.2000*%
%ADD115C,10.0000*%
G36*
X221000Y938100D02*
X220055D01*
X218493Y937453D01*
X217297Y936257D01*
X216650Y934695D01*
Y933005D01*
X217016Y932120D01*
X216230Y930850D01*
X211000D01*
Y929850D01*
X198270D01*
X197000Y929850D01*
Y929850D01*
X197000D01*
Y929850D01*
X194513D01*
X194452Y929911D01*
X194384Y930252D01*
X193999Y930828D01*
X192978Y931849D01*
X192402Y932234D01*
X191722Y932369D01*
X187278D01*
X186598Y932234D01*
X186022Y931849D01*
X184865Y930693D01*
X184480Y930116D01*
X184427Y929850D01*
X173000D01*
Y930850D01*
X167770D01*
X166984Y932120D01*
X167350Y933005D01*
Y934695D01*
X166703Y936257D01*
X165508Y937453D01*
X163945Y938100D01*
X163000D01*
Y956000D01*
X163414Y957000D01*
X221000D01*
Y938100D01*
D02*
G37*
G36*
X218500Y915350D02*
X221000D01*
Y916350D01*
X228000D01*
Y917000D01*
X237000D01*
Y905500D01*
X236750D01*
Y895000D01*
X231250D01*
Y897500D01*
X224000D01*
Y900000D01*
X221500D01*
Y906500D01*
X218000D01*
Y912000D01*
X206784D01*
Y916350D01*
X211000D01*
Y915350D01*
X213500D01*
Y923100D01*
X218500D01*
Y915350D01*
D02*
G37*
G36*
X374000Y849000D02*
Y846250D01*
X374000D01*
Y843750D01*
Y841250D01*
X374000D01*
Y835000D01*
X372000D01*
X368000Y831000D01*
Y829158D01*
X367674Y828671D01*
X367541Y828000D01*
X362000D01*
Y821500D01*
X365500D01*
Y816500D01*
X362000D01*
Y811670D01*
X360330D01*
X358000Y814000D01*
X317000D01*
X306000Y825000D01*
Y847000D01*
X309000Y850000D01*
X336437D01*
X337500Y849500D01*
X337500Y848730D01*
Y845250D01*
X345000D01*
X352500D01*
Y848730D01*
X352500Y849500D01*
X353563Y850000D01*
X356500D01*
Y846250D01*
X364000D01*
X371500D01*
Y849704D01*
X372770Y850230D01*
X374000Y849000D01*
D02*
G37*
G36*
X472000Y878000D02*
Y828000D01*
X439000D01*
Y828000D01*
X434995D01*
X434942Y828025D01*
X434618Y828287D01*
X434082Y829108D01*
Y829552D01*
X436092Y831561D01*
X436174Y831760D01*
X436414Y832000D01*
X443000D01*
X444500Y833500D01*
X448750D01*
Y841000D01*
Y848500D01*
X445993D01*
X445560Y848863D01*
X445275Y849281D01*
X445082Y849770D01*
X445082Y878000D01*
X444765Y878765D01*
X446000Y880000D01*
X470000D01*
X472000Y878000D01*
D02*
G37*
G36*
X405000Y875000D02*
X408000Y872000D01*
Y852000D01*
X384000D01*
X383000Y851000D01*
Y832784D01*
X380818D01*
X380135Y832648D01*
X379556Y832262D01*
X375488Y828194D01*
X375270Y827867D01*
X374000Y828000D01*
Y828000D01*
X369986D01*
X369875Y828057D01*
X369559Y828337D01*
X369082Y829158D01*
Y830552D01*
X372448Y833918D01*
X374000D01*
X374765Y834235D01*
X375082Y835000D01*
Y841250D01*
X375082Y841250D01*
Y846250D01*
X375082Y846250D01*
Y849000D01*
X374765Y849765D01*
X374765Y849765D01*
X373535Y850995D01*
X373336Y851078D01*
X373184Y851230D01*
X372969D01*
X372770Y851312D01*
X372676Y851274D01*
X372336Y851431D01*
X371810Y851880D01*
X371500Y852250D01*
Y855750D01*
X364000D01*
X356500D01*
Y852000D01*
X352500D01*
Y854750D01*
X345000D01*
X337500D01*
Y852000D01*
X309000D01*
X306000Y855000D01*
Y871000D01*
X310000Y875000D01*
X331500Y875000D01*
X357000D01*
X405000Y875000D01*
D02*
G37*
G36*
X444000Y878000D02*
X444000Y849563D01*
X443500Y848500D01*
X439250D01*
Y841000D01*
X436750D01*
Y838500D01*
X430000D01*
Y833500D01*
X434841D01*
X435327Y832327D01*
X433000Y830000D01*
Y829108D01*
X432674Y828620D01*
X432551Y828000D01*
X432550D01*
X432441Y827450D01*
Y819000D01*
X428000D01*
Y827001D01*
X428000D01*
Y828000D01*
X427000D01*
Y827000D01*
X423002D01*
X411000Y839002D01*
Y875000D01*
X416000Y880000D01*
X442000D01*
X444000Y878000D01*
D02*
G37*
G36*
X484350Y834554D02*
Y830500D01*
X490700D01*
Y828000D01*
X493200D01*
Y821100D01*
X497050D01*
Y829958D01*
X498320Y830637D01*
X498500Y830517D01*
X498500Y807500D01*
Y785958D01*
X498120Y785735D01*
X496850Y786462D01*
X496850Y786710D01*
Y790500D01*
X492600D01*
Y785500D01*
X495589D01*
X496109Y785500D01*
X496810Y785367D01*
X497499Y784499D01*
X494500Y781500D01*
X470158D01*
X469670Y781826D01*
X469000Y781959D01*
Y786500D01*
X476500D01*
X479500Y789500D01*
Y831500D01*
X483207Y835207D01*
X484350Y834554D01*
D02*
G37*
G36*
X513000Y776000D02*
X473000D01*
X472000Y777000D01*
X469000D01*
Y779514D01*
X469057Y779625D01*
X469337Y779941D01*
X470158Y780418D01*
X477582D01*
X478000Y780000D01*
X498000D01*
X497276Y780724D01*
Y782745D01*
X498264Y783733D01*
X498401Y784063D01*
X498574Y784375D01*
X498668Y784801D01*
X499048Y785025D01*
X499134Y785138D01*
X499265Y785192D01*
X499375Y785457D01*
X499407Y785500D01*
X502100D01*
Y793000D01*
Y800500D01*
X499582D01*
Y803500D01*
X502100D01*
Y811000D01*
X504600D01*
Y813500D01*
X511350D01*
Y816000D01*
X513000D01*
Y776000D01*
D02*
G37*
G36*
X338000Y733000D02*
X337000D01*
Y727524D01*
X333441D01*
X333441Y727524D01*
X332676Y727207D01*
X331522Y726991D01*
X331500Y727000D01*
Y727000D01*
X326500D01*
Y720250D01*
X324000D01*
Y717750D01*
X316500D01*
Y715100D01*
X316340Y714803D01*
X316137Y714560D01*
X315437Y714082D01*
X290000D01*
X290000Y714082D01*
X289235Y713765D01*
X284000Y719000D01*
Y737000D01*
X338000D01*
Y733000D01*
D02*
G37*
G36*
X479000Y721000D02*
Y651000D01*
X474000Y646000D01*
X456000D01*
X451000Y651000D01*
Y676437D01*
X451500Y677500D01*
X452270Y677500D01*
X455750D01*
Y685000D01*
Y692500D01*
X451500D01*
Y689536D01*
X450340Y689029D01*
X449500Y689699D01*
Y691500D01*
X447500D01*
X443707Y695293D01*
X444000Y696000D01*
X444000D01*
Y702500D01*
X440500D01*
Y705000D01*
X438000D01*
Y713001D01*
X438000D01*
Y714000D01*
X438000D01*
Y716000D01*
X449000Y727000D01*
X451000D01*
Y721000D01*
X457500D01*
Y724500D01*
X462500D01*
Y721000D01*
X469000D01*
Y727000D01*
X473000D01*
X479000Y721000D01*
D02*
G37*
G36*
X358000Y698000D02*
X341000Y681000D01*
X276500D01*
Y681500D01*
X268500D01*
Y681000D01*
X261000D01*
Y678043D01*
X260000Y677082D01*
X258500D01*
Y682500D01*
X256000D01*
Y675000D01*
X251000D01*
Y682500D01*
X248500D01*
Y677082D01*
X242500D01*
Y677750D01*
X227500D01*
Y677082D01*
X205000D01*
Y682451D01*
X207750D01*
Y678500D01*
X212500D01*
Y685000D01*
Y691500D01*
X207750D01*
Y687549D01*
X205000D01*
Y693000D01*
X223000D01*
X224000Y694000D01*
X271000D01*
X290000Y713000D01*
X315437D01*
X316500Y712500D01*
X316500Y711730D01*
Y708250D01*
X324000D01*
X331500D01*
Y711937D01*
X331500Y712500D01*
X331000Y713563D01*
Y713770D01*
Y724000D01*
X333441Y726441D01*
X337000D01*
Y721000D01*
X343500D01*
Y724500D01*
X346000D01*
Y726441D01*
X347171Y726674D01*
X347659Y727000D01*
X354001D01*
Y727000D01*
X355000D01*
Y728000D01*
X358000D01*
Y698000D01*
D02*
G37*
G36*
X268000Y668000D02*
Y656500D01*
X265500D01*
Y649000D01*
Y641500D01*
X268000D01*
X268000Y641500D01*
X269000Y641000D01*
X269063Y641000D01*
X290000D01*
X298000Y633000D01*
Y554298D01*
X296750Y554250D01*
Y554250D01*
X292500D01*
Y547500D01*
X287500D01*
Y554250D01*
X283250D01*
Y554250D01*
X282189Y553811D01*
X280000Y556000D01*
X261000D01*
Y613000D01*
X259000Y615000D01*
Y621500D01*
X260750D01*
Y629000D01*
Y636500D01*
X259000D01*
Y641500D01*
X260500D01*
Y649000D01*
Y656500D01*
X259000D01*
Y657000D01*
X219563D01*
X218500Y657500D01*
X218500Y658270D01*
Y662000D01*
X208000D01*
X197500D01*
Y658270D01*
X197500Y657500D01*
X196437Y657000D01*
X186563D01*
X185500Y657500D01*
X185500Y658270D01*
Y662000D01*
X175000D01*
X164500D01*
Y658270D01*
X164500Y657500D01*
X163437Y657000D01*
X118000D01*
X108000Y647000D01*
Y608000D01*
X106500D01*
Y600000D01*
X101500D01*
Y608000D01*
X100000D01*
Y613000D01*
X101000Y614000D01*
X91865D01*
X91111Y615270D01*
X91500Y616210D01*
Y617901D01*
X91348Y618269D01*
X93442Y620363D01*
X93884Y621025D01*
X94039Y621805D01*
X94039Y621805D01*
Y623750D01*
X97500D01*
Y636250D01*
X86500D01*
Y623750D01*
X89551D01*
X89791Y622480D01*
X88464Y621153D01*
X88095Y621305D01*
X86405D01*
X84843Y620658D01*
X83647Y619463D01*
X83000Y617901D01*
Y616210D01*
X83389Y615270D01*
X82635Y614000D01*
X80039D01*
Y623750D01*
X83500D01*
Y636250D01*
X72500D01*
Y623750D01*
X75961D01*
Y614000D01*
X66000D01*
Y612250D01*
X62500D01*
Y605000D01*
Y597750D01*
X66000D01*
Y591250D01*
X62500D01*
Y584000D01*
Y576750D01*
X66000D01*
Y574000D01*
X67000Y573000D01*
X69961D01*
Y568500D01*
X65750D01*
Y557500D01*
X78000D01*
Y554500D01*
X65750D01*
Y543500D01*
X78000D01*
Y536531D01*
X76235Y534765D01*
X75918Y534000D01*
Y516000D01*
X75918Y516000D01*
X76234Y515235D01*
X76235Y515234D01*
X78000Y513469D01*
Y488000D01*
X76715D01*
Y492600D01*
X45285D01*
Y488000D01*
X33000D01*
Y637000D01*
X46500Y650500D01*
Y663000D01*
X49000D01*
Y665500D01*
X61500D01*
X72000Y676000D01*
X228500D01*
Y674500D01*
X241500D01*
Y676000D01*
X249500D01*
Y668500D01*
X257500D01*
Y676000D01*
X260000D01*
X268000Y668000D01*
D02*
G37*
G36*
X437235Y704234D02*
X438000Y703918D01*
Y697000D01*
X438000D01*
Y695293D01*
X441519D01*
X442707Y694879D01*
X442859Y694726D01*
X442942Y694528D01*
X443796Y693673D01*
X443310Y692500D01*
X437000D01*
Y687500D01*
X443750D01*
Y685000D01*
X446250D01*
Y677500D01*
X449205D01*
X449918Y676437D01*
Y651000D01*
X449918Y651000D01*
X450000Y650801D01*
Y650000D01*
X446000Y646000D01*
X430000D01*
Y694000D01*
X432000Y696000D01*
X433000D01*
Y697000D01*
X433001D01*
Y705000D01*
X436918D01*
X437235Y704234D01*
D02*
G37*
G36*
X165000Y616000D02*
X222000D01*
X229000Y609000D01*
X229000Y579000D01*
X220000Y570000D01*
X141000D01*
X136000Y565000D01*
X110000D01*
Y567000D01*
X111000D01*
Y575000D01*
X113500D01*
Y577500D01*
X118250D01*
Y583000D01*
X119000D01*
X128000Y592000D01*
Y614437D01*
X128500Y615500D01*
X129270Y615500D01*
X132750D01*
Y623000D01*
Y630500D01*
X129270D01*
X128500Y630500D01*
X128000Y631563D01*
Y632000D01*
X131000Y635000D01*
X146000D01*
X165000Y616000D01*
D02*
G37*
G36*
X248500Y651500D02*
X253500D01*
Y649000D01*
X256000D01*
Y641500D01*
X257918D01*
Y636597D01*
X257500Y635500D01*
X257500D01*
X257500Y635500D01*
Y622500D01*
X257500Y622500D01*
X257500D01*
X257918Y621403D01*
Y615000D01*
X258235Y614235D01*
X259918Y612552D01*
Y556000D01*
X260235Y555235D01*
X261000Y554918D01*
Y554376D01*
X262843D01*
X263750Y553500D01*
Y549500D01*
X271000D01*
Y544500D01*
X263750D01*
Y541000D01*
X260000D01*
X258000Y539000D01*
X257000Y540000D01*
X237000D01*
Y607000D01*
X216000Y628000D01*
X159000D01*
Y649000D01*
X160000Y650000D01*
X241000D01*
X246918Y655918D01*
X248500D01*
Y651500D01*
D02*
G37*
G36*
X106500Y567000D02*
X108000D01*
Y563000D01*
X123000D01*
X138000Y548000D01*
Y520000D01*
X129000Y511000D01*
X82000D01*
X77000Y516000D01*
Y534000D01*
X83000Y540000D01*
X94000D01*
Y563000D01*
X99000D01*
Y565834D01*
X99250Y567000D01*
X101500D01*
Y575000D01*
X106500D01*
Y567000D01*
D02*
G37*
G36*
X250000Y524000D02*
X260000D01*
Y503000D01*
X171000D01*
X148173Y525827D01*
X148659Y527000D01*
X181500D01*
Y544000D01*
X184000D01*
Y546500D01*
X223500D01*
Y548841D01*
X224673Y549327D01*
X250000Y524000D01*
D02*
G37*
G36*
X838000Y453000D02*
X838000Y445000D01*
X831173Y438173D01*
X830000Y438659D01*
Y438750D01*
X821000D01*
X812000D01*
Y438659D01*
X810827Y438173D01*
X804000Y445000D01*
Y453000D01*
X809000Y458000D01*
X833000D01*
X838000Y453000D01*
D02*
G37*
G36*
X626000D02*
X626000Y445000D01*
X619173Y438173D01*
X618000Y438659D01*
Y438750D01*
X609000D01*
X600000D01*
Y438659D01*
X598827Y438173D01*
X592000Y445000D01*
Y453000D01*
X597000Y458000D01*
X621000D01*
X626000Y453000D01*
D02*
G37*
G36*
X929000D02*
X929000Y445000D01*
X922173Y438173D01*
X921000Y438659D01*
Y438750D01*
X912000D01*
X903000D01*
Y438659D01*
X901827Y438173D01*
X895000Y445000D01*
Y453000D01*
X900000Y458000D01*
X924000D01*
X929000Y453000D01*
D02*
G37*
G36*
X758000D02*
X758000Y445000D01*
X751173Y438173D01*
X750000Y438659D01*
Y438750D01*
X741000D01*
X732000D01*
Y438659D01*
X730827Y438173D01*
X724000Y445000D01*
Y453000D01*
X729000Y458000D01*
X753000D01*
X758000Y453000D01*
D02*
G37*
G36*
X544000D02*
X544000Y445000D01*
X537173Y438173D01*
X536000Y438659D01*
Y438750D01*
X527000D01*
X518000D01*
Y438659D01*
X516827Y438173D01*
X510000Y445000D01*
Y453000D01*
X515000Y458000D01*
X539000D01*
X544000Y453000D01*
D02*
G37*
G36*
X451000D02*
X451000Y445000D01*
X444173Y438173D01*
X443000Y438659D01*
Y438750D01*
X434000D01*
X425000D01*
Y438659D01*
X423827Y438173D01*
X417000Y445000D01*
Y453000D01*
X422000Y458000D01*
X446000D01*
X451000Y453000D01*
D02*
G37*
G36*
X682000Y426000D02*
Y409000D01*
X676000Y403000D01*
X653000D01*
Y410000D01*
X653250D01*
Y420000D01*
X655750D01*
Y422500D01*
X660000D01*
Y427000D01*
X681000D01*
X682000Y426000D01*
D02*
G37*
G36*
X257000Y484000D02*
X351000Y390000D01*
X909000D01*
X913500Y394500D01*
X914500D01*
Y395500D01*
X948000Y429000D01*
Y454000D01*
X969000Y475000D01*
X1052000D01*
X1116000Y475000D01*
X1135000Y456000D01*
Y395000D01*
X1135000Y336000D01*
X1114000Y315000D01*
X1026000Y315000D01*
X990000Y279000D01*
Y221414D01*
X989000Y221000D01*
X951000D01*
X951000Y299000D01*
X901000Y349000D01*
X892750D01*
Y349050D01*
X887520D01*
X886250Y349050D01*
Y349050D01*
X886250D01*
X886250Y349050D01*
X881020D01*
X879750Y349050D01*
Y349050D01*
X879750D01*
X879750Y349050D01*
X874520D01*
X873250Y349050D01*
Y349050D01*
X873250D01*
X873250Y349050D01*
X868020D01*
X866750Y349050D01*
Y349050D01*
X866750D01*
X866750Y349050D01*
X861520D01*
X860250Y349050D01*
Y349050D01*
X860250D01*
X860250Y349050D01*
X855020D01*
X853750Y349050D01*
Y349050D01*
X853750D01*
X853750Y349050D01*
X847250D01*
Y349000D01*
X813082D01*
Y350000D01*
X812765Y350765D01*
X812000Y351082D01*
X761500D01*
X760735Y350765D01*
X760418Y350000D01*
Y349000D01*
X732750D01*
Y349050D01*
X731082D01*
Y350000D01*
X730765Y350765D01*
X730000Y351082D01*
X669000D01*
X668235Y350765D01*
X667918Y350000D01*
Y349000D01*
X606582D01*
X606265Y349765D01*
X605500Y350082D01*
X535000D01*
X534235Y349765D01*
X534187Y349651D01*
X532813D01*
X532765Y349765D01*
X532000Y350082D01*
X462000D01*
X461235Y349765D01*
X460918Y349000D01*
X448082D01*
X447765Y349765D01*
X447000Y350082D01*
X388000D01*
X387235Y349765D01*
X386918Y349000D01*
X380000D01*
X379000Y349414D01*
D01*
X350586Y321000D01*
X52000D01*
X32000Y341000D01*
Y475000D01*
X89000D01*
X107000Y493000D01*
X248000Y493000D01*
X257000Y484000D01*
D02*
G37*
G36*
X812000Y281500D02*
X773000Y242500D01*
Y218500D01*
X761500Y207000D01*
X722000D01*
X709500Y219500D01*
X709500Y240500D01*
X735500Y266500D01*
X735500Y295750D01*
X761500Y321750D01*
Y350000D01*
X812000D01*
Y281500D01*
D02*
G37*
G36*
X730000Y267000D02*
X708000Y245000D01*
Y221000D01*
X694000Y207000D01*
X654000D01*
X642000Y219000D01*
X642000Y238375D01*
X642000Y269750D01*
X669000Y296750D01*
Y350000D01*
X730000D01*
Y267000D01*
D02*
G37*
G36*
X605500Y286250D02*
X623000Y268750D01*
X623000Y237375D01*
X623000Y214000D01*
X615000Y206000D01*
X571000D01*
X557000Y220000D01*
Y244000D01*
X556582D01*
Y274918D01*
X535000Y296500D01*
Y349000D01*
X605500D01*
Y286250D01*
D02*
G37*
G36*
X532000Y291500D02*
X555500Y268000D01*
X555500Y237000D01*
X555500Y211500D01*
X550000Y206000D01*
X503500D01*
X489500Y220000D01*
Y269000D01*
X462000Y296500D01*
Y349000D01*
X532000D01*
Y291500D01*
D02*
G37*
G36*
X447000Y301500D02*
X488000Y260500D01*
Y213000D01*
X481000Y206000D01*
X426000D01*
X412770Y219230D01*
X413296Y220500D01*
X415896D01*
X419075Y221352D01*
X421925Y222997D01*
X424253Y225325D01*
X425898Y228175D01*
X426750Y231354D01*
Y234646D01*
X425898Y237825D01*
X424253Y240675D01*
X421925Y243002D01*
X419075Y244648D01*
X415896Y245500D01*
X412604D01*
X409425Y244648D01*
X406575Y243002D01*
X404248Y240675D01*
X402602Y237825D01*
X401750Y234646D01*
Y232046D01*
X400480Y231520D01*
X388000Y244000D01*
Y349000D01*
X447000D01*
Y301500D01*
D02*
G37*
G36*
X598585Y178250D02*
X599800D01*
X608741Y169308D01*
Y118000D01*
X561741D01*
Y168309D01*
X571741Y178309D01*
X573366D01*
X573585Y178250D01*
X576415D01*
X576634Y178309D01*
X598366D01*
X598585Y178250D01*
D02*
G37*
%LPC*%
G36*
X231250Y906500D02*
X226500D01*
Y902500D01*
X231250D01*
Y906500D01*
D02*
G37*
G36*
X331500Y843500D02*
X323500D01*
Y839000D01*
X331500D01*
Y843500D01*
D02*
G37*
G36*
X318500D02*
X310500D01*
Y839000D01*
X318500D01*
Y843500D01*
D02*
G37*
G36*
X371500Y841250D02*
X366500D01*
Y837000D01*
X371500D01*
Y841250D01*
D02*
G37*
G36*
X361500D02*
X356500D01*
Y837000D01*
X361500D01*
Y841250D01*
D02*
G37*
G36*
X352500Y840250D02*
X347500D01*
Y836000D01*
X352500D01*
Y840250D01*
D02*
G37*
G36*
X342500D02*
X337500D01*
Y836000D01*
X342500D01*
Y840250D01*
D02*
G37*
G36*
X331500Y834000D02*
X323500D01*
Y829500D01*
X331500D01*
Y834000D01*
D02*
G37*
G36*
X318500D02*
X310500D01*
Y829500D01*
X318500D01*
Y834000D01*
D02*
G37*
G36*
X464500Y875500D02*
X460000D01*
Y867500D01*
X464500D01*
Y875500D01*
D02*
G37*
G36*
X455000D02*
X450500D01*
Y867500D01*
X455000D01*
Y875500D01*
D02*
G37*
G36*
X464500Y862500D02*
X460000D01*
Y854500D01*
X464500D01*
Y862500D01*
D02*
G37*
G36*
X455000D02*
X450500D01*
Y854500D01*
X455000D01*
Y862500D01*
D02*
G37*
G36*
X458000Y848500D02*
X453750D01*
Y843500D01*
X458000D01*
Y848500D01*
D02*
G37*
G36*
Y838500D02*
X453750D01*
Y833500D01*
X458000D01*
Y838500D01*
D02*
G37*
G36*
X331500Y870500D02*
X323500D01*
Y866000D01*
X331500D01*
Y870500D01*
D02*
G37*
G36*
X318500D02*
X310500D01*
Y866000D01*
X318500D01*
Y870500D01*
D02*
G37*
G36*
X403250Y870750D02*
X396500D01*
Y865500D01*
X403250D01*
Y870750D01*
D02*
G37*
G36*
X391500D02*
X384750D01*
Y865500D01*
X391500D01*
Y870750D01*
D02*
G37*
G36*
X371500Y865000D02*
X366500D01*
Y860750D01*
X371500D01*
Y865000D01*
D02*
G37*
G36*
X361500D02*
X356500D01*
Y860750D01*
X361500D01*
Y865000D01*
D02*
G37*
G36*
X352500Y864000D02*
X347500D01*
Y859750D01*
X352500D01*
Y864000D01*
D02*
G37*
G36*
X342500D02*
X337500D01*
Y859750D01*
X342500D01*
Y864000D01*
D02*
G37*
G36*
X331500Y861000D02*
X323500D01*
Y856500D01*
X331500D01*
Y861000D01*
D02*
G37*
G36*
X318500D02*
X310500D01*
Y856500D01*
X318500D01*
Y861000D01*
D02*
G37*
G36*
X403250Y860500D02*
X396500D01*
Y855250D01*
X403250D01*
Y860500D01*
D02*
G37*
G36*
X391500D02*
X384750D01*
Y855250D01*
X391500D01*
Y860500D01*
D02*
G37*
G36*
X437500Y875500D02*
X433000D01*
Y867500D01*
X437500D01*
Y875500D01*
D02*
G37*
G36*
X428000D02*
X423500D01*
Y867500D01*
X428000D01*
Y875500D01*
D02*
G37*
G36*
X437500Y862500D02*
X433000D01*
Y854500D01*
X437500D01*
Y862500D01*
D02*
G37*
G36*
X428000D02*
X423500D01*
Y854500D01*
X428000D01*
Y862500D01*
D02*
G37*
G36*
X434250Y848500D02*
X430000D01*
Y843500D01*
X434250D01*
Y848500D01*
D02*
G37*
G36*
X488200Y825500D02*
X484350D01*
Y821100D01*
X488200D01*
Y825500D01*
D02*
G37*
G36*
X496850Y818500D02*
X492600D01*
Y813500D01*
X496850D01*
Y818500D01*
D02*
G37*
G36*
X487600D02*
X483350D01*
Y813500D01*
X487600D01*
Y818500D01*
D02*
G37*
G36*
X496850Y808500D02*
X492600D01*
Y803500D01*
X496850D01*
Y808500D01*
D02*
G37*
G36*
X487600D02*
X483350D01*
Y803500D01*
X487600D01*
Y808500D01*
D02*
G37*
G36*
X496850Y800500D02*
X492600D01*
Y795500D01*
X496850D01*
Y800500D01*
D02*
G37*
G36*
X487600D02*
X483350D01*
Y795500D01*
X487600D01*
Y800500D01*
D02*
G37*
G36*
Y790500D02*
X483350D01*
Y785500D01*
X487600D01*
Y790500D01*
D02*
G37*
G36*
X511350Y808500D02*
X507100D01*
Y803500D01*
X511350D01*
Y808500D01*
D02*
G37*
G36*
Y800500D02*
X507100D01*
Y795500D01*
X511350D01*
Y800500D01*
D02*
G37*
G36*
Y790500D02*
X507100D01*
Y785500D01*
X511350D01*
Y790500D01*
D02*
G37*
G36*
X308000Y733500D02*
X300000D01*
Y729000D01*
X308000D01*
Y733500D01*
D02*
G37*
G36*
X295000D02*
X287000D01*
Y729000D01*
X295000D01*
Y733500D01*
D02*
G37*
G36*
X321500Y727000D02*
X316500D01*
Y722750D01*
X321500D01*
Y727000D01*
D02*
G37*
G36*
X308000Y724000D02*
X300000D01*
Y719500D01*
X308000D01*
Y724000D01*
D02*
G37*
G36*
X295000D02*
X287000D01*
Y719500D01*
X295000D01*
Y724000D01*
D02*
G37*
G36*
X444000Y714000D02*
X443000D01*
Y707500D01*
X444000D01*
Y714000D01*
D02*
G37*
G36*
X465000Y692500D02*
X460750D01*
Y687500D01*
X465000D01*
Y692500D01*
D02*
G37*
G36*
Y682500D02*
X460750D01*
Y677500D01*
X465000D01*
Y682500D01*
D02*
G37*
G36*
X472500Y671500D02*
X468000D01*
Y663500D01*
X472500D01*
Y671500D01*
D02*
G37*
G36*
X463000D02*
X458500D01*
Y663500D01*
X463000D01*
Y671500D01*
D02*
G37*
G36*
X472500Y658500D02*
X468000D01*
Y650500D01*
X472500D01*
Y658500D01*
D02*
G37*
G36*
X463000D02*
X458500D01*
Y650500D01*
X463000D01*
Y658500D01*
D02*
G37*
G36*
X355000Y722000D02*
X348500D01*
Y721000D01*
X355000D01*
Y722000D01*
D02*
G37*
G36*
X308000Y706500D02*
X300000D01*
Y702000D01*
X308000D01*
Y706500D01*
D02*
G37*
G36*
X295000D02*
X287000D01*
Y702000D01*
X295000D01*
Y706500D01*
D02*
G37*
G36*
X331500Y703250D02*
X326500D01*
Y699000D01*
X331500D01*
Y703250D01*
D02*
G37*
G36*
X321500D02*
X316500D01*
Y699000D01*
X321500D01*
Y703250D01*
D02*
G37*
G36*
X308000Y697000D02*
X300000D01*
Y692500D01*
X308000D01*
Y697000D01*
D02*
G37*
G36*
X295000D02*
X287000D01*
Y692500D01*
X295000D01*
Y697000D01*
D02*
G37*
G36*
X222250Y691500D02*
X217500D01*
Y687500D01*
X222250D01*
Y691500D01*
D02*
G37*
G36*
X242500Y687000D02*
X237500D01*
Y682750D01*
X242500D01*
Y687000D01*
D02*
G37*
G36*
X232500D02*
X227500D01*
Y682750D01*
X232500D01*
Y687000D01*
D02*
G37*
G36*
X222250Y682500D02*
X217500D01*
Y678500D01*
X222250D01*
Y682500D01*
D02*
G37*
G36*
X242500Y672500D02*
X237500D01*
Y668250D01*
X242500D01*
Y672500D01*
D02*
G37*
G36*
X232500D02*
X227500D01*
Y668250D01*
X232500D01*
Y672500D01*
D02*
G37*
G36*
X218500Y671500D02*
X210500D01*
Y667000D01*
X218500D01*
Y671500D01*
D02*
G37*
G36*
X185500D02*
X177500D01*
Y667000D01*
X185500D01*
Y671500D01*
D02*
G37*
G36*
X172500D02*
X164500D01*
Y667000D01*
X172500D01*
Y671500D01*
D02*
G37*
G36*
X205500D02*
X197500D01*
Y667000D01*
X205500D01*
Y671500D01*
D02*
G37*
G36*
X242500Y663250D02*
X237500D01*
Y659000D01*
X242500D01*
Y663250D01*
D02*
G37*
G36*
X232500D02*
X227500D01*
Y659000D01*
X232500D01*
Y663250D01*
D02*
G37*
G36*
X60753Y660500D02*
X51500D01*
Y651247D01*
X53632Y651818D01*
X56368Y653398D01*
X58602Y655632D01*
X60182Y658368D01*
X60753Y660500D01*
D02*
G37*
G36*
X270000Y636500D02*
X265750D01*
Y631500D01*
X270000D01*
Y636500D01*
D02*
G37*
G36*
Y626500D02*
X265750D01*
Y621500D01*
X270000D01*
Y626500D01*
D02*
G37*
G36*
X57500Y612250D02*
X53500D01*
Y607500D01*
X57500D01*
Y612250D01*
D02*
G37*
G36*
X281500Y612500D02*
X277000D01*
Y604500D01*
X281500D01*
Y612500D01*
D02*
G37*
G36*
X272000D02*
X267500D01*
Y604500D01*
X272000D01*
Y612500D01*
D02*
G37*
G36*
X57500Y602500D02*
X53500D01*
Y597750D01*
X57500D01*
Y602500D01*
D02*
G37*
G36*
X281500Y599500D02*
X277000D01*
Y591500D01*
X281500D01*
Y599500D01*
D02*
G37*
G36*
X272000D02*
X267500D01*
Y591500D01*
X272000D01*
Y599500D01*
D02*
G37*
G36*
X57500Y591250D02*
X53500D01*
Y586500D01*
X57500D01*
Y591250D01*
D02*
G37*
G36*
Y581500D02*
X53500D01*
Y576750D01*
X57500D01*
Y581500D01*
D02*
G37*
G36*
X281500Y581500D02*
X277000D01*
Y573500D01*
X281500D01*
Y581500D01*
D02*
G37*
G36*
X272000D02*
X267500D01*
Y573500D01*
X272000D01*
Y581500D01*
D02*
G37*
G36*
X281500Y568500D02*
X277000D01*
Y560500D01*
X281500D01*
Y568500D01*
D02*
G37*
G36*
X272000D02*
X267500D01*
Y560500D01*
X272000D01*
Y568500D01*
D02*
G37*
G36*
X71500Y536500D02*
X67000D01*
Y528500D01*
X71500D01*
Y536500D01*
D02*
G37*
G36*
X62000D02*
X57500D01*
Y528500D01*
X62000D01*
Y536500D01*
D02*
G37*
G36*
X71500Y523500D02*
X67000D01*
Y515500D01*
X71500D01*
Y523500D01*
D02*
G37*
G36*
X62000D02*
X57500D01*
Y515500D01*
X62000D01*
Y523500D01*
D02*
G37*
G36*
X76715Y507895D02*
X63500D01*
Y497600D01*
X76715D01*
Y507895D01*
D02*
G37*
G36*
X58500D02*
X45285D01*
Y497600D01*
X58500D01*
Y507895D01*
D02*
G37*
G36*
X441250Y682500D02*
X437000D01*
Y677500D01*
X441250D01*
Y682500D01*
D02*
G37*
G36*
X445500Y671500D02*
X441000D01*
Y663500D01*
X445500D01*
Y671500D01*
D02*
G37*
G36*
X436000D02*
X431500D01*
Y663500D01*
X436000D01*
Y671500D01*
D02*
G37*
G36*
X445500Y658500D02*
X441000D01*
Y650500D01*
X445500D01*
Y658500D01*
D02*
G37*
G36*
X436000D02*
X431500D01*
Y650500D01*
X436000D01*
Y658500D01*
D02*
G37*
G36*
X137750Y630500D02*
Y625500D01*
X142000D01*
Y630500D01*
X137750D01*
D02*
G37*
G36*
X142000Y620500D02*
X137750D01*
Y615500D01*
X142000D01*
Y620500D01*
D02*
G37*
G36*
X223500Y611000D02*
X186500D01*
Y596500D01*
X223500D01*
Y611000D01*
D02*
G37*
G36*
X181500D02*
X144500D01*
Y596500D01*
X181500D01*
Y611000D01*
D02*
G37*
G36*
X223500Y591500D02*
X186500D01*
Y577000D01*
X223500D01*
Y591500D01*
D02*
G37*
G36*
X181500D02*
X144500D01*
Y577000D01*
X181500D01*
Y591500D01*
D02*
G37*
G36*
X118250Y572500D02*
X116000D01*
Y567000D01*
X118250D01*
Y572500D01*
D02*
G37*
G36*
X251000Y646500D02*
X248500D01*
Y641500D01*
X251000D01*
Y646500D01*
D02*
G37*
G36*
X218500Y644500D02*
X210500D01*
Y640000D01*
X218500D01*
Y644500D01*
D02*
G37*
G36*
X185500D02*
X177500D01*
Y640000D01*
X185500D01*
Y644500D01*
D02*
G37*
G36*
X172500D02*
X164500D01*
Y640000D01*
X172500D01*
Y644500D01*
D02*
G37*
G36*
X205500D02*
X197500D01*
Y640000D01*
X205500D01*
Y644500D01*
D02*
G37*
G36*
X255500Y636500D02*
X251250D01*
Y631500D01*
X255500D01*
Y636500D01*
D02*
G37*
G36*
X246250D02*
X242000D01*
Y631500D01*
X246250D01*
Y636500D01*
D02*
G37*
G36*
X218500Y635000D02*
X210500D01*
Y630500D01*
X218500D01*
Y635000D01*
D02*
G37*
G36*
X205500D02*
X197500D01*
Y630500D01*
X205500D01*
Y635000D01*
D02*
G37*
G36*
X185500D02*
X177500D01*
Y630500D01*
X185500D01*
Y635000D01*
D02*
G37*
G36*
X172500D02*
X164500D01*
Y630500D01*
X172500D01*
Y635000D01*
D02*
G37*
G36*
X255500Y626500D02*
X251250D01*
Y621500D01*
X255500D01*
Y626500D01*
D02*
G37*
G36*
X246250D02*
X242000D01*
Y621500D01*
X246250D01*
Y626500D01*
D02*
G37*
G36*
X254500Y612500D02*
X250000D01*
Y604500D01*
X254500D01*
Y612500D01*
D02*
G37*
G36*
X245000D02*
X240500D01*
Y604500D01*
X245000D01*
Y612500D01*
D02*
G37*
G36*
X254500Y599500D02*
X250000D01*
Y591500D01*
X254500D01*
Y599500D01*
D02*
G37*
G36*
X245000D02*
X240500D01*
Y591500D01*
X245000D01*
Y599500D01*
D02*
G37*
G36*
X254500Y581500D02*
X250000D01*
Y573500D01*
X254500D01*
Y581500D01*
D02*
G37*
G36*
X245000D02*
X240500D01*
Y573500D01*
X245000D01*
Y581500D01*
D02*
G37*
G36*
X254500Y568500D02*
X250000D01*
Y560500D01*
X254500D01*
Y568500D01*
D02*
G37*
G36*
X245000D02*
X240500D01*
Y560500D01*
X245000D01*
Y568500D01*
D02*
G37*
G36*
X254000Y555000D02*
X250500D01*
Y551000D01*
X254000D01*
Y555000D01*
D02*
G37*
G36*
X245500D02*
X242000D01*
Y551000D01*
X245500D01*
Y555000D01*
D02*
G37*
G36*
X254000Y546000D02*
X250500D01*
Y542000D01*
X254000D01*
Y546000D01*
D02*
G37*
G36*
X245500D02*
X242000D01*
Y542000D01*
X245500D01*
Y546000D01*
D02*
G37*
G36*
X108500Y557250D02*
X104500D01*
Y552500D01*
X108500D01*
Y557250D01*
D02*
G37*
G36*
X99500D02*
X95500D01*
Y552500D01*
X99500D01*
Y557250D01*
D02*
G37*
G36*
X108500Y547500D02*
X104500D01*
Y542750D01*
X108500D01*
Y547500D01*
D02*
G37*
G36*
X99500D02*
X95500D01*
Y542750D01*
X99500D01*
Y547500D01*
D02*
G37*
G36*
X98500Y536500D02*
X94000D01*
Y528500D01*
X98500D01*
Y536500D01*
D02*
G37*
G36*
X89000D02*
X84500D01*
Y528500D01*
X89000D01*
Y536500D01*
D02*
G37*
G36*
X133000Y532000D02*
X129500D01*
Y528000D01*
X133000D01*
Y532000D01*
D02*
G37*
G36*
X124500D02*
X121000D01*
Y528000D01*
X124500D01*
Y532000D01*
D02*
G37*
G36*
X133000Y523000D02*
X129500D01*
Y519000D01*
X133000D01*
Y523000D01*
D02*
G37*
G36*
X124500D02*
X121000D01*
Y519000D01*
X124500D01*
Y523000D01*
D02*
G37*
G36*
X98500Y523500D02*
X94000D01*
Y515500D01*
X98500D01*
Y523500D01*
D02*
G37*
G36*
X89000D02*
X84500D01*
Y515500D01*
X89000D01*
Y523500D01*
D02*
G37*
G36*
X223500Y541500D02*
X186500D01*
Y527000D01*
X223500D01*
Y541500D01*
D02*
G37*
G36*
X254000Y520000D02*
X250500D01*
Y516000D01*
X254000D01*
Y520000D01*
D02*
G37*
G36*
X245500D02*
X242000D01*
Y516000D01*
X245500D01*
Y520000D01*
D02*
G37*
G36*
X254000Y511000D02*
X250500D01*
Y507000D01*
X254000D01*
Y511000D01*
D02*
G37*
G36*
X245500D02*
X242000D01*
Y507000D01*
X245500D01*
Y511000D01*
D02*
G37*
G36*
X830000Y448000D02*
X823500D01*
Y443750D01*
X830000D01*
Y448000D01*
D02*
G37*
G36*
X818500D02*
X812000D01*
Y443750D01*
X818500D01*
Y448000D01*
D02*
G37*
G36*
X618000D02*
X611500D01*
Y443750D01*
X618000D01*
Y448000D01*
D02*
G37*
G36*
X606500D02*
X600000D01*
Y443750D01*
X606500D01*
Y448000D01*
D02*
G37*
G36*
X921000D02*
X914500D01*
Y443750D01*
X921000D01*
Y448000D01*
D02*
G37*
G36*
X909500D02*
X903000D01*
Y443750D01*
X909500D01*
Y448000D01*
D02*
G37*
G36*
X750000D02*
X743500D01*
Y443750D01*
X750000D01*
Y448000D01*
D02*
G37*
G36*
X738500D02*
X732000D01*
Y443750D01*
X738500D01*
Y448000D01*
D02*
G37*
G36*
X536000D02*
X529500D01*
Y443750D01*
X536000D01*
Y448000D01*
D02*
G37*
G36*
X524500D02*
X518000D01*
Y443750D01*
X524500D01*
Y448000D01*
D02*
G37*
G36*
X443000D02*
X436500D01*
Y443750D01*
X443000D01*
Y448000D01*
D02*
G37*
G36*
X431500D02*
X425000D01*
Y443750D01*
X431500D01*
Y448000D01*
D02*
G37*
G36*
X679500Y425500D02*
X674500D01*
Y421250D01*
X679500D01*
Y425500D01*
D02*
G37*
G36*
X669500D02*
X664500D01*
Y421250D01*
X669500D01*
Y425500D01*
D02*
G37*
G36*
X679500Y416250D02*
X674500D01*
Y412000D01*
X679500D01*
Y416250D01*
D02*
G37*
G36*
X669500D02*
X664500D01*
Y412000D01*
X669500D01*
Y416250D01*
D02*
G37*
G36*
X660000Y417500D02*
X658250D01*
Y410000D01*
X660000D01*
Y417500D01*
D02*
G37*
G36*
X588950Y175093D02*
Y168000D01*
X596043D01*
X595899Y168535D01*
X594352Y171215D01*
X592165Y173402D01*
X589485Y174949D01*
X588950Y175093D01*
D02*
G37*
G36*
X580950Y175093D02*
X580415Y174949D01*
X577735Y173402D01*
X575548Y171215D01*
X574001Y168535D01*
X573857Y168000D01*
X580950D01*
Y175093D01*
D02*
G37*
G36*
X596043Y160000D02*
X588950D01*
Y152907D01*
X589485Y153051D01*
X592165Y154598D01*
X594352Y156785D01*
X595899Y159465D01*
X596043Y160000D01*
D02*
G37*
G36*
X580950D02*
X573857D01*
X574001Y159465D01*
X575548Y156785D01*
X577735Y154598D01*
X580415Y153051D01*
X580950Y152907D01*
Y160000D01*
D02*
G37*
%LPD*%
D10*
X473500Y784500D02*
X474000Y784000D01*
X460000Y784500D02*
X473500D01*
X468500Y779000D02*
X468500Y779000D01*
X460500Y779000D02*
X468500D01*
X460000Y779500D02*
X460500Y779000D01*
X224000Y924975D02*
X225000Y925975D01*
X232428D01*
X235200Y928747D02*
Y928850D01*
X224000Y923100D02*
Y924975D01*
X232428Y925975D02*
X235200Y928747D01*
X159000Y925975D02*
X160000Y924975D01*
X151572Y925975D02*
X159000D01*
X148800Y928747D02*
X151572Y925975D01*
X160000Y923100D02*
Y924975D01*
X148800Y928747D02*
Y928850D01*
X438346Y830295D02*
X439080D01*
X435500Y827450D02*
X438346Y830295D01*
X435500Y819000D02*
Y827450D01*
X323000Y729500D02*
X346000D01*
X448907Y831500D02*
X449461Y832054D01*
Y839211D02*
X451250Y841000D01*
X449461Y832054D02*
Y839211D01*
X370500Y819000D02*
Y827500D01*
X374000Y831000D01*
D11*
X202236Y249500D02*
X241157D01*
X201650Y250086D02*
X202236Y249500D01*
X241157D02*
X257661Y232996D01*
X239500Y245500D02*
X253661Y231339D01*
X201650Y238000D02*
Y244914D01*
X202236Y245500D01*
X239500D01*
X200650Y258000D02*
X201650Y257000D01*
Y250086D02*
Y257000D01*
X200650Y237000D02*
X201650Y238000D01*
X268250Y209500D02*
X269500D01*
X265250Y212500D02*
X268250Y209500D01*
X265250Y212500D02*
Y216414D01*
X253661Y225518D02*
Y231339D01*
Y225518D02*
X262179Y217000D01*
X264664D01*
X257661Y227175D02*
Y232996D01*
X264664Y221000D02*
X265250Y221586D01*
X263836Y221000D02*
X264664D01*
X257661Y227175D02*
X263836Y221000D01*
X268250Y228500D02*
X269500D01*
X265250Y225500D02*
X268250Y228500D01*
X265250Y221586D02*
Y225500D01*
X264664Y217000D02*
X265250Y216414D01*
X306343Y174500D02*
X439500D01*
X288465Y192379D02*
Y201950D01*
X272000Y221586D02*
Y226000D01*
X272586Y217000D02*
X273414D01*
X288465Y192379D02*
X306343Y174500D01*
X269500Y209500D02*
X272000Y212000D01*
X273414Y217000D02*
X288465Y201950D01*
X272000Y221586D02*
X272586Y221000D01*
X269500Y228500D02*
X272000Y226000D01*
Y216414D02*
X272586Y217000D01*
X275071Y221000D02*
X292465Y203606D01*
X272586Y221000D02*
X275071D01*
X292465Y194035D02*
X308000Y178500D01*
X292465Y194035D02*
Y203606D01*
X272000Y212000D02*
Y216414D01*
X308000Y178500D02*
X439500D01*
X450000Y189000D01*
X439500Y174500D02*
X450000Y164000D01*
X151250Y243000D02*
X157000D01*
X125376Y249650D02*
X144600D01*
X151250Y243000D01*
Y257000D02*
X157000D01*
X150400Y256150D02*
X151250Y257000D01*
X125376Y256150D02*
X150400D01*
X182500Y237000D02*
X187350D01*
X176500Y243000D02*
X182500Y237000D01*
X157000Y243000D02*
X176500D01*
X182500Y258000D02*
X187350D01*
X181500Y257000D02*
X182500Y258000D01*
X157000Y257000D02*
X181500D01*
D13*
X331000Y804000D02*
X335500Y799500D01*
X267172Y804000D02*
X331000D01*
X335500Y799500D02*
X346000D01*
X215000Y699000D02*
Y719500D01*
X374250Y458750D02*
X376000Y457000D01*
X364500Y458750D02*
X374250D01*
X355250Y475000D02*
X364828D01*
X364500Y458750D02*
X366000Y460250D01*
Y473828D01*
X364828Y475000D02*
X366000Y473828D01*
X603500Y485000D02*
Y502500D01*
X604000Y503000D01*
X619500Y484000D02*
X639000D01*
X618500Y485000D02*
X619500Y484000D01*
X639000D02*
X642750Y480250D01*
Y462000D02*
Y480250D01*
X907803Y629146D02*
X910303D01*
X889502Y626394D02*
X905052D01*
X907803Y629146D01*
X889502Y608520D02*
Y626394D01*
X617000Y604605D02*
Y622606D01*
X619539Y625145D02*
X637781D01*
X617000Y622606D02*
X619539Y625145D01*
X485000Y885000D02*
X593000Y777000D01*
X659000D01*
X247000Y800000D02*
X325000D01*
X330500Y794500D01*
X346000D01*
X244000Y803000D02*
Y819000D01*
Y803000D02*
X247000Y800000D01*
X266000Y805172D02*
Y814000D01*
Y805172D02*
X267172Y804000D01*
X244500Y832500D02*
X265000D01*
X249000Y833000D02*
X249500Y832500D01*
X280000Y814000D02*
Y831500D01*
X279000Y832500D02*
X280000Y831500D01*
X1145500Y703000D02*
X1145500Y703000D01*
X1118000Y703000D02*
X1145500D01*
Y743000D02*
X1145500Y743000D01*
X1118000Y743000D02*
X1145500D01*
X1118000Y783000D02*
X1145500D01*
X766500Y822500D02*
X1059500D01*
X1066000Y707000D02*
Y816000D01*
X1059500Y822500D02*
X1066000Y816000D01*
X764950Y826000D02*
X1064000D01*
X1073000Y746000D02*
Y817000D01*
X1064000Y826000D02*
X1073000Y817000D01*
X1069250Y703750D02*
X1103250D01*
X1066000Y707000D02*
X1069250Y703750D01*
X1073000Y746000D02*
X1076000Y743000D01*
X1104000D01*
X1080550Y785450D02*
Y816450D01*
X1083000Y783000D02*
X1104000D01*
X1080550Y785450D02*
X1083000Y783000D01*
X763500Y829500D02*
X1067500D01*
X1080550Y816450D01*
X1103250Y703750D02*
X1104000Y703000D01*
X762000Y833000D02*
X1104000D01*
X1104000Y833000D01*
X721000Y777000D02*
X766500Y822500D01*
X708511Y777000D02*
X721000D01*
X708511Y782000D02*
X720950D01*
X764950Y826000D01*
X721000Y787000D02*
X763500Y829500D01*
X721000Y792000D02*
X762000Y833000D01*
X708511Y797000D02*
X721000D01*
X708511Y787000D02*
X721000D01*
X708511Y792000D02*
X721000D01*
Y797000D02*
X761000Y837000D01*
X708511Y812000D02*
X720000D01*
Y802000D02*
X759000Y841000D01*
X720000Y812000D02*
X756000Y848000D01*
X720000Y807000D02*
X757500Y844500D01*
X708511Y807000D02*
X720000D01*
X708511Y802000D02*
X720000D01*
X712000Y863000D02*
X780000D01*
X790000Y873000D02*
Y883000D01*
X780000Y863000D02*
X790000Y873000D01*
X807000Y868000D02*
Y882000D01*
X715000Y859000D02*
X798000D01*
X807000Y868000D01*
X860000Y861000D02*
Y883000D01*
X722000Y852000D02*
X851000D01*
X860000Y861000D01*
X896000Y857000D02*
Y881000D01*
X887000Y848000D02*
X896000Y857000D01*
X756000Y848000D02*
X887000D01*
X894000Y883000D02*
X896000Y881000D01*
X902500Y844500D02*
X911250Y853250D01*
Y882250D01*
X757500Y844500D02*
X902500D01*
X911250Y882250D02*
X912000Y883000D01*
X842000Y865000D02*
Y883000D01*
X832500Y855500D02*
X842000Y865000D01*
X718500Y855500D02*
X832500D01*
X676255Y839255D02*
X707000Y870000D01*
X676255Y819255D02*
Y839255D01*
X707000Y870000D02*
X736828D01*
X709500Y866500D02*
X748500D01*
X681255Y819255D02*
Y838255D01*
X709500Y866500D01*
X686255Y819255D02*
Y837255D01*
X712000Y863000D01*
X691255Y835255D02*
X715000Y859000D01*
X691255Y819255D02*
Y835255D01*
X696255Y819255D02*
Y833255D01*
X718500Y855500D01*
X701255Y819255D02*
Y831255D01*
X722000Y852000D01*
X964000Y847000D02*
Y883000D01*
X954000Y837000D02*
X964000Y847000D01*
X761000Y837000D02*
X954000D01*
X938000Y841000D02*
X946000Y849000D01*
X759000Y841000D02*
X938000D01*
X946000Y849000D02*
Y883000D01*
X912000Y897000D02*
Y928500D01*
X946000Y897000D02*
Y930500D01*
X964000Y897000D02*
Y928500D01*
X894000Y897000D02*
Y930500D01*
X860000Y897000D02*
Y928500D01*
X756000Y897000D02*
Y928500D01*
X790000Y897000D02*
Y930500D01*
X808000Y897000D02*
Y928500D01*
X842000Y897000D02*
Y930500D01*
X600000Y897000D02*
Y928500D01*
X582000Y897000D02*
Y930500D01*
X652000Y897000D02*
Y928500D01*
X634000Y897000D02*
Y930500D01*
X704000Y897000D02*
Y928500D01*
X686000Y897000D02*
Y930500D01*
X738000Y897000D02*
Y930500D01*
X548000Y897000D02*
Y928500D01*
X807000Y882000D02*
X808000Y883000D01*
X756000Y874000D02*
Y883000D01*
X748500Y866500D02*
X756000Y874000D01*
X738000Y871172D02*
Y883000D01*
X736828Y870000D02*
X738000Y871172D01*
X738000Y883000D02*
X738000Y883000D01*
X671255Y851005D02*
X703250Y883000D01*
X671255Y819255D02*
Y851005D01*
X703250Y883000D02*
X704000D01*
X666255Y863255D02*
X681750Y878750D01*
Y879500D01*
X685250Y883000D01*
X686000D01*
X666255Y819255D02*
Y863255D01*
X652000Y813172D02*
X653172Y812000D01*
X652000Y813172D02*
Y883000D01*
X653172Y812000D02*
X659000D01*
X634000Y809000D02*
Y883000D01*
X636000Y807000D02*
X659000D01*
X634000Y809000D02*
X636000Y807000D01*
X600000Y810000D02*
X608000Y802000D01*
X659000D01*
X600000Y810000D02*
Y883000D01*
X604000Y797000D02*
X659000D01*
X582000Y819000D02*
X604000Y797000D01*
X582000Y819000D02*
Y883000D01*
X547000Y846000D02*
X601000Y792000D01*
X547000Y846000D02*
Y882000D01*
X601000Y792000D02*
X659000D01*
X371000Y889000D02*
X488000D01*
X595000Y782000D02*
X659000D01*
X488000Y889000D02*
X595000Y782000D01*
X598000Y787000D02*
X659000D01*
X530000Y855000D02*
Y883000D01*
Y855000D02*
X598000Y787000D01*
X547000Y882000D02*
X548000Y883000D01*
X357250Y902750D02*
X371000Y889000D01*
X328000Y885000D02*
X485000D01*
X356500Y902750D02*
X357250D01*
X353000Y906250D02*
X356500Y902750D01*
X353000Y906250D02*
Y907000D01*
X310250Y902750D02*
X328000Y885000D01*
X306000Y906250D02*
Y907000D01*
Y906250D02*
X309500Y902750D01*
X310250D01*
X339000Y907000D02*
Y929500D01*
X320000Y907000D02*
Y928500D01*
X94500Y575000D02*
Y577746D01*
X74000Y584000D02*
X85500D01*
X78250Y600750D02*
X79000Y600000D01*
X94500D01*
X77500Y600750D02*
X78250D01*
X74000Y604250D02*
X77500Y600750D01*
X74000Y604250D02*
Y605000D01*
X92000Y621805D02*
Y630000D01*
X87250Y617055D02*
X92000Y621805D01*
X271000Y533000D02*
X271500Y532500D01*
X290000D01*
X87000Y549000D02*
X88000Y550000D01*
Y559000D01*
X72000Y549000D02*
X87000D01*
X84000Y563000D02*
X88000Y559000D01*
X74000Y605750D02*
X78000Y609750D01*
X72000Y582000D02*
X74000Y584000D01*
X78000Y609750D02*
Y625000D01*
X74000Y605000D02*
Y605750D01*
X72000Y563000D02*
Y582000D01*
X85500Y584000D02*
X90004Y579496D01*
X92750D01*
X94500Y577746D01*
X894000Y930500D02*
X895000Y931500D01*
X961000D02*
X964000Y928500D01*
X946000Y930500D02*
X947000Y931500D01*
X909000D02*
X912000Y928500D01*
X857000Y931500D02*
X860000Y928500D01*
X753000Y931500D02*
X756000Y928500D01*
X790000Y930500D02*
X791000Y931500D01*
X805000D02*
X808000Y928500D01*
X842000Y930500D02*
X843000Y931500D01*
X582000Y930500D02*
X583000Y931500D01*
X597000D02*
X600000Y928500D01*
X634000Y930500D02*
X635000Y931500D01*
X649000D02*
X652000Y928500D01*
X738000Y930500D02*
X739000Y931500D01*
X701000D02*
X704000Y928500D01*
X686000Y930500D02*
X687000Y931500D01*
X530000Y930500D02*
X531000Y931500D01*
X545000D02*
X548000Y928500D01*
X1120000Y835000D02*
X1145500D01*
X1118000Y833000D02*
X1120000Y835000D01*
X337000Y931500D02*
X339000Y929500D01*
X320000Y928500D02*
X323000Y931500D01*
D16*
X243000Y886000D02*
X244000Y885000D01*
X295243D01*
X297000Y883243D01*
Y823000D02*
Y883243D01*
Y823000D02*
X310879Y809121D01*
X366121D01*
X378000Y797243D01*
Y759000D02*
Y797243D01*
X373500Y754500D02*
X378000Y759000D01*
X346000Y754500D02*
X373500D01*
X189000Y685000D02*
X215000D01*
X176000Y698000D02*
X189000Y685000D01*
X324000Y583000D02*
X339000D01*
X339500Y583500D01*
X342500Y618500D02*
X351330Y627330D01*
Y629330D01*
X352000Y630000D01*
X339500Y618500D02*
X342500D01*
X665250Y750750D02*
X675952Y761452D01*
X665250Y750000D02*
Y750750D01*
X675952Y761452D02*
Y769441D01*
X676255Y769745D01*
X696255Y762745D02*
Y769745D01*
Y762745D02*
X703007Y755993D01*
Y750743D02*
X705750Y748000D01*
X703007Y750743D02*
Y755993D01*
X1160250Y702750D02*
X1160750Y703250D01*
X1175250D01*
X947000Y962500D02*
X961000D01*
X931000Y967000D02*
X935500Y962500D01*
X947000D01*
X895000D02*
X909000D01*
X879000Y967000D02*
X883500Y962500D01*
X895000D01*
X843000D02*
X857000D01*
X827000Y967000D02*
X831500Y962500D01*
X843000D01*
X791000D02*
X805000D01*
X775000Y967000D02*
X779500Y962500D01*
X791000D01*
X739000D02*
X753000D01*
X723000Y967000D02*
X727500Y962500D01*
X739000D01*
X687000D02*
X701000D01*
X671000Y967000D02*
X675500Y962500D01*
X687000D01*
X635000D02*
X649000D01*
X619000Y967000D02*
X623500Y962500D01*
X635000D01*
X583000D02*
X597000D01*
X567000Y967000D02*
X571500Y962500D01*
X583000D01*
X519500D02*
X531000D01*
X515000Y967000D02*
X519500Y962500D01*
X531000D02*
X545000D01*
X1160250Y742750D02*
X1160750Y743250D01*
X1175250D01*
X1160250Y782750D02*
X1160750Y783250D01*
X1175250D01*
X1160750Y835250D02*
X1175250D01*
X1160250Y834750D02*
X1160750Y835250D01*
X224000Y886000D02*
X243000D01*
D19*
X837000Y405250D02*
D03*
Y390750D02*
D03*
X823000D02*
D03*
Y405250D02*
D03*
X757000Y390750D02*
D03*
Y405250D02*
D03*
X743000Y390750D02*
D03*
Y405250D02*
D03*
X612000Y390750D02*
D03*
Y405250D02*
D03*
X628000Y390750D02*
D03*
Y405250D02*
D03*
X543000D02*
D03*
Y390750D02*
D03*
X528000Y405250D02*
D03*
Y390750D02*
D03*
X446000Y405250D02*
D03*
Y390750D02*
D03*
X461000Y405250D02*
D03*
Y390750D02*
D03*
X919000Y268750D02*
D03*
Y283250D02*
D03*
Y225250D02*
D03*
Y210750D02*
D03*
X1101500Y247750D02*
D03*
Y262250D02*
D03*
X994390Y715750D02*
D03*
Y730250D02*
D03*
X851390Y718000D02*
D03*
Y732500D02*
D03*
X994000Y781500D02*
D03*
Y796000D02*
D03*
X851000Y774750D02*
D03*
Y789250D02*
D03*
X124376Y224150D02*
D03*
Y209650D02*
D03*
X324000Y705750D02*
D03*
Y720250D02*
D03*
X364000Y843750D02*
D03*
Y858250D02*
D03*
X345000Y842750D02*
D03*
Y857250D02*
D03*
X672000Y418750D02*
D03*
Y433250D02*
D03*
X235000Y665750D02*
D03*
Y680250D02*
D03*
X804000Y485750D02*
D03*
Y500250D02*
D03*
X46376Y254150D02*
D03*
Y239650D02*
D03*
X64376Y254150D02*
D03*
Y239650D02*
D03*
X938000Y420750D02*
D03*
Y435250D02*
D03*
X46000Y788000D02*
D03*
Y802500D02*
D03*
D20*
X821000Y422750D02*
D03*
Y441250D02*
D03*
X741000Y422750D02*
D03*
Y441250D02*
D03*
X609000Y422750D02*
D03*
Y441250D02*
D03*
X1025500Y194750D02*
D03*
Y213250D02*
D03*
X527000Y422750D02*
D03*
Y441250D02*
D03*
X434000Y422750D02*
D03*
Y441250D02*
D03*
X912000Y422750D02*
D03*
Y441250D02*
D03*
D21*
X411000Y617000D02*
D03*
X397000D02*
D03*
X1034500Y269000D02*
D03*
X1020500D02*
D03*
X1034500Y285000D02*
D03*
X1020500D02*
D03*
X1034500Y230000D02*
D03*
X1020500D02*
D03*
X1020500Y245000D02*
D03*
X1034500D02*
D03*
X1092500Y283000D02*
D03*
X1078500D02*
D03*
X875502Y684968D02*
D03*
X889502D02*
D03*
X889502Y665606D02*
D03*
X875502D02*
D03*
X875502Y626394D02*
D03*
X889502D02*
D03*
X875502Y608520D02*
D03*
X889502D02*
D03*
X922748Y609267D02*
D03*
X936748D02*
D03*
X875502Y590606D02*
D03*
X889502D02*
D03*
X650122Y605606D02*
D03*
X664122D02*
D03*
X603000Y604605D02*
D03*
X617000D02*
D03*
X603000Y586605D02*
D03*
X617000D02*
D03*
X603000Y680605D02*
D03*
X617000D02*
D03*
X617000Y661606D02*
D03*
X603000D02*
D03*
X603000Y622606D02*
D03*
X617000D02*
D03*
X737000Y681014D02*
D03*
X751000D02*
D03*
X751000Y661750D02*
D03*
X737000D02*
D03*
X737000Y622837D02*
D03*
X751000D02*
D03*
X1009500Y626392D02*
D03*
X1023500D02*
D03*
X1009500Y608566D02*
D03*
X1023500D02*
D03*
X1009500Y685000D02*
D03*
X1023500D02*
D03*
X1023500Y666000D02*
D03*
X1009500D02*
D03*
X1057346Y609030D02*
D03*
X1071346D02*
D03*
X737000Y604973D02*
D03*
X751000D02*
D03*
X784482Y605355D02*
D03*
X798482D02*
D03*
X737000Y586866D02*
D03*
X751000D02*
D03*
X367000Y420000D02*
D03*
X353000D02*
D03*
X365750Y402000D02*
D03*
X351750D02*
D03*
X976000Y707000D02*
D03*
X962000D02*
D03*
X962000Y723000D02*
D03*
X976000D02*
D03*
X962000Y738000D02*
D03*
X976000D02*
D03*
X833390Y711250D02*
D03*
X819390D02*
D03*
X819390Y726250D02*
D03*
X833390D02*
D03*
X819000Y797000D02*
D03*
X833000D02*
D03*
X962000Y788750D02*
D03*
X976000D02*
D03*
X976000Y773750D02*
D03*
X962000D02*
D03*
X819390Y741250D02*
D03*
X833390D02*
D03*
X962000Y803750D02*
D03*
X976000D02*
D03*
X833000Y767000D02*
D03*
X819000D02*
D03*
X819000Y782000D02*
D03*
X833000D02*
D03*
X266000Y814000D02*
D03*
X280000D02*
D03*
X339000Y907000D02*
D03*
X353000D02*
D03*
X320000D02*
D03*
X306000D02*
D03*
X92000Y630000D02*
D03*
X78000D02*
D03*
X74000Y605000D02*
D03*
X60000D02*
D03*
Y584000D02*
D03*
X74000D02*
D03*
X88000Y550000D02*
D03*
X102000D02*
D03*
X520000Y600000D02*
D03*
X506000D02*
D03*
X893000Y484000D02*
D03*
X907000D02*
D03*
X506000Y540000D02*
D03*
X520000D02*
D03*
Y560000D02*
D03*
X506000D02*
D03*
X520000Y580000D02*
D03*
X506000D02*
D03*
X587000Y749000D02*
D03*
X573000D02*
D03*
X618000Y503000D02*
D03*
X604000D02*
D03*
X1104000Y703000D02*
D03*
X1118000D02*
D03*
X1023577Y590540D02*
D03*
X1009577D02*
D03*
X1104000Y743000D02*
D03*
X1118000D02*
D03*
X1104000Y783000D02*
D03*
X1118000D02*
D03*
X1104000Y833000D02*
D03*
X1118000D02*
D03*
X729000Y764000D02*
D03*
X743000D02*
D03*
X665000Y733000D02*
D03*
X651000D02*
D03*
X566000Y452000D02*
D03*
X552000D02*
D03*
X687000Y469000D02*
D03*
X673000D02*
D03*
X673000Y450000D02*
D03*
X687000D02*
D03*
X783000Y452000D02*
D03*
X769000D02*
D03*
X811000Y522000D02*
D03*
X825000D02*
D03*
X448750Y498000D02*
D03*
X434750D02*
D03*
X101376Y281900D02*
D03*
X115376D02*
D03*
X411000Y635000D02*
D03*
X397000D02*
D03*
D22*
X847469Y320000D02*
D03*
X832969D02*
D03*
X893750Y320000D02*
D03*
X908250D02*
D03*
X996750Y187000D02*
D03*
X982250D02*
D03*
X996750Y205000D02*
D03*
X982250D02*
D03*
X916053Y672605D02*
D03*
X930553D02*
D03*
X875252Y643605D02*
D03*
X889752D02*
D03*
X643872Y668605D02*
D03*
X658372D02*
D03*
X602750Y639605D02*
D03*
X617250D02*
D03*
X736750Y639750D02*
D03*
X751250D02*
D03*
X1009250Y643606D02*
D03*
X1023750D02*
D03*
X778110Y668750D02*
D03*
X792610D02*
D03*
X1050872Y672606D02*
D03*
X1065372D02*
D03*
X340750Y475000D02*
D03*
X355250D02*
D03*
X120750Y623000D02*
D03*
X135250D02*
D03*
X248750Y629000D02*
D03*
X263250D02*
D03*
X86126Y223900D02*
D03*
X100626D02*
D03*
X511750Y721000D02*
D03*
X526250D02*
D03*
X525250Y661000D02*
D03*
X510750D02*
D03*
X458250Y685000D02*
D03*
X443750D02*
D03*
X511750Y746000D02*
D03*
X526250D02*
D03*
X490100Y793000D02*
D03*
X504600D02*
D03*
X490100Y811000D02*
D03*
X504600D02*
D03*
X436750Y841000D02*
D03*
X451250D02*
D03*
X720250Y748000D02*
D03*
X705750D02*
D03*
X650750Y750000D02*
D03*
X665250D02*
D03*
X781250Y508000D02*
D03*
X766750D02*
D03*
X908750Y401000D02*
D03*
X923250D02*
D03*
X702250Y523000D02*
D03*
X687750D02*
D03*
X489250Y494000D02*
D03*
X474750D02*
D03*
X449000Y513000D02*
D03*
X434500D02*
D03*
X825250Y302000D02*
D03*
X810750D02*
D03*
X654116Y302000D02*
D03*
X668616D02*
D03*
X454750Y315000D02*
D03*
X469250D02*
D03*
X374161Y315000D02*
D03*
X388661D02*
D03*
X574500Y508000D02*
D03*
X560000D02*
D03*
X619200Y302000D02*
D03*
X604700D02*
D03*
D23*
X1052500Y268000D02*
D03*
Y254000D02*
D03*
Y224000D02*
D03*
Y238000D02*
D03*
X847122Y627606D02*
D03*
Y641606D02*
D03*
X955000Y632000D02*
D03*
Y646000D02*
D03*
X687122Y627606D02*
D03*
Y641606D02*
D03*
X580000Y637000D02*
D03*
Y623000D02*
D03*
X820928Y627750D02*
D03*
Y641750D02*
D03*
X983122Y631605D02*
D03*
Y645605D02*
D03*
X715000Y627750D02*
D03*
Y641750D02*
D03*
X1089000Y632000D02*
D03*
Y646000D02*
D03*
X335000Y419000D02*
D03*
Y433000D02*
D03*
X385000Y436000D02*
D03*
Y422000D02*
D03*
X404000Y422000D02*
D03*
Y436000D02*
D03*
X704000Y897000D02*
D03*
Y883000D02*
D03*
X686000Y897000D02*
D03*
Y883000D02*
D03*
X600000Y897000D02*
D03*
Y883000D02*
D03*
X582000Y897000D02*
D03*
Y883000D02*
D03*
X652000Y897000D02*
D03*
Y883000D02*
D03*
X634000Y897000D02*
D03*
Y883000D02*
D03*
X548000Y897000D02*
D03*
Y883000D02*
D03*
X530000Y897000D02*
D03*
Y883000D02*
D03*
X860000Y897000D02*
D03*
Y883000D02*
D03*
X842000Y897000D02*
D03*
Y883000D02*
D03*
X808000Y897000D02*
D03*
Y883000D02*
D03*
X790000Y897000D02*
D03*
Y883000D02*
D03*
X946000Y897000D02*
D03*
Y883000D02*
D03*
X964000Y897000D02*
D03*
Y883000D02*
D03*
X912000Y897000D02*
D03*
Y883000D02*
D03*
X738000Y897000D02*
D03*
Y883000D02*
D03*
X756000Y897000D02*
D03*
Y883000D02*
D03*
X894000Y897000D02*
D03*
Y883000D02*
D03*
X1012000Y782000D02*
D03*
Y796000D02*
D03*
X1012390Y716000D02*
D03*
Y730000D02*
D03*
X869390Y718250D02*
D03*
Y732250D02*
D03*
X869000Y775000D02*
D03*
Y789000D02*
D03*
X244000Y819000D02*
D03*
Y833000D02*
D03*
X72000Y563000D02*
D03*
Y549000D02*
D03*
X271000Y547000D02*
D03*
Y533000D02*
D03*
X157000Y257000D02*
D03*
Y243000D02*
D03*
X873000Y435000D02*
D03*
Y421000D02*
D03*
X888000Y421000D02*
D03*
Y435000D02*
D03*
X870000Y453000D02*
D03*
Y467000D02*
D03*
X245000Y788000D02*
D03*
Y774000D02*
D03*
X230000Y788000D02*
D03*
Y774000D02*
D03*
X261000D02*
D03*
Y788000D02*
D03*
X414000Y670000D02*
D03*
Y656000D02*
D03*
X186000Y886000D02*
D03*
Y900000D02*
D03*
X224000Y886000D02*
D03*
Y900000D02*
D03*
X205000Y886000D02*
D03*
Y900000D02*
D03*
X167000Y886000D02*
D03*
Y900000D02*
D03*
X148000Y886000D02*
D03*
Y900000D02*
D03*
X215000Y699000D02*
D03*
Y685000D02*
D03*
X632000Y766000D02*
D03*
Y752000D02*
D03*
X243000Y886000D02*
D03*
Y900000D02*
D03*
X292000Y788000D02*
D03*
Y774000D02*
D03*
X542000Y496000D02*
D03*
Y482000D02*
D03*
X571000Y420000D02*
D03*
Y434000D02*
D03*
X585000Y434000D02*
D03*
Y420000D02*
D03*
X553000Y420000D02*
D03*
Y434000D02*
D03*
X474000Y436000D02*
D03*
Y422000D02*
D03*
X277000Y788000D02*
D03*
Y774000D02*
D03*
X749000Y495000D02*
D03*
Y481000D02*
D03*
X674000Y501000D02*
D03*
Y487000D02*
D03*
X461000Y473000D02*
D03*
Y459000D02*
D03*
X504000Y436000D02*
D03*
Y422000D02*
D03*
X489000Y422000D02*
D03*
Y436000D02*
D03*
X717000Y434000D02*
D03*
Y420000D02*
D03*
X703000Y420000D02*
D03*
Y434000D02*
D03*
X764000Y420000D02*
D03*
Y434000D02*
D03*
X459000Y436000D02*
D03*
Y422000D02*
D03*
X783000Y420000D02*
D03*
Y434000D02*
D03*
X798000Y434000D02*
D03*
Y420000D02*
D03*
X853000Y435000D02*
D03*
Y421000D02*
D03*
X851000Y467000D02*
D03*
Y453000D02*
D03*
X307000Y788000D02*
D03*
Y774000D02*
D03*
X322000Y788000D02*
D03*
Y774000D02*
D03*
X413000Y534000D02*
D03*
Y548000D02*
D03*
X416750Y511000D02*
D03*
Y497000D02*
D03*
X63376Y275900D02*
D03*
Y289900D02*
D03*
D24*
X1072000Y244250D02*
D03*
X1085000D02*
D03*
X1078500Y265750D02*
D03*
X697000Y485250D02*
D03*
X690500Y506750D02*
D03*
X703500D02*
D03*
X773000Y470250D02*
D03*
X766500Y491750D02*
D03*
X779500D02*
D03*
X358000Y437250D02*
D03*
X351500Y458750D02*
D03*
X364500D02*
D03*
X820500Y483250D02*
D03*
X833500D02*
D03*
X827000Y504750D02*
D03*
X489500Y476750D02*
D03*
X476500D02*
D03*
X483000Y455250D02*
D03*
X572500Y491750D02*
D03*
X559500D02*
D03*
X566000Y470250D02*
D03*
D25*
X936303Y648145D02*
D03*
Y629146D02*
D03*
X910303D02*
D03*
Y638645D02*
D03*
Y648145D02*
D03*
X663781Y644145D02*
D03*
Y625145D02*
D03*
X637781D02*
D03*
Y634645D02*
D03*
Y644145D02*
D03*
X798360Y644290D02*
D03*
Y625290D02*
D03*
X772360D02*
D03*
Y634790D02*
D03*
Y644290D02*
D03*
X1071122Y648105D02*
D03*
Y629105D02*
D03*
X1045122D02*
D03*
Y638605D02*
D03*
Y648105D02*
D03*
X969000Y154500D02*
D03*
Y145000D02*
D03*
Y135500D02*
D03*
X995000D02*
D03*
Y154500D02*
D03*
D26*
X636250Y420000D02*
D03*
X642750D02*
D03*
X649250D02*
D03*
X655750D02*
D03*
X636250Y462000D02*
D03*
X642750D02*
D03*
X649250D02*
D03*
X655750D02*
D03*
D27*
X297500Y726500D02*
D03*
Y699500D02*
D03*
X208000Y637500D02*
D03*
Y664500D02*
D03*
X175000Y637500D02*
D03*
Y664500D02*
D03*
X321000Y836500D02*
D03*
Y863500D02*
D03*
D28*
X701255Y769745D02*
D03*
X696255D02*
D03*
X691255D02*
D03*
X686255D02*
D03*
X681255D02*
D03*
X676255D02*
D03*
X671255D02*
D03*
X666255D02*
D03*
Y819255D02*
D03*
X671255D02*
D03*
X676255D02*
D03*
X681255D02*
D03*
X686255D02*
D03*
X691255D02*
D03*
X696255D02*
D03*
X701255D02*
D03*
D29*
X659000Y777000D02*
D03*
Y782000D02*
D03*
Y787000D02*
D03*
Y792000D02*
D03*
Y797000D02*
D03*
Y802000D02*
D03*
Y807000D02*
D03*
Y812000D02*
D03*
X708511D02*
D03*
Y807000D02*
D03*
Y802000D02*
D03*
Y797000D02*
D03*
Y792000D02*
D03*
Y787000D02*
D03*
Y782000D02*
D03*
D30*
Y777000D02*
D03*
D31*
X265000Y863500D02*
D03*
X279000D02*
D03*
X265000Y832500D02*
D03*
X279000D02*
D03*
X337000Y931500D02*
D03*
X323000D02*
D03*
X337000Y962500D02*
D03*
X323000D02*
D03*
X597000Y931500D02*
D03*
X583000D02*
D03*
X597000Y962500D02*
D03*
X583000D02*
D03*
X649000Y931500D02*
D03*
X635000D02*
D03*
X649000Y962500D02*
D03*
X635000D02*
D03*
X961000Y931500D02*
D03*
X947000D02*
D03*
X961000Y962500D02*
D03*
X947000D02*
D03*
X909000Y931500D02*
D03*
X895000D02*
D03*
X909000Y962500D02*
D03*
X895000D02*
D03*
X805000Y931500D02*
D03*
X791000D02*
D03*
X805000Y962500D02*
D03*
X791000D02*
D03*
X857000Y931500D02*
D03*
X843000D02*
D03*
X857000Y962500D02*
D03*
X843000D02*
D03*
X753000Y931500D02*
D03*
X739000D02*
D03*
X753000Y962500D02*
D03*
X739000D02*
D03*
X701000Y931500D02*
D03*
X687000D02*
D03*
X701000Y962500D02*
D03*
X687000D02*
D03*
X531000D02*
D03*
X545000D02*
D03*
X531000Y931500D02*
D03*
X545000D02*
D03*
D32*
X117750Y792950D02*
D03*
Y805650D02*
D03*
Y818350D02*
D03*
Y831050D02*
D03*
X68250D02*
D03*
Y818350D02*
D03*
Y805650D02*
D03*
Y792950D02*
D03*
D33*
X339500Y618500D02*
D03*
Y583500D02*
D03*
X316500Y601000D02*
D03*
D34*
X153600Y136650D02*
D03*
Y177350D02*
D03*
X166300Y136650D02*
D03*
Y177350D02*
D03*
X179000Y136650D02*
D03*
Y177350D02*
D03*
X191700D02*
D03*
X204400Y136650D02*
D03*
Y177350D02*
D03*
D35*
X440500Y705000D02*
D03*
X435500D02*
D03*
X430500D02*
D03*
X425500D02*
D03*
X420500D02*
D03*
X415500D02*
D03*
X410500D02*
D03*
X405500D02*
D03*
X400500D02*
D03*
X395500D02*
D03*
X390500D02*
D03*
X385500D02*
D03*
X380500D02*
D03*
X375500D02*
D03*
X370500D02*
D03*
X365500D02*
D03*
Y819000D02*
D03*
X370500D02*
D03*
X375500D02*
D03*
X380500D02*
D03*
X385500D02*
D03*
X390500D02*
D03*
X395500D02*
D03*
X400500D02*
D03*
X405500D02*
D03*
X410500D02*
D03*
X415500D02*
D03*
X420500D02*
D03*
X425500D02*
D03*
X430500D02*
D03*
X435500D02*
D03*
X440500D02*
D03*
D36*
X346000Y724500D02*
D03*
Y729500D02*
D03*
Y734500D02*
D03*
Y739500D02*
D03*
Y744500D02*
D03*
Y749500D02*
D03*
Y754500D02*
D03*
Y759500D02*
D03*
Y764500D02*
D03*
Y769500D02*
D03*
Y774500D02*
D03*
Y779500D02*
D03*
Y784500D02*
D03*
Y789500D02*
D03*
Y794500D02*
D03*
Y799500D02*
D03*
X460000D02*
D03*
Y794500D02*
D03*
Y789500D02*
D03*
Y784500D02*
D03*
Y779500D02*
D03*
Y774500D02*
D03*
Y769500D02*
D03*
Y764500D02*
D03*
Y759500D02*
D03*
Y754500D02*
D03*
Y749500D02*
D03*
Y744500D02*
D03*
Y739500D02*
D03*
Y734500D02*
D03*
Y729500D02*
D03*
Y724500D02*
D03*
D37*
X104000Y600000D02*
D03*
X113500D02*
D03*
X94500D02*
D03*
Y575000D02*
D03*
X104000D02*
D03*
X113500D02*
D03*
D38*
X248000Y548500D02*
D03*
Y513500D02*
D03*
X127000Y525500D02*
D03*
Y490500D02*
D03*
D39*
X184000Y544000D02*
D03*
Y594000D02*
D03*
D40*
X253500Y649000D02*
D03*
X263000D02*
D03*
X272500D02*
D03*
Y675000D02*
D03*
X253500D02*
D03*
D41*
X61000Y450900D02*
D03*
Y495100D02*
D03*
D42*
X91500Y526000D02*
D03*
X64500D02*
D03*
X247500Y571000D02*
D03*
X274500D02*
D03*
X247500Y602000D02*
D03*
X274500D02*
D03*
X457500Y865000D02*
D03*
X430500D02*
D03*
X465500Y661000D02*
D03*
X438500D02*
D03*
D43*
X290000Y547500D02*
D03*
Y532500D02*
D03*
X215000Y719500D02*
D03*
Y734500D02*
D03*
D44*
X187350Y237000D02*
D03*
X200650D02*
D03*
X187350Y258000D02*
D03*
X200650D02*
D03*
X504000Y828000D02*
D03*
X490700D02*
D03*
D45*
X110376Y252900D02*
D03*
D46*
X125376Y262650D02*
D03*
Y256150D02*
D03*
Y249650D02*
D03*
Y243150D02*
D03*
X95376D02*
D03*
Y249650D02*
D03*
Y256150D02*
D03*
Y262650D02*
D03*
D47*
X603500Y485000D02*
D03*
X618500D02*
D03*
X587500Y731000D02*
D03*
X572500D02*
D03*
X1160500Y703000D02*
D03*
X1145500D02*
D03*
X1160500Y783000D02*
D03*
X1145500D02*
D03*
X1160500Y835000D02*
D03*
X1145500D02*
D03*
X1160500Y743000D02*
D03*
X1145500D02*
D03*
D48*
X889500Y341500D02*
D03*
X883000D02*
D03*
X850500D02*
D03*
X857000D02*
D03*
X863500D02*
D03*
X870000D02*
D03*
X876500D02*
D03*
X889500Y398500D02*
D03*
X883000D02*
D03*
X850500D02*
D03*
X857000D02*
D03*
X863500D02*
D03*
X870000D02*
D03*
X876500D02*
D03*
X432500Y341000D02*
D03*
X426000D02*
D03*
X393500D02*
D03*
X400000D02*
D03*
X406500D02*
D03*
X413000D02*
D03*
X419500D02*
D03*
X432500Y398000D02*
D03*
X426000D02*
D03*
X393500D02*
D03*
X400000D02*
D03*
X406500D02*
D03*
X413000D02*
D03*
X419500D02*
D03*
X809500Y341500D02*
D03*
X803000D02*
D03*
X770500D02*
D03*
X777000D02*
D03*
X783500D02*
D03*
X790000D02*
D03*
X796500D02*
D03*
X809500Y398500D02*
D03*
X803000D02*
D03*
X770500D02*
D03*
X777000D02*
D03*
X783500D02*
D03*
X790000D02*
D03*
X796500D02*
D03*
X729500Y341500D02*
D03*
X723000D02*
D03*
X690500D02*
D03*
X697000D02*
D03*
X703500D02*
D03*
X710000D02*
D03*
X716500D02*
D03*
X729500Y398500D02*
D03*
X723000D02*
D03*
X690500D02*
D03*
X697000D02*
D03*
X703500D02*
D03*
X710000D02*
D03*
X716500D02*
D03*
X595500Y341000D02*
D03*
X589000D02*
D03*
X556500D02*
D03*
X563000D02*
D03*
X569500D02*
D03*
X576000D02*
D03*
X582500D02*
D03*
X595500Y398000D02*
D03*
X589000D02*
D03*
X556500D02*
D03*
X563000D02*
D03*
X569500D02*
D03*
X576000D02*
D03*
X582500D02*
D03*
X514500Y341500D02*
D03*
X508000D02*
D03*
X475500D02*
D03*
X482000D02*
D03*
X488500D02*
D03*
X495000D02*
D03*
X501500D02*
D03*
X514500Y398500D02*
D03*
X508000D02*
D03*
X475500D02*
D03*
X482000D02*
D03*
X488500D02*
D03*
X495000D02*
D03*
X501500D02*
D03*
D49*
X870000Y370000D02*
D03*
X413000Y369500D02*
D03*
X790000Y370000D02*
D03*
X710000D02*
D03*
X576000Y369500D02*
D03*
X495000Y370000D02*
D03*
D50*
X269500Y209500D02*
D03*
Y228500D02*
D03*
X245000Y219000D02*
D03*
D51*
X942000Y225500D02*
D03*
Y232000D02*
D03*
Y264500D02*
D03*
Y258000D02*
D03*
Y251500D02*
D03*
Y245000D02*
D03*
Y238500D02*
D03*
X999000Y225500D02*
D03*
Y232000D02*
D03*
Y264500D02*
D03*
Y258000D02*
D03*
Y251500D02*
D03*
Y245000D02*
D03*
Y238500D02*
D03*
D52*
X970500Y245000D02*
D03*
D53*
X527500Y680000D02*
D03*
X510500D02*
D03*
X527500Y702000D02*
D03*
X510500D02*
D03*
D54*
X394000Y841000D02*
D03*
Y863000D02*
D03*
D55*
X160000Y923100D02*
D03*
X224000D02*
D03*
X168000D02*
D03*
X216000D02*
D03*
D56*
X174500D02*
D03*
X179500D02*
D03*
X184500D02*
D03*
X189500D02*
D03*
X194500D02*
D03*
X199500D02*
D03*
X204500D02*
D03*
X209500D02*
D03*
D57*
X176000Y868250D02*
D03*
X185500Y843750D02*
D03*
X166500D02*
D03*
D58*
X451500Y532500D02*
D03*
Y545500D02*
D03*
X430000Y539000D02*
D03*
D69*
X683755Y794500D02*
D03*
D102*
X163100Y933850D02*
D03*
X220900D02*
D03*
X955000Y161000D02*
D03*
X575000Y124000D02*
D03*
X567000D02*
D03*
X582000D02*
D03*
X589000D02*
D03*
X596000D02*
D03*
X603000D02*
D03*
Y132000D02*
D03*
Y148000D02*
D03*
Y140000D02*
D03*
X596000Y132000D02*
D03*
Y148000D02*
D03*
Y140000D02*
D03*
X589000Y132000D02*
D03*
Y148000D02*
D03*
Y140000D02*
D03*
X582000D02*
D03*
Y148000D02*
D03*
Y132000D02*
D03*
X567000Y140000D02*
D03*
Y148000D02*
D03*
Y132000D02*
D03*
X575000Y140000D02*
D03*
Y148000D02*
D03*
Y132000D02*
D03*
X207000Y937000D02*
D03*
Y945000D02*
D03*
Y953000D02*
D03*
X215000Y945000D02*
D03*
Y953000D02*
D03*
X190000Y937000D02*
D03*
Y945000D02*
D03*
Y953000D02*
D03*
X198000Y937000D02*
D03*
Y945000D02*
D03*
Y953000D02*
D03*
X173000Y937000D02*
D03*
Y945000D02*
D03*
Y953000D02*
D03*
X181000Y937000D02*
D03*
Y945000D02*
D03*
Y953000D02*
D03*
X834000Y367000D02*
D03*
Y375000D02*
D03*
Y359000D02*
D03*
X842000Y367000D02*
D03*
Y375000D02*
D03*
Y359000D02*
D03*
X819000Y367000D02*
D03*
Y375000D02*
D03*
Y359000D02*
D03*
X827000Y367000D02*
D03*
Y375000D02*
D03*
Y359000D02*
D03*
X754000Y367000D02*
D03*
Y375000D02*
D03*
Y359000D02*
D03*
X762000Y367000D02*
D03*
Y375000D02*
D03*
Y359000D02*
D03*
X739000Y367000D02*
D03*
Y375000D02*
D03*
Y359000D02*
D03*
X747000Y367000D02*
D03*
Y375000D02*
D03*
Y359000D02*
D03*
X667000Y366000D02*
D03*
Y374000D02*
D03*
Y358000D02*
D03*
X675000Y366000D02*
D03*
Y374000D02*
D03*
Y358000D02*
D03*
X660000Y366000D02*
D03*
Y374000D02*
D03*
Y358000D02*
D03*
X644000Y366000D02*
D03*
Y374000D02*
D03*
Y358000D02*
D03*
X652000Y366000D02*
D03*
Y374000D02*
D03*
Y358000D02*
D03*
X637000Y366000D02*
D03*
Y374000D02*
D03*
Y358000D02*
D03*
X614000D02*
D03*
Y374000D02*
D03*
Y366000D02*
D03*
X606000Y358000D02*
D03*
Y374000D02*
D03*
Y366000D02*
D03*
X629000Y358000D02*
D03*
Y374000D02*
D03*
Y366000D02*
D03*
X621000Y358000D02*
D03*
Y374000D02*
D03*
Y366000D02*
D03*
X533000Y358500D02*
D03*
Y374500D02*
D03*
Y366500D02*
D03*
X525000Y358500D02*
D03*
Y374500D02*
D03*
Y366500D02*
D03*
X548000Y358500D02*
D03*
Y374500D02*
D03*
Y366500D02*
D03*
X540000Y358500D02*
D03*
Y374500D02*
D03*
Y366500D02*
D03*
X458000Y366000D02*
D03*
Y374000D02*
D03*
Y358000D02*
D03*
X466000Y366000D02*
D03*
Y374000D02*
D03*
Y358000D02*
D03*
X443000Y366000D02*
D03*
Y374000D02*
D03*
Y358000D02*
D03*
X451000Y366000D02*
D03*
Y374000D02*
D03*
Y358000D02*
D03*
X376000Y457000D02*
D03*
X675000Y407000D02*
D03*
X667689D02*
D03*
X660495D02*
D03*
X445000Y453000D02*
D03*
X438000D02*
D03*
X431000D02*
D03*
X424000D02*
D03*
X923000D02*
D03*
X916000D02*
D03*
X909000D02*
D03*
X902000D02*
D03*
X832000D02*
D03*
X825000D02*
D03*
X818000D02*
D03*
X811000D02*
D03*
X752000D02*
D03*
X745000D02*
D03*
X738000D02*
D03*
X731000D02*
D03*
X620000D02*
D03*
X613000D02*
D03*
X606000D02*
D03*
X599000D02*
D03*
X517000D02*
D03*
X524000D02*
D03*
X531000D02*
D03*
X538000D02*
D03*
X324000Y583000D02*
D03*
X352000Y630000D02*
D03*
X693000Y751000D02*
D03*
X687000Y743000D02*
D03*
X696000Y790000D02*
D03*
Y806000D02*
D03*
Y798000D02*
D03*
Y782000D02*
D03*
X688000Y790000D02*
D03*
Y806000D02*
D03*
Y798000D02*
D03*
Y782000D02*
D03*
X672000D02*
D03*
X680000D02*
D03*
Y798000D02*
D03*
Y806000D02*
D03*
Y790000D02*
D03*
X672000D02*
D03*
Y806000D02*
D03*
Y798000D02*
D03*
X954000Y135000D02*
D03*
X1175250Y703250D02*
D03*
X1031000Y164000D02*
D03*
Y155000D02*
D03*
X1010000Y136000D02*
D03*
X1033000Y796000D02*
D03*
X1033390Y730000D02*
D03*
X890390Y732250D02*
D03*
X890000Y789000D02*
D03*
X931000Y967000D02*
D03*
X879000D02*
D03*
X827000D02*
D03*
X775000D02*
D03*
X723000D02*
D03*
X671000D02*
D03*
X619000D02*
D03*
X567000D02*
D03*
X515000D02*
D03*
X1175250Y743250D02*
D03*
Y783250D02*
D03*
X1175250Y835250D02*
D03*
X969500Y229000D02*
D03*
X961500D02*
D03*
X977500D02*
D03*
Y237000D02*
D03*
X961500D02*
D03*
X969500D02*
D03*
Y245000D02*
D03*
X961500D02*
D03*
X977500D02*
D03*
X969500Y253000D02*
D03*
X961500D02*
D03*
X977500D02*
D03*
X969500Y261000D02*
D03*
X961500D02*
D03*
X977500D02*
D03*
X854000Y371000D02*
D03*
Y379000D02*
D03*
Y363000D02*
D03*
X862000D02*
D03*
Y379000D02*
D03*
Y371000D02*
D03*
X870000D02*
D03*
Y379000D02*
D03*
Y363000D02*
D03*
X878000Y371000D02*
D03*
Y379000D02*
D03*
Y363000D02*
D03*
X886000Y371000D02*
D03*
Y379000D02*
D03*
Y363000D02*
D03*
X774000Y371000D02*
D03*
Y379000D02*
D03*
Y363000D02*
D03*
X782000D02*
D03*
Y379000D02*
D03*
Y371000D02*
D03*
X790000D02*
D03*
Y379000D02*
D03*
Y363000D02*
D03*
X798000Y371000D02*
D03*
Y379000D02*
D03*
Y363000D02*
D03*
X806000Y371000D02*
D03*
Y379000D02*
D03*
Y363000D02*
D03*
X694000Y371000D02*
D03*
Y379000D02*
D03*
Y363000D02*
D03*
X702000D02*
D03*
Y379000D02*
D03*
Y371000D02*
D03*
X710000D02*
D03*
Y379000D02*
D03*
Y363000D02*
D03*
X718000Y371000D02*
D03*
Y379000D02*
D03*
Y363000D02*
D03*
X726000Y371000D02*
D03*
Y379000D02*
D03*
Y363000D02*
D03*
X559000Y371000D02*
D03*
Y379000D02*
D03*
Y363000D02*
D03*
X567000D02*
D03*
Y379000D02*
D03*
Y371000D02*
D03*
X575000D02*
D03*
Y379000D02*
D03*
Y363000D02*
D03*
X583000Y371000D02*
D03*
Y379000D02*
D03*
Y363000D02*
D03*
X591000Y371000D02*
D03*
Y379000D02*
D03*
Y363000D02*
D03*
X479000Y371000D02*
D03*
Y379000D02*
D03*
Y363000D02*
D03*
X487000D02*
D03*
Y379000D02*
D03*
Y371000D02*
D03*
X495000D02*
D03*
Y379000D02*
D03*
Y363000D02*
D03*
X503000Y371000D02*
D03*
Y379000D02*
D03*
Y363000D02*
D03*
X511000Y371000D02*
D03*
Y379000D02*
D03*
Y363000D02*
D03*
X431000D02*
D03*
Y379000D02*
D03*
Y371000D02*
D03*
X423000Y363000D02*
D03*
Y379000D02*
D03*
Y371000D02*
D03*
X415000Y363000D02*
D03*
Y379000D02*
D03*
Y371000D02*
D03*
X407000D02*
D03*
Y379000D02*
D03*
Y363000D02*
D03*
X399000D02*
D03*
Y379000D02*
D03*
Y371000D02*
D03*
X423000Y848000D02*
D03*
Y840000D02*
D03*
X415000Y856000D02*
D03*
Y848000D02*
D03*
Y840000D02*
D03*
X343000Y818000D02*
D03*
X335000D02*
D03*
X327000D02*
D03*
X343000Y826000D02*
D03*
X335000D02*
D03*
X327000D02*
D03*
X353000Y702000D02*
D03*
X345000D02*
D03*
X337000D02*
D03*
X353000Y710000D02*
D03*
X345000D02*
D03*
X337000D02*
D03*
X338000Y685000D02*
D03*
X330000D02*
D03*
X322000D02*
D03*
X338000Y693000D02*
D03*
X330000D02*
D03*
X322000D02*
D03*
X152000Y663000D02*
D03*
X144000D02*
D03*
X136000D02*
D03*
X152000Y671000D02*
D03*
X144000D02*
D03*
X136000D02*
D03*
X127000Y663000D02*
D03*
X119000D02*
D03*
X111000D02*
D03*
X127000Y671000D02*
D03*
X119000D02*
D03*
X111000D02*
D03*
X86000D02*
D03*
X94000D02*
D03*
X102000D02*
D03*
X86000Y663000D02*
D03*
X94000D02*
D03*
X102000D02*
D03*
X86000Y652000D02*
D03*
X94000D02*
D03*
X102000D02*
D03*
X86000Y644000D02*
D03*
X94000D02*
D03*
X102000D02*
D03*
X233000Y523000D02*
D03*
Y515000D02*
D03*
Y507000D02*
D03*
X225000Y523000D02*
D03*
Y515000D02*
D03*
Y507000D02*
D03*
X216000Y523000D02*
D03*
Y515000D02*
D03*
Y507000D02*
D03*
X208000Y523000D02*
D03*
Y515000D02*
D03*
Y507000D02*
D03*
X199000Y523000D02*
D03*
Y515000D02*
D03*
Y507000D02*
D03*
X191000Y523000D02*
D03*
Y515000D02*
D03*
Y507000D02*
D03*
X182000Y523000D02*
D03*
Y515000D02*
D03*
Y507000D02*
D03*
X174000Y523000D02*
D03*
Y515000D02*
D03*
Y507000D02*
D03*
X286000Y567000D02*
D03*
X294000D02*
D03*
Y575000D02*
D03*
Y583000D02*
D03*
X286000Y597000D02*
D03*
Y605000D02*
D03*
Y613000D02*
D03*
X294000Y597000D02*
D03*
Y605000D02*
D03*
Y613000D02*
D03*
X276000Y633000D02*
D03*
X284000D02*
D03*
X292000D02*
D03*
X276000Y625000D02*
D03*
X284000D02*
D03*
X292000D02*
D03*
X238000Y619000D02*
D03*
X230000Y620000D02*
D03*
X232000Y628000D02*
D03*
X223000D02*
D03*
X239000Y637000D02*
D03*
X231000D02*
D03*
X223000D02*
D03*
X239000Y645000D02*
D03*
X231000D02*
D03*
X223000D02*
D03*
X84000Y563000D02*
D03*
X87250Y617055D02*
D03*
D103*
X148800Y928850D02*
D03*
X235200D02*
D03*
D104*
X148800Y970650D02*
D03*
X235200D02*
D03*
D105*
X176000Y698000D02*
D03*
X49000Y663000D02*
D03*
X324000Y543000D02*
D03*
X1722750Y-221000D02*
D03*
X1651190Y-221000D02*
D03*
X1681992Y1485675D02*
D03*
D106*
X955000Y161000D02*
X961500Y154500D01*
X969000D01*
Y162000D02*
X972000Y165000D01*
X1027621D01*
X969000Y154500D02*
Y162000D01*
X1027665Y164957D02*
X1030043D01*
X1031000Y164000D01*
X1027621Y165000D02*
X1027665Y164957D01*
X954000Y135500D02*
X969000D01*
X365750Y402750D02*
X369500Y406500D01*
X370250D01*
X372750Y409000D01*
X365750Y402000D02*
Y402750D01*
X372750Y409000D02*
X411121D01*
X365750Y402000D02*
Y418750D01*
X367000Y420000D01*
X845000Y415000D02*
X850000Y410000D01*
X856121D01*
X845000Y415000D02*
Y447750D01*
X850250Y453000D01*
X853750Y421000D02*
X857500Y417250D01*
Y416500D02*
Y417250D01*
X863500Y398500D02*
Y410371D01*
X853000Y421000D02*
X853750D01*
X862871Y411000D02*
Y411129D01*
Y411000D02*
X863500Y410371D01*
X857500Y416500D02*
X862871Y411129D01*
X856121Y410000D02*
X857000Y409121D01*
Y398500D02*
Y409121D01*
X1092500Y270500D02*
Y283000D01*
Y270500D02*
X1100750Y262250D01*
X1101500D01*
X1078500Y266250D02*
Y283000D01*
Y265750D02*
Y266250D01*
Y283000D02*
X1078500Y283000D01*
X1052500Y268000D02*
X1076750D01*
X1078500Y266250D01*
X1011000Y284121D02*
X1011879Y285000D01*
X1011000Y259000D02*
Y284121D01*
X1011879Y285000D02*
X1020500D01*
X1010000Y258000D02*
X1011000Y259000D01*
X999000Y258000D02*
X1010000D01*
X1020000Y268500D02*
X1020500Y269000D01*
X1020000Y256879D02*
Y268500D01*
X1019121Y256000D02*
X1020000Y256879D01*
X1014464Y256000D02*
X1019121D01*
X999000Y251500D02*
X1009965D01*
X1014464Y256000D01*
X1052500Y238000D02*
Y254000D01*
X1015000Y253000D02*
X1051500D01*
X1052500Y254000D01*
X1007000Y245000D02*
X1015000Y253000D01*
X999000Y245000D02*
X1007000D01*
X1014750Y238500D02*
X1020500Y244250D01*
X999000Y238500D02*
X1014750D01*
X1020500Y244250D02*
Y245000D01*
X1018500Y232000D02*
X1020500Y230000D01*
X999000Y232000D02*
X1018500D01*
X884500Y417500D02*
X888000Y421000D01*
X883000Y398500D02*
X884500Y400000D01*
Y417500D01*
X873000Y421000D02*
X876500Y417500D01*
Y398500D02*
Y417500D01*
X863000Y416000D02*
Y446000D01*
Y416000D02*
X870000Y409000D01*
X863000Y446000D02*
X865500Y448500D01*
X869250Y453000D02*
X870000D01*
X865500Y449250D02*
X869250Y453000D01*
X865500Y448500D02*
Y449250D01*
X870000Y398500D02*
Y409000D01*
X850250Y453000D02*
X851000D01*
X857000Y398500D02*
X857000Y398500D01*
X798750Y420000D02*
X803000Y415750D01*
X798000Y420000D02*
X798750D01*
X803000Y398500D02*
Y415750D01*
X783000Y420000D02*
X783750D01*
X787500Y415036D02*
Y416250D01*
X783750Y420000D02*
X787500Y416250D01*
Y415036D02*
X790536Y412000D01*
X794000D01*
X773879Y410000D02*
X789000D01*
X790000Y409000D01*
Y398500D02*
Y409000D01*
X773000Y410879D02*
X773879Y410000D01*
X794000Y412000D02*
X796500Y409500D01*
Y398500D02*
Y409500D01*
X773000Y410879D02*
Y433121D01*
X764000Y434000D02*
X772121D01*
X773000Y433121D01*
X717000Y420000D02*
X717750D01*
X723000Y398500D02*
Y414750D01*
X717750Y420000D02*
X723000Y414750D01*
X703000Y412879D02*
Y420000D01*
Y412879D02*
X703879Y412000D01*
X707535D01*
X708536Y411000D02*
X712000D01*
X707535Y412000D02*
X708536Y411000D01*
X707000Y409000D02*
X708500Y407500D01*
X693000Y409000D02*
X707000D01*
X712000Y411000D02*
X716500Y406500D01*
Y398500D02*
Y406500D01*
X687000Y415000D02*
Y450000D01*
Y415000D02*
X693000Y409000D01*
X708500Y400000D02*
X710000Y398500D01*
X708500Y400000D02*
Y407500D01*
X585000Y420000D02*
X585250D01*
X589000Y398000D02*
Y416250D01*
X585250Y420000D02*
X589000Y416250D01*
X574500Y414000D02*
Y416500D01*
X571000Y420000D02*
X574500Y416500D01*
Y414000D02*
X578500Y410000D01*
X581000D01*
X574000D02*
X576000Y408000D01*
X562879Y410000D02*
X574000D01*
X576000Y398000D02*
Y408000D01*
X582500Y398000D02*
Y408500D01*
X581000Y410000D02*
X582500Y408500D01*
X553000Y434000D02*
X554000Y433000D01*
X561121D01*
X562000Y410879D02*
Y432121D01*
X561121Y433000D02*
X562000Y432121D01*
Y410879D02*
X562879Y410000D01*
X504000Y422000D02*
X504250D01*
X508000Y398500D02*
Y418250D01*
X504250Y422000D02*
X508000Y418250D01*
X493466Y416534D02*
Y418284D01*
X489750Y422000D02*
X493466Y418284D01*
Y416534D02*
X501500Y408500D01*
Y398500D02*
Y408500D01*
X473879Y411000D02*
X493000D01*
X495000Y409000D01*
Y398500D02*
Y409000D01*
X489000Y422000D02*
X489750D01*
X459000Y422000D02*
X474000D01*
X473000Y421000D02*
X474000Y422000D01*
X473000Y411879D02*
Y421000D01*
Y411879D02*
X473879Y411000D01*
X404000Y422000D02*
X412000D01*
X426000Y408000D01*
Y398000D02*
Y408000D01*
X385879Y413000D02*
X413000D01*
X419500Y406500D01*
X385000Y413879D02*
Y422000D01*
Y413879D02*
X385879Y413000D01*
X411121Y409000D02*
X412000Y408121D01*
Y399000D02*
Y408121D01*
Y399000D02*
X413000Y398000D01*
X419500D02*
Y406500D01*
X353000Y420000D02*
Y430500D01*
X358000Y435500D01*
Y437250D01*
X335000Y419000D02*
X352000D01*
X353000Y420000D01*
X410500Y692500D02*
Y705000D01*
X389000Y671000D02*
X410500Y692500D01*
X389000Y625750D02*
Y671000D01*
X397000Y617000D02*
Y617750D01*
X389000Y625750D02*
X397000Y617750D01*
X416000Y688000D02*
Y704500D01*
X415500Y705000D02*
X416000Y704500D01*
X397000Y635000D02*
Y669000D01*
X416000Y688000D01*
X414750Y656000D02*
X418500Y652250D01*
Y651500D02*
X427879Y642121D01*
Y601879D02*
Y642121D01*
X414000Y656000D02*
X414750D01*
X418500Y651500D02*
Y652250D01*
X427000Y601000D02*
X427879Y601879D01*
X316500Y601000D02*
X427000D01*
X819390Y711250D02*
Y741250D01*
X819000Y782000D02*
Y797000D01*
Y767000D02*
Y782000D01*
X819000Y767000D02*
X819000Y767000D01*
X501000Y746000D02*
X511750D01*
X492997Y754003D02*
X501000Y746000D01*
X492500Y754500D02*
X492997Y754003D01*
X460000Y754500D02*
X492500D01*
X686255Y743745D02*
X687000Y743000D01*
X686255Y743745D02*
Y769745D01*
X691255Y754098D02*
X693000Y752353D01*
Y751000D02*
Y752353D01*
X691255Y754098D02*
Y769745D01*
X679000Y733000D02*
X681255Y735255D01*
Y769745D01*
X665000Y733000D02*
X679000D01*
X632000Y766000D02*
X635750Y762250D01*
X637129D01*
X637379Y762000D01*
X670377D01*
X671255Y762879D01*
Y769745D01*
X701426Y765154D02*
Y769574D01*
Y765154D02*
X702580Y764000D01*
X729000D01*
X701255Y769745D02*
X701426Y769574D01*
X1012000Y796000D02*
X1033000D01*
X1012000Y796000D02*
X1012000Y796000D01*
X1012390Y730000D02*
X1033390D01*
X1012390Y730000D02*
X1012390Y730000D01*
X869390Y732250D02*
X890390D01*
X869390Y732250D02*
X869390Y732250D01*
X869000Y789000D02*
X869000Y789000D01*
X890000D01*
X1009500Y590616D02*
Y608566D01*
Y590616D02*
X1009577Y590540D01*
X848001Y609211D02*
X875000D01*
Y591768D02*
Y609211D01*
X847122Y610090D02*
X848001Y609211D01*
X847122Y610090D02*
Y627606D01*
X603000Y586605D02*
Y604605D01*
X580879D02*
X603000D01*
X580000Y605484D02*
Y623000D01*
Y605484D02*
X580879Y604605D01*
X604000Y652000D02*
X614000D01*
X581879D02*
X604000D01*
X603000Y680605D02*
Y758621D01*
Y661606D02*
Y680605D01*
X603000Y653000D02*
X604000Y652000D01*
X603000Y653000D02*
Y661606D01*
X617000Y660855D02*
Y661606D01*
Y660855D02*
X631460Y646395D01*
X635531D01*
X637781Y644145D01*
X738000Y652000D02*
X751000D01*
X715879D02*
X738000D01*
X737000Y653000D02*
X738000Y652000D01*
X737000Y653000D02*
Y661750D01*
X751000Y661000D02*
X765460Y646540D01*
X770110D02*
X772360Y644290D01*
X751000Y661000D02*
Y661750D01*
X765460Y646540D02*
X770110D01*
X1035894Y648105D02*
X1045122D01*
X1034000Y650000D02*
X1035894Y648105D01*
X1033121Y666000D02*
X1034000Y665121D01*
Y650000D02*
Y665121D01*
X1023500Y666000D02*
X1033121D01*
X1071122Y629105D02*
X1086106D01*
X1089000Y632000D01*
X1071122Y629105D02*
X1071346Y628882D01*
Y609030D02*
Y628882D01*
X1010000Y656000D02*
X1024121D01*
X984001D02*
X1010000D01*
Y665500D01*
X1009500Y666000D02*
X1010000Y665500D01*
X1023750Y643606D02*
X1025000Y644856D01*
Y655121D01*
X1024121Y656000D02*
X1025000Y655121D01*
X983122Y645605D02*
Y655121D01*
X984001Y656000D01*
X1039909Y626392D02*
X1042622Y629105D01*
X1023500Y626392D02*
X1039909D01*
X1042622Y629105D02*
X1045122D01*
X1023500Y608566D02*
Y626392D01*
X983000Y631483D02*
X983122Y631605D01*
X983879Y608566D02*
X1009500D01*
X983000Y609445D02*
Y631483D01*
Y609445D02*
X983879Y608566D01*
X936303Y629146D02*
X952145D01*
X955000Y632000D01*
X936303Y629146D02*
X936748Y628701D01*
Y609267D02*
Y628701D01*
X877000Y655000D02*
X889000D01*
X848001D02*
X877000D01*
X875502Y665606D02*
X877000Y664108D01*
Y655000D02*
Y664108D01*
X889752Y643605D02*
X890000Y643853D01*
Y654000D01*
X847122Y641606D02*
Y654121D01*
X848001Y655000D01*
X889000D02*
X890000Y654000D01*
X818468Y625290D02*
X820928Y627750D01*
X798360Y625290D02*
X818468D01*
X798360D02*
X798482Y625168D01*
Y605355D02*
Y625168D01*
X753453Y625290D02*
X772360D01*
X751000Y622837D02*
X753453Y625290D01*
X751000Y604973D02*
Y622837D01*
X737000Y586866D02*
Y604973D01*
X752000Y640500D02*
Y651000D01*
X751250Y639750D02*
X752000Y640500D01*
X751000Y652000D02*
X752000Y651000D01*
X715000Y641750D02*
Y651121D01*
X715879Y652000D01*
X715000Y627750D02*
X715000Y627750D01*
X716172Y606000D02*
X735974D01*
X715000Y607172D02*
Y627750D01*
Y607172D02*
X716172Y606000D01*
X735974D02*
X737000Y604973D01*
X684662Y625145D02*
X687122Y627606D01*
X663781Y625145D02*
X684662D01*
X663781D02*
X664122Y624804D01*
Y605606D02*
Y624804D01*
X1057341Y609688D02*
X1057464Y609566D01*
X1045122Y648105D02*
X1056462D01*
X1057341Y609688D02*
Y647227D01*
X1056462Y648105D02*
X1057341Y647227D01*
X922522Y609728D02*
X922645Y609606D01*
X910303Y648145D02*
X921644D01*
X922522Y609728D02*
Y647267D01*
X921644Y648145D02*
X922522Y647267D01*
X784579Y605873D02*
X784701Y605750D01*
X772360Y644290D02*
X783700D01*
X784579Y605873D02*
Y643411D01*
X783700Y644290D02*
X784579Y643411D01*
X649121Y644145D02*
X650000Y643266D01*
Y605728D02*
Y643266D01*
X637781Y644145D02*
X649121D01*
X650000Y605728D02*
X650122Y605606D01*
X581000Y638000D02*
Y651121D01*
X581879Y652000D01*
X580000Y637000D02*
X581000Y638000D01*
X614000Y652000D02*
X617250Y648750D01*
Y639605D02*
Y648750D01*
X603000Y661606D02*
X603000Y661606D01*
X624000Y701000D02*
X775000D01*
X615000Y710000D02*
Y762000D01*
Y710000D02*
X624000Y701000D01*
X611000Y708000D02*
X622000Y697000D01*
X611000Y708000D02*
Y761000D01*
X622000Y697000D02*
X773000D01*
X460000Y759500D02*
X602121D01*
X603000Y758621D01*
X607000Y706000D02*
Y760000D01*
X460000Y764500D02*
X602500D01*
X607000Y760000D01*
X460000Y769500D02*
X602500D01*
X611000Y761000D01*
X460750Y773750D02*
X603250D01*
X615000Y762000D01*
X737000Y661750D02*
Y681014D01*
Y661750D02*
X737000Y661750D01*
X875502Y665606D02*
Y684968D01*
Y665606D02*
X875502Y665606D01*
X1009500Y666000D02*
Y685000D01*
Y666000D02*
X1009500Y666000D01*
X1009500Y685000D02*
Y685750D01*
X1000250Y695000D02*
X1009500Y685750D01*
X773000Y697000D02*
X784282Y685718D01*
X874752D01*
X607000Y706000D02*
X620000Y693000D01*
X460000Y774500D02*
X460750Y773750D01*
X775000Y701000D02*
X781000Y695000D01*
X1000250D01*
X874752Y685718D02*
X875502Y684968D01*
X725014Y693000D02*
X732500Y685514D01*
X733250D01*
X620000Y693000D02*
X725014D01*
X733250Y685514D02*
X737000Y681764D01*
Y681014D02*
Y681764D01*
X527500Y663250D02*
Y680000D01*
X525250Y661000D02*
X527500Y663250D01*
X510500Y719750D02*
X511750Y721000D01*
X510500Y702000D02*
Y719750D01*
X493000Y702879D02*
X493879Y702000D01*
X510500D01*
X484500Y749500D02*
X493000Y741000D01*
Y702879D02*
Y741000D01*
X460000Y749500D02*
X484500D01*
X488814Y690064D02*
X518436D01*
X485000Y693879D02*
X488814Y690064D01*
X485000Y693879D02*
Y741000D01*
X527500Y680000D02*
Y681000D01*
X518436Y690064D02*
X527500Y681000D01*
X481500Y744500D02*
X485000Y741000D01*
X460000Y744500D02*
X481500D01*
X152500Y904500D02*
X159000Y911000D01*
X173000D01*
X837500Y777500D02*
X840000Y775000D01*
X836750Y777500D02*
X837500D01*
X833000Y781250D02*
Y782000D01*
Y781250D02*
X836750Y777500D01*
X840000Y775000D02*
X869000D01*
X962000Y773750D02*
Y803750D01*
X1012140Y715750D02*
X1012390Y716000D01*
X994390Y715750D02*
X1012140D01*
X983250D02*
X994390D01*
X869140Y718000D02*
X869390Y718250D01*
X846640Y722000D02*
Y722750D01*
X843140Y726250D02*
X846640Y722750D01*
Y722000D02*
X850640Y718000D01*
X851390D02*
X869140D01*
X850640D02*
X851390D01*
X976000Y722250D02*
X979750Y718500D01*
X980500D01*
X976000Y722250D02*
Y723000D01*
X980500Y718500D02*
X983250Y715750D01*
X962000Y707000D02*
Y723000D01*
Y738000D01*
X833390Y726250D02*
X843140D01*
X420000Y704500D02*
X420500Y705000D01*
X420000Y685000D02*
Y704500D01*
X414000Y679000D02*
X420000Y685000D01*
X414000Y670000D02*
Y679000D01*
X394000Y831879D02*
Y841000D01*
X393121Y831000D02*
X394000Y831879D01*
X380818Y831000D02*
X393121D01*
X376750Y826932D02*
X380818Y831000D01*
X376750Y825750D02*
Y826932D01*
X375500Y824500D02*
X376750Y825750D01*
X375500Y819000D02*
Y824500D01*
X205000Y900000D02*
Y922600D01*
X204500Y923100D02*
X205000Y922600D01*
X173000Y911000D02*
X174500Y912500D01*
Y923100D01*
X148000Y900000D02*
X148750D01*
X152500Y903750D01*
Y904500D01*
D107*
X911000Y421750D02*
X912000Y422750D01*
X911000Y403250D02*
Y421750D01*
X908750Y401000D02*
X911000Y403250D01*
X889500Y398500D02*
X906500D01*
X1010875Y206875D02*
X1015197Y211197D01*
X1023447D02*
X1025500Y213250D01*
X1015197Y211197D02*
X1023447D01*
X997875Y206875D02*
X1010875D01*
X997875D02*
Y225250D01*
X996750Y205750D02*
X997875Y206875D01*
X996750Y205000D02*
Y205750D01*
X997875Y225250D02*
X998125Y225500D01*
X999000D01*
X663781Y644145D02*
Y662447D01*
X658372Y667856D02*
X663781Y662447D01*
X658372Y667856D02*
Y668605D01*
X792610Y668000D02*
Y668750D01*
X798360Y644290D02*
Y662250D01*
X792610Y668000D02*
X798360Y662250D01*
X930553Y671855D02*
X936303Y666105D01*
X930553Y671855D02*
Y672605D01*
X936303Y648145D02*
Y666105D01*
X1065372Y671855D02*
Y672606D01*
X1071122Y648105D02*
Y666105D01*
X1065372Y671855D02*
X1071122Y666105D01*
X216500Y917921D02*
Y922600D01*
Y917921D02*
X217500Y916921D01*
X216000Y923100D02*
X216500Y922600D01*
X217500Y915900D02*
Y916921D01*
Y915900D02*
X224000Y909400D01*
Y900000D02*
Y909400D01*
X168500Y929704D02*
X173796Y935000D01*
X210204D01*
X168500Y923600D02*
Y929704D01*
X210204Y935000D02*
X215500Y929704D01*
Y923600D02*
Y929704D01*
Y923600D02*
X216000Y923100D01*
X168000D02*
X168500Y923600D01*
D108*
X199500Y918850D02*
Y923100D01*
X198743Y918093D02*
X199500Y918850D01*
X197743Y917223D02*
X198613Y918093D01*
X198743D01*
X196722Y915607D02*
X197743Y916628D01*
X192278Y915607D02*
X196722D01*
X191257Y916628D02*
X192278Y915607D01*
X197743Y916628D02*
Y917223D01*
X190257Y917743D02*
X191257Y916743D01*
X190257Y917743D02*
Y922343D01*
X189500Y923100D02*
X190257Y922343D01*
X191257Y916628D02*
Y916743D01*
X186122Y919519D02*
Y929436D01*
X186107Y915607D02*
X186722D01*
X187743Y916628D01*
X177878Y904628D02*
Y905858D01*
X178748Y906728D01*
X180318D01*
X192743Y929107D02*
X194500Y927350D01*
X181532Y914929D02*
X186122Y919519D01*
X179176Y909483D02*
X181532Y911838D01*
X182243Y903757D02*
X186000Y900000D01*
X187743Y916628D02*
Y917093D01*
X177607Y909483D02*
X179176D01*
X187278Y930593D02*
X191722D01*
X178748Y903757D02*
X182243D01*
X175122Y904628D02*
Y906999D01*
X192743Y929107D02*
Y929572D01*
X174252Y903757D02*
X175122Y904628D01*
X187743Y917093D02*
X189500Y918850D01*
Y923100D01*
X170757Y903757D02*
X174252D01*
X194500Y923100D02*
Y927350D01*
X181532Y911838D02*
Y914929D01*
X184287Y910697D02*
Y913788D01*
X186107Y915607D01*
X167000Y900000D02*
X170757Y903757D01*
X186122Y929436D02*
X187278Y930593D01*
X177878Y904628D02*
X178748Y903757D01*
X175122Y906999D02*
X177607Y909483D01*
X191722Y930593D02*
X192743Y929572D01*
X180318Y906728D02*
X184287Y910697D01*
X177878Y885130D02*
X178748Y886000D01*
X186000D01*
X177878Y880983D02*
Y885130D01*
Y880983D02*
X183998Y874863D01*
X177378Y844620D02*
Y855017D01*
X173752Y843750D02*
X174622Y844620D01*
Y856158D02*
X181243Y862778D01*
X177378Y844620D02*
X178248Y843750D01*
X181243Y862778D02*
Y873722D01*
X167000Y886000D02*
X174252D01*
X175122Y885130D01*
Y879842D02*
Y885130D01*
Y879842D02*
X181243Y873722D01*
X178248Y843750D02*
X185500D01*
X166500D02*
X173752D01*
X174622Y844620D02*
Y856158D01*
X177378Y855017D02*
X183998Y861637D01*
Y874863D01*
X166500Y843007D02*
Y843750D01*
X177378Y839380D02*
X178248Y840250D01*
X175628Y831662D02*
X177378Y833412D01*
Y839380D01*
X182743Y840250D02*
X185500Y843007D01*
X175628Y794372D02*
Y831662D01*
Y794372D02*
X226622Y743378D01*
X185500Y843007D02*
Y843750D01*
X180052Y786052D02*
Y786052D01*
X172872Y793231D02*
Y832803D01*
Y793231D02*
X180052Y786052D01*
Y786052D02*
X225481Y740622D01*
X178248Y840250D02*
X182743D01*
X173752D02*
X174622Y839380D01*
Y834553D02*
Y839380D01*
X172872Y832803D02*
X174622Y834553D01*
X166500Y843007D02*
X169257Y840250D01*
X173752D01*
X225481Y740622D02*
X339378D01*
X340500Y744500D02*
X346000D01*
X339378Y740622D02*
X340500Y739500D01*
X339378Y743378D02*
X340500Y744500D01*
Y739500D02*
X346000D01*
X226622Y743378D02*
X339378D01*
D109*
X120750Y622250D02*
Y623000D01*
X118500Y620000D02*
X120750Y622250D01*
X113500Y615750D02*
X117750Y620000D01*
X113500Y600000D02*
Y615750D01*
X117750Y620000D02*
X118500D01*
D110*
X346000Y223500D02*
D03*
X854000D02*
D03*
D111*
X465000Y224000D02*
D03*
X532500D02*
D03*
X600000D02*
D03*
X667500D02*
D03*
X735000D02*
D03*
D112*
X450000Y189000D02*
D03*
X475000D02*
D03*
X500000D02*
D03*
X525000D02*
D03*
X550000D02*
D03*
X575000D02*
D03*
X600000D02*
D03*
X625000D02*
D03*
X650000D02*
D03*
X675000D02*
D03*
X700000D02*
D03*
X725000D02*
D03*
X750000D02*
D03*
X450000Y164000D02*
D03*
X475000D02*
D03*
X500000D02*
D03*
X525000D02*
D03*
X550000D02*
D03*
X584950D02*
D03*
X624950D02*
D03*
X664950D02*
D03*
X704950D02*
D03*
X744950D02*
D03*
D113*
X414250Y233000D02*
D03*
X785750D02*
D03*
D114*
X194350Y355650D02*
D03*
X150000D02*
D03*
X105650D02*
D03*
Y400000D02*
D03*
X150000D02*
D03*
X194350D02*
D03*
Y444350D02*
D03*
X150000D02*
D03*
X105650D02*
D03*
X1094350Y355650D02*
D03*
X1050000D02*
D03*
X1005650D02*
D03*
Y400000D02*
D03*
X1050000D02*
D03*
X1094350D02*
D03*
Y444350D02*
D03*
X1050000D02*
D03*
X1005650D02*
D03*
D115*
X50000Y950000D02*
D03*
Y150000D02*
D03*
X1150000D02*
D03*
Y950000D02*
D03*
M02*
