G04*
G04 #@! TF.GenerationSoftware,Altium Limited,Altium Designer,25.0.2 (28)*
G04*
G04 Layer_Physical_Order=3*
G04 Layer_Color=16440176*
%FSLAX44Y44*%
%MOMM*%
G71*
G04*
G04 #@! TF.SameCoordinates,1924397C-AF8B-4530-83B7-FB2F84BC8B12*
G04*
G04*
G04 #@! TF.FilePolarity,Positive*
G04*
G01*
G75*
%ADD10C,0.2000*%
G04:AMPARAMS|DCode=101|XSize=1mm|YSize=1.8mm|CornerRadius=0.5mm|HoleSize=0mm|Usage=FLASHONLY|Rotation=180.000|XOffset=0mm|YOffset=0mm|HoleType=Round|Shape=RoundedRectangle|*
%AMROUNDEDRECTD101*
21,1,1.0000,0.8000,0,0,180.0*
21,1,0.0000,1.8000,0,0,180.0*
1,1,1.0000,0.0000,0.4000*
1,1,1.0000,0.0000,0.4000*
1,1,1.0000,0.0000,-0.4000*
1,1,1.0000,0.0000,-0.4000*
%
%ADD101ROUNDEDRECTD101*%
G04:AMPARAMS|DCode=102|XSize=1mm|YSize=2.1mm|CornerRadius=0.5mm|HoleSize=0mm|Usage=FLASHONLY|Rotation=180.000|XOffset=0mm|YOffset=0mm|HoleType=Round|Shape=RoundedRectangle|*
%AMROUNDEDRECTD102*
21,1,1.0000,1.1000,0,0,180.0*
21,1,0.0000,2.1000,0,0,180.0*
1,1,1.0000,0.0000,0.5500*
1,1,1.0000,0.0000,0.5500*
1,1,1.0000,0.0000,-0.5500*
1,1,1.0000,0.0000,-0.5500*
%
%ADD102ROUNDEDRECTD102*%
%ADD103C,0.6500*%
%ADD109C,3.2000*%
%ADD110C,4.1000*%
%ADD111O,3.9000X1.9500*%
%ADD112C,1.9500*%
%ADD113C,2.3000*%
%ADD114C,10.0000*%
%ADD115C,0.6300*%
G36*
X1121648Y993675D02*
X1121048Y993329D01*
X1115640Y989180D01*
X1110820Y984360D01*
X1106671Y978952D01*
X1103263Y973048D01*
X1100654Y966751D01*
X1098890Y960166D01*
X1098000Y953408D01*
Y946592D01*
X1098890Y939834D01*
X1100654Y933249D01*
X1103263Y926952D01*
X1106671Y921048D01*
X1110820Y915640D01*
X1115640Y910820D01*
X1121048Y906671D01*
X1126952Y903263D01*
X1133249Y900654D01*
X1139834Y898890D01*
X1146592Y898000D01*
X1153408D01*
X1160166Y898890D01*
X1166751Y900654D01*
X1173048Y903263D01*
X1178952Y906671D01*
X1184360Y910820D01*
X1189180Y915640D01*
X1193329Y921048D01*
X1193675Y921648D01*
X1194902Y921319D01*
Y471000D01*
X925250D01*
Y471044D01*
X924451Y472974D01*
X922974Y474451D01*
X921044Y475250D01*
X918956D01*
X917026Y474451D01*
X915549Y472974D01*
X914750Y471044D01*
Y471000D01*
X529250D01*
Y472044D01*
X528451Y473974D01*
X526974Y475451D01*
X525044Y476250D01*
X522956D01*
X521026Y475451D01*
X520500Y474925D01*
X519974Y475451D01*
X518044Y476250D01*
X515956D01*
X514026Y475451D01*
X513500Y474925D01*
X512974Y475451D01*
X511044Y476250D01*
X508956D01*
X507026Y475451D01*
X505549Y473974D01*
X504750Y472044D01*
Y471000D01*
X447250D01*
Y472044D01*
X446451Y473974D01*
X444974Y475451D01*
X443044Y476250D01*
X440956D01*
X439026Y475451D01*
X438500Y474925D01*
X437974Y475451D01*
X436044Y476250D01*
X433956D01*
X432026Y475451D01*
X431500Y474925D01*
X430974Y475451D01*
X429044Y476250D01*
X426956D01*
X425026Y475451D01*
X424500Y474925D01*
X423974Y475451D01*
X422044Y476250D01*
X419956D01*
X418026Y475451D01*
X416549Y473974D01*
X415750Y472044D01*
Y471000D01*
X5098D01*
Y921319D01*
X6325Y921648D01*
X6671Y921048D01*
X10820Y915640D01*
X15640Y910820D01*
X21048Y906671D01*
X26952Y903263D01*
X33249Y900654D01*
X39834Y898890D01*
X46592Y898000D01*
X53408D01*
X60167Y898890D01*
X66751Y900654D01*
X73048Y903263D01*
X78952Y906671D01*
X84360Y910820D01*
X89180Y915640D01*
X93329Y921048D01*
X96737Y926952D01*
X99346Y933249D01*
X101110Y939834D01*
X102000Y946592D01*
Y953408D01*
X101110Y960166D01*
X99346Y966751D01*
X96737Y973048D01*
X93329Y978952D01*
X89180Y984360D01*
X84360Y989180D01*
X78952Y993329D01*
X78352Y993675D01*
X78681Y994902D01*
X142406D01*
X143032Y993632D01*
X142685Y993180D01*
X141980Y991477D01*
X141740Y989650D01*
Y981650D01*
X141980Y979823D01*
X142685Y978120D01*
X143808Y976658D01*
X145270Y975536D01*
X146973Y974830D01*
X148800Y974590D01*
X150627Y974830D01*
X152330Y975536D01*
X153792Y976658D01*
X154915Y978120D01*
X155620Y979823D01*
X155860Y981650D01*
Y989650D01*
X155620Y991477D01*
X154915Y993180D01*
X154568Y993632D01*
X155194Y994902D01*
X228806D01*
X229432Y993632D01*
X229086Y993180D01*
X228380Y991477D01*
X228140Y989650D01*
Y981650D01*
X228380Y979823D01*
X229086Y978120D01*
X230208Y976658D01*
X231670Y975536D01*
X233373Y974830D01*
X235200Y974590D01*
X237027Y974830D01*
X238730Y975536D01*
X240192Y976658D01*
X241315Y978120D01*
X242020Y979823D01*
X242260Y981650D01*
Y989650D01*
X242020Y991477D01*
X241315Y993180D01*
X240968Y993632D01*
X241594Y994902D01*
X1121319D01*
X1121648Y993675D01*
D02*
G37*
G36*
X1194902Y178681D02*
X1193675Y178352D01*
X1193329Y178952D01*
X1189180Y184359D01*
X1184360Y189180D01*
X1178952Y193329D01*
X1173048Y196737D01*
X1166751Y199346D01*
X1160166Y201110D01*
X1153408Y202000D01*
X1146592D01*
X1139834Y201110D01*
X1133249Y199346D01*
X1126952Y196737D01*
X1121048Y193329D01*
X1115640Y189180D01*
X1110820Y184359D01*
X1106671Y178952D01*
X1103263Y173048D01*
X1100654Y166751D01*
X1098890Y160166D01*
X1098000Y153408D01*
Y146592D01*
X1098890Y139833D01*
X1100654Y133249D01*
X1103263Y126952D01*
X1106671Y121048D01*
X1110820Y115640D01*
X1115640Y110821D01*
X1121048Y106671D01*
X1121648Y106325D01*
X1121319Y105098D01*
X1023289D01*
Y192250D01*
X1023134Y193030D01*
X1022692Y193692D01*
X1022692Y193692D01*
X1008692Y207692D01*
X1008030Y208134D01*
X1007250Y208289D01*
X954500D01*
X914500Y208289D01*
X913719Y208134D01*
X913058Y207692D01*
X913058Y207692D01*
X900308Y194942D01*
X899866Y194280D01*
X899711Y193500D01*
Y141845D01*
X887655Y129789D01*
X618845D01*
X607289Y141345D01*
X607289Y175040D01*
X607289Y175041D01*
X607134Y175821D01*
X606692Y176483D01*
X605838Y177336D01*
X605763Y177674D01*
X605915Y178847D01*
X607215Y179598D01*
X609402Y181785D01*
X610949Y184465D01*
X611750Y187453D01*
Y190547D01*
X610949Y193535D01*
X609402Y196215D01*
X607215Y198402D01*
X604535Y199949D01*
X601547Y200750D01*
X598453D01*
X595465Y199949D01*
X592785Y198402D01*
X590598Y196215D01*
X589051Y193535D01*
X588250Y190547D01*
Y187453D01*
X589051Y184465D01*
X590598Y181785D01*
X592785Y179598D01*
X593285Y179309D01*
X592945Y178039D01*
X590205D01*
X590074Y178013D01*
X589939Y178022D01*
X589687Y177936D01*
X589425Y177884D01*
X589313Y177809D01*
X589186Y177766D01*
X588985Y177590D01*
X588763Y177442D01*
X588689Y177330D01*
X588588Y177241D01*
X588470Y177002D01*
X588321Y176780D01*
X588295Y176648D01*
X588236Y176528D01*
X588157Y176235D01*
X587057Y175600D01*
X586497Y175750D01*
X583403D01*
X582843Y175600D01*
X581743Y176235D01*
X581664Y176528D01*
X581605Y176648D01*
X581579Y176780D01*
X581430Y177002D01*
X581312Y177241D01*
X581211Y177330D01*
X581137Y177442D01*
X581083Y177478D01*
X580957Y178155D01*
X580988Y178569D01*
X581124Y178968D01*
X582215Y179598D01*
X584402Y181785D01*
X585949Y184465D01*
X586750Y187453D01*
Y190547D01*
X585949Y193535D01*
X584402Y196215D01*
X582215Y198402D01*
X579535Y199949D01*
X576547Y200750D01*
X573453D01*
X570465Y199949D01*
X567785Y198402D01*
X565598Y196215D01*
X564051Y193535D01*
X563250Y190547D01*
Y187453D01*
X564051Y184465D01*
X565598Y181785D01*
X567785Y179598D01*
X568285Y179309D01*
X567945Y178039D01*
X565500D01*
X564720Y177884D01*
X564058Y177442D01*
X563616Y176780D01*
X563461Y176000D01*
Y105098D01*
X78681D01*
X78352Y106325D01*
X78952Y106671D01*
X84360Y110821D01*
X89180Y115640D01*
X93329Y121048D01*
X96737Y126952D01*
X99346Y133249D01*
X101110Y139833D01*
X102000Y146592D01*
Y153408D01*
X101110Y160166D01*
X99346Y166751D01*
X96737Y173048D01*
X93329Y178952D01*
X89180Y184359D01*
X84360Y189180D01*
X78952Y193329D01*
X73048Y196737D01*
X66751Y199346D01*
X60167Y201110D01*
X53408Y202000D01*
X46592D01*
X39834Y201110D01*
X33249Y199346D01*
X26952Y196737D01*
X21048Y193329D01*
X15640Y189180D01*
X10820Y184359D01*
X6671Y178952D01*
X6325Y178352D01*
X5098Y178681D01*
Y468000D01*
X416575D01*
X418026Y466549D01*
X419956Y465750D01*
X422044D01*
X423974Y466549D01*
X424500Y467075D01*
X425026Y466549D01*
X426956Y465750D01*
X429044D01*
X430974Y466549D01*
X431500Y467075D01*
X432026Y466549D01*
X433956Y465750D01*
X436044D01*
X437974Y466549D01*
X438500Y467075D01*
X439026Y466549D01*
X440956Y465750D01*
X443044D01*
X444974Y466549D01*
X446425Y468000D01*
X505575D01*
X507026Y466549D01*
X508956Y465750D01*
X511044D01*
X512974Y466549D01*
X513500Y467075D01*
X514026Y466549D01*
X515956Y465750D01*
X518044D01*
X519974Y466549D01*
X520500Y467075D01*
X521026Y466549D01*
X522956Y465750D01*
X525044D01*
X526974Y466549D01*
X528425Y468000D01*
X832779D01*
X833305Y466730D01*
X832549Y465974D01*
X831750Y464044D01*
Y461956D01*
X832549Y460026D01*
X833063Y459512D01*
X832529Y458250D01*
X830956D01*
X829026Y457451D01*
X828500Y456925D01*
X827974Y457451D01*
X826044Y458250D01*
X823956D01*
X822026Y457451D01*
X821500Y456925D01*
X820974Y457451D01*
X819044Y458250D01*
X816956D01*
X815026Y457451D01*
X814500Y456925D01*
X813974Y457451D01*
X812044Y458250D01*
X809956D01*
X808026Y457451D01*
X806549Y455974D01*
X805750Y454044D01*
Y451956D01*
X806549Y450026D01*
X808026Y448549D01*
X809956Y447750D01*
X812044D01*
X813974Y448549D01*
X814500Y449075D01*
X815026Y448549D01*
X816956Y447750D01*
X819044D01*
X820974Y448549D01*
X821500Y449075D01*
X822026Y448549D01*
X823956Y447750D01*
X826044D01*
X827974Y448549D01*
X828500Y449075D01*
X829026Y448549D01*
X830956Y447750D01*
X833044D01*
X834974Y448549D01*
X836451Y450026D01*
X837250Y451956D01*
Y454044D01*
X836451Y455974D01*
X835937Y456488D01*
X836471Y457750D01*
X838044D01*
X839974Y458549D01*
X841451Y460026D01*
X842250Y461956D01*
Y464044D01*
X841451Y465974D01*
X840695Y466730D01*
X841221Y468000D01*
X915146D01*
X915549Y467026D01*
X917026Y465549D01*
X918956Y464750D01*
X921044D01*
X922974Y465549D01*
X924451Y467026D01*
X924854Y468000D01*
X1194902D01*
Y178681D01*
D02*
G37*
G36*
X1021250Y192250D02*
Y105098D01*
X565500D01*
Y176000D01*
X579695D01*
X580035Y174730D01*
X577735Y173402D01*
X575548Y171215D01*
X574001Y168535D01*
X573857Y168000D01*
X584950D01*
X596043D01*
X595899Y168535D01*
X594352Y171215D01*
X592165Y173402D01*
X589865Y174730D01*
X590205Y176000D01*
X604291D01*
X605250Y175041D01*
X605250Y140500D01*
X618000Y127750D01*
X888500D01*
X901750Y141000D01*
Y193500D01*
X914500Y206250D01*
X954500Y206250D01*
X1007250D01*
X1021250Y192250D01*
D02*
G37*
%LPC*%
G36*
X201294Y969000D02*
X199206D01*
X197276Y968201D01*
X196250Y967175D01*
X195224Y968201D01*
X193294Y969000D01*
X191206D01*
X189276Y968201D01*
X187799Y966724D01*
X187000Y964794D01*
Y962706D01*
X187799Y960776D01*
X188825Y959750D01*
X187799Y958724D01*
X187000Y956794D01*
Y954706D01*
X187799Y952776D01*
X189276Y951299D01*
X191206Y950500D01*
X193294D01*
X195224Y951299D01*
X196250Y952325D01*
X197276Y951299D01*
X199206Y950500D01*
X201294D01*
X203224Y951299D01*
X204701Y952776D01*
X205500Y954706D01*
Y956794D01*
X204701Y958724D01*
X203675Y959750D01*
X204701Y960776D01*
X205500Y962706D01*
Y964794D01*
X204701Y966724D01*
X203224Y968201D01*
X201294Y969000D01*
D02*
G37*
G36*
X932044Y972250D02*
X929956D01*
X928026Y971451D01*
X926549Y969974D01*
X925750Y968044D01*
Y965956D01*
X926549Y964026D01*
X928026Y962549D01*
X929956Y961750D01*
X932044D01*
X933974Y962549D01*
X935451Y964026D01*
X936250Y965956D01*
Y968044D01*
X935451Y969974D01*
X933974Y971451D01*
X932044Y972250D01*
D02*
G37*
G36*
X880044D02*
X877956D01*
X876026Y971451D01*
X874549Y969974D01*
X873750Y968044D01*
Y965956D01*
X874549Y964026D01*
X876026Y962549D01*
X877956Y961750D01*
X880044D01*
X881974Y962549D01*
X883451Y964026D01*
X884250Y965956D01*
Y968044D01*
X883451Y969974D01*
X881974Y971451D01*
X880044Y972250D01*
D02*
G37*
G36*
X828044D02*
X825956D01*
X824026Y971451D01*
X822549Y969974D01*
X821750Y968044D01*
Y965956D01*
X822549Y964026D01*
X824026Y962549D01*
X825956Y961750D01*
X828044D01*
X829974Y962549D01*
X831451Y964026D01*
X832250Y965956D01*
Y968044D01*
X831451Y969974D01*
X829974Y971451D01*
X828044Y972250D01*
D02*
G37*
G36*
X776044D02*
X773956D01*
X772026Y971451D01*
X770549Y969974D01*
X769750Y968044D01*
Y965956D01*
X770549Y964026D01*
X772026Y962549D01*
X773956Y961750D01*
X776044D01*
X777974Y962549D01*
X779451Y964026D01*
X780250Y965956D01*
Y968044D01*
X779451Y969974D01*
X777974Y971451D01*
X776044Y972250D01*
D02*
G37*
G36*
X721044Y955250D02*
X718956D01*
X717026Y954451D01*
X715549Y952974D01*
X714750Y951044D01*
Y948956D01*
X715549Y947026D01*
X717026Y945549D01*
X718956Y944750D01*
X721044D01*
X722974Y945549D01*
X724451Y947026D01*
X725250Y948956D01*
Y951044D01*
X724451Y952974D01*
X722974Y954451D01*
X721044Y955250D01*
D02*
G37*
G36*
X673044D02*
X670956D01*
X669026Y954451D01*
X667549Y952974D01*
X666750Y951044D01*
Y948956D01*
X667549Y947026D01*
X669026Y945549D01*
X670956Y944750D01*
X673044D01*
X674974Y945549D01*
X676451Y947026D01*
X677250Y948956D01*
Y951044D01*
X676451Y952974D01*
X674974Y954451D01*
X673044Y955250D01*
D02*
G37*
G36*
X619044D02*
X616956D01*
X615026Y954451D01*
X613549Y952974D01*
X612750Y951044D01*
Y948956D01*
X613549Y947026D01*
X615026Y945549D01*
X616956Y944750D01*
X619044D01*
X620974Y945549D01*
X622451Y947026D01*
X623250Y948956D01*
Y951044D01*
X622451Y952974D01*
X620974Y954451D01*
X619044Y955250D01*
D02*
G37*
G36*
X566044D02*
X563956D01*
X562026Y954451D01*
X560549Y952974D01*
X559750Y951044D01*
Y948956D01*
X560549Y947026D01*
X562026Y945549D01*
X563956Y944750D01*
X566044D01*
X567974Y945549D01*
X569451Y947026D01*
X570250Y948956D01*
Y951044D01*
X569451Y952974D01*
X567974Y954451D01*
X566044Y955250D01*
D02*
G37*
G36*
X514044D02*
X511956D01*
X510026Y954451D01*
X508549Y952974D01*
X507750Y951044D01*
Y948956D01*
X508549Y947026D01*
X510026Y945549D01*
X511956Y944750D01*
X514044D01*
X515974Y945549D01*
X517451Y947026D01*
X518250Y948956D01*
Y951044D01*
X517451Y952974D01*
X515974Y954451D01*
X514044Y955250D01*
D02*
G37*
G36*
X357044D02*
X354956D01*
X353026Y954451D01*
X351549Y952974D01*
X350750Y951044D01*
Y948956D01*
X351549Y947026D01*
X353026Y945549D01*
X354956Y944750D01*
X357044D01*
X358974Y945549D01*
X360451Y947026D01*
X361250Y948956D01*
Y951044D01*
X360451Y952974D01*
X358974Y954451D01*
X357044Y955250D01*
D02*
G37*
G36*
X221944Y954100D02*
X219856D01*
X217926Y953301D01*
X216449Y951824D01*
X215650Y949894D01*
Y947806D01*
X216449Y945876D01*
X217926Y944399D01*
X219856Y943600D01*
X221944D01*
X223874Y944399D01*
X225351Y945876D01*
X226150Y947806D01*
Y949894D01*
X225351Y951824D01*
X223874Y953301D01*
X221944Y954100D01*
D02*
G37*
G36*
X164144D02*
X162056D01*
X160126Y953301D01*
X158649Y951824D01*
X157850Y949894D01*
Y947806D01*
X158649Y945876D01*
X160126Y944399D01*
X162056Y943600D01*
X164144D01*
X166074Y944399D01*
X167551Y945876D01*
X168350Y947806D01*
Y949894D01*
X167551Y951824D01*
X166074Y953301D01*
X164144Y954100D01*
D02*
G37*
G36*
X235200Y956410D02*
X233373Y956170D01*
X231670Y955464D01*
X230208Y954342D01*
X229086Y952880D01*
X228380Y951177D01*
X228140Y949350D01*
Y938350D01*
X228380Y936523D01*
X229086Y934820D01*
X230208Y933358D01*
X231670Y932235D01*
X233373Y931530D01*
X235200Y931290D01*
X237027Y931530D01*
X238730Y932235D01*
X240192Y933358D01*
X241315Y934820D01*
X242020Y936523D01*
X242260Y938350D01*
Y949350D01*
X242020Y951177D01*
X241315Y952880D01*
X240192Y954342D01*
X238730Y955464D01*
X237027Y956170D01*
X235200Y956410D01*
D02*
G37*
G36*
X148800D02*
X146973Y956170D01*
X145270Y955464D01*
X143808Y954342D01*
X142685Y952880D01*
X141980Y951177D01*
X141740Y949350D01*
Y938350D01*
X141980Y936523D01*
X142685Y934820D01*
X143808Y933358D01*
X145270Y932235D01*
X146973Y931530D01*
X148800Y931290D01*
X150627Y931530D01*
X152330Y932235D01*
X153792Y933358D01*
X154915Y934820D01*
X155620Y936523D01*
X155860Y938350D01*
Y949350D01*
X155620Y951177D01*
X154915Y952880D01*
X153792Y954342D01*
X152330Y955464D01*
X150627Y956170D01*
X148800Y956410D01*
D02*
G37*
G36*
X213972Y916177D02*
X211883D01*
X209953Y915378D01*
X208477Y913901D01*
X207677Y911972D01*
Y909883D01*
X208477Y907953D01*
X209953Y906477D01*
X211883Y905677D01*
X213972D01*
X215901Y906477D01*
X217378Y907953D01*
X218177Y909883D01*
Y911972D01*
X217378Y913901D01*
X215901Y915378D01*
X213972Y916177D01*
D02*
G37*
G36*
X201044Y915250D02*
X198956D01*
X197026Y914451D01*
X195549Y912974D01*
X194750Y911044D01*
Y908956D01*
X195549Y907026D01*
X197026Y905549D01*
X198956Y904750D01*
X201044D01*
X202974Y905549D01*
X204451Y907026D01*
X205250Y908956D01*
Y911044D01*
X204451Y912974D01*
X202974Y914451D01*
X201044Y915250D01*
D02*
G37*
G36*
X166044D02*
X163956D01*
X162026Y914451D01*
X160549Y912974D01*
X159750Y911044D01*
Y908956D01*
X160549Y907026D01*
X162026Y905549D01*
X163956Y904750D01*
X166044D01*
X167974Y905549D01*
X169451Y907026D01*
X170250Y908956D01*
Y911044D01*
X169451Y912974D01*
X167974Y914451D01*
X166044Y915250D01*
D02*
G37*
G36*
X140044D02*
X137956D01*
X136026Y914451D01*
X134549Y912974D01*
X133750Y911044D01*
Y908956D01*
X134549Y907026D01*
X136026Y905549D01*
X137956Y904750D01*
X140044D01*
X141974Y905549D01*
X143451Y907026D01*
X144250Y908956D01*
Y911044D01*
X143451Y912974D01*
X141974Y914451D01*
X140044Y915250D01*
D02*
G37*
G36*
X363044Y876250D02*
X360956D01*
X359026Y875451D01*
X358000Y874425D01*
X356974Y875451D01*
X355044Y876250D01*
X352956D01*
X351026Y875451D01*
X350000Y874425D01*
X348974Y875451D01*
X347044Y876250D01*
X344956D01*
X343026Y875451D01*
X342000Y874425D01*
X340974Y875451D01*
X339044Y876250D01*
X336956D01*
X335026Y875451D01*
X333549Y873974D01*
X332750Y872044D01*
Y869956D01*
X333549Y868026D01*
X335026Y866549D01*
X336956Y865750D01*
X339044D01*
X340974Y866549D01*
X342000Y867575D01*
X343026Y866549D01*
X344956Y865750D01*
X347044D01*
X348974Y866549D01*
X350000Y867575D01*
X351026Y866549D01*
X352956Y865750D01*
X355044D01*
X356974Y866549D01*
X358000Y867575D01*
X359026Y866549D01*
X360956Y865750D01*
X363044D01*
X364974Y866549D01*
X366451Y868026D01*
X367250Y869956D01*
Y872044D01*
X366451Y873974D01*
X364974Y875451D01*
X363044Y876250D01*
D02*
G37*
G36*
X206044Y879250D02*
X203956D01*
X202026Y878451D01*
X200549Y876974D01*
X199750Y875044D01*
Y872956D01*
X200549Y871026D01*
X202026Y869549D01*
X203956Y868750D01*
X206044D01*
X207974Y869549D01*
X209451Y871026D01*
X210250Y872956D01*
Y875044D01*
X209451Y876974D01*
X207974Y878451D01*
X206044Y879250D01*
D02*
G37*
G36*
X166044Y878250D02*
X163956D01*
X162026Y877451D01*
X160549Y875974D01*
X159750Y874044D01*
Y871956D01*
X160549Y870026D01*
X162026Y868549D01*
X163956Y867750D01*
X166044D01*
X167974Y868549D01*
X169451Y870026D01*
X170250Y871956D01*
Y874044D01*
X169451Y875974D01*
X167974Y877451D01*
X166044Y878250D01*
D02*
G37*
G36*
X152044Y877250D02*
X149956D01*
X148026Y876451D01*
X146549Y874974D01*
X145750Y873044D01*
Y870956D01*
X146549Y869026D01*
X148026Y867549D01*
X149956Y866750D01*
X152044D01*
X153974Y867549D01*
X155451Y869026D01*
X156250Y870956D01*
Y873044D01*
X155451Y874974D01*
X153974Y876451D01*
X152044Y877250D01*
D02*
G37*
G36*
X251044Y871250D02*
X248956D01*
X247026Y870451D01*
X245549Y868974D01*
X244750Y867044D01*
Y864956D01*
X245549Y863026D01*
X247026Y861549D01*
X248956Y860750D01*
X251044D01*
X252974Y861549D01*
X254451Y863026D01*
X255250Y864956D01*
Y867044D01*
X254451Y868974D01*
X252974Y870451D01*
X251044Y871250D01*
D02*
G37*
G36*
X474044Y845250D02*
X471956D01*
X470026Y844451D01*
X469000Y843425D01*
X467974Y844451D01*
X466044Y845250D01*
X463956D01*
X462026Y844451D01*
X460549Y842974D01*
X459750Y841044D01*
Y838956D01*
X460549Y837026D01*
X461575Y836000D01*
X460549Y834974D01*
X459750Y833044D01*
Y830956D01*
X460549Y829026D01*
X462026Y827549D01*
X463956Y826750D01*
X466044D01*
X467974Y827549D01*
X469000Y828575D01*
X470026Y827549D01*
X471956Y826750D01*
X474044D01*
X475974Y827549D01*
X477451Y829026D01*
X478250Y830956D01*
Y833044D01*
X477451Y834974D01*
X476425Y836000D01*
X477451Y837026D01*
X478250Y838956D01*
Y841044D01*
X477451Y842974D01*
X475974Y844451D01*
X474044Y845250D01*
D02*
G37*
G36*
X352157Y842559D02*
X352157Y842559D01*
X58922D01*
X57751Y842326D01*
X56759Y841663D01*
X49257Y834162D01*
X49044Y834250D01*
X46956D01*
X45026Y833451D01*
X43549Y831974D01*
X42750Y830044D01*
Y827956D01*
X43549Y826026D01*
X45026Y824549D01*
X46956Y823750D01*
X49044D01*
X50041Y824163D01*
X50760Y823086D01*
X48924Y821250D01*
X46956D01*
X45026Y820451D01*
X43549Y818974D01*
X42750Y817044D01*
Y814956D01*
X43549Y813026D01*
X45026Y811549D01*
X46956Y810750D01*
X49044D01*
X50974Y811549D01*
X52451Y813026D01*
X53250Y814956D01*
Y816924D01*
X65267Y828941D01*
X352733D01*
X370941Y810733D01*
Y794399D01*
X369768Y793913D01*
X369602Y794079D01*
X368002Y794742D01*
X368146Y795089D01*
Y797178D01*
X367347Y799108D01*
X365870Y800584D01*
X363940Y801384D01*
X361852D01*
X359922Y800584D01*
X358445Y799108D01*
X357646Y797178D01*
Y795089D01*
X358445Y793160D01*
X359922Y791683D01*
X361522Y791020D01*
X361378Y790672D01*
Y788584D01*
X362177Y786654D01*
X363654Y785177D01*
X365584Y784378D01*
X366527D01*
X366750Y784044D01*
Y781956D01*
X367549Y780026D01*
X369026Y778549D01*
X370956Y777750D01*
X372715D01*
Y775920D01*
X373514Y773991D01*
X374991Y772514D01*
X376920Y771714D01*
X376987Y771615D01*
X376750Y771044D01*
Y768956D01*
X377549Y767026D01*
X379026Y765549D01*
X380956Y764750D01*
X382411D01*
Y763617D01*
X383210Y761687D01*
X384687Y760210D01*
X386307Y759540D01*
X386173Y759217D01*
Y757129D01*
X386972Y755199D01*
X387544Y754628D01*
X388137Y753562D01*
X387544Y752968D01*
X386660Y752085D01*
X385861Y750155D01*
Y748067D01*
X386660Y746137D01*
X387686Y745111D01*
X386241Y743665D01*
X385442Y741736D01*
Y739647D01*
X386241Y737718D01*
X387206Y736752D01*
X386489Y736034D01*
X385689Y734105D01*
Y732016D01*
X386489Y730087D01*
X386976Y729600D01*
X385880Y728504D01*
X385081Y726574D01*
Y724486D01*
X385880Y722556D01*
X387006Y721430D01*
X386549Y720974D01*
X385750Y719044D01*
Y716956D01*
X386549Y715026D01*
X388026Y713549D01*
X389956Y712750D01*
X392044D01*
X393974Y713549D01*
X395451Y715026D01*
X396250Y716956D01*
Y718285D01*
X398657Y720691D01*
X416286D01*
X417134Y719421D01*
X416750Y718494D01*
Y716405D01*
X416838Y716192D01*
X416837Y716191D01*
X416174Y715199D01*
X415941Y714028D01*
X415941Y714028D01*
Y527267D01*
X388733Y500059D01*
X271366D01*
X269974Y501451D01*
X268044Y502250D01*
X265956D01*
X264026Y501451D01*
X262549Y499974D01*
X262187Y499100D01*
X260813D01*
X260451Y499974D01*
X258974Y501451D01*
X257044Y502250D01*
X254956D01*
X253026Y501451D01*
X251549Y499974D01*
X250750Y498044D01*
Y495956D01*
X251549Y494026D01*
X253026Y492549D01*
X254956Y491750D01*
X256924D01*
X262837Y485837D01*
X262837Y485837D01*
X263829Y485174D01*
X265000Y484941D01*
X265000Y484941D01*
X389000D01*
X389000Y484941D01*
X390171Y485174D01*
X391163Y485837D01*
X426163Y520837D01*
X426826Y521829D01*
X427059Y523000D01*
X427059Y523000D01*
Y640721D01*
X428329Y641247D01*
X429026Y640549D01*
X430956Y639750D01*
X433044D01*
X434974Y640549D01*
X436000Y641575D01*
X437026Y640549D01*
X438956Y639750D01*
X441044D01*
X442974Y640549D01*
X444000Y641575D01*
X445026Y640549D01*
X446956Y639750D01*
X449044D01*
X450974Y640549D01*
X452451Y642026D01*
X453250Y643956D01*
Y646044D01*
X452451Y647974D01*
X450974Y649451D01*
X449044Y650250D01*
X446956D01*
X445026Y649451D01*
X444000Y648425D01*
X442974Y649451D01*
X441044Y650250D01*
X438956D01*
X437026Y649451D01*
X436000Y648425D01*
X434974Y649451D01*
X433044Y650250D01*
X430956D01*
X429026Y649451D01*
X428329Y648753D01*
X427059Y649279D01*
Y708733D01*
X430468Y712142D01*
X430506Y712200D01*
X431044D01*
X432974Y712999D01*
X434451Y714476D01*
X435250Y716405D01*
Y718494D01*
X434866Y719421D01*
X435714Y720691D01*
X560983D01*
X565750Y715924D01*
Y713956D01*
X566549Y712026D01*
X568026Y710549D01*
X569956Y709750D01*
X572044D01*
X573974Y710549D01*
X575451Y712026D01*
X576250Y713956D01*
Y716044D01*
X575451Y717974D01*
X573974Y719451D01*
X572044Y720250D01*
X570076D01*
X565154Y725171D01*
X565681Y726441D01*
X609233D01*
X621837Y713837D01*
X622830Y713174D01*
X624000Y712941D01*
X624000Y712941D01*
X943000D01*
X943000Y712941D01*
X944171Y713174D01*
X945163Y713837D01*
X948743Y717418D01*
X948744Y717418D01*
X949407Y718410D01*
X949603Y719395D01*
X949974Y719549D01*
X951451Y721026D01*
X952250Y722956D01*
Y725044D01*
X951451Y726974D01*
X949974Y728451D01*
X948044Y729250D01*
X945956D01*
X944026Y728451D01*
X942549Y726974D01*
X941750Y725044D01*
Y722956D01*
X942549Y721026D01*
X943125Y720451D01*
X941733Y719059D01*
X925044D01*
X924558Y720232D01*
X948163Y743837D01*
X948163Y743837D01*
X948826Y744829D01*
X949059Y746000D01*
X949059Y746000D01*
Y782750D01*
X950044D01*
X951974Y783549D01*
X953451Y785026D01*
X954250Y786956D01*
Y789044D01*
X953451Y790974D01*
X951974Y792451D01*
X950044Y793250D01*
X947956D01*
X946026Y792451D01*
X944549Y790974D01*
X943750Y789044D01*
Y786956D01*
X943838Y786742D01*
X943837Y786741D01*
X943174Y785749D01*
X942941Y784578D01*
X942941Y784578D01*
Y747267D01*
X918733Y723059D01*
X681779D01*
X681253Y724329D01*
X681701Y724776D01*
X682500Y726706D01*
Y728794D01*
X681701Y730724D01*
X680224Y732201D01*
X678294Y733000D01*
X676206D01*
X674276Y732201D01*
X672799Y730724D01*
X672000Y728794D01*
Y726706D01*
X672799Y724776D01*
X673247Y724329D01*
X672720Y723059D01*
X628267D01*
X616308Y735018D01*
X616794Y736191D01*
X724159D01*
X724412Y734921D01*
X723276Y734451D01*
X721799Y732974D01*
X721000Y731044D01*
Y728956D01*
X721799Y727026D01*
X723276Y725549D01*
X725206Y724750D01*
X727294D01*
X729224Y725549D01*
X730701Y727026D01*
X731500Y728956D01*
Y731044D01*
X730701Y732974D01*
X729224Y734451D01*
X728088Y734921D01*
X728341Y736191D01*
X800750D01*
Y735956D01*
X801549Y734026D01*
X803026Y732549D01*
X804956Y731750D01*
X807044D01*
X808974Y732549D01*
X810451Y734026D01*
X811250Y735956D01*
Y738044D01*
X810451Y739974D01*
X808974Y741451D01*
X807044Y742250D01*
X804956D01*
X804050Y741875D01*
X803749Y742076D01*
X802578Y742309D01*
X802578Y742309D01*
X706294D01*
X705808Y743482D01*
X741267Y778941D01*
X803634D01*
X805026Y777549D01*
X806956Y776750D01*
X809044D01*
X810974Y777549D01*
X812451Y779026D01*
X813250Y780956D01*
Y783044D01*
X812451Y784974D01*
X810974Y786451D01*
X809044Y787250D01*
X806956D01*
X805026Y786451D01*
X803634Y785059D01*
X740000D01*
X738829Y784826D01*
X737837Y784163D01*
X737837Y784163D01*
X700233Y746559D01*
X693669D01*
X692821Y747829D01*
X693290Y748961D01*
Y750055D01*
X693956Y750500D01*
X696044D01*
X697974Y751299D01*
X699451Y752776D01*
X700250Y754706D01*
Y756794D01*
X699451Y758724D01*
X697974Y760201D01*
X696044Y761000D01*
X694076D01*
X682413Y772663D01*
X681421Y773326D01*
X680250Y773559D01*
X680250Y773559D01*
X456126D01*
X455559Y774250D01*
X455559Y774250D01*
Y826000D01*
X455559Y826000D01*
X455326Y827171D01*
X454663Y828163D01*
X454663Y828163D01*
X444913Y837913D01*
X443921Y838576D01*
X442750Y838809D01*
X442750Y838809D01*
X357174D01*
X354320Y841663D01*
X353327Y842326D01*
X352157Y842559D01*
D02*
G37*
G36*
X1176294Y840500D02*
X1174206D01*
X1172276Y839701D01*
X1170799Y838224D01*
X1170000Y836294D01*
Y834206D01*
X1170799Y832276D01*
X1172276Y830799D01*
X1174206Y830000D01*
X1176294D01*
X1178224Y830799D01*
X1179701Y832276D01*
X1180500Y834206D01*
Y836294D01*
X1179701Y838224D01*
X1178224Y839701D01*
X1176294Y840500D01*
D02*
G37*
G36*
X1000044Y814250D02*
X997956D01*
X996026Y813451D01*
X994549Y811974D01*
X993750Y810044D01*
Y807956D01*
X994549Y806026D01*
X996026Y804549D01*
X997956Y803750D01*
X1000044D01*
X1001974Y804549D01*
X1003451Y806026D01*
X1004250Y807956D01*
Y810044D01*
X1003451Y811974D01*
X1001974Y813451D01*
X1000044Y814250D01*
D02*
G37*
G36*
X689044Y803250D02*
X686956D01*
X685026Y802451D01*
X684000Y801425D01*
X682974Y802451D01*
X681044Y803250D01*
X678956D01*
X677026Y802451D01*
X675549Y800974D01*
X674750Y799044D01*
Y796956D01*
X675549Y795026D01*
X676575Y794000D01*
X675549Y792974D01*
X674750Y791044D01*
Y788956D01*
X675549Y787026D01*
X677026Y785549D01*
X678956Y784750D01*
X681044D01*
X682974Y785549D01*
X684000Y786575D01*
X685026Y785549D01*
X686956Y784750D01*
X689044D01*
X690974Y785549D01*
X692451Y787026D01*
X693250Y788956D01*
Y791044D01*
X692451Y792974D01*
X691425Y794000D01*
X692451Y795026D01*
X693250Y796956D01*
Y799044D01*
X692451Y800974D01*
X690974Y802451D01*
X689044Y803250D01*
D02*
G37*
G36*
X135294Y808500D02*
X133206D01*
X131276Y807701D01*
X129799Y806224D01*
X129000Y804294D01*
Y802206D01*
X129799Y800276D01*
X131276Y798799D01*
X133206Y798000D01*
X135294D01*
X137224Y798799D01*
X138701Y800276D01*
X139500Y802206D01*
Y804294D01*
X138701Y806224D01*
X137224Y807701D01*
X135294Y808500D01*
D02*
G37*
G36*
X854044Y805250D02*
X851956D01*
X850026Y804451D01*
X848549Y802974D01*
X847750Y801044D01*
Y798956D01*
X848549Y797026D01*
X850026Y795549D01*
X851956Y794750D01*
X854044D01*
X855974Y795549D01*
X857451Y797026D01*
X858250Y798956D01*
Y801044D01*
X857451Y802974D01*
X855974Y804451D01*
X854044Y805250D01*
D02*
G37*
G36*
X1034044Y801250D02*
X1031956D01*
X1030026Y800451D01*
X1028549Y798974D01*
X1027750Y797044D01*
Y794956D01*
X1028549Y793026D01*
X1030026Y791549D01*
X1031956Y790750D01*
X1034044D01*
X1035974Y791549D01*
X1037451Y793026D01*
X1038250Y794956D01*
Y797044D01*
X1037451Y798974D01*
X1035974Y800451D01*
X1034044Y801250D01*
D02*
G37*
G36*
X210044Y799250D02*
X207956D01*
X206026Y798451D01*
X204549Y796974D01*
X203750Y795044D01*
Y792956D01*
X204549Y791026D01*
X206026Y789549D01*
X207956Y788750D01*
X210044D01*
X211974Y789549D01*
X213451Y791026D01*
X214250Y792956D01*
Y795044D01*
X213451Y796974D01*
X211974Y798451D01*
X210044Y799250D01*
D02*
G37*
G36*
X469044Y814250D02*
X466956D01*
X465026Y813451D01*
X463549Y811974D01*
X462750Y810044D01*
Y807956D01*
X463549Y806026D01*
X465026Y804549D01*
X466956Y803750D01*
X468278D01*
X468750Y803044D01*
Y800956D01*
X469549Y799026D01*
X471026Y797549D01*
X471319Y797428D01*
X471538Y795963D01*
X470549Y794974D01*
X469750Y793044D01*
Y790956D01*
X470549Y789026D01*
X472026Y787549D01*
X473956Y786750D01*
X476044D01*
X477974Y787549D01*
X479451Y789026D01*
X480250Y790956D01*
Y793044D01*
X479451Y794974D01*
X477974Y796451D01*
X477681Y796572D01*
X477462Y798037D01*
X478451Y799026D01*
X479250Y800956D01*
Y803044D01*
X478451Y804974D01*
X476974Y806451D01*
X475044Y807250D01*
X473722D01*
X473250Y807956D01*
Y810044D01*
X472451Y811974D01*
X470974Y813451D01*
X469044Y814250D01*
D02*
G37*
G36*
X903044Y794250D02*
X900956D01*
X899026Y793451D01*
X897549Y791974D01*
X896750Y790044D01*
Y787956D01*
X897549Y786026D01*
X899026Y784549D01*
X900956Y783750D01*
X903044D01*
X904974Y784549D01*
X906451Y786026D01*
X907250Y787956D01*
Y790044D01*
X906451Y791974D01*
X904974Y793451D01*
X903044Y794250D01*
D02*
G37*
G36*
X1176294Y788500D02*
X1174206D01*
X1172276Y787701D01*
X1170799Y786224D01*
X1170000Y784294D01*
Y782206D01*
X1170799Y780276D01*
X1172276Y778799D01*
X1174206Y778000D01*
X1176294D01*
X1178224Y778799D01*
X1179701Y780276D01*
X1180500Y782206D01*
Y784294D01*
X1179701Y786224D01*
X1178224Y787701D01*
X1176294Y788500D01*
D02*
G37*
G36*
X516544Y793000D02*
X514456D01*
X512526Y792201D01*
X511049Y790724D01*
X510250Y788794D01*
Y786706D01*
X511049Y784776D01*
X511700Y784125D01*
X511049Y783474D01*
X510250Y781544D01*
Y779456D01*
X511049Y777526D01*
X512526Y776049D01*
X514456Y775250D01*
X516544D01*
X518474Y776049D01*
X519951Y777526D01*
X520750Y779456D01*
Y781544D01*
X519951Y783474D01*
X519300Y784125D01*
X519951Y784776D01*
X520750Y786706D01*
Y788794D01*
X519951Y790724D01*
X518474Y792201D01*
X516544Y793000D01*
D02*
G37*
G36*
X891044Y774250D02*
X888956D01*
X887026Y773451D01*
X886000Y772425D01*
X884974Y773451D01*
X883044Y774250D01*
X880956D01*
X879026Y773451D01*
X877549Y771974D01*
X876750Y770044D01*
Y767956D01*
X877549Y766026D01*
X878575Y765000D01*
X877549Y763974D01*
X876750Y762044D01*
Y759956D01*
X877549Y758026D01*
X878575Y757000D01*
X877549Y755974D01*
X876750Y754044D01*
Y751956D01*
X877549Y750026D01*
X878575Y749000D01*
X877549Y747974D01*
X876750Y746044D01*
Y743956D01*
X877549Y742026D01*
X879026Y740549D01*
X880956Y739750D01*
X883044D01*
X884974Y740549D01*
X886000Y741575D01*
X887026Y740549D01*
X888956Y739750D01*
X891044D01*
X892974Y740549D01*
X894451Y742026D01*
X895250Y743956D01*
Y746044D01*
X894451Y747974D01*
X893425Y749000D01*
X894451Y750026D01*
X895250Y751956D01*
Y754044D01*
X894451Y755974D01*
X893425Y757000D01*
X894451Y758026D01*
X895250Y759956D01*
Y762044D01*
X894451Y763974D01*
X893425Y765000D01*
X894451Y766026D01*
X895250Y767956D01*
Y770044D01*
X894451Y771974D01*
X892974Y773451D01*
X891044Y774250D01*
D02*
G37*
G36*
X734044Y755250D02*
X731956D01*
X730026Y754451D01*
X728549Y752974D01*
X727750Y751044D01*
Y748956D01*
X728549Y747026D01*
X730026Y745549D01*
X731956Y744750D01*
X734044D01*
X735974Y745549D01*
X737451Y747026D01*
X738250Y748956D01*
Y751044D01*
X737451Y752974D01*
X735974Y754451D01*
X734044Y755250D01*
D02*
G37*
G36*
X856044Y749250D02*
X853956D01*
X852026Y748451D01*
X850549Y746974D01*
X849750Y745044D01*
Y742956D01*
X850549Y741026D01*
X852026Y739549D01*
X853956Y738750D01*
X856044D01*
X857974Y739549D01*
X859451Y741026D01*
X860250Y742956D01*
Y745044D01*
X859451Y746974D01*
X857974Y748451D01*
X856044Y749250D01*
D02*
G37*
G36*
X997044Y748250D02*
X994956D01*
X993026Y747451D01*
X991549Y745974D01*
X990750Y744044D01*
Y741956D01*
X991549Y740026D01*
X993026Y738549D01*
X994956Y737750D01*
X997044D01*
X998974Y738549D01*
X1000451Y740026D01*
X1001250Y741956D01*
Y744044D01*
X1000451Y745974D01*
X998974Y747451D01*
X997044Y748250D01*
D02*
G37*
G36*
X330044Y738250D02*
X327956D01*
X326026Y737451D01*
X325000Y736425D01*
X323974Y737451D01*
X322044Y738250D01*
X319956D01*
X318026Y737451D01*
X317000Y736425D01*
X315974Y737451D01*
X314044Y738250D01*
X311956D01*
X310026Y737451D01*
X308549Y735974D01*
X307750Y734044D01*
Y731956D01*
X308549Y730026D01*
X310026Y728549D01*
X311956Y727750D01*
X314044D01*
X315974Y728549D01*
X317000Y729575D01*
X318026Y728549D01*
X319956Y727750D01*
X322044D01*
X323974Y728549D01*
X325000Y729575D01*
X326026Y728549D01*
X327956Y727750D01*
X330044D01*
X331974Y728549D01*
X333451Y730026D01*
X334250Y731956D01*
Y734044D01*
X333451Y735974D01*
X331974Y737451D01*
X330044Y738250D01*
D02*
G37*
G36*
X199044Y741250D02*
X196956D01*
X195026Y740451D01*
X193549Y738974D01*
X192750Y737044D01*
Y734956D01*
X193549Y733026D01*
X195026Y731549D01*
X196956Y730750D01*
X199044D01*
X200974Y731549D01*
X202451Y733026D01*
X203250Y734956D01*
Y737044D01*
X202451Y738974D01*
X200974Y740451D01*
X199044Y741250D01*
D02*
G37*
G36*
X901044Y737250D02*
X898956D01*
X897026Y736451D01*
X895549Y734974D01*
X894750Y733044D01*
Y730956D01*
X895549Y729026D01*
X897026Y727549D01*
X898956Y726750D01*
X901044D01*
X902974Y727549D01*
X904451Y729026D01*
X905250Y730956D01*
Y733044D01*
X904451Y734974D01*
X902974Y736451D01*
X901044Y737250D01*
D02*
G37*
G36*
X1176420Y736625D02*
X1174331D01*
X1172401Y735826D01*
X1170925Y734349D01*
X1170125Y732419D01*
Y730331D01*
X1170925Y728401D01*
X1172401Y726924D01*
X1174331Y726125D01*
X1176420D01*
X1178349Y726924D01*
X1179826Y728401D01*
X1180625Y730331D01*
Y732419D01*
X1179826Y734349D01*
X1178349Y735826D01*
X1176420Y736625D01*
D02*
G37*
G36*
X1034434Y735250D02*
X1032345D01*
X1030416Y734451D01*
X1028939Y732974D01*
X1028140Y731044D01*
Y728956D01*
X1028939Y727026D01*
X1030416Y725549D01*
X1032345Y724750D01*
X1034434D01*
X1036364Y725549D01*
X1037840Y727026D01*
X1038640Y728956D01*
Y731044D01*
X1037840Y732974D01*
X1036364Y734451D01*
X1034434Y735250D01*
D02*
G37*
G36*
X547044Y710250D02*
X544956D01*
X543026Y709451D01*
X541549Y707974D01*
X540750Y706044D01*
Y703956D01*
X541549Y702026D01*
X543026Y700549D01*
X544956Y699750D01*
X547044D01*
X548974Y700549D01*
X550451Y702026D01*
X551250Y703956D01*
Y706044D01*
X550451Y707974D01*
X548974Y709451D01*
X547044Y710250D01*
D02*
G37*
G36*
X153044Y676250D02*
X150956D01*
X149026Y675451D01*
X148000Y674425D01*
X146974Y675451D01*
X145044Y676250D01*
X142956D01*
X141026Y675451D01*
X140000Y674425D01*
X138974Y675451D01*
X137044Y676250D01*
X134956D01*
X133026Y675451D01*
X131549Y673974D01*
X130750Y672044D01*
Y669956D01*
X131549Y668026D01*
X132575Y667000D01*
X131549Y665974D01*
X130750Y664044D01*
Y661956D01*
X131549Y660026D01*
X133026Y658549D01*
X134956Y657750D01*
X137044D01*
X138974Y658549D01*
X140000Y659575D01*
X141026Y658549D01*
X142956Y657750D01*
X145044D01*
X146974Y658549D01*
X148000Y659575D01*
X149026Y658549D01*
X150956Y657750D01*
X153044D01*
X154974Y658549D01*
X156451Y660026D01*
X157250Y661956D01*
Y664044D01*
X156451Y665974D01*
X155425Y667000D01*
X156451Y668026D01*
X157250Y669956D01*
Y672044D01*
X156451Y673974D01*
X154974Y675451D01*
X153044Y676250D01*
D02*
G37*
G36*
X1176420Y684625D02*
X1174331D01*
X1172401Y683826D01*
X1170925Y682349D01*
X1170125Y680419D01*
Y678331D01*
X1170925Y676401D01*
X1172401Y674924D01*
X1174331Y674125D01*
X1176420D01*
X1178349Y674924D01*
X1179826Y676401D01*
X1180625Y678331D01*
Y680419D01*
X1179826Y682349D01*
X1178349Y683826D01*
X1176420Y684625D01*
D02*
G37*
G36*
X1039044Y679250D02*
X1036956D01*
X1035026Y678451D01*
X1033549Y676974D01*
X1032750Y675044D01*
Y672956D01*
X1033549Y671026D01*
X1035026Y669549D01*
X1036956Y668750D01*
X1039044D01*
X1040974Y669549D01*
X1042451Y671026D01*
X1043250Y672956D01*
Y675044D01*
X1042451Y676974D01*
X1040974Y678451D01*
X1039044Y679250D01*
D02*
G37*
G36*
X634044Y676250D02*
X631956D01*
X630026Y675451D01*
X628549Y673974D01*
X627750Y672044D01*
Y669956D01*
X628549Y668026D01*
X630026Y666549D01*
X631956Y665750D01*
X634044D01*
X635974Y666549D01*
X637451Y668026D01*
X638250Y669956D01*
Y672044D01*
X637451Y673974D01*
X635974Y675451D01*
X634044Y676250D01*
D02*
G37*
G36*
X906044Y674250D02*
X903956D01*
X902026Y673451D01*
X900549Y671974D01*
X899750Y670044D01*
Y667956D01*
X900549Y666026D01*
X902026Y664549D01*
X903956Y663750D01*
X906044D01*
X907974Y664549D01*
X909451Y666026D01*
X910250Y667956D01*
Y670044D01*
X909451Y671974D01*
X907974Y673451D01*
X906044Y674250D01*
D02*
G37*
G36*
X767044Y671250D02*
X764956D01*
X763026Y670451D01*
X761549Y668974D01*
X760750Y667044D01*
Y664956D01*
X761549Y663026D01*
X763026Y661549D01*
X764956Y660750D01*
X767044D01*
X768974Y661549D01*
X770451Y663026D01*
X771250Y664956D01*
Y667044D01*
X770451Y668974D01*
X768974Y670451D01*
X767044Y671250D01*
D02*
G37*
G36*
X324044Y677250D02*
X321956D01*
X320026Y676451D01*
X318549Y674974D01*
X317750Y673044D01*
Y670956D01*
X317278Y670250D01*
X315956D01*
X314026Y669451D01*
X312549Y667974D01*
X311750Y666044D01*
Y663956D01*
X312549Y662026D01*
X314026Y660549D01*
X315956Y659750D01*
X318044D01*
X319974Y660549D01*
X321451Y662026D01*
X322250Y663956D01*
Y666044D01*
X322722Y666750D01*
X324044D01*
X325974Y667549D01*
X327451Y669026D01*
X328250Y670956D01*
Y673044D01*
X327451Y674974D01*
X325974Y676451D01*
X324044Y677250D01*
D02*
G37*
G36*
X348044Y683250D02*
X345956D01*
X344026Y682451D01*
X342549Y680974D01*
X341750Y679044D01*
Y676956D01*
X342549Y675026D01*
X343246Y674330D01*
X343982Y673500D01*
X343246Y672670D01*
X342549Y671974D01*
X341750Y670044D01*
Y667956D01*
X342549Y666026D01*
X343575Y665000D01*
X342549Y663974D01*
X341750Y662044D01*
Y659956D01*
X342549Y658026D01*
X344026Y656549D01*
X345956Y655750D01*
X348044D01*
X349974Y656549D01*
X351451Y658026D01*
X352250Y659956D01*
Y662044D01*
X351451Y663974D01*
X350425Y665000D01*
X351451Y666026D01*
X352250Y667956D01*
Y670044D01*
X351451Y671974D01*
X350754Y672670D01*
X350018Y673500D01*
X350754Y674330D01*
X351451Y675026D01*
X352250Y676956D01*
Y679044D01*
X351451Y680974D01*
X349974Y682451D01*
X348044Y683250D01*
D02*
G37*
G36*
X955044Y663250D02*
X952956D01*
X951026Y662451D01*
X949549Y660974D01*
X948750Y659044D01*
Y656956D01*
X949549Y655026D01*
X951026Y653549D01*
X952956Y652750D01*
X955044D01*
X956974Y653549D01*
X958451Y655026D01*
X959250Y656956D01*
Y659044D01*
X958451Y660974D01*
X956974Y662451D01*
X955044Y663250D01*
D02*
G37*
G36*
X1090044Y661250D02*
X1087956D01*
X1086026Y660451D01*
X1084549Y658974D01*
X1083750Y657044D01*
Y654956D01*
X1084549Y653026D01*
X1086026Y651549D01*
X1087956Y650750D01*
X1090044D01*
X1091974Y651549D01*
X1093451Y653026D01*
X1094250Y654956D01*
Y657044D01*
X1093451Y658974D01*
X1091974Y660451D01*
X1090044Y661250D01*
D02*
G37*
G36*
X283044Y659250D02*
X280956D01*
X279026Y658451D01*
X277549Y656974D01*
X276750Y655044D01*
Y652956D01*
X277549Y651026D01*
X279026Y649549D01*
X280956Y648750D01*
X283044D01*
X284974Y649549D01*
X286451Y651026D01*
X287250Y652956D01*
Y655044D01*
X286451Y656974D01*
X284974Y658451D01*
X283044Y659250D01*
D02*
G37*
G36*
X235544Y650750D02*
X233456D01*
X231526Y649951D01*
X230125Y648550D01*
X228974Y649701D01*
X227044Y650500D01*
X224956D01*
X223026Y649701D01*
X221549Y648224D01*
X220750Y646294D01*
Y644206D01*
X221549Y642276D01*
X222575Y641250D01*
X221549Y640224D01*
X220750Y638294D01*
Y636206D01*
X221549Y634276D01*
X223026Y632799D01*
X224956Y632000D01*
X227044D01*
X228974Y632799D01*
X230250Y634075D01*
X231526Y632799D01*
X233456Y632000D01*
X235544D01*
X237474Y632799D01*
X238951Y634276D01*
X239750Y636206D01*
Y638294D01*
X238951Y640224D01*
X237800Y641375D01*
X238951Y642526D01*
X239750Y644456D01*
Y646544D01*
X238951Y648474D01*
X237474Y649951D01*
X235544Y650750D01*
D02*
G37*
G36*
X695334Y658250D02*
X693245D01*
X691316Y657451D01*
X689839Y655974D01*
X689040Y654044D01*
Y651956D01*
X689839Y650026D01*
X691316Y648549D01*
X693245Y647750D01*
X695334D01*
X697263Y648549D01*
X698740Y650026D01*
X699540Y651956D01*
Y654044D01*
X698740Y655974D01*
X697263Y657451D01*
X695334Y658250D01*
D02*
G37*
G36*
X819044Y657250D02*
X816956D01*
X815026Y656451D01*
X813549Y654974D01*
X812750Y653044D01*
Y650956D01*
X813549Y649026D01*
X815026Y647549D01*
X816956Y646750D01*
X819044D01*
X820974Y647549D01*
X822451Y649026D01*
X823250Y650956D01*
Y653044D01*
X822451Y654974D01*
X820974Y656451D01*
X819044Y657250D01*
D02*
G37*
G36*
X502044Y655250D02*
X499956D01*
X498026Y654451D01*
X496549Y652974D01*
X495750Y651044D01*
Y648956D01*
X496549Y647026D01*
X498026Y645549D01*
X499956Y644750D01*
X502044D01*
X503974Y645549D01*
X505451Y647026D01*
X506250Y648956D01*
Y651044D01*
X505451Y652974D01*
X503974Y654451D01*
X502044Y655250D01*
D02*
G37*
G36*
X1036044Y645250D02*
X1033956D01*
X1032026Y644451D01*
X1030549Y642974D01*
X1029750Y641044D01*
Y638956D01*
X1030549Y637026D01*
X1032026Y635549D01*
X1033956Y634750D01*
X1036044D01*
X1037974Y635549D01*
X1039451Y637026D01*
X1040250Y638956D01*
Y641044D01*
X1039451Y642974D01*
X1037974Y644451D01*
X1036044Y645250D01*
D02*
G37*
G36*
X523044D02*
X520956D01*
X519026Y644451D01*
X517549Y642974D01*
X516750Y641044D01*
Y638956D01*
X517549Y637026D01*
X519026Y635549D01*
X520956Y634750D01*
X523044D01*
X524974Y635549D01*
X526451Y637026D01*
X527250Y638956D01*
Y641044D01*
X526451Y642974D01*
X524974Y644451D01*
X523044Y645250D01*
D02*
G37*
G36*
X900044Y641250D02*
X897956D01*
X896026Y640451D01*
X894549Y638974D01*
X893750Y637044D01*
Y634956D01*
X894549Y633026D01*
X896026Y631549D01*
X897956Y630750D01*
X900044D01*
X901974Y631549D01*
X903451Y633026D01*
X904250Y634956D01*
Y637044D01*
X903451Y638974D01*
X901974Y640451D01*
X900044Y641250D01*
D02*
G37*
G36*
X763044D02*
X760956D01*
X759026Y640451D01*
X757549Y638974D01*
X756750Y637044D01*
Y634956D01*
X757549Y633026D01*
X759026Y631549D01*
X760956Y630750D01*
X763044D01*
X764974Y631549D01*
X766451Y633026D01*
X767250Y634956D01*
Y637044D01*
X766451Y638974D01*
X764974Y640451D01*
X763044Y641250D01*
D02*
G37*
G36*
X628044Y640250D02*
X625956D01*
X624026Y639451D01*
X622549Y637974D01*
X621750Y636044D01*
Y633956D01*
X622549Y632026D01*
X624026Y630549D01*
X625956Y629750D01*
X628044D01*
X629974Y630549D01*
X631451Y632026D01*
X632250Y633956D01*
Y636044D01*
X631451Y637974D01*
X629974Y639451D01*
X628044Y640250D01*
D02*
G37*
G36*
X863044Y636250D02*
X860956D01*
X859026Y635451D01*
X857549Y633974D01*
X856750Y632044D01*
Y629956D01*
X857549Y628026D01*
X859026Y626549D01*
X860956Y625750D01*
X863044D01*
X864974Y626549D01*
X866451Y628026D01*
X867250Y629956D01*
Y632044D01*
X866451Y633974D01*
X864974Y635451D01*
X863044Y636250D01*
D02*
G37*
G36*
X998044Y635250D02*
X995956D01*
X994026Y634451D01*
X992549Y632974D01*
X991750Y631044D01*
Y628956D01*
X992549Y627026D01*
X994026Y625549D01*
X995956Y624750D01*
X998044D01*
X999974Y625549D01*
X1001451Y627026D01*
X1002250Y628956D01*
Y631044D01*
X1001451Y632974D01*
X999974Y634451D01*
X998044Y635250D01*
D02*
G37*
G36*
X353044D02*
X350956D01*
X349026Y634451D01*
X347549Y632974D01*
X346750Y631044D01*
Y628956D01*
X347549Y627026D01*
X349026Y625549D01*
X350956Y624750D01*
X353044D01*
X354974Y625549D01*
X356451Y627026D01*
X357250Y628956D01*
Y631044D01*
X356451Y632974D01*
X354974Y634451D01*
X353044Y635250D01*
D02*
G37*
G36*
X593044Y633250D02*
X590956D01*
X589026Y632451D01*
X587549Y630974D01*
X586750Y629044D01*
Y626956D01*
X587549Y625026D01*
X589026Y623549D01*
X590956Y622750D01*
X593044D01*
X594974Y623549D01*
X596451Y625026D01*
X597250Y626956D01*
Y629044D01*
X596451Y630974D01*
X594974Y632451D01*
X593044Y633250D01*
D02*
G37*
G36*
X727044Y632250D02*
X724956D01*
X723026Y631451D01*
X721549Y629974D01*
X720750Y628044D01*
Y625956D01*
X721549Y624026D01*
X723026Y622549D01*
X724956Y621750D01*
X727044D01*
X728974Y622549D01*
X730451Y624026D01*
X731250Y625956D01*
Y628044D01*
X730451Y629974D01*
X728974Y631451D01*
X727044Y632250D01*
D02*
G37*
G36*
X466044Y633250D02*
X463956D01*
X462026Y632451D01*
X460549Y630974D01*
X459750Y629044D01*
Y626956D01*
X460549Y625026D01*
X461246Y624330D01*
X461982Y623500D01*
X461246Y622670D01*
X460549Y621974D01*
X459750Y620044D01*
Y617956D01*
X460549Y616026D01*
X462026Y614549D01*
X463956Y613750D01*
X466044D01*
X467974Y614549D01*
X469451Y616026D01*
X470250Y617956D01*
Y620044D01*
X469451Y621974D01*
X468754Y622670D01*
X468018Y623500D01*
X468754Y624330D01*
X469451Y625026D01*
X470250Y626956D01*
Y629044D01*
X469451Y630974D01*
X467974Y632451D01*
X466044Y633250D01*
D02*
G37*
G36*
X531044Y623250D02*
X528956D01*
X527026Y622451D01*
X525549Y620974D01*
X524750Y619044D01*
Y616956D01*
X525549Y615026D01*
X527026Y613549D01*
X528956Y612750D01*
X531044D01*
X532974Y613549D01*
X534451Y615026D01*
X535250Y616956D01*
Y619044D01*
X534451Y620974D01*
X532974Y622451D01*
X531044Y623250D01*
D02*
G37*
G36*
X88294Y622305D02*
X86206D01*
X84276Y621506D01*
X82799Y620029D01*
X82000Y618100D01*
Y616011D01*
X82799Y614081D01*
X84276Y612604D01*
X86206Y611805D01*
X88294D01*
X90224Y612604D01*
X91701Y614081D01*
X92500Y616011D01*
Y618100D01*
X91701Y620029D01*
X90224Y621506D01*
X88294Y622305D01*
D02*
G37*
G36*
X454044Y618250D02*
X451956D01*
X450026Y617451D01*
X448549Y615974D01*
X447750Y614044D01*
Y611956D01*
X448549Y610026D01*
X450026Y608549D01*
X451956Y607750D01*
X454044D01*
X455974Y608549D01*
X457451Y610026D01*
X458250Y611956D01*
Y614044D01*
X457451Y615974D01*
X455974Y617451D01*
X454044Y618250D01*
D02*
G37*
G36*
X494044Y614250D02*
X491956D01*
X490026Y613451D01*
X488549Y611974D01*
X487750Y610044D01*
Y607956D01*
X488549Y606026D01*
X490026Y604549D01*
X491956Y603750D01*
X494044D01*
X495974Y604549D01*
X497451Y606026D01*
X498250Y607956D01*
Y610044D01*
X497451Y611974D01*
X495974Y613451D01*
X494044Y614250D01*
D02*
G37*
G36*
X292044Y618250D02*
X289956D01*
X288026Y617451D01*
X286549Y615974D01*
X285750Y614044D01*
Y611956D01*
X286549Y610026D01*
X287575Y609000D01*
X286549Y607974D01*
X285750Y606044D01*
Y603956D01*
X286549Y602026D01*
X287575Y601000D01*
X286549Y599974D01*
X285750Y598044D01*
Y595956D01*
X286549Y594026D01*
X288026Y592549D01*
X289956Y591750D01*
X292044D01*
X293974Y592549D01*
X295451Y594026D01*
X296250Y595956D01*
Y598044D01*
X295451Y599974D01*
X294425Y601000D01*
X295451Y602026D01*
X296250Y603956D01*
Y606044D01*
X295451Y607974D01*
X294425Y609000D01*
X295451Y610026D01*
X296250Y611956D01*
Y614044D01*
X295451Y615974D01*
X293974Y617451D01*
X292044Y618250D01*
D02*
G37*
G36*
X494044Y595250D02*
X491956D01*
X490026Y594451D01*
X488549Y592974D01*
X487750Y591044D01*
Y588956D01*
X488549Y587026D01*
X490026Y585549D01*
X491956Y584750D01*
X494044D01*
X495974Y585549D01*
X497451Y587026D01*
X498250Y588956D01*
Y591044D01*
X497451Y592974D01*
X495974Y594451D01*
X494044Y595250D01*
D02*
G37*
G36*
X533044Y580250D02*
X530956D01*
X529026Y579451D01*
X527549Y577974D01*
X526750Y576044D01*
Y573956D01*
X527549Y572026D01*
X529026Y570549D01*
X530956Y569750D01*
X533044D01*
X534974Y570549D01*
X536451Y572026D01*
X537250Y573956D01*
Y576044D01*
X536451Y577974D01*
X534974Y579451D01*
X533044Y580250D01*
D02*
G37*
G36*
X59794Y569000D02*
X57706D01*
X55776Y568201D01*
X54750Y567175D01*
X53724Y568201D01*
X51794Y569000D01*
X49706D01*
X47776Y568201D01*
X46299Y566724D01*
X45500Y564794D01*
Y562706D01*
X46299Y560776D01*
X46825Y560250D01*
X46299Y559724D01*
X45500Y557794D01*
Y555706D01*
X46299Y553776D01*
X46825Y553250D01*
X46299Y552724D01*
X45500Y550794D01*
Y548706D01*
X46299Y546776D01*
X47776Y545299D01*
X49706Y544500D01*
X51794D01*
X53724Y545299D01*
X54750Y546325D01*
X55776Y545299D01*
X57706Y544500D01*
X59794D01*
X61724Y545299D01*
X63201Y546776D01*
X64000Y548706D01*
Y550794D01*
X63201Y552724D01*
X62675Y553250D01*
X63201Y553776D01*
X64000Y555706D01*
Y557794D01*
X63201Y559724D01*
X62675Y560250D01*
X63201Y560776D01*
X64000Y562706D01*
Y564794D01*
X63201Y566724D01*
X61724Y568201D01*
X59794Y569000D01*
D02*
G37*
G36*
X494044Y574250D02*
X491956D01*
X490026Y573451D01*
X488549Y571974D01*
X487750Y570044D01*
Y567956D01*
X488549Y566026D01*
X490026Y564549D01*
X491956Y563750D01*
X494044D01*
X495974Y564549D01*
X497451Y566026D01*
X498250Y567956D01*
Y570044D01*
X497451Y571974D01*
X495974Y573451D01*
X494044Y574250D01*
D02*
G37*
G36*
X292044Y588250D02*
X289956D01*
X288026Y587451D01*
X286549Y585974D01*
X285750Y584044D01*
Y581956D01*
X286549Y580026D01*
X287575Y579000D01*
X286549Y577974D01*
X285750Y576044D01*
Y573956D01*
X286549Y572026D01*
X287575Y571000D01*
X286549Y569974D01*
X285750Y568044D01*
Y565956D01*
X286549Y564026D01*
X288026Y562549D01*
X289956Y561750D01*
X292044D01*
X293974Y562549D01*
X295451Y564026D01*
X296250Y565956D01*
Y568044D01*
X295451Y569974D01*
X294425Y571000D01*
X295451Y572026D01*
X296250Y573956D01*
Y576044D01*
X295451Y577974D01*
X294425Y579000D01*
X295451Y580026D01*
X296250Y581956D01*
Y584044D01*
X295451Y585974D01*
X293974Y587451D01*
X292044Y588250D01*
D02*
G37*
G36*
X85044Y568250D02*
X82956D01*
X81026Y567451D01*
X79549Y565974D01*
X78750Y564044D01*
Y561956D01*
X79549Y560026D01*
X81026Y558549D01*
X82956Y557750D01*
X85044D01*
X86974Y558549D01*
X88451Y560026D01*
X89250Y561956D01*
Y564044D01*
X88451Y565974D01*
X86974Y567451D01*
X85044Y568250D01*
D02*
G37*
G36*
X532044Y559250D02*
X529956D01*
X528026Y558451D01*
X526549Y556974D01*
X525750Y555044D01*
Y552956D01*
X526549Y551026D01*
X528026Y549549D01*
X529956Y548750D01*
X532044D01*
X533974Y549549D01*
X535451Y551026D01*
X536250Y552956D01*
Y555044D01*
X535451Y556974D01*
X533974Y558451D01*
X532044Y559250D01*
D02*
G37*
G36*
X491044Y558250D02*
X488956D01*
X487026Y557451D01*
X485549Y555974D01*
X484750Y554044D01*
Y551956D01*
X485549Y550026D01*
X487026Y548549D01*
X488956Y547750D01*
X491044D01*
X492974Y548549D01*
X494451Y550026D01*
X495250Y551956D01*
Y554044D01*
X494451Y555974D01*
X492974Y557451D01*
X491044Y558250D01*
D02*
G37*
G36*
X302044Y553250D02*
X299956D01*
X298026Y552451D01*
X296549Y550974D01*
X295750Y549044D01*
Y546956D01*
X296549Y545026D01*
X298026Y543549D01*
X299956Y542750D01*
X302044D01*
X303974Y543549D01*
X305451Y545026D01*
X306250Y546956D01*
Y549044D01*
X305451Y550974D01*
X303974Y552451D01*
X302044Y553250D01*
D02*
G37*
G36*
X443044Y543250D02*
X440956D01*
X439026Y542451D01*
X437549Y540974D01*
X436750Y539044D01*
Y536956D01*
X437549Y535026D01*
X439026Y533549D01*
X440956Y532750D01*
X443044D01*
X444974Y533549D01*
X446451Y535026D01*
X447250Y536956D01*
Y539044D01*
X446451Y540974D01*
X444974Y542451D01*
X443044Y543250D01*
D02*
G37*
G36*
X533044Y535250D02*
X530956D01*
X529026Y534451D01*
X527549Y532974D01*
X526750Y531044D01*
Y528956D01*
X527549Y527026D01*
X529026Y525549D01*
X530956Y524750D01*
X533044D01*
X534974Y525549D01*
X536451Y527026D01*
X537250Y528956D01*
Y531044D01*
X536451Y532974D01*
X534974Y534451D01*
X533044Y535250D01*
D02*
G37*
G36*
X842044Y533250D02*
X839956D01*
X838026Y532451D01*
X836549Y530974D01*
X835750Y529044D01*
Y526956D01*
X836549Y525026D01*
X838026Y523549D01*
X839956Y522750D01*
X842044D01*
X843974Y523549D01*
X845451Y525026D01*
X846250Y526956D01*
Y529044D01*
X845451Y530974D01*
X843974Y532451D01*
X842044Y533250D01*
D02*
G37*
G36*
X800044D02*
X797956D01*
X796026Y532451D01*
X794549Y530974D01*
X793750Y529044D01*
Y526956D01*
X794549Y525026D01*
X796026Y523549D01*
X797956Y522750D01*
X800044D01*
X801974Y523549D01*
X803451Y525026D01*
X804250Y526956D01*
Y529044D01*
X803451Y530974D01*
X801974Y532451D01*
X800044Y533250D01*
D02*
G37*
G36*
X565044Y529250D02*
X562956D01*
X561026Y528451D01*
X559549Y526974D01*
X558750Y525044D01*
Y522956D01*
X559549Y521026D01*
X561026Y519549D01*
X562956Y518750D01*
X565044D01*
X566974Y519549D01*
X568451Y521026D01*
X569250Y522956D01*
Y525044D01*
X568451Y526974D01*
X566974Y528451D01*
X565044Y529250D01*
D02*
G37*
G36*
X780044Y528250D02*
X777956D01*
X776026Y527451D01*
X774549Y525974D01*
X773750Y524044D01*
Y521956D01*
X774549Y520026D01*
X776026Y518549D01*
X777956Y517750D01*
X780044D01*
X781974Y518549D01*
X783451Y520026D01*
X784250Y521956D01*
Y524044D01*
X783451Y525974D01*
X781974Y527451D01*
X780044Y528250D01*
D02*
G37*
G36*
X591044D02*
X588956D01*
X587026Y527451D01*
X585549Y525974D01*
X584750Y524044D01*
Y521956D01*
X585549Y520026D01*
X587026Y518549D01*
X588956Y517750D01*
X591044D01*
X592974Y518549D01*
X594451Y520026D01*
X595250Y521956D01*
Y524044D01*
X594451Y525974D01*
X592974Y527451D01*
X591044Y528250D01*
D02*
G37*
G36*
X577044D02*
X574956D01*
X573026Y527451D01*
X571549Y525974D01*
X570750Y524044D01*
Y521956D01*
X571549Y520026D01*
X573026Y518549D01*
X574956Y517750D01*
X577044D01*
X578974Y518549D01*
X580451Y520026D01*
X581250Y521956D01*
Y524044D01*
X580451Y525974D01*
X578974Y527451D01*
X577044Y528250D01*
D02*
G37*
G36*
X719044Y527250D02*
X716956D01*
X715026Y526451D01*
X713549Y524974D01*
X712750Y523044D01*
Y520956D01*
X713549Y519026D01*
X715026Y517549D01*
X716956Y516750D01*
X719044D01*
X720974Y517549D01*
X722451Y519026D01*
X723250Y520956D01*
Y523044D01*
X722451Y524974D01*
X720974Y526451D01*
X719044Y527250D01*
D02*
G37*
G36*
X167044Y524250D02*
X164956D01*
X163026Y523451D01*
X161549Y521974D01*
X160750Y520044D01*
Y517956D01*
X161549Y516026D01*
X163026Y514549D01*
X164956Y513750D01*
X167044D01*
X168974Y514549D01*
X170451Y516026D01*
X171250Y517956D01*
Y520044D01*
X170451Y521974D01*
X168974Y523451D01*
X167044Y524250D01*
D02*
G37*
G36*
X746044Y520250D02*
X743956D01*
X742026Y519451D01*
X740549Y517974D01*
X739750Y516044D01*
Y513956D01*
X740549Y512026D01*
X742026Y510549D01*
X743956Y509750D01*
X746044D01*
X747974Y510549D01*
X749451Y512026D01*
X750250Y513956D01*
Y516044D01*
X749451Y517974D01*
X747974Y519451D01*
X746044Y520250D01*
D02*
G37*
G36*
X484044Y511250D02*
X481956D01*
X480026Y510451D01*
X478549Y508974D01*
X477750Y507044D01*
Y504956D01*
X478549Y503026D01*
X480026Y501549D01*
X481956Y500750D01*
X484044D01*
X485974Y501549D01*
X487451Y503026D01*
X488250Y504956D01*
Y507044D01*
X487451Y508974D01*
X485974Y510451D01*
X484044Y511250D01*
D02*
G37*
G36*
X659044Y484250D02*
X656956D01*
X655026Y483451D01*
X654000Y482425D01*
X652974Y483451D01*
X651044Y484250D01*
X648956D01*
X647026Y483451D01*
X645549Y481974D01*
X644750Y480044D01*
Y477956D01*
X645549Y476026D01*
X647026Y474549D01*
X648956Y473750D01*
X651044D01*
X652974Y474549D01*
X654000Y475575D01*
X655026Y474549D01*
X656956Y473750D01*
X659044D01*
X660974Y474549D01*
X662451Y476026D01*
X663250Y477956D01*
Y480044D01*
X662451Y481974D01*
X660974Y483451D01*
X659044Y484250D01*
D02*
G37*
G36*
X640044Y489250D02*
X637956D01*
X636026Y488451D01*
X634549Y486974D01*
X633750Y485044D01*
Y482956D01*
X634549Y481026D01*
X636026Y479549D01*
X637956Y478750D01*
X640044D01*
X641974Y479549D01*
X643451Y481026D01*
X644250Y482956D01*
Y485044D01*
X643451Y486974D01*
X641974Y488451D01*
X640044Y489250D01*
D02*
G37*
%LPD*%
G36*
X349886Y836329D02*
X349207Y835059D01*
X64000D01*
X62829Y834826D01*
X61837Y834163D01*
X61837Y834163D01*
X53914Y826239D01*
X52837Y826959D01*
X53250Y827956D01*
Y829503D01*
X60189Y836441D01*
X349811D01*
X349886Y836329D01*
D02*
G37*
G36*
X449441Y824733D02*
Y775517D01*
X447483Y773559D01*
X436500D01*
X436500Y773559D01*
X435330Y773326D01*
X434337Y772663D01*
X433924Y772250D01*
X431956D01*
X430026Y771451D01*
X429330Y770754D01*
X428464Y770049D01*
X427670Y770754D01*
X426938Y771486D01*
X425009Y772286D01*
X423040D01*
X421913Y773413D01*
X420920Y774076D01*
X419750Y774309D01*
X419750Y774309D01*
X394350D01*
X377059Y791600D01*
Y793260D01*
X378329Y793786D01*
X379276Y792839D01*
X381206Y792039D01*
X383294D01*
X385224Y792839D01*
X385810Y793425D01*
X386767Y792468D01*
X388697Y791669D01*
X390785D01*
X392715Y792468D01*
X393502Y793255D01*
X394267Y792490D01*
X396197Y791691D01*
X398285D01*
X400215Y792490D01*
X401692Y793967D01*
X401906Y794483D01*
X403371Y793876D01*
X405460D01*
X406943Y794491D01*
X407549Y793026D01*
X409026Y791549D01*
X410956Y790750D01*
X413044D01*
X414974Y791549D01*
X416255Y792831D01*
X417000Y792943D01*
X417744Y792831D01*
X419026Y791549D01*
X419319Y791428D01*
X419538Y789963D01*
X418549Y788974D01*
X417750Y787044D01*
Y784956D01*
X418549Y783026D01*
X420026Y781549D01*
X421956Y780750D01*
X424044D01*
X425974Y781549D01*
X427451Y783026D01*
X428250Y784956D01*
Y787044D01*
X427451Y788974D01*
X426298Y790126D01*
X426333Y791330D01*
X426453Y791627D01*
X426783Y791793D01*
X427026Y791549D01*
X428956Y790750D01*
X431044D01*
X432974Y791549D01*
X434451Y793026D01*
X434795Y793856D01*
X435956Y794750D01*
X438044D01*
X439974Y795549D01*
X441451Y797026D01*
X442250Y798956D01*
Y801044D01*
X441451Y802974D01*
X439974Y804451D01*
X438044Y805250D01*
X435956D01*
X434026Y804451D01*
X432549Y802974D01*
X432205Y802144D01*
X431044Y801250D01*
X428956D01*
X427026Y800451D01*
X426000Y799425D01*
X424974Y800451D01*
X423044Y801250D01*
X420956D01*
X419026Y800451D01*
X417744Y799169D01*
X417000Y799057D01*
X416255Y799169D01*
X414974Y800451D01*
X413044Y801250D01*
X410956D01*
X409473Y800636D01*
X408866Y802100D01*
X407389Y803577D01*
X405460Y804377D01*
X403371D01*
X401441Y803577D01*
X399965Y802100D01*
X399751Y801584D01*
X398285Y802191D01*
X396197D01*
X394267Y801392D01*
X393480Y800604D01*
X392715Y801369D01*
X390785Y802169D01*
X388697D01*
X386767Y801369D01*
X386181Y800783D01*
X385224Y801740D01*
X383294Y802539D01*
X381206D01*
X379276Y801740D01*
X378329Y800793D01*
X377059Y801319D01*
Y812000D01*
X377059Y812000D01*
X376826Y813170D01*
X376163Y814163D01*
X376163Y814163D01*
X358808Y831518D01*
X359294Y832691D01*
X441483D01*
X449441Y824733D01*
D02*
G37*
G36*
X689564Y756860D02*
X689476Y755518D01*
X689084Y755255D01*
X687115D01*
X679458Y762913D01*
X678465Y763576D01*
X677295Y763809D01*
X677295Y763809D01*
X438735D01*
X437887Y765079D01*
X438250Y765956D01*
Y767441D01*
X448750D01*
X448750Y767441D01*
X448750Y767441D01*
X678983D01*
X689564Y756860D01*
D02*
G37*
G36*
X682790Y750930D02*
Y748961D01*
X683259Y747829D01*
X682410Y746559D01*
X626235D01*
X625709Y747829D01*
X626406Y748526D01*
X627206Y750456D01*
Y752544D01*
X626406Y754474D01*
X624930Y755951D01*
X623794Y756421D01*
X624046Y757691D01*
X676028D01*
X682790Y750930D01*
D02*
G37*
G36*
X620118Y756421D02*
X618982Y755951D01*
X617505Y754474D01*
X616706Y752544D01*
Y750456D01*
X617505Y748526D01*
X618202Y747829D01*
X617676Y746559D01*
X600235D01*
X599709Y747829D01*
X600406Y748526D01*
X601206Y750456D01*
Y752544D01*
X600406Y754474D01*
X598930Y755951D01*
X597794Y756421D01*
X598046Y757691D01*
X619865D01*
X620118Y756421D01*
D02*
G37*
G36*
X594118D02*
X592982Y755951D01*
X591505Y754474D01*
X590706Y752544D01*
Y750456D01*
X591505Y748526D01*
X592202Y747829D01*
X591676Y746559D01*
X543254D01*
X542965Y747666D01*
X542959Y747829D01*
X544407Y749276D01*
X545206Y751206D01*
Y753294D01*
X544407Y755224D01*
X543209Y756421D01*
X543604Y757691D01*
X593865D01*
X594118Y756421D01*
D02*
G37*
G36*
X536702D02*
X535505Y755224D01*
X534706Y753294D01*
Y751206D01*
X535505Y749276D01*
X536952Y747829D01*
X536947Y747666D01*
X536658Y746559D01*
X504235D01*
X504044Y747750D01*
X505974Y748549D01*
X507451Y750026D01*
X508250Y751956D01*
Y754044D01*
X507451Y755974D01*
X507003Y756421D01*
X507529Y757691D01*
X536307D01*
X536702Y756421D01*
D02*
G37*
G36*
X418714Y767960D02*
Y765991D01*
X419514Y764062D01*
X420906Y762670D01*
Y761922D01*
X420906Y761922D01*
X421138Y760751D01*
X421802Y759759D01*
X422973Y758587D01*
X422973Y758587D01*
X423965Y757924D01*
X425136Y757691D01*
X425136Y757691D01*
X498471D01*
X498997Y756421D01*
X498549Y755974D01*
X497750Y754044D01*
Y751956D01*
X498549Y750026D01*
X500026Y748549D01*
X501956Y747750D01*
X501766Y746559D01*
X397989D01*
X396361Y748187D01*
Y750155D01*
X395562Y752085D01*
X394990Y752656D01*
X394397Y753722D01*
X394990Y754315D01*
X395874Y755199D01*
X396673Y757129D01*
Y759217D01*
X395874Y761147D01*
X394397Y762624D01*
X392778Y763294D01*
X392911Y763617D01*
Y765705D01*
X392358Y767040D01*
X392867Y767849D01*
X393215Y768191D01*
X418483D01*
X418714Y767960D01*
D02*
G37*
G36*
X389345Y492671D02*
X387733Y491059D01*
X269694D01*
X269442Y492329D01*
X269974Y492549D01*
X271366Y493941D01*
X388819D01*
X389345Y492671D01*
D02*
G37*
%LPC*%
G36*
X753044Y458250D02*
X750956D01*
X749026Y457451D01*
X748500Y456925D01*
X747974Y457451D01*
X746044Y458250D01*
X743956D01*
X742026Y457451D01*
X741500Y456925D01*
X740974Y457451D01*
X739044Y458250D01*
X736956D01*
X735026Y457451D01*
X734500Y456925D01*
X733974Y457451D01*
X732044Y458250D01*
X729956D01*
X728026Y457451D01*
X726549Y455974D01*
X725750Y454044D01*
Y451956D01*
X726549Y450026D01*
X728026Y448549D01*
X729956Y447750D01*
X732044D01*
X733974Y448549D01*
X734500Y449075D01*
X735026Y448549D01*
X736956Y447750D01*
X739044D01*
X740974Y448549D01*
X741500Y449075D01*
X742026Y448549D01*
X743956Y447750D01*
X746044D01*
X747974Y448549D01*
X748500Y449075D01*
X749026Y448549D01*
X750956Y447750D01*
X753044D01*
X754974Y448549D01*
X756451Y450026D01*
X757250Y451956D01*
Y454044D01*
X756451Y455974D01*
X754974Y457451D01*
X753044Y458250D01*
D02*
G37*
G36*
X620044D02*
X617956D01*
X616026Y457451D01*
X615500Y456925D01*
X614974Y457451D01*
X613044Y458250D01*
X610956D01*
X609026Y457451D01*
X608500Y456925D01*
X607974Y457451D01*
X606044Y458250D01*
X603956D01*
X602026Y457451D01*
X601500Y456925D01*
X600974Y457451D01*
X599044Y458250D01*
X596956D01*
X595026Y457451D01*
X593549Y455974D01*
X592750Y454044D01*
Y451956D01*
X593549Y450026D01*
X595026Y448549D01*
X596956Y447750D01*
X599044D01*
X600974Y448549D01*
X601500Y449075D01*
X602026Y448549D01*
X603956Y447750D01*
X606044D01*
X607974Y448549D01*
X608500Y449075D01*
X609026Y448549D01*
X610956Y447750D01*
X613044D01*
X614974Y448549D01*
X615500Y449075D01*
X616026Y448549D01*
X617956Y447750D01*
X620044D01*
X621974Y448549D01*
X623451Y450026D01*
X624250Y451956D01*
Y454044D01*
X623451Y455974D01*
X621974Y457451D01*
X620044Y458250D01*
D02*
G37*
G36*
X801044Y463250D02*
X798956D01*
X797026Y462451D01*
X795549Y460974D01*
X794750Y459044D01*
Y456956D01*
X795549Y455026D01*
X797026Y453549D01*
X798956Y452750D01*
X801044D01*
X802974Y453549D01*
X804451Y455026D01*
X805250Y456956D01*
Y459044D01*
X804451Y460974D01*
X802974Y462451D01*
X801044Y463250D01*
D02*
G37*
G36*
X377044Y462250D02*
X374956D01*
X373026Y461451D01*
X371549Y459974D01*
X370750Y458044D01*
Y455956D01*
X371549Y454026D01*
X373026Y452549D01*
X374956Y451750D01*
X377044D01*
X378974Y452549D01*
X380451Y454026D01*
X381250Y455956D01*
Y458044D01*
X380451Y459974D01*
X378974Y461451D01*
X377044Y462250D01*
D02*
G37*
G36*
X891044Y453250D02*
X888956D01*
X887026Y452451D01*
X885549Y450974D01*
X885467Y450957D01*
X884974Y451451D01*
X883044Y452250D01*
X880956D01*
X879026Y451451D01*
X877549Y449974D01*
X876750Y448044D01*
Y445956D01*
X877549Y444026D01*
X879026Y442549D01*
X880956Y441750D01*
X883044D01*
X884974Y442549D01*
X886451Y444026D01*
X886533Y444042D01*
X887026Y443549D01*
X888956Y442750D01*
X891044D01*
X892974Y443549D01*
X894451Y445026D01*
X895250Y446956D01*
Y449044D01*
X894451Y450974D01*
X892974Y452451D01*
X891044Y453250D01*
D02*
G37*
G36*
X716044Y454250D02*
X713956D01*
X712026Y453451D01*
X710549Y451974D01*
X709750Y450044D01*
Y449687D01*
X708694Y448981D01*
X708044Y449250D01*
X705956D01*
X704026Y448451D01*
X702549Y446974D01*
X701750Y445044D01*
Y442956D01*
X702549Y441026D01*
X704026Y439549D01*
X705956Y438750D01*
X708044D01*
X709974Y439549D01*
X711451Y441026D01*
X712250Y442956D01*
Y443313D01*
X713306Y444019D01*
X713956Y443750D01*
X716044D01*
X717974Y444549D01*
X719451Y446026D01*
X720250Y447956D01*
Y450044D01*
X719451Y451974D01*
X717974Y453451D01*
X716044Y454250D01*
D02*
G37*
G36*
X505044Y459250D02*
X502956D01*
X501026Y458451D01*
X499549Y456974D01*
X498750Y455044D01*
Y452956D01*
X499549Y451026D01*
X501026Y449549D01*
X502956Y448750D01*
X505044D01*
X506974Y449549D01*
X508451Y451026D01*
X509250Y452956D01*
Y455044D01*
X508451Y456974D01*
X506974Y458451D01*
X505044Y459250D01*
D02*
G37*
G36*
X584044Y458250D02*
X581956D01*
X580026Y457451D01*
X578549Y455974D01*
X577750Y454044D01*
Y451956D01*
X578549Y450026D01*
X580026Y448549D01*
X581956Y447750D01*
X584044D01*
X585974Y448549D01*
X587451Y450026D01*
X588250Y451956D01*
Y454044D01*
X587451Y455974D01*
X585974Y457451D01*
X584044Y458250D01*
D02*
G37*
G36*
X404044Y457250D02*
X401956D01*
X400026Y456451D01*
X398549Y454974D01*
X397750Y453044D01*
Y450956D01*
X398549Y449026D01*
X400026Y447549D01*
X401956Y446750D01*
X404044D01*
X405974Y447549D01*
X407451Y449026D01*
X408250Y450956D01*
Y453044D01*
X407451Y454974D01*
X405974Y456451D01*
X404044Y457250D01*
D02*
G37*
G36*
X658044Y447250D02*
X655956D01*
X654026Y446451D01*
X653500Y445925D01*
X652974Y446451D01*
X651044Y447250D01*
X648956D01*
X647026Y446451D01*
X646500Y445925D01*
X645974Y446451D01*
X644044Y447250D01*
X641956D01*
X640026Y446451D01*
X639500Y445925D01*
X638974Y446451D01*
X637044Y447250D01*
X634956D01*
X633026Y446451D01*
X631549Y444974D01*
X630750Y443044D01*
Y440956D01*
X631549Y439026D01*
X633026Y437549D01*
X634956Y436750D01*
X637044D01*
X638974Y437549D01*
X639500Y438075D01*
X640026Y437549D01*
X641956Y436750D01*
X644044D01*
X645974Y437549D01*
X646500Y438075D01*
X647026Y437549D01*
X648956Y436750D01*
X651044D01*
X652974Y437549D01*
X653500Y438075D01*
X654026Y437549D01*
X655956Y436750D01*
X658044D01*
X659974Y437549D01*
X661451Y439026D01*
X662250Y440956D01*
Y443044D01*
X661451Y444974D01*
X659974Y446451D01*
X658044Y447250D01*
D02*
G37*
G36*
X859195Y452949D02*
X857106D01*
X855177Y452149D01*
X853700Y450672D01*
X852901Y448743D01*
Y446654D01*
X853700Y444725D01*
X855177Y443248D01*
X857106Y442449D01*
X859195D01*
X861124Y443248D01*
X862601Y444725D01*
X863401Y446654D01*
Y448743D01*
X862601Y450672D01*
X861124Y452149D01*
X859195Y452949D01*
D02*
G37*
G36*
X796044Y452250D02*
X793956D01*
X792026Y451451D01*
X790549Y449974D01*
X789750Y448044D01*
Y445956D01*
X790549Y444026D01*
X792026Y442549D01*
X793956Y441750D01*
X796044D01*
X797974Y442549D01*
X799451Y444026D01*
X800250Y445956D01*
Y448044D01*
X799451Y449974D01*
X797974Y451451D01*
X796044Y452250D01*
D02*
G37*
G36*
X385044D02*
X382956D01*
X381026Y451451D01*
X379549Y449974D01*
X378750Y448044D01*
Y445956D01*
X379549Y444026D01*
X381026Y442549D01*
X382956Y441750D01*
X385044D01*
X386974Y442549D01*
X388451Y444026D01*
X389250Y445956D01*
Y448044D01*
X388451Y449974D01*
X386974Y451451D01*
X385044Y452250D01*
D02*
G37*
G36*
X494044Y451250D02*
X491956D01*
X490026Y450451D01*
X488549Y448974D01*
X487750Y447044D01*
Y444956D01*
X488549Y443026D01*
X490026Y441549D01*
X491956Y440750D01*
X494044D01*
X495974Y441549D01*
X497451Y443026D01*
X498250Y444956D01*
Y447044D01*
X497451Y448974D01*
X495974Y450451D01*
X494044Y451250D01*
D02*
G37*
G36*
X576044Y449250D02*
X573956D01*
X572026Y448451D01*
X570549Y446974D01*
X569750Y445044D01*
Y442956D01*
X570549Y441026D01*
X572026Y439549D01*
X573956Y438750D01*
X576044D01*
X577974Y439549D01*
X579451Y441026D01*
X580250Y442956D01*
Y445044D01*
X579451Y446974D01*
X577974Y448451D01*
X576044Y449250D01*
D02*
G37*
G36*
X375044Y436250D02*
X372956D01*
X371026Y435451D01*
X369549Y433974D01*
X368750Y432044D01*
Y429956D01*
X369549Y428026D01*
X371026Y426549D01*
X372956Y425750D01*
X375044D01*
X376974Y426549D01*
X378451Y428026D01*
X379250Y429956D01*
Y432044D01*
X378451Y433974D01*
X376974Y435451D01*
X375044Y436250D01*
D02*
G37*
G36*
X676044Y412250D02*
X673956D01*
X672026Y411451D01*
X671345Y410769D01*
X670663Y411451D01*
X668734Y412250D01*
X666645D01*
X664715Y411451D01*
X664092Y410827D01*
X663468Y411451D01*
X661539Y412250D01*
X659450D01*
X657521Y411451D01*
X656044Y409974D01*
X655245Y408044D01*
Y405956D01*
X656044Y404026D01*
X657521Y402549D01*
X659450Y401750D01*
X661539D01*
X663468Y402549D01*
X664092Y403173D01*
X664715Y402549D01*
X666645Y401750D01*
X668734D01*
X670663Y402549D01*
X671345Y403231D01*
X672026Y402549D01*
X673956Y401750D01*
X676044D01*
X677974Y402549D01*
X679451Y404026D01*
X680250Y405956D01*
Y408044D01*
X679451Y409974D01*
X677974Y411451D01*
X676044Y412250D01*
D02*
G37*
G36*
X342044Y414289D02*
X339956D01*
X338026Y413490D01*
X336549Y412013D01*
X335750Y410084D01*
Y407995D01*
X336549Y406065D01*
X338026Y404588D01*
X339956Y403789D01*
X342044D01*
X343974Y404588D01*
X345451Y406065D01*
X346250Y407995D01*
Y410084D01*
X345451Y412013D01*
X343974Y413490D01*
X342044Y414289D01*
D02*
G37*
G36*
X884544Y332750D02*
X882456D01*
X880526Y331951D01*
X880250Y331675D01*
X879974Y331951D01*
X878044Y332750D01*
X875956D01*
X874026Y331951D01*
X872549Y330474D01*
X871750Y328544D01*
Y326456D01*
X872549Y324526D01*
X873075Y324000D01*
X872549Y323474D01*
X871750Y321544D01*
Y319456D01*
X872549Y317526D01*
X873075Y317000D01*
X872549Y316474D01*
X871750Y314544D01*
Y312456D01*
X872549Y310526D01*
X874026Y309049D01*
X875956Y308250D01*
X878044D01*
X879974Y309049D01*
X880250Y309325D01*
X880526Y309049D01*
X882456Y308250D01*
X884544D01*
X886474Y309049D01*
X887951Y310526D01*
X888750Y312456D01*
Y314544D01*
X887951Y316474D01*
X887424Y317000D01*
X887951Y317526D01*
X888750Y319456D01*
Y321544D01*
X887951Y323474D01*
X887425Y324000D01*
X887951Y324526D01*
X888750Y326456D01*
Y328544D01*
X887951Y330474D01*
X886474Y331951D01*
X884544Y332750D01*
D02*
G37*
G36*
X865044D02*
X862956D01*
X861026Y331951D01*
X860000Y330925D01*
X858974Y331951D01*
X857044Y332750D01*
X854956D01*
X853026Y331951D01*
X852000Y330925D01*
X850974Y331951D01*
X849044Y332750D01*
X846956D01*
X845026Y331951D01*
X843549Y330474D01*
X842750Y328544D01*
Y326456D01*
X843549Y324526D01*
X844075Y324000D01*
X843549Y323474D01*
X842750Y321544D01*
Y319456D01*
X843549Y317526D01*
X844075Y317000D01*
X843549Y316474D01*
X842750Y314544D01*
Y312456D01*
X843549Y310526D01*
X845026Y309049D01*
X846956Y308250D01*
X849044D01*
X850974Y309049D01*
X852000Y310075D01*
X853026Y309049D01*
X854956Y308250D01*
X857044D01*
X858974Y309049D01*
X860000Y310075D01*
X861026Y309049D01*
X862956Y308250D01*
X865044D01*
X866974Y309049D01*
X868451Y310526D01*
X869250Y312456D01*
Y314544D01*
X868451Y316474D01*
X867924Y317000D01*
X868451Y317526D01*
X869250Y319456D01*
Y321544D01*
X868451Y323474D01*
X867925Y324000D01*
X868451Y324526D01*
X869250Y326456D01*
Y328544D01*
X868451Y330474D01*
X866974Y331951D01*
X865044Y332750D01*
D02*
G37*
G36*
X811044D02*
X808956D01*
X807026Y331951D01*
X806000Y330925D01*
X804974Y331951D01*
X803044Y332750D01*
X800956D01*
X799026Y331951D01*
X798000Y330925D01*
X796974Y331951D01*
X795044Y332750D01*
X792956D01*
X791026Y331951D01*
X790000Y330925D01*
X788974Y331951D01*
X787044Y332750D01*
X784956D01*
X783026Y331951D01*
X782000Y330925D01*
X780974Y331951D01*
X779044Y332750D01*
X776956D01*
X775026Y331951D01*
X774000Y330925D01*
X772974Y331951D01*
X771044Y332750D01*
X768956D01*
X767026Y331951D01*
X765549Y330474D01*
X764750Y328544D01*
Y326456D01*
X765549Y324526D01*
X766075Y324000D01*
X765549Y323474D01*
X764750Y321544D01*
Y319456D01*
X765549Y317526D01*
X766075Y317000D01*
X765549Y316474D01*
X764750Y314544D01*
Y312456D01*
X765549Y310526D01*
X767026Y309049D01*
X768956Y308250D01*
X771044D01*
X772974Y309049D01*
X774000Y310075D01*
X775026Y309049D01*
X776956Y308250D01*
X779044D01*
X780974Y309049D01*
X782000Y310075D01*
X783026Y309049D01*
X784956Y308250D01*
X787044D01*
X788974Y309049D01*
X790000Y310075D01*
X791026Y309049D01*
X792956Y308250D01*
X795044D01*
X796974Y309049D01*
X798000Y310075D01*
X799026Y309049D01*
X800956Y308250D01*
X803044D01*
X804974Y309049D01*
X806000Y310075D01*
X807026Y309049D01*
X808956Y308250D01*
X811044D01*
X812974Y309049D01*
X814451Y310526D01*
X815250Y312456D01*
Y314544D01*
X814451Y316474D01*
X813925Y317000D01*
X814451Y317526D01*
X815250Y319456D01*
Y321544D01*
X814451Y323474D01*
X813925Y324000D01*
X814451Y324526D01*
X815250Y326456D01*
Y328544D01*
X814451Y330474D01*
X812974Y331951D01*
X811044Y332750D01*
D02*
G37*
G36*
X731044D02*
X728956D01*
X727026Y331951D01*
X726000Y330925D01*
X724974Y331951D01*
X723044Y332750D01*
X720956D01*
X719026Y331951D01*
X718000Y330925D01*
X716974Y331951D01*
X715044Y332750D01*
X712956D01*
X711026Y331951D01*
X710000Y330925D01*
X708974Y331951D01*
X707044Y332750D01*
X704956D01*
X703026Y331951D01*
X702000Y330925D01*
X700974Y331951D01*
X699044Y332750D01*
X696956D01*
X695026Y331951D01*
X694000Y330925D01*
X692974Y331951D01*
X691044Y332750D01*
X688956D01*
X687026Y331951D01*
X685549Y330474D01*
X684750Y328544D01*
Y326456D01*
X685549Y324526D01*
X686075Y324000D01*
X685549Y323474D01*
X684750Y321544D01*
Y319456D01*
X685549Y317526D01*
X686075Y317000D01*
X685549Y316474D01*
X684750Y314544D01*
Y312456D01*
X685549Y310526D01*
X687026Y309049D01*
X688956Y308250D01*
X691044D01*
X692974Y309049D01*
X694000Y310075D01*
X695026Y309049D01*
X696956Y308250D01*
X699044D01*
X700974Y309049D01*
X702000Y310075D01*
X703026Y309049D01*
X704956Y308250D01*
X707044D01*
X708974Y309049D01*
X710000Y310075D01*
X711026Y309049D01*
X712956Y308250D01*
X715044D01*
X716974Y309049D01*
X718000Y310075D01*
X719026Y309049D01*
X720956Y308250D01*
X723044D01*
X724974Y309049D01*
X726000Y310075D01*
X727026Y309049D01*
X728956Y308250D01*
X731044D01*
X732974Y309049D01*
X734451Y310526D01*
X735250Y312456D01*
Y314544D01*
X734451Y316474D01*
X733925Y317000D01*
X734451Y317526D01*
X735250Y319456D01*
Y321544D01*
X734451Y323474D01*
X733925Y324000D01*
X734451Y324526D01*
X735250Y326456D01*
Y328544D01*
X734451Y330474D01*
X732974Y331951D01*
X731044Y332750D01*
D02*
G37*
G36*
X516044D02*
X513956D01*
X512026Y331951D01*
X511000Y330925D01*
X509974Y331951D01*
X508044Y332750D01*
X505956D01*
X504026Y331951D01*
X503000Y330925D01*
X501974Y331951D01*
X500044Y332750D01*
X497956D01*
X496026Y331951D01*
X495000Y330925D01*
X493974Y331951D01*
X492044Y332750D01*
X489956D01*
X488026Y331951D01*
X487000Y330925D01*
X485974Y331951D01*
X484044Y332750D01*
X481956D01*
X480026Y331951D01*
X479000Y330925D01*
X477974Y331951D01*
X476044Y332750D01*
X473956D01*
X472026Y331951D01*
X470549Y330474D01*
X469750Y328544D01*
Y326456D01*
X470549Y324526D01*
X471075Y324000D01*
X470549Y323474D01*
X469750Y321544D01*
Y319456D01*
X470549Y317526D01*
X471075Y317000D01*
X470549Y316474D01*
X469750Y314544D01*
Y312456D01*
X470549Y310526D01*
X472026Y309049D01*
X473956Y308250D01*
X476044D01*
X477974Y309049D01*
X479000Y310075D01*
X480026Y309049D01*
X481956Y308250D01*
X484044D01*
X485974Y309049D01*
X487000Y310075D01*
X488026Y309049D01*
X489956Y308250D01*
X492044D01*
X493974Y309049D01*
X495000Y310075D01*
X496026Y309049D01*
X497956Y308250D01*
X500044D01*
X501974Y309049D01*
X503000Y310075D01*
X504026Y309049D01*
X505956Y308250D01*
X508044D01*
X509974Y309049D01*
X511000Y310075D01*
X512026Y309049D01*
X513956Y308250D01*
X516044D01*
X517974Y309049D01*
X519451Y310526D01*
X520250Y312456D01*
Y314544D01*
X519451Y316474D01*
X518924Y317000D01*
X519451Y317526D01*
X520250Y319456D01*
Y321544D01*
X519451Y323474D01*
X518925Y324000D01*
X519451Y324526D01*
X520250Y326456D01*
Y328544D01*
X519451Y330474D01*
X517974Y331951D01*
X516044Y332750D01*
D02*
G37*
G36*
X597044Y332250D02*
X594956D01*
X593026Y331451D01*
X592000Y330425D01*
X590974Y331451D01*
X589044Y332250D01*
X586956D01*
X585026Y331451D01*
X584000Y330425D01*
X582974Y331451D01*
X581044Y332250D01*
X578956D01*
X577026Y331451D01*
X576000Y330425D01*
X574974Y331451D01*
X573044Y332250D01*
X570956D01*
X569026Y331451D01*
X568000Y330425D01*
X566974Y331451D01*
X565044Y332250D01*
X562956D01*
X561026Y331451D01*
X560000Y330425D01*
X558974Y331451D01*
X557044Y332250D01*
X554956D01*
X553026Y331451D01*
X551549Y329974D01*
X550750Y328044D01*
Y325956D01*
X551549Y324026D01*
X552075Y323500D01*
X551549Y322974D01*
X550750Y321044D01*
Y318956D01*
X551549Y317026D01*
X552075Y316500D01*
X551549Y315974D01*
X550750Y314044D01*
Y311956D01*
X551549Y310026D01*
X553026Y308549D01*
X554956Y307750D01*
X557044D01*
X558974Y308549D01*
X560000Y309575D01*
X561026Y308549D01*
X562956Y307750D01*
X565044D01*
X566974Y308549D01*
X568000Y309575D01*
X569026Y308549D01*
X570956Y307750D01*
X573044D01*
X574974Y308549D01*
X576000Y309575D01*
X577026Y308549D01*
X578956Y307750D01*
X581044D01*
X582974Y308549D01*
X584000Y309575D01*
X585026Y308549D01*
X586956Y307750D01*
X589044D01*
X590974Y308549D01*
X592000Y309575D01*
X593026Y308549D01*
X594956Y307750D01*
X597044D01*
X598974Y308549D01*
X600451Y310026D01*
X601250Y311956D01*
Y314044D01*
X600451Y315974D01*
X599925Y316500D01*
X600451Y317026D01*
X601250Y318956D01*
Y321044D01*
X600451Y322974D01*
X599925Y323500D01*
X600451Y324026D01*
X601250Y325956D01*
Y328044D01*
X600451Y329974D01*
X598974Y331451D01*
X597044Y332250D01*
D02*
G37*
G36*
X434044D02*
X431956D01*
X430026Y331451D01*
X429000Y330425D01*
X427974Y331451D01*
X426044Y332250D01*
X423956D01*
X422026Y331451D01*
X421000Y330425D01*
X419974Y331451D01*
X418044Y332250D01*
X415956D01*
X414026Y331451D01*
X413000Y330425D01*
X411974Y331451D01*
X410044Y332250D01*
X407956D01*
X406026Y331451D01*
X405000Y330425D01*
X403974Y331451D01*
X402044Y332250D01*
X399956D01*
X398026Y331451D01*
X397000Y330425D01*
X395974Y331451D01*
X394044Y332250D01*
X391956D01*
X390026Y331451D01*
X388549Y329974D01*
X387750Y328044D01*
Y325956D01*
X388549Y324026D01*
X389075Y323500D01*
X388549Y322974D01*
X387750Y321044D01*
Y318956D01*
X388549Y317026D01*
X389075Y316500D01*
X388549Y315974D01*
X387750Y314044D01*
Y311956D01*
X388549Y310026D01*
X390026Y308549D01*
X391956Y307750D01*
X394044D01*
X395974Y308549D01*
X397000Y309575D01*
X398026Y308549D01*
X399956Y307750D01*
X402044D01*
X403974Y308549D01*
X405000Y309575D01*
X406026Y308549D01*
X407956Y307750D01*
X410044D01*
X411974Y308549D01*
X413000Y309575D01*
X414026Y308549D01*
X415956Y307750D01*
X418044D01*
X419974Y308549D01*
X421000Y309575D01*
X422026Y308549D01*
X423956Y307750D01*
X426044D01*
X427974Y308549D01*
X429000Y309575D01*
X430026Y308549D01*
X431956Y307750D01*
X434044D01*
X435974Y308549D01*
X437451Y310026D01*
X438250Y311956D01*
Y314044D01*
X437451Y315974D01*
X436925Y316500D01*
X437451Y317026D01*
X438250Y318956D01*
Y321044D01*
X437451Y322974D01*
X436925Y323500D01*
X437451Y324026D01*
X438250Y325956D01*
Y328044D01*
X437451Y329974D01*
X435974Y331451D01*
X434044Y332250D01*
D02*
G37*
G36*
X823044Y338250D02*
X820956D01*
X819026Y337451D01*
X817549Y335974D01*
X816750Y334044D01*
Y331956D01*
X817549Y330026D01*
X819026Y328549D01*
X820956Y327750D01*
X823044D01*
X824974Y328549D01*
X826451Y330026D01*
X827250Y331956D01*
Y334044D01*
X826451Y335974D01*
X824974Y337451D01*
X823044Y338250D01*
D02*
G37*
G36*
X746044Y333250D02*
X743956D01*
X742026Y332451D01*
X740549Y330974D01*
X739750Y329044D01*
Y326956D01*
X740549Y325026D01*
X742026Y323549D01*
X743956Y322750D01*
X746044D01*
X747974Y323549D01*
X749451Y325026D01*
X750250Y326956D01*
Y329044D01*
X749451Y330974D01*
X747974Y332451D01*
X746044Y333250D01*
D02*
G37*
G36*
X665044D02*
X662956D01*
X661026Y332451D01*
X659549Y330974D01*
X658750Y329044D01*
Y326956D01*
X659549Y325026D01*
X661026Y323549D01*
X662956Y322750D01*
X665044D01*
X666974Y323549D01*
X668451Y325026D01*
X669250Y326956D01*
Y329044D01*
X668451Y330974D01*
X666974Y332451D01*
X665044Y333250D01*
D02*
G37*
G36*
X620495D02*
X618406D01*
X616477Y332451D01*
X615000Y330974D01*
X614200Y329044D01*
Y326956D01*
X615000Y325026D01*
X616477Y323549D01*
X618406Y322750D01*
X620495D01*
X622424Y323549D01*
X623901Y325026D01*
X624700Y326956D01*
Y329044D01*
X623901Y330974D01*
X622424Y332451D01*
X620495Y333250D01*
D02*
G37*
G36*
X452044D02*
X449956D01*
X448026Y332451D01*
X446549Y330974D01*
X445750Y329044D01*
Y326956D01*
X446549Y325026D01*
X448026Y323549D01*
X449956Y322750D01*
X452044D01*
X453974Y323549D01*
X455451Y325026D01*
X456250Y326956D01*
Y329044D01*
X455451Y330974D01*
X453974Y332451D01*
X452044Y333250D01*
D02*
G37*
G36*
X370044D02*
X367956D01*
X366026Y332451D01*
X364549Y330974D01*
X363750Y329044D01*
Y326956D01*
X364549Y325026D01*
X366026Y323549D01*
X367956Y322750D01*
X370044D01*
X371974Y323549D01*
X373451Y325026D01*
X374250Y326956D01*
Y329044D01*
X373451Y330974D01*
X371974Y332451D01*
X370044Y333250D01*
D02*
G37*
G36*
X935044Y305250D02*
X932956D01*
X931026Y304451D01*
X929549Y302974D01*
X928750Y301044D01*
Y298956D01*
X929549Y297026D01*
X931026Y295549D01*
X932956Y294750D01*
X935044D01*
X936974Y295549D01*
X938451Y297026D01*
X939250Y298956D01*
Y301044D01*
X938451Y302974D01*
X936974Y304451D01*
X935044Y305250D01*
D02*
G37*
G36*
X182044Y297250D02*
X179956D01*
X178026Y296451D01*
X176549Y294974D01*
X175750Y293044D01*
Y290956D01*
X176549Y289026D01*
X178026Y287549D01*
X179956Y286750D01*
X182044D01*
X183974Y287549D01*
X185451Y289026D01*
X186250Y290956D01*
Y293044D01*
X185451Y294974D01*
X183974Y296451D01*
X182044Y297250D01*
D02*
G37*
G36*
X1155044Y295250D02*
X1152956D01*
X1151026Y294451D01*
X1149549Y292974D01*
X1148750Y291044D01*
Y288956D01*
X1149549Y287026D01*
X1151026Y285549D01*
X1152956Y284750D01*
X1155044D01*
X1156974Y285549D01*
X1158451Y287026D01*
X1159250Y288956D01*
Y291044D01*
X1158451Y292974D01*
X1156974Y294451D01*
X1155044Y295250D01*
D02*
G37*
G36*
X1108044Y289250D02*
X1105956D01*
X1104026Y288451D01*
X1102549Y286974D01*
X1101750Y285044D01*
Y282956D01*
X1102549Y281026D01*
X1104026Y279549D01*
X1105956Y278750D01*
X1108044D01*
X1109974Y279549D01*
X1111451Y281026D01*
X1112250Y282956D01*
Y285044D01*
X1111451Y286974D01*
X1109974Y288451D01*
X1108044Y289250D01*
D02*
G37*
G36*
X1049044Y285250D02*
X1046956D01*
X1045026Y284451D01*
X1043549Y282974D01*
X1042750Y281044D01*
Y278956D01*
X1043549Y277026D01*
X1045026Y275549D01*
X1046956Y274750D01*
X1049044D01*
X1050974Y275549D01*
X1052451Y277026D01*
X1053250Y278956D01*
Y281044D01*
X1052451Y282974D01*
X1050974Y284451D01*
X1049044Y285250D01*
D02*
G37*
G36*
X76044Y281250D02*
X73956D01*
X72026Y280451D01*
X70549Y278974D01*
X69750Y277044D01*
Y274956D01*
X70549Y273026D01*
X72026Y271549D01*
X73956Y270750D01*
X76044D01*
X77974Y271549D01*
X79451Y273026D01*
X80250Y274956D01*
Y277044D01*
X79451Y278974D01*
X77974Y280451D01*
X76044Y281250D01*
D02*
G37*
G36*
X1171044Y268250D02*
X1168956D01*
X1167026Y267451D01*
X1165549Y265974D01*
X1164750Y264044D01*
Y261956D01*
X1165549Y260026D01*
X1167026Y258549D01*
X1168956Y257750D01*
X1171044D01*
X1172974Y258549D01*
X1174451Y260026D01*
X1175250Y261956D01*
Y264044D01*
X1174451Y265974D01*
X1172974Y267451D01*
X1171044Y268250D01*
D02*
G37*
G36*
X915044Y274750D02*
X912956D01*
X911026Y273951D01*
X909549Y272474D01*
X908750Y270544D01*
Y268456D01*
X909549Y266526D01*
X910575Y265500D01*
X909549Y264474D01*
X908750Y262544D01*
Y260456D01*
X909549Y258526D01*
X910575Y257500D01*
X909549Y256474D01*
X908750Y254544D01*
Y252456D01*
X909549Y250526D01*
X911026Y249049D01*
X912956Y248250D01*
X915044D01*
X916974Y249049D01*
X917500Y249575D01*
X918026Y249049D01*
X919956Y248250D01*
X922044D01*
X923974Y249049D01*
X925451Y250526D01*
X926250Y252456D01*
Y254544D01*
X925451Y256474D01*
X924425Y257500D01*
X925451Y258526D01*
X926250Y260456D01*
Y262544D01*
X925451Y264474D01*
X924425Y265500D01*
X925451Y266526D01*
X926250Y268456D01*
Y270544D01*
X925451Y272474D01*
X923974Y273951D01*
X922044Y274750D01*
X919956D01*
X918026Y273951D01*
X917500Y273425D01*
X916974Y273951D01*
X915044Y274750D01*
D02*
G37*
G36*
X1174044Y256250D02*
X1171956D01*
X1170026Y255451D01*
X1168549Y253974D01*
X1167750Y252044D01*
Y249956D01*
X1168549Y248026D01*
X1170026Y246549D01*
X1171956Y245750D01*
X1174044D01*
X1175974Y246549D01*
X1177451Y248026D01*
X1178250Y249956D01*
Y252044D01*
X1177451Y253974D01*
X1175974Y255451D01*
X1174044Y256250D01*
D02*
G37*
G36*
X1044044Y251250D02*
X1041956D01*
X1040026Y250451D01*
X1038549Y248974D01*
X1037750Y247044D01*
Y244956D01*
X1038549Y243026D01*
X1040026Y241549D01*
X1041956Y240750D01*
X1044044D01*
X1045974Y241549D01*
X1047451Y243026D01*
X1048250Y244956D01*
Y247044D01*
X1047451Y248974D01*
X1045974Y250451D01*
X1044044Y251250D01*
D02*
G37*
G36*
X87044Y245250D02*
X84956D01*
X83026Y244451D01*
X81549Y242974D01*
X80750Y241044D01*
Y238956D01*
X81549Y237026D01*
X83026Y235549D01*
X84956Y234750D01*
X87044D01*
X88974Y235549D01*
X90451Y237026D01*
X91250Y238956D01*
Y241044D01*
X90451Y242974D01*
X88974Y244451D01*
X87044Y245250D01*
D02*
G37*
G36*
X73044Y233250D02*
X70956D01*
X69026Y232451D01*
X68500Y231925D01*
X67974Y232451D01*
X66044Y233250D01*
X63956D01*
X62026Y232451D01*
X61000Y231425D01*
X59974Y232451D01*
X58044Y233250D01*
X55956D01*
X54026Y232451D01*
X52549Y230974D01*
X51750Y229044D01*
Y226956D01*
X52549Y225026D01*
X53075Y224500D01*
X52549Y223974D01*
X51750Y222044D01*
Y219956D01*
X52549Y218026D01*
X54026Y216549D01*
X55956Y215750D01*
X58044D01*
X59974Y216549D01*
X61000Y217575D01*
X62026Y216549D01*
X63956Y215750D01*
X66044D01*
X67974Y216549D01*
X68500Y217075D01*
X69026Y216549D01*
X70956Y215750D01*
X73044D01*
X74974Y216549D01*
X76451Y218026D01*
X77250Y219956D01*
Y222044D01*
X76451Y223974D01*
X75925Y224500D01*
X76451Y225026D01*
X77250Y226956D01*
Y229044D01*
X76451Y230974D01*
X74974Y232451D01*
X73044Y233250D01*
D02*
G37*
G36*
X1178044Y241250D02*
X1175956D01*
X1174026Y240451D01*
X1172549Y238974D01*
X1171750Y237044D01*
Y234956D01*
X1172549Y233026D01*
X1174026Y231549D01*
X1175956Y230750D01*
X1178044D01*
X1179974Y231549D01*
X1181451Y233026D01*
X1182250Y234956D01*
Y237044D01*
X1181451Y238974D01*
X1179974Y240451D01*
X1178044Y241250D01*
D02*
G37*
G36*
X1067044Y236250D02*
X1064956D01*
X1063026Y235451D01*
X1061549Y233974D01*
X1060750Y232044D01*
Y229956D01*
X1061549Y228026D01*
X1063026Y226549D01*
X1064956Y225750D01*
X1067044D01*
X1068974Y226549D01*
X1070451Y228026D01*
X1071250Y229956D01*
Y232044D01*
X1070451Y233974D01*
X1068974Y235451D01*
X1067044Y236250D01*
D02*
G37*
G36*
X143544Y247500D02*
X141456D01*
X139526Y246701D01*
X138049Y245224D01*
X137250Y243294D01*
Y241206D01*
X138049Y239276D01*
X138700Y238625D01*
X138049Y237974D01*
X137250Y236044D01*
Y233956D01*
X138049Y232026D01*
X139075Y231000D01*
X138049Y229974D01*
X137250Y228044D01*
Y225956D01*
X138049Y224026D01*
X139526Y222549D01*
X141456Y221750D01*
X143544D01*
X145474Y222549D01*
X146951Y224026D01*
X147750Y225956D01*
Y228044D01*
X146951Y229974D01*
X145925Y231000D01*
X146951Y232026D01*
X147750Y233956D01*
Y236044D01*
X146951Y237974D01*
X146300Y238625D01*
X146951Y239276D01*
X147750Y241206D01*
Y243294D01*
X146951Y245224D01*
X145474Y246701D01*
X143544Y247500D01*
D02*
G37*
G36*
X915044Y246250D02*
X912956D01*
X911026Y245451D01*
X909549Y243974D01*
X908750Y242044D01*
Y239956D01*
X909549Y238026D01*
X910575Y237000D01*
X909549Y235974D01*
X908750Y234044D01*
Y231956D01*
X909549Y230026D01*
X910575Y229000D01*
X909549Y227974D01*
X908750Y226044D01*
Y223956D01*
X909549Y222026D01*
X911026Y220549D01*
X912956Y219750D01*
X915044D01*
X916974Y220549D01*
X917500Y221075D01*
X918026Y220549D01*
X919956Y219750D01*
X922044D01*
X923974Y220549D01*
X925451Y222026D01*
X926250Y223956D01*
Y226044D01*
X925451Y227974D01*
X924425Y229000D01*
X925451Y230026D01*
X926250Y231956D01*
Y234044D01*
X925451Y235974D01*
X924425Y237000D01*
X925451Y238026D01*
X926250Y239956D01*
Y242044D01*
X925451Y243974D01*
X923974Y245451D01*
X922044Y246250D01*
X919956D01*
X918026Y245451D01*
X917500Y244925D01*
X916974Y245451D01*
X915044Y246250D01*
D02*
G37*
G36*
X787527Y246500D02*
X783973D01*
X780539Y245580D01*
X777461Y243803D01*
X774947Y241289D01*
X773170Y238211D01*
X772250Y234777D01*
Y231223D01*
X773170Y227789D01*
X774947Y224711D01*
X777461Y222197D01*
X780539Y220420D01*
X783973Y219500D01*
X787527D01*
X790961Y220420D01*
X794039Y222197D01*
X796553Y224711D01*
X798330Y227789D01*
X799250Y231223D01*
Y234777D01*
X798330Y238211D01*
X796553Y241289D01*
X794039Y243803D01*
X790961Y245580D01*
X787527Y246500D01*
D02*
G37*
G36*
X416027D02*
X412473D01*
X409039Y245580D01*
X405961Y243803D01*
X403447Y241289D01*
X401670Y238211D01*
X400750Y234777D01*
Y231223D01*
X401670Y227789D01*
X403447Y224711D01*
X405961Y222197D01*
X409039Y220420D01*
X412473Y219500D01*
X416027D01*
X419461Y220420D01*
X422539Y222197D01*
X425053Y224711D01*
X426830Y227789D01*
X427750Y231223D01*
Y234777D01*
X426830Y238211D01*
X425053Y241289D01*
X422539Y243803D01*
X419461Y245580D01*
X416027Y246500D01*
D02*
G37*
G36*
X1182044Y229250D02*
X1179956D01*
X1178026Y228451D01*
X1176549Y226974D01*
X1175750Y225044D01*
Y222956D01*
X1176549Y221026D01*
X1178026Y219549D01*
X1179956Y218750D01*
X1182044D01*
X1183974Y219549D01*
X1185451Y221026D01*
X1186250Y222956D01*
Y225044D01*
X1185451Y226974D01*
X1183974Y228451D01*
X1182044Y229250D01*
D02*
G37*
G36*
X214044Y228250D02*
X211956D01*
X210026Y227451D01*
X208549Y225974D01*
X207750Y224044D01*
Y221956D01*
X208549Y220026D01*
X210026Y218549D01*
X211956Y217750D01*
X214044D01*
X215974Y218549D01*
X217451Y220026D01*
X218250Y221956D01*
Y224044D01*
X217451Y225974D01*
X215974Y227451D01*
X214044Y228250D01*
D02*
G37*
G36*
X187044Y227250D02*
X184956D01*
X183026Y226451D01*
X181549Y224974D01*
X180750Y223044D01*
Y220956D01*
X181549Y219026D01*
X183026Y217549D01*
X184956Y216750D01*
X187044D01*
X188974Y217549D01*
X190451Y219026D01*
X191250Y220956D01*
Y223044D01*
X190451Y224974D01*
X188974Y226451D01*
X187044Y227250D01*
D02*
G37*
G36*
X174044D02*
X171956D01*
X170026Y226451D01*
X168549Y224974D01*
X167750Y223044D01*
Y220956D01*
X168549Y219026D01*
X170026Y217549D01*
X171956Y216750D01*
X174044D01*
X175974Y217549D01*
X177451Y219026D01*
X178250Y220956D01*
Y223044D01*
X177451Y224974D01*
X175974Y226451D01*
X174044Y227250D01*
D02*
G37*
G36*
X162044D02*
X159956D01*
X158026Y226451D01*
X156549Y224974D01*
X155750Y223044D01*
Y220956D01*
X156549Y219026D01*
X158026Y217549D01*
X159956Y216750D01*
X162044D01*
X163974Y217549D01*
X165451Y219026D01*
X166250Y220956D01*
Y223044D01*
X165451Y224974D01*
X163974Y226451D01*
X162044Y227250D01*
D02*
G37*
G36*
X744750Y235851D02*
X725250D01*
X722183Y235448D01*
X719324Y234264D01*
X716870Y232380D01*
X714986Y229926D01*
X713802Y227067D01*
X713399Y224000D01*
X713802Y220933D01*
X714986Y218074D01*
X716870Y215620D01*
X719324Y213736D01*
X722183Y212553D01*
X725250Y212149D01*
X744750D01*
X747817Y212553D01*
X750676Y213736D01*
X753130Y215620D01*
X755014Y218074D01*
X756198Y220933D01*
X756601Y224000D01*
X756198Y227067D01*
X755014Y229926D01*
X753130Y232380D01*
X750676Y234264D01*
X747817Y235448D01*
X744750Y235851D01*
D02*
G37*
G36*
X677250D02*
X657750D01*
X654683Y235448D01*
X651824Y234264D01*
X649370Y232380D01*
X647486Y229926D01*
X646302Y227067D01*
X645899Y224000D01*
X646302Y220933D01*
X647486Y218074D01*
X649370Y215620D01*
X651824Y213736D01*
X654683Y212553D01*
X657750Y212149D01*
X677250D01*
X680317Y212553D01*
X683176Y213736D01*
X685630Y215620D01*
X687514Y218074D01*
X688698Y220933D01*
X689101Y224000D01*
X688698Y227067D01*
X687514Y229926D01*
X685630Y232380D01*
X683176Y234264D01*
X680317Y235448D01*
X677250Y235851D01*
D02*
G37*
G36*
X609750D02*
X590250D01*
X587183Y235448D01*
X584324Y234264D01*
X581870Y232380D01*
X579986Y229926D01*
X578802Y227067D01*
X578399Y224000D01*
X578802Y220933D01*
X579986Y218074D01*
X581870Y215620D01*
X584324Y213736D01*
X587183Y212553D01*
X590250Y212149D01*
X609750D01*
X612817Y212553D01*
X615676Y213736D01*
X618130Y215620D01*
X620014Y218074D01*
X621198Y220933D01*
X621601Y224000D01*
X621198Y227067D01*
X620014Y229926D01*
X618130Y232380D01*
X615676Y234264D01*
X612817Y235448D01*
X609750Y235851D01*
D02*
G37*
G36*
X542250D02*
X522750D01*
X519683Y235448D01*
X516824Y234264D01*
X514370Y232380D01*
X512486Y229926D01*
X511302Y227067D01*
X510899Y224000D01*
X511302Y220933D01*
X512486Y218074D01*
X514370Y215620D01*
X516824Y213736D01*
X519683Y212553D01*
X522750Y212149D01*
X542250D01*
X545317Y212553D01*
X548176Y213736D01*
X550630Y215620D01*
X552514Y218074D01*
X553698Y220933D01*
X554101Y224000D01*
X553698Y227067D01*
X552514Y229926D01*
X550630Y232380D01*
X548176Y234264D01*
X545317Y235448D01*
X542250Y235851D01*
D02*
G37*
G36*
X474750D02*
X455250D01*
X452183Y235448D01*
X449324Y234264D01*
X446870Y232380D01*
X444986Y229926D01*
X443802Y227067D01*
X443399Y224000D01*
X443802Y220933D01*
X444986Y218074D01*
X446870Y215620D01*
X449324Y213736D01*
X452183Y212553D01*
X455250Y212149D01*
X474750D01*
X477817Y212553D01*
X480676Y213736D01*
X483130Y215620D01*
X485014Y218074D01*
X486198Y220933D01*
X486601Y224000D01*
X486198Y227067D01*
X485014Y229926D01*
X483130Y232380D01*
X480676Y234264D01*
X477817Y235448D01*
X474750Y235851D01*
D02*
G37*
G36*
X856216Y246000D02*
X851784D01*
X847437Y245135D01*
X843342Y243439D01*
X839657Y240977D01*
X836523Y237843D01*
X834061Y234158D01*
X832365Y230063D01*
X831500Y225716D01*
Y221284D01*
X832365Y216937D01*
X834061Y212842D01*
X836523Y209157D01*
X839657Y206023D01*
X843342Y203561D01*
X847437Y201865D01*
X851784Y201000D01*
X856216D01*
X860563Y201865D01*
X864658Y203561D01*
X868343Y206023D01*
X871477Y209157D01*
X873939Y212842D01*
X875635Y216937D01*
X876500Y221284D01*
Y225716D01*
X875635Y230063D01*
X873939Y234158D01*
X871477Y237843D01*
X868343Y240977D01*
X864658Y243439D01*
X860563Y245135D01*
X856216Y246000D01*
D02*
G37*
G36*
X348216D02*
X343784D01*
X339437Y245135D01*
X335342Y243439D01*
X331657Y240977D01*
X328523Y237843D01*
X326061Y234158D01*
X324365Y230063D01*
X323500Y225716D01*
Y221284D01*
X324365Y216937D01*
X326061Y212842D01*
X328523Y209157D01*
X331657Y206023D01*
X335342Y203561D01*
X339437Y201865D01*
X343784Y201000D01*
X348216D01*
X352563Y201865D01*
X356658Y203561D01*
X360343Y206023D01*
X363477Y209157D01*
X365939Y212842D01*
X367635Y216937D01*
X368500Y221284D01*
Y225716D01*
X367635Y230063D01*
X365939Y234158D01*
X363477Y237843D01*
X360343Y240977D01*
X356658Y243439D01*
X352563Y245135D01*
X348216Y246000D01*
D02*
G37*
G36*
X751547Y200750D02*
X748453D01*
X745465Y199949D01*
X742785Y198402D01*
X740598Y196215D01*
X739051Y193535D01*
X738250Y190547D01*
Y187453D01*
X739051Y184465D01*
X740598Y181785D01*
X742785Y179598D01*
X745465Y178051D01*
X748453Y177250D01*
X751547D01*
X754535Y178051D01*
X757215Y179598D01*
X759402Y181785D01*
X760949Y184465D01*
X761750Y187453D01*
Y190547D01*
X760949Y193535D01*
X759402Y196215D01*
X757215Y198402D01*
X754535Y199949D01*
X751547Y200750D01*
D02*
G37*
G36*
X726547D02*
X723453D01*
X720465Y199949D01*
X717785Y198402D01*
X715598Y196215D01*
X714051Y193535D01*
X713250Y190547D01*
Y187453D01*
X714051Y184465D01*
X715598Y181785D01*
X717785Y179598D01*
X720465Y178051D01*
X723453Y177250D01*
X726547D01*
X729535Y178051D01*
X732215Y179598D01*
X734402Y181785D01*
X735949Y184465D01*
X736750Y187453D01*
Y190547D01*
X735949Y193535D01*
X734402Y196215D01*
X732215Y198402D01*
X729535Y199949D01*
X726547Y200750D01*
D02*
G37*
G36*
X701547D02*
X698453D01*
X695465Y199949D01*
X692785Y198402D01*
X690598Y196215D01*
X689051Y193535D01*
X688250Y190547D01*
Y187453D01*
X689051Y184465D01*
X690598Y181785D01*
X692785Y179598D01*
X695465Y178051D01*
X698453Y177250D01*
X701547D01*
X704535Y178051D01*
X707215Y179598D01*
X709402Y181785D01*
X710949Y184465D01*
X711750Y187453D01*
Y190547D01*
X710949Y193535D01*
X709402Y196215D01*
X707215Y198402D01*
X704535Y199949D01*
X701547Y200750D01*
D02*
G37*
G36*
X676547D02*
X673453D01*
X670465Y199949D01*
X667785Y198402D01*
X665598Y196215D01*
X664051Y193535D01*
X663250Y190547D01*
Y187453D01*
X664051Y184465D01*
X665598Y181785D01*
X667785Y179598D01*
X670465Y178051D01*
X673453Y177250D01*
X676547D01*
X679535Y178051D01*
X682215Y179598D01*
X684402Y181785D01*
X685949Y184465D01*
X686750Y187453D01*
Y190547D01*
X685949Y193535D01*
X684402Y196215D01*
X682215Y198402D01*
X679535Y199949D01*
X676547Y200750D01*
D02*
G37*
G36*
X651547D02*
X648453D01*
X645465Y199949D01*
X642785Y198402D01*
X640598Y196215D01*
X639051Y193535D01*
X638250Y190547D01*
Y187453D01*
X639051Y184465D01*
X640598Y181785D01*
X642785Y179598D01*
X645465Y178051D01*
X648453Y177250D01*
X651547D01*
X654535Y178051D01*
X657215Y179598D01*
X659402Y181785D01*
X660949Y184465D01*
X661750Y187453D01*
Y190547D01*
X660949Y193535D01*
X659402Y196215D01*
X657215Y198402D01*
X654535Y199949D01*
X651547Y200750D01*
D02*
G37*
G36*
X626547D02*
X623453D01*
X620465Y199949D01*
X617785Y198402D01*
X615598Y196215D01*
X614051Y193535D01*
X613250Y190547D01*
Y187453D01*
X614051Y184465D01*
X615598Y181785D01*
X617785Y179598D01*
X620465Y178051D01*
X623453Y177250D01*
X626547D01*
X629535Y178051D01*
X632215Y179598D01*
X634402Y181785D01*
X635949Y184465D01*
X636750Y187453D01*
Y190547D01*
X635949Y193535D01*
X634402Y196215D01*
X632215Y198402D01*
X629535Y199949D01*
X626547Y200750D01*
D02*
G37*
G36*
X551547D02*
X548453D01*
X545465Y199949D01*
X542785Y198402D01*
X540598Y196215D01*
X539051Y193535D01*
X538250Y190547D01*
Y187453D01*
X539051Y184465D01*
X540598Y181785D01*
X542785Y179598D01*
X545465Y178051D01*
X548453Y177250D01*
X551547D01*
X554535Y178051D01*
X557215Y179598D01*
X559402Y181785D01*
X560949Y184465D01*
X561750Y187453D01*
Y190547D01*
X560949Y193535D01*
X559402Y196215D01*
X557215Y198402D01*
X554535Y199949D01*
X551547Y200750D01*
D02*
G37*
G36*
X526547D02*
X523453D01*
X520465Y199949D01*
X517785Y198402D01*
X515598Y196215D01*
X514051Y193535D01*
X513250Y190547D01*
Y187453D01*
X514051Y184465D01*
X515598Y181785D01*
X517785Y179598D01*
X520465Y178051D01*
X523453Y177250D01*
X526547D01*
X529535Y178051D01*
X532215Y179598D01*
X534402Y181785D01*
X535949Y184465D01*
X536750Y187453D01*
Y190547D01*
X535949Y193535D01*
X534402Y196215D01*
X532215Y198402D01*
X529535Y199949D01*
X526547Y200750D01*
D02*
G37*
G36*
X501547D02*
X498453D01*
X495465Y199949D01*
X492785Y198402D01*
X490598Y196215D01*
X489051Y193535D01*
X488250Y190547D01*
Y187453D01*
X489051Y184465D01*
X490598Y181785D01*
X492785Y179598D01*
X495465Y178051D01*
X498453Y177250D01*
X501547D01*
X504535Y178051D01*
X507215Y179598D01*
X509402Y181785D01*
X510949Y184465D01*
X511750Y187453D01*
Y190547D01*
X510949Y193535D01*
X509402Y196215D01*
X507215Y198402D01*
X504535Y199949D01*
X501547Y200750D01*
D02*
G37*
G36*
X476547D02*
X473453D01*
X470465Y199949D01*
X467785Y198402D01*
X465598Y196215D01*
X464051Y193535D01*
X463250Y190547D01*
Y187453D01*
X464051Y184465D01*
X465598Y181785D01*
X467785Y179598D01*
X470465Y178051D01*
X473453Y177250D01*
X476547D01*
X479535Y178051D01*
X482215Y179598D01*
X484402Y181785D01*
X485949Y184465D01*
X486750Y187453D01*
Y190547D01*
X485949Y193535D01*
X484402Y196215D01*
X482215Y198402D01*
X479535Y199949D01*
X476547Y200750D01*
D02*
G37*
G36*
X451547D02*
X448453D01*
X445465Y199949D01*
X442785Y198402D01*
X440598Y196215D01*
X439051Y193535D01*
X438250Y190547D01*
Y187453D01*
X439051Y184465D01*
X440598Y181785D01*
X442785Y179598D01*
X445465Y178051D01*
X448453Y177250D01*
X451547D01*
X454535Y178051D01*
X457215Y179598D01*
X459402Y181785D01*
X460949Y184465D01*
X461750Y187453D01*
Y190547D01*
X460949Y193535D01*
X459402Y196215D01*
X457215Y198402D01*
X454535Y199949D01*
X451547Y200750D01*
D02*
G37*
G36*
X1046044Y169000D02*
X1043956D01*
X1042026Y168201D01*
X1040549Y166724D01*
X1039750Y164794D01*
Y162706D01*
X1040549Y160776D01*
X1042026Y159299D01*
X1043956Y158500D01*
X1046044D01*
X1047974Y159299D01*
X1049451Y160776D01*
X1050250Y162706D01*
Y164794D01*
X1049451Y166724D01*
X1047974Y168201D01*
X1046044Y169000D01*
D02*
G37*
G36*
X746497Y175750D02*
X743403D01*
X740415Y174949D01*
X737735Y173402D01*
X735548Y171215D01*
X734001Y168535D01*
X733200Y165547D01*
Y162453D01*
X734001Y159465D01*
X735548Y156785D01*
X737735Y154598D01*
X740415Y153051D01*
X743403Y152250D01*
X746497D01*
X749485Y153051D01*
X752165Y154598D01*
X754352Y156785D01*
X755899Y159465D01*
X756700Y162453D01*
Y165547D01*
X755899Y168535D01*
X754352Y171215D01*
X752165Y173402D01*
X749485Y174949D01*
X746497Y175750D01*
D02*
G37*
G36*
X706497D02*
X703403D01*
X700415Y174949D01*
X697735Y173402D01*
X695548Y171215D01*
X694001Y168535D01*
X693200Y165547D01*
Y162453D01*
X694001Y159465D01*
X695548Y156785D01*
X697735Y154598D01*
X700415Y153051D01*
X703403Y152250D01*
X706497D01*
X709485Y153051D01*
X712165Y154598D01*
X714352Y156785D01*
X715899Y159465D01*
X716700Y162453D01*
Y165547D01*
X715899Y168535D01*
X714352Y171215D01*
X712165Y173402D01*
X709485Y174949D01*
X706497Y175750D01*
D02*
G37*
G36*
X666497D02*
X663403D01*
X660415Y174949D01*
X657735Y173402D01*
X655548Y171215D01*
X654001Y168535D01*
X653200Y165547D01*
Y162453D01*
X654001Y159465D01*
X655548Y156785D01*
X657735Y154598D01*
X660415Y153051D01*
X663403Y152250D01*
X666497D01*
X669485Y153051D01*
X672165Y154598D01*
X674352Y156785D01*
X675899Y159465D01*
X676700Y162453D01*
Y165547D01*
X675899Y168535D01*
X674352Y171215D01*
X672165Y173402D01*
X669485Y174949D01*
X666497Y175750D01*
D02*
G37*
G36*
X626497D02*
X623403D01*
X620415Y174949D01*
X617735Y173402D01*
X615548Y171215D01*
X614001Y168535D01*
X613200Y165547D01*
Y162453D01*
X614001Y159465D01*
X615548Y156785D01*
X617735Y154598D01*
X620415Y153051D01*
X623403Y152250D01*
X626497D01*
X629485Y153051D01*
X632165Y154598D01*
X634352Y156785D01*
X635899Y159465D01*
X636700Y162453D01*
Y165547D01*
X635899Y168535D01*
X634352Y171215D01*
X632165Y173402D01*
X629485Y174949D01*
X626497Y175750D01*
D02*
G37*
G36*
X551547D02*
X548453D01*
X545465Y174949D01*
X542785Y173402D01*
X540598Y171215D01*
X539051Y168535D01*
X538250Y165547D01*
Y162453D01*
X539051Y159465D01*
X540598Y156785D01*
X542785Y154598D01*
X545465Y153051D01*
X548453Y152250D01*
X551547D01*
X554535Y153051D01*
X557215Y154598D01*
X559402Y156785D01*
X560949Y159465D01*
X561750Y162453D01*
Y165547D01*
X560949Y168535D01*
X559402Y171215D01*
X557215Y173402D01*
X554535Y174949D01*
X551547Y175750D01*
D02*
G37*
G36*
X526547D02*
X523453D01*
X520465Y174949D01*
X517785Y173402D01*
X515598Y171215D01*
X514051Y168535D01*
X513250Y165547D01*
Y162453D01*
X514051Y159465D01*
X515598Y156785D01*
X517785Y154598D01*
X520465Y153051D01*
X523453Y152250D01*
X526547D01*
X529535Y153051D01*
X532215Y154598D01*
X534402Y156785D01*
X535949Y159465D01*
X536750Y162453D01*
Y165547D01*
X535949Y168535D01*
X534402Y171215D01*
X532215Y173402D01*
X529535Y174949D01*
X526547Y175750D01*
D02*
G37*
G36*
X501547D02*
X498453D01*
X495465Y174949D01*
X492785Y173402D01*
X490598Y171215D01*
X489051Y168535D01*
X488250Y165547D01*
Y162453D01*
X489051Y159465D01*
X490598Y156785D01*
X492785Y154598D01*
X495465Y153051D01*
X498453Y152250D01*
X501547D01*
X504535Y153051D01*
X507215Y154598D01*
X509402Y156785D01*
X510949Y159465D01*
X511750Y162453D01*
Y165547D01*
X510949Y168535D01*
X509402Y171215D01*
X507215Y173402D01*
X504535Y174949D01*
X501547Y175750D01*
D02*
G37*
G36*
X476547D02*
X473453D01*
X470465Y174949D01*
X467785Y173402D01*
X465598Y171215D01*
X464051Y168535D01*
X463250Y165547D01*
Y162453D01*
X464051Y159465D01*
X465598Y156785D01*
X467785Y154598D01*
X470465Y153051D01*
X473453Y152250D01*
X476547D01*
X479535Y153051D01*
X482215Y154598D01*
X484402Y156785D01*
X485949Y159465D01*
X486750Y162453D01*
Y165547D01*
X485949Y168535D01*
X484402Y171215D01*
X482215Y173402D01*
X479535Y174949D01*
X476547Y175750D01*
D02*
G37*
G36*
X451547D02*
X448453D01*
X445465Y174949D01*
X442785Y173402D01*
X440598Y171215D01*
X439051Y168535D01*
X438250Y165547D01*
Y162453D01*
X439051Y159465D01*
X440598Y156785D01*
X442785Y154598D01*
X445465Y153051D01*
X448453Y152250D01*
X451547D01*
X454535Y153051D01*
X457215Y154598D01*
X459402Y156785D01*
X460949Y159465D01*
X461750Y162453D01*
Y165547D01*
X460949Y168535D01*
X459402Y171215D01*
X457215Y173402D01*
X454535Y174949D01*
X451547Y175750D01*
D02*
G37*
G36*
X1036044Y150500D02*
X1033956D01*
X1032026Y149701D01*
X1030549Y148224D01*
X1029750Y146294D01*
Y144206D01*
X1030549Y142276D01*
X1032026Y140799D01*
X1033956Y140000D01*
X1036044D01*
X1037974Y140799D01*
X1039451Y142276D01*
X1040250Y144206D01*
Y146294D01*
X1039451Y148224D01*
X1037974Y149701D01*
X1036044Y150500D01*
D02*
G37*
G36*
X956044Y166250D02*
X953956D01*
X952026Y165451D01*
X950549Y163974D01*
X949750Y162044D01*
Y159956D01*
X950549Y158026D01*
X952026Y156549D01*
X953956Y155750D01*
X956044D01*
X957974Y156549D01*
X959451Y158026D01*
X960250Y159956D01*
Y162044D01*
X959451Y163974D01*
X957974Y165451D01*
X956044Y166250D01*
D02*
G37*
G36*
X596043Y160000D02*
X588950D01*
Y152907D01*
X589485Y153051D01*
X592165Y154598D01*
X594352Y156785D01*
X595899Y159465D01*
X596043Y160000D01*
D02*
G37*
G36*
X580950D02*
X573857D01*
X574001Y159465D01*
X575548Y156785D01*
X577735Y154598D01*
X580415Y153051D01*
X580950Y152907D01*
Y160000D01*
D02*
G37*
G36*
X1010044Y150250D02*
X1007956D01*
X1006026Y149451D01*
X1004549Y147974D01*
X1003750Y146044D01*
Y143956D01*
X1004549Y142026D01*
X1006026Y140549D01*
X1007956Y139750D01*
X1010044D01*
X1011974Y140549D01*
X1013451Y142026D01*
X1014250Y143956D01*
Y146044D01*
X1013451Y147974D01*
X1011974Y149451D01*
X1010044Y150250D01*
D02*
G37*
G36*
X956044Y145250D02*
X953956D01*
X952026Y144451D01*
X950549Y142974D01*
X949750Y141044D01*
Y138956D01*
X950549Y137026D01*
X952026Y135549D01*
X953956Y134750D01*
X956044D01*
X957974Y135549D01*
X959451Y137026D01*
X960250Y138956D01*
Y141044D01*
X959451Y142974D01*
X957974Y144451D01*
X956044Y145250D01*
D02*
G37*
G36*
X985044Y131121D02*
X982956D01*
X981026Y130322D01*
X979549Y128845D01*
X978750Y126915D01*
Y124827D01*
X979549Y122897D01*
X981026Y121420D01*
X982956Y120621D01*
X985044D01*
X986974Y121420D01*
X988451Y122897D01*
X989250Y124827D01*
Y126915D01*
X988451Y128845D01*
X986974Y130322D01*
X985044Y131121D01*
D02*
G37*
%LPD*%
D10*
X355907Y835750D02*
X442750D01*
X452500Y826000D01*
X58922Y839500D02*
X352157D01*
X355907Y835750D01*
X48422Y829000D02*
X58922Y839500D01*
X374000Y790333D02*
Y812000D01*
X64000Y832000D02*
X354000D01*
X374000Y812000D01*
X48000Y816000D02*
X64000Y832000D01*
X374000Y790333D02*
X393083Y771250D01*
X436500Y770500D02*
X448750D01*
X680250D01*
X448750D02*
X452500Y774250D01*
Y826000D01*
X48000Y829000D02*
X48422D01*
X433000Y767000D02*
X436500Y770500D01*
X677295Y760750D02*
X688040Y750005D01*
X390939Y733061D02*
X392157D01*
X393597Y734500D01*
X393109Y726391D02*
X396218Y729500D01*
X610500D01*
X624000Y716000D01*
X393597Y734500D02*
X612500D01*
X627000Y720000D01*
X390691Y740692D02*
X391909D01*
X393351Y739250D01*
X396722Y743500D02*
X701500D01*
X391111Y749111D02*
X396722Y743500D01*
X393351Y739250D02*
X802578D01*
X391000Y718000D02*
X391640D01*
X391192Y726391D02*
X393109D01*
X391640Y718000D02*
X397389Y723750D01*
X562250D02*
X571000Y715000D01*
X397389Y723750D02*
X562250D01*
X390331Y725530D02*
X391192Y726391D01*
X419000Y526000D02*
Y714028D01*
X422000Y717028D01*
Y717450D01*
X424000Y523000D02*
Y710000D01*
X428305Y714305D01*
X804828Y737000D02*
X806000D01*
X802578Y739250D02*
X804828Y737000D01*
X701500Y743500D02*
X740000Y782000D01*
X425136Y760750D02*
X677295D01*
X680250Y770500D02*
X695000Y755750D01*
X419750Y771250D02*
X423965Y767036D01*
X393083Y771250D02*
X419750D01*
X423965Y761922D02*
X425136Y760750D01*
X423965Y761922D02*
Y767036D01*
X390000Y497000D02*
X419000Y526000D01*
X267000Y497000D02*
X390000D01*
X949000Y787578D02*
Y788000D01*
X946000Y746000D02*
Y784578D01*
X949000Y787578D01*
X256000Y497000D02*
X265000Y488000D01*
X389000D01*
X424000Y523000D01*
X946581Y723581D02*
X947000Y724000D01*
X946581Y719581D02*
Y723581D01*
X943000Y716000D02*
X946581Y719581D01*
X624000Y716000D02*
X943000D01*
X627000Y720000D02*
X920000D01*
X946000Y746000D01*
X740000Y782000D02*
X808000D01*
D101*
X235200Y985650D02*
D03*
X148800D02*
D03*
D102*
X235200Y943850D02*
D03*
X148800D02*
D03*
D103*
X220900Y948850D02*
D03*
X163100D02*
D03*
X282000Y654000D02*
D03*
X416000Y850000D02*
D03*
Y842000D02*
D03*
X327000Y819000D02*
D03*
X335000D02*
D03*
X343000D02*
D03*
X343000Y825750D02*
D03*
X335000D02*
D03*
X327000D02*
D03*
X366628Y789628D02*
D03*
X134250Y803250D02*
D03*
X711750Y730000D02*
D03*
X694290Y653000D02*
D03*
X688040Y750005D02*
D03*
X677250Y727750D02*
D03*
X390939Y733061D02*
D03*
X390691Y740692D02*
D03*
X390331Y725530D02*
D03*
X430000Y717450D02*
D03*
X422000D02*
D03*
X695000Y755750D02*
D03*
X539956Y752250D02*
D03*
X382250Y797289D02*
D03*
X389741Y796919D02*
D03*
X397241Y796941D02*
D03*
X404415Y799127D02*
D03*
X433000Y767000D02*
D03*
X621956Y751500D02*
D03*
X595956D02*
D03*
X1175375Y679375D02*
D03*
Y731375D02*
D03*
X1175250Y783250D02*
D03*
X416000Y858750D02*
D03*
X362000Y871000D02*
D03*
X354000D02*
D03*
X58750Y549750D02*
D03*
X921000Y233000D02*
D03*
Y225000D02*
D03*
Y241000D02*
D03*
X914000Y233000D02*
D03*
Y241000D02*
D03*
Y225000D02*
D03*
Y253500D02*
D03*
Y269500D02*
D03*
Y261500D02*
D03*
X921000Y269500D02*
D03*
Y253500D02*
D03*
Y261500D02*
D03*
X952250Y175000D02*
D03*
X946500Y182000D02*
D03*
X940750Y189000D02*
D03*
X369000Y328000D02*
D03*
X142500Y227000D02*
D03*
X304500Y476250D02*
D03*
X311500D02*
D03*
X318500D02*
D03*
X974500Y487250D02*
D03*
X967500D02*
D03*
X960500D02*
D03*
Y479250D02*
D03*
X967500D02*
D03*
X974500D02*
D03*
X920000Y470000D02*
D03*
X996000Y743000D02*
D03*
X989000Y762750D02*
D03*
X949000Y788000D02*
D03*
X1045000Y163750D02*
D03*
X1035000Y145250D02*
D03*
X1014000Y178000D02*
D03*
X437000Y800000D02*
D03*
X327879Y583000D02*
D03*
X301000Y548000D02*
D03*
X392000Y653000D02*
D03*
X483000Y506000D02*
D03*
X720000Y950000D02*
D03*
X672000D02*
D03*
X618000D02*
D03*
X565000D02*
D03*
X513000D02*
D03*
X356000D02*
D03*
X181000Y292000D02*
D03*
X707000Y444000D02*
D03*
X715000Y449000D02*
D03*
X731000Y453000D02*
D03*
X598000D02*
D03*
X605000D02*
D03*
X612000D02*
D03*
X619000D02*
D03*
X200000Y910000D02*
D03*
X982000Y149000D02*
D03*
X902000Y789000D02*
D03*
X900000Y732000D02*
D03*
X858151Y447699D02*
D03*
X213000Y223000D02*
D03*
X186000Y222000D02*
D03*
X173000D02*
D03*
X161000D02*
D03*
X877000Y327500D02*
D03*
X883500D02*
D03*
X864000D02*
D03*
X856000D02*
D03*
X856000Y320500D02*
D03*
X393000Y327000D02*
D03*
X935000Y196000D02*
D03*
X393000Y320000D02*
D03*
X393000Y313000D02*
D03*
X451000Y328000D02*
D03*
X619450D02*
D03*
X664000D02*
D03*
X883500Y313500D02*
D03*
X877000D02*
D03*
X883500Y320500D02*
D03*
X877000D02*
D03*
X848000Y327500D02*
D03*
X864000Y320500D02*
D03*
X848000D02*
D03*
X856000Y313500D02*
D03*
X848000D02*
D03*
X864000D02*
D03*
X810000D02*
D03*
X770000D02*
D03*
X778000D02*
D03*
X786000D02*
D03*
X794000D02*
D03*
X802000D02*
D03*
X802000Y320500D02*
D03*
X794000D02*
D03*
X786000D02*
D03*
X778000D02*
D03*
X770000D02*
D03*
X810000D02*
D03*
X810000Y327500D02*
D03*
X770000D02*
D03*
X778000D02*
D03*
X786000D02*
D03*
X794000D02*
D03*
X802000D02*
D03*
X730000Y313500D02*
D03*
X690000D02*
D03*
X698000D02*
D03*
X706000D02*
D03*
X714000D02*
D03*
X722000D02*
D03*
X722000Y320500D02*
D03*
X714000D02*
D03*
X706000D02*
D03*
X698000D02*
D03*
X690000D02*
D03*
X730000D02*
D03*
X730000Y327500D02*
D03*
X690000D02*
D03*
X698000D02*
D03*
X706000D02*
D03*
X714000D02*
D03*
X722000D02*
D03*
X596000Y313000D02*
D03*
X556000D02*
D03*
X564000D02*
D03*
X572000D02*
D03*
X580000D02*
D03*
X588000D02*
D03*
X588000Y320000D02*
D03*
X580000D02*
D03*
X572000D02*
D03*
X564000D02*
D03*
X556000D02*
D03*
X596000D02*
D03*
X596000Y327000D02*
D03*
X556000D02*
D03*
X564000D02*
D03*
X572000D02*
D03*
X580000D02*
D03*
X588000D02*
D03*
X507000Y327500D02*
D03*
X499000D02*
D03*
X491000D02*
D03*
X483000D02*
D03*
X475000D02*
D03*
X515000D02*
D03*
X515000Y320500D02*
D03*
X475000D02*
D03*
X483000D02*
D03*
X491000D02*
D03*
X499000D02*
D03*
X507000D02*
D03*
X507000Y313500D02*
D03*
X499000D02*
D03*
X491000D02*
D03*
X483000D02*
D03*
X475000D02*
D03*
X515000D02*
D03*
X433000Y313000D02*
D03*
X401000D02*
D03*
X409000D02*
D03*
X417000D02*
D03*
X425000D02*
D03*
X425000Y320000D02*
D03*
X417000D02*
D03*
X409000D02*
D03*
X401000D02*
D03*
X433000D02*
D03*
X433000Y327000D02*
D03*
X401000D02*
D03*
X409000D02*
D03*
X417000D02*
D03*
X425000D02*
D03*
X822000Y333000D02*
D03*
X745000Y328000D02*
D03*
X530000Y618000D02*
D03*
X532000Y575000D02*
D03*
Y530000D02*
D03*
X531000Y554000D02*
D03*
X890000Y769000D02*
D03*
Y745000D02*
D03*
Y761000D02*
D03*
Y753000D02*
D03*
X882000Y745000D02*
D03*
Y753000D02*
D03*
Y761000D02*
D03*
Y769000D02*
D03*
X338000Y871000D02*
D03*
X346000D02*
D03*
X853000Y800000D02*
D03*
X855000Y744000D02*
D03*
X1089000Y656000D02*
D03*
X1038000Y674000D02*
D03*
X1035000Y640000D02*
D03*
X997000Y630000D02*
D03*
X954000Y658000D02*
D03*
X905000Y669000D02*
D03*
X903000Y684000D02*
D03*
X899000Y636000D02*
D03*
X862000Y631000D02*
D03*
X818000Y652000D02*
D03*
X766000Y666000D02*
D03*
X762000Y636000D02*
D03*
X726000Y627000D02*
D03*
X627000Y635000D02*
D03*
X592000Y628000D02*
D03*
X313000Y733000D02*
D03*
X317000Y665000D02*
D03*
X323000Y672000D02*
D03*
X338250Y686250D02*
D03*
Y694250D02*
D03*
X330250Y686250D02*
D03*
Y694250D02*
D03*
X329000Y733000D02*
D03*
X321000D02*
D03*
X212927Y910927D02*
D03*
X165000Y910000D02*
D03*
X139000D02*
D03*
X48000Y816000D02*
D03*
X517000Y832000D02*
D03*
X515500Y780500D02*
D03*
Y787750D02*
D03*
X362896Y796134D02*
D03*
X423965Y767036D02*
D03*
X387661Y764661D02*
D03*
X48000Y829000D02*
D03*
X391111Y749111D02*
D03*
X391423Y758173D02*
D03*
X166000Y519000D02*
D03*
X1154000Y290000D02*
D03*
X633000Y671000D02*
D03*
X733000Y750000D02*
D03*
X761000Y682000D02*
D03*
X639000Y484000D02*
D03*
X374000Y431000D02*
D03*
X256000Y497000D02*
D03*
X343000Y518000D02*
D03*
X250000Y689000D02*
D03*
X258000D02*
D03*
X266000D02*
D03*
X234500Y637250D02*
D03*
Y645500D02*
D03*
X658000Y479000D02*
D03*
X650000D02*
D03*
X442000Y471000D02*
D03*
X435000D02*
D03*
X428000D02*
D03*
X421000D02*
D03*
X341000Y409039D02*
D03*
X267000Y497000D02*
D03*
X1181000Y224000D02*
D03*
X1177000Y236000D02*
D03*
X1173000Y251000D02*
D03*
X1170000Y263000D02*
D03*
X984000Y125871D02*
D03*
X955000Y140000D02*
D03*
X50750Y563750D02*
D03*
Y556750D02*
D03*
X58750Y563750D02*
D03*
X50750Y549750D02*
D03*
X58750Y556750D02*
D03*
X1009000Y145000D02*
D03*
X575000Y444000D02*
D03*
X142500Y242250D02*
D03*
Y235000D02*
D03*
X65000Y221000D02*
D03*
X57000D02*
D03*
X72000D02*
D03*
X65000Y228000D02*
D03*
X57000D02*
D03*
X72000D02*
D03*
X86000Y240000D02*
D03*
X75000Y276000D02*
D03*
X473000Y840000D02*
D03*
X465000D02*
D03*
X473000Y832000D02*
D03*
X465000D02*
D03*
X468000Y809000D02*
D03*
X291000Y567000D02*
D03*
Y575000D02*
D03*
Y583000D02*
D03*
Y597000D02*
D03*
Y605000D02*
D03*
Y613000D02*
D03*
X391000Y718000D02*
D03*
X372000Y783000D02*
D03*
X377965Y776964D02*
D03*
X382000Y770000D02*
D03*
X503000Y753000D02*
D03*
X347000Y678000D02*
D03*
Y669000D02*
D03*
Y661000D02*
D03*
X571000Y715000D02*
D03*
X947000Y724000D02*
D03*
X726250Y730000D02*
D03*
X806000Y737000D02*
D03*
X808000Y782000D02*
D03*
X546000Y705000D02*
D03*
X524000Y471000D02*
D03*
X517000D02*
D03*
X465000Y628000D02*
D03*
X522000Y640000D02*
D03*
X493000Y590000D02*
D03*
Y609000D02*
D03*
X841000Y528000D02*
D03*
X1048000Y280000D02*
D03*
X490000Y553000D02*
D03*
X564000Y524000D02*
D03*
X590000Y523000D02*
D03*
X890000Y448000D02*
D03*
X1107000Y284000D02*
D03*
X799000Y528000D02*
D03*
X718000Y522000D02*
D03*
X745000Y515000D02*
D03*
X474000Y802000D02*
D03*
X475000Y792000D02*
D03*
X463000Y710000D02*
D03*
X455000D02*
D03*
X453000Y613000D02*
D03*
X465000Y619000D02*
D03*
X432000Y645000D02*
D03*
X440000D02*
D03*
X448000D02*
D03*
X423000Y786000D02*
D03*
X463000Y702000D02*
D03*
X430000Y796000D02*
D03*
X455000Y702000D02*
D03*
X422000Y796000D02*
D03*
X412000D02*
D03*
X403000Y452000D02*
D03*
X442000Y538000D02*
D03*
X504000Y454000D02*
D03*
X493000Y569000D02*
D03*
X800000Y458000D02*
D03*
X837000Y463000D02*
D03*
X583000Y453000D02*
D03*
X405000Y462000D02*
D03*
X493000Y446000D02*
D03*
X631000Y509000D02*
D03*
X576000Y523000D02*
D03*
X795000Y447000D02*
D03*
X779000Y523000D02*
D03*
X882000Y447000D02*
D03*
X384000D02*
D03*
X501000Y650000D02*
D03*
X999000Y809000D02*
D03*
X165000Y873000D02*
D03*
X151000Y872000D02*
D03*
X205000Y874000D02*
D03*
X250000Y866000D02*
D03*
X28000Y790000D02*
D03*
X1043000Y246000D02*
D03*
X1066000Y231000D02*
D03*
X934000Y300000D02*
D03*
X636000Y442000D02*
D03*
X643000D02*
D03*
X650000D02*
D03*
X657000D02*
D03*
X198000Y736000D02*
D03*
X209000Y794000D02*
D03*
X989000Y696000D02*
D03*
X846390Y700250D02*
D03*
X846000Y756000D02*
D03*
X749000Y746000D02*
D03*
X635000Y686606D02*
D03*
X633000Y727000D02*
D03*
X955000Y161000D02*
D03*
X192250Y955750D02*
D03*
Y963750D02*
D03*
X200250Y955750D02*
D03*
Y963750D02*
D03*
X376000Y457000D02*
D03*
X675000Y407000D02*
D03*
X667689D02*
D03*
X660495D02*
D03*
X832000Y453000D02*
D03*
X825000D02*
D03*
X818000D02*
D03*
X811000D02*
D03*
X752000D02*
D03*
X745000D02*
D03*
X738000D02*
D03*
X510000Y471000D02*
D03*
X352000Y630000D02*
D03*
X688000Y790000D02*
D03*
Y798000D02*
D03*
X680000D02*
D03*
Y790000D02*
D03*
X1033000Y796000D02*
D03*
X1033390Y730000D02*
D03*
X931000Y967000D02*
D03*
X879000D02*
D03*
X827000D02*
D03*
X775000D02*
D03*
X1175250Y835250D02*
D03*
X969500Y229000D02*
D03*
X961500D02*
D03*
X977500D02*
D03*
Y237000D02*
D03*
X961500D02*
D03*
X969500D02*
D03*
Y245000D02*
D03*
X961500D02*
D03*
X977500D02*
D03*
X969500Y253000D02*
D03*
X961500D02*
D03*
X977500D02*
D03*
X969500Y261000D02*
D03*
X961500D02*
D03*
X977500D02*
D03*
X854000Y371000D02*
D03*
Y379000D02*
D03*
Y363000D02*
D03*
X862000D02*
D03*
Y379000D02*
D03*
Y371000D02*
D03*
X870000D02*
D03*
Y379000D02*
D03*
Y363000D02*
D03*
X878000Y371000D02*
D03*
Y379000D02*
D03*
Y363000D02*
D03*
X886000Y371000D02*
D03*
Y379000D02*
D03*
Y363000D02*
D03*
X774000Y371000D02*
D03*
Y379000D02*
D03*
Y363000D02*
D03*
X782000D02*
D03*
Y379000D02*
D03*
Y371000D02*
D03*
X790000D02*
D03*
Y379000D02*
D03*
Y363000D02*
D03*
X798000Y371000D02*
D03*
Y379000D02*
D03*
Y363000D02*
D03*
X806000Y371000D02*
D03*
Y379000D02*
D03*
Y363000D02*
D03*
X694000Y371000D02*
D03*
Y379000D02*
D03*
Y363000D02*
D03*
X702000D02*
D03*
Y379000D02*
D03*
Y371000D02*
D03*
X710000D02*
D03*
Y379000D02*
D03*
Y363000D02*
D03*
X718000Y371000D02*
D03*
Y379000D02*
D03*
Y363000D02*
D03*
X726000Y371000D02*
D03*
Y379000D02*
D03*
Y363000D02*
D03*
X559000Y371000D02*
D03*
Y379000D02*
D03*
Y363000D02*
D03*
X567000D02*
D03*
Y379000D02*
D03*
Y371000D02*
D03*
X575000D02*
D03*
Y379000D02*
D03*
Y363000D02*
D03*
X583000Y371000D02*
D03*
Y379000D02*
D03*
Y363000D02*
D03*
X591000Y371000D02*
D03*
Y379000D02*
D03*
Y363000D02*
D03*
X479000Y371000D02*
D03*
Y379000D02*
D03*
Y363000D02*
D03*
X487000D02*
D03*
Y379000D02*
D03*
Y371000D02*
D03*
X495000D02*
D03*
Y379000D02*
D03*
Y363000D02*
D03*
X503000Y371000D02*
D03*
Y379000D02*
D03*
Y363000D02*
D03*
X511000Y371000D02*
D03*
Y379000D02*
D03*
Y363000D02*
D03*
X431000D02*
D03*
Y379000D02*
D03*
Y371000D02*
D03*
X423000Y363000D02*
D03*
Y379000D02*
D03*
Y371000D02*
D03*
X415000Y363000D02*
D03*
Y379000D02*
D03*
Y371000D02*
D03*
X407000D02*
D03*
Y379000D02*
D03*
Y363000D02*
D03*
X399000D02*
D03*
Y379000D02*
D03*
Y371000D02*
D03*
X152000Y663000D02*
D03*
X144000D02*
D03*
X136000D02*
D03*
X152000Y671000D02*
D03*
X144000D02*
D03*
X136000D02*
D03*
X226000Y637250D02*
D03*
Y645250D02*
D03*
X84000Y563000D02*
D03*
X87250Y617055D02*
D03*
D109*
X105650Y444350D02*
D03*
X150000D02*
D03*
X194350D02*
D03*
Y400000D02*
D03*
X150000D02*
D03*
X105650D02*
D03*
Y355650D02*
D03*
X150000D02*
D03*
X194350D02*
D03*
X1005650Y444350D02*
D03*
X1050000D02*
D03*
X1094350D02*
D03*
Y400000D02*
D03*
X1050000D02*
D03*
X1005650D02*
D03*
Y355650D02*
D03*
X1050000D02*
D03*
X1094350D02*
D03*
D110*
X346000Y223500D02*
D03*
X854000D02*
D03*
D111*
X465000Y224000D02*
D03*
X532500D02*
D03*
X600000D02*
D03*
X667500D02*
D03*
X735000D02*
D03*
D112*
X450000Y189000D02*
D03*
X475000D02*
D03*
X500000D02*
D03*
X525000D02*
D03*
X550000D02*
D03*
X575000D02*
D03*
X600000D02*
D03*
X625000D02*
D03*
X650000D02*
D03*
X675000D02*
D03*
X700000D02*
D03*
X725000D02*
D03*
X750000D02*
D03*
X450000Y164000D02*
D03*
X475000D02*
D03*
X500000D02*
D03*
X525000D02*
D03*
X550000D02*
D03*
X584950D02*
D03*
X624950D02*
D03*
X664950D02*
D03*
X704950D02*
D03*
X744950D02*
D03*
D113*
X414250Y233000D02*
D03*
X785750D02*
D03*
D114*
X50000Y950000D02*
D03*
Y150000D02*
D03*
X1150000D02*
D03*
Y950000D02*
D03*
D115*
X1160500Y512500D02*
D03*
M02*
