G04*
G04 #@! TF.GenerationSoftware,Altium Limited,Altium Designer,25.5.2 (35)*
G04*
G04 Layer_Physical_Order=4*
G04 Layer_Color=16711680*
%FSLAX44Y44*%
%MOMM*%
G71*
G04*
G04 #@! TF.SameCoordinates,34ED6EBC-D28A-49E4-976B-BF1F03E75610*
G04*
G04*
G04 #@! TF.FilePolarity,Positive*
G04*
G01*
G75*
%ADD10C,0.2000*%
%ADD101C,0.6500*%
G04:AMPARAMS|DCode=102|XSize=1mm|YSize=2.1mm|CornerRadius=0.5mm|HoleSize=0mm|Usage=FLASHONLY|Rotation=180.000|XOffset=0mm|YOffset=0mm|HoleType=Round|Shape=RoundedRectangle|*
%AMROUNDEDRECTD102*
21,1,1.0000,1.1000,0,0,180.0*
21,1,0.0000,2.1000,0,0,180.0*
1,1,1.0000,0.0000,0.5500*
1,1,1.0000,0.0000,0.5500*
1,1,1.0000,0.0000,-0.5500*
1,1,1.0000,0.0000,-0.5500*
%
%ADD102ROUNDEDRECTD102*%
G04:AMPARAMS|DCode=103|XSize=1mm|YSize=1.8mm|CornerRadius=0.5mm|HoleSize=0mm|Usage=FLASHONLY|Rotation=180.000|XOffset=0mm|YOffset=0mm|HoleType=Round|Shape=RoundedRectangle|*
%AMROUNDEDRECTD103*
21,1,1.0000,0.8000,0,0,180.0*
21,1,0.0000,1.8000,0,0,180.0*
1,1,1.0000,0.0000,0.4000*
1,1,1.0000,0.0000,0.4000*
1,1,1.0000,0.0000,-0.4000*
1,1,1.0000,0.0000,-0.4000*
%
%ADD103ROUNDEDRECTD103*%
%ADD105C,2.0000*%
%ADD106C,0.1500*%
%ADD109C,3.2000*%
%ADD110C,2.3000*%
%ADD111C,1.9500*%
%ADD112O,3.9000X1.9500*%
%ADD113C,4.1000*%
%ADD114C,10.0000*%
%ADD115C,0.8000*%
%ADD116C,1.0000*%
G36*
X262000Y969000D02*
X728000D01*
X896000Y801000D01*
X896000Y748000D01*
Y742000D01*
X892000Y738000D01*
X881000Y738000D01*
X877000Y742000D01*
X877000Y748000D01*
Y802000D01*
X722000Y957000D01*
X274000D01*
X302000Y929000D01*
Y665000D01*
X253000Y616000D01*
X210000D01*
X203500Y622500D01*
Y628000D01*
X69000D01*
X29000Y588000D01*
Y245000D01*
X42000Y232000D01*
X73000D01*
X76000Y229000D01*
X76000Y214000D01*
X43000D01*
X19000Y238000D01*
Y596000D01*
X63000Y640000D01*
X205082Y640000D01*
X205848Y640317D01*
X245448Y679918D01*
X276000D01*
X276765Y680235D01*
X277082Y681000D01*
X292000D01*
Y923000D01*
X258000Y957000D01*
X222750D01*
X215250Y957000D01*
X213250Y955000D01*
Y951250D01*
X210250Y948250D01*
X189500D01*
X187500Y950250D01*
Y973500D01*
X190000Y976000D01*
X232856D01*
X232859Y975998D01*
X235200Y975533D01*
X237541Y975998D01*
X237544Y976000D01*
X255000D01*
X262000Y969000D01*
D02*
G37*
G36*
X276000Y690000D02*
Y681000D01*
X245000D01*
X205082Y641082D01*
X63000Y641082D01*
X63000Y641083D01*
X62235Y640765D01*
X62235Y640765D01*
X18235Y596765D01*
X17918Y596000D01*
Y238000D01*
X18235Y237235D01*
X18235Y237235D01*
X42235Y213235D01*
X43000Y212918D01*
X76000D01*
X76199Y213000D01*
X114500D01*
X121000Y219500D01*
Y239841D01*
Y243000D01*
X124000Y246000D01*
X143000D01*
X146000Y243000D01*
Y213000D01*
X136000Y203000D01*
X36000D01*
X10000Y229000D01*
Y603000D01*
X57000Y650000D01*
X198000D01*
X223000Y675000D01*
X242000Y694000D01*
X272000D01*
X276000Y690000D01*
D02*
G37*
G36*
X983500Y489000D02*
Y467750D01*
X954750Y439000D01*
X728000Y439000D01*
X690000Y401000D01*
X649000D01*
X611000Y439000D01*
X376000Y439000D01*
Y435915D01*
X374944Y435209D01*
X374845Y435250D01*
X373155D01*
X371593Y434603D01*
X370397Y433407D01*
X369750Y431845D01*
Y430155D01*
X370397Y428593D01*
X371593Y427397D01*
X373155Y426750D01*
X374845D01*
X374944Y426791D01*
X376000Y426085D01*
Y347118D01*
X371929D01*
X369588Y346652D01*
X367603Y345326D01*
X364674Y342397D01*
X363348Y340412D01*
X362882Y338071D01*
Y328000D01*
X363348Y325659D01*
X364674Y323674D01*
X366659Y322348D01*
X369000Y321883D01*
X371341Y322348D01*
X373326Y323674D01*
X374652Y325659D01*
X374730Y326052D01*
X376000Y325927D01*
Y235500D01*
X403750Y207750D01*
X740250D01*
Y193613D01*
X739983Y193149D01*
X739250Y190415D01*
Y187585D01*
X739983Y184851D01*
X740250Y184387D01*
Y178784D01*
X733197D01*
X732671Y180054D01*
X734402Y181785D01*
X735949Y184465D01*
X736093Y185000D01*
X725000D01*
X713907D01*
X714051Y184465D01*
X715598Y181785D01*
X717218Y180165D01*
X716764Y179018D01*
X715629Y178894D01*
X709891Y184632D01*
X710017Y184851D01*
X710750Y187585D01*
Y190415D01*
X710017Y193149D01*
X708602Y195601D01*
X706601Y197602D01*
X704149Y199017D01*
X701415Y199750D01*
X698585D01*
X695851Y199017D01*
X693399Y197602D01*
X691398Y195601D01*
X689983Y193149D01*
X689250Y190415D01*
Y187585D01*
X689983Y184851D01*
X691398Y182399D01*
X693399Y180398D01*
X695851Y178983D01*
X698585Y178250D01*
X701415D01*
X704149Y178983D01*
X706601Y180398D01*
X707840Y181637D01*
X712553Y176923D01*
X712067Y175750D01*
X651784D01*
Y178349D01*
X654149Y178983D01*
X656601Y180398D01*
X658602Y182399D01*
X660017Y184851D01*
X660750Y187585D01*
Y190415D01*
X660017Y193149D01*
X658602Y195601D01*
X656601Y197602D01*
X654149Y199017D01*
X651415Y199750D01*
X648585D01*
X645851Y199017D01*
X643399Y197602D01*
X641398Y195601D01*
X639983Y193149D01*
X639250Y190415D01*
Y187585D01*
X639983Y184851D01*
X641398Y182399D01*
X643399Y180398D01*
X645851Y178983D01*
X648216Y178349D01*
Y175750D01*
X601784Y175750D01*
Y178349D01*
X604149Y178983D01*
X606601Y180398D01*
X608602Y182399D01*
X610017Y184851D01*
X610750Y187585D01*
Y190415D01*
X610017Y193149D01*
X608602Y195601D01*
X606601Y197602D01*
X604149Y199017D01*
X601415Y199750D01*
X598585D01*
X595851Y199017D01*
X593399Y197602D01*
X591398Y195601D01*
X589983Y193149D01*
X589250Y190415D01*
Y187585D01*
X589983Y184851D01*
X591398Y182399D01*
X593399Y180398D01*
X595851Y178983D01*
X598216Y178349D01*
Y175750D01*
X325750Y175750D01*
X297250Y204250D01*
X297250Y482250D01*
X300250Y485250D01*
X311875Y485250D01*
X319188D01*
X323500Y485250D01*
X326500Y482250D01*
Y475500D01*
X352000Y450000D01*
X399228D01*
X399397Y449593D01*
X400593Y448397D01*
X402155Y447750D01*
X403845D01*
X405407Y448397D01*
X406603Y449593D01*
X406772Y450000D01*
X502551Y450000D01*
X503155Y449750D01*
X504845D01*
X505449Y450000D01*
X579990Y450000D01*
X580593Y449397D01*
X582155Y448750D01*
X583845D01*
X585407Y449397D01*
X586010Y450000D01*
X594990D01*
X595593Y449397D01*
X597155Y448750D01*
X598845D01*
X600407Y449397D01*
X601010Y450000D01*
X601990D01*
X602593Y449397D01*
X604155Y448750D01*
X605845D01*
X607407Y449397D01*
X608010Y450000D01*
X608990D01*
X609593Y449397D01*
X611155Y448750D01*
X612845D01*
X614407Y449397D01*
X614805Y449794D01*
X616195D01*
X616593Y449397D01*
X618155Y448750D01*
X619845D01*
X621407Y449397D01*
X622010Y450000D01*
X710647D01*
X710750Y449845D01*
Y448155D01*
X711397Y446593D01*
X712593Y445397D01*
X714155Y444750D01*
X715845D01*
X717407Y445397D01*
X718603Y446593D01*
X719250Y448155D01*
Y448730D01*
X720456Y450000D01*
X727990Y450000D01*
X728593Y449397D01*
X730155Y448750D01*
X731845D01*
X733407Y449397D01*
X733805Y449794D01*
X735195D01*
X735593Y449397D01*
X737155Y448750D01*
X738845D01*
X740407Y449397D01*
X741010Y450000D01*
X741990D01*
X742592Y449397D01*
X744155Y448750D01*
X745845D01*
X747407Y449397D01*
X747805Y449794D01*
X749195D01*
X749593Y449397D01*
X751155Y448750D01*
X752845D01*
X754407Y449397D01*
X755010Y450000D01*
X807990D01*
X808593Y449397D01*
X810155Y448750D01*
X811845D01*
X813407Y449397D01*
X814010Y450000D01*
X814990D01*
X815593Y449397D01*
X817155Y448750D01*
X818845D01*
X820407Y449397D01*
X821010Y450000D01*
X821990D01*
X822593Y449397D01*
X824155Y448750D01*
X825845D01*
X827407Y449397D01*
X828010Y450000D01*
X828990D01*
X829593Y449397D01*
X831155Y448750D01*
X832845D01*
X834407Y449397D01*
X835010Y450000D01*
X853361D01*
X854066Y448944D01*
X853901Y448544D01*
Y446853D01*
X854548Y445291D01*
X855743Y444096D01*
X857305Y443449D01*
X858996D01*
X860558Y444096D01*
X861754Y445291D01*
X862401Y446853D01*
Y448544D01*
X862235Y448944D01*
X862941Y450000D01*
X865040D01*
X885085Y450000D01*
X885791Y448944D01*
X885750Y448845D01*
Y447155D01*
X886397Y445593D01*
X887593Y444397D01*
X889155Y443750D01*
X890845D01*
X892407Y444397D01*
X893603Y445593D01*
X894250Y447155D01*
Y448730D01*
X894340Y449140D01*
X894915Y450000D01*
X944500D01*
X952000Y457500D01*
Y489750D01*
X955000Y492750D01*
X979750Y492750D01*
X983500Y489000D01*
D02*
G37*
G36*
X941750Y346000D02*
X947000Y340750D01*
X947000Y203000D01*
X964000Y186000D01*
X1021000D01*
X1024000Y183000D01*
Y179523D01*
X989477Y145000D01*
X970000D01*
X957505Y157495D01*
X958603Y158593D01*
X959250Y160155D01*
Y161845D01*
X958603Y163407D01*
X957407Y164603D01*
X955845Y165250D01*
X955750D01*
X924000Y197000D01*
Y221990D01*
X924603Y222593D01*
X925250Y224155D01*
Y225845D01*
X924603Y227407D01*
X924000Y228011D01*
Y229990D01*
X924603Y230593D01*
X925250Y232155D01*
Y233845D01*
X924603Y235408D01*
X924000Y236010D01*
Y237990D01*
X924603Y238593D01*
X925250Y240155D01*
Y241845D01*
X924603Y243407D01*
X924000Y244011D01*
Y250490D01*
X924603Y251093D01*
X925250Y252655D01*
Y254345D01*
X924603Y255907D01*
X924000Y256511D01*
Y258490D01*
X924603Y259093D01*
X925250Y260655D01*
Y262345D01*
X924603Y263908D01*
X924000Y264510D01*
Y266490D01*
X924603Y267093D01*
X925250Y268655D01*
Y270345D01*
X924603Y271908D01*
X924000Y272511D01*
Y332500D01*
X917250Y339250D01*
X924000Y346000D01*
X941750Y346000D01*
D02*
G37*
%LPC*%
G36*
X657845Y446250D02*
X656155D01*
X654593Y445603D01*
X653500Y444510D01*
X652407Y445603D01*
X650845Y446250D01*
X649155D01*
X647593Y445603D01*
X646500Y444510D01*
X645407Y445603D01*
X643845Y446250D01*
X642155D01*
X640593Y445603D01*
X639500Y444510D01*
X638407Y445603D01*
X636845Y446250D01*
X635155D01*
X633593Y445603D01*
X632397Y444407D01*
X631750Y442845D01*
Y441155D01*
X632397Y439593D01*
X633593Y438397D01*
X635155Y437750D01*
X636845D01*
X638407Y438397D01*
X639500Y439490D01*
X640593Y438397D01*
X642155Y437750D01*
X643845D01*
X645407Y438397D01*
X646500Y439490D01*
X647593Y438397D01*
X649155Y437750D01*
X650845D01*
X652407Y438397D01*
X653500Y439490D01*
X654593Y438397D01*
X656155Y437750D01*
X657845D01*
X659407Y438397D01*
X660603Y439593D01*
X661250Y441155D01*
Y442845D01*
X660603Y444407D01*
X659407Y445603D01*
X657845Y446250D01*
D02*
G37*
G36*
X341845Y413289D02*
X340155D01*
X338593Y412642D01*
X337397Y411447D01*
X336750Y409885D01*
Y408194D01*
X337397Y406632D01*
X338593Y405436D01*
X340155Y404789D01*
X341845D01*
X343407Y405436D01*
X344603Y406632D01*
X345250Y408194D01*
Y409885D01*
X344603Y411447D01*
X343407Y412642D01*
X341845Y413289D01*
D02*
G37*
G36*
X348118Y245000D02*
X343882D01*
X339729Y244174D01*
X335816Y242553D01*
X332295Y240200D01*
X329300Y237205D01*
X326947Y233684D01*
X325326Y229771D01*
X324500Y225618D01*
Y221382D01*
X325326Y217229D01*
X326947Y213316D01*
X329300Y209795D01*
X332295Y206800D01*
X335816Y204447D01*
X339729Y202826D01*
X343882Y202000D01*
X348118D01*
X352271Y202826D01*
X356184Y204447D01*
X359705Y206800D01*
X362700Y209795D01*
X365053Y213316D01*
X366674Y217229D01*
X367500Y221382D01*
Y225618D01*
X366674Y229771D01*
X365053Y233684D01*
X362700Y237205D01*
X359705Y240200D01*
X356184Y242553D01*
X352271Y244174D01*
X348118Y245000D01*
D02*
G37*
G36*
X504000Y200093D02*
Y193000D01*
X511093D01*
X510949Y193535D01*
X509402Y196215D01*
X507215Y198402D01*
X504535Y199949D01*
X504000Y200093D01*
D02*
G37*
G36*
X729000Y200093D02*
Y193000D01*
X736093D01*
X735949Y193535D01*
X734402Y196215D01*
X732215Y198402D01*
X729535Y199949D01*
X729000Y200093D01*
D02*
G37*
G36*
X679000Y200093D02*
Y193000D01*
X686093D01*
X685949Y193535D01*
X684402Y196215D01*
X682215Y198402D01*
X679535Y199949D01*
X679000Y200093D01*
D02*
G37*
G36*
X579000D02*
Y193000D01*
X586093D01*
X585949Y193535D01*
X584402Y196215D01*
X582215Y198402D01*
X579535Y199949D01*
X579000Y200093D01*
D02*
G37*
G36*
X629000D02*
Y193000D01*
X636093D01*
X635949Y193535D01*
X634402Y196215D01*
X632215Y198402D01*
X629535Y199949D01*
X629000Y200093D01*
D02*
G37*
G36*
X529000D02*
Y193000D01*
X536093D01*
X535949Y193535D01*
X534402Y196215D01*
X532215Y198402D01*
X529535Y199949D01*
X529000Y200093D01*
D02*
G37*
G36*
X671000Y200093D02*
X670465Y199949D01*
X667785Y198402D01*
X665598Y196215D01*
X664051Y193535D01*
X663907Y193000D01*
X671000D01*
Y200093D01*
D02*
G37*
G36*
X571000D02*
X570465Y199949D01*
X567785Y198402D01*
X565598Y196215D01*
X564051Y193535D01*
X563907Y193000D01*
X571000D01*
Y200093D01*
D02*
G37*
G36*
X621000D02*
X620465Y199949D01*
X617785Y198402D01*
X615598Y196215D01*
X614051Y193535D01*
X613907Y193000D01*
X621000D01*
Y200093D01*
D02*
G37*
G36*
X521000D02*
X520465Y199949D01*
X517785Y198402D01*
X515598Y196215D01*
X514051Y193535D01*
X513907Y193000D01*
X521000D01*
Y200093D01*
D02*
G37*
G36*
X721000D02*
X720465Y199949D01*
X717785Y198402D01*
X715598Y196215D01*
X714051Y193535D01*
X713907Y193000D01*
X721000D01*
Y200093D01*
D02*
G37*
G36*
X496000Y200093D02*
X495465Y199949D01*
X492785Y198402D01*
X490598Y196215D01*
X489051Y193535D01*
X488907Y193000D01*
X496000D01*
Y200093D01*
D02*
G37*
G36*
X551415Y199750D02*
X548585D01*
X545851Y199017D01*
X543399Y197602D01*
X541398Y195601D01*
X539983Y193149D01*
X539250Y190415D01*
Y187585D01*
X539983Y184851D01*
X541398Y182399D01*
X543399Y180398D01*
X545851Y178983D01*
X548585Y178250D01*
X551415D01*
X554149Y178983D01*
X556601Y180398D01*
X558602Y182399D01*
X560017Y184851D01*
X560750Y187585D01*
Y190415D01*
X560017Y193149D01*
X558602Y195601D01*
X556601Y197602D01*
X554149Y199017D01*
X551415Y199750D01*
D02*
G37*
G36*
X476415D02*
X473585D01*
X470851Y199017D01*
X468399Y197602D01*
X466398Y195601D01*
X464983Y193149D01*
X464250Y190415D01*
Y187585D01*
X464983Y184851D01*
X466398Y182399D01*
X468399Y180398D01*
X470851Y178983D01*
X473585Y178250D01*
X476415D01*
X479149Y178983D01*
X481601Y180398D01*
X483602Y182399D01*
X485017Y184851D01*
X485750Y187585D01*
Y190415D01*
X485017Y193149D01*
X483602Y195601D01*
X481601Y197602D01*
X479149Y199017D01*
X476415Y199750D01*
D02*
G37*
G36*
X451415D02*
X448585D01*
X445851Y199017D01*
X443399Y197602D01*
X441398Y195601D01*
X439983Y193149D01*
X439250Y190415D01*
Y187585D01*
X439983Y184851D01*
X441398Y182399D01*
X443399Y180398D01*
X445851Y178983D01*
X448585Y178250D01*
X451415D01*
X454149Y178983D01*
X456601Y180398D01*
X458602Y182399D01*
X460017Y184851D01*
X460750Y187585D01*
Y190415D01*
X460017Y193149D01*
X458602Y195601D01*
X456601Y197602D01*
X454149Y199017D01*
X451415Y199750D01*
D02*
G37*
G36*
X671000Y185000D02*
X663907D01*
X664051Y184465D01*
X665598Y181785D01*
X667785Y179598D01*
X670465Y178051D01*
X671000Y177907D01*
Y185000D01*
D02*
G37*
G36*
X621000D02*
X613907D01*
X614051Y184465D01*
X615598Y181785D01*
X617785Y179598D01*
X620465Y178051D01*
X621000Y177907D01*
Y185000D01*
D02*
G37*
G36*
X571000D02*
X563907D01*
X564051Y184465D01*
X565598Y181785D01*
X567785Y179598D01*
X570465Y178051D01*
X571000Y177907D01*
Y185000D01*
D02*
G37*
G36*
X521000D02*
X513907D01*
X514051Y184465D01*
X515598Y181785D01*
X517785Y179598D01*
X520465Y178051D01*
X521000Y177907D01*
Y185000D01*
D02*
G37*
G36*
X511093D02*
X504000D01*
Y177907D01*
X504535Y178051D01*
X507215Y179598D01*
X509402Y181785D01*
X510949Y184465D01*
X511093Y185000D01*
D02*
G37*
G36*
X496000D02*
X488907D01*
X489051Y184465D01*
X490598Y181785D01*
X492785Y179598D01*
X495465Y178051D01*
X496000Y177907D01*
Y185000D01*
D02*
G37*
G36*
X686093D02*
X679000D01*
Y177907D01*
X679535Y178051D01*
X682215Y179598D01*
X684402Y181785D01*
X685949Y184465D01*
X686093Y185000D01*
D02*
G37*
G36*
X636093D02*
X629000D01*
Y177907D01*
X629535Y178051D01*
X632215Y179598D01*
X634402Y181785D01*
X635949Y184465D01*
X636093Y185000D01*
D02*
G37*
G36*
X586093D02*
X579000D01*
Y177907D01*
X579535Y178051D01*
X582215Y179598D01*
X584402Y181785D01*
X585949Y184465D01*
X586093Y185000D01*
D02*
G37*
G36*
X536093D02*
X529000D01*
Y177907D01*
X529535Y178051D01*
X532215Y179598D01*
X534402Y181785D01*
X535949Y184465D01*
X536093Y185000D01*
D02*
G37*
%LPD*%
D10*
X87322Y616983D02*
X155017D01*
X166000Y519000D02*
Y606000D01*
X155017Y616983D02*
X166000Y606000D01*
X77000Y304000D02*
X169000D01*
X181000Y292000D01*
X44000Y337000D02*
Y486000D01*
Y337000D02*
X77000Y304000D01*
X44000Y486000D02*
X84000Y526000D01*
Y563000D01*
X1045000Y184000D02*
X1066000Y205000D01*
X1018000Y184000D02*
X1045000D01*
X103000Y765000D02*
Y814828D01*
X48000Y816000D02*
X101828D01*
X103000Y765000D02*
X113000Y755000D01*
X101828Y816000D02*
X103000Y814828D01*
X38000Y754000D02*
X39000Y755000D01*
Y827828D01*
X40172Y829000D02*
X48000D01*
X39000Y827828D02*
X40172Y829000D01*
X87250Y617055D02*
X87322Y616983D01*
X1066000Y205000D02*
Y231000D01*
D101*
X163100Y948850D02*
D03*
X220900D02*
D03*
X417000Y850000D02*
D03*
Y858750D02*
D03*
X362000Y871000D02*
D03*
X354000D02*
D03*
X58750Y549750D02*
D03*
X921000Y233000D02*
D03*
Y225000D02*
D03*
Y241000D02*
D03*
X914000Y233000D02*
D03*
Y241000D02*
D03*
Y225000D02*
D03*
Y253500D02*
D03*
Y269500D02*
D03*
Y261500D02*
D03*
X921000Y269500D02*
D03*
Y253500D02*
D03*
Y261500D02*
D03*
X952250Y175000D02*
D03*
X946500Y182000D02*
D03*
X940750Y189000D02*
D03*
X369000Y328000D02*
D03*
X142500Y227000D02*
D03*
X304500Y476250D02*
D03*
X311500D02*
D03*
X318500D02*
D03*
X974500Y487250D02*
D03*
X967500D02*
D03*
X960500D02*
D03*
Y479250D02*
D03*
X967500D02*
D03*
X974500D02*
D03*
X920000Y470000D02*
D03*
X996000Y743000D02*
D03*
X989000Y762750D02*
D03*
X949000Y788000D02*
D03*
X1045000Y163750D02*
D03*
X1035000Y145250D02*
D03*
X1014000Y178000D02*
D03*
X691250Y653000D02*
D03*
X437000Y800000D02*
D03*
X327879Y583000D02*
D03*
X301000Y548000D02*
D03*
X392000Y653000D02*
D03*
X483000Y506000D02*
D03*
X720000Y950000D02*
D03*
X672000D02*
D03*
X618000D02*
D03*
X565000D02*
D03*
X513000D02*
D03*
X356000D02*
D03*
X181000Y292000D02*
D03*
X707000Y444000D02*
D03*
X715000Y449000D02*
D03*
X731000Y453000D02*
D03*
X598000D02*
D03*
X605000D02*
D03*
X612000D02*
D03*
X619000D02*
D03*
X283000Y651000D02*
D03*
X200000Y910000D02*
D03*
X982000Y149000D02*
D03*
X902000Y789000D02*
D03*
X900000Y732000D02*
D03*
X858151Y447699D02*
D03*
X213000Y223000D02*
D03*
X186000Y222000D02*
D03*
X173000D02*
D03*
X161000D02*
D03*
X877000Y327500D02*
D03*
X883500D02*
D03*
X864000D02*
D03*
X856000D02*
D03*
X856000Y320500D02*
D03*
X393000Y327000D02*
D03*
X935000Y196000D02*
D03*
X393000Y320000D02*
D03*
X393000Y313000D02*
D03*
X451000Y328000D02*
D03*
X619450D02*
D03*
X664000D02*
D03*
X883500Y313500D02*
D03*
X877000D02*
D03*
X883500Y320500D02*
D03*
X877000D02*
D03*
X848000Y327500D02*
D03*
X864000Y320500D02*
D03*
X848000D02*
D03*
X856000Y313500D02*
D03*
X848000D02*
D03*
X864000D02*
D03*
X810000D02*
D03*
X770000D02*
D03*
X778000D02*
D03*
X786000D02*
D03*
X794000D02*
D03*
X802000D02*
D03*
X802000Y320500D02*
D03*
X794000D02*
D03*
X786000D02*
D03*
X778000D02*
D03*
X770000D02*
D03*
X810000D02*
D03*
X810000Y327500D02*
D03*
X770000D02*
D03*
X778000D02*
D03*
X786000D02*
D03*
X794000D02*
D03*
X802000D02*
D03*
X730000Y313500D02*
D03*
X690000D02*
D03*
X698000D02*
D03*
X706000D02*
D03*
X714000D02*
D03*
X722000D02*
D03*
X722000Y320500D02*
D03*
X714000D02*
D03*
X706000D02*
D03*
X698000D02*
D03*
X690000D02*
D03*
X730000D02*
D03*
X730000Y327500D02*
D03*
X690000D02*
D03*
X698000D02*
D03*
X706000D02*
D03*
X714000D02*
D03*
X722000D02*
D03*
X596000Y313000D02*
D03*
X556000D02*
D03*
X564000D02*
D03*
X572000D02*
D03*
X580000D02*
D03*
X588000D02*
D03*
X588000Y320000D02*
D03*
X580000D02*
D03*
X572000D02*
D03*
X564000D02*
D03*
X556000D02*
D03*
X596000D02*
D03*
X596000Y327000D02*
D03*
X556000D02*
D03*
X564000D02*
D03*
X572000D02*
D03*
X580000D02*
D03*
X588000D02*
D03*
X507000Y327500D02*
D03*
X499000D02*
D03*
X491000D02*
D03*
X483000D02*
D03*
X475000D02*
D03*
X515000D02*
D03*
X515000Y320500D02*
D03*
X475000D02*
D03*
X483000D02*
D03*
X491000D02*
D03*
X499000D02*
D03*
X507000D02*
D03*
X507000Y313500D02*
D03*
X499000D02*
D03*
X491000D02*
D03*
X483000D02*
D03*
X475000D02*
D03*
X515000D02*
D03*
X433000Y313000D02*
D03*
X401000D02*
D03*
X409000D02*
D03*
X417000D02*
D03*
X425000D02*
D03*
X425000Y320000D02*
D03*
X417000D02*
D03*
X409000D02*
D03*
X401000D02*
D03*
X433000D02*
D03*
X433000Y327000D02*
D03*
X401000D02*
D03*
X409000D02*
D03*
X417000D02*
D03*
X425000D02*
D03*
X822000Y333000D02*
D03*
X745000Y328000D02*
D03*
X530000Y618000D02*
D03*
X532000Y575000D02*
D03*
Y530000D02*
D03*
X531000Y554000D02*
D03*
X890000Y769000D02*
D03*
Y745000D02*
D03*
Y761000D02*
D03*
Y753000D02*
D03*
X882000Y745000D02*
D03*
Y753000D02*
D03*
Y761000D02*
D03*
Y769000D02*
D03*
X327000Y826000D02*
D03*
X338000Y871000D02*
D03*
X346000D02*
D03*
X417000Y840500D02*
D03*
X696750Y752270D02*
D03*
X686000Y746250D02*
D03*
X853000Y800000D02*
D03*
X855000Y744000D02*
D03*
X1089000Y656000D02*
D03*
X1038000Y674000D02*
D03*
X1035000Y640000D02*
D03*
X997000Y630000D02*
D03*
X954000Y658000D02*
D03*
X905000Y669000D02*
D03*
X903000Y684000D02*
D03*
X899000Y636000D02*
D03*
X862000Y631000D02*
D03*
X818000Y652000D02*
D03*
X766000Y666000D02*
D03*
X762000Y636000D02*
D03*
X726000Y627000D02*
D03*
X627000Y635000D02*
D03*
X592000Y628000D02*
D03*
X313000Y733000D02*
D03*
X317000Y665000D02*
D03*
X323000Y672000D02*
D03*
X338250Y686250D02*
D03*
X343000Y826000D02*
D03*
X338250Y694250D02*
D03*
X343000Y818000D02*
D03*
X330250Y686250D02*
D03*
Y694250D02*
D03*
X335000Y818000D02*
D03*
Y826000D02*
D03*
X327000Y818000D02*
D03*
X329000Y733000D02*
D03*
X321000D02*
D03*
X99000Y838000D02*
D03*
X212927Y910927D02*
D03*
X165000Y910000D02*
D03*
X139000D02*
D03*
X48000Y816000D02*
D03*
X517000Y832000D02*
D03*
X515500Y780500D02*
D03*
Y787750D02*
D03*
X362896Y796134D02*
D03*
X367502Y790214D02*
D03*
X380250Y796000D02*
D03*
X388000Y797000D02*
D03*
X423965Y767036D02*
D03*
X433000Y767000D02*
D03*
X387661Y764661D02*
D03*
X48000Y829000D02*
D03*
X391000Y741000D02*
D03*
X391111Y749111D02*
D03*
X391423Y758173D02*
D03*
X166000Y519000D02*
D03*
X1154000Y290000D02*
D03*
X633000Y671000D02*
D03*
X676000Y726000D02*
D03*
X733000Y750000D02*
D03*
X761000Y682000D02*
D03*
X639000Y484000D02*
D03*
X374000Y431000D02*
D03*
X256000Y497000D02*
D03*
X343000Y518000D02*
D03*
X250000Y689000D02*
D03*
X258000D02*
D03*
X266000D02*
D03*
X234500Y637250D02*
D03*
Y645500D02*
D03*
X658000Y479000D02*
D03*
X650000D02*
D03*
X442000Y471000D02*
D03*
X435000D02*
D03*
X428000D02*
D03*
X421000D02*
D03*
X341000Y409039D02*
D03*
X267000Y497000D02*
D03*
X1038000Y588000D02*
D03*
X1181000Y224000D02*
D03*
X1177000Y236000D02*
D03*
X1173000Y251000D02*
D03*
X1170000Y263000D02*
D03*
X984000Y125871D02*
D03*
X955000Y140000D02*
D03*
X50750Y563750D02*
D03*
Y556750D02*
D03*
X58750Y563750D02*
D03*
X50750Y549750D02*
D03*
X58750Y556750D02*
D03*
X1009000Y145000D02*
D03*
X575000Y444000D02*
D03*
X142500Y242250D02*
D03*
Y235000D02*
D03*
X65000Y221000D02*
D03*
X57000D02*
D03*
X72000D02*
D03*
X65000Y228000D02*
D03*
X57000D02*
D03*
X72000D02*
D03*
X86000Y240000D02*
D03*
X75000Y276000D02*
D03*
X422000Y717450D02*
D03*
X430000D02*
D03*
X597000Y746250D02*
D03*
X623000D02*
D03*
X541000Y747000D02*
D03*
X473000Y840000D02*
D03*
X465000D02*
D03*
X473000Y832000D02*
D03*
X465000D02*
D03*
X468000Y809000D02*
D03*
X291000Y567000D02*
D03*
Y575000D02*
D03*
Y583000D02*
D03*
Y597000D02*
D03*
Y605000D02*
D03*
Y613000D02*
D03*
X391000Y718000D02*
D03*
X372000Y783000D02*
D03*
X377965Y776964D02*
D03*
X382000Y770000D02*
D03*
X391000Y733000D02*
D03*
X503000Y753000D02*
D03*
X347000Y678000D02*
D03*
Y669000D02*
D03*
Y661000D02*
D03*
X571000Y715000D02*
D03*
X947000Y724000D02*
D03*
X726250Y730000D02*
D03*
X806000Y737000D02*
D03*
X808000Y782000D02*
D03*
X546000Y705000D02*
D03*
X524000Y471000D02*
D03*
X517000D02*
D03*
X391000Y725500D02*
D03*
X465000Y628000D02*
D03*
X522000Y640000D02*
D03*
X493000Y590000D02*
D03*
X764000Y577000D02*
D03*
X630000D02*
D03*
X493000Y609000D02*
D03*
X902502Y579605D02*
D03*
X841000Y528000D02*
D03*
X1048000Y280000D02*
D03*
X490000Y553000D02*
D03*
X564000Y524000D02*
D03*
X590000Y523000D02*
D03*
X890000Y448000D02*
D03*
X1107000Y284000D02*
D03*
X799000Y528000D02*
D03*
X718000Y522000D02*
D03*
X745000Y515000D02*
D03*
X474000Y802000D02*
D03*
X475000Y792000D02*
D03*
X463000Y710000D02*
D03*
X455000D02*
D03*
X453000Y613000D02*
D03*
X465000Y619000D02*
D03*
X432000Y645000D02*
D03*
X440000D02*
D03*
X448000D02*
D03*
X423000Y786000D02*
D03*
X463000Y702000D02*
D03*
X430000Y796000D02*
D03*
X455000Y702000D02*
D03*
X422000Y796000D02*
D03*
X412000D02*
D03*
X403000Y452000D02*
D03*
X442000Y538000D02*
D03*
X504000Y454000D02*
D03*
X404000Y799000D02*
D03*
X396788Y796940D02*
D03*
X493000Y569000D02*
D03*
X800000Y458000D02*
D03*
X837000Y463000D02*
D03*
X583000Y453000D02*
D03*
X405000Y462000D02*
D03*
X493000Y446000D02*
D03*
X631000Y509000D02*
D03*
X576000Y523000D02*
D03*
X795000Y447000D02*
D03*
X779000Y523000D02*
D03*
X882000Y447000D02*
D03*
X711750Y730000D02*
D03*
X384000Y447000D02*
D03*
X501000Y650000D02*
D03*
X999000Y809000D02*
D03*
X165000Y873000D02*
D03*
X151000Y872000D02*
D03*
X205000Y874000D02*
D03*
X250000Y866000D02*
D03*
X28000Y790000D02*
D03*
X1043000Y246000D02*
D03*
X1066000Y231000D02*
D03*
X934000Y300000D02*
D03*
X636000Y442000D02*
D03*
X643000D02*
D03*
X650000D02*
D03*
X657000D02*
D03*
X198000Y736000D02*
D03*
X209000Y794000D02*
D03*
X989000Y696000D02*
D03*
X846390Y700250D02*
D03*
X846000Y756000D02*
D03*
X749000Y746000D02*
D03*
X635000Y686606D02*
D03*
X633000Y727000D02*
D03*
X955000Y161000D02*
D03*
X192250Y955750D02*
D03*
Y963750D02*
D03*
X200250Y955750D02*
D03*
Y963750D02*
D03*
X376000Y457000D02*
D03*
X675000Y407000D02*
D03*
X667689D02*
D03*
X660495D02*
D03*
X832000Y453000D02*
D03*
X825000D02*
D03*
X818000D02*
D03*
X811000D02*
D03*
X752000D02*
D03*
X745000D02*
D03*
X738000D02*
D03*
X510000Y471000D02*
D03*
X352000Y630000D02*
D03*
X688000Y790000D02*
D03*
Y798000D02*
D03*
X680000D02*
D03*
Y790000D02*
D03*
X1175250Y703250D02*
D03*
X1033000Y796000D02*
D03*
X1033390Y730000D02*
D03*
X931000Y967000D02*
D03*
X879000D02*
D03*
X827000D02*
D03*
X775000D02*
D03*
X1175250Y743250D02*
D03*
Y783250D02*
D03*
X1175250Y835250D02*
D03*
X969500Y229000D02*
D03*
X961500D02*
D03*
X977500D02*
D03*
Y237000D02*
D03*
X961500D02*
D03*
X969500D02*
D03*
Y245000D02*
D03*
X961500D02*
D03*
X977500D02*
D03*
X969500Y253000D02*
D03*
X961500D02*
D03*
X977500D02*
D03*
X969500Y261000D02*
D03*
X961500D02*
D03*
X977500D02*
D03*
X854000Y371000D02*
D03*
Y379000D02*
D03*
Y363000D02*
D03*
X862000D02*
D03*
Y379000D02*
D03*
Y371000D02*
D03*
X870000D02*
D03*
Y379000D02*
D03*
Y363000D02*
D03*
X878000Y371000D02*
D03*
Y379000D02*
D03*
Y363000D02*
D03*
X886000Y371000D02*
D03*
Y379000D02*
D03*
Y363000D02*
D03*
X774000Y371000D02*
D03*
Y379000D02*
D03*
Y363000D02*
D03*
X782000D02*
D03*
Y379000D02*
D03*
Y371000D02*
D03*
X790000D02*
D03*
Y379000D02*
D03*
Y363000D02*
D03*
X798000Y371000D02*
D03*
Y379000D02*
D03*
Y363000D02*
D03*
X806000Y371000D02*
D03*
Y379000D02*
D03*
Y363000D02*
D03*
X694000Y371000D02*
D03*
Y379000D02*
D03*
Y363000D02*
D03*
X702000D02*
D03*
Y379000D02*
D03*
Y371000D02*
D03*
X710000D02*
D03*
Y379000D02*
D03*
Y363000D02*
D03*
X718000Y371000D02*
D03*
Y379000D02*
D03*
Y363000D02*
D03*
X726000Y371000D02*
D03*
Y379000D02*
D03*
Y363000D02*
D03*
X559000Y371000D02*
D03*
Y379000D02*
D03*
Y363000D02*
D03*
X567000D02*
D03*
Y379000D02*
D03*
Y371000D02*
D03*
X575000D02*
D03*
Y379000D02*
D03*
Y363000D02*
D03*
X583000Y371000D02*
D03*
Y379000D02*
D03*
Y363000D02*
D03*
X591000Y371000D02*
D03*
Y379000D02*
D03*
Y363000D02*
D03*
X479000Y371000D02*
D03*
Y379000D02*
D03*
Y363000D02*
D03*
X487000D02*
D03*
Y379000D02*
D03*
Y371000D02*
D03*
X495000D02*
D03*
Y379000D02*
D03*
Y363000D02*
D03*
X503000Y371000D02*
D03*
Y379000D02*
D03*
Y363000D02*
D03*
X511000Y371000D02*
D03*
Y379000D02*
D03*
Y363000D02*
D03*
X431000D02*
D03*
Y379000D02*
D03*
Y371000D02*
D03*
X423000Y363000D02*
D03*
Y379000D02*
D03*
Y371000D02*
D03*
X415000Y363000D02*
D03*
Y379000D02*
D03*
Y371000D02*
D03*
X407000D02*
D03*
Y379000D02*
D03*
Y363000D02*
D03*
X399000D02*
D03*
Y379000D02*
D03*
Y371000D02*
D03*
X152000Y663000D02*
D03*
X144000D02*
D03*
X136000D02*
D03*
X152000Y671000D02*
D03*
X144000D02*
D03*
X136000D02*
D03*
X226000Y637250D02*
D03*
Y645250D02*
D03*
X84000Y563000D02*
D03*
X87250Y617055D02*
D03*
D102*
X148800Y943850D02*
D03*
X235200D02*
D03*
D103*
X148800Y985650D02*
D03*
X235200D02*
D03*
D105*
X545000Y633000D02*
D03*
X443000Y913000D02*
D03*
X398000D02*
D03*
X353000D02*
D03*
X488000Y913000D02*
D03*
X38000Y754000D02*
D03*
X113000Y755000D02*
D03*
X667255Y708255D02*
D03*
X733255D02*
D03*
X721000Y485000D02*
D03*
X218000Y857000D02*
D03*
X134000Y853000D02*
D03*
X120000Y976000D02*
D03*
X116000Y899000D02*
D03*
D106*
X900000Y722640D02*
X910140Y712500D01*
X1116000D01*
X1173250Y655250D01*
Y290250D02*
Y655250D01*
X1175750Y288750D02*
Y657000D01*
X1033390Y730000D02*
X1102750D01*
X1175750Y657000D01*
X1086000Y751000D02*
X1178500Y658500D01*
X1045889Y795111D02*
X1181000Y660000D01*
X940000Y751000D02*
X1086000D01*
X1178500Y287500D02*
Y658500D01*
X902000Y789000D02*
X940000Y751000D01*
X1056000Y173000D02*
X1173250Y290250D01*
X1057500Y170500D02*
X1175750Y288750D01*
X1054750Y163750D02*
X1178500Y287500D01*
X1123425Y246000D02*
X1160500Y283075D01*
Y512500D01*
X996750Y140000D02*
X1029750Y173000D01*
X955000Y140000D02*
X996750D01*
X1029750Y173000D02*
X1056000D01*
X1009121Y145121D02*
X1013621D01*
X1039000Y170500D02*
X1057500D01*
X1009000Y145000D02*
X1009121Y145121D01*
X1013621D02*
X1039000Y170500D01*
X1045000Y163750D02*
X1054750D01*
X1035000Y145250D02*
X1040250D01*
X1181000Y286000D01*
X1021750Y132000D02*
X1035000Y145250D01*
X658000Y132000D02*
X1021750D01*
X650000Y140000D02*
X658000Y132000D01*
X650000Y140000D02*
Y189000D01*
X607250Y123000D02*
X979776D01*
X600000Y130250D02*
Y189000D01*
Y130250D02*
X607250Y123000D01*
X550000Y129750D02*
X559750Y120000D01*
X550000Y129750D02*
Y164000D01*
X559750Y120000D02*
X1019000D01*
X534500Y117000D02*
X1020000D01*
X525000Y126500D02*
Y164000D01*
Y126500D02*
X534500Y117000D01*
X500000Y124250D02*
X509750Y114500D01*
X1021500D01*
X500000Y124250D02*
Y164000D01*
X475000Y123750D02*
Y164000D01*
X486750Y112000D02*
X1023000D01*
X475000Y123750D02*
X486750Y112000D01*
X406000Y865000D02*
X437000D01*
X355000Y814000D02*
X406000Y865000D01*
X355000Y655000D02*
Y814000D01*
X443000Y673000D02*
Y786000D01*
X430889Y795111D02*
X433889D01*
X430000Y796000D02*
X430889Y795111D01*
X433889D02*
X443000Y786000D01*
X437000Y800000D02*
X444000D01*
X447000Y674000D02*
Y797000D01*
X444000Y800000D02*
X447000Y797000D01*
X434000Y786000D02*
X438000Y782000D01*
X423000Y786000D02*
X434000D01*
X438000Y668000D02*
Y782000D01*
X463000Y788000D02*
X477000Y774000D01*
X463000Y804000D02*
X468000Y809000D01*
X463000Y788000D02*
Y804000D01*
X477000Y650000D02*
Y774000D01*
X468000Y789000D02*
Y801121D01*
X481000Y652000D02*
Y776000D01*
X468000Y789000D02*
X481000Y776000D01*
X485000Y655000D02*
Y788000D01*
X481000Y792000D02*
X485000Y788000D01*
X475000Y792000D02*
X481000D01*
X402000Y643000D02*
X476000Y569000D01*
X493000D01*
X489611Y553389D02*
X490889Y552111D01*
X398000Y641000D02*
X485611Y553389D01*
X489611D01*
X398000Y641000D02*
Y778250D01*
X568000Y472000D02*
X888000D01*
X490889Y549111D02*
Y552111D01*
Y549111D02*
X568000Y472000D01*
X554000Y460000D02*
X704000D01*
X715000Y449000D01*
X414000Y600000D02*
X554000Y460000D01*
X794121Y463000D02*
X799121Y458000D01*
X557000Y463000D02*
X794121D01*
X377000Y643000D02*
X557000Y463000D01*
X561000Y466000D02*
X832647D01*
X835647Y463000D01*
X419000Y608000D02*
X561000Y466000D01*
X213000Y223000D02*
Y270000D01*
X263000Y320000D02*
Y459000D01*
X213000Y270000D02*
X263000Y320000D01*
X185600Y222400D02*
Y249600D01*
X258000Y322000D02*
Y459000D01*
X185600Y249600D02*
X258000Y322000D01*
X173000Y243000D02*
X254000Y324000D01*
X173000Y222000D02*
Y243000D01*
X254000Y324000D02*
Y460000D01*
X160200Y222800D02*
Y237200D01*
X250000Y327000D02*
Y461000D01*
X160200Y237200D02*
X250000Y327000D01*
X76000Y275000D02*
X185000D01*
X241000Y331000D02*
Y467000D01*
X185000Y275000D02*
X241000Y331000D01*
X187000Y271000D02*
X245000Y329000D01*
X90000Y271000D02*
X187000D01*
X245000Y329000D02*
Y462000D01*
X250000Y461000D02*
X308000Y519000D01*
Y645000D01*
X263000Y459000D02*
X320000Y516000D01*
Y640000D01*
X258000Y459000D02*
X316000Y517000D01*
Y642000D01*
X308000Y645000D02*
X341000Y678000D01*
X320000Y640000D02*
X333000Y653000D01*
X353000D01*
X312000Y644000D02*
X338000Y670000D01*
X312000Y518000D02*
Y644000D01*
X254000Y460000D02*
X312000Y518000D01*
X405000Y609000D02*
X405000D01*
X414000Y600000D02*
Y600000D01*
X405000Y609000D02*
X414000Y600000D01*
X380250Y796000D02*
X398000Y778250D01*
X402000Y643000D02*
Y780000D01*
X388889Y793111D02*
X402000Y780000D01*
X388889Y793111D02*
Y796111D01*
X388000Y797000D02*
X388889Y796111D01*
X406000Y645000D02*
Y783000D01*
X396793Y792207D02*
Y796935D01*
Y792207D02*
X406000Y783000D01*
X404000Y793000D02*
Y799000D01*
Y793000D02*
X410000Y787000D01*
Y646000D02*
Y787000D01*
X412000Y794647D02*
X414000Y792647D01*
Y647718D02*
Y792647D01*
X412000Y794647D02*
Y796000D01*
X385000Y649000D02*
X565000Y469000D01*
X413142Y614000D02*
X419000Y608142D01*
X413000Y614000D02*
X413142D01*
X565000Y469000D02*
X851121D01*
X858000Y462121D01*
X385000Y649000D02*
Y753000D01*
X381000Y646000D02*
X413000Y614000D01*
X373000Y641000D02*
X405000Y609000D01*
X381000Y646000D02*
Y758000D01*
X419000Y608000D02*
Y608142D01*
X377000Y643000D02*
Y765000D01*
X360000Y632000D02*
X396000Y596000D01*
Y459000D02*
Y596000D01*
X360000Y632000D02*
Y792621D01*
X364000Y636000D02*
Y786393D01*
Y636000D02*
X504000Y496000D01*
Y454000D02*
Y496000D01*
X369000Y638000D02*
X554000Y453000D01*
X369000Y638000D02*
Y779621D01*
X554000Y453000D02*
X583000D01*
X373000Y641000D02*
Y772000D01*
X304000Y678000D02*
Y900000D01*
X317000Y913000D02*
X353000D01*
X304000Y900000D02*
X317000Y913000D01*
X398000Y865929D02*
Y913000D01*
X308000Y775929D02*
X398000Y865929D01*
X485000Y913000D02*
X488000D01*
X437000Y865000D02*
X485000Y913000D01*
X193400Y916600D02*
X200000Y910000D01*
X900000Y722640D02*
Y732000D01*
X858000Y447849D02*
Y462121D01*
Y447849D02*
X858151Y447699D01*
X185600Y222400D02*
X186000Y222000D01*
X160200Y222800D02*
X161000Y222000D01*
X485000Y655000D02*
X604000Y536000D01*
X477000Y650000D02*
X610000Y517000D01*
X525000Y608000D02*
X602000Y531000D01*
X525000Y608000D02*
X525000D01*
X481000Y652000D02*
X525000Y608000D01*
X604000Y536000D02*
X1126000D01*
X447000Y674000D02*
X590000Y531000D01*
X443000Y673000D02*
X564000Y552000D01*
X508000Y541000D02*
X545000Y504000D01*
X602000Y531000D02*
X798000D01*
X308000Y687000D02*
Y775929D01*
X351000Y814536D02*
X439460Y902996D01*
Y909460D01*
X443000Y913000D01*
X351000Y682000D02*
Y814536D01*
X488000Y913000D02*
X503000Y898000D01*
Y753000D02*
Y898000D01*
X304000Y678000D02*
X317000Y665000D01*
X308000Y687000D02*
X323000Y672000D01*
X341000Y678000D02*
X347000D01*
X338000Y670000D02*
X343621D01*
X335000Y661000D02*
X347000D01*
X316000Y642000D02*
X335000Y661000D01*
X347000Y678000D02*
X351000Y682000D01*
X120000Y932000D02*
X135400Y916600D01*
X120000Y932000D02*
Y976000D01*
X135400Y916600D02*
X193400D01*
X212927Y867079D02*
X218000Y862006D01*
X212927Y867079D02*
Y910927D01*
X218000Y857000D02*
Y862006D01*
X134000Y853000D02*
Y879000D01*
X165000Y910000D01*
X116000Y899000D02*
X128000D01*
X139000Y910000D01*
X364000Y786393D02*
X367502Y789895D01*
X360000Y792621D02*
X362896Y795517D01*
Y796134D01*
X367502Y789895D02*
Y790214D01*
X381000Y758000D02*
X387661Y764661D01*
X417000Y650000D02*
Y791000D01*
X422000Y796000D01*
X417000Y650000D02*
X447965Y619035D01*
X414000Y647718D02*
X448470Y613248D01*
X410000Y646000D02*
X448000Y608000D01*
X390173Y758173D02*
X391423D01*
X385000Y753000D02*
X390173Y758173D01*
X1143000Y273000D02*
X1154000Y284000D01*
Y290000D01*
X1162000Y263000D02*
X1170000D01*
X1019000Y120000D02*
X1162000Y263000D01*
X1117000Y556000D02*
X1160500Y512500D01*
X918000Y177000D02*
X955000Y140000D01*
X1070000Y556000D02*
X1117000D01*
X1143000Y292000D02*
Y519000D01*
X1135000Y284000D02*
X1143000Y292000D01*
X1126000Y536000D02*
X1143000Y519000D01*
X1038000Y588000D02*
X1070000Y556000D01*
X1043000Y246000D02*
X1123425D01*
X1056000Y273000D02*
X1143000D01*
X1107000Y284000D02*
X1135000D01*
X733000Y708511D02*
Y750000D01*
Y708511D02*
X733255Y708255D01*
X669627Y710627D02*
Y719627D01*
X676000Y726000D01*
X667255Y708255D02*
X669627Y710627D01*
X711272Y492000D02*
X718272Y485000D01*
X721000D01*
X645000Y492000D02*
X711272D01*
X639000Y485218D02*
X640419Y486637D01*
Y487419D02*
X645000Y492000D01*
X639000Y484000D02*
Y485218D01*
X640419Y486637D02*
Y487419D01*
X241000Y467000D02*
X256000Y482000D01*
Y497000D01*
X266292Y483292D02*
Y496292D01*
X245000Y462000D02*
X266292Y483292D01*
Y496292D02*
X267000Y497000D01*
X888000Y472000D02*
X890000Y470000D01*
Y448000D02*
Y470000D01*
X1135000Y224000D02*
X1181000D01*
X1023000Y112000D02*
X1135000Y224000D01*
X1143000Y236000D02*
X1177000D01*
X1021500Y114500D02*
X1143000Y236000D01*
X1154000Y251000D02*
X1173000D01*
X1020000Y117000D02*
X1154000Y251000D01*
X1181000Y286000D02*
Y660000D01*
X982647Y125871D02*
X984000D01*
X979776Y123000D02*
X982647Y125871D01*
X715000Y177000D02*
X918000D01*
X700000Y189000D02*
X703000D01*
X715000Y177000D01*
X927000Y189000D02*
X955000Y161000D01*
X750000Y189000D02*
X927000D01*
X75000Y276000D02*
X76000Y275000D01*
X86000Y267000D02*
X90000Y271000D01*
X86000Y240000D02*
Y267000D01*
X438000Y668000D02*
X465000Y641000D01*
X353000Y653000D02*
X355000Y655000D01*
X369000Y779621D02*
X372000Y782621D01*
Y783000D01*
X373000Y772000D02*
X377965Y776964D01*
X377000Y765000D02*
X382000Y770000D01*
X343621Y670000D02*
X343665Y669957D01*
X346043D02*
X347000Y669000D01*
X343665Y669957D02*
X346043D01*
X508000Y541000D02*
Y594000D01*
X545000Y504000D02*
X817000D01*
X465000Y628000D02*
Y641000D01*
X529000Y633000D02*
X545000D01*
X522000Y640000D02*
X529000Y633000D01*
X564000Y524000D02*
Y552000D01*
X493000Y609000D02*
X508000Y594000D01*
X817000Y504000D02*
X841000Y528000D01*
X1048000Y280000D02*
X1049000Y279000D01*
X1050000D01*
X1056000Y273000D01*
X590000Y523000D02*
Y531000D01*
X610000Y517000D02*
X744121D01*
X798000Y531000D02*
X798043Y530957D01*
Y528957D02*
X799000Y528000D01*
X798043Y528957D02*
Y530957D01*
X468879Y802000D02*
X474000D01*
X468000Y801121D02*
X468879Y802000D01*
X744121Y517000D02*
X745000Y516121D01*
Y515000D02*
Y516121D01*
X448000Y608000D02*
X489621D01*
X448470Y613248D02*
X452752D01*
X453000Y613000D01*
X447965Y619035D02*
X451107D01*
X451142Y619000D02*
X465000D01*
X451107Y619035D02*
X451142Y619000D01*
X406000Y645000D02*
X462000Y589000D01*
X493000D01*
X396000Y459000D02*
X403000Y452000D01*
X396788Y796940D02*
X396793Y796935D01*
X835647Y463000D02*
X837000D01*
X799121Y458000D02*
X800000D01*
X1033889Y795111D02*
X1045889D01*
X1033000Y796000D02*
X1033889Y795111D01*
D109*
X194350Y355650D02*
D03*
X150000D02*
D03*
X105650D02*
D03*
Y400000D02*
D03*
X150000D02*
D03*
X194350D02*
D03*
Y444350D02*
D03*
X150000D02*
D03*
X105650D02*
D03*
X1094350Y355650D02*
D03*
X1050000D02*
D03*
X1005650D02*
D03*
Y400000D02*
D03*
X1050000D02*
D03*
X1094350D02*
D03*
Y444350D02*
D03*
X1050000D02*
D03*
X1005650D02*
D03*
D110*
X785750Y233000D02*
D03*
X414250D02*
D03*
D111*
X744950Y164000D02*
D03*
X704950D02*
D03*
X664950D02*
D03*
X624950D02*
D03*
X584950D02*
D03*
X550000D02*
D03*
X525000D02*
D03*
X500000D02*
D03*
X475000D02*
D03*
X450000D02*
D03*
X750000Y189000D02*
D03*
X725000D02*
D03*
X700000D02*
D03*
X675000D02*
D03*
X650000D02*
D03*
X625000D02*
D03*
X600000D02*
D03*
X575000D02*
D03*
X550000D02*
D03*
X525000D02*
D03*
X500000D02*
D03*
X475000D02*
D03*
X450000D02*
D03*
D112*
X735000Y224000D02*
D03*
X667500D02*
D03*
X600000D02*
D03*
X532500D02*
D03*
X465000D02*
D03*
D113*
X854000Y223500D02*
D03*
X346000D02*
D03*
D114*
X50000Y950000D02*
D03*
Y150000D02*
D03*
X1150000D02*
D03*
Y950000D02*
D03*
D115*
X501000Y201000D02*
X504000Y204000D01*
X388750D02*
X501000D01*
X384500Y199750D02*
X388750Y204000D01*
X527000D02*
X583000D01*
X504000D02*
X527000D01*
X525698Y189698D02*
Y202698D01*
X525000Y189000D02*
X525698Y189698D01*
Y202698D02*
X527000Y204000D01*
X500000Y189000D02*
X501000Y190000D01*
Y201000D01*
X724000Y190000D02*
X725000Y189000D01*
X724000Y190000D02*
Y202000D01*
X672000Y204000D02*
X722000D01*
X724000Y202000D01*
X674000Y190000D02*
Y202000D01*
Y190000D02*
X675000Y189000D01*
X620000Y204000D02*
X672000D01*
X674000Y202000D01*
X622802Y191198D02*
X625000Y189000D01*
X622802Y191198D02*
Y201198D01*
X620000Y204000D02*
X622802Y201198D01*
X583000Y204000D02*
X620000D01*
X575000Y189000D02*
X577774Y191774D01*
Y198774D01*
X583000Y204000D01*
D116*
X369000Y328000D02*
Y338071D01*
X371929Y341000D01*
X928000D02*
X930000Y339000D01*
X819071Y341000D02*
X928000D01*
X451000Y328406D02*
Y341000D01*
X617071D01*
X371929D02*
X451000D01*
X821934Y333066D02*
Y338137D01*
X743071Y341000D02*
X819071D01*
X821934Y333066D02*
X822000Y333000D01*
X819071Y341000D02*
X821934Y338137D01*
X745000Y328000D02*
Y328406D01*
X746000Y329406D01*
X743071Y341000D02*
X746000Y338071D01*
X661071Y341000D02*
X743071D01*
X746000Y329406D02*
Y338071D01*
X664000Y328000D02*
Y338071D01*
X617071Y341000D02*
X661071D01*
X664000Y338071D01*
X619450Y328000D02*
X619737Y328287D01*
Y329348D01*
X620000Y329610D01*
Y338071D01*
X617071Y341000D02*
X620000Y338071D01*
M02*
