G04*
G04 #@! TF.GenerationSoftware,Altium Limited,Altium Designer,25.0.2 (28)*
G04*
G04 Layer_Color=65535*
%FSLAX44Y44*%
%MOMM*%
G71*
G04*
G04 #@! TF.SameCoordinates,1924397C-AF8B-4530-83B7-FB2F84BC8B12*
G04*
G04*
G04 #@! TF.FilePolarity,Positive*
G04*
G01*
G75*
%ADD10C,0.2000*%
%ADD11C,0.6000*%
%ADD12C,0.2500*%
%ADD13C,0.2540*%
%ADD14C,0.1000*%
%ADD15C,0.4000*%
%ADD16C,0.3000*%
%ADD17C,0.1270*%
G36*
X41580Y775188D02*
X42061Y775166D01*
X42127Y775144D01*
X42378Y775111D01*
X42597Y775067D01*
X42728Y775045D01*
X42903Y775023D01*
X43166Y775002D01*
X43516Y774980D01*
X43713Y774958D01*
X44106Y774892D01*
X44325Y774848D01*
X44500Y774827D01*
X44719Y774805D01*
X44850Y774783D01*
X44959Y774761D01*
X45069Y774717D01*
X45298Y774619D01*
X45605Y774575D01*
X46042Y774553D01*
X46239Y774444D01*
X46348Y774400D01*
X46436Y774378D01*
X46666Y774323D01*
X46895Y774203D01*
X46983Y774181D01*
X47333Y774159D01*
X47530Y774050D01*
X47573Y774006D01*
X47726Y773962D01*
X47869Y773930D01*
X47978Y773886D01*
X48120Y773831D01*
X48208Y773809D01*
X48361Y773766D01*
X48503Y773711D01*
X48634Y773602D01*
X48667Y773569D01*
X48930Y773525D01*
X49094Y773492D01*
X49225Y773405D01*
X49258Y773372D01*
X49400Y773317D01*
X49531Y773230D01*
X49586Y773175D01*
X49695Y773131D01*
X49936Y773109D01*
X50056Y773011D01*
X50078Y772967D01*
X50198Y772913D01*
X50286Y772891D01*
X50395Y772847D01*
X50439Y772803D01*
X50483Y772781D01*
X50527Y772738D01*
X50647Y772705D01*
X50822Y772595D01*
X50898Y772519D01*
X51052Y772475D01*
X51172Y772442D01*
X51248Y772387D01*
X51314Y772322D01*
X51467Y772234D01*
X51598Y772103D01*
X51686Y772081D01*
X51817Y772059D01*
X51861Y772016D01*
X51894Y772005D01*
X51916Y771961D01*
X51992Y771884D01*
X52189Y771775D01*
X52255Y771709D01*
X52397Y771655D01*
X52506Y771589D01*
X52528Y771545D01*
X52583Y771469D01*
X52692Y771425D01*
X52780Y771403D01*
X52889Y771338D01*
X53020Y771206D01*
X53064Y771184D01*
X53195Y771053D01*
X53392Y770944D01*
X53502Y770834D01*
X53545Y770813D01*
X53589Y770769D01*
X53633Y770747D01*
X53764Y770616D01*
X53808Y770594D01*
X53928Y770495D01*
X53983Y770441D01*
X54027Y770419D01*
X54180Y770331D01*
X54212Y770298D01*
X54234Y770255D01*
X54289Y770178D01*
X54333Y770156D01*
X54486Y770003D01*
X54595Y769938D01*
X54650Y769883D01*
X54672Y769839D01*
X54748Y769762D01*
X54792Y769741D01*
X54913Y769642D01*
X55066Y769489D01*
X55087Y769445D01*
X55164Y769369D01*
X55208Y769347D01*
X55448Y769106D01*
X55481Y769095D01*
X55503Y769052D01*
X55700Y768855D01*
X55722Y768811D01*
X55820Y768712D01*
X55864Y768691D01*
X56050Y768505D01*
X56072Y768461D01*
X56170Y768341D01*
X56236Y768275D01*
X56280Y768253D01*
X56334Y768198D01*
X56400Y768089D01*
X56509Y767980D01*
X56531Y767936D01*
X56564Y767903D01*
X56608Y767881D01*
X56706Y767805D01*
X56816Y767608D01*
X56925Y767498D01*
X56947Y767455D01*
X57067Y767291D01*
X57100Y767280D01*
X57122Y767236D01*
X57188Y767170D01*
X57209Y767127D01*
X57341Y766995D01*
X57450Y766798D01*
X57581Y766667D01*
X57603Y766624D01*
X57658Y766547D01*
X57702Y766525D01*
X57756Y766427D01*
X57789Y766306D01*
X57855Y766197D01*
X57898Y766175D01*
X57975Y766120D01*
X58019Y766011D01*
X58106Y765858D01*
X58150Y765814D01*
X58172Y765770D01*
X58259Y765617D01*
X58412Y765464D01*
X58434Y765311D01*
X58478Y765202D01*
X58511Y765169D01*
X58555Y765147D01*
X58609Y765092D01*
X58719Y764895D01*
X58784Y764830D01*
X58828Y764677D01*
X58861Y764556D01*
X58916Y764480D01*
X59003Y764392D01*
X59069Y764239D01*
X59113Y764130D01*
X59222Y763977D01*
X59255Y763834D01*
X59298Y763725D01*
X59364Y763659D01*
X59408Y763637D01*
X59441Y763605D01*
X59462Y763517D01*
X59506Y763211D01*
X59605Y763091D01*
X59637Y763058D01*
X59681Y762949D01*
X59736Y762806D01*
X59769Y762774D01*
X59791Y762730D01*
X59878Y762533D01*
X59900Y762270D01*
X59988Y762117D01*
X60053Y762052D01*
X60097Y761942D01*
X60119Y761855D01*
X60173Y761625D01*
X60272Y761395D01*
X60294Y761308D01*
X60326Y761122D01*
X60370Y761012D01*
X60469Y760914D01*
X60512Y760761D01*
X60534Y760477D01*
X60567Y760203D01*
X60611Y760094D01*
X60644Y760061D01*
X60666Y760017D01*
X60709Y759908D01*
X60731Y759820D01*
X60764Y759634D01*
X60786Y759547D01*
X60906Y759295D01*
X60928Y759142D01*
X60950Y758508D01*
X60972Y758442D01*
X61059Y758245D01*
X61103Y758092D01*
X61147Y757917D01*
X61169Y757567D01*
X61191Y757414D01*
X61223Y757206D01*
X61245Y757031D01*
X61289Y756769D01*
X61322Y756473D01*
X61344Y755992D01*
X61366Y755839D01*
X61388Y755336D01*
X61409Y755270D01*
X61442Y754975D01*
X61497Y754527D01*
X61530Y754275D01*
X61573Y754187D01*
X61661Y754166D01*
X61836Y754187D01*
X61902Y754209D01*
X62055Y754231D01*
X62558Y754253D01*
X62711Y754319D01*
X62820Y754362D01*
X62995Y754406D01*
X63247Y754461D01*
X63695Y754603D01*
X63783Y754625D01*
X64352Y754647D01*
X64417Y754669D01*
X64559Y754724D01*
X64592Y754756D01*
X64701Y754800D01*
X64909Y754877D01*
X64953Y754920D01*
X64975Y755008D01*
X64997Y755489D01*
X65019Y755555D01*
X65008Y755719D01*
X65019Y756102D01*
X64997Y756167D01*
X64964Y756659D01*
X64942Y756878D01*
X64920Y757162D01*
X64877Y757403D01*
X64800Y757655D01*
X64756Y757830D01*
X64734Y758048D01*
X64713Y758442D01*
X64669Y758552D01*
X64603Y758661D01*
X64516Y758858D01*
X64461Y759088D01*
X64439Y759175D01*
X64363Y759361D01*
X64319Y759470D01*
X64286Y759613D01*
X64209Y759733D01*
X64166Y759777D01*
X64144Y759820D01*
X64100Y759930D01*
X64078Y760017D01*
X64056Y760214D01*
X63925Y760345D01*
X63816Y760542D01*
X63728Y760630D01*
X63684Y760805D01*
X63652Y760925D01*
X63531Y761045D01*
X63509Y761089D01*
X63356Y761374D01*
X63247Y761527D01*
X63225Y761570D01*
X63094Y761702D01*
X63050Y761811D01*
X63028Y761898D01*
X62973Y761975D01*
X62930Y761997D01*
X62853Y762074D01*
X62787Y762183D01*
X62656Y762314D01*
X62634Y762402D01*
X62580Y762544D01*
X62514Y762609D01*
X62470Y762631D01*
X62372Y762708D01*
X62350Y762752D01*
X62241Y762905D01*
X62219Y762949D01*
X62142Y763025D01*
X62033Y763091D01*
X62000Y763123D01*
X61945Y763266D01*
X61891Y763342D01*
X61770Y763463D01*
X61726Y763484D01*
X61606Y763605D01*
X61584Y763649D01*
X61486Y763769D01*
X61388Y763867D01*
X61366Y763911D01*
X61267Y764031D01*
X61223Y764075D01*
X61180Y764097D01*
X61103Y764174D01*
X61081Y764217D01*
X61048Y764250D01*
X61005Y764272D01*
X60950Y764349D01*
X60852Y764469D01*
X60808Y764512D01*
X60764Y764534D01*
X60709Y764611D01*
X60611Y764709D01*
X60567Y764731D01*
X60512Y764786D01*
X60491Y764830D01*
X60370Y764950D01*
X60338Y764961D01*
X60316Y765005D01*
X60173Y765147D01*
X60130Y765169D01*
X60075Y765223D01*
X60053Y765267D01*
X60020Y765300D01*
X59977Y765322D01*
X59878Y765420D01*
X59856Y765464D01*
X59780Y765541D01*
X59736Y765563D01*
X59539Y765759D01*
X59495Y765781D01*
X59397Y765880D01*
X59386Y765912D01*
X59342Y765934D01*
X59244Y766033D01*
X59222Y766077D01*
X59145Y766153D01*
X58948Y766263D01*
X58894Y766317D01*
X58872Y766361D01*
X58828Y766405D01*
X58806Y766449D01*
X58762Y766492D01*
X58752Y766525D01*
X58708Y766547D01*
X58664Y766591D01*
X58620Y766612D01*
X58500Y766711D01*
X58358Y766853D01*
X58314Y766875D01*
X58172Y767017D01*
X58150Y767061D01*
X58084Y767127D01*
X58063Y767170D01*
X57997Y767324D01*
X58030Y767378D01*
X58117Y767400D01*
X58227Y767378D01*
X58270Y767334D01*
X58314Y767312D01*
X58511Y767225D01*
X58719Y767192D01*
X58795Y767138D01*
X58839Y767072D01*
X58883Y767050D01*
X59036Y766941D01*
X59123Y766831D01*
X59233Y766766D01*
X59386Y766612D01*
X59539Y766525D01*
X59627Y766438D01*
X59747Y766405D01*
X59823Y766350D01*
X59878Y766295D01*
X59900Y766252D01*
X59955Y766197D01*
X60042Y766175D01*
X60184Y766120D01*
X60305Y766000D01*
X60348Y765978D01*
X60469Y765880D01*
X60545Y765803D01*
X60655Y765759D01*
X60764Y765694D01*
X60873Y765584D01*
X60917Y765563D01*
X60961Y765519D01*
X61005Y765497D01*
X61092Y765409D01*
X61136Y765387D01*
X61289Y765278D01*
X61420Y765147D01*
X61573Y765059D01*
X61628Y764983D01*
X61661Y764950D01*
X61705Y764928D01*
X61748Y764884D01*
X61792Y764863D01*
X61847Y764786D01*
X61923Y764731D01*
X62044Y764633D01*
X62164Y764512D01*
X62208Y764491D01*
X62361Y764337D01*
X62405Y764316D01*
X62984Y763736D01*
X63006Y763692D01*
X63050Y763649D01*
X63072Y763605D01*
X63116Y763561D01*
X63127Y763528D01*
X63170Y763506D01*
X63291Y763386D01*
X63313Y763342D01*
X63422Y763233D01*
X63509Y763080D01*
X63641Y762992D01*
X63772Y762752D01*
X63914Y762609D01*
X63958Y762588D01*
X64001Y762544D01*
X64034Y762533D01*
X64078Y762423D01*
X64111Y762303D01*
X64297Y762117D01*
X64384Y761964D01*
X64450Y761898D01*
X64494Y761789D01*
X64570Y761625D01*
X64614Y761603D01*
X64713Y761505D01*
X64734Y761417D01*
X64767Y761275D01*
X64866Y761177D01*
X64887Y761133D01*
X64975Y760980D01*
X65030Y760925D01*
X65073Y760903D01*
X65106Y760870D01*
X65128Y760783D01*
X65150Y760586D01*
X65248Y760488D01*
X65292Y760466D01*
X65347Y760345D01*
X65423Y760137D01*
X65544Y759886D01*
X65588Y759777D01*
X65609Y759733D01*
X65708Y759613D01*
X65763Y759492D01*
X65784Y759339D01*
X65806Y759164D01*
X65905Y759044D01*
X66080Y758694D01*
X66156Y758552D01*
X66178Y758399D01*
X66200Y758114D01*
X66287Y757961D01*
X66353Y757895D01*
X66397Y757786D01*
X66419Y757633D01*
X66473Y757403D01*
X66528Y757283D01*
X66572Y757130D01*
X66594Y756977D01*
X66627Y756791D01*
X66670Y756681D01*
X66725Y756605D01*
X66791Y756452D01*
X66834Y756145D01*
X66856Y755511D01*
X66878Y755445D01*
X66988Y755205D01*
X67009Y755117D01*
X67031Y754964D01*
X67086Y754822D01*
X67184Y754724D01*
X67206Y754680D01*
X67305Y754581D01*
X67348Y754559D01*
X67458Y754450D01*
X67502Y754428D01*
X67709Y754286D01*
X67742Y754253D01*
X67895Y754231D01*
X68125Y754177D01*
X68158Y754144D01*
X68202Y754122D01*
X68289Y754034D01*
X68398Y753991D01*
X68541Y753958D01*
X68792Y753838D01*
X68934Y753783D01*
X69055Y753706D01*
X69120Y753641D01*
X69230Y753597D01*
X69383Y753575D01*
X69492Y753531D01*
X69612Y753433D01*
X69798Y753334D01*
X69864Y753269D01*
X69908Y753247D01*
X69952Y753203D01*
X70072Y753170D01*
X70181Y753127D01*
X70302Y753006D01*
X70345Y752984D01*
X70389Y752941D01*
X70433Y752919D01*
X70477Y752875D01*
X70520Y752853D01*
X70586Y752787D01*
X70739Y752700D01*
X70794Y752624D01*
X70870Y752547D01*
X70980Y752481D01*
X71056Y752405D01*
X71078Y752361D01*
X71133Y752306D01*
X71177Y752284D01*
X71253Y752208D01*
X71264Y752175D01*
X71308Y752153D01*
X71351Y752109D01*
X71384Y752098D01*
X71406Y752055D01*
X71527Y751891D01*
X71570Y751869D01*
X71669Y751770D01*
X71691Y751727D01*
X71789Y751606D01*
X71822Y751573D01*
X71844Y751530D01*
X71898Y751475D01*
X71942Y751453D01*
X72041Y751355D01*
X72073Y751234D01*
X72117Y751125D01*
X72227Y751059D01*
X72336Y751016D01*
X72511Y751038D01*
X72620Y751081D01*
X72773Y751103D01*
X72894Y751202D01*
X72948Y751256D01*
X72992Y751278D01*
X73113Y751377D01*
X73211Y751475D01*
X73386Y751541D01*
X73506Y751639D01*
X73648Y751781D01*
X73692Y751803D01*
X73736Y751847D01*
X73889Y751934D01*
X73966Y752011D01*
X73987Y752055D01*
X74020Y752087D01*
X74228Y752164D01*
X74305Y752219D01*
X74370Y752284D01*
X74567Y752394D01*
X74622Y752470D01*
X74655Y752503D01*
X74917Y752569D01*
X74994Y752645D01*
X75016Y752689D01*
X75114Y752744D01*
X75223Y752787D01*
X75267Y752809D01*
X75398Y752897D01*
X75541Y752930D01*
X75650Y752973D01*
X75781Y753061D01*
X75836Y753116D01*
X75945Y753159D01*
X76164Y753181D01*
X76295Y753203D01*
X76623Y753356D01*
X76766Y753389D01*
X76853Y753411D01*
X77127Y753531D01*
X77334Y753564D01*
X78166Y753586D01*
X78472Y753608D01*
X78756Y753630D01*
X79598Y753641D01*
X79664Y753619D01*
X80134Y753586D01*
X80988Y753564D01*
X81184Y753542D01*
X81294Y753499D01*
X81327Y753466D01*
X81480Y753400D01*
X81622Y753367D01*
X81709Y753345D01*
X81819Y753302D01*
X81852Y753269D01*
X81895Y753247D01*
X82048Y753181D01*
X82289Y753159D01*
X82409Y753061D01*
X82464Y753006D01*
X82508Y752984D01*
X82858Y752766D01*
X82902Y752744D01*
X82956Y752689D01*
X82978Y752645D01*
X83077Y752547D01*
X83120Y752525D01*
X83175Y752492D01*
X83208Y752372D01*
X83153Y752295D01*
X83033Y752284D01*
X82923Y752328D01*
X82716Y752405D01*
X82486Y752503D01*
X82398Y752525D01*
X82027Y752547D01*
X81906Y752645D01*
X81873Y752678D01*
X81720Y752744D01*
X81512Y752777D01*
X81392Y752809D01*
X81283Y752853D01*
X81020Y752919D01*
X80758Y752962D01*
X80638Y752995D01*
X80528Y753039D01*
X80298Y753138D01*
X80211Y753159D01*
X79795Y753181D01*
X78920D01*
X78133Y753159D01*
X78067Y753138D01*
X77695Y752962D01*
X77356Y752908D01*
X77105Y752787D01*
X76875Y752733D01*
X76755Y752656D01*
X76667Y752569D01*
X76514Y752525D01*
X76339Y752503D01*
X76262Y752427D01*
X76252Y752394D01*
X76208Y752372D01*
X76055Y752284D01*
X75945Y752175D01*
X75770Y752131D01*
X75661Y752066D01*
X75628Y752033D01*
X75606Y751989D01*
X75552Y751934D01*
X75442Y751891D01*
X75289Y751803D01*
X75267Y751759D01*
X75223Y751738D01*
X75180Y751694D01*
X75136Y751672D01*
X75037Y751595D01*
X75016Y751552D01*
X74830Y751431D01*
X74698Y751300D01*
X74655Y751278D01*
X74600Y751224D01*
X74578Y751180D01*
X74523Y751103D01*
X74283Y750972D01*
X74206Y750895D01*
X74184Y750852D01*
X74119Y750786D01*
X74097Y750742D01*
X74020Y750687D01*
X73823Y750491D01*
X73780Y750469D01*
X73648Y750381D01*
X73616Y750370D01*
X73594Y750327D01*
X73528Y750173D01*
X73506Y750130D01*
X73386Y750009D01*
X73342Y749987D01*
X73288Y749911D01*
X73189Y749791D01*
X73134Y749670D01*
X73156Y749102D01*
X73244Y748949D01*
X73309Y748795D01*
X73331Y748642D01*
X73353Y748555D01*
X73386Y748434D01*
X73484Y748249D01*
X73506Y748161D01*
X73528Y748008D01*
X73550Y747198D01*
X73572Y747133D01*
X73605Y746859D01*
X73637Y746564D01*
X73703Y746039D01*
X73725Y745886D01*
X73747Y745798D01*
X73780Y745634D01*
X73812Y745558D01*
X73911Y745437D01*
X74020Y745263D01*
X74086Y745197D01*
X74130Y745175D01*
X74184Y745120D01*
X74206Y745077D01*
X74305Y744956D01*
X74338Y744923D01*
X74403Y744770D01*
X74469Y744552D01*
X74447Y744289D01*
X74425Y744223D01*
X74381Y744070D01*
X74348Y743928D01*
X74239Y743753D01*
X74184Y743611D01*
X74163Y743392D01*
X74064Y743272D01*
X73987Y743195D01*
X73944Y743086D01*
X73922Y743042D01*
X73812Y742867D01*
X73791Y742780D01*
X73692Y742637D01*
X73648Y742616D01*
X73594Y742561D01*
X73550Y742408D01*
X73506Y742299D01*
X73408Y742178D01*
X73353Y742123D01*
X73331Y742080D01*
X73255Y742003D01*
X73211Y741981D01*
X73156Y741927D01*
X73113Y741730D01*
X73058Y741653D01*
X72948Y741588D01*
X72872Y741511D01*
X72850Y741467D01*
X72664Y741281D01*
X72620Y741259D01*
X72500Y741161D01*
X72380Y741041D01*
X72270Y740997D01*
X72084Y740964D01*
X71975Y740920D01*
X71877Y740822D01*
X71833Y740800D01*
X71712Y740702D01*
X71636Y740625D01*
X71483Y740537D01*
X71428Y740483D01*
X71406Y740439D01*
X71308Y740341D01*
X71198Y740275D01*
X71078Y740177D01*
X70925Y739980D01*
X70783Y739925D01*
X70673Y739859D01*
X70619Y739805D01*
X70608Y739772D01*
X70564Y739750D01*
X70520Y739706D01*
X70477Y739684D01*
X70323Y739531D01*
X70181Y739477D01*
X70061Y739356D01*
X70017Y739334D01*
X69973Y739291D01*
X69930Y739269D01*
X69809Y739170D01*
X69689Y739116D01*
X69645Y739094D01*
X69525Y738995D01*
X69503Y738952D01*
X69383Y738897D01*
X69295Y738875D01*
X69175Y738842D01*
X69120Y738788D01*
X69076Y738766D01*
X69033Y738722D01*
X68880Y738634D01*
X68836Y738591D01*
X68792Y738569D01*
X68748Y738525D01*
X68639Y738481D01*
X68376Y738459D01*
X68202Y738284D01*
X68114Y738262D01*
X67884Y738208D01*
X67611Y738087D01*
X67403Y738055D01*
X67294Y738033D01*
X67184Y737989D01*
X67152Y737956D01*
X67108Y737934D01*
X66955Y737869D01*
X66648Y737825D01*
X65795Y737803D01*
X65730Y737781D01*
X65030Y737759D01*
X64964Y737781D01*
X64505Y737803D01*
X64439Y737825D01*
X63477Y737847D01*
X63411Y737869D01*
X63083Y738022D01*
X62995Y738044D01*
X62656Y738098D01*
X62470Y738175D01*
X62317Y738219D01*
X62066Y738273D01*
X61945Y738350D01*
X61923Y738394D01*
X61880Y738416D01*
X61770Y738459D01*
X61497Y738492D01*
X61388Y738536D01*
X61311Y738591D01*
X60983Y738766D01*
X60895Y738853D01*
X60808Y738875D01*
X60622Y738908D01*
X60556Y738952D01*
X60534Y738995D01*
X60480Y739072D01*
X60436Y739094D01*
X60239Y739203D01*
X60195Y739247D01*
X59955Y739378D01*
X59922Y739411D01*
X59900Y739455D01*
X59867Y739488D01*
X59823Y739509D01*
X59670Y739619D01*
X59605Y739684D01*
X59561Y739706D01*
X59506Y739761D01*
X59484Y739805D01*
X59408Y739903D01*
X59255Y739991D01*
X59200Y740045D01*
X59178Y740089D01*
X59123Y740144D01*
X59080Y740166D01*
X58850Y740395D01*
X58828Y740439D01*
X58752Y740537D01*
X58577Y740581D01*
X58467Y740647D01*
X58380Y740734D01*
X58248Y740713D01*
X58150Y740527D01*
X58063Y740439D01*
X57931Y740199D01*
X57898Y740166D01*
X57855Y740144D01*
X57822Y740111D01*
X57745Y739903D01*
X57691Y739827D01*
X57647Y739783D01*
X57625Y739739D01*
X57483Y739531D01*
X57384Y739433D01*
X57351Y739313D01*
X57275Y739192D01*
X57188Y739105D01*
X57100Y738952D01*
X57002Y738831D01*
X56969Y738798D01*
X56947Y738711D01*
X56848Y738591D01*
X56794Y738536D01*
X56728Y738383D01*
X56663Y738273D01*
X56564Y738153D01*
X56477Y738022D01*
X56378Y737924D01*
X56334Y737814D01*
X56280Y737672D01*
X56116Y737508D01*
X56094Y737464D01*
X55919Y737289D01*
X55897Y737245D01*
X55798Y737147D01*
X55755Y737125D01*
X55656Y736961D01*
X55634Y736917D01*
X55602Y736862D01*
X55558Y736841D01*
X55470Y736753D01*
X55427Y736731D01*
X55328Y736633D01*
X55306Y736545D01*
X55328Y736414D01*
X55448Y736359D01*
X55602Y736272D01*
X55678Y736195D01*
X55689Y736162D01*
X55733Y736141D01*
X55820Y736053D01*
X55864Y736031D01*
X56017Y735944D01*
X56116Y735867D01*
X56137Y735823D01*
X56192Y735769D01*
X56367Y735725D01*
X56520Y735638D01*
X56586Y735572D01*
X56739Y735484D01*
X56772Y735452D01*
X56794Y735408D01*
X56827Y735375D01*
X56980Y735331D01*
X57100Y735298D01*
X57177Y735244D01*
X57264Y735156D01*
X57308Y735134D01*
X57942Y734806D01*
X57986Y734762D01*
X58030Y734741D01*
X58139Y734697D01*
X58358Y734675D01*
X58839Y734653D01*
X58905Y734631D01*
X58992Y734609D01*
X59583Y734587D01*
X59648Y734609D01*
X60064Y734631D01*
X60130Y734653D01*
X60348Y734675D01*
X60436Y734653D01*
X60502Y734675D01*
X61694Y734686D01*
X61803Y734642D01*
X61869Y734577D01*
X61891Y734533D01*
X61934Y734489D01*
X61978Y734336D01*
X62000Y733527D01*
X61934Y733417D01*
X61792Y733363D01*
X61377Y733341D01*
X61311Y733319D01*
X61223Y733297D01*
X60808Y733275D01*
X60742Y733253D01*
X60611Y733231D01*
X60578Y733198D01*
X60556Y733111D01*
X60655Y732991D01*
X60852Y732881D01*
X61092Y732641D01*
X61202Y732597D01*
X61355Y732509D01*
X61420Y732444D01*
X61464Y732422D01*
X61530Y732356D01*
X61562Y732345D01*
X61584Y732302D01*
X61628Y732258D01*
X61650Y732214D01*
X61792Y732159D01*
X61902Y732116D01*
X61956Y732061D01*
X62077Y731831D01*
X62120Y731809D01*
X62153Y731777D01*
X62175Y731733D01*
X62263Y731580D01*
X62350Y731448D01*
X62394Y731295D01*
X62427Y731087D01*
X62470Y730869D01*
X62481Y730398D01*
X62416Y730245D01*
X62350Y730136D01*
X62317Y730103D01*
X62230Y730081D01*
X62077Y730059D01*
X61978Y729983D01*
X61956Y729939D01*
X61902Y729884D01*
X61726Y729841D01*
X61595Y729819D01*
X61355Y729709D01*
X61267Y729688D01*
X60775Y729611D01*
X60392Y729491D01*
X60239Y729469D01*
X60152Y729447D01*
X59014Y729425D01*
X58686Y729447D01*
X58620Y729425D01*
X58467Y729447D01*
X57570Y729469D01*
X57505Y729491D01*
X57188Y729523D01*
X56739Y729578D01*
X56652Y729600D01*
X56236Y729622D01*
X56083Y729644D01*
X53720Y729666D01*
X53655Y729644D01*
X51773Y729622D01*
X51708Y729600D01*
X51314Y729578D01*
X51248Y729556D01*
X51030Y729534D01*
X50964Y729512D01*
X50286Y729447D01*
X48952Y729403D01*
X48886Y729381D01*
X48547Y729305D01*
X48448Y729272D01*
X48361Y729250D01*
X48142Y729228D01*
X48055Y729206D01*
X47880Y729184D01*
X47639Y729075D01*
X47552Y729053D01*
X47136Y729031D01*
X46841Y728998D01*
X46666Y728933D01*
X46633Y728900D01*
X46480Y728834D01*
X46392Y728812D01*
X46206Y728780D01*
X46119Y728758D01*
X46009Y728736D01*
X45922Y728714D01*
X45802Y728659D01*
X45627Y728616D01*
X45397Y728561D01*
X45167Y728397D01*
X44883Y728375D01*
X44752Y728353D01*
X44511Y728200D01*
X44380Y728178D01*
X44183Y728069D01*
X44117Y728003D01*
X43964Y727981D01*
X43745Y727959D01*
X43702Y727916D01*
X43658Y727894D01*
X43570Y727806D01*
X43461Y727763D01*
X43286Y727719D01*
X43133Y727631D01*
X42980Y727566D01*
X42892Y727544D01*
X42783Y727500D01*
X42652Y727369D01*
X42498Y727325D01*
X42302Y727303D01*
X42181Y727205D01*
X42148Y727172D01*
X41908Y727041D01*
X41864Y726997D01*
X41711Y726931D01*
X41492Y726909D01*
X41372Y726811D01*
X41295Y726734D01*
X41022Y726636D01*
X40967Y726581D01*
X40923Y726559D01*
X40814Y726516D01*
X40694Y726483D01*
X40617Y726428D01*
X40563Y726374D01*
X40552Y726341D01*
X40508Y726319D01*
X40398Y726275D01*
X40180Y726253D01*
X40092Y726166D01*
X40048Y726144D01*
X40005Y726100D01*
X39808Y725991D01*
X39742Y725925D01*
X39589Y725881D01*
X39414Y725859D01*
X39294Y725761D01*
X39217Y725684D01*
X38944Y725586D01*
X38889Y725531D01*
X38845Y725509D01*
X38736Y725466D01*
X38648Y725444D01*
X38539Y725378D01*
X38408Y725247D01*
X38101Y725203D01*
X37992Y725094D01*
X37948Y725072D01*
X37795Y724984D01*
X37752Y724941D01*
X37708Y724919D01*
X37664Y724875D01*
X37511Y724831D01*
X37325Y724798D01*
X37216Y724733D01*
X37194Y724689D01*
X37161Y724656D01*
X37117Y724634D01*
X37008Y724591D01*
X36920Y724569D01*
X36680Y724416D01*
X36516Y724383D01*
X36384Y724274D01*
X36308Y724197D01*
X36002Y724153D01*
X35936Y724088D01*
X35892Y724066D01*
X35848Y724022D01*
X35805Y724000D01*
X35652Y723913D01*
X35608Y723869D01*
X35564Y723847D01*
X35411Y723781D01*
X35214Y723759D01*
X35094Y723661D01*
X35039Y723606D01*
X34930Y723562D01*
X34722Y723486D01*
X34667Y723431D01*
X34623Y723409D01*
X34514Y723366D01*
X34383Y723344D01*
X34284Y723267D01*
X34262Y723223D01*
X34208Y723169D01*
X34033Y723125D01*
X33836Y723103D01*
X33792Y723059D01*
X33748Y723037D01*
X33683Y722972D01*
X33639Y722950D01*
X33398Y722819D01*
X33355Y722775D01*
X33202Y722731D01*
X33027Y722709D01*
X32873Y722600D01*
X32830Y722556D01*
X32677Y722491D01*
X32589Y722469D01*
X32414Y722359D01*
X32272Y722327D01*
X32162Y722283D01*
X32042Y722206D01*
X31977Y722141D01*
X31867Y722097D01*
X31714Y722075D01*
X31583Y722053D01*
X31517Y721988D01*
X31473Y721966D01*
X31430Y721922D01*
X31156Y721823D01*
X31036Y721703D01*
X30883Y721681D01*
X30675Y721648D01*
X30598Y721616D01*
X30467Y721484D01*
X30314Y721441D01*
X30172Y721408D01*
X29898Y721266D01*
X29756Y721233D01*
X29680Y721200D01*
X29592Y721113D01*
X29548Y721091D01*
X29439Y721047D01*
X29352Y721025D01*
X29089Y721003D01*
X28958Y720872D01*
X28684Y720773D01*
X28553Y720686D01*
X28411Y720631D01*
X28105Y720609D01*
X27984Y720533D01*
X27963Y720489D01*
X27930Y720456D01*
X27820Y720413D01*
X27569Y720358D01*
X27459Y720314D01*
X27230Y720216D01*
X27044Y720183D01*
X26967Y720150D01*
X26847Y720052D01*
X26727Y719997D01*
X26442Y719975D01*
X26278Y719942D01*
X26092Y719844D01*
X25983Y719800D01*
X25863Y719767D01*
X25720Y719713D01*
X25589Y719625D01*
X25501Y719603D01*
X25348Y719581D01*
X24922Y719548D01*
X24813Y719505D01*
X24736Y719450D01*
X24583Y719384D01*
X24495Y719362D01*
X24222Y719330D01*
X24134Y719308D01*
X23872Y719264D01*
X23697Y719220D01*
X23566Y719199D01*
X23347Y719177D01*
X22975Y719155D01*
X22242Y719144D01*
X22177Y719166D01*
X21827Y719187D01*
X21323Y719450D01*
X21302Y719494D01*
X21258Y719516D01*
X21105Y719603D01*
X21050Y719636D01*
X21028Y719680D01*
X20930Y719778D01*
X20886Y719800D01*
X20612Y720073D01*
X20591Y720117D01*
X20558Y720172D01*
X20514Y720194D01*
X20372Y720336D01*
X20306Y720445D01*
X20262Y720489D01*
X20241Y720533D01*
X20131Y720686D01*
X20066Y720752D01*
X20044Y720795D01*
X20000Y720905D01*
X19978Y720992D01*
X19945Y721353D01*
X19923Y721441D01*
X19869Y721561D01*
X19847Y721714D01*
X19825Y722195D01*
X19847Y722545D01*
X19880Y722753D01*
X19902Y722841D01*
X19923Y722950D01*
X19967Y723300D01*
X19989Y724175D01*
X20011Y724481D01*
X20033Y724591D01*
X20055Y724678D01*
X20120Y724853D01*
X20164Y725028D01*
X20186Y725159D01*
X20208Y725378D01*
X20230Y725684D01*
X20252Y725881D01*
X20273Y726100D01*
X20295Y726275D01*
X20317Y726384D01*
X20339Y726559D01*
X20361Y726800D01*
X20394Y727445D01*
X20372Y728802D01*
X20350Y728867D01*
X20317Y729031D01*
X20284Y729130D01*
X20252Y729272D01*
X20230Y729359D01*
X20164Y729534D01*
X20044Y729655D01*
X20022Y729698D01*
X19923Y729841D01*
X19880Y729863D01*
X19759Y729961D01*
X19705Y730016D01*
X19595Y730059D01*
X19180Y730081D01*
X19027Y730059D01*
X18786Y730038D01*
X18545Y729884D01*
X18392Y729841D01*
X18250Y729808D01*
X18141Y729764D01*
X18020Y729709D01*
X17878Y729655D01*
X17791Y729633D01*
X17670Y729556D01*
X17605Y729491D01*
X17495Y729447D01*
X17342Y729425D01*
X17200Y729392D01*
X17080Y729316D01*
X17036Y729272D01*
X16795Y729141D01*
X16708Y729053D01*
X16489Y729031D01*
X16292Y728988D01*
X16172Y728889D01*
X16139Y728856D01*
X16030Y728812D01*
X15800Y728758D01*
X15680Y728703D01*
X15527Y728659D01*
X15352Y728616D01*
X15100Y728561D01*
X14848Y728441D01*
X14695Y728397D01*
X14477Y728375D01*
X13820Y728353D01*
X13755Y728331D01*
X13448Y728288D01*
X13361Y728266D01*
X13098Y728222D01*
X12650Y728211D01*
X12213Y728233D01*
X12081Y728255D01*
X11895Y728309D01*
X11742Y728331D01*
X11578Y728364D01*
X11184Y728386D01*
X11097Y728408D01*
X11020Y728441D01*
X10933Y728528D01*
X10889Y728550D01*
X10736Y728616D01*
X10583Y728703D01*
X10473Y728812D01*
X10430Y728834D01*
X10331Y728933D01*
X10309Y728977D01*
X10156Y729086D01*
X10134Y729173D01*
X10113Y729327D01*
X10091Y729414D01*
X9992Y729534D01*
X9937Y729677D01*
X9916Y730092D01*
X9959Y730398D01*
X10069Y730552D01*
X10113Y730705D01*
X10145Y730912D01*
X10222Y731033D01*
X10441Y731252D01*
X10462Y731295D01*
X10572Y731492D01*
X10703Y731580D01*
X10747Y731624D01*
X10769Y731667D01*
X10867Y731787D01*
X10998Y731919D01*
X11042Y731941D01*
X11141Y732017D01*
X11163Y732061D01*
X11239Y732159D01*
X11283Y732181D01*
X11403Y732280D01*
X11480Y732356D01*
X11523Y732378D01*
X11556Y732411D01*
X11578Y732455D01*
X11622Y732498D01*
X11644Y732542D01*
X11830Y732641D01*
X11939Y732750D01*
X11983Y732772D01*
X12027Y732816D01*
X12070Y732838D01*
X12114Y732881D01*
X12158Y732903D01*
X12311Y733056D01*
X12355Y733078D01*
X12387Y733111D01*
X12398Y733144D01*
X12442Y733166D01*
X12650Y733308D01*
X12672Y733352D01*
X12727Y733406D01*
X12770Y733428D01*
X12891Y733527D01*
X12912Y733570D01*
X12945Y733603D01*
X13088Y733658D01*
X13164Y733691D01*
X13241Y733767D01*
X13262Y733811D01*
X13306Y733855D01*
X13328Y733898D01*
X13383Y733953D01*
X13427Y733975D01*
X13470Y734019D01*
X13623Y734106D01*
X13678Y734183D01*
X13755Y734281D01*
X13798Y734303D01*
X13897Y734402D01*
X14006Y734598D01*
X14072Y734664D01*
X14203Y734905D01*
X14269Y734949D01*
X14312Y735058D01*
X14334Y735408D01*
X14312Y735648D01*
X14138Y735823D01*
X14028Y736020D01*
X13733Y736316D01*
X13689Y736338D01*
X13492Y736447D01*
X13405Y736534D01*
X13361Y736556D01*
X13241Y736655D01*
X13142Y736753D01*
X12989Y736775D01*
X12869Y736808D01*
X12748Y736884D01*
X12661Y736972D01*
X12552Y737016D01*
X12464Y737038D01*
X12322Y737092D01*
X12289Y737125D01*
X12245Y737147D01*
X12136Y737191D01*
X11994Y737245D01*
X11917Y737300D01*
X11852Y737366D01*
X11742Y737409D01*
X11589Y737431D01*
X11425Y737464D01*
X11261Y737584D01*
X11020Y737716D01*
X10977Y737759D01*
X10933Y737781D01*
X10823Y737825D01*
X10583Y737847D01*
X10462Y737945D01*
X10430Y737978D01*
X10386Y738000D01*
X10277Y738044D01*
X10189Y738066D01*
X10036Y738153D01*
X9839Y738241D01*
X9719Y738273D01*
X9686Y738306D01*
X9642Y738328D01*
X9577Y738394D01*
X9533Y738416D01*
X9380Y738481D01*
X9183Y738503D01*
X9106Y738558D01*
X9084Y738602D01*
X9030Y738656D01*
X8833Y738766D01*
X8745Y738853D01*
X8537Y738886D01*
X8461Y738941D01*
X8406Y738995D01*
X8384Y739039D01*
X8352Y739072D01*
X8144Y739148D01*
X8045Y739247D01*
X8002Y739269D01*
X7848Y739378D01*
X7717Y739509D01*
X7608Y739575D01*
X7498Y739684D01*
X7455Y739706D01*
X7323Y739903D01*
X7280Y739925D01*
X7159Y740023D01*
X7028Y740155D01*
X7006Y740199D01*
X6897Y740395D01*
X6809Y740483D01*
X6787Y740527D01*
X6700Y740658D01*
X6645Y740800D01*
X6591Y740920D01*
X6503Y741161D01*
X6405Y741281D01*
X6350Y741423D01*
X6328Y741773D01*
X6295Y742353D01*
X6273Y742462D01*
X6241Y742583D01*
X6263Y743305D01*
X6284Y743370D01*
X6306Y743742D01*
X6328Y743808D01*
X6350Y744661D01*
X6525Y745033D01*
X6569Y745295D01*
X6634Y745558D01*
X6678Y745667D01*
X6744Y745886D01*
X6798Y746116D01*
X6853Y746192D01*
X6941Y746280D01*
X6963Y746367D01*
X6984Y746520D01*
X7006Y746739D01*
X7105Y746859D01*
X7159Y746958D01*
X7236Y747166D01*
X7291Y747242D01*
X7334Y747286D01*
X7378Y747395D01*
X7400Y747636D01*
X7444Y747680D01*
X7466Y747723D01*
X7553Y747811D01*
X7575Y747855D01*
X7641Y748008D01*
X7684Y748117D01*
X7892Y748522D01*
X7936Y748544D01*
X7991Y748598D01*
X8034Y748773D01*
X8056Y748883D01*
X8209Y749036D01*
X8319Y749233D01*
X8384Y749298D01*
X8428Y749452D01*
X8516Y749605D01*
X8625Y749714D01*
X8756Y749955D01*
X8822Y750020D01*
X8931Y750217D01*
X9019Y750283D01*
X9041Y750327D01*
X9084Y750436D01*
X9172Y750589D01*
X9303Y750720D01*
X9325Y750764D01*
X9434Y750873D01*
X9544Y751070D01*
X9598Y751125D01*
X9642Y751147D01*
X9697Y751245D01*
X9784Y751398D01*
X9916Y751530D01*
X9937Y751573D01*
X10091Y751727D01*
X10113Y751770D01*
X10211Y751913D01*
X10255Y751934D01*
X10287Y751967D01*
X10309Y752011D01*
X10430Y752131D01*
X10473Y752153D01*
X10528Y752208D01*
X10616Y752361D01*
X10823Y752569D01*
X10867Y752591D01*
X10922Y752645D01*
X10944Y752689D01*
X11064Y752809D01*
X11108Y752831D01*
X11163Y752908D01*
X11316Y753105D01*
X11502Y753203D01*
X11578Y753280D01*
X11600Y753324D01*
X11698Y753444D01*
X11819Y753542D01*
X11852Y753575D01*
X11961Y753641D01*
X12016Y753695D01*
X12038Y753739D01*
X12070Y753772D01*
X12114Y753794D01*
X12234Y753892D01*
X12311Y753969D01*
X12355Y753991D01*
X12508Y754100D01*
X12552Y754144D01*
X12595Y754166D01*
X12792Y754275D01*
X12847Y754308D01*
X12869Y754352D01*
X13033Y754472D01*
X13077Y754494D01*
X13186Y754603D01*
X13328Y754636D01*
X13438Y754680D01*
X13470Y754713D01*
X13503Y754724D01*
X13525Y754767D01*
X13558Y754800D01*
X14061Y755041D01*
X14181Y755073D01*
X14258Y755106D01*
X14367Y755216D01*
X14477Y755259D01*
X15089Y755281D01*
X15636Y755259D01*
X15702Y755238D01*
X16030Y755084D01*
X16117Y755062D01*
X16369Y755030D01*
X16456Y755008D01*
X16773Y754822D01*
X16828Y754767D01*
X16850Y754724D01*
X16927Y754647D01*
X17014Y754625D01*
X17123Y754581D01*
X17200Y754527D01*
X17222Y754483D01*
X17255Y754450D01*
X17298Y754428D01*
X17419Y754330D01*
X17495Y754253D01*
X17692Y754144D01*
X17823Y754013D01*
X17867Y753991D01*
X17988Y753892D01*
X18042Y753838D01*
X18195Y753750D01*
X18327Y753619D01*
X18523Y753509D01*
X18633Y753400D01*
X18677Y753378D01*
X18797Y753280D01*
X18851Y753225D01*
X18961Y753181D01*
X19114Y753094D01*
X19377Y752831D01*
X19464Y752809D01*
X19530Y752831D01*
X19562Y752930D01*
X19584Y753477D01*
X19595Y755238D01*
X19584Y755642D01*
X19606Y755708D01*
X19595Y756069D01*
X19617Y756637D01*
X19650Y756933D01*
X19672Y757283D01*
X19694Y757348D01*
X19716Y757764D01*
X19737Y757830D01*
X19759Y758180D01*
X19781Y758333D01*
X19814Y758694D01*
X19836Y758825D01*
X19902Y759000D01*
X19934Y759099D01*
X19956Y759186D01*
X19978Y759733D01*
X20033Y760050D01*
X20175Y760323D01*
X20197Y760411D01*
X20273Y760772D01*
X20317Y760881D01*
X20372Y761023D01*
X20394Y761111D01*
X20427Y761253D01*
X20470Y761363D01*
X20525Y761417D01*
X20547Y761461D01*
X20634Y761658D01*
X20656Y761942D01*
X20766Y762052D01*
X20787Y762095D01*
X20831Y762205D01*
X20941Y762402D01*
X21028Y762598D01*
X21050Y762817D01*
X21137Y762970D01*
X21203Y763014D01*
X21225Y763058D01*
X21269Y763167D01*
X21291Y763255D01*
X21444Y763583D01*
X21553Y763780D01*
X21619Y763845D01*
X21662Y763955D01*
X21684Y764108D01*
X21706Y764195D01*
X21859Y764414D01*
X21991Y764655D01*
X22056Y764720D01*
X22078Y764808D01*
X22133Y765038D01*
X22198Y765103D01*
X22242Y765125D01*
X22275Y765158D01*
X22297Y765202D01*
X22341Y765311D01*
X22472Y765530D01*
X22527Y765672D01*
X22581Y765749D01*
X22713Y765858D01*
X22734Y765945D01*
X22756Y766098D01*
X22811Y766153D01*
X22855Y766175D01*
X22931Y766252D01*
X22953Y766295D01*
X23052Y766416D01*
X23128Y766492D01*
X23161Y766634D01*
X23194Y766711D01*
X23292Y766809D01*
X23336Y766831D01*
X23369Y766864D01*
X23391Y766908D01*
X23434Y766952D01*
X23456Y766995D01*
X23598Y767203D01*
X23752Y767312D01*
X23839Y767531D01*
X23970Y767663D01*
X24003Y767673D01*
X24025Y767717D01*
X24178Y767870D01*
X24200Y767914D01*
X24298Y768034D01*
X24419Y768155D01*
X24441Y768198D01*
X24517Y768275D01*
X24561Y768297D01*
X24637Y768373D01*
X24659Y768417D01*
X24736Y768494D01*
X24780Y768516D01*
X24813Y768549D01*
X24834Y768592D01*
X24889Y768669D01*
X24933Y768691D01*
X24977Y768734D01*
X25009Y768745D01*
X25031Y768789D01*
X25152Y768909D01*
X25195Y768931D01*
X25294Y769030D01*
X25316Y769073D01*
X25447Y769183D01*
X25512Y769248D01*
X25523Y769281D01*
X25567Y769303D01*
X25720Y769391D01*
X25906Y769577D01*
X25928Y769620D01*
X26005Y769697D01*
X26202Y769806D01*
X26256Y769861D01*
X26278Y769905D01*
X26311Y769938D01*
X26355Y769959D01*
X26508Y770069D01*
X26792Y770353D01*
X26945Y770441D01*
X27033Y770528D01*
X27077Y770550D01*
X27230Y770638D01*
X27350Y770736D01*
X27405Y770791D01*
X27514Y770856D01*
X27591Y770933D01*
X27602Y770966D01*
X27645Y770987D01*
X27755Y771031D01*
X27842Y771053D01*
X27941Y771130D01*
X27963Y771173D01*
X28039Y771250D01*
X28083Y771272D01*
X28170Y771359D01*
X28214Y771381D01*
X28367Y771447D01*
X28509Y771524D01*
X28531Y771567D01*
X28608Y771622D01*
X28848Y771753D01*
X28892Y771797D01*
X29045Y771884D01*
X29166Y771983D01*
X29198Y772016D01*
X29308Y772059D01*
X29395Y772081D01*
X29548Y772169D01*
X29592Y772213D01*
X29636Y772234D01*
X29789Y772322D01*
X29909Y772420D01*
X30030Y772475D01*
X30194Y772508D01*
X30270Y772541D01*
X30380Y772650D01*
X30839Y772869D01*
X30927Y772891D01*
X31036Y772934D01*
X31091Y772967D01*
X31112Y773011D01*
X31211Y773109D01*
X31539Y773153D01*
X31659Y773252D01*
X31889Y773350D01*
X32042Y773438D01*
X32086Y773481D01*
X32239Y773525D01*
X32502Y773547D01*
X32622Y773645D01*
X32677Y773700D01*
X32786Y773744D01*
X32939Y773766D01*
X33147Y773842D01*
X33333Y773919D01*
X33420Y773941D01*
X33584Y773973D01*
X33661Y774006D01*
X33781Y774105D01*
X33923Y774159D01*
X34208Y774181D01*
X34437Y774214D01*
X34514Y774247D01*
X34667Y774334D01*
X34820Y774378D01*
X34941Y774411D01*
X35116Y774477D01*
X35258Y774531D01*
X35411Y774575D01*
X35958Y774597D01*
X36023Y774619D01*
X36166Y774673D01*
X36395Y774772D01*
X36483Y774794D01*
X36822Y774827D01*
X37106Y774870D01*
X37238Y774892D01*
X37456Y774936D01*
X37752Y774969D01*
X38320Y775013D01*
X38583Y775034D01*
X38648Y775056D01*
X38900Y775089D01*
X39009Y775111D01*
X39097Y775133D01*
X39228Y775155D01*
X39469Y775177D01*
X39753Y775198D01*
X41514Y775209D01*
X41580Y775188D01*
D02*
G37*
G36*
X78395Y737300D02*
X78723Y737125D01*
X78756Y737027D01*
X78778Y736939D01*
X78789Y736206D01*
X78767Y736097D01*
X78713Y736020D01*
X78614Y735987D01*
X78012Y735955D01*
X77750Y735933D01*
X77619Y735911D01*
X77400Y735867D01*
X77214Y735813D01*
X77039Y735769D01*
X76820Y735747D01*
X76405Y735725D01*
X75486Y735703D01*
X75420Y735681D01*
X75311Y735659D01*
X75202Y735616D01*
X75114Y735594D01*
X74994Y735627D01*
X74961Y735659D01*
X74917Y735681D01*
X74862Y735736D01*
X74819Y735845D01*
X74764Y736184D01*
X74731Y736305D01*
X74720Y736425D01*
X74742Y736644D01*
X74786Y736731D01*
X74830Y736753D01*
X74939Y736797D01*
X75103Y736830D01*
X75223Y736906D01*
X75377Y736972D01*
X75464Y736994D01*
X75781Y737027D01*
X75978Y737048D01*
X76153Y737070D01*
X76416Y737114D01*
X76634Y737136D01*
X76831Y737158D01*
X77137Y737180D01*
X77323Y737191D01*
X77345D01*
X77695Y737213D01*
X77848Y737234D01*
X78023Y737278D01*
X78166Y737311D01*
X78330Y737322D01*
X78395Y737300D01*
D02*
G37*
G36*
X71384Y736064D02*
X71450Y735911D01*
X71472Y735495D01*
X71494Y734927D01*
X71516Y734861D01*
X71494Y734773D01*
X71417Y734697D01*
X71330Y734675D01*
X71056Y734642D01*
X70914Y734566D01*
X70739Y734522D01*
X70586Y734500D01*
X70498Y734478D01*
X70203Y734445D01*
X69984Y734402D01*
X69864Y734369D01*
X69755Y734325D01*
X69602Y734303D01*
X68923Y734281D01*
X67469Y734249D01*
X66845Y734238D01*
X66780Y734259D01*
X66583Y734281D01*
X66462Y734380D01*
X66430Y735222D01*
X66419Y735408D01*
X66495Y735506D01*
X66648Y735550D01*
X66791Y735605D01*
X66823Y735638D01*
X66933Y735681D01*
X67020Y735703D01*
X67173Y735725D01*
X67939Y735747D01*
X68005Y735769D01*
X68169Y735802D01*
X68256Y735823D01*
X68398Y735878D01*
X68541Y735911D01*
X68836Y735944D01*
X69547Y735999D01*
X69733Y736009D01*
X69755D01*
X69908Y736031D01*
X70258Y736053D01*
X70345Y736075D01*
X70892Y736097D01*
X71275Y736108D01*
X71384Y736064D01*
D02*
G37*
%LPC*%
G36*
X40180Y773941D02*
X40114Y773919D01*
X38998Y773897D01*
X38933Y773875D01*
X38572Y773842D01*
X38277Y773809D01*
X38123Y773788D01*
X37456Y773733D01*
X37369Y773711D01*
X37128Y773623D01*
X36942Y773569D01*
X36855Y773547D01*
X36570Y773525D01*
X36045Y773503D01*
X35892Y773416D01*
X35739Y773350D01*
X35652Y773328D01*
X35477Y773306D01*
X35411Y773284D01*
X35083Y773131D01*
X34645Y773109D01*
X34536Y773066D01*
X34492Y773044D01*
X34448Y773000D01*
X34252Y772913D01*
X34164Y772891D01*
X34022Y772858D01*
X33934Y772836D01*
X33825Y772792D01*
X33683Y772738D01*
X33508Y772694D01*
X33366Y772639D01*
X33267Y772541D01*
X33158Y772497D01*
X33070Y772475D01*
X32917Y772453D01*
X32797Y772355D01*
X32742Y772300D01*
X32589Y772213D01*
X32480Y772103D01*
X32327Y772081D01*
X32206Y772048D01*
X32130Y771994D01*
X32042Y771906D01*
X31998Y771884D01*
X31889Y771841D01*
X31747Y771786D01*
X31714Y771753D01*
X31670Y771731D01*
X31386Y771578D01*
X31277Y771469D01*
X31102Y771425D01*
X30981Y771392D01*
X30948Y771359D01*
X30905Y771338D01*
X30839Y771272D01*
X30598Y771141D01*
X30533Y771075D01*
X30423Y771031D01*
X30205Y771009D01*
X30095Y770966D01*
X29975Y770867D01*
X29855Y770813D01*
X29767Y770791D01*
X29527Y770659D01*
X29373Y770572D01*
X29275Y770495D01*
X29264Y770462D01*
X29220Y770441D01*
X28980Y770309D01*
X28870Y770200D01*
X28827Y770178D01*
X28673Y770025D01*
X28466Y769948D01*
X28400Y769883D01*
X28378Y769839D01*
X28302Y769741D01*
X28258Y769719D01*
X28028Y769555D01*
X28006Y769511D01*
X27897Y769358D01*
X27787Y769314D01*
X27667Y769238D01*
X27547Y769117D01*
X27525Y769073D01*
X27405Y768953D01*
X27361Y768931D01*
X27317Y768887D01*
X27273Y768866D01*
X27120Y768712D01*
X27077Y768691D01*
X26956Y768592D01*
X26934Y768549D01*
X26683Y768297D01*
X26639Y768275D01*
X26541Y768198D01*
X26519Y768155D01*
X26300Y767936D01*
X26278Y767892D01*
X26245Y767859D01*
X26202Y767838D01*
X26081Y767717D01*
X26059Y767673D01*
X25928Y767564D01*
X25884Y767520D01*
X25863Y767477D01*
X25764Y767356D01*
X25655Y767247D01*
X25611Y767225D01*
X25567Y767181D01*
X25534Y767170D01*
X25512Y767127D01*
X25469Y767083D01*
X25447Y767039D01*
X25348Y766919D01*
X25250Y766820D01*
X25228Y766777D01*
X25130Y766656D01*
X25086Y766612D01*
X25042Y766591D01*
X24900Y766449D01*
X24878Y766405D01*
X24769Y766208D01*
X24736Y766175D01*
X24692Y766153D01*
X24637Y766120D01*
X24484Y765836D01*
X24419Y765770D01*
X24331Y765617D01*
X24255Y765563D01*
X24222Y765530D01*
X24178Y765420D01*
X24123Y765278D01*
X23850Y765005D01*
X23806Y764895D01*
X23752Y764753D01*
X23719Y764720D01*
X23697Y764677D01*
X23631Y764633D01*
X23609Y764589D01*
X23456Y764305D01*
X23369Y764174D01*
X23303Y764064D01*
X23194Y763955D01*
X23128Y763736D01*
X23084Y763627D01*
X23019Y763561D01*
X22997Y763517D01*
X22953Y763474D01*
X22898Y763331D01*
X22866Y763298D01*
X22844Y763255D01*
X22778Y763189D01*
X22734Y763080D01*
X22702Y762872D01*
X22647Y762795D01*
X22581Y762730D01*
X22559Y762686D01*
X22472Y762489D01*
X22341Y762205D01*
X22308Y762063D01*
X22231Y761942D01*
X22166Y761877D01*
X22144Y761833D01*
X22100Y761723D01*
X22056Y761352D01*
X21969Y761199D01*
X21881Y761002D01*
X21827Y760859D01*
X21794Y760827D01*
X21772Y760783D01*
X21706Y760630D01*
X21684Y760411D01*
X21662Y760083D01*
X21531Y759842D01*
X21488Y759733D01*
X21422Y759274D01*
X21400Y759186D01*
X21378Y759033D01*
X21312Y758770D01*
X21291Y758617D01*
X21269Y758333D01*
X21247Y758245D01*
X21225Y757917D01*
X21203Y757852D01*
X21116Y757567D01*
X21050Y757108D01*
X21028Y755905D01*
X21017Y754669D01*
X21028Y754264D01*
X21006Y754199D01*
X21017Y753838D01*
X20973Y752766D01*
X20963Y752361D01*
X20984Y752295D01*
X21017Y751956D01*
X21039Y751759D01*
X21061Y751672D01*
X21094Y751595D01*
X21170Y751519D01*
X21214Y751497D01*
X21411Y751344D01*
X21630Y751125D01*
X21870Y750994D01*
X21925Y750917D01*
X21958Y750884D01*
X22111Y750797D01*
X22220Y750687D01*
X22417Y750578D01*
X22527Y750469D01*
X22680Y750381D01*
X22811Y750250D01*
X22855Y750228D01*
X22975Y750130D01*
X23052Y750053D01*
X23095Y750031D01*
X23248Y749922D01*
X23336Y749834D01*
X23380Y749812D01*
X23423Y749769D01*
X23467Y749747D01*
X23555Y749659D01*
X23598Y749638D01*
X23752Y749528D01*
X23806Y749452D01*
X23883Y749375D01*
X24025Y749320D01*
X24178Y749167D01*
X24200Y749123D01*
X24298Y749003D01*
X24441Y748949D01*
X24550Y748883D01*
X24572Y748839D01*
X24648Y748763D01*
X24692Y748741D01*
X24813Y748642D01*
X24889Y748566D01*
X24933Y748544D01*
X25031Y748467D01*
X25053Y748423D01*
X25108Y748369D01*
X25305Y748259D01*
X25567Y747997D01*
X25720Y747931D01*
X25830Y747866D01*
X25884Y747811D01*
X25906Y747767D01*
X25983Y747691D01*
X26180Y747581D01*
X26223Y747538D01*
X26267Y747516D01*
X26442Y747341D01*
X26552Y747297D01*
X26705Y747209D01*
X26814Y747100D01*
X26858Y747078D01*
X26934Y747023D01*
X26956Y746980D01*
X27033Y746903D01*
X27186Y746881D01*
X27306Y746827D01*
X27328Y746783D01*
X27372Y746739D01*
X27394Y746695D01*
X27514Y746641D01*
X27656Y746586D01*
X27689Y746553D01*
X27733Y746531D01*
X27886Y746466D01*
X28039Y746378D01*
X28192Y746269D01*
X28312Y746236D01*
X28520Y746225D01*
X28597Y746302D01*
X28619Y746389D01*
X28641Y746892D01*
X28663Y746958D01*
X28684Y747264D01*
X28706Y747330D01*
X28728Y747549D01*
X28750Y747702D01*
X28794Y748292D01*
X28848Y750666D01*
X28870Y751147D01*
X28892Y751562D01*
X28914Y751847D01*
X28936Y752066D01*
X28958Y752197D01*
X28980Y752438D01*
X29002Y752722D01*
X29023Y753203D01*
X29045Y754100D01*
X29067Y754341D01*
X29089Y754450D01*
X29133Y754559D01*
X29209Y754811D01*
X29231Y755030D01*
X29253Y755117D01*
X29275Y755248D01*
X29406Y755533D01*
X29428Y755883D01*
X29461Y756178D01*
X29505Y756288D01*
X29559Y756342D01*
X29581Y756386D01*
X29647Y756539D01*
X29680Y756747D01*
X29767Y756988D01*
X29822Y757173D01*
X29844Y757261D01*
X29876Y757381D01*
X29953Y757502D01*
X29997Y757545D01*
X30019Y757589D01*
X30062Y757699D01*
X30084Y757917D01*
X30117Y758059D01*
X30259Y758245D01*
X30281Y758333D01*
X30380Y758475D01*
X30412Y758486D01*
X30434Y758530D01*
X30456Y758595D01*
X30478Y758683D01*
X30500Y758836D01*
X30566Y758945D01*
X30653Y759033D01*
X30675Y759077D01*
X30719Y759186D01*
X30828Y759383D01*
X30959Y759623D01*
X31091Y759755D01*
X31112Y759842D01*
X31178Y760017D01*
X31309Y760148D01*
X31331Y760192D01*
X31430Y760312D01*
X31506Y760389D01*
X31550Y760499D01*
X31616Y760608D01*
X31703Y760695D01*
X31725Y760739D01*
X31834Y760892D01*
X31944Y761002D01*
X32009Y761111D01*
X32064Y761166D01*
X32108Y761188D01*
X32162Y761242D01*
X32250Y761395D01*
X32414Y761559D01*
X32523Y761625D01*
X32578Y761680D01*
X32687Y761877D01*
X32742Y761931D01*
X32786Y761953D01*
X32983Y762106D01*
X33048Y762194D01*
X33092Y762216D01*
X33191Y762292D01*
X33212Y762336D01*
X33289Y762412D01*
X33333Y762434D01*
X33508Y762609D01*
X33661Y762697D01*
X33716Y762774D01*
X33847Y762861D01*
X33967Y762981D01*
X34120Y763025D01*
X34230Y763091D01*
X34284Y763145D01*
X34306Y763189D01*
X34361Y763244D01*
X34503Y763298D01*
X34623Y763375D01*
X34667Y763419D01*
X34777Y763463D01*
X34820Y763484D01*
X34897Y763539D01*
X34919Y763583D01*
X34973Y763637D01*
X35148Y763681D01*
X35258Y763703D01*
X35411Y763856D01*
X35553Y763911D01*
X35673Y763988D01*
X35717Y764031D01*
X35870Y764075D01*
X36056Y764108D01*
X36177Y764184D01*
X36264Y764272D01*
X36352Y764294D01*
X36461Y764337D01*
X36581Y764370D01*
X36691Y764414D01*
X36811Y764469D01*
X36898Y764491D01*
X37019Y764523D01*
X37095Y764556D01*
X37139Y764600D01*
X37183Y764622D01*
X37227Y764666D01*
X37336Y764709D01*
X37620Y764731D01*
X37773Y764753D01*
X37948Y764863D01*
X38058Y764906D01*
X38244Y764939D01*
X38331Y764961D01*
X38463Y765049D01*
X38583Y765103D01*
X38802Y765125D01*
X39261Y765147D01*
X39370Y765191D01*
X39655Y765322D01*
X39873Y765344D01*
X39961Y765366D01*
X40278Y765398D01*
X40409Y765420D01*
X40519Y765442D01*
X40606Y765464D01*
X40902Y765497D01*
X40989Y765519D01*
X41405Y765541D01*
X41755Y765563D01*
X42225Y765617D01*
X42400Y765639D01*
X42892Y765694D01*
X43570Y765716D01*
X44270Y765694D01*
X44336Y765672D01*
X44664Y765650D01*
X44730Y765628D01*
X45014Y765606D01*
X45102Y765584D01*
X45451Y765563D01*
X46261Y765497D01*
X46327Y765475D01*
X46512Y765442D01*
X46775Y765398D01*
X46884Y765377D01*
X47147Y765355D01*
X47278Y765333D01*
X47366Y765311D01*
X47530Y765234D01*
X47683Y765169D01*
X47989Y765125D01*
X48361Y765103D01*
X48536Y764994D01*
X48656Y764961D01*
X48919Y764895D01*
X48952Y764863D01*
X48995Y764841D01*
X49061Y764775D01*
X49203Y764742D01*
X49466Y764720D01*
X49597Y764698D01*
X49717Y764622D01*
X49783Y764556D01*
X49892Y764512D01*
X50012Y764480D01*
X50341Y764349D01*
X50516Y764283D01*
X50592Y764250D01*
X50723Y764119D01*
X51030Y764053D01*
X51150Y763955D01*
X51183Y763922D01*
X51292Y763878D01*
X51445Y763791D01*
X51533Y763703D01*
X51620Y763681D01*
X51762Y763627D01*
X51839Y763572D01*
X51948Y763463D01*
X52101Y763375D01*
X52211Y763266D01*
X52364Y763178D01*
X52397Y763145D01*
X52419Y763102D01*
X52714Y762937D01*
X52747Y762905D01*
X52769Y762861D01*
X52845Y762806D01*
X52966Y762708D01*
X53020Y762653D01*
X53228Y762577D01*
X53261Y762544D01*
X53305Y762522D01*
X53370Y762456D01*
X53523Y762369D01*
X53578Y762314D01*
X53622Y762205D01*
X53644Y762161D01*
X53677Y762106D01*
X53709Y762095D01*
X53731Y762052D01*
X53863Y761942D01*
X53928Y761877D01*
X53950Y761833D01*
X54037Y761702D01*
X54059Y761658D01*
X54114Y761603D01*
X54158Y761581D01*
X54212Y761527D01*
X54300Y761374D01*
X54377Y761319D01*
X54584Y761111D01*
X54606Y761067D01*
X54716Y760914D01*
X54825Y760805D01*
X54934Y760608D01*
X55022Y760520D01*
X55044Y760477D01*
X55153Y760323D01*
X55230Y760269D01*
X55284Y760148D01*
X55317Y760028D01*
X55350Y759995D01*
X55361Y759962D01*
X55405Y759941D01*
X55503Y759842D01*
X55525Y759799D01*
X55569Y759755D01*
X55591Y759711D01*
X55634Y759667D01*
X55678Y759558D01*
X55711Y759416D01*
X55777Y759306D01*
X55820Y759284D01*
X55853Y759252D01*
X55875Y759208D01*
X55919Y759099D01*
X56028Y758902D01*
X56116Y758705D01*
X56137Y758617D01*
X56181Y758574D01*
X56203Y758530D01*
X56291Y758442D01*
X56334Y758289D01*
X56356Y758048D01*
X56455Y757928D01*
X56553Y757699D01*
X56663Y757502D01*
X56706Y757392D01*
X56728Y757239D01*
X56750Y756955D01*
X56859Y756758D01*
X56947Y756561D01*
X56980Y756309D01*
X57045Y756047D01*
X57067Y755938D01*
X57111Y755762D01*
X57133Y755653D01*
X57155Y755434D01*
X57177Y755238D01*
X57220Y755062D01*
X57275Y754920D01*
X57319Y754745D01*
X57351Y754603D01*
X57384Y753958D01*
X57362Y751070D01*
X57341Y751005D01*
X57308Y750863D01*
X57286Y750775D01*
X57188Y750458D01*
X57166Y750305D01*
X57133Y750009D01*
X57111Y749878D01*
X57067Y749659D01*
X57045Y749572D01*
X57013Y749452D01*
X56969Y749277D01*
X56947Y749014D01*
X56859Y748861D01*
X56816Y748817D01*
X56772Y748708D01*
X56750Y748620D01*
X56728Y748336D01*
X56706Y748139D01*
X56641Y748030D01*
X56553Y747898D01*
X56520Y747778D01*
X56477Y747669D01*
X56444Y747636D01*
X56422Y747592D01*
X56356Y747439D01*
X56334Y747352D01*
X56312Y747111D01*
X56225Y746958D01*
X56137Y746870D01*
X56094Y746761D01*
X56061Y746641D01*
X55941Y746389D01*
X55886Y746247D01*
X55766Y746127D01*
X55744Y746083D01*
X55700Y745974D01*
X55656Y745777D01*
X55558Y745656D01*
X55459Y745492D01*
X55437Y745448D01*
X55339Y745328D01*
X55306Y745295D01*
X55273Y745153D01*
X55230Y745044D01*
X55087Y744902D01*
X54978Y744705D01*
X54891Y744617D01*
X54847Y744508D01*
X54825Y744464D01*
X54672Y744311D01*
X54563Y744114D01*
X54475Y744027D01*
X54453Y743983D01*
X54355Y743863D01*
X54322Y743830D01*
X54300Y743786D01*
X54256Y743742D01*
X54147Y743545D01*
X54016Y743436D01*
X53950Y743370D01*
X53928Y743327D01*
X53841Y743239D01*
X53819Y743195D01*
X53764Y743119D01*
X53720Y743097D01*
X53600Y742999D01*
X53491Y742845D01*
X53348Y742703D01*
X53305Y742681D01*
X53184Y742583D01*
X53119Y742473D01*
X53064Y742419D01*
X53020Y742397D01*
X52933Y742309D01*
X52889Y742288D01*
X52769Y742167D01*
X52747Y742123D01*
X52670Y742047D01*
X52517Y741959D01*
X52386Y741828D01*
X52342Y741806D01*
X52298Y741762D01*
X52255Y741741D01*
X52167Y741653D01*
X52025Y741599D01*
X51948Y741544D01*
X51894Y741467D01*
X51817Y741391D01*
X51664Y741303D01*
X51391Y741095D01*
X51336Y741041D01*
X51227Y740997D01*
X51084Y740942D01*
X51008Y740888D01*
X50920Y740800D01*
X50723Y740691D01*
X50658Y740625D01*
X50505Y740581D01*
X50417Y740559D01*
X50264Y740472D01*
X50177Y740384D01*
X49969Y740308D01*
X49805Y740209D01*
X49630Y740166D01*
X49488Y740111D01*
X49422Y740067D01*
X49400Y740023D01*
X49345Y739969D01*
X49258Y739947D01*
X49105Y739925D01*
X48930Y739903D01*
X48755Y739794D01*
X48645Y739750D01*
X48503Y739717D01*
X48394Y739673D01*
X48317Y739597D01*
X48208Y739553D01*
X48120Y739531D01*
X47661Y739509D01*
X47595Y739488D01*
X47398Y739378D01*
X47245Y739313D01*
X46841Y739258D01*
X46666Y739214D01*
X46447Y739170D01*
X46184Y739127D01*
X45616Y739083D01*
X45397Y739061D01*
X45047Y739017D01*
X44784Y738995D01*
X44423Y738984D01*
X44358Y739006D01*
X43931Y739039D01*
X43581Y739083D01*
X43275Y739105D01*
X42794Y739148D01*
X42684Y739170D01*
X42509Y739214D01*
X42400Y739236D01*
X42269Y739258D01*
X41722Y739345D01*
X41613Y739389D01*
X41580Y739422D01*
X41427Y739488D01*
X41339Y739509D01*
X40923Y739531D01*
X40705Y739553D01*
X40552Y739641D01*
X40398Y739706D01*
X40311Y739728D01*
X40125Y739761D01*
X39950Y739870D01*
X39852Y739903D01*
X39764Y739925D01*
X39305Y739947D01*
X39108Y740056D01*
X38911Y740144D01*
X38758Y740166D01*
X38670Y740188D01*
X38539Y740209D01*
X38342Y740297D01*
X38167Y740341D01*
X37981Y740373D01*
X37905Y740406D01*
X37784Y740505D01*
X37642Y740559D01*
X37281Y740592D01*
X37150Y740614D01*
X36975Y740723D01*
X36877Y740756D01*
X36734Y740811D01*
X36658Y740844D01*
X36527Y740931D01*
X36384Y740964D01*
X36122Y740986D01*
X36012Y741008D01*
X35903Y741052D01*
X35826Y741128D01*
X35783Y741150D01*
X35673Y741194D01*
X35586Y741216D01*
X35389Y741259D01*
X35148Y741369D01*
X35061Y741391D01*
X34919Y741423D01*
X34744Y741533D01*
X34689Y741588D01*
X34602Y741609D01*
X34383Y741631D01*
X34252Y741653D01*
X34098Y741762D01*
X33989Y741806D01*
X33902Y741828D01*
X33705Y741937D01*
X33595Y742003D01*
X33508Y742025D01*
X33245Y742047D01*
X32961Y742244D01*
X32797Y742277D01*
X32655Y742331D01*
X32611Y742375D01*
X32502Y742419D01*
X32414Y742441D01*
X32272Y742473D01*
X32195Y742528D01*
X32141Y742605D01*
X32108Y742637D01*
X32020Y742659D01*
X31802Y742681D01*
X31659Y742736D01*
X31561Y742834D01*
X31277Y742988D01*
X31233Y743031D01*
X31112Y743064D01*
X30981Y743086D01*
X30872Y743130D01*
X30839Y743163D01*
X30795Y743184D01*
X30708Y743272D01*
X30598Y743316D01*
X30445Y743403D01*
X30336Y743469D01*
X30248Y743491D01*
X30139Y743534D01*
X30084Y743589D01*
X30062Y743633D01*
X29986Y743709D01*
X29723Y743753D01*
X29570Y743906D01*
X29461Y743972D01*
X29330Y744103D01*
X29176Y744125D01*
X29067Y744169D01*
X29034Y744202D01*
X29012Y744245D01*
X28958Y744322D01*
X28848Y744366D01*
X28695Y744453D01*
X28652Y744497D01*
X28542Y744541D01*
X28433Y744606D01*
X28400Y744639D01*
X28378Y744683D01*
X28302Y744759D01*
X28214Y744781D01*
X28094Y744814D01*
X28028Y744858D01*
X28006Y744902D01*
X27820Y745088D01*
X27777Y745109D01*
X27733Y745153D01*
X27591Y745208D01*
X27558Y745241D01*
X27514Y745263D01*
X27405Y745372D01*
X27361Y745394D01*
X27317Y745437D01*
X27273Y745459D01*
X27208Y745525D01*
X27164Y745547D01*
X26967Y745656D01*
X26934Y745689D01*
X26880Y745788D01*
X26770Y745831D01*
X26628Y745886D01*
X26508Y746006D01*
X26464Y746028D01*
X26344Y746127D01*
X26267Y746203D01*
X26158Y746247D01*
X26114Y746269D01*
X25994Y746367D01*
X25917Y746444D01*
X25873Y746466D01*
X25753Y746564D01*
X25720Y746597D01*
X25523Y746706D01*
X25469Y746761D01*
X25447Y746805D01*
X25414Y746837D01*
X25305Y746881D01*
X25152Y746969D01*
X25064Y747056D01*
X24911Y747144D01*
X24823Y747231D01*
X24583Y747363D01*
X24473Y747472D01*
X24277Y747581D01*
X24189Y747669D01*
X24036Y747756D01*
X23905Y747887D01*
X23697Y747964D01*
X23620Y748019D01*
X23533Y748106D01*
X23489Y748128D01*
X23369Y748227D01*
X23314Y748281D01*
X23205Y748325D01*
X23063Y748380D01*
X23030Y748412D01*
X22997Y748423D01*
X22975Y748467D01*
X22702Y748631D01*
X22548Y748697D01*
X22461Y748675D01*
X22406Y748620D01*
X22384Y748467D01*
X22362Y747680D01*
X22341Y747614D01*
X22308Y747056D01*
X22286Y746859D01*
X22264Y746772D01*
X22198Y746597D01*
X22144Y746477D01*
X22100Y746302D01*
X22078Y745952D01*
X22056Y745733D01*
X21925Y745448D01*
X21881Y745295D01*
X21837Y745186D01*
X21728Y745033D01*
X21684Y744858D01*
X21662Y744574D01*
X21509Y744377D01*
X21466Y744267D01*
X21411Y744125D01*
X21291Y743852D01*
X21236Y743709D01*
X21203Y743677D01*
X21181Y743633D01*
X21094Y743545D01*
X21050Y743436D01*
X21028Y743283D01*
X20984Y743174D01*
X20853Y743042D01*
X20744Y742845D01*
X20678Y742780D01*
X20634Y742627D01*
X20580Y742484D01*
X20514Y742419D01*
X20470Y742397D01*
X20306Y742102D01*
X20262Y742058D01*
X20241Y742014D01*
X20131Y741817D01*
X20055Y741762D01*
X20000Y741642D01*
X19967Y741522D01*
X19880Y741391D01*
X19803Y741314D01*
X19694Y741117D01*
X19628Y741052D01*
X19584Y740899D01*
X19562Y740745D01*
X19639Y740603D01*
X19814Y740559D01*
X19923Y740537D01*
X19978Y740483D01*
X20000Y740439D01*
X20077Y740362D01*
X20219Y740330D01*
X20328Y740286D01*
X20602Y740166D01*
X20744Y740111D01*
X20820Y740056D01*
X20886Y739991D01*
X20995Y739947D01*
X21148Y739925D01*
X21345Y739903D01*
X21389Y739859D01*
X21433Y739837D01*
X21498Y739772D01*
X21641Y739717D01*
X21816Y739608D01*
X21848Y739575D01*
X21969Y739542D01*
X22209Y739520D01*
X22297Y739499D01*
X22373Y739466D01*
X22428Y739433D01*
X22439Y739400D01*
X22483Y739378D01*
X22527Y739334D01*
X22647Y739302D01*
X22734Y739280D01*
X22975Y739192D01*
X23084Y739148D01*
X23270Y739094D01*
X23423Y739006D01*
X23489Y738941D01*
X23598Y738897D01*
X23817Y738875D01*
X23981Y738842D01*
X24113Y738755D01*
X24145Y738722D01*
X24298Y738656D01*
X24408Y738591D01*
X24473Y738525D01*
X24648Y738481D01*
X24867Y738459D01*
X25020Y738372D01*
X25086Y738306D01*
X25195Y738262D01*
X25403Y738186D01*
X25633Y738087D01*
X25720Y738066D01*
X25863Y738011D01*
X26005Y737869D01*
X26398Y737803D01*
X26639Y737650D01*
X26759Y737617D01*
X26934Y737508D01*
X26989Y737453D01*
X27077Y737431D01*
X27339Y737409D01*
X27492Y737322D01*
X27558Y737256D01*
X27667Y737213D01*
X27809Y737180D01*
X27919Y737136D01*
X28148Y737038D01*
X28236Y737016D01*
X28356Y736983D01*
X28477Y736906D01*
X28542Y736841D01*
X28695Y736797D01*
X28848Y736775D01*
X29023Y736753D01*
X29220Y736644D01*
X29330Y736600D01*
X29505Y736534D01*
X29658Y736425D01*
X29811Y736381D01*
X30139Y736359D01*
X30292Y736272D01*
X30423Y736184D01*
X30598Y736141D01*
X30741Y736108D01*
X30981Y736020D01*
X31167Y735966D01*
X31320Y735944D01*
X31430Y735900D01*
X31550Y735802D01*
X31692Y735747D01*
X31977Y735725D01*
X32173Y735703D01*
X32458Y735572D01*
X32720Y735506D01*
X33005Y735375D01*
X33092Y735353D01*
X33311Y735331D01*
X33683Y735309D01*
X33748Y735287D01*
X33891Y735233D01*
X34120Y735134D01*
X34273Y735113D01*
X34361Y735091D01*
X34678Y735058D01*
X34941Y734992D01*
X35334Y734927D01*
X35619Y734905D01*
X35816Y734883D01*
X36034Y734839D01*
X36209Y734795D01*
X36395Y734741D01*
X36483Y734719D01*
X36636Y734697D01*
X37511Y734675D01*
X38780Y734653D01*
X38845Y734631D01*
X39392Y734609D01*
X39458Y734587D01*
X39731Y734598D01*
X39994Y734577D01*
X40092Y734566D01*
X40158Y734587D01*
X40584Y734577D01*
X41153Y734598D01*
X41262Y734620D01*
X41678Y734642D01*
X42181Y734664D01*
X43341Y734686D01*
X43647Y734708D01*
X43756Y734730D01*
X43931Y734773D01*
X44183Y734850D01*
X44270Y734872D01*
X44423Y734894D01*
X44763Y734927D01*
X45058Y734959D01*
X45145Y734981D01*
X45298Y735025D01*
X45386Y735047D01*
X45692Y735091D01*
X46009Y735145D01*
X46119Y735189D01*
X46283Y735287D01*
X46436Y735309D01*
X47005Y735353D01*
X47333Y735506D01*
X47508Y735550D01*
X47792Y735681D01*
X47967Y735725D01*
X48317Y735747D01*
X48580Y735922D01*
X48667Y735944D01*
X48897Y735999D01*
X49170Y736119D01*
X49400Y736173D01*
X49531Y736261D01*
X49586Y736316D01*
X49695Y736359D01*
X49969Y736392D01*
X50144Y736502D01*
X50264Y736556D01*
X50406Y736611D01*
X50439Y736644D01*
X50483Y736666D01*
X50570Y736753D01*
X50723Y736775D01*
X50909Y736808D01*
X51030Y736884D01*
X51139Y736994D01*
X51227Y737016D01*
X51369Y737070D01*
X51500Y737158D01*
X51642Y737213D01*
X51686Y737234D01*
X51806Y737333D01*
X51839Y737366D01*
X51948Y737409D01*
X52036Y737431D01*
X52233Y737541D01*
X52277Y737584D01*
X52517Y737716D01*
X52550Y737748D01*
X52561Y737781D01*
X52605Y737803D01*
X52670Y737825D01*
X52758Y737847D01*
X52900Y737924D01*
X52922Y737967D01*
X52977Y738022D01*
X53173Y738131D01*
X53261Y738219D01*
X53370Y738262D01*
X53480Y738328D01*
X53567Y738416D01*
X53611Y738438D01*
X53808Y738547D01*
X53917Y738656D01*
X53961Y738678D01*
X54114Y738831D01*
X54158Y738853D01*
X54355Y738962D01*
X54486Y739094D01*
X54595Y739159D01*
X54727Y739291D01*
X54770Y739313D01*
X54967Y739509D01*
X55120Y739597D01*
X55241Y739717D01*
X55262Y739761D01*
X55361Y739881D01*
X55405Y739925D01*
X55492Y739947D01*
X55613Y740045D01*
X55678Y740111D01*
X55700Y740155D01*
X55798Y740275D01*
X55984Y740461D01*
X55995Y740494D01*
X56039Y740516D01*
X56083Y740559D01*
X56127Y740581D01*
X56170Y740625D01*
X56214Y740647D01*
X56269Y740702D01*
X56312Y740811D01*
X56378Y740920D01*
X56433Y740975D01*
X56477Y740997D01*
X56706Y741227D01*
X56794Y741380D01*
X56827Y741413D01*
X56870Y741434D01*
X56925Y741489D01*
X56947Y741533D01*
X57045Y741653D01*
X57100Y741708D01*
X57122Y741752D01*
X57231Y741948D01*
X57362Y742080D01*
X57494Y742320D01*
X57559Y742386D01*
X57581Y742430D01*
X57680Y742550D01*
X57734Y742605D01*
X57778Y742714D01*
X57800Y742802D01*
X57909Y742955D01*
X57975Y743020D01*
X58106Y743261D01*
X58216Y743502D01*
X58303Y743655D01*
X58336Y743688D01*
X58369Y743699D01*
X58391Y743742D01*
X58434Y743852D01*
X58456Y744070D01*
X58609Y744223D01*
X58631Y744311D01*
X58741Y744508D01*
X58784Y744552D01*
X58817Y744672D01*
X58839Y744847D01*
X58872Y745033D01*
X58970Y745153D01*
X59025Y745208D01*
X59069Y745383D01*
X59102Y745569D01*
X59189Y745788D01*
X59222Y745908D01*
X59244Y745995D01*
X59266Y746214D01*
X59288Y746280D01*
X59353Y746498D01*
X59375Y746586D01*
X59397Y746739D01*
X59419Y747220D01*
X59451Y747516D01*
X59484Y748161D01*
X59506Y748314D01*
X59616Y748467D01*
X59659Y748620D01*
X59681Y748708D01*
X59714Y748850D01*
X59856Y749123D01*
X59878Y749342D01*
X59900Y751530D01*
X59878Y752011D01*
X59856Y753105D01*
X59834Y753170D01*
X59802Y753378D01*
X59736Y753641D01*
X59714Y753772D01*
X59670Y754209D01*
X59627Y754494D01*
X59605Y754625D01*
X59506Y754942D01*
X59484Y755752D01*
X59462Y756036D01*
X59430Y756178D01*
X59386Y756288D01*
X59331Y756408D01*
X59288Y756561D01*
X59266Y756648D01*
X59233Y756900D01*
X59211Y757031D01*
X59189Y757141D01*
X59167Y757228D01*
X59102Y757403D01*
X59080Y757534D01*
X59058Y757709D01*
X59036Y757819D01*
X58905Y758037D01*
X58872Y758136D01*
X58850Y758223D01*
X58828Y758508D01*
X58806Y758705D01*
X58653Y758923D01*
X58620Y759044D01*
X58598Y759131D01*
X58456Y759405D01*
X58434Y759492D01*
X58412Y759777D01*
X58336Y759897D01*
X58292Y759919D01*
X58259Y759952D01*
X58216Y760061D01*
X58194Y760148D01*
X58161Y760291D01*
X58041Y760520D01*
X57997Y760674D01*
X57909Y760827D01*
X57822Y760914D01*
X57778Y761067D01*
X57756Y761264D01*
X57702Y761341D01*
X57658Y761363D01*
X57603Y761461D01*
X57581Y761505D01*
X57483Y761625D01*
X57450Y761658D01*
X57406Y761767D01*
X57384Y761855D01*
X57362Y761986D01*
X57209Y762183D01*
X57013Y762555D01*
X56903Y762752D01*
X56772Y762883D01*
X56728Y763036D01*
X56684Y763145D01*
X56575Y763255D01*
X56553Y763298D01*
X56444Y763452D01*
X56356Y763539D01*
X56280Y763747D01*
X56214Y763834D01*
X56170Y763856D01*
X56072Y764020D01*
X56050Y764064D01*
X55941Y764174D01*
X55919Y764217D01*
X55798Y764381D01*
X55766Y764392D01*
X55744Y764436D01*
X55678Y764589D01*
X55656Y764633D01*
X55558Y764731D01*
X55514Y764753D01*
X55459Y764808D01*
X55437Y764852D01*
X55328Y764961D01*
X55306Y765005D01*
X55208Y765147D01*
X55164Y765169D01*
X55087Y765245D01*
X55066Y765289D01*
X54956Y765442D01*
X54869Y765530D01*
X54847Y765573D01*
X54748Y765694D01*
X54628Y765814D01*
X54606Y765858D01*
X54409Y766055D01*
X54387Y766098D01*
X54311Y766175D01*
X54267Y766197D01*
X54180Y766328D01*
X54114Y766394D01*
X54070Y766416D01*
X53895Y766591D01*
X53852Y766612D01*
X53764Y766744D01*
X53698Y766809D01*
X53589Y766875D01*
X53414Y767050D01*
X53381Y767061D01*
X53359Y767105D01*
X53261Y767203D01*
X53217Y767225D01*
X53097Y767324D01*
X53042Y767378D01*
X52998Y767400D01*
X52933Y767466D01*
X52889Y767487D01*
X52758Y767619D01*
X52605Y767706D01*
X52550Y767761D01*
X52528Y767805D01*
X52473Y767859D01*
X52277Y767969D01*
X52189Y768056D01*
X52156Y768067D01*
X52134Y768111D01*
X52091Y768155D01*
X52069Y768198D01*
X52036Y768231D01*
X51927Y768275D01*
X51806Y768308D01*
X51697Y768417D01*
X51686Y768450D01*
X51642Y768472D01*
X51434Y768614D01*
X51380Y768669D01*
X51270Y768712D01*
X51117Y768800D01*
X51062Y768877D01*
X50942Y768931D01*
X50855Y768953D01*
X50745Y769019D01*
X50680Y769084D01*
X50636Y769106D01*
X50483Y769194D01*
X50450Y769227D01*
X50428Y769270D01*
X50395Y769303D01*
X50308Y769325D01*
X50155Y769347D01*
X50111Y769369D01*
X50056Y769402D01*
X50034Y769445D01*
X49936Y769544D01*
X49848Y769566D01*
X49739Y769609D01*
X49586Y769697D01*
X49477Y769741D01*
X49280Y769850D01*
X49192Y769938D01*
X49050Y769970D01*
X48809Y770014D01*
X48733Y770069D01*
X48448Y770200D01*
X48405Y770222D01*
X48295Y770331D01*
X48142Y770375D01*
X47836Y770397D01*
X47683Y770484D01*
X47639Y770528D01*
X47486Y770594D01*
X47322Y770627D01*
X47005Y770725D01*
X46786Y770791D01*
X46534Y770845D01*
X46403Y770933D01*
X46283Y770987D01*
X46195Y771009D01*
X45977Y771031D01*
X45627Y771053D01*
X45561Y771075D01*
X45419Y771130D01*
X45298Y771184D01*
X45123Y771228D01*
X44894Y771261D01*
X44806Y771283D01*
X44631Y771348D01*
X44489Y771403D01*
X43680Y771425D01*
X42750Y771458D01*
X41492Y771469D01*
X41427Y771447D01*
X39961Y771425D01*
X39502Y771403D01*
X39436Y771381D01*
X39141Y771348D01*
X39042Y771316D01*
X38867Y771272D01*
X38528Y771239D01*
X38047Y771195D01*
X37872Y771173D01*
X37784Y771152D01*
X37566Y771108D01*
X37391Y771086D01*
X37128Y771042D01*
X36986Y771031D01*
X36920Y771053D01*
X36636Y771031D01*
X35892Y771053D01*
X35838Y771108D01*
X35859Y771239D01*
X35969Y771480D01*
X35991Y771633D01*
X36012Y771720D01*
X35991Y771983D01*
X35881Y772136D01*
X35794Y772223D01*
X35684Y772420D01*
X35498Y772519D01*
X35466Y772552D01*
X35487Y772661D01*
X35520Y772694D01*
X35630Y772738D01*
X35772Y772770D01*
X36023Y772847D01*
X36111Y772869D01*
X36264Y772891D01*
X36516Y772945D01*
X36625Y772989D01*
X36898Y773109D01*
X37314Y773131D01*
X37883Y773153D01*
X37948Y773175D01*
X38200Y773208D01*
X38386Y773262D01*
X38670Y773284D01*
X38889Y773306D01*
X39173Y773328D01*
X41536Y773306D01*
X41602Y773284D01*
X41973Y773241D01*
X42203Y773186D01*
X42291Y773164D01*
X42641Y773142D01*
X43362Y773120D01*
X43625Y773099D01*
X43713Y773077D01*
X43898Y773000D01*
X44117Y772934D01*
X44205Y772913D01*
X44489Y772891D01*
X44577Y772869D01*
X44752Y772847D01*
X44861Y772803D01*
X45222Y772727D01*
X45616Y772661D01*
X45791Y772552D01*
X45911Y772497D01*
X46327Y772475D01*
X46480Y772453D01*
X46589Y772409D01*
X46720Y772322D01*
X46873Y772278D01*
X47081Y772202D01*
X47114Y772169D01*
X47223Y772125D01*
X47377Y772081D01*
X47683Y772059D01*
X47792Y771994D01*
X47913Y771895D01*
X48011Y771862D01*
X48098Y771841D01*
X48241Y771808D01*
X48470Y771687D01*
X48612Y771655D01*
X48700Y771633D01*
X48777Y771578D01*
X48842Y771513D01*
X48886Y771491D01*
X48995Y771447D01*
X49083Y771425D01*
X49302Y771403D01*
X49455Y771250D01*
X49597Y771195D01*
X49630Y771162D01*
X49673Y771141D01*
X49739Y771075D01*
X49914Y771031D01*
X50045Y771009D01*
X50155Y770944D01*
X50242Y770856D01*
X50352Y770813D01*
X50548Y770703D01*
X50745Y770616D01*
X50855Y770550D01*
X50964Y770441D01*
X51073Y770397D01*
X51216Y770364D01*
X51336Y770287D01*
X51533Y770134D01*
X51598Y770069D01*
X51642Y770047D01*
X51795Y769981D01*
X51937Y769927D01*
X52036Y769828D01*
X52080Y769806D01*
X52145Y769741D01*
X52189Y769719D01*
X52320Y769631D01*
X52517Y769522D01*
X52572Y769445D01*
X52648Y769369D01*
X52823Y769325D01*
X53020Y769172D01*
X53141Y769073D01*
X53283Y768931D01*
X53425Y768898D01*
X53502Y768866D01*
X53556Y768811D01*
X53578Y768767D01*
X53698Y768647D01*
X53742Y768625D01*
X53939Y768472D01*
X54092Y768319D01*
X54136Y768297D01*
X54289Y768209D01*
X54442Y768056D01*
X54486Y768034D01*
X54606Y767936D01*
X54661Y767881D01*
X54748Y767859D01*
X54869Y767761D01*
X54891Y767717D01*
X54967Y767641D01*
X55164Y767553D01*
X55219Y767564D01*
X55197Y767717D01*
X55098Y767838D01*
X54913Y767958D01*
X54847Y768067D01*
X54770Y768144D01*
X54727Y768166D01*
X54595Y768297D01*
X54486Y768363D01*
X54311Y768538D01*
X54267Y768559D01*
X54136Y768691D01*
X54092Y768712D01*
X53895Y768909D01*
X53655Y769041D01*
X53622Y769073D01*
X53556Y769183D01*
X53458Y769281D01*
X53337Y769314D01*
X53217Y769391D01*
X53184Y769424D01*
X53162Y769467D01*
X53086Y769544D01*
X53042Y769566D01*
X52736Y769784D01*
X52692Y769806D01*
X52583Y769916D01*
X52539Y769938D01*
X52386Y770025D01*
X52266Y770124D01*
X52189Y770178D01*
X52112Y770255D01*
X52091Y770298D01*
X52036Y770353D01*
X51948Y770375D01*
X51828Y770408D01*
X51664Y770572D01*
X51620Y770594D01*
X51467Y770703D01*
X51423Y770747D01*
X51270Y770813D01*
X51227Y770834D01*
X51106Y770933D01*
X51030Y771009D01*
X50975Y771020D01*
X50964Y771031D01*
X50844Y771064D01*
X50712Y771152D01*
X50658Y771206D01*
X50461Y771316D01*
X50428Y771348D01*
X50417Y771381D01*
X50373Y771403D01*
X50308Y771425D01*
X50111Y771447D01*
X50056Y771480D01*
X50034Y771524D01*
X49936Y771622D01*
X49662Y771720D01*
X49498Y771819D01*
X49378Y771852D01*
X49203Y771961D01*
X49148Y772016D01*
X49039Y772059D01*
X48722Y772114D01*
X48645Y772169D01*
X48514Y772256D01*
X48372Y772311D01*
X48339Y772344D01*
X48295Y772366D01*
X48230Y772431D01*
X48077Y772475D01*
X47770Y772497D01*
X47650Y772595D01*
X47617Y772628D01*
X47573Y772650D01*
X47464Y772694D01*
X47322Y772727D01*
X47081Y772814D01*
X46994Y772836D01*
X46808Y772891D01*
X46611Y772934D01*
X46458Y773044D01*
X46348Y773087D01*
X46261Y773109D01*
X46108Y773131D01*
X45802Y773153D01*
X45561Y773262D01*
X45408Y773306D01*
X45320Y773328D01*
X45178Y773361D01*
X44905Y773481D01*
X44598Y773525D01*
X44052Y773547D01*
X43986Y773569D01*
X43866Y773602D01*
X43756Y773645D01*
X43614Y773700D01*
X43527Y773722D01*
X43373Y773744D01*
X42706Y773799D01*
X42531Y773820D01*
X42312Y773842D01*
X42017Y773875D01*
X41733Y773897D01*
X41317Y773919D01*
X40180Y773941D01*
D02*
G37*
G36*
X15220Y754341D02*
X14805Y754319D01*
X14761Y754275D01*
X14608Y754187D01*
X14575Y754155D01*
X14597Y754024D01*
X14684Y753936D01*
X14728Y753827D01*
X14750Y753673D01*
X14805Y753597D01*
X14914Y753531D01*
X14947Y753499D01*
X14991Y753389D01*
X15013Y753345D01*
X15111Y753225D01*
X15220Y753050D01*
X15362Y752908D01*
X15384Y752755D01*
X15362Y752667D01*
X15308Y752613D01*
X15198Y752656D01*
X15155Y752700D01*
X15111Y752722D01*
X15023Y752809D01*
X14980Y752831D01*
X14827Y752941D01*
X14728Y753039D01*
X14706Y753083D01*
X14630Y753159D01*
X14488Y753214D01*
X14356Y753324D01*
X14269Y753477D01*
X14192Y753553D01*
X13842Y753641D01*
X13711Y753619D01*
X13602Y753575D01*
X13383Y753553D01*
X13306Y753499D01*
X13284Y753455D01*
X13208Y753378D01*
X13098Y753313D01*
X12967Y753181D01*
X12858Y753116D01*
X12650Y752908D01*
X12628Y752864D01*
X12530Y752744D01*
X12453Y752667D01*
X12431Y752624D01*
X12333Y752503D01*
X12289Y752481D01*
X12234Y752361D01*
X12223Y752044D01*
X12245Y751956D01*
X12300Y751880D01*
X12333Y751847D01*
X12377Y751825D01*
X12442Y751759D01*
X12486Y751738D01*
X12606Y751639D01*
X12628Y751595D01*
X12705Y751497D01*
X12814Y751453D01*
X12923Y751387D01*
X13011Y751300D01*
X13055Y751278D01*
X13208Y751125D01*
X13361Y751059D01*
X13405Y751038D01*
X13481Y750983D01*
X13503Y750939D01*
X13558Y750884D01*
X13711Y750797D01*
X13820Y750687D01*
X14017Y750578D01*
X14127Y750469D01*
X14236Y750425D01*
X14280Y750403D01*
X14400Y750305D01*
X14433Y750272D01*
X14477Y750250D01*
X14520Y750206D01*
X14564Y750184D01*
X14684Y750064D01*
X14706Y750020D01*
X14728Y749955D01*
X14750Y749867D01*
X14717Y749200D01*
X14695Y749112D01*
X14641Y749036D01*
X14608Y749003D01*
X14520Y748981D01*
X14236Y749003D01*
X14148Y749091D01*
X14105Y749112D01*
X13973Y749200D01*
X13930Y749222D01*
X13820Y749331D01*
X13580Y749463D01*
X13470Y749572D01*
X13427Y749594D01*
X13306Y749692D01*
X13186Y749812D01*
X13142Y749834D01*
X13066Y749911D01*
X13044Y749955D01*
X12989Y750009D01*
X12945Y750031D01*
X12847Y750108D01*
X12825Y750152D01*
X12792Y750184D01*
X12748Y750206D01*
X12628Y750327D01*
X12606Y750370D01*
X12573Y750403D01*
X12333Y750534D01*
X12223Y750644D01*
X12180Y750666D01*
X12136Y750709D01*
X12092Y750731D01*
X11961Y750819D01*
X11895Y750841D01*
X11698Y750928D01*
X11600Y750852D01*
X11513Y750698D01*
X11425Y750611D01*
X11316Y750414D01*
X11239Y750359D01*
X11206Y750261D01*
X11184Y750173D01*
X11163Y750042D01*
X11119Y749933D01*
X11141Y749824D01*
X11184Y749780D01*
X11206Y749736D01*
X11305Y749638D01*
X11502Y749528D01*
X11633Y749397D01*
X11786Y749309D01*
X11939Y749156D01*
X11983Y749134D01*
X12114Y749003D01*
X12311Y748894D01*
X12377Y748828D01*
X12420Y748806D01*
X12464Y748763D01*
X12617Y748675D01*
X12727Y748566D01*
X12836Y748500D01*
X12967Y748369D01*
X13120Y748325D01*
X13230Y748259D01*
X13284Y748183D01*
X13361Y748106D01*
X13405Y748084D01*
X13492Y747997D01*
X13536Y747975D01*
X13689Y747866D01*
X13722Y747745D01*
X13700Y747658D01*
X13678Y747439D01*
X13656Y747155D01*
X13503Y746914D01*
X13372Y746674D01*
X13306Y746608D01*
X13284Y746455D01*
X13262Y746323D01*
X13186Y746225D01*
X13142Y746203D01*
X13088Y746149D01*
X13044Y746039D01*
X13022Y745952D01*
X12923Y745831D01*
X12891Y745798D01*
X12836Y745656D01*
X12672Y745492D01*
X12628Y745317D01*
X12606Y745274D01*
X12431Y745098D01*
X12409Y745055D01*
X12311Y744934D01*
X12256Y744880D01*
X12202Y744737D01*
X12125Y744617D01*
X12038Y744552D01*
X12016Y744508D01*
X11862Y744311D01*
X11753Y744158D01*
X11622Y744070D01*
X11534Y743852D01*
X11502Y743797D01*
X11458Y743775D01*
X11327Y743688D01*
X11283Y743666D01*
X11206Y743589D01*
X11097Y743392D01*
X11020Y743316D01*
X10977Y743294D01*
X10944Y743261D01*
X10922Y743217D01*
X10823Y743119D01*
X10670Y743053D01*
X10200Y743086D01*
X10091Y743130D01*
X9992Y743228D01*
X9948Y743250D01*
X9708Y743381D01*
X9456Y743567D01*
X9434Y743611D01*
X9380Y743666D01*
X9270Y743709D01*
X9183Y743731D01*
X9106Y743786D01*
X9084Y743830D01*
X9008Y743928D01*
X8964Y743950D01*
X8920Y743994D01*
X8888Y744005D01*
X8866Y744048D01*
X8811Y744103D01*
X8658Y744191D01*
X8505Y744344D01*
X8461Y744366D01*
X8308Y744519D01*
X8111Y744628D01*
X7980Y744759D01*
X7870Y744803D01*
X7827Y744825D01*
X7706Y744923D01*
X7630Y745000D01*
X7498Y745066D01*
X7378Y744967D01*
X7302Y744825D01*
X7258Y744803D01*
X7225Y744770D01*
X7203Y744727D01*
X7116Y744574D01*
X7050Y744508D01*
X7028Y744464D01*
X7006Y744398D01*
X6984Y744311D01*
X6963Y743786D01*
X6941Y743720D01*
X6919Y743633D01*
X6897Y743480D01*
X6875Y743195D01*
X6908Y742944D01*
X6952Y742681D01*
X6973Y742506D01*
X6995Y742113D01*
X7017Y742025D01*
X7181Y741708D01*
X7269Y741555D01*
X7302Y741522D01*
X7312Y741511D01*
X7378Y741358D01*
X7411Y741216D01*
X7466Y741139D01*
X7575Y741030D01*
X7597Y740986D01*
X7684Y740899D01*
X7706Y740855D01*
X7750Y740811D01*
X7772Y740767D01*
X7881Y740614D01*
X8012Y740527D01*
X8111Y740406D01*
X8220Y740362D01*
X8439Y740384D01*
X8559Y740483D01*
X8592Y740516D01*
X8702Y740559D01*
X8931Y740592D01*
X9019Y740636D01*
X9041Y740680D01*
X9139Y740778D01*
X9183Y740800D01*
X9303Y740899D01*
X9358Y740953D01*
X9555Y741062D01*
X9664Y741172D01*
X9708Y741194D01*
X9752Y741237D01*
X9795Y741259D01*
X9905Y741369D01*
X9948Y741391D01*
X10069Y741489D01*
X10134Y741555D01*
X10156Y741599D01*
X10287Y741708D01*
X10430Y741850D01*
X10473Y741872D01*
X10528Y741948D01*
X10627Y742047D01*
X10670Y742069D01*
X10747Y742145D01*
X10769Y742189D01*
X10867Y742309D01*
X11020Y742462D01*
X11064Y742484D01*
X11141Y742561D01*
X11163Y742605D01*
X11316Y742802D01*
X11425Y742911D01*
X11447Y742955D01*
X11556Y743064D01*
X11578Y743108D01*
X11688Y743261D01*
X11720Y743294D01*
X11764Y743316D01*
X11819Y743370D01*
X11841Y743414D01*
X11928Y743502D01*
X11950Y743545D01*
X12070Y743709D01*
X12180Y743775D01*
X12213Y743808D01*
X12289Y744016D01*
X12333Y744081D01*
X12377Y744103D01*
X12563Y744245D01*
X12584Y744289D01*
X12650Y744442D01*
X12672Y744486D01*
X12748Y744563D01*
X12792Y744584D01*
X12825Y744617D01*
X12912Y744770D01*
X13044Y744902D01*
X13066Y744989D01*
X13164Y745109D01*
X13241Y745186D01*
X13350Y745383D01*
X13394Y745427D01*
X13416Y745470D01*
X13481Y745536D01*
X13503Y745580D01*
X13656Y745733D01*
X13689Y745853D01*
X13722Y745930D01*
X13777Y746006D01*
X13820Y746028D01*
X13875Y746083D01*
X13984Y746280D01*
X14050Y746345D01*
X14072Y746389D01*
X14181Y746586D01*
X14312Y746717D01*
X14345Y746859D01*
X14389Y746969D01*
X14466Y747045D01*
X14488Y747089D01*
X14586Y747275D01*
X14630Y747297D01*
X14706Y747374D01*
X14728Y747461D01*
X14761Y747669D01*
X14870Y747800D01*
X14969Y747964D01*
X15002Y748084D01*
X15045Y748194D01*
X15144Y748423D01*
X15166Y748511D01*
X15253Y748664D01*
X15297Y748708D01*
X15319Y748752D01*
X15362Y748861D01*
X15384Y749014D01*
X15406Y749320D01*
X15516Y749473D01*
X15559Y749583D01*
X15592Y749791D01*
X15614Y749900D01*
X15658Y750009D01*
X15691Y750042D01*
X15734Y750152D01*
X15756Y750239D01*
X15778Y750524D01*
X15800Y751442D01*
X15822Y751508D01*
X15855Y751934D01*
X15909Y752383D01*
X15931Y752470D01*
X15953Y752820D01*
X15931Y753302D01*
X15909Y753367D01*
X15888Y753477D01*
X15822Y753630D01*
X15800Y753717D01*
X15778Y753980D01*
X15691Y754133D01*
X15658Y754166D01*
X15548Y754209D01*
X15373Y754275D01*
X15220Y754341D01*
D02*
G37*
G36*
X38364Y762872D02*
X38167Y762850D01*
X38101Y762828D01*
X37959Y762774D01*
X37883Y762719D01*
X37839Y762675D01*
X37730Y762631D01*
X37489Y762609D01*
X37413Y762533D01*
X37391Y762489D01*
X37336Y762434D01*
X37227Y762391D01*
X37073Y762303D01*
X37030Y762259D01*
X36833Y762150D01*
X36778Y762095D01*
X36756Y762052D01*
X36702Y761997D01*
X36559Y761942D01*
X36483Y761909D01*
X36428Y761855D01*
X36406Y761811D01*
X36286Y761625D01*
X36242Y761603D01*
X36089Y761516D01*
X36034Y761483D01*
X36012Y761439D01*
X35848Y761275D01*
X35816Y761264D01*
X35794Y761220D01*
X35750Y761177D01*
X35663Y761023D01*
X35608Y760969D01*
X35411Y760859D01*
X35378Y760827D01*
X35334Y760717D01*
X35312Y760630D01*
X35214Y760531D01*
X35170Y760509D01*
X35050Y760389D01*
X35028Y760345D01*
X34962Y760280D01*
X34941Y760236D01*
X34842Y760116D01*
X34722Y760017D01*
X34678Y759908D01*
X34613Y759799D01*
X34547Y759733D01*
X34525Y759689D01*
X34481Y759645D01*
X34416Y759536D01*
X34306Y759427D01*
X34262Y759317D01*
X34197Y759208D01*
X34109Y759120D01*
X33978Y758880D01*
X33891Y758792D01*
X33847Y758683D01*
X33825Y758639D01*
X33727Y758519D01*
X33694Y758486D01*
X33628Y758333D01*
X33595Y758213D01*
X33431Y757983D01*
X33409Y757917D01*
X33311Y757797D01*
X33256Y757742D01*
X33234Y757655D01*
X33212Y757458D01*
X33114Y757337D01*
X33070Y757316D01*
X33016Y757195D01*
X32972Y757020D01*
X32819Y756692D01*
X32775Y756495D01*
X32666Y756342D01*
X32622Y756299D01*
X32600Y756211D01*
X32578Y756058D01*
X32556Y755752D01*
X32447Y755577D01*
X32403Y755424D01*
X32348Y755172D01*
X32228Y754899D01*
X32206Y754745D01*
X32184Y754527D01*
X32162Y753805D01*
X32141Y753739D01*
X32086Y753487D01*
X32064Y753400D01*
X32042Y753291D01*
X31998Y753028D01*
X31977Y752722D01*
X31955Y751913D01*
X31944Y750961D01*
X31966Y750895D01*
X31988Y750808D01*
X32042Y750731D01*
X32217Y750687D01*
X32830Y750666D01*
X32895Y750644D01*
X33245Y750622D01*
X33311Y750600D01*
X33398Y750578D01*
X33530Y750556D01*
X33639Y750512D01*
X33770Y750534D01*
X33825Y750655D01*
X33847Y753630D01*
X33869Y753695D01*
X33891Y754483D01*
X33912Y754548D01*
X33934Y754680D01*
Y754702D01*
X33967Y754931D01*
X34011Y755216D01*
X34033Y755325D01*
X34055Y755566D01*
X34077Y755697D01*
X34142Y755872D01*
X34175Y755905D01*
X34241Y756058D01*
X34262Y756211D01*
X34284Y756299D01*
X34306Y756692D01*
X34350Y756736D01*
X34372Y756780D01*
X34416Y756824D01*
X34459Y756933D01*
X34481Y757020D01*
X34514Y757141D01*
X34623Y757316D01*
X34678Y757436D01*
X34700Y757742D01*
X34798Y757862D01*
X34853Y757917D01*
X34897Y758027D01*
X34930Y758169D01*
X34984Y758311D01*
X35072Y758442D01*
X35094Y758530D01*
X35159Y758705D01*
X35214Y758781D01*
X35258Y758803D01*
X35312Y758902D01*
X35334Y758989D01*
X35356Y759186D01*
X35487Y759317D01*
X35575Y759470D01*
X35663Y759558D01*
X35684Y759602D01*
X35706Y759667D01*
X35728Y759755D01*
X35761Y759875D01*
X35816Y759952D01*
X35903Y760039D01*
X35925Y760083D01*
X36078Y760367D01*
X36231Y760564D01*
X36319Y760652D01*
X36363Y760761D01*
X36384Y760848D01*
X36483Y760947D01*
X36527Y760969D01*
X36559Y761002D01*
X36581Y761045D01*
X36625Y761089D01*
X36647Y761133D01*
X36756Y761220D01*
X36778Y761264D01*
X36877Y761384D01*
X37052Y761559D01*
X37095Y761581D01*
X37194Y761658D01*
X37216Y761702D01*
X37270Y761756D01*
X37314Y761778D01*
X37511Y761975D01*
X37664Y762063D01*
X37861Y762259D01*
X37905Y762281D01*
X38145Y762522D01*
X38189Y762544D01*
X38233Y762588D01*
X38342Y762653D01*
X38397Y762708D01*
X38419Y762795D01*
X38397Y762839D01*
X38364Y762872D01*
D02*
G37*
G36*
X64723Y753487D02*
X64220Y753466D01*
X64155Y753444D01*
X63936Y753422D01*
X63848Y753400D01*
X63553Y753367D01*
X63422Y753345D01*
X63334Y753324D01*
X63094Y753236D01*
X62952Y753181D01*
X62492Y753159D01*
X62284Y753017D01*
X62164Y752962D01*
X62022Y752930D01*
X61770Y752809D01*
X61562Y752733D01*
X61508Y752678D01*
X61464Y752656D01*
X61431Y752624D01*
X61388Y752514D01*
X61366Y752427D01*
X61333Y751497D01*
X61311Y751103D01*
X61278Y750677D01*
X61256Y750611D01*
X61289Y750491D01*
X61355Y750425D01*
X61519Y750414D01*
X61912Y750436D01*
X62109Y750458D01*
X62394Y750502D01*
X62481Y750524D01*
X62777Y750556D01*
X63214Y750534D01*
X63280Y750512D01*
X63531Y750480D01*
X63663Y750458D01*
X63925Y750436D01*
X64472Y750414D01*
X64647Y750349D01*
X64680Y750316D01*
X64833Y750250D01*
X64997Y750217D01*
X65084Y750195D01*
X65205Y750119D01*
X65402Y750031D01*
X65730Y750009D01*
X65850Y749911D01*
X65883Y749878D01*
X65927Y749856D01*
X66036Y749812D01*
X66178Y749780D01*
X66452Y749638D01*
X66539Y749616D01*
X66736Y749506D01*
X66802Y749441D01*
X66845Y749419D01*
X66955Y749375D01*
X67152Y749353D01*
X67305Y749200D01*
X67458Y749112D01*
X67545Y749025D01*
X67808Y748959D01*
X67928Y748861D01*
X67950Y748817D01*
X68070Y748763D01*
X68212Y748708D01*
X68289Y748631D01*
X68333Y748609D01*
X68530Y748500D01*
X68639Y748391D01*
X68748Y748347D01*
X68891Y748292D01*
X69011Y748172D01*
X69055Y748150D01*
X69262Y748008D01*
X69295Y747975D01*
X69514Y747887D01*
X69569Y747855D01*
X69591Y747811D01*
X69667Y747734D01*
X69908Y747603D01*
X69973Y747538D01*
X70083Y747494D01*
X70094Y747483D01*
X70127Y747450D01*
X70170Y747428D01*
X70225Y747352D01*
X70258Y747319D01*
X70411Y747275D01*
X70564Y747188D01*
X70673Y747078D01*
X70717Y747056D01*
X70837Y746958D01*
X70892Y746903D01*
X71045Y746859D01*
X71188Y746783D01*
X71209Y746739D01*
X71264Y746684D01*
X71373Y746641D01*
X71483Y746575D01*
X71548Y746509D01*
X71658Y746466D01*
X71800Y746411D01*
X71866Y746345D01*
X71887Y746302D01*
X71986Y746247D01*
X72139Y746225D01*
X72270Y746203D01*
X72423Y746094D01*
X72577Y746028D01*
X72752Y745984D01*
X72817Y746006D01*
X72872Y746061D01*
X72894Y746280D01*
X72872Y746345D01*
X72850Y746805D01*
X72828Y746870D01*
X72784Y747177D01*
X72752Y747319D01*
X72730Y747450D01*
X72708Y747669D01*
X72686Y747800D01*
X72642Y747909D01*
X72587Y747986D01*
X72500Y748183D01*
X72478Y748533D01*
X72445Y748675D01*
X72391Y748752D01*
X72347Y748795D01*
X72172Y749123D01*
X72084Y749320D01*
X72063Y749517D01*
X71986Y749616D01*
X71942Y749638D01*
X71909Y749670D01*
X71844Y749824D01*
X71756Y749977D01*
X71691Y750042D01*
X71581Y750239D01*
X71472Y750349D01*
X71417Y750491D01*
X71351Y750600D01*
X71308Y750622D01*
X71188Y750742D01*
X71166Y750786D01*
X71056Y750895D01*
X70969Y751049D01*
X70848Y751125D01*
X70772Y751202D01*
X70750Y751245D01*
X70641Y751355D01*
X70619Y751398D01*
X70586Y751431D01*
X70542Y751453D01*
X70389Y751562D01*
X70323Y751672D01*
X70280Y751694D01*
X70072Y751836D01*
X69941Y751945D01*
X69820Y752066D01*
X69711Y752109D01*
X69569Y752164D01*
X69470Y752262D01*
X69427Y752284D01*
X69383Y752328D01*
X69339Y752350D01*
X69230Y752459D01*
X69120Y752503D01*
X69033Y752525D01*
X68902Y752547D01*
X68748Y752656D01*
X68705Y752700D01*
X68595Y752744D01*
X68322Y752842D01*
X68289Y752875D01*
X68180Y752919D01*
X68027Y752941D01*
X67939Y752962D01*
X67786Y753050D01*
X67742Y753094D01*
X67633Y753138D01*
X67458Y753181D01*
X67283Y753159D01*
X67228Y753105D01*
X67206Y753017D01*
X67228Y752777D01*
X67206Y752711D01*
X67184Y752624D01*
X67162Y752427D01*
X67009Y752142D01*
X66976Y752109D01*
X66933Y752087D01*
X66834Y751989D01*
X66813Y751945D01*
X66692Y751891D01*
X66408Y751869D01*
X65817Y751891D01*
X65752Y751913D01*
X65664Y751934D01*
X65620Y751978D01*
X65577Y752000D01*
X65555Y752044D01*
X65511Y752066D01*
X65314Y752219D01*
X65172Y752361D01*
X65128Y752536D01*
X65139Y753247D01*
X65095Y753356D01*
X64898Y753444D01*
X64723Y753487D01*
D02*
G37*
G36*
X67020Y744716D02*
X66944Y744639D01*
X66922Y744552D01*
X66976Y744541D01*
X67130Y744628D01*
X67162Y744661D01*
X67152Y744694D01*
X67141Y744705D01*
X67020Y744716D01*
D02*
G37*
G36*
X66802Y744453D02*
X66648Y744388D01*
X66605Y744366D01*
X66583D01*
X66484Y744267D01*
X66462Y744180D01*
X66670Y744169D01*
X66747Y744223D01*
X66791Y744333D01*
X66813Y744420D01*
X66802Y744453D01*
D02*
G37*
G36*
X38386Y764491D02*
X38080Y764469D01*
X37927Y764403D01*
X37708Y764337D01*
X37620Y764316D01*
X37478Y764283D01*
X37402Y764228D01*
X37314Y764141D01*
X37205Y764097D01*
X36986Y764075D01*
X36898Y764053D01*
X36767Y763922D01*
X36483Y763769D01*
X36439Y763725D01*
X36286Y763681D01*
X36177Y763637D01*
X36056Y763539D01*
X36002Y763484D01*
X35772Y763364D01*
X35761Y763331D01*
X35717Y763309D01*
X35673Y763266D01*
X35586Y763244D01*
X35433Y763091D01*
X35280Y763025D01*
X35170Y762959D01*
X35017Y762806D01*
X34973Y762784D01*
X34842Y762653D01*
X34689Y762566D01*
X34656Y762533D01*
X34634Y762489D01*
X34602Y762456D01*
X34558Y762434D01*
X34405Y762347D01*
X34077Y762019D01*
X34033Y761997D01*
X33891Y761898D01*
X33869Y761855D01*
X33727Y761712D01*
X33694Y761702D01*
X33672Y761658D01*
X33628Y761614D01*
X33606Y761570D01*
X33530Y761516D01*
X33453Y761439D01*
X33431Y761395D01*
X33377Y761341D01*
X33333Y761319D01*
X33256Y761242D01*
X33212Y761133D01*
X33147Y761023D01*
X33092Y760969D01*
X33048Y760947D01*
X32884Y760783D01*
X32863Y760739D01*
X32775Y760586D01*
X32720Y760531D01*
X32622Y760477D01*
X32578Y760367D01*
X32523Y760225D01*
X32403Y760105D01*
X32381Y760061D01*
X32283Y759941D01*
X32206Y759864D01*
X32130Y759656D01*
X32075Y759580D01*
X31988Y759492D01*
X31966Y759448D01*
X31878Y759295D01*
X31791Y759164D01*
X31725Y758989D01*
X31627Y758869D01*
X31550Y758792D01*
X31528Y758639D01*
X31506Y758508D01*
X31430Y758431D01*
X31386Y758409D01*
X31244Y758158D01*
X31178Y758092D01*
X31134Y757917D01*
X31112Y757742D01*
X31025Y757589D01*
X30959Y757523D01*
X30916Y757414D01*
X30817Y757141D01*
X30773Y757031D01*
X30719Y756845D01*
X30686Y756725D01*
X30577Y756550D01*
X30522Y756430D01*
X30500Y756342D01*
X30478Y756189D01*
X30456Y755883D01*
X30369Y755730D01*
X30303Y755577D01*
X30270Y755391D01*
X30248Y755281D01*
X30106Y755008D01*
X30084Y754789D01*
X30062Y754242D01*
X30019Y754133D01*
X29909Y753848D01*
X29887Y753761D01*
X29866Y753608D01*
X29844Y753389D01*
X29811Y753116D01*
X29789Y752984D01*
X29767Y752787D01*
X29745Y752678D01*
X29723Y752547D01*
X29691Y752252D01*
X29669Y751770D01*
X29647Y751420D01*
X29614Y750556D01*
X29603Y750195D01*
X29625Y750130D01*
X29647Y749298D01*
X29669Y749233D01*
X29691Y748708D01*
X29713Y748642D01*
X29745Y748434D01*
X29767Y748347D01*
X29800Y748227D01*
X29855Y747866D01*
X29876Y747756D01*
X29898Y747669D01*
X29931Y747636D01*
X29953Y747592D01*
X29997Y747549D01*
X30062Y747395D01*
X30084Y747111D01*
X30106Y746980D01*
X30161Y746903D01*
X30205Y746881D01*
X30238Y746849D01*
X30369Y746608D01*
X30456Y746520D01*
X30489Y746334D01*
X30544Y746258D01*
X30577Y746225D01*
X30587Y746214D01*
X30664Y746159D01*
X30763Y745974D01*
X30839Y745875D01*
X30883Y745853D01*
X30927Y745809D01*
X30970Y745788D01*
X31069Y745711D01*
X31091Y745667D01*
X31134Y745623D01*
X31156Y745580D01*
X31298Y745437D01*
X31484Y745339D01*
X31506Y745295D01*
X31627Y745175D01*
X31714Y745153D01*
X31780Y745088D01*
X31823Y745066D01*
X31911Y744978D01*
X31955Y744956D01*
X32086Y744825D01*
X32195Y744781D01*
X32338Y744727D01*
X32480Y744584D01*
X32677Y744475D01*
X32720Y744431D01*
X32873Y744366D01*
X33027Y744278D01*
X33136Y744169D01*
X33245Y744125D01*
X33377Y744147D01*
X33431Y744202D01*
X33409Y744355D01*
X33278Y744486D01*
X33245Y744628D01*
X33202Y744869D01*
X33147Y744945D01*
X33081Y745011D01*
X33059Y745055D01*
X32819Y745558D01*
X32764Y745700D01*
X32622Y745842D01*
X32578Y745995D01*
X32556Y746170D01*
X32502Y746225D01*
X32458Y746247D01*
X32425Y746280D01*
X32272Y746564D01*
X32228Y746608D01*
X32184Y746783D01*
X32152Y746969D01*
X32075Y747089D01*
X32009Y747155D01*
X31966Y747264D01*
X31867Y747538D01*
X31813Y747658D01*
X31769Y747811D01*
X31736Y747931D01*
X31627Y748106D01*
X31594Y748139D01*
X31550Y748292D01*
X31528Y748445D01*
X31506Y748752D01*
X31375Y748970D01*
X31331Y749145D01*
X31298Y749331D01*
X31255Y749441D01*
X31178Y749583D01*
X31134Y749758D01*
X31112Y750677D01*
X31091Y750742D01*
X31058Y750972D01*
X31036Y751059D01*
X31014Y751169D01*
X30981Y751464D01*
X30959Y751683D01*
X30981Y752602D01*
X31003Y752667D01*
X31036Y752853D01*
X31102Y753247D01*
X31123Y753553D01*
X31145Y754166D01*
X31167Y754362D01*
X31189Y754450D01*
X31309Y754724D01*
X31353Y754986D01*
X31419Y755161D01*
X31506Y755292D01*
X31528Y755445D01*
X31550Y755839D01*
X31637Y755992D01*
X31703Y756058D01*
X31747Y756211D01*
X31769Y756299D01*
X31813Y756452D01*
X31889Y756659D01*
X31944Y756802D01*
X31977Y756922D01*
X32009Y756999D01*
X32108Y757119D01*
X32141Y757152D01*
X32162Y757239D01*
X32184Y757392D01*
X32217Y757556D01*
X32338Y757720D01*
X32359Y757764D01*
X32447Y757917D01*
X32491Y757961D01*
X32513Y758005D01*
X32556Y758048D01*
X32578Y758136D01*
X32600Y758333D01*
X32655Y758409D01*
X32698Y758431D01*
X32797Y758530D01*
X32819Y758661D01*
X32884Y758770D01*
X32928Y758814D01*
X32950Y758858D01*
X33059Y759055D01*
X33169Y759164D01*
X33212Y759274D01*
X33245Y759394D01*
X33387Y759536D01*
X33409Y759580D01*
X33519Y759733D01*
X33584Y759799D01*
X33628Y759908D01*
X33650Y759995D01*
X33727Y760094D01*
X33770Y760116D01*
X33847Y760192D01*
X33869Y760236D01*
X33978Y760389D01*
X34077Y760509D01*
X34120Y760553D01*
X34164Y760575D01*
X34219Y760630D01*
X34306Y760848D01*
X34383Y760925D01*
X34427Y760947D01*
X34525Y761045D01*
X34547Y761089D01*
X34602Y761144D01*
X34634Y761155D01*
X34656Y761199D01*
X34700Y761242D01*
X34722Y761286D01*
X34798Y761363D01*
X34842Y761384D01*
X34897Y761439D01*
X34919Y761483D01*
X35017Y761581D01*
X35061Y761603D01*
X35138Y761680D01*
X35159Y761723D01*
X35236Y761778D01*
X35312Y761855D01*
X35334Y761898D01*
X35411Y761975D01*
X35455Y761997D01*
X35575Y762095D01*
X35870Y762391D01*
X35914Y762412D01*
X36089Y762588D01*
X36198Y762631D01*
X36242Y762653D01*
X36319Y762708D01*
X36341Y762752D01*
X36494Y762949D01*
X36527Y762981D01*
X36636Y763025D01*
X36745Y763091D01*
X36778Y763123D01*
X36800Y763167D01*
X36855Y763244D01*
X37008Y763331D01*
X37095Y763419D01*
X37139Y763441D01*
X37336Y763637D01*
X37478Y763692D01*
X37555Y763747D01*
X37664Y763856D01*
X37708Y763878D01*
X37828Y763977D01*
X37905Y764053D01*
X38014Y764097D01*
X38123Y764163D01*
X38211Y764250D01*
X38255Y764272D01*
X38441Y764370D01*
X38419Y764458D01*
X38386Y764491D01*
D02*
G37*
G36*
X66364Y744147D02*
X66298Y744125D01*
X66189Y744059D01*
X66102Y743950D01*
X65981Y743917D01*
X65905Y743863D01*
X65894Y743786D01*
X65927Y743753D01*
X66014Y743731D01*
X66123Y743753D01*
X66156Y743786D01*
X66189Y743863D01*
X66200Y743874D01*
X66211Y743906D01*
X66397Y744005D01*
X66419Y744092D01*
X66397Y744136D01*
X66364Y744147D01*
D02*
G37*
G36*
X18392Y750009D02*
X18316Y749955D01*
X18272Y749802D01*
X18239Y749659D01*
X18162Y749408D01*
X18141Y749320D01*
X18119Y749167D01*
X18097Y748949D01*
X18075Y748883D01*
X17998Y748675D01*
X17966Y748642D01*
X17900Y748423D01*
X17878Y748139D01*
X17856Y747942D01*
X17747Y747789D01*
X17703Y747680D01*
X17670Y747538D01*
X17627Y747428D01*
X17506Y747264D01*
X17484Y747177D01*
X17463Y746892D01*
X17364Y746772D01*
X17331Y746739D01*
X17309Y746695D01*
X17266Y746586D01*
X17244Y746498D01*
X17189Y746356D01*
X17134Y746280D01*
X17069Y746127D01*
X17047Y746039D01*
X16948Y745875D01*
X16905Y745853D01*
X16850Y745755D01*
X16828Y745667D01*
X16806Y745514D01*
X16708Y745394D01*
X16653Y745339D01*
X16566Y745186D01*
X16533Y745153D01*
X16489Y745131D01*
X16456Y745098D01*
X16434Y744945D01*
X16402Y744825D01*
X16358Y744781D01*
X16314Y744759D01*
X16216Y744661D01*
X16194Y744574D01*
X16128Y744464D01*
X16084Y744420D01*
X15964Y744169D01*
X15920Y744147D01*
X15800Y744048D01*
X15767Y743841D01*
X15680Y743731D01*
X15636Y743709D01*
X15603Y743677D01*
X15581Y743633D01*
X15472Y743480D01*
X15406Y743414D01*
X15362Y743261D01*
X15395Y743141D01*
X15439Y743097D01*
X15548Y743053D01*
X15702Y742966D01*
X15789Y742878D01*
X15833Y742856D01*
X15942Y742747D01*
X15986Y742725D01*
X16095Y742681D01*
X16237Y742627D01*
X16270Y742594D01*
X16314Y742572D01*
X16445Y742441D01*
X16598Y742353D01*
X16795Y742244D01*
X16894Y742145D01*
X16916Y742102D01*
X17058Y742047D01*
X17178Y742014D01*
X17298Y741937D01*
X17386Y741850D01*
X17430Y741828D01*
X17528Y741752D01*
X17550Y741708D01*
X17670Y741653D01*
X17758Y741631D01*
X17878Y741599D01*
X17911Y741566D01*
X17955Y741544D01*
X18009Y741489D01*
X18020Y741478D01*
X18392Y741303D01*
X18480Y741325D01*
X18687Y741467D01*
X18731Y741511D01*
X18753Y741555D01*
X18830Y741631D01*
X18873Y741653D01*
X18928Y741708D01*
X18983Y741850D01*
X19037Y741927D01*
X19169Y742058D01*
X19191Y742102D01*
X19234Y742145D01*
X19256Y742189D01*
X19300Y742233D01*
X19409Y742430D01*
X19464Y742484D01*
X19508Y742506D01*
X19562Y742627D01*
X19606Y742802D01*
X19705Y742922D01*
X19737Y742955D01*
X19825Y743108D01*
X19934Y743217D01*
X19978Y743370D01*
X20000Y743523D01*
X20077Y743666D01*
X20120Y743688D01*
X20175Y743742D01*
X20219Y743852D01*
X20252Y743994D01*
X20328Y744114D01*
X20394Y744267D01*
X20427Y744388D01*
X20459Y744464D01*
X20492Y744519D01*
X20536Y744541D01*
X20569Y744574D01*
X20612Y744683D01*
X20634Y744902D01*
X20656Y745098D01*
X20700Y745142D01*
X20722Y745186D01*
X20787Y745252D01*
X20831Y745405D01*
X20853Y745492D01*
X20908Y745634D01*
X21006Y745798D01*
X21028Y745952D01*
X21050Y746433D01*
X21072Y746498D01*
X21127Y746641D01*
X21181Y746761D01*
X21225Y746914D01*
X21247Y747133D01*
X21269Y747483D01*
X21247Y748074D01*
X21192Y748128D01*
X21083Y748194D01*
X21028Y748249D01*
X21017Y748281D01*
X20973Y748303D01*
X20864Y748347D01*
X20744Y748380D01*
X20711Y748412D01*
X20678Y748423D01*
X20656Y748467D01*
X20558Y748566D01*
X20405Y748653D01*
X20273Y748741D01*
X20120Y748828D01*
X20033Y748916D01*
X19989Y748938D01*
X19880Y748981D01*
X19727Y749069D01*
X19683Y749112D01*
X19639Y749134D01*
X19442Y749331D01*
X19289Y749375D01*
X19147Y749452D01*
X19125Y749495D01*
X19070Y749550D01*
X19027Y749572D01*
X18819Y749714D01*
X18698Y749769D01*
X18589Y749834D01*
X18556Y749867D01*
X18491Y749977D01*
X18392Y750009D01*
D02*
G37*
G36*
X60403Y745974D02*
X60326Y745919D01*
X60272Y745777D01*
X60250Y745689D01*
X60195Y745547D01*
X60173Y745459D01*
X60141Y745339D01*
X60086Y745088D01*
X60064Y745000D01*
X59977Y744869D01*
X59922Y744770D01*
X59900Y744683D01*
X59878Y744464D01*
X59856Y744202D01*
X59747Y744027D01*
X59703Y743917D01*
X59681Y743830D01*
X59583Y743709D01*
X59506Y743633D01*
X59484Y743545D01*
X59462Y743348D01*
X59364Y743228D01*
X59331Y743195D01*
X59309Y743152D01*
X59244Y742999D01*
X59200Y742823D01*
X59113Y742627D01*
X59069Y742452D01*
X59047Y742036D01*
X59069Y741686D01*
X59178Y741533D01*
X59331Y741336D01*
X59462Y741205D01*
X59550Y741052D01*
X59670Y740997D01*
X59823Y740909D01*
X59878Y740855D01*
X59900Y740811D01*
X59944Y740767D01*
X59966Y740723D01*
X60042Y740669D01*
X60108Y740603D01*
X60250Y740548D01*
X60283Y740516D01*
X60326Y740494D01*
X60381Y740417D01*
X60622Y740264D01*
X60655Y740231D01*
X60928Y740133D01*
X61158Y739969D01*
X61366Y739892D01*
X61486Y739772D01*
X61530Y739750D01*
X61705Y739641D01*
X61748Y739619D01*
X61902Y739553D01*
X61989Y739531D01*
X62339Y739509D01*
X62492Y739422D01*
X62623Y739334D01*
X62930Y739291D01*
X63116Y739258D01*
X63225Y739236D01*
X63313Y739214D01*
X63444Y739192D01*
X63663Y739148D01*
X63859Y739127D01*
X64505Y739094D01*
X64592Y739072D01*
X65270Y739050D01*
X66145Y739072D01*
X66211Y739094D01*
X66791Y739127D01*
X67184Y739192D01*
X67370Y739247D01*
X67458Y739269D01*
X67611Y739291D01*
X67797Y739324D01*
X67873Y739378D01*
X67961Y739466D01*
X68114Y739509D01*
X68333Y739531D01*
X68486Y739619D01*
X68530Y739662D01*
X68573Y739684D01*
X68727Y739772D01*
X68847Y739870D01*
X68880Y739903D01*
X68967Y739925D01*
X69076Y739991D01*
X69153Y740067D01*
X69175Y740111D01*
X69252Y740166D01*
X69350Y740264D01*
X69372Y740308D01*
X69470Y740428D01*
X69481Y740483D01*
X69383Y740603D01*
X69328Y740723D01*
X69295Y740844D01*
X69241Y740920D01*
X69098Y740975D01*
X69011Y740997D01*
X68913Y741073D01*
X68891Y741117D01*
X68836Y741172D01*
X68748Y741194D01*
X68442Y741237D01*
X68355Y741259D01*
X67917Y741303D01*
X67294Y741270D01*
X67075Y741248D01*
X66200Y741183D01*
X65981Y741139D01*
X65806Y741095D01*
X65620Y741041D01*
X65467Y741019D01*
X65380Y740997D01*
X64373Y740975D01*
X63859Y741008D01*
X63750Y741052D01*
X63673Y741106D01*
X63564Y741172D01*
X63389Y741216D01*
X63192Y741325D01*
X63072Y741423D01*
X62962Y741577D01*
X62809Y741730D01*
X62787Y741773D01*
X62722Y741927D01*
X62744Y741970D01*
X62777Y742003D01*
X62930Y742025D01*
X63498D01*
X67523Y742047D01*
X67589Y742069D01*
X67775Y742102D01*
X67950Y742145D01*
X68234Y742189D01*
X68366Y742211D01*
X69098Y742222D01*
X69164Y742200D01*
X69317Y742113D01*
X69470Y742047D01*
X69558Y742025D01*
X69700Y741948D01*
X69831Y741708D01*
X69963Y741577D01*
X70017Y741434D01*
X70072Y741358D01*
X70127Y741303D01*
X70170Y741281D01*
X70214Y741237D01*
X70389Y741194D01*
X70564Y741216D01*
X70662Y741314D01*
X70750Y741533D01*
X70794Y741795D01*
X70816Y742605D01*
X70794Y743020D01*
X70761Y743403D01*
X70739Y743578D01*
X70717Y743688D01*
X70684Y743808D01*
X70641Y744114D01*
X70619Y744202D01*
X70586Y744409D01*
X70564Y744497D01*
X70455Y744672D01*
X70345Y744825D01*
X70258Y744847D01*
X70105Y744825D01*
X70039Y744803D01*
X69886Y744781D01*
X69558Y744759D01*
X69448Y744694D01*
X69339Y744584D01*
X69186Y744519D01*
X68989Y744409D01*
X68923Y744344D01*
X68880Y744322D01*
X68748Y744191D01*
X68705Y744169D01*
X68552Y744081D01*
X68519Y744048D01*
X68497Y744005D01*
X68442Y743950D01*
X68398Y743928D01*
X68256Y743786D01*
X68245Y743753D01*
X68202Y743731D01*
X68038Y743633D01*
X68016Y743589D01*
X67983Y743556D01*
X67939Y743534D01*
X67895Y743491D01*
X67852Y743469D01*
X67742Y743359D01*
X67502Y743228D01*
X67392Y743119D01*
X67239Y743075D01*
X66998Y743053D01*
X66845Y742966D01*
X66692Y742900D01*
X66605Y742878D01*
X66331Y742845D01*
X66112Y742802D01*
X65981Y742780D01*
X65773Y742769D01*
X65708Y742791D01*
X65402Y742769D01*
X65336Y742791D01*
X65227Y742812D01*
X65150Y742889D01*
X65172Y743064D01*
X65227Y743119D01*
X65270Y743141D01*
X65391Y743261D01*
X65413Y743305D01*
X65555Y743447D01*
X65664Y743491D01*
X65708Y743512D01*
X65784Y743589D01*
X65763Y743720D01*
X65555Y743731D01*
X65402Y743644D01*
X65314Y743556D01*
X65161Y743512D01*
X65073Y743491D01*
X64855Y743469D01*
X64570Y743447D01*
X64111Y743469D01*
X64045Y743491D01*
X63816Y743523D01*
X63695Y743600D01*
X63652Y743666D01*
X63608Y743688D01*
X63542Y743709D01*
X63313Y743742D01*
X63236Y743797D01*
X63170Y743863D01*
X63127Y743884D01*
X62908Y744103D01*
X62711Y744147D01*
X62634Y744223D01*
X62569Y744333D01*
X62438Y744420D01*
X62383Y744475D01*
X62339Y744497D01*
X62175Y744661D01*
X62153Y744705D01*
X62120Y744737D01*
X61967Y744825D01*
X61792Y745000D01*
X61748Y745022D01*
X61617Y745153D01*
X61573Y745175D01*
X61420Y745284D01*
X61267Y745437D01*
X61223Y745459D01*
X61158Y745525D01*
X61114Y745547D01*
X60961Y745656D01*
X60928Y745689D01*
X60906Y745733D01*
X60852Y745788D01*
X60764Y745809D01*
X60611Y745831D01*
X60480Y745963D01*
X60403Y745974D01*
D02*
G37*
G36*
X44292Y764141D02*
X43778Y764108D01*
X43472Y764086D01*
X42717Y764053D01*
X42586Y763966D01*
X42477Y763922D01*
X42389Y763900D01*
X42203Y763867D01*
X42116Y763845D01*
X41995Y763769D01*
X41842Y763703D01*
X41755Y763681D01*
X41634Y763649D01*
X41383Y763528D01*
X41230Y763484D01*
X41055Y763441D01*
X40912Y763386D01*
X40792Y763331D01*
X40584Y763255D01*
X40508Y763200D01*
X40388Y763102D01*
X40355Y763069D01*
X40081Y762970D01*
X39884Y762774D01*
X39862Y762730D01*
X39830Y762697D01*
X39720Y762653D01*
X39567Y762566D01*
X39534Y762533D01*
X39513Y762489D01*
X39414Y762391D01*
X39305Y762325D01*
X39239Y762259D01*
X39195Y762237D01*
X39075Y762117D01*
X39053Y762074D01*
X38998Y762019D01*
X38955Y761997D01*
X38834Y761898D01*
X38419Y761483D01*
X38397Y761439D01*
X38342Y761384D01*
X38298Y761363D01*
X38112Y761177D01*
X38091Y761133D01*
X37992Y760991D01*
X37948Y760969D01*
X37828Y760848D01*
X37806Y760805D01*
X37675Y760674D01*
X37653Y760630D01*
X37533Y760509D01*
X37489Y760488D01*
X37456Y760455D01*
X37347Y760258D01*
X37281Y760192D01*
X37259Y760148D01*
X37216Y760105D01*
X37150Y759995D01*
X37062Y759908D01*
X37041Y759864D01*
X36920Y759678D01*
X36877Y759656D01*
X36822Y759602D01*
X36778Y759448D01*
X36691Y759295D01*
X36603Y759208D01*
X36516Y759055D01*
X36450Y758989D01*
X36428Y758945D01*
X36384Y758836D01*
X36352Y758672D01*
X36297Y758595D01*
X36231Y758530D01*
X36209Y758486D01*
X35991Y758027D01*
X35969Y757939D01*
X35914Y757797D01*
X35794Y757677D01*
X35750Y757567D01*
X35706Y757195D01*
X35597Y757020D01*
X35553Y756911D01*
X35531Y756824D01*
X35422Y756627D01*
X35356Y756473D01*
X35334Y756255D01*
X35312Y755905D01*
X35138Y755533D01*
X35116Y755445D01*
X35083Y755150D01*
X35039Y754887D01*
X35017Y754778D01*
X34995Y754691D01*
X34973Y754581D01*
X34930Y754187D01*
X34908Y753816D01*
X34886Y753575D01*
X34864Y753378D01*
X34798Y752941D01*
X34777Y752722D01*
X34755Y752372D01*
X34744Y751836D01*
X34766Y751770D01*
X34787Y751289D01*
X34809Y751224D01*
X34842Y750906D01*
X34864Y750775D01*
X34886Y750666D01*
X34930Y750403D01*
X34952Y750119D01*
X34962Y749605D01*
X34941Y749539D01*
X34962Y749473D01*
X35028Y749364D01*
X35050Y749298D01*
X35072Y748839D01*
X35094Y748773D01*
X35116Y748555D01*
X35291Y748183D01*
X35312Y748095D01*
X35334Y747877D01*
X35356Y747483D01*
X35466Y747330D01*
X35509Y747220D01*
X35564Y746969D01*
X35597Y746892D01*
X35706Y746739D01*
X35728Y746586D01*
X35750Y746280D01*
X35859Y746127D01*
X35925Y746017D01*
X35969Y745842D01*
X36122Y745514D01*
X36144Y745427D01*
X36198Y745284D01*
X36242Y745219D01*
X36286Y745197D01*
X36363Y745120D01*
X36384Y744902D01*
X36450Y744792D01*
X36559Y744683D01*
X36647Y744530D01*
X36734Y744442D01*
X36778Y744289D01*
X36800Y744202D01*
X36877Y744125D01*
X36920Y744103D01*
X36997Y744027D01*
X37019Y743939D01*
X37128Y743786D01*
X37172Y743742D01*
X37194Y743699D01*
X37303Y743545D01*
X37369Y743502D01*
X37391Y743458D01*
X37533Y743250D01*
X37708Y743075D01*
X37752Y743053D01*
X37828Y742977D01*
X37883Y742834D01*
X37938Y742758D01*
X37992Y742703D01*
X38036Y742681D01*
X38156Y742583D01*
X38266Y742473D01*
X38277Y742441D01*
X38320Y742419D01*
X38441Y742299D01*
X38463Y742255D01*
X38561Y742113D01*
X38605Y742091D01*
X38714Y742047D01*
X38823Y741981D01*
X38900Y741905D01*
X38922Y741861D01*
X38955Y741828D01*
X38998Y741806D01*
X39042Y741762D01*
X39086Y741741D01*
X39141Y741664D01*
X39283Y741609D01*
X39458Y741588D01*
X39589Y741456D01*
X39633Y741434D01*
X39753Y741336D01*
X39830Y741259D01*
X39873Y741237D01*
X39994Y741139D01*
X40070Y741084D01*
X40114Y741041D01*
X40223Y740997D01*
X40377Y740975D01*
X40508Y740953D01*
X40628Y740855D01*
X40825Y740767D01*
X40836Y740756D01*
X40923Y740734D01*
X40967Y740691D01*
X41011Y740669D01*
X41076Y740603D01*
X41230Y740581D01*
X41558Y740559D01*
X41766Y740417D01*
X41864Y740384D01*
X41952Y740362D01*
X42159Y740330D01*
X42291Y740308D01*
X42509Y740264D01*
X42684Y740220D01*
X42816Y740199D01*
X43078Y740177D01*
X43450Y740155D01*
X45080Y740144D01*
X45145Y740166D01*
X45758Y740188D01*
X45823Y740209D01*
X46184Y740264D01*
X46272Y740286D01*
X46381Y740308D01*
X46556Y740330D01*
X46753Y740352D01*
X46994Y740395D01*
X47103Y740439D01*
X47267Y740537D01*
X47573Y740581D01*
X47902Y740603D01*
X48055Y740691D01*
X48208Y740756D01*
X48328Y740789D01*
X48438Y740833D01*
X48470Y740866D01*
X48514Y740888D01*
X48558Y740931D01*
X48733Y740975D01*
X48995Y740997D01*
X49148Y741106D01*
X49280Y741194D01*
X49411Y741216D01*
X49586Y741325D01*
X49695Y741369D01*
X49903Y741445D01*
X50045Y741588D01*
X50155Y741631D01*
X50308Y741653D01*
X50406Y741730D01*
X50428Y741773D01*
X50461Y741806D01*
X50505Y741828D01*
X50625Y741927D01*
X50701Y742003D01*
X50909Y742080D01*
X50986Y742134D01*
X51205Y742353D01*
X51248Y742375D01*
X51456Y742517D01*
X51478Y742561D01*
X51555Y742659D01*
X51752Y742769D01*
X51850Y742867D01*
X51872Y742911D01*
X51916Y742955D01*
X51937Y742999D01*
X51992Y743053D01*
X52036Y743075D01*
X52134Y743152D01*
X52156Y743195D01*
X52277Y743316D01*
X52320Y743337D01*
X52506Y743523D01*
X52594Y743677D01*
X52648Y743731D01*
X52758Y743797D01*
X52791Y743830D01*
X52812Y743874D01*
X52955Y744081D01*
X52998Y744103D01*
X53042Y744147D01*
X53086Y744169D01*
X53162Y744245D01*
X53195Y744388D01*
X53272Y744508D01*
X53348Y744563D01*
X53436Y744694D01*
X53556Y744814D01*
X53600Y744923D01*
X53709Y745120D01*
X53753Y745142D01*
X53775Y745186D01*
X53819Y745230D01*
X53841Y745274D01*
X53950Y745427D01*
X53994Y745536D01*
X54081Y745689D01*
X54114Y745744D01*
X54158Y745766D01*
X54212Y745864D01*
X54234Y745952D01*
X54267Y746094D01*
X54377Y746225D01*
X54409Y746258D01*
X54519Y746455D01*
X54606Y746542D01*
X54650Y746849D01*
X54847Y747133D01*
X54869Y747264D01*
X55000Y747549D01*
X55066Y747811D01*
X55153Y747964D01*
X55241Y748052D01*
X55262Y748205D01*
X55284Y748292D01*
X55306Y748642D01*
X55437Y748861D01*
X55481Y749014D01*
X55503Y749102D01*
X55536Y749222D01*
X55580Y749331D01*
X55656Y749517D01*
X55678Y749670D01*
X55700Y750261D01*
X55722Y750327D01*
X55755Y750447D01*
X55809Y750567D01*
X55853Y750720D01*
X55897Y750983D01*
X55963Y752230D01*
X55941Y753761D01*
X55919Y753827D01*
X55897Y754439D01*
X55875Y754505D01*
X55853Y754636D01*
X55766Y754833D01*
X55722Y754986D01*
X55700Y755139D01*
X55678Y755424D01*
X55656Y755752D01*
X55613Y755861D01*
X55525Y756058D01*
X55481Y756233D01*
X55427Y756375D01*
X55394Y756408D01*
X55372Y756452D01*
X55306Y756605D01*
X55284Y756824D01*
X55252Y757031D01*
X55175Y757152D01*
X55109Y757217D01*
X55066Y757327D01*
X54945Y757666D01*
X54847Y757895D01*
X54825Y757939D01*
X54748Y758037D01*
X54705Y758059D01*
X54650Y758180D01*
X54617Y758344D01*
X54541Y758464D01*
X54475Y758530D01*
X54344Y758770D01*
X54278Y758836D01*
X54234Y758945D01*
X54125Y759142D01*
X54037Y759230D01*
X53950Y759383D01*
X53841Y759492D01*
X53753Y759645D01*
X53720Y759678D01*
X53677Y759700D01*
X53622Y759755D01*
X53534Y759908D01*
X53447Y759995D01*
X53425Y760039D01*
X53327Y760137D01*
X53283Y760159D01*
X53228Y760214D01*
X53097Y760455D01*
X53064Y760488D01*
X52911Y760575D01*
X52747Y760739D01*
X52725Y760783D01*
X52583Y760925D01*
X52539Y760947D01*
X52495Y760991D01*
X52452Y761012D01*
X52342Y761122D01*
X52298Y761144D01*
X52178Y761242D01*
X52080Y761341D01*
X52036Y761363D01*
X51916Y761461D01*
X51894Y761505D01*
X51861Y761537D01*
X51620Y761669D01*
X51456Y761833D01*
X51434Y761877D01*
X51380Y761931D01*
X51205Y761975D01*
X51095Y762041D01*
X50986Y762172D01*
X50745Y762303D01*
X50636Y762369D01*
X50494Y762423D01*
X50450Y762467D01*
X50428Y762511D01*
X50330Y762609D01*
X50111Y762631D01*
X49991Y762730D01*
X49914Y762806D01*
X49772Y762861D01*
X49739Y762894D01*
X49695Y762916D01*
X49652Y762959D01*
X49542Y763003D01*
X49455Y763025D01*
X49291Y763058D01*
X49214Y763091D01*
X49148Y763156D01*
X49105Y763178D01*
X48864Y763288D01*
X48777Y763309D01*
X48536Y763419D01*
X48394Y763452D01*
X48219Y763517D01*
X48186Y763550D01*
X48142Y763572D01*
X48098Y763616D01*
X47836Y763681D01*
X47486Y763703D01*
X47202Y763834D01*
X47114Y763856D01*
X46961Y763878D01*
X46873Y763900D01*
X46731Y763955D01*
X46611Y764009D01*
X46523Y764031D01*
X46370Y764053D01*
X46086Y764075D01*
X45102Y764097D01*
X45036Y764119D01*
X44292Y764141D01*
D02*
G37*
G36*
X17517Y733625D02*
X15352Y733603D01*
X15242Y733559D01*
X15100Y733505D01*
X14848Y733428D01*
X14706Y733373D01*
X14652Y733319D01*
X14608Y733297D01*
X14498Y733253D01*
X14411Y733231D01*
X14170Y733209D01*
X14127Y733166D01*
X14083Y733144D01*
X13973Y733034D01*
X13831Y732980D01*
X13711Y732903D01*
X13645Y732838D01*
X13448Y732728D01*
X13361Y732641D01*
X13120Y732509D01*
X13088Y732477D01*
X13066Y732433D01*
X12858Y732225D01*
X12814Y732203D01*
X12661Y732094D01*
X12628Y732061D01*
X12563Y731952D01*
X12377Y731766D01*
X12333Y731744D01*
X12256Y731667D01*
X12191Y731558D01*
X12038Y731405D01*
X11983Y731263D01*
X11928Y731186D01*
X11841Y731098D01*
X11797Y730989D01*
X11775Y730945D01*
X11698Y730847D01*
X11655Y730825D01*
X11600Y730705D01*
X11578Y730486D01*
X11611Y730366D01*
X11677Y730300D01*
X12497Y730267D01*
X12869Y730245D01*
X13219Y730223D01*
X13842Y730147D01*
X13897Y730114D01*
X13941Y730005D01*
X13886Y729863D01*
X13820Y729797D01*
X13777Y729775D01*
X13645Y729688D01*
X13470Y729644D01*
X13306Y729611D01*
X13055Y729534D01*
X12967Y729512D01*
X12716Y729458D01*
X12639Y729403D01*
X12606Y729370D01*
X12628Y729305D01*
X12661Y729272D01*
X12880Y729250D01*
X13514Y729272D01*
X13580Y729294D01*
X13755Y729316D01*
X13908Y729381D01*
X13995Y729403D01*
X14148Y729425D01*
X14608Y729447D01*
X14717Y729512D01*
X14783Y729578D01*
X14827Y729600D01*
X14936Y729644D01*
X15187Y729698D01*
X15461Y729841D01*
X15603Y729874D01*
X15723Y729950D01*
X15811Y730038D01*
X15964Y730081D01*
X16139Y730103D01*
X16270Y730234D01*
X16423Y730322D01*
X16533Y730431D01*
X16708Y730475D01*
X16828Y730508D01*
X16905Y730563D01*
X16970Y730628D01*
X17014Y730650D01*
X17342Y730825D01*
X17627Y730978D01*
X17714Y731066D01*
X17823Y731109D01*
X17977Y731131D01*
X18162Y731164D01*
X18338Y731273D01*
X18436Y731306D01*
X18873Y731416D01*
X19027Y731459D01*
X19114Y731481D01*
X19267Y731503D01*
X19519Y731470D01*
X19759Y731427D01*
X20077Y731328D01*
X20186Y731284D01*
X20339Y731175D01*
X20514Y731131D01*
X20623Y731087D01*
X20733Y730978D01*
X20777Y730956D01*
X20984Y730814D01*
X21028Y730770D01*
X21050Y730727D01*
X21148Y730606D01*
X21291Y730464D01*
X21312Y730420D01*
X21400Y730333D01*
X21422Y730245D01*
X21509Y730092D01*
X21586Y730016D01*
X21619Y730005D01*
X21662Y729895D01*
X21684Y729677D01*
X21717Y729512D01*
X21750Y729436D01*
X21837Y729305D01*
X21870Y729119D01*
X21892Y728988D01*
X21914Y728812D01*
X21936Y728506D01*
X21947Y728080D01*
X21925Y728014D01*
X21892Y727412D01*
X21870Y727106D01*
X21848Y726844D01*
X21805Y726581D01*
X21783Y726363D01*
X21750Y726242D01*
X21728Y726155D01*
X21706Y725870D01*
X21684Y725389D01*
X21706Y723880D01*
X21859Y723552D01*
X21881Y723464D01*
X21936Y723322D01*
X22056Y723158D01*
X22111Y723016D01*
X22166Y722939D01*
X22297Y722852D01*
X22319Y722808D01*
X22373Y722753D01*
X22461Y722731D01*
X22614Y722709D01*
X22702Y722688D01*
X22855Y722578D01*
X23008Y722534D01*
X23226Y722513D01*
X23752Y722534D01*
X23861Y722578D01*
X24014Y722644D01*
X24233Y722709D01*
X24517Y722731D01*
X24758Y722753D01*
X24933Y722862D01*
X25042Y722906D01*
X25184Y722939D01*
X25294Y722983D01*
X25348Y723037D01*
X25392Y723059D01*
X25545Y723125D01*
X25895Y723147D01*
X26092Y723256D01*
X26289Y723344D01*
X26377Y723366D01*
X26628Y723420D01*
X26814Y723475D01*
X26967Y723519D01*
X27186Y723541D01*
X27536Y723562D01*
X28083Y723541D01*
X28138Y723486D01*
X28116Y723377D01*
X28083Y723322D01*
X28039Y723300D01*
X28006Y723267D01*
X27984Y723223D01*
X27886Y723125D01*
X27842Y723103D01*
X27667Y722928D01*
X27623Y722906D01*
X27470Y722753D01*
X27350Y722720D01*
X27208Y722666D01*
X27077Y722534D01*
X26836Y722403D01*
X26595Y722294D01*
X26486Y722228D01*
X26398Y722141D01*
X26289Y722097D01*
X26202Y722075D01*
X26070Y722053D01*
X25961Y721988D01*
X25873Y721900D01*
X25677Y721791D01*
X25589Y721703D01*
X25501Y721681D01*
X25305Y721659D01*
X25184Y721539D01*
X25173Y721506D01*
X25130Y721484D01*
X25020Y721441D01*
X24933Y721419D01*
X24823Y721309D01*
X24780Y721288D01*
X24627Y721178D01*
X24517Y721069D01*
X24375Y721014D01*
X24288Y720948D01*
X24309Y720839D01*
X24342Y720806D01*
X24714Y720828D01*
X24780Y720850D01*
X24922Y720883D01*
X25009Y720905D01*
X25152Y720959D01*
X25305Y721003D01*
X25458Y721025D01*
X25873Y721047D01*
X26070Y721156D01*
X26267Y721244D01*
X26519Y721299D01*
X26759Y721386D01*
X26945Y721441D01*
X27033Y721462D01*
X27175Y721517D01*
X27252Y721594D01*
X27295Y721616D01*
X27405Y721659D01*
X27558Y721681D01*
X27755Y721703D01*
X27973Y721856D01*
X28116Y721911D01*
X28291Y722020D01*
X28389Y722053D01*
X28477Y722075D01*
X28684Y722108D01*
X28805Y722184D01*
X28827Y722228D01*
X28870Y722250D01*
X29023Y722316D01*
X29133Y722359D01*
X29275Y722414D01*
X29395Y722469D01*
X29570Y722534D01*
X29691Y722633D01*
X29745Y722688D01*
X29833Y722709D01*
X29986Y722731D01*
X30183Y722841D01*
X30227Y722884D01*
X30369Y722939D01*
X30445Y722972D01*
X30577Y723103D01*
X30664Y723125D01*
X30861Y723147D01*
X30905Y723191D01*
X30948Y723213D01*
X31036Y723300D01*
X31080Y723322D01*
X31277Y723409D01*
X31736Y723650D01*
X31780Y723716D01*
X31823Y723737D01*
X31889Y723759D01*
X32042Y723781D01*
X32152Y723847D01*
X32261Y723956D01*
X32403Y724011D01*
X32480Y724066D01*
X32523Y724109D01*
X32567Y724131D01*
X32677Y724175D01*
X32819Y724208D01*
X32939Y724284D01*
X33027Y724372D01*
X33136Y724416D01*
X33245Y724481D01*
X33377Y724569D01*
X33519Y724602D01*
X33595Y724656D01*
X33672Y724733D01*
X33694Y724777D01*
X33792Y724809D01*
X33945Y724831D01*
X34033Y724853D01*
X34098Y724919D01*
X34142Y724941D01*
X34208Y725006D01*
X34361Y725094D01*
X34427Y725159D01*
X34536Y725203D01*
X34623Y725225D01*
X34766Y725258D01*
X34886Y725334D01*
X34930Y725400D01*
X34973Y725422D01*
X35083Y725466D01*
X35225Y725520D01*
X35302Y725597D01*
X35411Y725641D01*
X35553Y725695D01*
X35630Y725750D01*
X35673Y725794D01*
X35717Y725816D01*
X35870Y725881D01*
X36045Y725903D01*
X36177Y726034D01*
X36373Y726144D01*
X36461Y726231D01*
X36614Y726275D01*
X36789Y726297D01*
X36833Y726341D01*
X36877Y726363D01*
X36942Y726428D01*
X36986Y726450D01*
X37139Y726516D01*
X37281Y726570D01*
X37314Y726603D01*
X37358Y726625D01*
X37555Y726712D01*
X37642Y726734D01*
X37708Y726800D01*
X37752Y726822D01*
X37817Y726888D01*
X37970Y726931D01*
X38145Y726953D01*
X38266Y727052D01*
X38298Y727084D01*
X38539Y727216D01*
X38605Y727281D01*
X38780Y727325D01*
X38988Y727358D01*
X39064Y727412D01*
X39152Y727500D01*
X39261Y727544D01*
X39348Y727566D01*
X39720Y727741D01*
X39852Y727763D01*
X39972Y727861D01*
X39994Y727905D01*
X40114Y727959D01*
X40333Y727981D01*
X40453Y728014D01*
X40486Y728047D01*
X40530Y728069D01*
X40617Y728156D01*
X40738Y728189D01*
X40847Y728233D01*
X40880Y728266D01*
X40923Y728288D01*
X41033Y728353D01*
X41120Y728375D01*
X41361Y728397D01*
X41645Y728594D01*
X41733Y728616D01*
X41875Y728649D01*
X41984Y728692D01*
X42017Y728725D01*
X42127Y728769D01*
X42302Y728812D01*
X42444Y728867D01*
X42542Y728966D01*
X42652Y729009D01*
X42805Y729031D01*
X43045Y729053D01*
X43155Y729163D01*
X43264Y729206D01*
X43352Y729228D01*
X43527Y729294D01*
X43658Y729381D01*
X43811Y729425D01*
X44117Y729447D01*
X44325Y729589D01*
X44467Y729644D01*
X44653Y729677D01*
X44741Y729698D01*
X44861Y729753D01*
X45014Y729797D01*
X45102Y729819D01*
X45244Y729852D01*
X45353Y729874D01*
X45462Y729917D01*
X45539Y729972D01*
X45736Y730059D01*
X46020Y730081D01*
X46261Y730103D01*
X46458Y730191D01*
X46567Y730234D01*
X46709Y730267D01*
X46819Y730289D01*
X46906Y730311D01*
X47027Y730366D01*
X47136Y730409D01*
X47311Y730453D01*
X47530Y730475D01*
X48055Y730497D01*
X48120Y730519D01*
X48241Y730552D01*
X48350Y730595D01*
X48492Y730650D01*
X48580Y730672D01*
X48798Y730694D01*
X49083Y730716D01*
X49433Y730738D01*
X49520Y730759D01*
X49969Y730792D01*
X50319Y730814D01*
X50734Y730836D01*
X52495Y730847D01*
X52561Y730825D01*
X53523Y730803D01*
X53589Y730781D01*
X54300Y730748D01*
X54847Y730727D01*
X55591Y730705D01*
X56181Y730683D01*
X56772Y730639D01*
X57253Y730595D01*
X57450Y730574D01*
X57822Y730552D01*
X58544Y730530D01*
X58795Y730519D01*
X58861Y730541D01*
X59823Y730563D01*
X59889Y730584D01*
X60173Y730606D01*
X60261Y730628D01*
X60512Y730661D01*
X60753Y730705D01*
X60830Y730759D01*
X60862Y730792D01*
X60841Y730923D01*
X60709Y731208D01*
X60644Y731317D01*
X60600Y731361D01*
X60578Y731405D01*
X60436Y731612D01*
X60283Y731766D01*
X60239Y731787D01*
X60152Y731875D01*
X60108Y731897D01*
X59911Y732006D01*
X59823Y732138D01*
X59736Y732159D01*
X59583Y732181D01*
X59473Y732203D01*
X59255Y732356D01*
X59091Y732389D01*
X58981Y732433D01*
X58850Y732520D01*
X58708Y732575D01*
X58073Y732597D01*
X58008Y732619D01*
X57920Y732641D01*
X57702Y732728D01*
X57472Y732761D01*
X57297Y732783D01*
X56794Y732805D01*
X55208Y732816D01*
X55142Y732794D01*
X54442Y732772D01*
X54377Y732750D01*
X54191Y732717D01*
X54070Y732684D01*
X53917Y732641D01*
X53644Y732608D01*
X53403Y732586D01*
X52659Y732564D01*
X52441Y732542D01*
X52331Y732520D01*
X52222Y732477D01*
X51970Y732400D01*
X51752Y732378D01*
X51522Y732324D01*
X51511Y732312D01*
X51489D01*
X51292Y732225D01*
X51139Y732203D01*
X50920Y732181D01*
X50483Y732159D01*
X50286Y732050D01*
X50133Y731984D01*
X49991Y731952D01*
X49859Y731930D01*
X49641Y731886D01*
X49531Y731842D01*
X49280Y731766D01*
X49072Y731733D01*
X48962Y731689D01*
X48886Y731612D01*
X48842Y731591D01*
X48733Y731547D01*
X48448Y731525D01*
X48284Y731492D01*
X48175Y731448D01*
X48033Y731372D01*
X47759Y731273D01*
X47661Y731197D01*
X47552Y731153D01*
X47333Y731131D01*
X47059Y731098D01*
X46950Y731055D01*
X46852Y730956D01*
X46742Y730912D01*
X46534Y730880D01*
X46425Y730858D01*
X46250Y730792D01*
X46108Y730738D01*
X45769Y730683D01*
X45659Y730639D01*
X45430Y730519D01*
X45342Y730497D01*
X45058Y730475D01*
X44664Y730453D01*
X44598Y730431D01*
X44456Y730398D01*
X44270Y730322D01*
X44183Y730300D01*
X44030Y730278D01*
X43778Y730245D01*
X43669Y730223D01*
X43559Y730180D01*
X43439Y730125D01*
X43002Y730081D01*
X42389Y730059D01*
X42323Y730038D01*
X42236Y730016D01*
X41952Y729884D01*
X41733Y729863D01*
X41350Y729808D01*
X41219Y729786D01*
X41044Y729742D01*
X40923Y729709D01*
X40836Y729688D01*
X40563Y729655D01*
X40355Y729622D01*
X40027Y729469D01*
X39764Y729425D01*
X39348Y729403D01*
X39020Y729250D01*
X38878Y729217D01*
X38703Y729152D01*
X38473Y729053D01*
X38320Y729031D01*
X38014Y729009D01*
X37861Y728922D01*
X37795Y728856D01*
X37642Y728812D01*
X37555Y728791D01*
X37423Y728769D01*
X37183Y728659D01*
X37095Y728637D01*
X36844Y728583D01*
X36767Y728528D01*
X36680Y728441D01*
X36570Y728397D01*
X36286Y728375D01*
X36198Y728353D01*
X36045Y728266D01*
X35805Y728156D01*
X35761Y728134D01*
X35641Y728036D01*
X35498Y727981D01*
X35192Y727959D01*
X35072Y727861D01*
X35039Y727828D01*
X34995Y727806D01*
X34886Y727763D01*
X34798Y727741D01*
X34656Y727686D01*
X34623Y727653D01*
X34514Y727609D01*
X34339Y727566D01*
X34142Y727456D01*
X34098Y727412D01*
X34055Y727391D01*
X33945Y727347D01*
X33639Y727303D01*
X33464Y727194D01*
X33355Y727150D01*
X33147Y727074D01*
X33092Y727019D01*
X33048Y726997D01*
X32895Y726931D01*
X32523Y726909D01*
X32458Y726888D01*
X32305Y726800D01*
X32108Y726712D01*
X32020Y726691D01*
X31791Y726658D01*
X31616Y726614D01*
X31473Y726559D01*
X31167Y726516D01*
X30948Y726494D01*
X30861Y726472D01*
X30719Y726439D01*
X30402Y726341D01*
X30248Y726319D01*
X30161Y726297D01*
X29155Y726275D01*
X28870Y726297D01*
X28520Y726319D01*
X28455Y726341D01*
X28258Y726428D01*
X28105Y726472D01*
X28017Y726494D01*
X27809Y726527D01*
X27634Y726570D01*
X27525Y726614D01*
X27383Y726669D01*
X27175Y726745D01*
X27098Y726800D01*
X27033Y726866D01*
X26923Y726909D01*
X26803Y726942D01*
X26727Y726975D01*
X26606Y727074D01*
X26475Y727161D01*
X26355Y727281D01*
X26114Y727412D01*
X26081Y727445D01*
X26059Y727489D01*
X26027Y727522D01*
X25983Y727544D01*
X25863Y727642D01*
X25841Y727686D01*
X25808Y727719D01*
X25764Y727741D01*
X25720Y727784D01*
X25677Y727806D01*
X25567Y727937D01*
X25523Y727981D01*
X25480Y728003D01*
X25272Y728211D01*
X25250Y728255D01*
X25152Y728375D01*
X25108Y728397D01*
X24987Y728517D01*
X24966Y728561D01*
X24933Y728594D01*
X24889Y728616D01*
X24856Y728649D01*
X24834Y728692D01*
X24736Y728812D01*
X24637Y728911D01*
X24616Y728955D01*
X24441Y729130D01*
X24419Y729173D01*
X24309Y729327D01*
X24222Y729414D01*
X24200Y729458D01*
X24091Y729611D01*
X24058Y729644D01*
X24014Y729666D01*
X23828Y729852D01*
X23719Y730049D01*
X23588Y730136D01*
X23544Y730180D01*
X23478Y730289D01*
X23380Y730409D01*
X23336Y730453D01*
X23183Y730541D01*
X23084Y730727D01*
X22942Y730869D01*
X22898Y730891D01*
X22778Y730989D01*
X22713Y731055D01*
X22702Y731087D01*
X22658Y731109D01*
X22538Y731208D01*
X22264Y731481D01*
X22220Y731503D01*
X22013Y731645D01*
X21936Y731722D01*
X21827Y731766D01*
X21783Y731787D01*
X21706Y731842D01*
X21695Y731875D01*
X21652Y731897D01*
X21608Y731941D01*
X21520Y731963D01*
X21400Y732083D01*
X21389Y732116D01*
X21280Y732159D01*
X21148Y732181D01*
X21028Y732280D01*
X20952Y732356D01*
X20809Y732411D01*
X20777Y732444D01*
X20733Y732466D01*
X20667Y732531D01*
X20514Y732575D01*
X20372Y732608D01*
X20252Y732684D01*
X20164Y732772D01*
X19956Y732849D01*
X19727Y732947D01*
X19639Y732969D01*
X19431Y733045D01*
X19355Y733100D01*
X19289Y733166D01*
X19136Y733209D01*
X18698Y733253D01*
X18545Y733341D01*
X18392Y733406D01*
X18305Y733428D01*
X18152Y733450D01*
X18064Y733472D01*
X17823Y733581D01*
X17736Y733603D01*
X17517Y733625D01*
D02*
G37*
%LPD*%
G36*
X45342Y763419D02*
X45451Y763375D01*
X45703Y763342D01*
X45813Y763298D01*
X45911Y763266D01*
X46130Y763244D01*
X46272Y763189D01*
X46348Y763112D01*
X46458Y763069D01*
X46600Y763014D01*
X46644Y762970D01*
X46666Y762883D01*
X46644Y762642D01*
X46622Y762577D01*
X46589Y762456D01*
X46567Y762369D01*
X46534Y762249D01*
X46512Y762161D01*
Y762139D01*
X46491Y762074D01*
X46469Y761986D01*
X46403Y761811D01*
X46294Y761702D01*
X46250Y761548D01*
X46228Y761461D01*
X46206Y761264D01*
X46173Y761209D01*
X46130Y761188D01*
X46075Y761133D01*
X45966Y760936D01*
X45856Y760827D01*
X45834Y760674D01*
X45813Y760455D01*
X45714Y760334D01*
X45637Y760258D01*
X45594Y760083D01*
X45561Y759962D01*
X45451Y759788D01*
X45386Y759722D01*
X45298Y759700D01*
X45102Y759722D01*
X45036Y759744D01*
X44883Y759766D01*
X44795Y759788D01*
X44642Y759831D01*
X44467Y759875D01*
X44117Y759853D01*
X44052Y759875D01*
X43833Y759897D01*
X43756Y759974D01*
X43734Y760127D01*
X43778Y760433D01*
X43800Y760520D01*
X43833Y760663D01*
X43909Y760914D01*
X43931Y761067D01*
X43953Y761439D01*
X44106Y761767D01*
X44128Y761855D01*
X44150Y762642D01*
X44259Y762839D01*
X44347Y763036D01*
X44369Y763211D01*
X44467Y763331D01*
X44620Y763397D01*
X44708Y763419D01*
X44992Y763441D01*
X45342Y763419D01*
D02*
G37*
G36*
X48295Y762609D02*
X48448Y762500D01*
X48580Y762412D01*
X48766Y762380D01*
X48853Y762358D01*
X48962Y762314D01*
X49105Y762259D01*
X49258Y762216D01*
X49367Y762150D01*
X49400Y762030D01*
X49367Y761844D01*
X49345Y761734D01*
X49291Y761658D01*
X49203Y761570D01*
X49181Y761527D01*
X49083Y761406D01*
X49028Y761352D01*
X49006Y761308D01*
X48962Y761199D01*
X48930Y761078D01*
X48897Y761045D01*
X48886Y761012D01*
X48842Y760991D01*
X48678Y760827D01*
X48656Y760783D01*
X48569Y760630D01*
X48514Y760553D01*
X48405Y760488D01*
X48350Y760433D01*
X48295Y760291D01*
X48241Y760214D01*
X47956Y759930D01*
X47869Y759777D01*
X47694Y759602D01*
X47672Y759558D01*
X47573Y759459D01*
X47530Y759437D01*
X47497Y759405D01*
X47475Y759361D01*
X47377Y759262D01*
X47333Y759241D01*
X47278Y759186D01*
X47256Y759142D01*
X47180Y759066D01*
X47038Y759055D01*
X46863Y759077D01*
X46775Y759099D01*
X46534Y759186D01*
X46414Y759241D01*
X46327Y759262D01*
X46250Y759339D01*
X46228Y759448D01*
X46250Y759514D01*
X46337Y759667D01*
X46403Y759733D01*
X46447Y759842D01*
X46480Y759984D01*
X46523Y760094D01*
X46622Y760280D01*
X46644Y760367D01*
Y760389D01*
X46720Y760509D01*
X46764Y760531D01*
X46863Y760630D01*
X46895Y760881D01*
X46950Y760958D01*
X47016Y761023D01*
X47038Y761067D01*
X47125Y761220D01*
X47256Y761417D01*
X47278Y761505D01*
X47333Y761647D01*
X47366Y761680D01*
X47377Y761712D01*
X47420Y761734D01*
X47475Y761789D01*
X47519Y761898D01*
X47606Y762052D01*
X47672Y762117D01*
X47803Y762358D01*
X47869Y762402D01*
X47891Y762445D01*
X47978Y762598D01*
X48077Y762631D01*
X48295Y762609D01*
D02*
G37*
G36*
X50964Y761231D02*
X51205Y761100D01*
X51358Y760947D01*
X51467Y760881D01*
X51642Y760706D01*
X51675Y760695D01*
X51697Y760652D01*
X51795Y760509D01*
X51839Y760488D01*
X51872Y760455D01*
X51959Y760236D01*
X52091Y760105D01*
X52112Y760017D01*
X52091Y759908D01*
X52058Y759853D01*
X52014Y759831D01*
X51937Y759755D01*
X51916Y759711D01*
X51773Y759525D01*
X51730Y759503D01*
X51533Y759394D01*
X51423Y759219D01*
X51380Y759175D01*
X51336Y759153D01*
X51292Y759109D01*
X51139Y759022D01*
X51084Y758967D01*
X51062Y758923D01*
X50986Y758847D01*
X50778Y758770D01*
X50658Y758650D01*
X50614Y758628D01*
X50494Y758530D01*
X50417Y758453D01*
X50177Y758322D01*
X50067Y758213D01*
X50023Y758191D01*
X49903Y758092D01*
X49739Y757994D01*
X49695Y757972D01*
X49619Y757895D01*
X49597Y757852D01*
X49564Y757819D01*
X49411Y757731D01*
X49280Y757600D01*
X49236Y757578D01*
X49159Y757502D01*
X49138Y757458D01*
X49105Y757425D01*
X49017Y757403D01*
X48623Y757425D01*
X48547Y757502D01*
X48525Y757545D01*
X48394Y757677D01*
X48372Y757720D01*
X48339Y757753D01*
X48295Y757775D01*
X48175Y757874D01*
X48055Y757994D01*
X47858Y758103D01*
X47781Y758180D01*
X47759Y758267D01*
X47781Y758377D01*
X47814Y758409D01*
X47847Y758420D01*
X47869Y758464D01*
X47913Y758574D01*
X47956Y758748D01*
X48011Y758803D01*
X48153Y758858D01*
X48230Y758891D01*
X48306Y758967D01*
X48328Y759011D01*
X48372Y759055D01*
X48394Y759099D01*
X48514Y759219D01*
X48558Y759241D01*
X48678Y759361D01*
X48689Y759394D01*
X48733Y759416D01*
X48941Y759558D01*
X49072Y759799D01*
X49105Y759831D01*
X49345Y759962D01*
X49466Y760148D01*
X49783Y760466D01*
X49827Y760488D01*
X49980Y760597D01*
X50034Y760652D01*
X50056Y760695D01*
X50111Y760772D01*
X50155Y760794D01*
X50166Y760805D01*
X50242Y760881D01*
X50286Y760903D01*
X50428Y761002D01*
X50450Y761045D01*
X50548Y761144D01*
X50691Y761199D01*
X50811Y761253D01*
X50964Y761231D01*
D02*
G37*
G36*
X53502Y758584D02*
X53534Y758552D01*
X53578Y758399D01*
X53633Y758256D01*
X53720Y758169D01*
X53753Y758158D01*
X53775Y758114D01*
X53906Y757874D01*
X53994Y757742D01*
X54027Y757622D01*
X54114Y757491D01*
X54169Y757436D01*
X54212Y757327D01*
X54234Y757239D01*
X54256Y756955D01*
X54409Y756627D01*
X54431Y756342D01*
X54453Y756255D01*
X54486Y755938D01*
X54508Y755741D01*
X54530Y755653D01*
X54541Y755620D01*
X54464Y755478D01*
X54420Y755456D01*
X54311Y755413D01*
X54169Y755380D01*
X54081Y755358D01*
X53939Y755303D01*
X53064Y755281D01*
X52648Y755259D01*
X52288Y755183D01*
X52200Y755161D01*
X52014Y755106D01*
X51927Y755084D01*
X51708Y755062D01*
X51358Y755041D01*
X51139Y755019D01*
X50701Y754953D01*
X50636Y754931D01*
X50505Y754953D01*
X50384Y755052D01*
X50319Y755117D01*
Y755139D01*
X50308Y755150D01*
X50275Y755183D01*
X50220Y755325D01*
X50177Y755434D01*
X50122Y755489D01*
X50100Y755533D01*
X50056Y755642D01*
X50034Y755730D01*
X50002Y755850D01*
X49947Y755927D01*
X49859Y756014D01*
X49794Y756167D01*
X49706Y756320D01*
X49619Y756517D01*
X49597Y756648D01*
X49488Y756802D01*
X49509Y756933D01*
X49739Y757097D01*
X49947Y757173D01*
X50023Y757228D01*
X50078Y757305D01*
X50133Y757359D01*
X50352Y757381D01*
X50472Y757480D01*
X50505Y757513D01*
X50548Y757534D01*
X50701Y757622D01*
X50855Y757731D01*
X51008Y757775D01*
X51095Y757797D01*
X51248Y757884D01*
X51336Y757972D01*
X51544Y758048D01*
X51773Y758169D01*
X51948Y758213D01*
X52058Y758278D01*
X52167Y758388D01*
X52255Y758409D01*
X52408Y758431D01*
X52583Y758453D01*
X52867Y758584D01*
X53042Y758628D01*
X53162Y758661D01*
X53348Y758672D01*
X53502Y758584D01*
D02*
G37*
G36*
X54628Y754133D02*
X54650Y754045D01*
X54617Y751344D01*
X54584Y751267D01*
X54552Y751234D01*
X54464Y751212D01*
X54322Y751245D01*
X54212Y751267D01*
X53753Y751289D01*
X53578Y751311D01*
X53403Y751355D01*
X53086Y751453D01*
X52867Y751475D01*
X51577Y751497D01*
X51511Y751519D01*
X51303Y751552D01*
X51194Y751595D01*
X51008Y751672D01*
X50855Y751694D01*
X50505Y751716D01*
X50450Y751770D01*
X50428Y751858D01*
Y753761D01*
Y753783D01*
X50450Y754089D01*
X50548Y754187D01*
X53534Y754199D01*
X53720Y754187D01*
X53786Y754209D01*
X54278Y754199D01*
X54552Y754209D01*
X54628Y754133D01*
D02*
G37*
G36*
X38561Y757316D02*
X38758Y757294D01*
X38998Y757184D01*
X39261Y757141D01*
X39381Y757108D01*
X39458Y757075D01*
X39589Y756988D01*
X39731Y756955D01*
X39841Y756911D01*
X40005Y756747D01*
X40092Y756725D01*
X40234Y756670D01*
X40278Y756648D01*
X40300Y756605D01*
X40333Y756572D01*
X40377Y756550D01*
X40388Y756539D01*
X40398Y756528D01*
X40519Y756430D01*
X40595Y756353D01*
X40748Y756266D01*
X40902Y756113D01*
X40945Y756091D01*
X41120Y755916D01*
X41164Y755894D01*
X41284Y755795D01*
X41295Y755762D01*
X41339Y755741D01*
X41580Y755609D01*
X41678Y755424D01*
X41820Y755281D01*
X41864Y755259D01*
X41984Y755161D01*
X42028Y755008D01*
X42061Y754800D01*
X42105Y754691D01*
X42159Y754614D01*
X42203Y754570D01*
X42236Y754450D01*
X42258Y754253D01*
X42280Y754013D01*
X42302Y753838D01*
X42312Y753717D01*
X42236Y753641D01*
X42083Y753662D01*
X42017Y753728D01*
X41973Y753750D01*
X41864Y753794D01*
X41776Y753816D01*
X41645Y753838D01*
X41470Y753947D01*
X41208Y754013D01*
X41055Y754100D01*
X40967Y754187D01*
X40792Y754231D01*
X40573Y754253D01*
X40420Y754362D01*
X40311Y754406D01*
X40223Y754428D01*
X40081Y754483D01*
X39950Y754570D01*
X39830Y754625D01*
X39348Y754647D01*
X39239Y754691D01*
X39042Y754778D01*
X38889Y754822D01*
X38736Y754844D01*
X38101Y754866D01*
X38036Y754844D01*
X37708Y754822D01*
X37598Y754778D01*
X37489Y754713D01*
X37336Y754647D01*
X37052Y754625D01*
X36909Y754570D01*
X36767Y754428D01*
X36723Y754406D01*
X36603Y754308D01*
X36439Y754209D01*
X36395Y754187D01*
X36220Y754013D01*
X36177Y753991D01*
X35969Y753783D01*
X35947Y753739D01*
X35848Y753619D01*
X35805Y753597D01*
X35750Y753542D01*
X35641Y753345D01*
X35542Y753225D01*
X35498Y753181D01*
X35367Y753203D01*
X35334Y753236D01*
X35312Y753324D01*
X35334Y753739D01*
X35356Y754373D01*
X35531Y754745D01*
X35564Y754866D01*
X35619Y754942D01*
X35684Y755052D01*
X35728Y755205D01*
X35750Y755380D01*
X35826Y755500D01*
X35859Y755511D01*
X35881Y755555D01*
X35925Y755599D01*
X36034Y755795D01*
X36078Y755839D01*
X36100Y755883D01*
X36188Y756036D01*
X36242Y756091D01*
X36286Y756113D01*
X36341Y756167D01*
X36363Y756211D01*
X36461Y756331D01*
X36581Y756452D01*
X36603Y756495D01*
X36680Y756550D01*
X36833Y756703D01*
X36986Y756791D01*
X37117Y756922D01*
X37227Y756966D01*
X37467Y757097D01*
X37533Y757119D01*
X37620Y757141D01*
X37773Y757162D01*
X37916Y757217D01*
X38101Y757294D01*
X38189Y757316D01*
X38473Y757337D01*
X38561Y757316D01*
D02*
G37*
G36*
X39633Y753181D02*
X40180Y753159D01*
X40333Y753072D01*
X40398Y753006D01*
X40508Y752962D01*
X40563Y752908D01*
X40584Y752820D01*
X40563Y752711D01*
X40519Y752667D01*
X40497Y752624D01*
X40311Y752547D01*
X40223Y752525D01*
X40103Y752492D01*
X39983Y752416D01*
X39939Y752372D01*
X39830Y752328D01*
X39688Y752273D01*
X39633Y752219D01*
X39589Y752197D01*
X39436Y752131D01*
X39294Y752098D01*
X39184Y752033D01*
X39162Y751989D01*
X39130Y751956D01*
X39086Y751934D01*
X38878Y751792D01*
X38802Y751716D01*
X38648Y751628D01*
X38616Y751595D01*
X38594Y751552D01*
X38430Y751453D01*
X38386Y751431D01*
X38266Y751311D01*
X38244Y751267D01*
X38080Y751103D01*
X37883Y750994D01*
X37828Y750873D01*
X37817Y750841D01*
X37806Y750830D01*
X37784Y750786D01*
X37478Y750480D01*
X37347Y750239D01*
X37238Y750130D01*
X37106Y749889D01*
X37041Y749736D01*
X36997Y749561D01*
X36888Y749364D01*
X36844Y749320D01*
X36800Y749167D01*
X36778Y748686D01*
X36789Y747603D01*
X36778Y747417D01*
X36800Y747352D01*
X36822Y747198D01*
X36800Y747089D01*
X36636Y747078D01*
X36516Y747177D01*
X36461Y747253D01*
X36417Y747275D01*
X36220Y747428D01*
X36188Y747461D01*
X36166Y747505D01*
X36034Y747636D01*
X36012Y747680D01*
X35925Y747833D01*
X35848Y747909D01*
X35805Y747931D01*
X35750Y747986D01*
X35684Y748249D01*
X35553Y748380D01*
X35466Y748533D01*
X35422Y748577D01*
X35400Y748620D01*
X35356Y748730D01*
X35334Y749036D01*
X35312Y749102D01*
X35291Y749189D01*
X35192Y749287D01*
X35083Y749353D01*
X35061Y749572D01*
X35050Y750108D01*
X35072Y750173D01*
X35105Y750863D01*
X35127Y751038D01*
X35148Y751125D01*
X35225Y751245D01*
X35312Y751442D01*
X35345Y751606D01*
X35455Y751738D01*
X35509Y751814D01*
X35608Y751913D01*
X35652Y751934D01*
X35684Y751967D01*
X35706Y752011D01*
X35826Y752131D01*
X35870Y752153D01*
X35991Y752252D01*
X36067Y752328D01*
X36111Y752350D01*
X36242Y752481D01*
X36352Y752525D01*
X36516Y752558D01*
X36592Y752613D01*
X36680Y752700D01*
X36833Y752766D01*
X37041Y752842D01*
X37161Y752897D01*
X37423Y752962D01*
X37631Y753039D01*
X37664Y753072D01*
X37708Y753094D01*
X37817Y753138D01*
X37905Y753159D01*
X38189Y753181D01*
X39075Y753192D01*
X39348Y753181D01*
X39414Y753203D01*
X39633Y753181D01*
D02*
G37*
G36*
X42695Y759394D02*
X42958Y759372D01*
X43155Y759284D01*
X43242Y759262D01*
X43428Y759230D01*
X43538Y759186D01*
X43669Y759099D01*
X43745Y759022D01*
X43789Y759000D01*
X43942Y758847D01*
X44084Y758770D01*
X44128Y758661D01*
X44150Y758486D01*
X44248Y758366D01*
X44325Y758289D01*
X44391Y758027D01*
X44445Y757884D01*
X44522Y757699D01*
X44544Y757611D01*
X44566Y757392D01*
X44609Y757283D01*
X44719Y757042D01*
X44763Y756867D01*
X44784Y756386D01*
X44763Y754592D01*
X44741Y754527D01*
X44708Y754406D01*
X44653Y754330D01*
X44566Y754133D01*
X44533Y753947D01*
X44511Y753859D01*
X44467Y753750D01*
X44434Y753717D01*
X44369Y753564D01*
X44281Y753411D01*
X44172Y753302D01*
X44041Y753061D01*
X43986Y753006D01*
X43942Y752984D01*
X43898Y752941D01*
X43855Y752919D01*
X43723Y752787D01*
X43527Y752678D01*
X43483Y752634D01*
X43395Y752613D01*
X43362Y752624D01*
X43341Y752711D01*
X43319Y754527D01*
X43297Y754592D01*
X43275Y754855D01*
X43253Y754920D01*
X43198Y755062D01*
X43144Y755183D01*
X43100Y755336D01*
X43078Y755620D01*
X43056Y755817D01*
X42947Y755970D01*
X42903Y756080D01*
Y756102D01*
X42892Y756113D01*
X42848Y756222D01*
X42706Y756364D01*
X42684Y756452D01*
X42652Y756616D01*
X42597Y756692D01*
X42564Y756725D01*
X42520Y756747D01*
X42444Y756824D01*
X42422Y756867D01*
X42323Y756988D01*
X42269Y757042D01*
X42247Y757086D01*
X42214Y757119D01*
X42170Y757141D01*
X42050Y757239D01*
X41984Y757348D01*
X41733Y757491D01*
X41623Y757600D01*
X41580Y757622D01*
X41536Y757688D01*
X41492Y757709D01*
X41339Y757775D01*
X41153Y757808D01*
X41033Y757884D01*
X41011Y757928D01*
X40967Y757950D01*
X40814Y758016D01*
X40650Y758048D01*
X40541Y758092D01*
X40508Y758125D01*
X40388Y758158D01*
X40278Y758180D01*
X40081Y758202D01*
X39819Y758245D01*
X39731Y758267D01*
X39534Y758289D01*
X39403Y758311D01*
X39294Y758377D01*
X39272Y758420D01*
X39228Y758530D01*
X39250Y758661D01*
X39348Y758781D01*
X39589Y758913D01*
X39655Y758978D01*
X39764Y759022D01*
X39852Y759044D01*
X40103Y759099D01*
X40278Y759142D01*
X40398Y759175D01*
X40573Y759219D01*
X40727Y759241D01*
X41109Y759274D01*
X41503Y759339D01*
X41678Y759383D01*
X41941Y759405D01*
X42630Y759416D01*
X42695Y759394D01*
D02*
G37*
G36*
X46753Y757392D02*
X46764Y757381D01*
X46928Y757348D01*
X47038Y757283D01*
X47059Y757239D01*
X47114Y757184D01*
X47355Y757053D01*
X47442Y756966D01*
X47595Y756878D01*
X47683Y756791D01*
X47923Y756659D01*
X48033Y756550D01*
X48186Y756462D01*
X48350Y756299D01*
X48372Y756255D01*
X48503Y756124D01*
X48525Y756080D01*
X48569Y755970D01*
X48678Y755773D01*
X48722Y755730D01*
X48809Y755577D01*
X48941Y755445D01*
X48984Y755292D01*
X49006Y755139D01*
X49138Y754942D01*
X49181Y754767D01*
X49159Y754002D01*
X49006Y753673D01*
X48984Y753520D01*
X48919Y753411D01*
X48864Y753356D01*
X48820Y753334D01*
X48787Y753302D01*
X48766Y753258D01*
X48612Y753061D01*
X48569Y753017D01*
X48547Y752973D01*
X48448Y752853D01*
X48394Y752798D01*
X48273Y752569D01*
X48230Y752547D01*
X48186Y752503D01*
X48142Y752481D01*
X48088Y752405D01*
X47956Y752273D01*
X47891Y752164D01*
X47759Y752077D01*
X47716Y752033D01*
X47694Y751989D01*
X47595Y751869D01*
X47464Y751738D01*
X47420Y751716D01*
X47300Y751617D01*
X47278Y751573D01*
X47223Y751497D01*
X47180Y751475D01*
X47027Y751366D01*
X46863Y751202D01*
X46841Y751158D01*
X46764Y751081D01*
X46677Y751059D01*
X46567Y750994D01*
X46458Y750884D01*
X46414Y750863D01*
X46261Y750753D01*
X46195Y750687D01*
X45988Y750611D01*
X45911Y750556D01*
X45823Y750469D01*
X45714Y750425D01*
X45473Y750403D01*
X45353Y750305D01*
X45320Y750272D01*
X45167Y750228D01*
X45080Y750206D01*
X44883Y750097D01*
X44817Y750075D01*
X44730Y750053D01*
X44380Y750031D01*
X43702Y750053D01*
X43494Y750195D01*
X43319Y750305D01*
X43220Y750403D01*
X43177Y750425D01*
X43078Y750524D01*
X43012Y750677D01*
X42991Y750742D01*
X43144Y751027D01*
X43177Y751059D01*
X43406Y751114D01*
X43548Y751256D01*
X43658Y751300D01*
X43833Y751475D01*
X44073Y751497D01*
X44128Y751552D01*
X44150Y751595D01*
X44248Y751694D01*
X44391Y751727D01*
X44555Y751847D01*
X44752Y751956D01*
X44839Y752087D01*
X44948Y752131D01*
X45069Y752164D01*
X45134Y752208D01*
X45266Y752449D01*
X45298Y752481D01*
X45495Y752591D01*
X45791Y752886D01*
X45900Y753083D01*
X45955Y753138D01*
X46151Y753247D01*
X46184Y753280D01*
X46206Y753367D01*
X46261Y753509D01*
X46283Y753553D01*
X46327Y753575D01*
X46447Y753673D01*
X46480Y753816D01*
X46611Y754144D01*
X46644Y754242D01*
X46666Y754330D01*
X46687Y754592D01*
X46731Y754702D01*
X46764Y754822D01*
X46797Y755073D01*
X46775Y755139D01*
X46742Y755303D01*
X46720Y755391D01*
X46698Y755500D01*
X46677Y755675D01*
X46655Y755959D01*
X46633Y756134D01*
X46611Y756244D01*
X46578Y756364D01*
X46545Y756659D01*
X46491Y756845D01*
X46469Y756999D01*
X46447Y757283D01*
X46469Y757348D01*
X46534Y757458D01*
X46611Y757469D01*
X46753Y757392D01*
D02*
G37*
G36*
X48361Y750272D02*
X48416Y750217D01*
X48459Y750108D01*
X48503Y749955D01*
X48525Y749867D01*
X48503Y748883D01*
X48394Y748642D01*
X48350Y748489D01*
X48339Y748238D01*
X48350Y748161D01*
X48328Y748095D01*
X48306Y747855D01*
X48208Y747734D01*
X48044Y747461D01*
X48011Y747428D01*
X47978Y747417D01*
X47934Y747308D01*
X47847Y747155D01*
X47748Y747056D01*
X47716Y747045D01*
X47694Y747002D01*
X47650Y746958D01*
X47639Y746925D01*
X47530Y746881D01*
X47377Y746859D01*
X47322Y746827D01*
X47300Y746783D01*
X47256Y746739D01*
X47234Y746695D01*
X47136Y746663D01*
X47048Y746641D01*
X46852Y746619D01*
X46742Y746575D01*
X46589Y746553D01*
X45780Y746575D01*
X45714Y746597D01*
X45451Y746641D01*
X45233Y746663D01*
X45091Y746695D01*
X44970Y746772D01*
X44773Y746859D01*
X44281Y746892D01*
X44172Y746914D01*
X44095Y746947D01*
X43964Y747034D01*
X43811Y747078D01*
X43669Y747133D01*
X43592Y747188D01*
X43461Y747275D01*
X43155Y747297D01*
X43034Y747395D01*
X43023Y747428D01*
X42980Y747450D01*
X42870Y747494D01*
X42750Y747527D01*
X42673Y747581D01*
X42608Y747647D01*
X42455Y747734D01*
X42433D01*
X42302Y747866D01*
X42061Y747997D01*
X42006Y748074D01*
X41930Y748150D01*
X41886Y748172D01*
X41853Y748205D01*
X41831Y748249D01*
X41798Y748281D01*
X41755Y748303D01*
X41711Y748347D01*
X41667Y748369D01*
X41591Y748489D01*
X41492Y748587D01*
X41448Y748609D01*
X41394Y748664D01*
X41372Y748708D01*
X41219Y748905D01*
X41142Y748981D01*
X41098Y749003D01*
X41022Y749080D01*
X40978Y749255D01*
X40956Y749561D01*
X40825Y749780D01*
X40781Y749955D01*
X40803Y750195D01*
X40858Y750250D01*
X40967Y750228D01*
X41142Y750053D01*
X41295Y750031D01*
X41438Y749977D01*
X41514Y749922D01*
X41623Y749812D01*
X41842Y749725D01*
X41886Y749703D01*
X42214Y749528D01*
X42345Y749397D01*
X42608Y749353D01*
X42728Y749255D01*
X42827Y749200D01*
X42914Y749178D01*
X43067Y749091D01*
X43155Y749003D01*
X43308Y748981D01*
X43494Y748949D01*
X43614Y748872D01*
X43702Y748784D01*
X43920Y748719D01*
X44248Y748566D01*
X44423Y748544D01*
X44577Y748456D01*
X44598Y748412D01*
X44642Y748391D01*
X44752Y748347D01*
X44970Y748325D01*
X45659Y748292D01*
X45823Y748281D01*
X45889Y748303D01*
X46491Y748336D01*
X46600Y748380D01*
X46644Y748423D01*
X46666Y748467D01*
X46720Y748522D01*
X46873Y748609D01*
X47005Y748741D01*
X47048Y748763D01*
X47169Y748861D01*
X47234Y748927D01*
X47256Y748970D01*
X47344Y749123D01*
X47475Y749233D01*
X47562Y749386D01*
X47672Y749495D01*
X47759Y749649D01*
X47858Y749769D01*
X47891Y749802D01*
X47945Y749944D01*
X47978Y749977D01*
X47989Y750009D01*
X48033Y750031D01*
X48066Y750064D01*
X48088Y750108D01*
X48175Y750261D01*
X48208Y750294D01*
X48361Y750272D01*
D02*
G37*
G36*
X39895Y751059D02*
X39928Y751027D01*
X39950Y750808D01*
X39972Y749473D01*
X40059Y749255D01*
X40103Y749102D01*
X40147Y748839D01*
X40169Y748577D01*
X40191Y748533D01*
Y748511D01*
X40212Y748423D01*
X40344Y748008D01*
X40398Y747866D01*
X40508Y747734D01*
X40563Y747636D01*
X40584Y747483D01*
X40606Y747374D01*
X40683Y747297D01*
X40727Y747275D01*
X40803Y747198D01*
X40825Y747155D01*
X40934Y747045D01*
X40956Y747002D01*
X41055Y746881D01*
X41175Y746783D01*
X41295Y746619D01*
X41339Y746597D01*
X41405Y746531D01*
X41448Y746509D01*
X41492Y746466D01*
X41602Y746400D01*
X41634Y746367D01*
X41656Y746323D01*
X41733Y746247D01*
X41984Y746214D01*
X42061Y746159D01*
X42127Y746094D01*
X42170Y746072D01*
X42367Y745919D01*
X42411Y745875D01*
X42520Y745831D01*
X42663Y745798D01*
X42783Y745722D01*
X42848Y745656D01*
X42958Y745612D01*
X43100Y745580D01*
X43319Y745492D01*
X43494Y745427D01*
X43603Y745383D01*
X43669Y745317D01*
X43647Y745230D01*
X43614Y745197D01*
X43527Y745175D01*
X43417Y745131D01*
X43297Y745033D01*
X43111Y744934D01*
X43056Y744902D01*
X43034Y744858D01*
X43002Y744825D01*
X42827Y744781D01*
X41875Y744748D01*
X41514Y744737D01*
X41448Y744759D01*
X40530Y744781D01*
X40464Y744803D01*
X40377Y744825D01*
X40202Y744934D01*
X39994Y745011D01*
X39928Y745055D01*
X39906Y745098D01*
X39852Y745153D01*
X39698Y745175D01*
X39589Y745197D01*
X39513Y745274D01*
X39491Y745317D01*
X39436Y745372D01*
X39239Y745481D01*
X39152Y745569D01*
X39108Y745591D01*
X39064Y745634D01*
X39020Y745656D01*
X38922Y745755D01*
X38812Y745952D01*
X38703Y746061D01*
X38616Y746214D01*
X38506Y746323D01*
X38484Y746411D01*
X38463Y746630D01*
X38353Y746783D01*
X38287Y746892D01*
X38266Y746980D01*
X38244Y747308D01*
X38222Y747374D01*
X38200Y747461D01*
X38178Y748074D01*
X38200Y748139D01*
X38222Y748489D01*
X38244Y748555D01*
X38266Y748905D01*
X38298Y749025D01*
X38408Y749200D01*
X38441Y749298D01*
X38463Y749386D01*
X38484Y749736D01*
X38517Y749856D01*
X38681Y750086D01*
X38747Y750195D01*
X38834Y750283D01*
X38856Y750327D01*
X38900Y750436D01*
X38988Y750589D01*
X39020Y750622D01*
X39064Y750644D01*
X39217Y750797D01*
X39261Y750819D01*
X39414Y750906D01*
X39567Y751059D01*
X39786Y751125D01*
X39895Y751059D01*
D02*
G37*
G36*
X50745Y750863D02*
X51128Y750830D01*
X51238Y750808D01*
X51325Y750786D01*
X51544Y750742D01*
X51784Y750698D01*
X52003Y750655D01*
X52101Y750644D01*
X52123D01*
X52342Y750622D01*
X52561Y750469D01*
X52648Y750447D01*
X52801Y750425D01*
X53348Y750403D01*
X53545Y750294D01*
X53698Y750228D01*
X53928Y750173D01*
X53961Y750141D01*
X54005Y750119D01*
X54048Y750075D01*
X54256Y749998D01*
X54322Y749955D01*
X54300Y749802D01*
X54234Y749649D01*
X54212Y749102D01*
X54136Y749003D01*
X54092Y748981D01*
X54037Y748927D01*
X53994Y748773D01*
X53961Y748587D01*
X53797Y748227D01*
X53764Y748106D01*
X53709Y748052D01*
X53688Y748008D01*
X53622Y747942D01*
X53578Y747789D01*
X53556Y747592D01*
X53425Y747461D01*
X53316Y747264D01*
X53206Y747155D01*
X53184Y746936D01*
X53130Y746794D01*
X53075Y746717D01*
X52966Y746608D01*
X52889Y746400D01*
X52856Y746367D01*
X52834Y746323D01*
X52791Y746280D01*
X52769Y746192D01*
X52659Y746039D01*
X52583Y745984D01*
X52528Y745842D01*
X52495Y745722D01*
X52288Y745514D01*
X52266Y745470D01*
X52178Y745383D01*
X52091Y745230D01*
X52014Y745153D01*
X51970Y745131D01*
X51872Y744967D01*
X51850Y744923D01*
X51773Y744825D01*
X51730Y744803D01*
X51686Y744759D01*
X51642Y744737D01*
X51522Y744617D01*
X51423Y744431D01*
X51380Y744409D01*
X51336Y744366D01*
X51292Y744344D01*
X51117Y744169D01*
X51073Y744147D01*
X50953Y744048D01*
X50866Y743961D01*
X50844Y743917D01*
X50701Y743775D01*
X50559Y743720D01*
X50428Y743611D01*
X50406Y743567D01*
X50330Y743491D01*
X50242Y743469D01*
X49881Y743217D01*
X49859Y743174D01*
X49827Y743141D01*
X49783Y743119D01*
X49673Y743075D01*
X49542Y743053D01*
X49422Y742955D01*
X49323Y742856D01*
X49214Y742791D01*
X49148Y742725D01*
X49039Y742681D01*
X48820Y742659D01*
X48700Y742561D01*
X48623Y742484D01*
X48503Y742452D01*
X48394Y742430D01*
X48077Y742288D01*
X47989Y742266D01*
X47847Y742233D01*
X47770Y742200D01*
X47661Y742091D01*
X47552Y742047D01*
X47070Y742025D01*
X46939Y742003D01*
X46819Y741905D01*
X46698Y741850D01*
X46348Y741828D01*
X46228Y741795D01*
X45998Y741697D01*
X45911Y741675D01*
X45616Y741642D01*
X44041Y741599D01*
X43778Y741555D01*
X43658Y741522D01*
X43570Y741500D01*
X43286Y741478D01*
X43198Y741456D01*
X42411Y741478D01*
X42345Y741500D01*
X42192Y741522D01*
X42039Y741588D01*
X41886Y741609D01*
X41448Y741631D01*
X41295Y741719D01*
X41262Y741752D01*
X41219Y741861D01*
X41197Y742145D01*
X41175Y742495D01*
X41197Y742561D01*
X41219Y742999D01*
X41252Y743053D01*
X41405Y743097D01*
X42083Y743119D01*
X42192Y743163D01*
X42498Y743250D01*
X42586Y743272D01*
X42870Y743294D01*
X43242Y743316D01*
X43308Y743337D01*
X43461Y743359D01*
X43548Y743381D01*
X43756Y743414D01*
X43866Y743436D01*
X44041Y743480D01*
X44391Y743523D01*
X44500Y743567D01*
X44577Y743644D01*
X44620Y743666D01*
X44730Y743709D01*
X45145Y743731D01*
X45233Y743753D01*
X45342Y743819D01*
X45386Y743863D01*
X45495Y743906D01*
X45583Y743928D01*
X45725Y743983D01*
X45802Y744059D01*
X45845Y744081D01*
X45955Y744125D01*
X46173Y744147D01*
X46272Y744223D01*
X46294Y744267D01*
X46348Y744322D01*
X46469Y744355D01*
X46644Y744420D01*
X46775Y744508D01*
X46895Y744584D01*
X47005Y744694D01*
X47048Y744716D01*
X47158Y744759D01*
X47267Y744825D01*
X47398Y744956D01*
X47442Y744978D01*
X47562Y745077D01*
X47584Y745120D01*
X47705Y745175D01*
X47847Y745230D01*
X47891Y745274D01*
X48000Y745470D01*
X48055Y745525D01*
X48098Y745547D01*
X48164Y745612D01*
X48208Y745634D01*
X48306Y745711D01*
X48394Y745864D01*
X48525Y745995D01*
X48623Y746181D01*
X48667Y746203D01*
X48722Y746258D01*
X48809Y746411D01*
X48886Y746488D01*
X48930Y746509D01*
X48984Y746652D01*
X49006Y746783D01*
X49083Y746859D01*
X49127Y746881D01*
X49181Y746980D01*
X49247Y747089D01*
X49356Y747242D01*
X49378Y747330D01*
X49400Y747505D01*
X49466Y747614D01*
X49575Y747723D01*
X49619Y747877D01*
X49684Y748030D01*
X49717Y748172D01*
X49761Y748281D01*
X49816Y748467D01*
X49837Y748598D01*
X49936Y748719D01*
X49969Y748752D01*
X50012Y748861D01*
X50034Y749014D01*
X50056Y749473D01*
X50078Y749539D01*
X50133Y749681D01*
X50231Y749911D01*
X50264Y750272D01*
X50286Y750359D01*
X50406Y750633D01*
X50439Y750797D01*
X50505Y750863D01*
X50592Y750884D01*
X50745Y750863D01*
D02*
G37*
D10*
X972100Y963000D02*
G03*
X972100Y963000I-1000J0D01*
G01*
X352650Y583500D02*
G03*
X352650Y583500I-1000J0D01*
G01*
X138450Y787050D02*
G03*
X138450Y787050I-1000J0D01*
G01*
X142500Y136650D02*
G03*
X142500Y136650I-1000J0D01*
G01*
X290100Y864000D02*
G03*
X290100Y864000I-1000J0D01*
G01*
X348100Y963000D02*
G03*
X348100Y963000I-1000J0D01*
G01*
X556100D02*
G03*
X556100Y963000I-1000J0D01*
G01*
X608100D02*
G03*
X608100Y963000I-1000J0D01*
G01*
X660100D02*
G03*
X660100Y963000I-1000J0D01*
G01*
X712100D02*
G03*
X712100Y963000I-1000J0D01*
G01*
X764100D02*
G03*
X764100Y963000I-1000J0D01*
G01*
X816100D02*
G03*
X816100Y963000I-1000J0D01*
G01*
X868100D02*
G03*
X868100Y963000I-1000J0D01*
G01*
X920100D02*
G03*
X920100Y963000I-1000J0D01*
G01*
X939000Y942000D02*
Y952000D01*
X969000Y942000D02*
Y952000D01*
X357000Y808000D02*
X449000D01*
X357000Y716000D02*
X449000D01*
X357000D02*
Y808000D01*
X449000Y716000D02*
Y808000D01*
X89400Y580500D02*
Y595500D01*
X118600Y580500D02*
Y595500D01*
X160500Y852500D02*
Y863500D01*
X168500D01*
X191500Y852500D02*
Y863500D01*
X183500D02*
X191500D01*
X555500Y474500D02*
X559500D01*
X555500D02*
Y483500D01*
X572500Y474500D02*
X576500D01*
Y483500D01*
X551000Y389500D02*
X601000D01*
X551000Y349500D02*
X601000D01*
Y389500D01*
X551000Y349500D02*
Y389500D01*
X239500Y517000D02*
X241000D01*
X239500Y545000D02*
X241000D01*
X255000Y517000D02*
X256500D01*
X255000Y545000D02*
X256500D01*
X239500Y517000D02*
Y545000D01*
X256500Y517000D02*
Y545000D01*
X211600Y139850D02*
Y174150D01*
X146400Y139850D02*
Y174150D01*
X80500Y450000D02*
Y496000D01*
X41500Y450000D02*
Y496000D01*
X78715D02*
X80500D01*
X78715Y450000D02*
X80500D01*
X41500Y496000D02*
X43285D01*
X41500Y450000D02*
X43285D01*
X250500Y100000D02*
Y192500D01*
X350000D01*
X250500Y100000D02*
X949500D01*
X350000Y161500D02*
Y192500D01*
Y161500D02*
X377000Y134500D01*
X823000D01*
X949500Y100000D02*
Y192500D01*
X850000D02*
X949500D01*
X850000Y161500D02*
Y192500D01*
X823000Y134500D02*
X850000Y161500D01*
X631000Y450000D02*
X661000D01*
X631000Y432000D02*
X661000D01*
Y450000D01*
X631000Y432000D02*
Y450000D01*
X143350Y998400D02*
Y1012400D01*
Y958100D02*
Y972900D01*
Y1012400D02*
X240650D01*
Y998400D02*
Y1012400D01*
Y958100D02*
Y972900D01*
X658755Y819500D02*
X661255D01*
X658755Y817000D02*
Y819500D01*
Y769500D02*
X661255D01*
X658755D02*
Y772000D01*
X706255Y819500D02*
X708755D01*
Y817000D02*
Y819500D01*
X706255Y769500D02*
X708755D01*
Y772000D01*
X439000Y873500D02*
X449000D01*
X439000Y856500D02*
X449000D01*
X401250Y849000D02*
X401250Y855000D01*
X386750D02*
X386750Y849000D01*
X607000Y396000D02*
Y401000D01*
X617000Y396000D02*
Y401000D01*
X219000Y562200D02*
Y575800D01*
X149000Y562200D02*
Y575800D01*
X533000Y687000D02*
Y695000D01*
X505000Y687000D02*
Y695000D01*
X517000Y709000D02*
X521000D01*
X517000Y673000D02*
X521000D01*
X73000Y534500D02*
X83000D01*
X73000Y517500D02*
X83000D01*
X126000Y628000D02*
X131000D01*
X126000Y618000D02*
X131000D01*
X183500Y646000D02*
Y656000D01*
X166500Y646000D02*
Y656000D01*
X216500Y646000D02*
Y656000D01*
X199500Y646000D02*
Y656000D01*
X256000Y593500D02*
X266000D01*
X256000Y610500D02*
X266000D01*
X256000Y562500D02*
X266000D01*
X256000Y579500D02*
X266000D01*
X254000Y634000D02*
X259000D01*
X254000Y624000D02*
X259000D01*
X230000Y670000D02*
Y675000D01*
X240000Y670000D02*
Y675000D01*
X289000Y708000D02*
Y718000D01*
X306000Y708000D02*
Y718000D01*
X319000Y711000D02*
Y716000D01*
X329000Y711000D02*
Y716000D01*
X329500Y845000D02*
Y855000D01*
X312500Y845000D02*
Y855000D01*
X340000Y848000D02*
Y853000D01*
X350000Y848000D02*
Y853000D01*
X447000Y669500D02*
X457000D01*
X447000Y652500D02*
X457000D01*
X448000Y680000D02*
X453000D01*
X448000Y690000D02*
X453000D01*
X442000Y846000D02*
X447000D01*
X442000Y836000D02*
X447000D01*
X495350Y798000D02*
X500350D01*
X495350Y788000D02*
X500350D01*
X495350Y816000D02*
X500350D01*
X495350Y806000D02*
X500350D01*
X515000Y656000D02*
X520000D01*
X515000Y666000D02*
X520000D01*
X517000Y726000D02*
X522000D01*
X517000Y716000D02*
X522000D01*
X517000Y751000D02*
X522000D01*
X517000Y741000D02*
X522000D01*
X359000Y849000D02*
Y854000D01*
X369000Y849000D02*
Y854000D01*
X439750Y508000D02*
X444750D01*
X439750Y518000D02*
X444750D01*
X51376Y244900D02*
Y249900D01*
X41376Y244900D02*
Y249900D01*
X69376Y244900D02*
Y249900D01*
X59376Y244900D02*
Y249900D01*
X129376Y213900D02*
Y218900D01*
X119376Y213900D02*
Y218900D01*
X91376Y228900D02*
X96376D01*
X91376Y218900D02*
X96376D01*
X451000Y396000D02*
Y401000D01*
X441000Y396000D02*
Y401000D01*
X466000Y396000D02*
Y401000D01*
X456000Y396000D02*
Y401000D01*
X373000Y322000D02*
X378000D01*
X373000Y312000D02*
X378000D01*
X346000Y480000D02*
X351000D01*
X346000Y470000D02*
X351000D01*
X533000Y396000D02*
Y401000D01*
X523000Y396000D02*
Y401000D01*
X548000Y396000D02*
Y401000D01*
X538000Y396000D02*
Y401000D01*
X455000Y312000D02*
X460000D01*
X455000Y322000D02*
X460000D01*
X480000Y489000D02*
X485000D01*
X480000Y499000D02*
X485000D01*
X738000Y396000D02*
Y401000D01*
X748000Y396000D02*
Y401000D01*
X752000Y396000D02*
Y401000D01*
X762000Y396000D02*
Y401000D01*
X668000Y322000D02*
X673000D01*
X668000Y312000D02*
X673000D01*
X693000Y518000D02*
X698000D01*
X693000Y528000D02*
X698000D01*
X818000Y396000D02*
Y401000D01*
X828000Y396000D02*
Y401000D01*
X842000Y396000D02*
Y401000D01*
X832000Y396000D02*
Y401000D01*
X749000Y322000D02*
X754000D01*
X749000Y312000D02*
X754000D01*
X772000Y503000D02*
X777000D01*
X772000Y513000D02*
X777000D01*
X607000Y644605D02*
X612000D01*
X607000Y634605D02*
X612000D01*
X879502Y648605D02*
X884502D01*
X879502Y638606D02*
X884502D01*
X648122Y673605D02*
X653122D01*
X648122Y663605D02*
X653122D01*
X920303Y677605D02*
X925303D01*
X920303Y667605D02*
X925303D01*
X741000Y644750D02*
X746000D01*
X741000Y634750D02*
X746000D01*
X1013500Y648606D02*
X1018500D01*
X1013500Y638606D02*
X1018500D01*
X782360Y673750D02*
X787360D01*
X782360Y663750D02*
X787360D01*
X1055122Y677606D02*
X1060122D01*
X1055122Y667606D02*
X1060122D01*
X846000Y780000D02*
Y785000D01*
X856000Y780000D02*
Y785000D01*
X989000Y786750D02*
Y791750D01*
X999000Y786750D02*
Y791750D01*
X846390Y723250D02*
Y728250D01*
X856390Y723250D02*
Y728250D01*
X989390Y721000D02*
Y726000D01*
X999390Y721000D02*
Y726000D01*
X41000Y793250D02*
Y798250D01*
X51000Y793250D02*
Y798250D01*
X711000Y743000D02*
X716000D01*
X711000Y753000D02*
X716000D01*
X655000Y755000D02*
X660000D01*
X655000Y745000D02*
X660000D01*
X667000Y424000D02*
Y429000D01*
X677000Y424000D02*
Y429000D01*
X987500Y200000D02*
X992500D01*
X987500Y210000D02*
X992500D01*
X987500Y182000D02*
X992500D01*
X987500Y192000D02*
X992500D01*
X927000Y212000D02*
X932000D01*
X927000Y202000D02*
X932000D01*
X914000Y285000D02*
Y290000D01*
X924000Y285000D02*
Y290000D01*
X1096500Y252000D02*
Y257000D01*
X1106500Y252000D02*
Y257000D01*
X913000Y406000D02*
X918000D01*
X913000Y396000D02*
X918000D01*
X933000Y426000D02*
Y431000D01*
X943000Y426000D02*
Y431000D01*
X905000Y325000D02*
X910000D01*
X905000Y315000D02*
X910000D01*
X828000Y312000D02*
X833000D01*
X828000Y322000D02*
X833000D01*
X799000Y490000D02*
Y495000D01*
X809000Y490000D02*
Y495000D01*
X623000Y396000D02*
Y401000D01*
X633000Y396000D02*
Y401000D01*
X609950Y312000D02*
X614950D01*
X609950Y322000D02*
X614950D01*
X565250Y503000D02*
X570250D01*
X565250Y513000D02*
X570250D01*
X118500Y494000D02*
X120000D01*
X118500Y522000D02*
X120000D01*
X134000Y494000D02*
X135500D01*
X134000Y522000D02*
X135500D01*
X118500Y494000D02*
Y522000D01*
X135500Y494000D02*
Y522000D01*
X434250Y545500D02*
Y549500D01*
X443250D01*
X434250Y528500D02*
Y532500D01*
Y528500D02*
X443250D01*
X249750Y226500D02*
Y234500D01*
X260750D01*
X249750Y203500D02*
Y211500D01*
Y203500D02*
X260750D01*
X368500Y441500D02*
Y450500D01*
X364500Y441500D02*
X368500D01*
X347500D02*
Y450500D01*
Y441500D02*
X351500D01*
X472500Y459500D02*
X476500D01*
X472500D02*
Y468500D01*
X489500Y459500D02*
X493500D01*
Y468500D01*
X707500Y489500D02*
Y498500D01*
X703500Y489500D02*
X707500D01*
X686500D02*
Y498500D01*
Y489500D02*
X690500D01*
X783500Y474500D02*
Y483500D01*
X779500Y474500D02*
X783500D01*
X762500D02*
Y483500D01*
Y474500D02*
X766500D01*
X1085000Y261500D02*
X1089000D01*
Y252500D02*
Y261500D01*
X1068000D02*
X1072000D01*
X1068000Y252500D02*
Y261500D01*
X833500Y500500D02*
X837500D01*
Y491500D02*
Y500500D01*
X816500D02*
X820500D01*
X816500Y491500D02*
Y500500D01*
X287000Y843000D02*
Y853000D01*
X257000Y843000D02*
Y853000D01*
X315000Y942000D02*
Y952000D01*
X345000Y942000D02*
Y952000D01*
X553000Y942000D02*
Y952000D01*
X523000Y942000D02*
Y952000D01*
X575000Y942000D02*
Y952000D01*
X605000Y942000D02*
Y952000D01*
X627000Y942000D02*
Y952000D01*
X657000Y942000D02*
Y952000D01*
X679000Y942000D02*
Y952000D01*
X709000Y942000D02*
Y952000D01*
X731000Y942000D02*
Y952000D01*
X761000Y942000D02*
Y952000D01*
X783000Y942000D02*
Y952000D01*
X813000Y942000D02*
Y952000D01*
X835000Y942000D02*
Y952000D01*
X865000Y942000D02*
Y952000D01*
X887000Y942000D02*
Y952000D01*
X917000Y942000D02*
Y952000D01*
X388000Y389500D02*
X438000D01*
X388000Y349500D02*
X438000D01*
Y389500D01*
X388000Y349500D02*
Y389500D01*
X470000Y390000D02*
X520000D01*
X470000Y350000D02*
X520000D01*
Y390000D01*
X470000Y350000D02*
Y390000D01*
X685000D02*
X735000D01*
X685000Y350000D02*
X735000D01*
Y390000D01*
X685000Y350000D02*
Y390000D01*
X765000D02*
X815000D01*
X765000Y350000D02*
X815000D01*
Y390000D01*
X765000Y350000D02*
Y390000D01*
X990500Y220000D02*
Y270000D01*
X950500Y220000D02*
Y270000D01*
Y220000D02*
X990500D01*
X950500Y270000D02*
X990500D01*
X845000Y390000D02*
X895000D01*
X845000Y350000D02*
X895000D01*
Y390000D01*
X845000Y350000D02*
Y390000D01*
D11*
X442000Y726000D02*
G03*
X442000Y726000I-3000J0D01*
G01*
D12*
X461250Y717500D02*
G03*
X461250Y717500I-1250J0D01*
G01*
X1045622Y656606D02*
G03*
X1045622Y656606I-1250J0D01*
G01*
X158750Y843750D02*
G03*
X158750Y843750I-1250J0D01*
G01*
X581220Y496240D02*
G03*
X581220Y496240I-1250J0D01*
G01*
X92626Y269400D02*
G03*
X92626Y269400I-1250J0D01*
G01*
X81465Y503395D02*
G03*
X81465Y503395I-1250J0D01*
G01*
X664750Y462000D02*
G03*
X664750Y462000I-1250J0D01*
G01*
X225900Y926850D02*
G03*
X225900Y926850I-1250J0D01*
G01*
X722566Y777000D02*
G03*
X722566Y777000I-1250J0D01*
G01*
X457240Y525030D02*
G03*
X457240Y525030I-1250J0D01*
G01*
X270750Y200500D02*
G03*
X270750Y200500I-1250J0D01*
G01*
X373220Y463240D02*
G03*
X373220Y463240I-1250J0D01*
G01*
X498220Y481240D02*
G03*
X498220Y481240I-1250J0D01*
G01*
X712220Y511240D02*
G03*
X712220Y511240I-1250J0D01*
G01*
X788220Y496240D02*
G03*
X788220Y496240I-1250J0D01*
G01*
X969500Y163000D02*
G03*
X969500Y163000I-1250J0D01*
G01*
X1065780Y239760D02*
G03*
X1065780Y239760I-1250J0D01*
G01*
X814280Y478760D02*
G03*
X814280Y478760I-1250J0D01*
G01*
X246250Y648250D02*
G03*
X246250Y648250I-1250J0D01*
G01*
X638281Y652645D02*
G03*
X638281Y652645I-1250J0D01*
G01*
X910803Y656645D02*
G03*
X910803Y656645I-1250J0D01*
G01*
X772860Y652790D02*
G03*
X772860Y652790I-1250J0D01*
G01*
X83698Y752092D02*
Y742095D01*
X88697D01*
X90363Y743762D01*
Y750426D01*
X88697Y752092D01*
X83698D01*
X100360D02*
X93695D01*
Y742095D01*
X100360D01*
X93695Y747094D02*
X97027D01*
X103692Y752092D02*
Y745428D01*
X107024Y742095D01*
X110357Y745428D01*
Y752092D01*
X120353D02*
X113689D01*
Y742095D01*
X120353D01*
X113689Y747094D02*
X117021D01*
X123686Y752092D02*
Y742095D01*
X130350D01*
X138681Y752092D02*
X135348D01*
X133682Y750426D01*
Y743762D01*
X135348Y742095D01*
X138681D01*
X140347Y743762D01*
Y750426D01*
X138681Y752092D01*
X143679Y742095D02*
Y752092D01*
X148678D01*
X150344Y750426D01*
Y747094D01*
X148678Y745428D01*
X143679D01*
X153676Y742095D02*
Y752092D01*
X157008Y748760D01*
X160340Y752092D01*
Y742095D01*
X170337Y752092D02*
X163673D01*
Y742095D01*
X170337D01*
X163673Y747094D02*
X167005D01*
X173669Y742095D02*
Y752092D01*
X180334Y742095D01*
Y752092D01*
X183666D02*
X190331D01*
X186999D01*
Y742095D01*
X200327Y750426D02*
X198661Y752092D01*
X195329D01*
X193663Y750426D01*
Y748760D01*
X195329Y747094D01*
X198661D01*
X200327Y745428D01*
Y743762D01*
X198661Y742095D01*
X195329D01*
X193663Y743762D01*
X1007664Y116997D02*
X1005998Y118663D01*
X1002666D01*
X1001000Y116997D01*
Y110332D01*
X1002666Y108666D01*
X1005998D01*
X1007664Y110332D01*
X1010997Y108666D02*
Y115331D01*
X1014329Y118663D01*
X1017661Y115331D01*
Y108666D01*
Y113665D01*
X1010997D01*
X1020993Y108666D02*
Y118663D01*
X1027658Y108666D01*
Y118663D01*
X1030990Y107000D02*
X1037655D01*
X1040987Y108666D02*
Y118663D01*
X1045985D01*
X1047652Y116997D01*
Y113665D01*
X1045985Y111998D01*
X1040987D01*
X1050984Y118663D02*
Y108666D01*
X1055982D01*
X1057648Y110332D01*
Y116997D01*
X1055982Y118663D01*
X1050984D01*
X1060981Y108666D02*
Y118663D01*
X1064313Y115331D01*
X1067645Y118663D01*
Y108666D01*
X1070977Y107000D02*
X1077642D01*
X1080974Y118663D02*
Y111998D01*
X1084306Y108666D01*
X1087639Y111998D01*
Y118663D01*
X1090971Y108666D02*
X1094303D01*
X1092637D01*
Y118663D01*
X1090971Y116997D01*
X131698Y758095D02*
Y768092D01*
X138363Y758095D01*
Y768092D01*
X141695Y758095D02*
Y768092D01*
X146694D01*
X148360Y766426D01*
Y763094D01*
X146694Y761428D01*
X141695D01*
X145027D02*
X148360Y758095D01*
X1130500Y700163D02*
Y690166D01*
X1135499D01*
X1137165Y691832D01*
Y698497D01*
X1135499Y700163D01*
X1130500D01*
X1145495Y690166D02*
Y700163D01*
X1140497Y695164D01*
X1147161D01*
X1150494Y688500D02*
X1157158D01*
X1160491Y700163D02*
X1163823D01*
X1162157D01*
Y690166D01*
X1160491D01*
X1163823D01*
X1168821D02*
Y700163D01*
X1175486Y690166D01*
Y700163D01*
X1130500Y752163D02*
Y742166D01*
X1135499D01*
X1137165Y743832D01*
Y750497D01*
X1135499Y752163D01*
X1130500D01*
X1140497Y750497D02*
X1142163Y752163D01*
X1145495D01*
X1147161Y750497D01*
Y748831D01*
X1145495Y747165D01*
X1143829D01*
X1145495D01*
X1147161Y745498D01*
Y743832D01*
X1145495Y742166D01*
X1142163D01*
X1140497Y743832D01*
X1150494Y740500D02*
X1157158D01*
X1160491Y752163D02*
X1163823D01*
X1162157D01*
Y742166D01*
X1160491D01*
X1163823D01*
X1168821D02*
Y752163D01*
X1175486Y742166D01*
Y752163D01*
X1130500Y804163D02*
Y794166D01*
X1135499D01*
X1137165Y795832D01*
Y802497D01*
X1135499Y804163D01*
X1130500D01*
X1147161Y794166D02*
X1140497D01*
X1147161Y800831D01*
Y802497D01*
X1145495Y804163D01*
X1142163D01*
X1140497Y802497D01*
X1150494Y792500D02*
X1157158D01*
X1160491Y804163D02*
X1163823D01*
X1162157D01*
Y794166D01*
X1160491D01*
X1163823D01*
X1168821D02*
Y804163D01*
X1175486Y794166D01*
Y804163D01*
X267164Y884831D02*
X265498Y886497D01*
X262166D01*
X260500Y884831D01*
Y878166D01*
X262166Y876500D01*
X265498D01*
X267164Y878166D01*
X270497Y876500D02*
Y883165D01*
X273829Y886497D01*
X277161Y883165D01*
Y876500D01*
Y881498D01*
X270497D01*
X280494Y876500D02*
Y886497D01*
X287158Y876500D01*
Y886497D01*
X273498Y988163D02*
X270166D01*
X268500Y986497D01*
Y979832D01*
X270166Y978166D01*
X273498D01*
X275165Y979832D01*
Y986497D01*
X273498Y988163D01*
X278497D02*
Y979832D01*
X280163Y978166D01*
X283495D01*
X285161Y979832D01*
Y988163D01*
X288493D02*
X295158D01*
X291826D01*
Y978166D01*
X305155Y986497D02*
X303489Y988163D01*
X300156D01*
X298490Y986497D01*
Y984831D01*
X300156Y983165D01*
X303489D01*
X305155Y981498D01*
Y979832D01*
X303489Y978166D01*
X300156D01*
X298490Y979832D01*
X308487Y976500D02*
X315152D01*
X325148Y986497D02*
X323482Y988163D01*
X320150D01*
X318484Y986497D01*
Y984831D01*
X320150Y983165D01*
X323482D01*
X325148Y981498D01*
Y979832D01*
X323482Y978166D01*
X320150D01*
X318484Y979832D01*
X328481Y988163D02*
X335145D01*
X331813D01*
Y978166D01*
X338477D02*
Y984831D01*
X341810Y988163D01*
X345142Y984831D01*
Y978166D01*
Y983165D01*
X338477D01*
X348474Y988163D02*
X355139D01*
X351806D01*
Y978166D01*
X358471Y988163D02*
Y979832D01*
X360137Y978166D01*
X363469D01*
X365135Y979832D01*
Y988163D01*
X375132Y986497D02*
X373466Y988163D01*
X370134D01*
X368468Y986497D01*
Y984831D01*
X370134Y983165D01*
X373466D01*
X375132Y981498D01*
Y979832D01*
X373466Y978166D01*
X370134D01*
X368468Y979832D01*
X295500Y495500D02*
X285503D01*
Y500498D01*
X287169Y502164D01*
X290502D01*
X292168Y500498D01*
Y495500D01*
X285503Y512161D02*
Y505497D01*
X290502D01*
X288836Y508829D01*
Y510495D01*
X290502Y512161D01*
X293834D01*
X295500Y510495D01*
Y507163D01*
X293834Y505497D01*
X285503Y515494D02*
X292168D01*
X295500Y518826D01*
X292168Y522158D01*
X285503D01*
X161500Y270500D02*
X151503D01*
Y275498D01*
X153169Y277164D01*
X156502D01*
X158168Y275498D01*
Y270500D01*
Y273832D02*
X161500Y277164D01*
X153169Y287161D02*
X151503Y285495D01*
Y282163D01*
X153169Y280497D01*
X159834D01*
X161500Y282163D01*
Y285495D01*
X159834Y287161D01*
X161500Y290494D02*
X154836D01*
X151503Y293826D01*
X154836Y297158D01*
X161500D01*
X156502D01*
Y290494D01*
X161500Y300490D02*
X151503D01*
X161500Y307155D01*
X151503D01*
X586498Y472497D02*
X583166D01*
X581500Y470831D01*
Y464166D01*
X583166Y462500D01*
X586498D01*
X588164Y464166D01*
Y470831D01*
X586498Y472497D01*
X591497D02*
X598161D01*
X594829D01*
Y462500D01*
X608158Y472497D02*
X601493D01*
Y462500D01*
X608158D01*
X601493Y467498D02*
X604826D01*
X611490Y462500D02*
Y472497D01*
X614823Y469165D01*
X618155Y472497D01*
Y462500D01*
X621487D02*
Y472497D01*
X626485D01*
X628152Y470831D01*
Y467498D01*
X626485Y465832D01*
X621487D01*
X567500Y765497D02*
Y755500D01*
X572498D01*
X574165Y757166D01*
Y758832D01*
X572498Y760498D01*
X567500D01*
X572498D01*
X574165Y762165D01*
Y763831D01*
X572498Y765497D01*
X567500D01*
X577497Y755500D02*
Y765497D01*
X582495D01*
X584161Y763831D01*
Y760498D01*
X582495Y758832D01*
X577497D01*
X580829D02*
X584161Y755500D01*
X587494Y765497D02*
Y755500D01*
X592492D01*
X594158Y757166D01*
Y763831D01*
X592492Y765497D01*
X587494D01*
X358500Y586497D02*
Y576500D01*
X363498D01*
X365164Y578166D01*
Y579832D01*
X363498Y581498D01*
X358500D01*
X363498D01*
X365164Y583164D01*
Y584831D01*
X363498Y586497D01*
X358500D01*
X370163Y576500D02*
X373495D01*
X375161Y578166D01*
Y581498D01*
X373495Y583164D01*
X370163D01*
X368497Y581498D01*
Y578166D01*
X370163Y576500D01*
X380160D02*
X383492D01*
X385158Y578166D01*
Y581498D01*
X383492Y583164D01*
X380160D01*
X378493Y581498D01*
Y578166D01*
X380160Y576500D01*
X390156Y584831D02*
Y583164D01*
X388490D01*
X391823D01*
X390156D01*
Y578166D01*
X391823Y576500D01*
X396821Y584831D02*
X398487Y586497D01*
X401819D01*
X403485Y584831D01*
Y578166D01*
X401819Y576500D01*
X398487D01*
X396821Y578166D01*
Y584831D01*
X1130500Y856163D02*
Y846166D01*
X1135498D01*
X1137165Y847832D01*
Y854497D01*
X1135498Y856163D01*
X1130500D01*
X1140497Y846166D02*
X1143829D01*
X1142163D01*
Y856163D01*
X1140497Y854497D01*
X1148827Y844500D02*
X1155492D01*
X1158824Y856163D02*
X1162156D01*
X1160490D01*
Y846166D01*
X1158824D01*
X1162156D01*
X1167155D02*
Y856163D01*
X1173819Y846166D01*
Y856163D01*
X236500Y703500D02*
X226503D01*
Y708498D01*
X228169Y710164D01*
X231502D01*
X233168Y708498D01*
Y703500D01*
X228169Y713497D02*
X226503Y715163D01*
Y718495D01*
X228169Y720161D01*
X229835D01*
X231502Y718495D01*
Y716829D01*
Y718495D01*
X233168Y720161D01*
X234834D01*
X236500Y718495D01*
Y715163D01*
X234834Y713497D01*
X226503Y723493D02*
X233168D01*
X236500Y726826D01*
X233168Y730158D01*
X226503D01*
X228169Y733490D02*
X226503Y735156D01*
Y738489D01*
X228169Y740155D01*
X229835D01*
X231502Y738489D01*
Y736823D01*
Y738489D01*
X233168Y740155D01*
X234834D01*
X236500Y738489D01*
Y735156D01*
X234834Y733490D01*
D13*
X122000Y609500D02*
G03*
X122000Y609500I-1000J0D01*
G01*
X605000Y404500D02*
G03*
X605000Y404500I-1000J0D01*
G01*
X442000D02*
G03*
X442000Y404500I-1000J0D01*
G01*
X524000Y405000D02*
G03*
X524000Y405000I-1000J0D01*
G01*
X739000D02*
G03*
X739000Y405000I-1000J0D01*
G01*
X819000D02*
G03*
X819000Y405000I-1000J0D01*
G01*
X1006500Y217000D02*
G03*
X1006500Y217000I-1000J0D01*
G01*
X899000Y405000D02*
G03*
X899000Y405000I-1000J0D01*
G01*
X43076Y631476D02*
X40993Y633559D01*
X36828D01*
X34745Y631476D01*
Y623145D01*
X36828Y621063D01*
X40993D01*
X43076Y623145D01*
Y627310D01*
X38911D01*
X47241Y621063D02*
Y633559D01*
X55572Y621063D01*
Y633559D01*
X59737D02*
Y621063D01*
X65985D01*
X68068Y623145D01*
Y631476D01*
X65985Y633559D01*
X59737D01*
X114554Y691642D02*
Y704138D01*
X120802D01*
X122885Y702055D01*
Y697890D01*
X120802Y695807D01*
X114554D01*
X127050Y702055D02*
X129133Y704138D01*
X133298D01*
X135381Y702055D01*
Y699973D01*
X133298Y697890D01*
X131215D01*
X133298D01*
X135381Y695807D01*
Y693725D01*
X133298Y691642D01*
X129133D01*
X127050Y693725D01*
X139546Y704138D02*
Y695807D01*
X143711Y691642D01*
X147877Y695807D01*
Y704138D01*
X350339Y538752D02*
Y551248D01*
X356587D01*
X358669Y549165D01*
Y545000D01*
X356587Y542917D01*
X350339D01*
X371165Y551248D02*
X362835D01*
Y545000D01*
X367000Y547083D01*
X369083D01*
X371165Y545000D01*
Y540835D01*
X369083Y538752D01*
X364917D01*
X362835Y540835D01*
X375331Y551248D02*
Y542917D01*
X379496Y538752D01*
X383661Y542917D01*
Y551248D01*
X89916Y470154D02*
Y485389D01*
X94994Y480311D01*
X100073Y485389D01*
Y470154D01*
X105151D02*
Y485389D01*
X112769D01*
X115308Y482850D01*
Y477771D01*
X112769Y475232D01*
X105151D01*
X120386Y470154D02*
X125464D01*
X122925D01*
Y485389D01*
X120386Y482850D01*
X970280Y298445D02*
Y285749D01*
X972819Y283210D01*
X977897D01*
X980437Y285749D01*
Y298445D01*
X985515Y283210D02*
X990593D01*
X988054D01*
Y298445D01*
X985515Y295906D01*
X1008368Y298445D02*
X1003289Y295906D01*
X998211Y290828D01*
Y285749D01*
X1000750Y283210D01*
X1005828D01*
X1008368Y285749D01*
Y288288D01*
X1005828Y290828D01*
X998211D01*
X989838Y470154D02*
Y485389D01*
X994916Y480311D01*
X999995Y485389D01*
Y470154D01*
X1005073D02*
Y485389D01*
X1012691D01*
X1015230Y482850D01*
Y477771D01*
X1012691Y475232D01*
X1005073D01*
X1030465Y470154D02*
X1020308D01*
X1030465Y480311D01*
Y482850D01*
X1027926Y485389D01*
X1022847D01*
X1020308Y482850D01*
D14*
X255500Y552000D02*
G03*
X255500Y552000I-500J0D01*
G01*
X1167872Y672129D02*
G03*
X1167872Y672129I-500J0D01*
G01*
X134500Y529000D02*
G03*
X134500Y529000I-500J0D01*
G01*
X297371Y554371D02*
G03*
X297371Y554371I-500J0D01*
G01*
X222371Y741371D02*
G03*
X222371Y741371I-500J0D01*
G01*
X594871Y738129D02*
G03*
X594871Y738129I-500J0D01*
G01*
X625871Y478129D02*
G03*
X625871Y478129I-500J0D01*
G01*
X1167871Y828129D02*
G03*
X1167871Y828129I-500J0D01*
G01*
X1167872Y776129D02*
G03*
X1167872Y776129I-500J0D01*
G01*
Y724129D02*
G03*
X1167872Y724129I-500J0D01*
G01*
X344000Y543000D02*
G03*
X344000Y543000I-20000J0D01*
G01*
X196000Y698000D02*
G03*
X196000Y698000I-20000J0D01*
G01*
X69000Y663000D02*
G03*
X69000Y663000I-20000J0D01*
G01*
X1050122Y653605D02*
X1066122D01*
X1050122Y623605D02*
X1066122D01*
X100376Y237900D02*
X120376D01*
X100376Y267900D02*
X120376D01*
Y237900D02*
Y267900D01*
X100376Y237900D02*
Y267900D01*
X813500Y427000D02*
Y437000D01*
X828500Y427000D02*
Y437000D01*
X548000Y424500D02*
Y429500D01*
X558000Y424500D02*
Y429500D01*
X1148000Y684000D02*
X1158000D01*
X1148000Y674000D02*
X1158000D01*
X974000Y130000D02*
X990000D01*
X974000Y160000D02*
X990000D01*
X295000Y535000D02*
Y545000D01*
X285000Y535000D02*
Y545000D01*
X210000Y722000D02*
Y732000D01*
X220000Y722000D02*
Y732000D01*
X575000Y740000D02*
X585000D01*
X575000Y750000D02*
X585000D01*
X606000Y490000D02*
X616000D01*
X606000Y480000D02*
X616000D01*
X1148000Y830000D02*
X1158000D01*
X1148000Y840000D02*
X1158000D01*
X1148000Y778000D02*
X1158000D01*
X1148000Y788000D02*
X1158000D01*
X1148000Y726000D02*
X1158000D01*
X1148000Y736000D02*
X1158000D01*
X82500Y625000D02*
X87500D01*
X82500Y635000D02*
X87500D01*
X276000Y537500D02*
Y542500D01*
X266000Y537500D02*
Y542500D01*
X77000Y553500D02*
Y558500D01*
X67000Y553500D02*
Y558500D01*
X64500Y589000D02*
X69500D01*
X64500Y579000D02*
X69500D01*
X64500Y600000D02*
X69500D01*
X64500Y610000D02*
X69500D01*
X220000Y689500D02*
Y694500D01*
X210000Y689500D02*
Y694500D01*
X92500Y555000D02*
X97500D01*
X92500Y545000D02*
X97500D01*
X577500Y722000D02*
X582500D01*
X577500Y732000D02*
X582500D01*
X435000Y617500D02*
Y622500D01*
X425000Y617500D02*
Y622500D01*
X421750Y501500D02*
Y506500D01*
X411750Y501500D02*
Y506500D01*
X408000Y538500D02*
Y543500D01*
X418000Y538500D02*
Y543500D01*
X439250Y493000D02*
X444250D01*
X439250Y503000D02*
X444250D01*
X162000Y247500D02*
Y252500D01*
X152000Y247500D02*
Y252500D01*
X316500Y516000D02*
X321500D01*
X316500Y506000D02*
X321500D01*
X105876Y286900D02*
X110876D01*
X105876Y276900D02*
X110876D01*
X236000Y811500D02*
Y816500D01*
X246000Y811500D02*
Y816500D01*
X286750Y804000D02*
X291750D01*
X286750Y814000D02*
X291750D01*
X305000Y780500D02*
Y785500D01*
X295000Y780500D02*
Y785500D01*
X320000Y780500D02*
Y785500D01*
X310000Y780500D02*
Y785500D01*
X426500Y427000D02*
Y437000D01*
X441500Y427000D02*
Y437000D01*
X390000Y426500D02*
Y431500D01*
X380000Y426500D02*
Y431500D01*
X399000Y426500D02*
Y431500D01*
X409000Y426500D02*
Y431500D01*
X330000Y423500D02*
Y428500D01*
X340000Y423500D02*
Y428500D01*
X357500Y415000D02*
X362500D01*
X357500Y425000D02*
X362500D01*
X356250Y397000D02*
X361250D01*
X356250Y407000D02*
X361250D01*
X484000Y426500D02*
Y431500D01*
X494000Y426500D02*
Y431500D01*
X509000Y426500D02*
Y431500D01*
X499000Y426500D02*
Y431500D01*
X466000Y463500D02*
Y468500D01*
X456000Y463500D02*
Y468500D01*
X479000Y426500D02*
Y431500D01*
X469000Y426500D02*
Y431500D01*
X464000Y426500D02*
Y431500D01*
X454000Y426500D02*
Y431500D01*
X249000Y780500D02*
Y785500D01*
X259000Y780500D02*
Y785500D01*
X275000Y780500D02*
Y785500D01*
X265000Y780500D02*
Y785500D01*
X698000Y424500D02*
Y429500D01*
X708000Y424500D02*
Y429500D01*
X722000Y424500D02*
Y429500D01*
X712000Y424500D02*
Y429500D01*
X679000Y491500D02*
Y496500D01*
X669000Y491500D02*
Y496500D01*
X677500Y464000D02*
X682500D01*
X677500Y474000D02*
X682500D01*
X677500Y455000D02*
X682500D01*
X677500Y445000D02*
X682500D01*
X778000Y424500D02*
Y429500D01*
X788000Y424500D02*
Y429500D01*
X803000Y424500D02*
Y429500D01*
X793000Y424500D02*
Y429500D01*
X754000Y485500D02*
Y490500D01*
X744000Y485500D02*
Y490500D01*
X773500Y447000D02*
X778500D01*
X773500Y457000D02*
X778500D01*
X759000Y424500D02*
Y429500D01*
X769000Y424500D02*
Y429500D01*
X654622Y610606D02*
X659622D01*
X654622Y600606D02*
X659622D01*
X927248Y614267D02*
X932248D01*
X927248Y604267D02*
X932248D01*
X607500Y591605D02*
X612500D01*
X607500Y581605D02*
X612500D01*
X607500Y685605D02*
X612500D01*
X607500Y675605D02*
X612500D01*
X880002Y595606D02*
X885002D01*
X880002Y585606D02*
X885002D01*
X880002Y689968D02*
X885002D01*
X880002Y679968D02*
X885002D01*
X682122Y632105D02*
Y637105D01*
X692122Y632105D02*
Y637105D01*
X950000Y636500D02*
Y641500D01*
X960000Y636500D02*
Y641500D01*
X607500Y656606D02*
X612500D01*
X607500Y666606D02*
X612500D01*
X880002Y660606D02*
X885002D01*
X880002Y670606D02*
X885002D01*
X607500Y609605D02*
X612500D01*
X607500Y599605D02*
X612500D01*
X880002Y613520D02*
X885002D01*
X880002Y603520D02*
X885002D01*
X607500Y627606D02*
X612500D01*
X607500Y617606D02*
X612500D01*
X880002Y631394D02*
X885002D01*
X880002Y621394D02*
X885002D01*
X585000Y627500D02*
Y632500D01*
X575000Y627500D02*
Y632500D01*
X842122Y632105D02*
Y637105D01*
X852122Y632105D02*
Y637105D01*
X788982Y610355D02*
X793982D01*
X788982Y600355D02*
X793982D01*
X1061846Y614030D02*
X1066846D01*
X1061846Y604030D02*
X1066846D01*
X741500Y591866D02*
X746500D01*
X741500Y581866D02*
X746500D01*
X741500Y686014D02*
X746500D01*
X741500Y676014D02*
X746500D01*
X1014077Y585540D02*
X1019077D01*
X1014077Y595540D02*
X1019077D01*
X1014000Y690000D02*
X1019000D01*
X1014000Y680000D02*
X1019000D01*
X815928Y632250D02*
Y637250D01*
X825928Y632250D02*
Y637250D01*
X1084000Y636500D02*
Y641500D01*
X1094000Y636500D02*
Y641500D01*
X741500Y656750D02*
X746500D01*
X741500Y666750D02*
X746500D01*
X1014000Y661000D02*
X1019000D01*
X1014000Y671000D02*
X1019000D01*
X741500Y609973D02*
X746500D01*
X741500Y599973D02*
X746500D01*
X1014000Y613566D02*
X1019000D01*
X1014000Y603566D02*
X1019000D01*
X741500Y627837D02*
X746500D01*
X741500Y617837D02*
X746500D01*
X1014000Y631392D02*
X1019000D01*
X1014000Y621392D02*
X1019000D01*
X710000Y632250D02*
Y637250D01*
X720000Y632250D02*
Y637250D01*
X978122Y636106D02*
Y641106D01*
X988122Y636106D02*
Y641106D01*
X823500Y762000D02*
X828500D01*
X823500Y772000D02*
X828500D01*
X966500Y768750D02*
X971500D01*
X966500Y778750D02*
X971500D01*
X864000Y779500D02*
Y784500D01*
X874000Y779500D02*
Y784500D01*
X823500Y787000D02*
X828500D01*
X823500Y777000D02*
X828500D01*
X1007000Y786500D02*
Y791500D01*
X1017000Y786500D02*
Y791500D01*
X966500Y793750D02*
X971500D01*
X966500Y783750D02*
X971500D01*
X823500Y802000D02*
X828500D01*
X823500Y792000D02*
X828500D01*
X966500Y808750D02*
X971500D01*
X966500Y798750D02*
X971500D01*
X823890Y706250D02*
X828890D01*
X823890Y716250D02*
X828890D01*
X966500Y702000D02*
X971500D01*
X966500Y712000D02*
X971500D01*
X864390Y722750D02*
Y727750D01*
X874390Y722750D02*
Y727750D01*
X823890Y731250D02*
X828890D01*
X823890Y721250D02*
X828890D01*
X1007390Y720500D02*
Y725500D01*
X1017390Y720500D02*
Y725500D01*
X966500Y728000D02*
X971500D01*
X966500Y718000D02*
X971500D01*
X823890Y746250D02*
X828890D01*
X823890Y736250D02*
X828890D01*
X966500Y743000D02*
X971500D01*
X966500Y733000D02*
X971500D01*
X401500Y630000D02*
X406500D01*
X401500Y640000D02*
X406500D01*
X401500Y612000D02*
X406500D01*
X401500Y622000D02*
X406500D01*
X733500Y769000D02*
X738500D01*
X733500Y759000D02*
X738500D01*
X655500Y728000D02*
X660500D01*
X655500Y738000D02*
X660500D01*
X637000Y756500D02*
Y761500D01*
X627000Y756500D02*
Y761500D01*
X608500Y498000D02*
X613500D01*
X608500Y508000D02*
X613500D01*
X310500Y902000D02*
X315500D01*
X310500Y912000D02*
X315500D01*
X343500D02*
X348500D01*
X343500Y902000D02*
X348500D01*
X510500Y611000D02*
X515500D01*
X510500Y601000D02*
X515500D01*
X510500Y555000D02*
X515500D01*
X510500Y565000D02*
X515500D01*
X510500Y589000D02*
X515500D01*
X510500Y579000D02*
X515500D01*
X1018000Y199000D02*
Y209000D01*
X1033000Y199000D02*
Y209000D01*
X1025000Y250000D02*
X1030000D01*
X1025000Y240000D02*
X1030000D01*
X1025000Y264000D02*
X1030000D01*
X1025000Y274000D02*
X1030000D01*
X1025000Y225000D02*
X1030000D01*
X1025000Y235000D02*
X1030000D01*
X1025000Y280000D02*
X1030000D01*
X1025000Y290000D02*
X1030000D01*
X1083000Y278000D02*
X1088000D01*
X1083000Y288000D02*
X1088000D01*
X1057500Y258500D02*
Y263500D01*
X1047500Y258500D02*
Y263500D01*
Y228500D02*
Y233500D01*
X1057500Y228500D02*
Y233500D01*
X243000Y780500D02*
Y785500D01*
X233000Y780500D02*
Y785500D01*
X510500Y540000D02*
X515500D01*
X510500Y530000D02*
X515500D01*
X228000Y780500D02*
Y785500D01*
X218000Y780500D02*
Y785500D01*
X904500Y427000D02*
Y437000D01*
X919500Y427000D02*
Y437000D01*
X878000Y425500D02*
Y430500D01*
X868000Y425500D02*
Y430500D01*
X858000Y425500D02*
Y430500D01*
X848000Y425500D02*
Y430500D01*
X883000Y425500D02*
Y430500D01*
X893000Y425500D02*
Y430500D01*
X856000Y460500D02*
Y465500D01*
X846000Y460500D02*
Y465500D01*
X815500Y527000D02*
X820500D01*
X815500Y517000D02*
X820500D01*
X865000Y457500D02*
Y462500D01*
X875000Y457500D02*
Y462500D01*
X897500Y489000D02*
X902500D01*
X897500Y479000D02*
X902500D01*
X535000Y887500D02*
Y892500D01*
X525000Y887500D02*
Y892500D01*
X553000Y887500D02*
Y892500D01*
X543000Y887500D02*
Y892500D01*
X587000Y887500D02*
Y892500D01*
X577000Y887500D02*
Y892500D01*
X605000Y887500D02*
Y892500D01*
X595000Y887500D02*
Y892500D01*
X639000Y887500D02*
Y892500D01*
X629000Y887500D02*
Y892500D01*
X657000Y887500D02*
Y892500D01*
X647000Y887500D02*
Y892500D01*
X691000Y887500D02*
Y892500D01*
X681000Y887500D02*
Y892500D01*
X709000Y887500D02*
Y892500D01*
X699000Y887500D02*
Y892500D01*
X743000Y887500D02*
Y892500D01*
X733000Y887500D02*
Y892500D01*
X761000Y887500D02*
Y892500D01*
X751000Y887500D02*
Y892500D01*
X795000Y887500D02*
Y892500D01*
X785000Y887500D02*
Y892500D01*
X813000Y887500D02*
Y892500D01*
X803000Y887500D02*
Y892500D01*
X847000Y887500D02*
Y892500D01*
X837000Y887500D02*
Y892500D01*
X865000Y887500D02*
Y892500D01*
X855000Y887500D02*
Y892500D01*
X899000Y887500D02*
Y892500D01*
X889000Y887500D02*
Y892500D01*
X917000Y887500D02*
Y892500D01*
X907000Y887500D02*
Y892500D01*
X951000Y887500D02*
Y892500D01*
X941000Y887500D02*
Y892500D01*
X969000Y887500D02*
Y892500D01*
X959000Y887500D02*
Y892500D01*
X1108500Y840000D02*
X1113500D01*
X1108500Y830000D02*
X1113500D01*
X1108500Y788000D02*
X1113500D01*
X1108500Y778000D02*
X1113500D01*
X1108500Y736000D02*
X1113500D01*
X1108500Y726000D02*
X1113500D01*
X1108500Y684000D02*
X1113500D01*
X1108500Y674000D02*
X1113500D01*
X162000Y890500D02*
Y895500D01*
X172000Y890500D02*
Y895500D01*
X181000Y890500D02*
Y895500D01*
X191000Y890500D02*
Y895500D01*
X219000Y890500D02*
Y895500D01*
X229000Y890500D02*
Y895500D01*
X238000Y890500D02*
Y895500D01*
X248000Y890500D02*
Y895500D01*
X200000Y890500D02*
Y895500D01*
X210000Y890500D02*
Y895500D01*
X143000Y890500D02*
Y895500D01*
X153000Y890500D02*
Y895500D01*
X290000Y780500D02*
Y785500D01*
X280000Y780500D02*
Y785500D01*
X566000Y424500D02*
Y429500D01*
X576000Y424500D02*
Y429500D01*
X590000Y424500D02*
Y429500D01*
X580000Y424500D02*
Y429500D01*
X547000Y486500D02*
Y491500D01*
X537000Y486500D02*
Y491500D01*
X556500Y447000D02*
X561500D01*
X556500Y457000D02*
X561500D01*
X278000Y654000D02*
Y670000D01*
X248000Y654000D02*
Y670000D01*
X642781Y649645D02*
X658781D01*
X642781Y619645D02*
X658781D01*
X915303Y653645D02*
X931303D01*
X915303Y623645D02*
X931303D01*
X777360Y649790D02*
X793360D01*
X777360Y619790D02*
X793360D01*
X519500Y427000D02*
Y437000D01*
X534500Y427000D02*
Y437000D01*
X601500Y427000D02*
Y437000D01*
X616500Y427000D02*
Y437000D01*
X733500Y427000D02*
Y437000D01*
X748500Y427000D02*
Y437000D01*
D15*
X466250Y258000D02*
G03*
X466250Y258000I-2000J0D01*
G01*
X577000Y995994D02*
Y976000D01*
Y985997D01*
X590329D01*
Y995994D01*
Y976000D01*
X610323D02*
X596993D01*
X610323Y989329D01*
Y992661D01*
X606990Y995994D01*
X600326D01*
X596993Y992661D01*
X629000Y995994D02*
Y976000D01*
Y985997D01*
X642329D01*
Y995994D01*
Y976000D01*
X648994Y992661D02*
X652326Y995994D01*
X658990D01*
X662323Y992661D01*
Y989329D01*
X658990Y985997D01*
X655658D01*
X658990D01*
X662323Y982664D01*
Y979332D01*
X658990Y976000D01*
X652326D01*
X648994Y979332D01*
X941000Y995994D02*
Y976000D01*
X954329D01*
X970990D02*
Y995994D01*
X960994Y985997D01*
X974323D01*
X889000Y995994D02*
Y976000D01*
X902329D01*
X908994Y992661D02*
X912326Y995994D01*
X918990D01*
X922323Y992661D01*
Y989329D01*
X918990Y985997D01*
X915658D01*
X918990D01*
X922323Y982664D01*
Y979332D01*
X918990Y976000D01*
X912326D01*
X908994Y979332D01*
X785000Y995994D02*
Y976000D01*
X798329D01*
X804994D02*
X811658D01*
X808326D01*
Y995994D01*
X804994Y992661D01*
X733000Y976000D02*
Y995994D01*
X739665Y989329D01*
X746329Y995994D01*
Y976000D01*
X766323D02*
X752993D01*
X766323Y989329D01*
Y992661D01*
X762990Y995994D01*
X756326D01*
X752993Y992661D01*
X837000Y995994D02*
Y976000D01*
X850329D01*
X870323D02*
X856993D01*
X870323Y989329D01*
Y992661D01*
X866990Y995994D01*
X860326D01*
X856993Y992661D01*
X681000Y976000D02*
Y995994D01*
X687664Y989329D01*
X694329Y995994D01*
Y976000D01*
X700993D02*
X707658D01*
X704326D01*
Y995994D01*
X700993Y992661D01*
X525000Y995994D02*
Y976000D01*
Y985997D01*
X538329D01*
Y995994D01*
Y976000D01*
X544994D02*
X551658D01*
X548326D01*
Y995994D01*
X544994Y992661D01*
D16*
X540000Y671000D02*
G03*
X540000Y671000I-1000J0D01*
G01*
X240500Y538500D02*
X255500D01*
X240500Y541000D02*
X255500D01*
X119500Y515500D02*
X134500D01*
X119500Y518000D02*
X134500D01*
D17*
X315500Y574000D02*
Y592000D01*
Y574000D02*
X340500D01*
Y575500D01*
Y591500D02*
Y610500D01*
Y626500D02*
Y628000D01*
X315500D02*
X340500D01*
X315500Y609500D02*
Y628000D01*
X73000Y837200D02*
X113000D01*
X73000Y786800D02*
X113000D01*
M02*
