G04*
G04 #@! TF.GenerationSoftware,Altium Limited,Altium Designer,25.0.2 (28)*
G04*
G04 Layer_Color=32896*
%FSLAX44Y44*%
%MOMM*%
G71*
G04*
G04 #@! TF.SameCoordinates,69D28B2F-FB57-41E7-A4BE-4A81C47ECC68*
G04*
G04*
G04 #@! TF.FilePolarity,Positive*
G04*
G01*
G75*
%ADD11C,0.1000*%
%ADD12C,0.2500*%
D11*
X301000Y976000D02*
G03*
X301000Y976000I-20000J0D01*
G01*
X154000Y853000D02*
G03*
X154000Y853000I-20000J0D01*
G01*
X136000Y899000D02*
G03*
X136000Y899000I-20000J0D01*
G01*
X140000Y976000D02*
G03*
X140000Y976000I-20000J0D01*
G01*
X740000Y480000D02*
G03*
X740000Y480000I-20000J0D01*
G01*
X391000Y976000D02*
G03*
X391000Y976000I-20000J0D01*
G01*
X346000D02*
G03*
X346000Y976000I-20000J0D01*
G01*
X436000Y976000D02*
G03*
X436000Y976000I-20000J0D01*
G01*
X238000Y857000D02*
G03*
X238000Y857000I-20000J0D01*
G01*
X-91000Y499000D02*
G03*
X-91000Y499000I-20000J0D01*
G01*
X687255Y708255D02*
G03*
X687255Y708255I-20000J0D01*
G01*
X753255D02*
G03*
X753255Y708255I-20000J0D01*
G01*
X133000Y755000D02*
G03*
X133000Y755000I-20000J0D01*
G01*
X58000Y754000D02*
G03*
X58000Y754000I-20000J0D01*
G01*
X1358000Y-221000D02*
G03*
X1358000Y-221000I-20000J0D01*
G01*
X1599326D02*
G03*
X1599326Y-221000I-20000J0D01*
G01*
X1516677D02*
G03*
X1516677Y-221000I-20000J0D01*
G01*
X1436000D02*
G03*
X1436000Y-221000I-20000J0D01*
G01*
D12*
X1514602Y-249083D02*
X1507937D01*
X1511270D01*
Y-259080D01*
X1504605D02*
Y-249083D01*
X1499607D01*
X1497941Y-250749D01*
Y-254082D01*
X1499607Y-255748D01*
X1504605D01*
X76665Y888332D02*
X78331Y889998D01*
X81663D01*
X83329Y888332D01*
Y881668D01*
X81663Y880002D01*
X78331D01*
X76665Y881668D01*
X66668Y888332D02*
X68334Y889998D01*
X71666D01*
X73332Y888332D01*
Y881668D01*
X71666Y880002D01*
X68334D01*
X66668Y881668D01*
X56671Y880002D02*
X63335D01*
X56671Y886666D01*
Y888332D01*
X58337Y889998D01*
X61669D01*
X63335Y888332D01*
X124908Y946353D02*
X126574Y948019D01*
X129906D01*
X131572Y946353D01*
Y939688D01*
X129906Y938022D01*
X126574D01*
X124908Y939688D01*
X114911Y946353D02*
X116577Y948019D01*
X119909D01*
X121575Y946353D01*
Y939688D01*
X119909Y938022D01*
X116577D01*
X114911Y939688D01*
X111578Y938022D02*
X108246D01*
X109912D01*
Y948019D01*
X111578Y946353D01*
X143958Y823163D02*
X145624Y824829D01*
X148956D01*
X150622Y823163D01*
Y821497D01*
X148956Y819830D01*
X145624D01*
X143958Y818164D01*
Y816498D01*
X145624Y814832D01*
X148956D01*
X150622Y816498D01*
X140625Y824829D02*
Y814832D01*
X135627D01*
X133961Y816498D01*
Y818164D01*
X135627Y819830D01*
X140625D01*
X135627D01*
X133961Y821497D01*
Y823163D01*
X135627Y824829D01*
X140625D01*
X130628D02*
Y816498D01*
X128962Y814832D01*
X125630D01*
X123964Y816498D01*
Y824829D01*
X120632Y814832D02*
X117299D01*
X118966D01*
Y824829D01*
X120632Y823163D01*
X229555Y827227D02*
X231222Y828893D01*
X234554D01*
X236220Y827227D01*
Y825561D01*
X234554Y823894D01*
X231222D01*
X229555Y822228D01*
Y820562D01*
X231222Y818896D01*
X234554D01*
X236220Y820562D01*
X226223Y828893D02*
Y818896D01*
X221225D01*
X219559Y820562D01*
Y822228D01*
X221225Y823894D01*
X226223D01*
X221225D01*
X219559Y825561D01*
Y827227D01*
X221225Y828893D01*
X226223D01*
X216226D02*
Y820562D01*
X214560Y818896D01*
X211228D01*
X209562Y820562D01*
Y828893D01*
X199565Y818896D02*
X206230D01*
X199565Y825561D01*
Y827227D01*
X201231Y828893D01*
X204564D01*
X206230Y827227D01*
X738124Y441960D02*
Y448624D01*
X734792Y451957D01*
X731460Y448624D01*
Y441960D01*
Y446958D01*
X738124D01*
X728127Y451957D02*
Y441960D01*
X721463D01*
X711466Y451957D02*
X718130D01*
Y441960D01*
X711466D01*
X718130Y446958D02*
X714798D01*
X708134Y441960D02*
Y451957D01*
X703135D01*
X701469Y450291D01*
Y446958D01*
X703135Y445292D01*
X708134D01*
X704801D02*
X701469Y441960D01*
X698137Y451957D02*
X691472D01*
X694805D01*
Y441960D01*
X824738Y713323D02*
X821406D01*
X823072D01*
Y703326D01*
X824738D01*
X821406D01*
X816407D02*
Y713323D01*
X809743Y703326D01*
Y713323D01*
X806411D02*
X799746D01*
X803078D01*
Y703326D01*
X786417Y713323D02*
X783085D01*
X784751D01*
Y703326D01*
X786417D01*
X783085D01*
X778086D02*
X771422Y709990D01*
X763091Y713323D02*
X766423D01*
X768090Y711657D01*
Y704992D01*
X766423Y703326D01*
X763091D01*
X761425Y704992D01*
Y711657D01*
X763091Y713323D01*
X696863Y670090D02*
Y680087D01*
X691865D01*
X690199Y678421D01*
Y675088D01*
X691865Y673422D01*
X696863D01*
X693531D02*
X690199Y670090D01*
X680202Y678421D02*
X681868Y680087D01*
X685200D01*
X686866Y678421D01*
Y676755D01*
X685200Y675088D01*
X681868D01*
X680202Y673422D01*
Y671756D01*
X681868Y670090D01*
X685200D01*
X686866Y671756D01*
X676870Y680087D02*
X670205D01*
X673537D01*
Y670090D01*
X666873Y668424D02*
X660208D01*
X656876Y680087D02*
X653544D01*
X655210D01*
Y670090D01*
X656876D01*
X653544D01*
X648545D02*
X641881Y676755D01*
X633550Y680087D02*
X636882D01*
X638549Y678421D01*
Y671756D01*
X636882Y670090D01*
X633550D01*
X631884Y671756D01*
Y678421D01*
X633550Y680087D01*
X161112Y758265D02*
X162778Y759931D01*
X166110D01*
X167776Y758265D01*
Y756599D01*
X166110Y754933D01*
X162778D01*
X161112Y753267D01*
Y751600D01*
X162778Y749934D01*
X166110D01*
X167776Y751600D01*
X151115Y758265D02*
X152781Y759931D01*
X156113D01*
X157779Y758265D01*
Y751600D01*
X156113Y749934D01*
X152781D01*
X151115Y751600D01*
X147782Y759931D02*
Y749934D01*
X141118D01*
X81664Y757332D02*
X83331Y758998D01*
X86663D01*
X88329Y757332D01*
Y755666D01*
X86663Y754000D01*
X83331D01*
X81664Y752334D01*
Y750668D01*
X83331Y749002D01*
X86663D01*
X88329Y750668D01*
X78332Y758998D02*
Y749002D01*
X73334D01*
X71668Y750668D01*
Y757332D01*
X73334Y758998D01*
X78332D01*
X68335Y749002D02*
Y755666D01*
X65003Y758998D01*
X61671Y755666D01*
Y749002D01*
Y754000D01*
X68335D01*
X1597406Y-249083D02*
X1590741D01*
X1594074D01*
Y-259080D01*
X1587409D02*
Y-249083D01*
X1582411D01*
X1580745Y-250749D01*
Y-254082D01*
X1582411Y-255748D01*
X1587409D01*
X1434084Y-249083D02*
X1427419D01*
X1430752D01*
Y-259080D01*
X1424087D02*
Y-249083D01*
X1419089D01*
X1417423Y-250749D01*
Y-254082D01*
X1419089Y-255748D01*
X1424087D01*
X1356106Y-249083D02*
X1349442D01*
X1352774D01*
Y-259080D01*
X1346109D02*
Y-249083D01*
X1341111D01*
X1339445Y-250749D01*
Y-254082D01*
X1341111Y-255748D01*
X1346109D01*
X470662Y971042D02*
Y981039D01*
X465664D01*
X463997Y979373D01*
Y976040D01*
X465664Y974374D01*
X470662D01*
X467330D02*
X463997Y971042D01*
X454001Y979373D02*
X455667Y981039D01*
X458999D01*
X460665Y979373D01*
Y977707D01*
X458999Y976040D01*
X455667D01*
X454001Y974374D01*
Y972708D01*
X455667Y971042D01*
X458999D01*
X460665Y972708D01*
X450668Y981039D02*
X444004D01*
X447336D01*
Y971042D01*
X276665Y946332D02*
X278331Y947998D01*
X281663D01*
X283329Y946332D01*
Y944666D01*
X281663Y943000D01*
X278331D01*
X276665Y941334D01*
Y939668D01*
X278331Y938002D01*
X281663D01*
X283329Y939668D01*
X273332Y947998D02*
Y938002D01*
X270000Y941334D01*
X266668Y938002D01*
Y947998D01*
X258337D02*
X261669D01*
X263335Y946332D01*
Y939668D01*
X261669Y938002D01*
X258337D01*
X256671Y939668D01*
Y946332D01*
X258337Y947998D01*
X342585Y946353D02*
X344252Y948019D01*
X347584D01*
X349250Y946353D01*
Y944687D01*
X347584Y943020D01*
X344252D01*
X342585Y941354D01*
Y939688D01*
X344252Y938022D01*
X347584D01*
X349250Y939688D01*
X339253Y948019D02*
Y938022D01*
X335921Y941354D01*
X332589Y938022D01*
Y948019D01*
X322592Y946353D02*
X324258Y948019D01*
X327590D01*
X329256Y946353D01*
Y939688D01*
X327590Y938022D01*
X324258D01*
X322592Y939688D01*
X319260Y948019D02*
Y938022D01*
X312595D01*
X309263Y948019D02*
Y938022D01*
Y941354D01*
X302598Y948019D01*
X307597Y943020D01*
X302598Y938022D01*
X396828Y946332D02*
X398494Y947998D01*
X401827D01*
X403493Y946332D01*
Y944666D01*
X401827Y943000D01*
X398494D01*
X396828Y941334D01*
Y939668D01*
X398494Y938002D01*
X401827D01*
X403493Y939668D01*
X393496Y947998D02*
Y938002D01*
X390164Y941334D01*
X386832Y938002D01*
Y947998D01*
X383499D02*
Y938002D01*
X378501D01*
X376835Y939668D01*
Y946332D01*
X378501Y947998D01*
X383499D01*
X373502D02*
X370170D01*
X371836D01*
Y938002D01*
X373502D01*
X370170D01*
X360173Y947998D02*
X363506D01*
X365172Y946332D01*
Y939668D01*
X363506Y938002D01*
X360173D01*
X358507Y939668D01*
Y946332D01*
X360173Y947998D01*
X-102616Y537047D02*
X-109281D01*
X-105948D01*
Y527050D01*
X-112613D02*
Y537047D01*
X-117611D01*
X-119277Y535381D01*
Y532048D01*
X-117611Y530382D01*
X-112613D01*
M02*
