G04*
G04 #@! TF.GenerationSoftware,Altium Limited,Altium Designer,25.0.2 (28)*
G04*
G04 Layer_Physical_Order=2*
G04 Layer_Color=36540*
%FSLAX44Y44*%
%MOMM*%
G71*
G04*
G04 #@! TF.SameCoordinates,AF0C0B87-2E81-4434-B6DB-77DE22D4A5CC*
G04*
G04*
G04 #@! TF.FilePolarity,Positive*
G04*
G01*
G75*
%ADD10C,0.2000*%
%ADD101C,0.6500*%
G04:AMPARAMS|DCode=102|XSize=1mm|YSize=2.1mm|CornerRadius=0.5mm|HoleSize=0mm|Usage=FLASHONLY|Rotation=180.000|XOffset=0mm|YOffset=0mm|HoleType=Round|Shape=RoundedRectangle|*
%AMROUNDEDRECTD102*
21,1,1.0000,1.1000,0,0,180.0*
21,1,0.0000,2.1000,0,0,180.0*
1,1,1.0000,0.0000,0.5500*
1,1,1.0000,0.0000,0.5500*
1,1,1.0000,0.0000,-0.5500*
1,1,1.0000,0.0000,-0.5500*
%
%ADD102ROUNDEDRECTD102*%
G04:AMPARAMS|DCode=103|XSize=1mm|YSize=1.8mm|CornerRadius=0.5mm|HoleSize=0mm|Usage=FLASHONLY|Rotation=180.000|XOffset=0mm|YOffset=0mm|HoleType=Round|Shape=RoundedRectangle|*
%AMROUNDEDRECTD103*
21,1,1.0000,0.8000,0,0,180.0*
21,1,0.0000,1.8000,0,0,180.0*
1,1,1.0000,0.0000,0.4000*
1,1,1.0000,0.0000,0.4000*
1,1,1.0000,0.0000,-0.4000*
1,1,1.0000,0.0000,-0.4000*
%
%ADD103ROUNDEDRECTD103*%
%ADD109C,3.2000*%
%ADD110C,2.3000*%
%ADD111C,1.9500*%
%ADD112O,3.9000X1.9500*%
%ADD113C,4.1000*%
%ADD114C,10.0000*%
G36*
X1123648Y993675D02*
X1121605Y992496D01*
X1116301Y988426D01*
X1111574Y983699D01*
X1107504Y978395D01*
X1104161Y972605D01*
X1101603Y966429D01*
X1099873Y959971D01*
X1099000Y953343D01*
Y946657D01*
X1099873Y940029D01*
X1101603Y933571D01*
X1104161Y927395D01*
X1107504Y921605D01*
X1111574Y916301D01*
X1116301Y911574D01*
X1121605Y907504D01*
X1127395Y904161D01*
X1133571Y901603D01*
X1140029Y899873D01*
X1146657Y899000D01*
X1153343D01*
X1159971Y899873D01*
X1166429Y901603D01*
X1172605Y904161D01*
X1178395Y907504D01*
X1183699Y911574D01*
X1188426Y916301D01*
X1192496Y921605D01*
X1193675Y923648D01*
X1194902Y923319D01*
Y467000D01*
X1190582D01*
X1190265Y467765D01*
X1189500Y468082D01*
X923010D01*
X923010Y468083D01*
X922245Y467765D01*
X921794Y467315D01*
X921035Y467000D01*
X918965D01*
X918206Y467315D01*
X917755Y467765D01*
X916990Y468082D01*
X840806D01*
X840608Y468000D01*
X840392D01*
X840240Y467848D01*
X840041Y467765D01*
X839959Y467566D01*
X839806Y467414D01*
X839635Y467000D01*
X838449D01*
X837845Y467250D01*
X836155D01*
X835551Y467000D01*
X834365D01*
X834194Y467414D01*
X834041Y467566D01*
X833959Y467765D01*
X833760Y467848D01*
X833608Y468000D01*
X833392D01*
X833194Y468082D01*
X525449D01*
X525250Y468000D01*
X525035D01*
X524630Y467832D01*
X523370D01*
X522965Y468000D01*
X522750D01*
X522551Y468082D01*
X518449D01*
X518250Y468000D01*
X518035D01*
X517630Y467832D01*
X516370D01*
X515965Y468000D01*
X515750D01*
X515551Y468082D01*
X511449D01*
X511250Y468000D01*
X511035D01*
X510630Y467832D01*
X509370D01*
X508965Y468000D01*
X508750D01*
X508551Y468082D01*
X443449D01*
X443250Y468000D01*
X443035D01*
X442630Y467832D01*
X441370D01*
X440965Y468000D01*
X440750D01*
X440551Y468082D01*
X436449D01*
X436250Y468000D01*
X436035D01*
X435630Y467832D01*
X434370D01*
X433965Y468000D01*
X433750D01*
X433551Y468082D01*
X429449D01*
X429250Y468000D01*
X429035D01*
X428630Y467832D01*
X427370D01*
X426965Y468000D01*
X426750D01*
X426551Y468082D01*
X422449D01*
X422250Y468000D01*
X422035D01*
X421630Y467832D01*
X420370D01*
X419965Y468000D01*
X419750D01*
X419551Y468082D01*
X5098D01*
Y923319D01*
X6325Y923648D01*
X7504Y921605D01*
X11574Y916301D01*
X16301Y911574D01*
X21605Y907504D01*
X27395Y904161D01*
X33571Y901603D01*
X40029Y899873D01*
X46657Y899000D01*
X53343D01*
X59971Y899873D01*
X66429Y901603D01*
X72605Y904161D01*
X78395Y907504D01*
X83699Y911574D01*
X88426Y916301D01*
X92496Y921605D01*
X95839Y927395D01*
X98397Y933571D01*
X100127Y940029D01*
X101000Y946657D01*
Y953343D01*
X100127Y959971D01*
X98397Y966429D01*
X95839Y972605D01*
X92496Y978395D01*
X88426Y983699D01*
X83699Y988426D01*
X78395Y992496D01*
X76352Y993675D01*
X76681Y994902D01*
X142406D01*
X143032Y993632D01*
X142685Y993180D01*
X141980Y991477D01*
X141740Y989650D01*
X148800D01*
X155860D01*
X155620Y991477D01*
X154915Y993180D01*
X154568Y993632D01*
X155194Y994902D01*
X228806D01*
X229432Y993632D01*
X229086Y993180D01*
X228380Y991477D01*
X228140Y989650D01*
X235200D01*
X242260D01*
X242020Y991477D01*
X241315Y993180D01*
X240968Y993632D01*
X241594Y994902D01*
X1123319D01*
X1123648Y993675D01*
D02*
G37*
G36*
X1189500Y184172D02*
X1188230Y183895D01*
X1183699Y188426D01*
X1178395Y192496D01*
X1172605Y195839D01*
X1166429Y198397D01*
X1159971Y200127D01*
X1153343Y201000D01*
X1146657D01*
X1140029Y200127D01*
X1133571Y198397D01*
X1127395Y195839D01*
X1121605Y192496D01*
X1116301Y188426D01*
X1111574Y183699D01*
X1107504Y178395D01*
X1104161Y172605D01*
X1101603Y166429D01*
X1099873Y159971D01*
X1099000Y153343D01*
Y146657D01*
X1099873Y140029D01*
X1101603Y133571D01*
X1104161Y127395D01*
X1107504Y121605D01*
X1111574Y116301D01*
X1116301Y111574D01*
X1121605Y107504D01*
X1123648Y106325D01*
X1123319Y105098D01*
X76681D01*
X76352Y106325D01*
X78395Y107504D01*
X83699Y111574D01*
X88426Y116301D01*
X92496Y121605D01*
X95839Y127395D01*
X98397Y133571D01*
X100127Y140029D01*
X101000Y146657D01*
Y153343D01*
X100127Y159971D01*
X98397Y166429D01*
X95839Y172605D01*
X92496Y178395D01*
X88426Y183699D01*
X83699Y188426D01*
X78395Y192496D01*
X72605Y195839D01*
X66429Y198397D01*
X59971Y200127D01*
X53343Y201000D01*
X46657D01*
X40029Y200127D01*
X33571Y198397D01*
X27395Y195839D01*
X21605Y192496D01*
X16301Y188426D01*
X11574Y183699D01*
X7504Y178395D01*
X6325Y176352D01*
X5098Y176681D01*
Y467000D01*
X419551D01*
X420155Y466750D01*
X421845D01*
X422449Y467000D01*
X426551D01*
X427155Y466750D01*
X428845D01*
X429449Y467000D01*
X433551D01*
X434155Y466750D01*
X435845D01*
X436449Y467000D01*
X440551D01*
X441155Y466750D01*
X442845D01*
X443449Y467000D01*
X508551D01*
X509155Y466750D01*
X510845D01*
X511449Y467000D01*
X515551D01*
X516155Y466750D01*
X517845D01*
X518449Y467000D01*
X522551D01*
X523155Y466750D01*
X524845D01*
X525449Y467000D01*
X833194D01*
X833720Y465730D01*
X833397Y465407D01*
X832750Y463845D01*
Y462155D01*
X833397Y460593D01*
X834593Y459397D01*
X836155Y458750D01*
X837845D01*
X839407Y459397D01*
X840603Y460593D01*
X841250Y462155D01*
Y463845D01*
X840603Y465407D01*
X840280Y465730D01*
X840806Y467000D01*
X916990D01*
X917593Y466397D01*
X919155Y465750D01*
X920845D01*
X922407Y466397D01*
X923010Y467000D01*
X1189500D01*
Y184172D01*
D02*
G37*
%LPC*%
G36*
X155860Y981650D02*
X152800D01*
Y975896D01*
X153792Y976658D01*
X154915Y978120D01*
X155620Y979823D01*
X155860Y981650D01*
Y981650D01*
D02*
G37*
G36*
X231200D02*
X228140D01*
Y981650D01*
X228380Y979823D01*
X229086Y978120D01*
X230208Y976658D01*
X231200Y975896D01*
Y981650D01*
D02*
G37*
G36*
X242260D02*
X239200D01*
Y975896D01*
X240192Y976658D01*
X241315Y978120D01*
X242020Y979823D01*
X242260Y981650D01*
Y981650D01*
D02*
G37*
G36*
X144800D02*
X141740D01*
Y981650D01*
X141980Y979823D01*
X142685Y978120D01*
X143808Y976658D01*
X144800Y975896D01*
Y981650D01*
D02*
G37*
G36*
X201095Y968000D02*
X199405D01*
X197843Y967353D01*
X197058Y966568D01*
X196250Y966293D01*
X195442Y966568D01*
X194657Y967353D01*
X193095Y968000D01*
X191405D01*
X189842Y967353D01*
X188647Y966157D01*
X188000Y964595D01*
Y962905D01*
X188647Y961343D01*
X189432Y960558D01*
X189707Y959750D01*
X189432Y958942D01*
X188647Y958157D01*
X188000Y956595D01*
Y954905D01*
X188647Y953343D01*
X189842Y952147D01*
X191405Y951500D01*
X193095D01*
X194657Y952147D01*
X195442Y952932D01*
X196250Y953207D01*
X197058Y952932D01*
X197843Y952147D01*
X199405Y951500D01*
X201095D01*
X202657Y952147D01*
X203853Y953343D01*
X204500Y954905D01*
Y956595D01*
X203853Y958157D01*
X203068Y958942D01*
X202793Y959750D01*
X203068Y960558D01*
X203853Y961343D01*
X204500Y962905D01*
Y964595D01*
X203853Y966157D01*
X202657Y967353D01*
X201095Y968000D01*
D02*
G37*
G36*
X152800Y955104D02*
Y947850D01*
X155860D01*
Y949350D01*
X155620Y951177D01*
X154915Y952880D01*
X153792Y954342D01*
X152800Y955104D01*
D02*
G37*
G36*
X239200Y955104D02*
Y947850D01*
X242260D01*
Y949350D01*
X242020Y951177D01*
X241315Y952880D01*
X240192Y954342D01*
X239200Y955104D01*
D02*
G37*
G36*
X231200Y955104D02*
X230208Y954342D01*
X229086Y952880D01*
X228380Y951177D01*
X228140Y949350D01*
Y947850D01*
X231200D01*
Y955104D01*
D02*
G37*
G36*
X144800Y955104D02*
X143808Y954342D01*
X142685Y952880D01*
X141980Y951177D01*
X141740Y949350D01*
Y947850D01*
X144800D01*
Y955104D01*
D02*
G37*
G36*
X221745Y953100D02*
X220055D01*
X218493Y952453D01*
X217297Y951257D01*
X216650Y949695D01*
Y948005D01*
X217297Y946443D01*
X218493Y945247D01*
X220055Y944600D01*
X221745D01*
X223307Y945247D01*
X224503Y946443D01*
X225150Y948005D01*
Y949695D01*
X224503Y951257D01*
X223307Y952453D01*
X221745Y953100D01*
D02*
G37*
G36*
X163945D02*
X162255D01*
X160693Y952453D01*
X159497Y951257D01*
X158850Y949695D01*
Y948005D01*
X159497Y946443D01*
X160693Y945247D01*
X162255Y944600D01*
X163945D01*
X165507Y945247D01*
X166703Y946443D01*
X167350Y948005D01*
Y949695D01*
X166703Y951257D01*
X165507Y952453D01*
X163945Y953100D01*
D02*
G37*
G36*
X155860Y939850D02*
X152800D01*
Y932596D01*
X153792Y933358D01*
X154915Y934820D01*
X155620Y936523D01*
X155860Y938350D01*
Y939850D01*
D02*
G37*
G36*
X231200D02*
X228140D01*
Y938350D01*
X228380Y936523D01*
X229086Y934820D01*
X230208Y933358D01*
X231200Y932596D01*
Y939850D01*
D02*
G37*
G36*
X242260D02*
X239200D01*
Y932596D01*
X240192Y933358D01*
X241315Y934820D01*
X242020Y936523D01*
X242260Y938350D01*
Y939850D01*
D02*
G37*
G36*
X144800D02*
X141740D01*
Y938350D01*
X141980Y936523D01*
X142685Y934820D01*
X143808Y933358D01*
X144800Y932596D01*
Y939850D01*
D02*
G37*
G36*
X213773Y915177D02*
X212082D01*
X210520Y914530D01*
X209324Y913335D01*
X208677Y911773D01*
Y910082D01*
X209324Y908520D01*
X210520Y907324D01*
X212082Y906677D01*
X213773D01*
X215335Y907324D01*
X216530Y908520D01*
X217177Y910082D01*
Y911773D01*
X216530Y913335D01*
X215335Y914530D01*
X213773Y915177D01*
D02*
G37*
G36*
X200845Y914250D02*
X199155D01*
X197593Y913603D01*
X196397Y912407D01*
X195750Y910845D01*
Y909155D01*
X196397Y907593D01*
X197593Y906397D01*
X199155Y905750D01*
X200845D01*
X202407Y906397D01*
X203603Y907593D01*
X204250Y909155D01*
Y910845D01*
X203603Y912407D01*
X202407Y913603D01*
X200845Y914250D01*
D02*
G37*
G36*
X165845D02*
X164155D01*
X162593Y913603D01*
X161397Y912407D01*
X160750Y910845D01*
Y909155D01*
X161397Y907593D01*
X162593Y906397D01*
X164155Y905750D01*
X165845D01*
X167407Y906397D01*
X168603Y907593D01*
X169250Y909155D01*
Y910845D01*
X168603Y912407D01*
X167407Y913603D01*
X165845Y914250D01*
D02*
G37*
G36*
X139845D02*
X138155D01*
X136593Y913603D01*
X135397Y912407D01*
X134750Y910845D01*
Y909155D01*
X135397Y907593D01*
X136593Y906397D01*
X138155Y905750D01*
X139845D01*
X141407Y906397D01*
X142603Y907593D01*
X143250Y909155D01*
Y910845D01*
X142603Y912407D01*
X141407Y913603D01*
X139845Y914250D01*
D02*
G37*
G36*
X417845Y863000D02*
X416155D01*
X414593Y862353D01*
X413397Y861157D01*
X412750Y859595D01*
Y857905D01*
X413397Y856343D01*
X414593Y855147D01*
X414797Y855062D01*
Y853688D01*
X414593Y853603D01*
X413397Y852407D01*
X412750Y850845D01*
Y849155D01*
X413397Y847593D01*
X414593Y846397D01*
X415736Y845923D01*
Y844577D01*
X414593Y844103D01*
X413397Y842907D01*
X412750Y841345D01*
Y839655D01*
X413397Y838093D01*
X414593Y836897D01*
X416155Y836250D01*
X417845D01*
X419407Y836897D01*
X420603Y838093D01*
X421250Y839655D01*
Y841345D01*
X420603Y842907D01*
X419407Y844103D01*
X418264Y844577D01*
Y845923D01*
X419407Y846397D01*
X420603Y847593D01*
X421250Y849155D01*
Y850845D01*
X420603Y852407D01*
X419407Y853603D01*
X419203Y853688D01*
Y855062D01*
X419407Y855147D01*
X420603Y856343D01*
X421250Y857905D01*
Y859595D01*
X420603Y861157D01*
X419407Y862353D01*
X417845Y863000D01*
D02*
G37*
G36*
X343845Y830250D02*
X342155D01*
X340592Y829603D01*
X339808Y828818D01*
X339000Y828543D01*
X338192Y828818D01*
X337407Y829603D01*
X335845Y830250D01*
X334155D01*
X332593Y829603D01*
X331808Y828818D01*
X331000Y828543D01*
X330192Y828818D01*
X329407Y829603D01*
X327845Y830250D01*
X326155D01*
X324593Y829603D01*
X323397Y828407D01*
X322750Y826845D01*
Y825155D01*
X323397Y823593D01*
X324182Y822808D01*
X324457Y822000D01*
X324182Y821192D01*
X323397Y820407D01*
X322750Y818845D01*
Y817155D01*
X323397Y815593D01*
X324593Y814397D01*
X326155Y813750D01*
X327845D01*
X329407Y814397D01*
X330192Y815182D01*
X331000Y815457D01*
X331808Y815182D01*
X332593Y814397D01*
X334155Y813750D01*
X335845D01*
X337407Y814397D01*
X338192Y815182D01*
X339000Y815457D01*
X339808Y815182D01*
X340592Y814397D01*
X342155Y813750D01*
X343845D01*
X345407Y814397D01*
X346603Y815593D01*
X347250Y817155D01*
Y818845D01*
X346603Y820407D01*
X345818Y821192D01*
X345543Y822000D01*
X345818Y822808D01*
X346603Y823593D01*
X347250Y825155D01*
Y826845D01*
X346603Y828407D01*
X345407Y829603D01*
X343845Y830250D01*
D02*
G37*
G36*
X517845Y836250D02*
X516155D01*
X514593Y835603D01*
X513397Y834407D01*
X512750Y832845D01*
Y831155D01*
X513397Y829593D01*
X514593Y828397D01*
X516155Y827750D01*
X517845D01*
X519407Y828397D01*
X520603Y829593D01*
X521250Y831155D01*
Y832845D01*
X520603Y834407D01*
X519407Y835603D01*
X517845Y836250D01*
D02*
G37*
G36*
X48845Y833250D02*
X47155D01*
X45593Y832603D01*
X44397Y831407D01*
X43750Y829845D01*
Y828155D01*
X44397Y826593D01*
X45593Y825397D01*
X47155Y824750D01*
X48845D01*
X50407Y825397D01*
X51603Y826593D01*
X52250Y828155D01*
Y829845D01*
X51603Y831407D01*
X50407Y832603D01*
X48845Y833250D01*
D02*
G37*
G36*
Y820250D02*
X47155D01*
X45593Y819603D01*
X44397Y818407D01*
X43750Y816845D01*
Y815155D01*
X44397Y813593D01*
X45593Y812397D01*
X47155Y811750D01*
X48845D01*
X50407Y812397D01*
X51603Y813593D01*
X52250Y815155D01*
Y816845D01*
X51603Y818407D01*
X50407Y819603D01*
X48845Y820250D01*
D02*
G37*
G36*
X404845Y803250D02*
X403155D01*
X401593Y802603D01*
X400397Y801407D01*
X400278Y801120D01*
X398742Y800731D01*
X397634Y801190D01*
X395943D01*
X394381Y800543D01*
X393186Y799347D01*
X393094Y799126D01*
X391720D01*
X391603Y799407D01*
X390407Y800603D01*
X388845Y801250D01*
X387155D01*
X385593Y800603D01*
X384397Y799408D01*
X382973Y799288D01*
X382658Y799603D01*
X381095Y800250D01*
X379405D01*
X377843Y799603D01*
X376647Y798407D01*
X376000Y796845D01*
Y795155D01*
X376647Y793593D01*
X377843Y792397D01*
X379405Y791750D01*
X381095D01*
X382658Y792397D01*
X383853Y793593D01*
X385277Y793712D01*
X385593Y793397D01*
X387155Y792750D01*
X388845D01*
X390407Y793397D01*
X391603Y794593D01*
X391694Y794813D01*
X393069D01*
X393186Y794532D01*
X394381Y793337D01*
X395943Y792690D01*
X397634D01*
X399196Y793337D01*
X400392Y794532D01*
X400511Y794820D01*
X402047Y795209D01*
X403155Y794750D01*
X404845D01*
X406407Y795397D01*
X406480Y795470D01*
X407162Y795300D01*
X407812Y795005D01*
X408397Y793593D01*
X409593Y792397D01*
X411155Y791750D01*
X412845D01*
X414407Y792397D01*
X415603Y793593D01*
X416250Y795155D01*
Y796845D01*
X415603Y798407D01*
X414407Y799603D01*
X412845Y800250D01*
X411155D01*
X409593Y799603D01*
X409520Y799530D01*
X408838Y799700D01*
X408188Y799995D01*
X407603Y801407D01*
X406407Y802603D01*
X404845Y803250D01*
D02*
G37*
G36*
X437845Y804250D02*
X436155D01*
X434593Y803603D01*
X433397Y802407D01*
X432750Y800845D01*
Y800836D01*
X431480Y799987D01*
X430845Y800250D01*
X429155D01*
X427593Y799603D01*
X426808Y798818D01*
X426000Y798543D01*
X425192Y798818D01*
X424407Y799603D01*
X422845Y800250D01*
X421155D01*
X419593Y799603D01*
X418397Y798407D01*
X417750Y796845D01*
Y795155D01*
X418397Y793593D01*
X419593Y792397D01*
X421155Y791750D01*
X422845D01*
X424407Y792397D01*
X425192Y793182D01*
X426000Y793457D01*
X426808Y793182D01*
X427593Y792397D01*
X429155Y791750D01*
X430845D01*
X432407Y792397D01*
X433603Y793593D01*
X434250Y795155D01*
Y795164D01*
X435520Y796013D01*
X436155Y795750D01*
X437845D01*
X439407Y796397D01*
X440603Y797593D01*
X441250Y799155D01*
Y800845D01*
X440603Y802407D01*
X439407Y803603D01*
X437845Y804250D01*
D02*
G37*
G36*
X468845Y813250D02*
X467155D01*
X465593Y812603D01*
X464397Y811407D01*
X463750Y809845D01*
Y808155D01*
X464397Y806593D01*
X465593Y805397D01*
X467155Y804750D01*
X468845D01*
X469246Y804916D01*
X470202Y803937D01*
X469750Y802845D01*
Y801155D01*
X470397Y799593D01*
X471593Y798397D01*
X473155Y797750D01*
X474845D01*
X476407Y798397D01*
X477603Y799593D01*
X478250Y801155D01*
Y802845D01*
X477603Y804407D01*
X476407Y805603D01*
X474845Y806250D01*
X473155D01*
X472754Y806084D01*
X471798Y807063D01*
X472250Y808155D01*
Y809845D01*
X471603Y811407D01*
X470407Y812603D01*
X468845Y813250D01*
D02*
G37*
G36*
X1033845Y800250D02*
X1032155D01*
X1030593Y799603D01*
X1029397Y798407D01*
X1028750Y796845D01*
Y795155D01*
X1029397Y793593D01*
X1030593Y792397D01*
X1032155Y791750D01*
X1033845D01*
X1035407Y792397D01*
X1036603Y793593D01*
X1037250Y795155D01*
Y796845D01*
X1036603Y798407D01*
X1035407Y799603D01*
X1033845Y800250D01*
D02*
G37*
G36*
X475845Y796250D02*
X474155D01*
X472593Y795603D01*
X471397Y794407D01*
X470750Y792845D01*
Y791155D01*
X471397Y789593D01*
X472593Y788397D01*
X474155Y787750D01*
X475845D01*
X477407Y788397D01*
X478603Y789593D01*
X479250Y791155D01*
Y792845D01*
X478603Y794407D01*
X477407Y795603D01*
X475845Y796250D01*
D02*
G37*
G36*
X28845Y794250D02*
X27155D01*
X25593Y793603D01*
X24397Y792407D01*
X23750Y790845D01*
Y789155D01*
X24397Y787593D01*
X25593Y786397D01*
X27155Y785750D01*
X28845D01*
X30407Y786397D01*
X31603Y787593D01*
X32250Y789155D01*
Y790845D01*
X31603Y792407D01*
X30407Y793603D01*
X28845Y794250D01*
D02*
G37*
G36*
X902845Y793250D02*
X901155D01*
X899593Y792603D01*
X898397Y791407D01*
X897750Y789845D01*
Y788155D01*
X898397Y786593D01*
X899593Y785397D01*
X901155Y784750D01*
X902845D01*
X904407Y785397D01*
X905603Y786593D01*
X906250Y788155D01*
Y789845D01*
X905603Y791407D01*
X904407Y792603D01*
X902845Y793250D01*
D02*
G37*
G36*
X949845Y792250D02*
X948155D01*
X946593Y791603D01*
X945397Y790407D01*
X944750Y788845D01*
Y787155D01*
X945397Y785593D01*
X946593Y784397D01*
X948155Y783750D01*
X949845D01*
X951407Y784397D01*
X952603Y785593D01*
X953250Y787155D01*
Y788845D01*
X952603Y790407D01*
X951407Y791603D01*
X949845Y792250D01*
D02*
G37*
G36*
X423845Y790250D02*
X422155D01*
X420593Y789603D01*
X419397Y788407D01*
X418750Y786845D01*
Y785155D01*
X419397Y783593D01*
X420593Y782397D01*
X422155Y781750D01*
X423845D01*
X425407Y782397D01*
X426603Y783593D01*
X427250Y785155D01*
Y786845D01*
X426603Y788407D01*
X425407Y789603D01*
X423845Y790250D01*
D02*
G37*
G36*
X808845Y786250D02*
X807155D01*
X805593Y785603D01*
X804397Y784407D01*
X803750Y782845D01*
Y781155D01*
X804397Y779593D01*
X805593Y778397D01*
X807155Y777750D01*
X808845D01*
X810407Y778397D01*
X811603Y779593D01*
X812250Y781155D01*
Y782845D01*
X811603Y784407D01*
X810407Y785603D01*
X808845Y786250D01*
D02*
G37*
G36*
X890845Y773250D02*
X889155D01*
X887593Y772603D01*
X886808Y771818D01*
X886000Y771543D01*
X885192Y771818D01*
X884407Y772603D01*
X882845Y773250D01*
X881155D01*
X879593Y772603D01*
X878397Y771407D01*
X877750Y769845D01*
Y768155D01*
X878397Y766593D01*
X879182Y765808D01*
X879457Y765000D01*
X879182Y764192D01*
X878397Y763407D01*
X877750Y761845D01*
Y760155D01*
X878397Y758593D01*
X879182Y757808D01*
X879457Y757000D01*
X879182Y756192D01*
X878397Y755407D01*
X877750Y753845D01*
Y752155D01*
X878397Y750593D01*
X879182Y749808D01*
X879457Y749000D01*
X879182Y748192D01*
X878397Y747407D01*
X877750Y745845D01*
Y744155D01*
X878397Y742592D01*
X879593Y741397D01*
X881155Y740750D01*
X882845D01*
X884407Y741397D01*
X885192Y742182D01*
X886000Y742457D01*
X886808Y742182D01*
X887593Y741397D01*
X889155Y740750D01*
X890845D01*
X892407Y741397D01*
X893603Y742592D01*
X894250Y744155D01*
Y745845D01*
X893603Y747407D01*
X892818Y748192D01*
X892543Y749000D01*
X892818Y749808D01*
X893603Y750593D01*
X894250Y752155D01*
Y753845D01*
X893603Y755407D01*
X892818Y756192D01*
X892543Y757000D01*
X892818Y757808D01*
X893603Y758593D01*
X894250Y760155D01*
Y761845D01*
X893603Y763407D01*
X892818Y764192D01*
X892543Y765000D01*
X892818Y765808D01*
X893603Y766593D01*
X894250Y768155D01*
Y769845D01*
X893603Y771407D01*
X892407Y772603D01*
X890845Y773250D01*
D02*
G37*
G36*
X424810Y771285D02*
X423119D01*
X421557Y770639D01*
X420362Y769443D01*
X419715Y767881D01*
Y766190D01*
X420362Y764628D01*
X421557Y763432D01*
X423119Y762785D01*
X424810D01*
X426372Y763432D01*
X427567Y764628D01*
X427788Y765160D01*
X429162D01*
X429397Y764593D01*
X430593Y763397D01*
X432155Y762750D01*
X433845D01*
X435407Y763397D01*
X436603Y764593D01*
X437250Y766155D01*
Y767845D01*
X436603Y769407D01*
X435407Y770603D01*
X433845Y771250D01*
X432155D01*
X430593Y770603D01*
X429397Y769407D01*
X429177Y768876D01*
X427802D01*
X427567Y769443D01*
X426372Y770639D01*
X424810Y771285D01*
D02*
G37*
G36*
X989845Y767000D02*
X988155D01*
X986592Y766353D01*
X985397Y765157D01*
X984750Y763595D01*
Y761905D01*
X985397Y760343D01*
X986592Y759147D01*
X988155Y758500D01*
X989845D01*
X991407Y759147D01*
X992603Y760343D01*
X993250Y761905D01*
Y763595D01*
X992603Y765157D01*
X991407Y766353D01*
X989845Y767000D01*
D02*
G37*
G36*
X846845Y760250D02*
X845155D01*
X843593Y759603D01*
X842397Y758407D01*
X841750Y756845D01*
Y755155D01*
X842397Y753593D01*
X843593Y752397D01*
X845155Y751750D01*
X846845D01*
X848407Y752397D01*
X849603Y753593D01*
X850250Y755155D01*
Y756845D01*
X849603Y758407D01*
X848407Y759603D01*
X846845Y760250D01*
D02*
G37*
G36*
X503845Y757250D02*
X502155D01*
X500593Y756603D01*
X499397Y755407D01*
X498750Y753845D01*
Y752155D01*
X499397Y750593D01*
X500593Y749397D01*
X502155Y748750D01*
X503845D01*
X505407Y749397D01*
X506603Y750593D01*
X507250Y752155D01*
Y753845D01*
X506603Y755407D01*
X505407Y756603D01*
X503845Y757250D01*
D02*
G37*
G36*
X733845Y754250D02*
X732155D01*
X730593Y753603D01*
X729397Y752407D01*
X728750Y750845D01*
Y749155D01*
X729397Y747593D01*
X730593Y746397D01*
X732155Y745750D01*
X733845D01*
X735407Y746397D01*
X736603Y747593D01*
X737250Y749155D01*
Y750845D01*
X736603Y752407D01*
X735407Y753603D01*
X733845Y754250D01*
D02*
G37*
G36*
X749845Y750250D02*
X748155D01*
X746593Y749603D01*
X745397Y748407D01*
X744750Y746845D01*
Y745155D01*
X745397Y743593D01*
X746593Y742397D01*
X748155Y741750D01*
X749845D01*
X751407Y742397D01*
X752603Y743593D01*
X753250Y745155D01*
Y746845D01*
X752603Y748407D01*
X751407Y749603D01*
X749845Y750250D01*
D02*
G37*
G36*
X806845Y741250D02*
X805155D01*
X803593Y740603D01*
X802397Y739407D01*
X801750Y737845D01*
Y736155D01*
X802397Y734593D01*
X803593Y733397D01*
X805155Y732750D01*
X806845D01*
X808407Y733397D01*
X809603Y734593D01*
X810250Y736155D01*
Y737845D01*
X809603Y739407D01*
X808407Y740603D01*
X806845Y741250D01*
D02*
G37*
G36*
X900845Y736250D02*
X899155D01*
X897593Y735603D01*
X896397Y734407D01*
X895750Y732845D01*
Y731155D01*
X896397Y729593D01*
X897593Y728397D01*
X899155Y727750D01*
X900845D01*
X902407Y728397D01*
X903603Y729593D01*
X904250Y731155D01*
Y732845D01*
X903603Y734407D01*
X902407Y735603D01*
X900845Y736250D01*
D02*
G37*
G36*
X712595Y734250D02*
X710905D01*
X709343Y733603D01*
X708147Y732407D01*
X707500Y730845D01*
Y729155D01*
X708147Y727593D01*
X709343Y726397D01*
X710905Y725750D01*
X712595D01*
X714157Y726397D01*
X715353Y727593D01*
X716000Y729155D01*
Y730845D01*
X715353Y732407D01*
X714157Y733603D01*
X712595Y734250D01*
D02*
G37*
G36*
X1034235Y734250D02*
X1032544D01*
X1030982Y733603D01*
X1029787Y732407D01*
X1029140Y730845D01*
Y729154D01*
X1029787Y727592D01*
X1030982Y726397D01*
X1032544Y725750D01*
X1034235D01*
X1035797Y726397D01*
X1036993Y727592D01*
X1037640Y729154D01*
Y730845D01*
X1036993Y732407D01*
X1035797Y733603D01*
X1034235Y734250D01*
D02*
G37*
G36*
X633845Y731250D02*
X632155D01*
X630593Y730603D01*
X629397Y729407D01*
X628750Y727845D01*
Y726155D01*
X629397Y724593D01*
X630593Y723397D01*
X632155Y722750D01*
X633845D01*
X635407Y723397D01*
X636603Y724593D01*
X637250Y726155D01*
Y727845D01*
X636603Y729407D01*
X635407Y730603D01*
X633845Y731250D01*
D02*
G37*
G36*
X676845Y730250D02*
X675155D01*
X673593Y729603D01*
X672397Y728407D01*
X671750Y726845D01*
Y725155D01*
X672397Y723593D01*
X673593Y722397D01*
X675155Y721750D01*
X676845D01*
X678407Y722397D01*
X679603Y723593D01*
X680250Y725155D01*
Y726845D01*
X679603Y728407D01*
X678407Y729603D01*
X676845Y730250D01*
D02*
G37*
G36*
X430845Y721700D02*
X429155D01*
X427593Y721053D01*
X426808Y720268D01*
X426000Y719992D01*
X425192Y720268D01*
X424407Y721053D01*
X422845Y721700D01*
X421155D01*
X419593Y721053D01*
X418397Y719857D01*
X417750Y718295D01*
Y716604D01*
X418397Y715042D01*
X419593Y713847D01*
X421155Y713200D01*
X422845D01*
X424407Y713847D01*
X425192Y714632D01*
X426000Y714907D01*
X426808Y714632D01*
X427593Y713847D01*
X429155Y713200D01*
X430845D01*
X432407Y713847D01*
X433603Y715042D01*
X434250Y716604D01*
Y718295D01*
X433603Y719857D01*
X432407Y721053D01*
X430845Y721700D01*
D02*
G37*
G36*
X947845Y728250D02*
X946155D01*
X944593Y727603D01*
X943397Y726407D01*
X942750Y724845D01*
Y723155D01*
X943397Y721593D01*
X944593Y720397D01*
X946155Y719750D01*
X947845D01*
X949407Y720397D01*
X950603Y721593D01*
X951250Y723155D01*
Y724845D01*
X950603Y726407D01*
X949407Y727603D01*
X947845Y728250D01*
D02*
G37*
G36*
X363741Y800384D02*
X362051D01*
X360489Y799737D01*
X359293Y798541D01*
X358646Y796979D01*
Y795288D01*
X359293Y793726D01*
X360489Y792531D01*
X362051Y791884D01*
X362701D01*
X363252Y791060D01*
Y789369D01*
X363899Y787807D01*
X365094Y786611D01*
X366656Y785964D01*
X367294D01*
X368102Y784694D01*
X367750Y783845D01*
Y782155D01*
X368397Y780593D01*
X369593Y779397D01*
X371155Y778750D01*
X372729D01*
X373434Y778113D01*
X373714Y777810D01*
Y776119D01*
X374361Y774557D01*
X375557Y773362D01*
X377119Y772714D01*
X377150D01*
X377998Y771444D01*
X377750Y770845D01*
Y769155D01*
X378397Y767593D01*
X379593Y766397D01*
X381155Y765750D01*
X382238D01*
X382915Y765610D01*
X383411Y764610D01*
Y763816D01*
X384058Y762254D01*
X385254Y761058D01*
X386816Y760411D01*
X387393Y759548D01*
X387173Y759018D01*
Y757327D01*
X387820Y755765D01*
X389016Y754570D01*
X389440Y754394D01*
Y753019D01*
X388703Y752714D01*
X387508Y751518D01*
X386861Y749956D01*
Y748266D01*
X387508Y746703D01*
X388339Y745872D01*
X388520Y744968D01*
X388293Y744303D01*
X387397Y743407D01*
X386750Y741845D01*
Y740155D01*
X387397Y738593D01*
X388182Y737808D01*
X388457Y737000D01*
X388182Y736192D01*
X387397Y735407D01*
X386750Y733845D01*
Y732155D01*
X387397Y730593D01*
X387910Y730080D01*
X388490Y729250D01*
X387910Y728420D01*
X387397Y727907D01*
X386750Y726345D01*
Y724655D01*
X387397Y723093D01*
X387910Y722580D01*
X388490Y721750D01*
X387910Y720920D01*
X387397Y720407D01*
X386750Y718845D01*
Y717155D01*
X387397Y715593D01*
X388593Y714397D01*
X390155Y713750D01*
X391845D01*
X393407Y714397D01*
X394603Y715593D01*
X395250Y717155D01*
Y718845D01*
X394603Y720407D01*
X394090Y720920D01*
X393510Y721750D01*
X394090Y722580D01*
X394603Y723093D01*
X395250Y724655D01*
Y726345D01*
X394603Y727907D01*
X394090Y728420D01*
X393510Y729250D01*
X394090Y730080D01*
X394603Y730593D01*
X395250Y732155D01*
Y733845D01*
X394603Y735407D01*
X393818Y736192D01*
X393543Y737000D01*
X393818Y737808D01*
X394603Y738593D01*
X395250Y740155D01*
Y741845D01*
X394603Y743407D01*
X393772Y744238D01*
X393591Y745143D01*
X393818Y745808D01*
X394714Y746703D01*
X395361Y748266D01*
Y749956D01*
X394714Y751518D01*
X393518Y752714D01*
X393093Y752890D01*
Y754265D01*
X393830Y754570D01*
X395026Y755765D01*
X395673Y757327D01*
Y759018D01*
X395026Y760580D01*
X393830Y761776D01*
X392268Y762423D01*
X391692Y763286D01*
X391911Y763816D01*
Y765507D01*
X391264Y767069D01*
X390069Y768264D01*
X388507Y768911D01*
X387423D01*
X386746Y769052D01*
X386250Y770051D01*
Y770845D01*
X385603Y772407D01*
X384407Y773603D01*
X382845Y774250D01*
X382815D01*
X381966Y775520D01*
X382215Y776119D01*
Y777810D01*
X381567Y779372D01*
X380372Y780567D01*
X378810Y781215D01*
X377235D01*
X376530Y781851D01*
X376250Y782155D01*
Y783845D01*
X375603Y785407D01*
X374407Y786603D01*
X372845Y787250D01*
X372207D01*
X371400Y788520D01*
X371752Y789369D01*
Y791060D01*
X371105Y792622D01*
X369909Y793817D01*
X368347Y794464D01*
X367697D01*
X367146Y795288D01*
Y796979D01*
X366499Y798541D01*
X365303Y799737D01*
X363741Y800384D01*
D02*
G37*
G36*
X463845Y714250D02*
X462155D01*
X460593Y713603D01*
X459808Y712818D01*
X459000Y712543D01*
X458192Y712818D01*
X457407Y713603D01*
X455845Y714250D01*
X454155D01*
X452593Y713603D01*
X451397Y712407D01*
X450750Y710845D01*
Y709155D01*
X451397Y707593D01*
X452182Y706808D01*
X452457Y706000D01*
X452182Y705192D01*
X451397Y704407D01*
X450750Y702845D01*
Y701155D01*
X451397Y699593D01*
X452593Y698397D01*
X454155Y697750D01*
X455845D01*
X457407Y698397D01*
X458192Y699182D01*
X459000Y699457D01*
X459808Y699182D01*
X460593Y698397D01*
X462155Y697750D01*
X463845D01*
X465407Y698397D01*
X466603Y699593D01*
X467250Y701155D01*
Y702845D01*
X466603Y704407D01*
X465818Y705192D01*
X465543Y706000D01*
X465818Y706808D01*
X466603Y707593D01*
X467250Y709155D01*
Y710845D01*
X466603Y712407D01*
X465407Y713603D01*
X463845Y714250D01*
D02*
G37*
G36*
X571845Y719250D02*
X570155D01*
X568593Y718603D01*
X567397Y717407D01*
X566750Y715845D01*
Y714155D01*
X567397Y712593D01*
X568593Y711397D01*
X570155Y710750D01*
X571845D01*
X573407Y711397D01*
X574603Y712593D01*
X575250Y714155D01*
Y715845D01*
X574603Y717407D01*
X573407Y718603D01*
X571845Y719250D01*
D02*
G37*
G36*
X339095Y698500D02*
X337405D01*
X335843Y697853D01*
X335058Y697068D01*
X334250Y696793D01*
X333442Y697068D01*
X332657Y697853D01*
X331095Y698500D01*
X329405D01*
X327842Y697853D01*
X326647Y696657D01*
X326000Y695095D01*
Y693405D01*
X326647Y691843D01*
X327432Y691058D01*
X327707Y690250D01*
X327432Y689442D01*
X326647Y688657D01*
X326000Y687095D01*
Y685405D01*
X326647Y683843D01*
X327842Y682647D01*
X329405Y682000D01*
X331095D01*
X332657Y682647D01*
X333442Y683432D01*
X334250Y683707D01*
X335058Y683432D01*
X335843Y682647D01*
X337405Y682000D01*
X339095D01*
X340657Y682647D01*
X341853Y683843D01*
X342500Y685405D01*
Y687095D01*
X341853Y688657D01*
X341068Y689442D01*
X340793Y690250D01*
X341068Y691058D01*
X341853Y691843D01*
X342500Y693405D01*
Y695095D01*
X341853Y696657D01*
X340657Y697853D01*
X339095Y698500D01*
D02*
G37*
G36*
X847235Y704500D02*
X845545D01*
X843982Y703853D01*
X842787Y702657D01*
X842140Y701095D01*
Y699405D01*
X842787Y697842D01*
X843982Y696647D01*
X845545Y696000D01*
X847235D01*
X848797Y696647D01*
X849993Y697842D01*
X850640Y699405D01*
Y701095D01*
X849993Y702657D01*
X848797Y703853D01*
X847235Y704500D01*
D02*
G37*
G36*
X989845Y700250D02*
X988155D01*
X986593Y699603D01*
X985397Y698407D01*
X984750Y696845D01*
Y695155D01*
X985397Y693593D01*
X986593Y692397D01*
X988155Y691750D01*
X989845D01*
X991407Y692397D01*
X992603Y693593D01*
X993250Y695155D01*
Y696845D01*
X992603Y698407D01*
X991407Y699603D01*
X989845Y700250D01*
D02*
G37*
G36*
X266845Y693250D02*
X265155D01*
X263592Y692603D01*
X262808Y691818D01*
X262000Y691543D01*
X261192Y691818D01*
X260407Y692603D01*
X258845Y693250D01*
X257155D01*
X255593Y692603D01*
X254808Y691818D01*
X254000Y691543D01*
X253192Y691818D01*
X252407Y692603D01*
X250845Y693250D01*
X249155D01*
X247593Y692603D01*
X246397Y691407D01*
X245750Y689845D01*
Y688155D01*
X246397Y686593D01*
X247593Y685397D01*
X249155Y684750D01*
X250845D01*
X252407Y685397D01*
X253192Y686182D01*
X254000Y686457D01*
X254808Y686182D01*
X255593Y685397D01*
X257155Y684750D01*
X258845D01*
X260407Y685397D01*
X261192Y686182D01*
X262000Y686457D01*
X262808Y686182D01*
X263592Y685397D01*
X265155Y684750D01*
X266845D01*
X268407Y685397D01*
X269603Y686593D01*
X270250Y688155D01*
Y689845D01*
X269603Y691407D01*
X268407Y692603D01*
X266845Y693250D01*
D02*
G37*
G36*
X635845Y690855D02*
X634155D01*
X632593Y690209D01*
X631397Y689013D01*
X630750Y687451D01*
Y685760D01*
X631397Y684198D01*
X632593Y683002D01*
X634155Y682355D01*
X635845D01*
X637407Y683002D01*
X638603Y684198D01*
X639250Y685760D01*
Y687451D01*
X638603Y689013D01*
X637407Y690209D01*
X635845Y690855D01*
D02*
G37*
G36*
X903845Y688250D02*
X902155D01*
X900593Y687603D01*
X899397Y686407D01*
X898750Y684845D01*
Y683155D01*
X899397Y681593D01*
X900593Y680397D01*
X902155Y679750D01*
X903845D01*
X905407Y680397D01*
X906603Y681593D01*
X907250Y683155D01*
Y684845D01*
X906603Y686407D01*
X905407Y687603D01*
X903845Y688250D01*
D02*
G37*
G36*
X761845Y686250D02*
X760155D01*
X758593Y685603D01*
X757397Y684407D01*
X756750Y682845D01*
Y681155D01*
X757397Y679593D01*
X758593Y678397D01*
X760155Y677750D01*
X761845D01*
X763407Y678397D01*
X764603Y679593D01*
X765250Y681155D01*
Y682845D01*
X764603Y684407D01*
X763407Y685603D01*
X761845Y686250D01*
D02*
G37*
G36*
X323845Y676250D02*
X322155D01*
X320593Y675603D01*
X319397Y674407D01*
X318750Y672845D01*
Y671155D01*
X319202Y670063D01*
X318246Y669084D01*
X317845Y669250D01*
X316155D01*
X314593Y668603D01*
X313397Y667407D01*
X312750Y665845D01*
Y664155D01*
X313397Y662593D01*
X314593Y661397D01*
X316155Y660750D01*
X317845D01*
X319407Y661397D01*
X320603Y662593D01*
X321250Y664155D01*
Y665845D01*
X320798Y666937D01*
X321754Y667916D01*
X322155Y667750D01*
X323845D01*
X325407Y668397D01*
X326603Y669593D01*
X327250Y671155D01*
Y672845D01*
X326603Y674407D01*
X325407Y675603D01*
X323845Y676250D01*
D02*
G37*
G36*
X347845Y682250D02*
X346155D01*
X344593Y681603D01*
X343397Y680407D01*
X342750Y678845D01*
Y677155D01*
X343397Y675593D01*
X344593Y674397D01*
X345099Y674187D01*
Y672813D01*
X344593Y672603D01*
X343397Y671407D01*
X342750Y669845D01*
Y668155D01*
X343397Y666593D01*
X344182Y665808D01*
X344457Y665000D01*
X344182Y664192D01*
X343397Y663407D01*
X342750Y661845D01*
Y660155D01*
X343397Y658593D01*
X344593Y657397D01*
X346155Y656750D01*
X347845D01*
X349407Y657397D01*
X350603Y658593D01*
X351250Y660155D01*
Y661845D01*
X350603Y663407D01*
X349818Y664192D01*
X349543Y665000D01*
X349818Y665808D01*
X350603Y666593D01*
X351250Y668155D01*
Y669845D01*
X350603Y671407D01*
X349407Y672603D01*
X348901Y672813D01*
Y674187D01*
X349407Y674397D01*
X350603Y675593D01*
X351250Y677155D01*
Y678845D01*
X350603Y680407D01*
X349407Y681603D01*
X347845Y682250D01*
D02*
G37*
G36*
X392845Y657250D02*
X391155D01*
X389593Y656603D01*
X388397Y655407D01*
X387750Y653845D01*
Y652155D01*
X388397Y650593D01*
X389593Y649397D01*
X391155Y648750D01*
X392845D01*
X394407Y649397D01*
X395603Y650593D01*
X396250Y652155D01*
Y653845D01*
X395603Y655407D01*
X394407Y656603D01*
X392845Y657250D01*
D02*
G37*
G36*
X235345Y649750D02*
X233655D01*
X232093Y649103D01*
X230897Y647907D01*
X230886Y647880D01*
X230243Y647768D01*
X229473Y647788D01*
X228407Y648853D01*
X226845Y649500D01*
X225155D01*
X223593Y648853D01*
X222397Y647657D01*
X221750Y646095D01*
Y644405D01*
X222397Y642843D01*
X223182Y642058D01*
X223457Y641250D01*
X223182Y640442D01*
X222397Y639657D01*
X221750Y638095D01*
Y636405D01*
X222397Y634843D01*
X223593Y633647D01*
X225155Y633000D01*
X226845D01*
X228407Y633647D01*
X229603Y634843D01*
X229615Y634871D01*
X230885D01*
X230897Y634843D01*
X232093Y633647D01*
X233655Y633000D01*
X235345D01*
X236907Y633647D01*
X238103Y634843D01*
X238750Y636405D01*
Y638095D01*
X238103Y639657D01*
X237141Y640619D01*
X237003Y641375D01*
X237141Y642131D01*
X238103Y643093D01*
X238750Y644655D01*
Y646345D01*
X238103Y647907D01*
X236907Y649103D01*
X235345Y649750D01*
D02*
G37*
G36*
X283845Y655250D02*
X282155D01*
X280593Y654603D01*
X279397Y653407D01*
X278750Y651845D01*
Y650155D01*
X279397Y648593D01*
X280593Y647397D01*
X282155Y646750D01*
X283845D01*
X285407Y647397D01*
X286603Y648593D01*
X287250Y650155D01*
Y651845D01*
X286603Y653407D01*
X285407Y654603D01*
X283845Y655250D01*
D02*
G37*
G36*
X522845Y644250D02*
X521155D01*
X519593Y643603D01*
X518397Y642407D01*
X517750Y640845D01*
Y639155D01*
X518397Y637593D01*
X519593Y636397D01*
X521155Y635750D01*
X522845D01*
X524407Y636397D01*
X525603Y637593D01*
X526250Y639155D01*
Y640845D01*
X525603Y642407D01*
X524407Y643603D01*
X522845Y644250D01*
D02*
G37*
G36*
X465845Y632250D02*
X464155D01*
X462593Y631603D01*
X461397Y630407D01*
X460750Y628845D01*
Y627155D01*
X461397Y625593D01*
X462593Y624397D01*
X463099Y624187D01*
Y622813D01*
X462593Y622603D01*
X461397Y621407D01*
X460750Y619845D01*
Y618155D01*
X461397Y616593D01*
X462593Y615397D01*
X464155Y614750D01*
X465845D01*
X467407Y615397D01*
X468603Y616593D01*
X469250Y618155D01*
Y619845D01*
X468603Y621407D01*
X467407Y622603D01*
X466901Y622813D01*
Y624187D01*
X467407Y624397D01*
X468603Y625593D01*
X469250Y627155D01*
Y628845D01*
X468603Y630407D01*
X467407Y631603D01*
X465845Y632250D01*
D02*
G37*
G36*
X88095Y621305D02*
X86405D01*
X84843Y620658D01*
X83647Y619463D01*
X83000Y617901D01*
Y616210D01*
X83647Y614648D01*
X84843Y613452D01*
X86405Y612805D01*
X88095D01*
X89657Y613452D01*
X90853Y614648D01*
X91500Y616210D01*
Y617901D01*
X90853Y619463D01*
X89657Y620658D01*
X88095Y621305D01*
D02*
G37*
G36*
X453845Y617250D02*
X452155D01*
X450593Y616603D01*
X449397Y615407D01*
X448750Y613845D01*
Y612155D01*
X449397Y610593D01*
X450593Y609397D01*
X452155Y608750D01*
X453845D01*
X455407Y609397D01*
X456603Y610593D01*
X457250Y612155D01*
Y613845D01*
X456603Y615407D01*
X455407Y616603D01*
X453845Y617250D01*
D02*
G37*
G36*
X493845Y613250D02*
X492155D01*
X490593Y612603D01*
X489397Y611407D01*
X488750Y609845D01*
Y608155D01*
X489397Y606593D01*
X490593Y605397D01*
X492155Y604750D01*
X493845D01*
X495407Y605397D01*
X496603Y606593D01*
X497250Y608155D01*
Y609845D01*
X496603Y611407D01*
X495407Y612603D01*
X493845Y613250D01*
D02*
G37*
G36*
Y594250D02*
X492155D01*
X490593Y593603D01*
X489397Y592407D01*
X488750Y590845D01*
Y589155D01*
X489397Y587593D01*
X490593Y586397D01*
X492155Y585750D01*
X493845D01*
X495407Y586397D01*
X496603Y587593D01*
X497250Y589155D01*
Y590845D01*
X496603Y592407D01*
X495407Y593603D01*
X493845Y594250D01*
D02*
G37*
G36*
X1038845Y592250D02*
X1037155D01*
X1035593Y591603D01*
X1034397Y590407D01*
X1033750Y588845D01*
Y587155D01*
X1034397Y585593D01*
X1035593Y584397D01*
X1037155Y583750D01*
X1038845D01*
X1040407Y584397D01*
X1041603Y585593D01*
X1042250Y587155D01*
Y588845D01*
X1041603Y590407D01*
X1040407Y591603D01*
X1038845Y592250D01*
D02*
G37*
G36*
X328724Y587250D02*
X327033D01*
X325471Y586603D01*
X324276Y585407D01*
X323629Y583845D01*
Y582155D01*
X324276Y580593D01*
X325471Y579397D01*
X327033Y578750D01*
X328724D01*
X330286Y579397D01*
X331482Y580593D01*
X332129Y582155D01*
Y583845D01*
X331482Y585407D01*
X330286Y586603D01*
X328724Y587250D01*
D02*
G37*
G36*
X903348Y583856D02*
X901657D01*
X900095Y583209D01*
X898899Y582013D01*
X898252Y580451D01*
Y578760D01*
X898899Y577198D01*
X900095Y576003D01*
X901657Y575355D01*
X903348D01*
X904910Y576003D01*
X906105Y577198D01*
X906752Y578760D01*
Y580451D01*
X906105Y582013D01*
X904910Y583209D01*
X903348Y583856D01*
D02*
G37*
G36*
X764845Y581250D02*
X763155D01*
X761593Y580603D01*
X760397Y579408D01*
X759750Y577845D01*
Y576155D01*
X760397Y574593D01*
X761593Y573397D01*
X763155Y572750D01*
X764845D01*
X766407Y573397D01*
X767603Y574593D01*
X768250Y576155D01*
Y577845D01*
X767603Y579408D01*
X766407Y580603D01*
X764845Y581250D01*
D02*
G37*
G36*
X630845D02*
X629155D01*
X627593Y580603D01*
X626397Y579408D01*
X625750Y577845D01*
Y576155D01*
X626397Y574593D01*
X627593Y573397D01*
X629155Y572750D01*
X630845D01*
X632407Y573397D01*
X633603Y574593D01*
X634250Y576155D01*
Y577845D01*
X633603Y579408D01*
X632407Y580603D01*
X630845Y581250D01*
D02*
G37*
G36*
X493845Y573250D02*
X492155D01*
X490593Y572603D01*
X489397Y571407D01*
X488750Y569845D01*
Y568154D01*
X489397Y566592D01*
X490593Y565397D01*
X492155Y564750D01*
X493845D01*
X495407Y565397D01*
X496603Y566592D01*
X497250Y568154D01*
Y569845D01*
X496603Y571407D01*
X495407Y572603D01*
X493845Y573250D01*
D02*
G37*
G36*
X84845Y567250D02*
X83155D01*
X81593Y566603D01*
X80397Y565407D01*
X79750Y563845D01*
Y562155D01*
X80397Y560593D01*
X81593Y559397D01*
X83155Y558750D01*
X84845D01*
X86407Y559397D01*
X87603Y560593D01*
X88250Y562155D01*
Y563845D01*
X87603Y565407D01*
X86407Y566603D01*
X84845Y567250D01*
D02*
G37*
G36*
X490845Y557250D02*
X489155D01*
X487593Y556603D01*
X486397Y555407D01*
X485750Y553845D01*
Y552155D01*
X486397Y550593D01*
X487593Y549397D01*
X489155Y548750D01*
X490845D01*
X492407Y549397D01*
X493603Y550593D01*
X494250Y552155D01*
Y553845D01*
X493603Y555407D01*
X492407Y556603D01*
X490845Y557250D01*
D02*
G37*
G36*
X841845Y532250D02*
X840155D01*
X838593Y531603D01*
X837397Y530407D01*
X836750Y528845D01*
Y527155D01*
X837397Y525593D01*
X838593Y524397D01*
X840155Y523750D01*
X841845D01*
X843407Y524397D01*
X844603Y525593D01*
X845250Y527155D01*
Y528845D01*
X844603Y530407D01*
X843407Y531603D01*
X841845Y532250D01*
D02*
G37*
G36*
X799845D02*
X798155D01*
X796593Y531603D01*
X795397Y530407D01*
X794750Y528845D01*
Y527155D01*
X795397Y525593D01*
X796593Y524397D01*
X798155Y523750D01*
X799845D01*
X801407Y524397D01*
X802603Y525593D01*
X803250Y527155D01*
Y528845D01*
X802603Y530407D01*
X801407Y531603D01*
X799845Y532250D01*
D02*
G37*
G36*
X564845Y528250D02*
X563155D01*
X561593Y527603D01*
X560397Y526407D01*
X559750Y524845D01*
Y523155D01*
X560397Y521593D01*
X561593Y520397D01*
X563155Y519750D01*
X564845D01*
X566407Y520397D01*
X567603Y521593D01*
X568250Y523155D01*
Y524845D01*
X567603Y526407D01*
X566407Y527603D01*
X564845Y528250D01*
D02*
G37*
G36*
X590845Y527250D02*
X589155D01*
X587593Y526603D01*
X586397Y525407D01*
X585750Y523845D01*
Y522155D01*
X586397Y520593D01*
X587593Y519397D01*
X589155Y518750D01*
X590845D01*
X592407Y519397D01*
X593603Y520593D01*
X594250Y522155D01*
Y523845D01*
X593603Y525407D01*
X592407Y526603D01*
X590845Y527250D01*
D02*
G37*
G36*
X166845Y523250D02*
X165155D01*
X163593Y522603D01*
X162397Y521407D01*
X161750Y519845D01*
Y518155D01*
X162397Y516593D01*
X163593Y515397D01*
X165155Y514750D01*
X166845D01*
X168407Y515397D01*
X169603Y516593D01*
X170250Y518155D01*
Y519845D01*
X169603Y521407D01*
X168407Y522603D01*
X166845Y523250D01*
D02*
G37*
G36*
X343845Y522250D02*
X342155D01*
X340593Y521603D01*
X339397Y520407D01*
X338750Y518845D01*
Y517155D01*
X339397Y515593D01*
X340593Y514397D01*
X342155Y513750D01*
X343845D01*
X345407Y514397D01*
X346603Y515593D01*
X347250Y517155D01*
Y518845D01*
X346603Y520407D01*
X345407Y521603D01*
X343845Y522250D01*
D02*
G37*
G36*
X745845Y519250D02*
X744155D01*
X742593Y518603D01*
X741397Y517407D01*
X740750Y515845D01*
Y514155D01*
X741397Y512593D01*
X742593Y511397D01*
X744155Y510750D01*
X745845D01*
X747407Y511397D01*
X748603Y512593D01*
X749250Y514155D01*
Y515845D01*
X748603Y517407D01*
X747407Y518603D01*
X745845Y519250D01*
D02*
G37*
G36*
X631845Y513250D02*
X630155D01*
X628593Y512603D01*
X627397Y511407D01*
X626750Y509845D01*
Y508155D01*
X627397Y506593D01*
X628593Y505397D01*
X630155Y504750D01*
X631845D01*
X633407Y505397D01*
X634603Y506593D01*
X635250Y508155D01*
Y509845D01*
X634603Y511407D01*
X633407Y512603D01*
X631845Y513250D01*
D02*
G37*
G36*
X267845Y501250D02*
X266155D01*
X264593Y500603D01*
X263397Y499407D01*
X262750Y497845D01*
Y496155D01*
X263397Y494593D01*
X264593Y493397D01*
X266155Y492750D01*
X267845D01*
X269407Y493397D01*
X270603Y494593D01*
X271250Y496155D01*
Y497845D01*
X270603Y499407D01*
X269407Y500603D01*
X267845Y501250D01*
D02*
G37*
G36*
X256845D02*
X255155D01*
X253593Y500603D01*
X252397Y499407D01*
X251750Y497845D01*
Y496155D01*
X252397Y494593D01*
X253593Y493397D01*
X255155Y492750D01*
X256845D01*
X258407Y493397D01*
X259603Y494593D01*
X260250Y496155D01*
Y497845D01*
X259603Y499407D01*
X258407Y500603D01*
X256845Y501250D01*
D02*
G37*
G36*
X975345Y491500D02*
X973655D01*
X972093Y490853D01*
X971000Y489760D01*
X969907Y490853D01*
X968345Y491500D01*
X966655D01*
X965093Y490853D01*
X964000Y489760D01*
X962907Y490853D01*
X961345Y491500D01*
X959655D01*
X958093Y490853D01*
X956897Y489657D01*
X956250Y488095D01*
Y486405D01*
X956897Y484843D01*
X957682Y484058D01*
X957957Y483250D01*
X957682Y482442D01*
X956897Y481657D01*
X956250Y480095D01*
Y478405D01*
X956897Y476843D01*
X958093Y475647D01*
X959655Y475000D01*
X961345D01*
X962907Y475647D01*
X964000Y476740D01*
X965093Y475647D01*
X966655Y475000D01*
X968345D01*
X969907Y475647D01*
X971000Y476740D01*
X972093Y475647D01*
X973655Y475000D01*
X975345D01*
X976907Y475647D01*
X978103Y476843D01*
X978750Y478405D01*
Y480095D01*
X978103Y481657D01*
X977318Y482442D01*
X977043Y483250D01*
X977318Y484058D01*
X978103Y484843D01*
X978750Y486405D01*
Y488095D01*
X978103Y489657D01*
X976907Y490853D01*
X975345Y491500D01*
D02*
G37*
G36*
X697595Y756520D02*
X695905D01*
X694343Y755873D01*
X693147Y754677D01*
X692500Y753115D01*
Y751425D01*
X693147Y749863D01*
X694343Y748667D01*
X695635Y748131D01*
Y519519D01*
X659977Y483861D01*
X659623Y483943D01*
X659221Y485338D01*
X687442Y513558D01*
X687442Y513558D01*
X687884Y514220D01*
X688039Y515000D01*
Y742495D01*
X688407Y742647D01*
X689603Y743843D01*
X690250Y745405D01*
Y747095D01*
X689603Y748657D01*
X688407Y749853D01*
X686845Y750500D01*
X685155D01*
X683593Y749853D01*
X682397Y748657D01*
X681750Y747095D01*
Y745405D01*
X682397Y743843D01*
X683593Y742647D01*
X683961Y742495D01*
Y515845D01*
X651214Y483097D01*
X650845Y483250D01*
X649155D01*
X647593Y482603D01*
X646397Y481407D01*
X645750Y479845D01*
Y478155D01*
X646397Y476593D01*
X647593Y475397D01*
X649155Y474750D01*
X650845D01*
X652407Y475397D01*
X653192Y476182D01*
X654000Y476457D01*
X654808Y476182D01*
X655593Y475397D01*
X657155Y474750D01*
X658845D01*
X660407Y475397D01*
X661603Y476593D01*
X662250Y478155D01*
Y479845D01*
X662097Y480214D01*
X699117Y517233D01*
X699117Y517233D01*
X699559Y517894D01*
X699714Y518675D01*
X699714Y518675D01*
Y749223D01*
X700353Y749863D01*
X701000Y751425D01*
Y753115D01*
X700353Y754677D01*
X699157Y755873D01*
X697595Y756520D01*
D02*
G37*
G36*
X639845Y488250D02*
X638155D01*
X636593Y487603D01*
X635397Y486407D01*
X634750Y484845D01*
Y483155D01*
X635397Y481593D01*
X636593Y480397D01*
X638155Y479750D01*
X639845D01*
X641407Y480397D01*
X642603Y481593D01*
X643250Y483155D01*
Y484845D01*
X642603Y486407D01*
X641407Y487603D01*
X639845Y488250D01*
D02*
G37*
G36*
X319345Y480500D02*
X317655D01*
X316093Y479853D01*
X315000Y478760D01*
X313907Y479853D01*
X312345Y480500D01*
X310655D01*
X309093Y479853D01*
X308000Y478760D01*
X306908Y479853D01*
X305345Y480500D01*
X303655D01*
X302093Y479853D01*
X300897Y478657D01*
X300250Y477095D01*
Y475405D01*
X300897Y473843D01*
X302093Y472647D01*
X303655Y472000D01*
X305345D01*
X306908Y472647D01*
X308000Y473740D01*
X309093Y472647D01*
X310655Y472000D01*
X312345D01*
X313907Y472647D01*
X315000Y473740D01*
X316093Y472647D01*
X317655Y472000D01*
X319345D01*
X320908Y472647D01*
X322103Y473843D01*
X322750Y475405D01*
Y477095D01*
X322103Y478657D01*
X320908Y479853D01*
X319345Y480500D01*
D02*
G37*
G36*
X832845Y457250D02*
X831155D01*
X829593Y456603D01*
X828500Y455510D01*
X827407Y456603D01*
X825845Y457250D01*
X824155D01*
X822593Y456603D01*
X821500Y455510D01*
X820407Y456603D01*
X818845Y457250D01*
X817155D01*
X815593Y456603D01*
X814500Y455510D01*
X813407Y456603D01*
X811845Y457250D01*
X810155D01*
X808593Y456603D01*
X807397Y455407D01*
X806750Y453845D01*
Y452155D01*
X807397Y450593D01*
X808593Y449397D01*
X810155Y448750D01*
X811845D01*
X813407Y449397D01*
X814500Y450490D01*
X815593Y449397D01*
X817155Y448750D01*
X818845D01*
X820407Y449397D01*
X821500Y450490D01*
X822593Y449397D01*
X824155Y448750D01*
X825845D01*
X827407Y449397D01*
X828500Y450490D01*
X829593Y449397D01*
X831155Y448750D01*
X832845D01*
X834407Y449397D01*
X835603Y450593D01*
X836250Y452155D01*
Y453845D01*
X835603Y455407D01*
X834407Y456603D01*
X832845Y457250D01*
D02*
G37*
G36*
X752845D02*
X751155D01*
X749593Y456603D01*
X748500Y455510D01*
X747407Y456603D01*
X745845Y457250D01*
X744155D01*
X742592Y456603D01*
X741500Y455510D01*
X740407Y456603D01*
X738845Y457250D01*
X737155D01*
X735593Y456603D01*
X734500Y455510D01*
X733407Y456603D01*
X731845Y457250D01*
X730155D01*
X728593Y456603D01*
X727397Y455407D01*
X726750Y453845D01*
Y452155D01*
X727397Y450593D01*
X728593Y449397D01*
X730155Y448750D01*
X731845D01*
X733407Y449397D01*
X734500Y450490D01*
X735593Y449397D01*
X737155Y448750D01*
X738845D01*
X740407Y449397D01*
X741500Y450490D01*
X742592Y449397D01*
X744155Y448750D01*
X745845D01*
X747407Y449397D01*
X748500Y450490D01*
X749593Y449397D01*
X751155Y448750D01*
X752845D01*
X754407Y449397D01*
X755603Y450593D01*
X756250Y452155D01*
Y453845D01*
X755603Y455407D01*
X754407Y456603D01*
X752845Y457250D01*
D02*
G37*
G36*
X619845D02*
X618155D01*
X616593Y456603D01*
X615500Y455510D01*
X614407Y456603D01*
X612845Y457250D01*
X611155D01*
X609593Y456603D01*
X608500Y455510D01*
X607407Y456603D01*
X605845Y457250D01*
X604155D01*
X602593Y456603D01*
X601500Y455510D01*
X600407Y456603D01*
X598845Y457250D01*
X597155D01*
X595593Y456603D01*
X594397Y455407D01*
X593750Y453845D01*
Y452155D01*
X594397Y450593D01*
X595593Y449397D01*
X597155Y448750D01*
X598845D01*
X600407Y449397D01*
X601500Y450490D01*
X602593Y449397D01*
X604155Y448750D01*
X605845D01*
X607407Y449397D01*
X608500Y450490D01*
X609593Y449397D01*
X611155Y448750D01*
X612845D01*
X614407Y449397D01*
X615500Y450490D01*
X616593Y449397D01*
X618155Y448750D01*
X619845D01*
X621407Y449397D01*
X622603Y450593D01*
X623250Y452155D01*
Y453845D01*
X622603Y455407D01*
X621407Y456603D01*
X619845Y457250D01*
D02*
G37*
G36*
X800845Y462250D02*
X799155D01*
X797593Y461603D01*
X796397Y460407D01*
X795750Y458845D01*
Y457155D01*
X796397Y455592D01*
X797593Y454397D01*
X799155Y453750D01*
X800845D01*
X802407Y454397D01*
X803603Y455592D01*
X804250Y457155D01*
Y458845D01*
X803603Y460407D01*
X802407Y461603D01*
X800845Y462250D01*
D02*
G37*
G36*
X376845Y461250D02*
X375155D01*
X373593Y460603D01*
X372397Y459407D01*
X371750Y457845D01*
Y456155D01*
X372397Y454593D01*
X373593Y453397D01*
X375155Y452750D01*
X376845D01*
X378407Y453397D01*
X379603Y454593D01*
X380250Y456155D01*
Y457845D01*
X379603Y459407D01*
X378407Y460603D01*
X376845Y461250D01*
D02*
G37*
G36*
X890845Y452250D02*
X889155D01*
X887593Y451603D01*
X886397Y450407D01*
X884900Y450111D01*
X884407Y450603D01*
X882845Y451250D01*
X881155D01*
X879593Y450603D01*
X878397Y449407D01*
X877750Y447845D01*
Y446155D01*
X878397Y444593D01*
X879593Y443397D01*
X881155Y442750D01*
X882845D01*
X884407Y443397D01*
X885603Y444593D01*
X887101Y444889D01*
X887593Y444397D01*
X889155Y443750D01*
X890845D01*
X892407Y444397D01*
X893603Y445593D01*
X894250Y447155D01*
Y448845D01*
X893603Y450407D01*
X892407Y451603D01*
X890845Y452250D01*
D02*
G37*
G36*
X504845Y458250D02*
X503155D01*
X501593Y457603D01*
X500397Y456407D01*
X499750Y454845D01*
Y453155D01*
X500397Y451593D01*
X501593Y450397D01*
X503155Y449750D01*
X504845D01*
X506407Y450397D01*
X507603Y451593D01*
X508250Y453155D01*
Y454845D01*
X507603Y456407D01*
X506407Y457603D01*
X504845Y458250D01*
D02*
G37*
G36*
X583845Y457250D02*
X582155D01*
X580593Y456603D01*
X579397Y455407D01*
X578750Y453845D01*
Y452155D01*
X579397Y450593D01*
X580593Y449397D01*
X582155Y448750D01*
X583845D01*
X585407Y449397D01*
X586603Y450593D01*
X587250Y452155D01*
Y453845D01*
X586603Y455407D01*
X585407Y456603D01*
X583845Y457250D01*
D02*
G37*
G36*
X403845Y456250D02*
X402155D01*
X400593Y455603D01*
X399397Y454407D01*
X398750Y452845D01*
Y451155D01*
X399397Y449593D01*
X400593Y448397D01*
X402155Y447750D01*
X403845D01*
X405407Y448397D01*
X406603Y449593D01*
X407250Y451155D01*
Y452845D01*
X406603Y454407D01*
X405407Y455603D01*
X403845Y456250D01*
D02*
G37*
G36*
X715845Y453250D02*
X714155D01*
X712593Y452603D01*
X711397Y451407D01*
X710750Y449845D01*
Y448155D01*
X710819Y447987D01*
X709743Y447268D01*
X709407Y447603D01*
X707845Y448250D01*
X706155D01*
X704593Y447603D01*
X703397Y446407D01*
X702750Y444845D01*
Y443155D01*
X703397Y441593D01*
X704593Y440397D01*
X706155Y439750D01*
X707845D01*
X709407Y440397D01*
X710603Y441593D01*
X711250Y443155D01*
Y444845D01*
X711181Y445013D01*
X712257Y445732D01*
X712593Y445397D01*
X714155Y444750D01*
X715845D01*
X717407Y445397D01*
X718603Y446593D01*
X719250Y448155D01*
Y449845D01*
X718603Y451407D01*
X717407Y452603D01*
X715845Y453250D01*
D02*
G37*
G36*
X657845Y446250D02*
X656155D01*
X654593Y445603D01*
X653500Y444510D01*
X652407Y445603D01*
X650845Y446250D01*
X649155D01*
X647593Y445603D01*
X646500Y444510D01*
X645407Y445603D01*
X643845Y446250D01*
X642155D01*
X640593Y445603D01*
X639500Y444510D01*
X638407Y445603D01*
X636845Y446250D01*
X635155D01*
X633593Y445603D01*
X632397Y444407D01*
X631750Y442845D01*
Y441155D01*
X632397Y439593D01*
X633593Y438397D01*
X635155Y437750D01*
X636845D01*
X638407Y438397D01*
X639500Y439490D01*
X640593Y438397D01*
X642155Y437750D01*
X643845D01*
X645407Y438397D01*
X646500Y439490D01*
X647593Y438397D01*
X649155Y437750D01*
X650845D01*
X652407Y438397D01*
X653500Y439490D01*
X654593Y438397D01*
X656155Y437750D01*
X657845D01*
X659407Y438397D01*
X660603Y439593D01*
X661250Y441155D01*
Y442845D01*
X660603Y444407D01*
X659407Y445603D01*
X657845Y446250D01*
D02*
G37*
G36*
X858996Y451949D02*
X857305D01*
X855743Y451302D01*
X854548Y450106D01*
X853901Y448544D01*
Y446853D01*
X854548Y445291D01*
X855743Y444096D01*
X857305Y443449D01*
X858996D01*
X860558Y444096D01*
X861754Y445291D01*
X862401Y446853D01*
Y448544D01*
X861754Y450106D01*
X860558Y451302D01*
X858996Y451949D01*
D02*
G37*
G36*
X795845Y451250D02*
X794155D01*
X792593Y450603D01*
X791397Y449407D01*
X790750Y447845D01*
Y446155D01*
X791397Y444593D01*
X792593Y443397D01*
X794155Y442750D01*
X795845D01*
X797407Y443397D01*
X798603Y444593D01*
X799250Y446155D01*
Y447845D01*
X798603Y449407D01*
X797407Y450603D01*
X795845Y451250D01*
D02*
G37*
G36*
X384845D02*
X383155D01*
X381593Y450603D01*
X380397Y449407D01*
X379750Y447845D01*
Y446155D01*
X380397Y444593D01*
X381593Y443397D01*
X383155Y442750D01*
X384845D01*
X386407Y443397D01*
X387603Y444593D01*
X388250Y446155D01*
Y447845D01*
X387603Y449407D01*
X386407Y450603D01*
X384845Y451250D01*
D02*
G37*
G36*
X493845Y450250D02*
X492155D01*
X490593Y449603D01*
X489397Y448407D01*
X488750Y446845D01*
Y445155D01*
X489397Y443593D01*
X490593Y442397D01*
X492155Y441750D01*
X493845D01*
X495407Y442397D01*
X496603Y443593D01*
X497250Y445155D01*
Y446845D01*
X496603Y448407D01*
X495407Y449603D01*
X493845Y450250D01*
D02*
G37*
G36*
X575845Y448250D02*
X574155D01*
X572593Y447603D01*
X571397Y446407D01*
X570750Y444845D01*
Y443155D01*
X571397Y441593D01*
X572593Y440397D01*
X574155Y439750D01*
X575845D01*
X577407Y440397D01*
X578603Y441593D01*
X579250Y443155D01*
Y444845D01*
X578603Y446407D01*
X577407Y447603D01*
X575845Y448250D01*
D02*
G37*
G36*
X374845Y435250D02*
X373155D01*
X371593Y434603D01*
X370397Y433407D01*
X369750Y431845D01*
Y430155D01*
X370397Y428593D01*
X371593Y427397D01*
X373155Y426750D01*
X374845D01*
X376407Y427397D01*
X377603Y428593D01*
X378250Y430155D01*
Y431845D01*
X377603Y433407D01*
X376407Y434603D01*
X374845Y435250D01*
D02*
G37*
G36*
X675845Y411250D02*
X674155D01*
X672593Y410603D01*
X672174Y410185D01*
X671345Y409454D01*
X670515Y410185D01*
X670097Y410603D01*
X668535Y411250D01*
X666844D01*
X665282Y410603D01*
X664092Y409413D01*
X662902Y410603D01*
X661340Y411250D01*
X659649D01*
X658087Y410603D01*
X656891Y409407D01*
X656245Y407845D01*
Y406155D01*
X656891Y404593D01*
X658087Y403397D01*
X659649Y402750D01*
X661340D01*
X662902Y403397D01*
X664092Y404587D01*
X665282Y403397D01*
X666844Y402750D01*
X668535D01*
X670097Y403397D01*
X670515Y403815D01*
X671345Y404546D01*
X672174Y403815D01*
X672593Y403397D01*
X674155Y402750D01*
X675845D01*
X677407Y403397D01*
X678603Y404593D01*
X679250Y406155D01*
Y407845D01*
X678603Y409407D01*
X677407Y410603D01*
X675845Y411250D01*
D02*
G37*
G36*
X341845Y413289D02*
X340155D01*
X338593Y412642D01*
X337397Y411447D01*
X336750Y409885D01*
Y408194D01*
X337397Y406632D01*
X338593Y405436D01*
X340155Y404789D01*
X341845D01*
X343407Y405436D01*
X344603Y406632D01*
X345250Y408194D01*
Y409885D01*
X344603Y411447D01*
X343407Y412642D01*
X341845Y413289D01*
D02*
G37*
G36*
X901000Y335082D02*
X872000D01*
X871235Y334765D01*
X870765Y334765D01*
X870000Y335082D01*
X840000D01*
X839235Y334765D01*
X838918Y334000D01*
Y293448D01*
X798235Y252765D01*
X797918Y252000D01*
X797918Y239465D01*
X796648Y239125D01*
X795752Y240675D01*
X793425Y243002D01*
X790575Y244648D01*
X787396Y245500D01*
X784104D01*
X780925Y244648D01*
X778075Y243002D01*
X777756Y242683D01*
X776582Y243169D01*
Y264552D01*
X815765Y303734D01*
X816082Y304500D01*
Y334000D01*
X815765Y334765D01*
X815000Y335082D01*
X764000D01*
X763235Y334765D01*
X762918Y334000D01*
Y324698D01*
X710256Y272036D01*
X709082Y272523D01*
Y277552D01*
X735765Y304235D01*
X736082Y305000D01*
Y334000D01*
X735765Y334765D01*
X735000Y335082D01*
X684000D01*
X683235Y334765D01*
X682918Y334000D01*
Y319448D01*
X641235Y277765D01*
X640918Y277000D01*
Y238375D01*
X640918Y215000D01*
X641235Y214235D01*
X649235Y206235D01*
X650000Y205918D01*
X700000D01*
X700765Y206235D01*
X708750Y214219D01*
X716735Y206235D01*
X717500Y205918D01*
X767500D01*
X768265Y206235D01*
X776265Y214235D01*
X776582Y215000D01*
Y222831D01*
X777756Y223317D01*
X778075Y222997D01*
X780925Y221352D01*
X784104Y220500D01*
X787396D01*
X790575Y221352D01*
X793425Y222997D01*
X795752Y225325D01*
X796648Y226875D01*
X797918Y226535D01*
X797918Y212948D01*
X764052Y179082D01*
X756776Y179082D01*
X756447Y180309D01*
X756601Y180398D01*
X758602Y182399D01*
X760017Y184851D01*
X760750Y187585D01*
Y190415D01*
X760017Y193149D01*
X758602Y195601D01*
X756601Y197602D01*
X754149Y199017D01*
X751415Y199750D01*
X748585D01*
X745851Y199017D01*
X743399Y197602D01*
X741398Y195601D01*
X739983Y193149D01*
X739250Y190415D01*
Y187585D01*
X739983Y184851D01*
X741398Y182399D01*
X743399Y180398D01*
X743553Y180309D01*
X743224Y179082D01*
X732386Y179082D01*
X732220Y179082D01*
X731871Y179507D01*
X731725Y179988D01*
X731726Y180523D01*
X733602Y182399D01*
X735017Y184851D01*
X735750Y187585D01*
Y190415D01*
X735017Y193149D01*
X733602Y195601D01*
X731601Y197602D01*
X729149Y199017D01*
X726415Y199750D01*
X723585D01*
X720851Y199017D01*
X718399Y197602D01*
X716398Y195601D01*
X714983Y193149D01*
X714250Y190415D01*
Y187585D01*
X714983Y184851D01*
X716398Y182399D01*
X718399Y180398D01*
X718553Y180309D01*
X718224Y179082D01*
X706776D01*
X706447Y180309D01*
X706601Y180398D01*
X708602Y182399D01*
X710017Y184851D01*
X710750Y187585D01*
Y190415D01*
X710017Y193149D01*
X708602Y195601D01*
X706601Y197602D01*
X704149Y199017D01*
X701415Y199750D01*
X698585D01*
X695851Y199017D01*
X693399Y197602D01*
X691398Y195601D01*
X689983Y193149D01*
X689250Y190415D01*
Y187585D01*
X689983Y184851D01*
X691398Y182399D01*
X693399Y180398D01*
X693553Y180309D01*
X693523Y180197D01*
X693000Y179083D01*
X692235Y178765D01*
X692234Y178765D01*
X688830Y175360D01*
X688778Y175332D01*
X687222D01*
X687170Y175360D01*
X683765Y178765D01*
X683000Y179082D01*
X681776D01*
X681447Y180309D01*
X681601Y180398D01*
X683602Y182399D01*
X685017Y184851D01*
X685750Y187585D01*
Y190415D01*
X685017Y193149D01*
X683602Y195601D01*
X681601Y197602D01*
X679149Y199017D01*
X676415Y199750D01*
X673585D01*
X670851Y199017D01*
X668399Y197602D01*
X666398Y195601D01*
X664983Y193149D01*
X664250Y190415D01*
Y187585D01*
X664983Y184851D01*
X666398Y182399D01*
X668399Y180398D01*
X668553Y180309D01*
X668224Y179082D01*
X656776D01*
X656447Y180309D01*
X656601Y180398D01*
X658602Y182399D01*
X660017Y184851D01*
X660750Y187585D01*
Y190415D01*
X660017Y193149D01*
X658602Y195601D01*
X656601Y197602D01*
X654149Y199017D01*
X651415Y199750D01*
X648585D01*
X645851Y199017D01*
X643399Y197602D01*
X641398Y195601D01*
X639983Y193149D01*
X639250Y190415D01*
Y187585D01*
X639983Y184851D01*
X641398Y182399D01*
X643399Y180398D01*
X645851Y178983D01*
X646675Y178762D01*
X647004Y177535D01*
X644500Y175031D01*
X640765Y178765D01*
X640000Y179082D01*
X631776D01*
X631447Y180309D01*
X631601Y180398D01*
X633602Y182399D01*
X635017Y184851D01*
X635750Y187585D01*
Y190415D01*
X635017Y193149D01*
X633602Y195601D01*
X631601Y197602D01*
X629149Y199017D01*
X626415Y199750D01*
X623585D01*
X620851Y199017D01*
X618399Y197602D01*
X616398Y195601D01*
X614983Y193149D01*
X614250Y190415D01*
Y187585D01*
X614983Y184851D01*
X616398Y182399D01*
X618399Y180398D01*
X618553Y180309D01*
X618224Y179082D01*
X614000D01*
X613235Y178765D01*
X613235Y178765D01*
X609235Y174765D01*
X608918Y174000D01*
Y114000D01*
X609235Y113235D01*
X609235Y113235D01*
X613235Y109235D01*
X614000Y108918D01*
X833000D01*
X833765Y109235D01*
X933765Y209235D01*
X934082Y210000D01*
Y248000D01*
X933858Y248541D01*
X934082Y249082D01*
Y277000D01*
X933765Y277765D01*
X933000Y278082D01*
X908000D01*
X907235Y277765D01*
X907234Y277765D01*
X882235Y252765D01*
X881918Y252000D01*
X881918Y217448D01*
X800552Y136082D01*
X783272D01*
X782786Y137256D01*
X832765Y187235D01*
X833082Y188000D01*
Y214499D01*
X834352Y214751D01*
X834947Y213316D01*
X837300Y209795D01*
X840295Y206800D01*
X843816Y204447D01*
X847729Y202826D01*
X851882Y202000D01*
X856118D01*
X860271Y202826D01*
X864184Y204447D01*
X867705Y206800D01*
X870700Y209795D01*
X873053Y213316D01*
X874674Y217229D01*
X875500Y221382D01*
Y225618D01*
X874674Y229771D01*
X873053Y233684D01*
X870700Y237205D01*
X867705Y240200D01*
X864184Y242553D01*
X860271Y244174D01*
X856118Y245000D01*
X851882D01*
X848692Y244365D01*
X848067Y245536D01*
X901765Y299235D01*
X902082Y300000D01*
Y334000D01*
X901765Y334765D01*
X901000Y335082D01*
D02*
G37*
G36*
X822845Y337250D02*
X821155D01*
X819593Y336603D01*
X818397Y335407D01*
X817750Y333845D01*
Y332155D01*
X818397Y330593D01*
X819593Y329397D01*
X821155Y328750D01*
X822845D01*
X824407Y329397D01*
X825603Y330593D01*
X826250Y332155D01*
Y333845D01*
X825603Y335407D01*
X824407Y336603D01*
X822845Y337250D01*
D02*
G37*
G36*
X745845Y332250D02*
X744155D01*
X742592Y331603D01*
X741397Y330407D01*
X740750Y328845D01*
Y327155D01*
X741397Y325593D01*
X742592Y324397D01*
X744155Y323750D01*
X745845D01*
X747407Y324397D01*
X748603Y325593D01*
X749250Y327155D01*
Y328845D01*
X748603Y330407D01*
X747407Y331603D01*
X745845Y332250D01*
D02*
G37*
G36*
X664845D02*
X663155D01*
X661593Y331603D01*
X660397Y330407D01*
X659750Y328845D01*
Y327155D01*
X660397Y325593D01*
X661593Y324397D01*
X663155Y323750D01*
X664845D01*
X666407Y324397D01*
X667603Y325593D01*
X668250Y327155D01*
Y328845D01*
X667603Y330407D01*
X666407Y331603D01*
X664845Y332250D01*
D02*
G37*
G36*
X620296D02*
X618605D01*
X617043Y331603D01*
X615847Y330407D01*
X615200Y328845D01*
Y327155D01*
X615847Y325593D01*
X617043Y324397D01*
X618605Y323750D01*
X620296D01*
X621858Y324397D01*
X623053Y325593D01*
X623700Y327155D01*
Y328845D01*
X623053Y330407D01*
X621858Y331603D01*
X620296Y332250D01*
D02*
G37*
G36*
X451845D02*
X450155D01*
X448592Y331603D01*
X447397Y330407D01*
X446750Y328845D01*
Y327155D01*
X447397Y325593D01*
X448592Y324397D01*
X450155Y323750D01*
X451845D01*
X453407Y324397D01*
X454603Y325593D01*
X455250Y327155D01*
Y328845D01*
X454603Y330407D01*
X453407Y331603D01*
X451845Y332250D01*
D02*
G37*
G36*
X369845D02*
X368155D01*
X366593Y331603D01*
X365397Y330407D01*
X364750Y328845D01*
Y327155D01*
X365397Y325593D01*
X366593Y324397D01*
X368155Y323750D01*
X369845D01*
X371407Y324397D01*
X372603Y325593D01*
X373250Y327155D01*
Y328845D01*
X372603Y330407D01*
X371407Y331603D01*
X369845Y332250D01*
D02*
G37*
G36*
X934845Y304250D02*
X933155D01*
X931593Y303603D01*
X930397Y302407D01*
X929750Y300845D01*
Y299155D01*
X930397Y297593D01*
X931593Y296397D01*
X933155Y295750D01*
X934845D01*
X936407Y296397D01*
X937603Y297593D01*
X938250Y299155D01*
Y300845D01*
X937603Y302407D01*
X936407Y303603D01*
X934845Y304250D01*
D02*
G37*
G36*
X181845Y296250D02*
X180155D01*
X178593Y295603D01*
X177397Y294407D01*
X176750Y292845D01*
Y291155D01*
X177397Y289593D01*
X178593Y288397D01*
X180155Y287750D01*
X181845D01*
X183407Y288397D01*
X184603Y289593D01*
X185250Y291155D01*
Y292845D01*
X184603Y294407D01*
X183407Y295603D01*
X181845Y296250D01*
D02*
G37*
G36*
X1154845Y294250D02*
X1153155D01*
X1151593Y293603D01*
X1150397Y292407D01*
X1149750Y290845D01*
Y289155D01*
X1150397Y287593D01*
X1151593Y286397D01*
X1153155Y285750D01*
X1154845D01*
X1156407Y286397D01*
X1157603Y287593D01*
X1158250Y289155D01*
Y290845D01*
X1157603Y292407D01*
X1156407Y293603D01*
X1154845Y294250D01*
D02*
G37*
G36*
X1107845Y288250D02*
X1106155D01*
X1104593Y287603D01*
X1103397Y286407D01*
X1102750Y284845D01*
Y283155D01*
X1103397Y281593D01*
X1104593Y280397D01*
X1106155Y279750D01*
X1107845D01*
X1109407Y280397D01*
X1110603Y281593D01*
X1111250Y283155D01*
Y284845D01*
X1110603Y286407D01*
X1109407Y287603D01*
X1107845Y288250D01*
D02*
G37*
G36*
X1048845Y284250D02*
X1047155D01*
X1045593Y283603D01*
X1044397Y282407D01*
X1043750Y280845D01*
Y279155D01*
X1044397Y277593D01*
X1045593Y276397D01*
X1047155Y275750D01*
X1048845D01*
X1050407Y276397D01*
X1051603Y277593D01*
X1052250Y279155D01*
Y280845D01*
X1051603Y282407D01*
X1050407Y283603D01*
X1048845Y284250D01*
D02*
G37*
G36*
X75845Y280250D02*
X74155D01*
X72593Y279603D01*
X71397Y278407D01*
X70750Y276845D01*
Y275155D01*
X71397Y273593D01*
X72593Y272397D01*
X74155Y271750D01*
X75845D01*
X77407Y272397D01*
X78603Y273593D01*
X79250Y275155D01*
Y276845D01*
X78603Y278407D01*
X77407Y279603D01*
X75845Y280250D01*
D02*
G37*
G36*
X602000Y335082D02*
X551000D01*
X550235Y334765D01*
X549918Y334000D01*
Y280500D01*
X549918Y280500D01*
X550235Y279735D01*
X555918Y274052D01*
Y270772D01*
X554744Y270286D01*
X523082Y301948D01*
Y334000D01*
X522765Y334765D01*
X522000Y335082D01*
X470000D01*
X469235Y334765D01*
X468918Y334000D01*
Y288500D01*
X468918Y288500D01*
X469235Y287735D01*
X488418Y268552D01*
Y263272D01*
X487244Y262786D01*
X440082Y309948D01*
Y334000D01*
X439765Y334765D01*
X439000Y335082D01*
X388000D01*
X387235Y334765D01*
X386918Y334000D01*
Y277000D01*
X386917Y215000D01*
X386917Y215000D01*
X387234Y214235D01*
X387235Y214235D01*
X396235Y205235D01*
X397000Y204918D01*
X438000Y204918D01*
X479000D01*
X479765Y205235D01*
X488750Y214219D01*
X497735Y205235D01*
X498500Y204918D01*
X546500D01*
X546500Y204918D01*
X547265Y205235D01*
X547265Y205235D01*
X556250Y214219D01*
X565235Y205235D01*
X566000Y204918D01*
X614000D01*
X614765Y205235D01*
X614765Y205235D01*
X623765Y214235D01*
X624082Y215000D01*
X624082Y237375D01*
X624082Y268750D01*
X624082Y268750D01*
X623765Y269515D01*
X623765Y269515D01*
X603082Y290198D01*
Y334000D01*
X602765Y334765D01*
X602000Y335082D01*
D02*
G37*
G36*
X1170845Y267250D02*
X1169155D01*
X1167593Y266603D01*
X1166397Y265407D01*
X1165750Y263845D01*
Y262155D01*
X1166397Y260593D01*
X1167593Y259397D01*
X1169155Y258750D01*
X1170845D01*
X1172407Y259397D01*
X1173603Y260593D01*
X1174250Y262155D01*
Y263845D01*
X1173603Y265407D01*
X1172407Y266603D01*
X1170845Y267250D01*
D02*
G37*
G36*
X1173845Y255250D02*
X1172155D01*
X1170593Y254603D01*
X1169397Y253407D01*
X1168750Y251845D01*
Y250155D01*
X1169397Y248593D01*
X1170593Y247397D01*
X1172155Y246750D01*
X1173845D01*
X1175407Y247397D01*
X1176603Y248593D01*
X1177250Y250155D01*
Y251845D01*
X1176603Y253407D01*
X1175407Y254603D01*
X1173845Y255250D01*
D02*
G37*
G36*
X1043845Y250250D02*
X1042155D01*
X1040593Y249603D01*
X1039397Y248407D01*
X1038750Y246845D01*
Y245155D01*
X1039397Y243593D01*
X1040593Y242397D01*
X1042155Y241750D01*
X1043845D01*
X1045407Y242397D01*
X1046603Y243593D01*
X1047250Y245155D01*
Y246845D01*
X1046603Y248407D01*
X1045407Y249603D01*
X1043845Y250250D01*
D02*
G37*
G36*
X86845Y244250D02*
X85155D01*
X83593Y243603D01*
X82397Y242407D01*
X81750Y240845D01*
Y239155D01*
X82397Y237593D01*
X83593Y236397D01*
X85155Y235750D01*
X86845D01*
X88407Y236397D01*
X89603Y237593D01*
X90250Y239155D01*
Y240845D01*
X89603Y242407D01*
X88407Y243603D01*
X86845Y244250D01*
D02*
G37*
G36*
X1177845Y240250D02*
X1176155D01*
X1174593Y239603D01*
X1173397Y238407D01*
X1172750Y236845D01*
Y235155D01*
X1173397Y233593D01*
X1174593Y232397D01*
X1176155Y231750D01*
X1177845D01*
X1179407Y232397D01*
X1180603Y233593D01*
X1181250Y235155D01*
Y236845D01*
X1180603Y238407D01*
X1179407Y239603D01*
X1177845Y240250D01*
D02*
G37*
G36*
X72845Y232250D02*
X71155D01*
X69592Y231603D01*
X68500Y230510D01*
X67407Y231603D01*
X65845Y232250D01*
X64155D01*
X62593Y231603D01*
X61808Y230818D01*
X61000Y230543D01*
X60192Y230818D01*
X59408Y231603D01*
X57845Y232250D01*
X56155D01*
X54593Y231603D01*
X53397Y230407D01*
X52750Y228845D01*
Y227155D01*
X53397Y225593D01*
X54490Y224500D01*
X53397Y223407D01*
X52750Y221845D01*
Y220155D01*
X53397Y218593D01*
X54593Y217397D01*
X56155Y216750D01*
X57845D01*
X59408Y217397D01*
X60192Y218182D01*
X61000Y218457D01*
X61808Y218182D01*
X62593Y217397D01*
X64155Y216750D01*
X65845D01*
X67407Y217397D01*
X68500Y218490D01*
X69592Y217397D01*
X71155Y216750D01*
X72845D01*
X74407Y217397D01*
X75603Y218593D01*
X76250Y220155D01*
Y221845D01*
X75603Y223407D01*
X74510Y224500D01*
X75603Y225593D01*
X76250Y227155D01*
Y228845D01*
X75603Y230407D01*
X74407Y231603D01*
X72845Y232250D01*
D02*
G37*
G36*
X1066845Y235250D02*
X1065155D01*
X1063593Y234603D01*
X1062397Y233407D01*
X1061750Y231845D01*
Y230155D01*
X1062397Y228593D01*
X1063593Y227397D01*
X1065155Y226750D01*
X1066845D01*
X1068407Y227397D01*
X1069603Y228593D01*
X1070250Y230155D01*
Y231845D01*
X1069603Y233407D01*
X1068407Y234603D01*
X1066845Y235250D01*
D02*
G37*
G36*
X143345Y246500D02*
X141655D01*
X140093Y245853D01*
X138897Y244657D01*
X138250Y243095D01*
Y241405D01*
X138897Y239843D01*
X139285Y239455D01*
X140072Y238625D01*
X139285Y237795D01*
X138897Y237407D01*
X138250Y235845D01*
Y234155D01*
X138897Y232593D01*
X139682Y231808D01*
X139957Y231000D01*
X139682Y230192D01*
X138897Y229407D01*
X138250Y227845D01*
Y226155D01*
X138897Y224593D01*
X140093Y223397D01*
X141655Y222750D01*
X143345D01*
X144907Y223397D01*
X146103Y224593D01*
X146750Y226155D01*
Y227845D01*
X146103Y229407D01*
X145318Y230192D01*
X145043Y231000D01*
X145318Y231808D01*
X146103Y232593D01*
X146750Y234155D01*
Y235845D01*
X146103Y237407D01*
X145715Y237795D01*
X144928Y238625D01*
X145715Y239455D01*
X146103Y239843D01*
X146750Y241405D01*
Y243095D01*
X146103Y244657D01*
X144907Y245853D01*
X143345Y246500D01*
D02*
G37*
G36*
X1181845Y228250D02*
X1180155D01*
X1178593Y227603D01*
X1177397Y226407D01*
X1176750Y224845D01*
Y223155D01*
X1177397Y221593D01*
X1178593Y220397D01*
X1180155Y219750D01*
X1181845D01*
X1183407Y220397D01*
X1184603Y221593D01*
X1185250Y223155D01*
Y224845D01*
X1184603Y226407D01*
X1183407Y227603D01*
X1181845Y228250D01*
D02*
G37*
G36*
X213845Y227250D02*
X212155D01*
X210593Y226603D01*
X209397Y225407D01*
X208750Y223845D01*
Y222155D01*
X209397Y220593D01*
X210593Y219397D01*
X212155Y218750D01*
X213845D01*
X215407Y219397D01*
X216603Y220593D01*
X217250Y222155D01*
Y223845D01*
X216603Y225407D01*
X215407Y226603D01*
X213845Y227250D01*
D02*
G37*
G36*
X186845Y226250D02*
X185155D01*
X183593Y225603D01*
X182397Y224407D01*
X181750Y222845D01*
Y221155D01*
X182397Y219593D01*
X183593Y218397D01*
X185155Y217750D01*
X186845D01*
X188407Y218397D01*
X189603Y219593D01*
X190250Y221155D01*
Y222845D01*
X189603Y224407D01*
X188407Y225603D01*
X186845Y226250D01*
D02*
G37*
G36*
X173845D02*
X172155D01*
X170593Y225603D01*
X169397Y224407D01*
X168750Y222845D01*
Y221155D01*
X169397Y219593D01*
X170593Y218397D01*
X172155Y217750D01*
X173845D01*
X175407Y218397D01*
X176603Y219593D01*
X177250Y221155D01*
Y222845D01*
X176603Y224407D01*
X175407Y225603D01*
X173845Y226250D01*
D02*
G37*
G36*
X161845D02*
X160155D01*
X158593Y225603D01*
X157397Y224407D01*
X156750Y222845D01*
Y221155D01*
X157397Y219593D01*
X158593Y218397D01*
X160155Y217750D01*
X161845D01*
X163407Y218397D01*
X164603Y219593D01*
X165250Y221155D01*
Y222845D01*
X164603Y224407D01*
X163407Y225603D01*
X161845Y226250D01*
D02*
G37*
G36*
X348118Y245000D02*
X343882D01*
X339729Y244174D01*
X335816Y242553D01*
X332295Y240200D01*
X329300Y237205D01*
X326947Y233684D01*
X325326Y229771D01*
X324500Y225618D01*
Y221382D01*
X325326Y217229D01*
X326947Y213316D01*
X329300Y209795D01*
X332295Y206800D01*
X335816Y204447D01*
X339729Y202826D01*
X343882Y202000D01*
X348118D01*
X352271Y202826D01*
X356184Y204447D01*
X359705Y206800D01*
X362700Y209795D01*
X365053Y213316D01*
X366674Y217229D01*
X367500Y221382D01*
Y225618D01*
X366674Y229771D01*
X365053Y233684D01*
X362700Y237205D01*
X359705Y240200D01*
X356184Y242553D01*
X352271Y244174D01*
X348118Y245000D01*
D02*
G37*
G36*
X601415Y199750D02*
X598585D01*
X595851Y199017D01*
X593399Y197602D01*
X591398Y195601D01*
X589983Y193149D01*
X589250Y190415D01*
Y187585D01*
X589983Y184851D01*
X591398Y182399D01*
X593399Y180398D01*
X595851Y178983D01*
X598585Y178250D01*
X601415D01*
X604149Y178983D01*
X606601Y180398D01*
X608602Y182399D01*
X610017Y184851D01*
X610750Y187585D01*
Y190415D01*
X610017Y193149D01*
X608602Y195601D01*
X606601Y197602D01*
X604149Y199017D01*
X601415Y199750D01*
D02*
G37*
G36*
X576415D02*
X573585D01*
X570851Y199017D01*
X568399Y197602D01*
X566398Y195601D01*
X564983Y193149D01*
X564250Y190415D01*
Y187585D01*
X564983Y184851D01*
X566398Y182399D01*
X568399Y180398D01*
X570851Y178983D01*
X573585Y178250D01*
X576415D01*
X579149Y178983D01*
X581601Y180398D01*
X583602Y182399D01*
X585017Y184851D01*
X585750Y187585D01*
Y190415D01*
X585017Y193149D01*
X583602Y195601D01*
X581601Y197602D01*
X579149Y199017D01*
X576415Y199750D01*
D02*
G37*
G36*
X551415D02*
X548585D01*
X545851Y199017D01*
X543399Y197602D01*
X541398Y195601D01*
X539983Y193149D01*
X539250Y190415D01*
Y187585D01*
X539983Y184851D01*
X541398Y182399D01*
X543399Y180398D01*
X545851Y178983D01*
X548585Y178250D01*
X551415D01*
X554149Y178983D01*
X556601Y180398D01*
X558602Y182399D01*
X560017Y184851D01*
X560750Y187585D01*
Y190415D01*
X560017Y193149D01*
X558602Y195601D01*
X556601Y197602D01*
X554149Y199017D01*
X551415Y199750D01*
D02*
G37*
G36*
X526415D02*
X523585D01*
X520851Y199017D01*
X518399Y197602D01*
X516398Y195601D01*
X514983Y193149D01*
X514250Y190415D01*
Y187585D01*
X514983Y184851D01*
X516398Y182399D01*
X518399Y180398D01*
X520851Y178983D01*
X523585Y178250D01*
X526415D01*
X529149Y178983D01*
X531601Y180398D01*
X533602Y182399D01*
X535017Y184851D01*
X535750Y187585D01*
Y190415D01*
X535017Y193149D01*
X533602Y195601D01*
X531601Y197602D01*
X529149Y199017D01*
X526415Y199750D01*
D02*
G37*
G36*
X501415D02*
X498585D01*
X495851Y199017D01*
X493399Y197602D01*
X491398Y195601D01*
X489983Y193149D01*
X489250Y190415D01*
Y187585D01*
X489983Y184851D01*
X491398Y182399D01*
X493399Y180398D01*
X495851Y178983D01*
X498585Y178250D01*
X501415D01*
X504149Y178983D01*
X506601Y180398D01*
X508602Y182399D01*
X510017Y184851D01*
X510750Y187585D01*
Y190415D01*
X510017Y193149D01*
X508602Y195601D01*
X506601Y197602D01*
X504149Y199017D01*
X501415Y199750D01*
D02*
G37*
G36*
X476415D02*
X473585D01*
X470851Y199017D01*
X468399Y197602D01*
X466398Y195601D01*
X464983Y193149D01*
X464250Y190415D01*
Y187585D01*
X464983Y184851D01*
X466398Y182399D01*
X468399Y180398D01*
X470851Y178983D01*
X473585Y178250D01*
X476415D01*
X479149Y178983D01*
X481601Y180398D01*
X483602Y182399D01*
X485017Y184851D01*
X485750Y187585D01*
Y190415D01*
X485017Y193149D01*
X483602Y195601D01*
X481601Y197602D01*
X479149Y199017D01*
X476415Y199750D01*
D02*
G37*
G36*
X451415D02*
X448585D01*
X445851Y199017D01*
X443399Y197602D01*
X441398Y195601D01*
X439983Y193149D01*
X439250Y190415D01*
Y187585D01*
X439983Y184851D01*
X441398Y182399D01*
X443399Y180398D01*
X445851Y178983D01*
X448585Y178250D01*
X451415D01*
X454149Y178983D01*
X456601Y180398D01*
X458602Y182399D01*
X460017Y184851D01*
X460750Y187585D01*
Y190415D01*
X460017Y193149D01*
X458602Y195601D01*
X456601Y197602D01*
X454149Y199017D01*
X451415Y199750D01*
D02*
G37*
G36*
X1014845Y182250D02*
X1013155D01*
X1011593Y181603D01*
X1010397Y180407D01*
X1009750Y178845D01*
Y177155D01*
X1010397Y175593D01*
X1011593Y174397D01*
X1013155Y173750D01*
X1014845D01*
X1016407Y174397D01*
X1017603Y175593D01*
X1018250Y177155D01*
Y178845D01*
X1017603Y180407D01*
X1016407Y181603D01*
X1014845Y182250D01*
D02*
G37*
G36*
X935845Y200250D02*
X934155D01*
X932593Y199603D01*
X931397Y198407D01*
X930750Y196845D01*
Y195155D01*
X931397Y193593D01*
X932593Y192397D01*
X934155Y191750D01*
X935845D01*
X935928Y191784D01*
X936900Y190812D01*
X936500Y189845D01*
Y188155D01*
X937147Y186593D01*
X938343Y185397D01*
X939905Y184750D01*
X941595D01*
X941678Y184784D01*
X942651Y183812D01*
X942250Y182845D01*
Y181155D01*
X942897Y179593D01*
X944093Y178397D01*
X945655Y177750D01*
X947345D01*
X947429Y177784D01*
X948400Y176812D01*
X948000Y175845D01*
Y174155D01*
X948647Y172593D01*
X949843Y171397D01*
X951405Y170750D01*
X953095D01*
X954658Y171397D01*
X955853Y172593D01*
X956500Y174155D01*
Y175845D01*
X955853Y177407D01*
X954658Y178603D01*
X953095Y179250D01*
X951405D01*
X951321Y179216D01*
X950350Y180188D01*
X950750Y181155D01*
Y182845D01*
X950103Y184408D01*
X948907Y185603D01*
X947345Y186250D01*
X945655D01*
X945572Y186216D01*
X944600Y187188D01*
X945000Y188155D01*
Y189845D01*
X944353Y191407D01*
X943157Y192603D01*
X941595Y193250D01*
X939905D01*
X939821Y193216D01*
X938849Y194188D01*
X939250Y195155D01*
Y196845D01*
X938603Y198407D01*
X937407Y199603D01*
X935845Y200250D01*
D02*
G37*
G36*
X1045845Y168000D02*
X1044155D01*
X1042593Y167353D01*
X1041397Y166157D01*
X1040750Y164595D01*
Y162905D01*
X1041397Y161343D01*
X1042593Y160147D01*
X1044155Y159500D01*
X1045845D01*
X1047407Y160147D01*
X1048603Y161343D01*
X1049250Y162905D01*
Y164595D01*
X1048603Y166157D01*
X1047407Y167353D01*
X1045845Y168000D01*
D02*
G37*
G36*
X955845Y165250D02*
X954155D01*
X952593Y164603D01*
X951397Y163407D01*
X950750Y161845D01*
Y160155D01*
X951397Y158593D01*
X952593Y157397D01*
X954155Y156750D01*
X955845D01*
X957407Y157397D01*
X958603Y158593D01*
X959250Y160155D01*
Y161845D01*
X958603Y163407D01*
X957407Y164603D01*
X955845Y165250D01*
D02*
G37*
G36*
X586365Y174750D02*
X583535D01*
X580801Y174017D01*
X578349Y172602D01*
X576348Y170601D01*
X574933Y168149D01*
X574200Y165415D01*
Y162585D01*
X574933Y159851D01*
X576348Y157399D01*
X578349Y155398D01*
X580801Y153983D01*
X583535Y153250D01*
X586365D01*
X589099Y153983D01*
X591551Y155398D01*
X593552Y157399D01*
X594967Y159851D01*
X595700Y162585D01*
Y165415D01*
X594967Y168149D01*
X593552Y170601D01*
X591551Y172602D01*
X589099Y174017D01*
X586365Y174750D01*
D02*
G37*
G36*
X551415D02*
X548585D01*
X545851Y174017D01*
X543399Y172602D01*
X541398Y170601D01*
X539983Y168149D01*
X539250Y165415D01*
Y162585D01*
X539983Y159851D01*
X541398Y157399D01*
X543399Y155398D01*
X545851Y153983D01*
X548585Y153250D01*
X551415D01*
X554149Y153983D01*
X556601Y155398D01*
X558602Y157399D01*
X560017Y159851D01*
X560750Y162585D01*
Y165415D01*
X560017Y168149D01*
X558602Y170601D01*
X556601Y172602D01*
X554149Y174017D01*
X551415Y174750D01*
D02*
G37*
G36*
X526415D02*
X523585D01*
X520851Y174017D01*
X518399Y172602D01*
X516398Y170601D01*
X514983Y168149D01*
X514250Y165415D01*
Y162585D01*
X514983Y159851D01*
X516398Y157399D01*
X518399Y155398D01*
X520851Y153983D01*
X523585Y153250D01*
X526415D01*
X529149Y153983D01*
X531601Y155398D01*
X533602Y157399D01*
X535017Y159851D01*
X535750Y162585D01*
Y165415D01*
X535017Y168149D01*
X533602Y170601D01*
X531601Y172602D01*
X529149Y174017D01*
X526415Y174750D01*
D02*
G37*
G36*
X501415D02*
X498585D01*
X495851Y174017D01*
X493399Y172602D01*
X491398Y170601D01*
X489983Y168149D01*
X489250Y165415D01*
Y162585D01*
X489983Y159851D01*
X491398Y157399D01*
X493399Y155398D01*
X495851Y153983D01*
X498585Y153250D01*
X501415D01*
X504149Y153983D01*
X506601Y155398D01*
X508602Y157399D01*
X510017Y159851D01*
X510750Y162585D01*
Y165415D01*
X510017Y168149D01*
X508602Y170601D01*
X506601Y172602D01*
X504149Y174017D01*
X501415Y174750D01*
D02*
G37*
G36*
X476415D02*
X473585D01*
X470851Y174017D01*
X468399Y172602D01*
X466398Y170601D01*
X464983Y168149D01*
X464250Y165415D01*
Y162585D01*
X464983Y159851D01*
X466398Y157399D01*
X468399Y155398D01*
X470851Y153983D01*
X473585Y153250D01*
X476415D01*
X479149Y153983D01*
X481601Y155398D01*
X483602Y157399D01*
X485017Y159851D01*
X485750Y162585D01*
Y165415D01*
X485017Y168149D01*
X483602Y170601D01*
X481601Y172602D01*
X479149Y174017D01*
X476415Y174750D01*
D02*
G37*
G36*
X451415D02*
X448585D01*
X445851Y174017D01*
X443399Y172602D01*
X441398Y170601D01*
X439983Y168149D01*
X439250Y165415D01*
Y162585D01*
X439983Y159851D01*
X441398Y157399D01*
X443399Y155398D01*
X445851Y153983D01*
X448585Y153250D01*
X451415D01*
X454149Y153983D01*
X456601Y155398D01*
X458602Y157399D01*
X460017Y159851D01*
X460750Y162585D01*
Y165415D01*
X460017Y168149D01*
X458602Y170601D01*
X456601Y172602D01*
X454149Y174017D01*
X451415Y174750D01*
D02*
G37*
G36*
X982845Y153250D02*
X981155D01*
X979593Y152603D01*
X978397Y151407D01*
X977750Y149845D01*
Y148155D01*
X978397Y146593D01*
X979593Y145397D01*
X981155Y144750D01*
X982845D01*
X984407Y145397D01*
X985603Y146593D01*
X986250Y148155D01*
Y149845D01*
X985603Y151407D01*
X984407Y152603D01*
X982845Y153250D01*
D02*
G37*
G36*
X1035845Y149500D02*
X1034155D01*
X1032592Y148853D01*
X1031397Y147657D01*
X1030750Y146095D01*
Y144405D01*
X1031397Y142843D01*
X1032592Y141647D01*
X1034155Y141000D01*
X1035845D01*
X1037407Y141647D01*
X1038603Y142843D01*
X1039250Y144405D01*
Y146095D01*
X1038603Y147657D01*
X1037407Y148853D01*
X1035845Y149500D01*
D02*
G37*
G36*
X1009845Y149250D02*
X1008155D01*
X1006593Y148603D01*
X1005397Y147407D01*
X1004750Y145845D01*
Y144155D01*
X1005397Y142593D01*
X1006593Y141397D01*
X1008155Y140750D01*
X1009845D01*
X1011407Y141397D01*
X1012603Y142593D01*
X1013250Y144155D01*
Y145845D01*
X1012603Y147407D01*
X1011407Y148603D01*
X1009845Y149250D01*
D02*
G37*
G36*
X955845Y144250D02*
X954155D01*
X952593Y143603D01*
X951397Y142407D01*
X950750Y140845D01*
Y139155D01*
X951397Y137593D01*
X952593Y136397D01*
X954155Y135750D01*
X955845D01*
X957407Y136397D01*
X958603Y137593D01*
X959250Y139155D01*
Y140845D01*
X958603Y142407D01*
X957407Y143603D01*
X955845Y144250D01*
D02*
G37*
G36*
X984845Y130121D02*
X983155D01*
X981593Y129474D01*
X980397Y128278D01*
X979750Y126716D01*
Y125026D01*
X980397Y123464D01*
X981593Y122268D01*
X983155Y121621D01*
X984845D01*
X986407Y122268D01*
X987603Y123464D01*
X988250Y125026D01*
Y126716D01*
X987603Y128278D01*
X986407Y129474D01*
X984845Y130121D01*
D02*
G37*
%LPD*%
G36*
X815000Y304500D02*
X775500Y265000D01*
Y240247D01*
X774102Y237825D01*
X773250Y234646D01*
Y231354D01*
X774102Y228175D01*
X775500Y225753D01*
Y215000D01*
X767500Y207000D01*
X717500D01*
X709500Y215000D01*
X709500Y238375D01*
X709500Y269750D01*
X764000Y324250D01*
Y334000D01*
X815000D01*
Y304500D01*
D02*
G37*
G36*
X735000Y305000D02*
X708000Y278000D01*
X708000Y215000D01*
X700000Y207000D01*
X650000D01*
X642000Y215000D01*
X642000Y238375D01*
Y277000D01*
X684000Y319000D01*
Y334000D01*
X735000D01*
Y305000D01*
D02*
G37*
G36*
X870918Y299591D02*
Y295448D01*
X816235Y240765D01*
X815918Y240000D01*
Y198448D01*
X814352Y196883D01*
X813082Y197409D01*
Y243552D01*
X869648Y300117D01*
X870918Y299591D01*
D02*
G37*
G36*
X870000Y302000D02*
X812000Y244000D01*
Y196000D01*
X765000Y149000D01*
X732000Y149000D01*
X728000Y153000D01*
Y164000D01*
X728000Y174000D01*
X732000Y178000D01*
X751000Y178000D01*
X764500Y178000D01*
X799000Y212500D01*
X799000Y252000D01*
X840000Y293000D01*
Y334000D01*
X870000D01*
Y302000D01*
D02*
G37*
G36*
X901000Y300000D02*
X843024Y242024D01*
X840295Y240200D01*
X837300Y237205D01*
X835476Y234476D01*
X832000Y231000D01*
Y188000D01*
X780082Y136082D01*
X744000D01*
X691917Y136082D01*
X689000Y139000D01*
Y174000D01*
X693000Y178000D01*
X721000D01*
X725000Y174000D01*
Y153000D01*
X731000Y147000D01*
X766000Y147000D01*
X817000Y198000D01*
Y240000D01*
X872000Y295000D01*
Y334000D01*
X901000D01*
Y300000D01*
D02*
G37*
G36*
X933000Y249082D02*
X906000D01*
X905235Y248765D01*
X904918Y248000D01*
Y215448D01*
X813552Y124082D01*
X648249D01*
X645082Y127249D01*
Y174000D01*
X645058Y174058D01*
X649000Y178000D01*
X683000D01*
X687000Y174000D01*
X687000Y139000D01*
X691000Y135000D01*
X744000Y135000D01*
X801000D01*
X883000Y217000D01*
X883000Y252000D01*
X908000Y277000D01*
X933000D01*
Y249082D01*
D02*
G37*
G36*
Y210000D02*
X833000Y110000D01*
X614000D01*
X610000Y114000D01*
Y174000D01*
X614000Y178000D01*
X640000D01*
X644000Y174000D01*
Y126801D01*
X647801Y123000D01*
X814000D01*
X906000Y215000D01*
Y248000D01*
X933000D01*
Y210000D01*
D02*
G37*
%LPC*%
G36*
X748950Y175093D02*
Y168000D01*
X756043D01*
X755899Y168535D01*
X754352Y171215D01*
X752165Y173402D01*
X749485Y174949D01*
X748950Y175093D01*
D02*
G37*
G36*
X740950Y175093D02*
X740415Y174949D01*
X737735Y173402D01*
X735548Y171215D01*
X734001Y168535D01*
X733857Y168000D01*
X740950D01*
Y175093D01*
D02*
G37*
G36*
Y160000D02*
X733857D01*
X734001Y159465D01*
X735548Y156785D01*
X737735Y154598D01*
X740415Y153051D01*
X740950Y152907D01*
Y160000D01*
D02*
G37*
G36*
X756043D02*
X748950D01*
Y152907D01*
X749485Y153051D01*
X752165Y154598D01*
X754352Y156785D01*
X755899Y159465D01*
X756043Y160000D01*
D02*
G37*
G36*
X708950Y175093D02*
Y168000D01*
X716043D01*
X715899Y168535D01*
X714352Y171215D01*
X712165Y173402D01*
X709485Y174949D01*
X708950Y175093D01*
D02*
G37*
G36*
X700950D02*
X700415Y174949D01*
X697735Y173402D01*
X695548Y171215D01*
X694001Y168535D01*
X693857Y168000D01*
X700950D01*
Y175093D01*
D02*
G37*
G36*
X716043Y160000D02*
X708950D01*
Y152907D01*
X709485Y153051D01*
X712165Y154598D01*
X714352Y156785D01*
X715899Y159465D01*
X716043Y160000D01*
D02*
G37*
G36*
X700950D02*
X693857D01*
X694001Y159465D01*
X695548Y156785D01*
X697735Y154598D01*
X700415Y153051D01*
X700950Y152907D01*
Y160000D01*
D02*
G37*
G36*
X668950Y175093D02*
Y168000D01*
X676043D01*
X675899Y168535D01*
X674352Y171215D01*
X672165Y173402D01*
X669485Y174949D01*
X668950Y175093D01*
D02*
G37*
G36*
X660950Y175093D02*
X660415Y174949D01*
X657735Y173402D01*
X655548Y171215D01*
X654001Y168535D01*
X653857Y168000D01*
X660950D01*
Y175093D01*
D02*
G37*
G36*
X676043Y160000D02*
X668950D01*
Y152907D01*
X669485Y153051D01*
X672165Y154598D01*
X674352Y156785D01*
X675899Y159465D01*
X676043Y160000D01*
D02*
G37*
G36*
X660950D02*
X653857D01*
X654001Y159465D01*
X655548Y156785D01*
X657735Y154598D01*
X660415Y153051D01*
X660950Y152907D01*
Y160000D01*
D02*
G37*
G36*
X628950Y175093D02*
Y168000D01*
X636043D01*
X635899Y168535D01*
X634352Y171215D01*
X632165Y173402D01*
X629485Y174949D01*
X628950Y175093D01*
D02*
G37*
G36*
X620950Y175093D02*
X620415Y174949D01*
X617735Y173402D01*
X615548Y171215D01*
X614001Y168535D01*
X613857Y168000D01*
X620950D01*
Y175093D01*
D02*
G37*
G36*
Y160000D02*
X613857D01*
X614001Y159465D01*
X615548Y156785D01*
X617735Y154598D01*
X620415Y153051D01*
X620950Y152907D01*
Y160000D01*
D02*
G37*
G36*
X636043D02*
X628950D01*
Y152907D01*
X629485Y153051D01*
X632165Y154598D01*
X634352Y156785D01*
X635899Y159465D01*
X636043Y160000D01*
D02*
G37*
%LPD*%
G36*
X602000Y289750D02*
X623000Y268750D01*
X623000Y237375D01*
X623000Y215000D01*
X614000Y206000D01*
X566000D01*
X557000Y215000D01*
Y244000D01*
Y274500D01*
X551000Y280500D01*
Y334000D01*
X602000D01*
Y289750D01*
D02*
G37*
G36*
X522000Y301500D02*
X555500Y268000D01*
X555500Y237000D01*
X555500Y215000D01*
X546500Y206000D01*
X498500D01*
X489500Y215000D01*
Y269000D01*
X470000Y288500D01*
Y334000D01*
X522000D01*
Y301500D01*
D02*
G37*
G36*
X439000Y309500D02*
X488000Y260500D01*
X488000Y215000D01*
X479000Y206000D01*
X438000D01*
X397000Y206000D01*
X388000Y215000D01*
X388000Y277000D01*
Y334000D01*
X439000D01*
Y309500D01*
D02*
G37*
%LPC*%
G36*
X415896Y245500D02*
X412604D01*
X409425Y244648D01*
X406575Y243002D01*
X404248Y240675D01*
X402602Y237825D01*
X401750Y234646D01*
Y231354D01*
X402602Y228175D01*
X404248Y225325D01*
X406575Y222997D01*
X409425Y221352D01*
X412604Y220500D01*
X415896D01*
X419075Y221352D01*
X421925Y222997D01*
X424253Y225325D01*
X425898Y228175D01*
X426750Y231354D01*
Y234646D01*
X425898Y237825D01*
X424253Y240675D01*
X421925Y243002D01*
X419075Y244648D01*
X415896Y245500D01*
D02*
G37*
%LPD*%
D10*
X686000Y515000D02*
Y746250D01*
X697675Y518675D02*
Y750128D01*
X696750Y751052D02*
Y752270D01*
X658000Y479000D02*
X697675Y518675D01*
X696750Y751052D02*
X697675Y750128D01*
X650000Y479000D02*
X686000Y515000D01*
D101*
X163100Y948850D02*
D03*
X220900D02*
D03*
X417000Y850000D02*
D03*
Y858750D02*
D03*
X362000Y871000D02*
D03*
X354000D02*
D03*
X58750Y549750D02*
D03*
X921000Y233000D02*
D03*
Y225000D02*
D03*
Y241000D02*
D03*
X914000Y233000D02*
D03*
Y241000D02*
D03*
Y225000D02*
D03*
Y253500D02*
D03*
Y269500D02*
D03*
Y261500D02*
D03*
X921000Y269500D02*
D03*
Y253500D02*
D03*
Y261500D02*
D03*
X952250Y175000D02*
D03*
X946500Y182000D02*
D03*
X940750Y189000D02*
D03*
X369000Y328000D02*
D03*
X142500Y227000D02*
D03*
X304500Y476250D02*
D03*
X311500D02*
D03*
X318500D02*
D03*
X974500Y487250D02*
D03*
X967500D02*
D03*
X960500D02*
D03*
Y479250D02*
D03*
X967500D02*
D03*
X974500D02*
D03*
X920000Y470000D02*
D03*
X996000Y743000D02*
D03*
X989000Y762750D02*
D03*
X949000Y788000D02*
D03*
X1045000Y163750D02*
D03*
X1035000Y145250D02*
D03*
X1014000Y178000D02*
D03*
X691250Y653000D02*
D03*
X437000Y800000D02*
D03*
X327879Y583000D02*
D03*
X301000Y548000D02*
D03*
X392000Y653000D02*
D03*
X483000Y506000D02*
D03*
X720000Y950000D02*
D03*
X672000D02*
D03*
X618000D02*
D03*
X565000D02*
D03*
X513000D02*
D03*
X356000D02*
D03*
X181000Y292000D02*
D03*
X707000Y444000D02*
D03*
X715000Y449000D02*
D03*
X731000Y453000D02*
D03*
X598000D02*
D03*
X605000D02*
D03*
X612000D02*
D03*
X619000D02*
D03*
X283000Y651000D02*
D03*
X200000Y910000D02*
D03*
X982000Y149000D02*
D03*
X902000Y789000D02*
D03*
X900000Y732000D02*
D03*
X858151Y447699D02*
D03*
X213000Y223000D02*
D03*
X186000Y222000D02*
D03*
X173000D02*
D03*
X161000D02*
D03*
X877000Y327500D02*
D03*
X883500D02*
D03*
X864000D02*
D03*
X856000D02*
D03*
X856000Y320500D02*
D03*
X393000Y327000D02*
D03*
X935000Y196000D02*
D03*
X393000Y320000D02*
D03*
X393000Y313000D02*
D03*
X451000Y328000D02*
D03*
X619450D02*
D03*
X664000D02*
D03*
X883500Y313500D02*
D03*
X877000D02*
D03*
X883500Y320500D02*
D03*
X877000D02*
D03*
X848000Y327500D02*
D03*
X864000Y320500D02*
D03*
X848000D02*
D03*
X856000Y313500D02*
D03*
X848000D02*
D03*
X864000D02*
D03*
X810000D02*
D03*
X770000D02*
D03*
X778000D02*
D03*
X786000D02*
D03*
X794000D02*
D03*
X802000D02*
D03*
X802000Y320500D02*
D03*
X794000D02*
D03*
X786000D02*
D03*
X778000D02*
D03*
X770000D02*
D03*
X810000D02*
D03*
X810000Y327500D02*
D03*
X770000D02*
D03*
X778000D02*
D03*
X786000D02*
D03*
X794000D02*
D03*
X802000D02*
D03*
X730000Y313500D02*
D03*
X690000D02*
D03*
X698000D02*
D03*
X706000D02*
D03*
X714000D02*
D03*
X722000D02*
D03*
X722000Y320500D02*
D03*
X714000D02*
D03*
X706000D02*
D03*
X698000D02*
D03*
X690000D02*
D03*
X730000D02*
D03*
X730000Y327500D02*
D03*
X690000D02*
D03*
X698000D02*
D03*
X706000D02*
D03*
X714000D02*
D03*
X722000D02*
D03*
X596000Y313000D02*
D03*
X556000D02*
D03*
X564000D02*
D03*
X572000D02*
D03*
X580000D02*
D03*
X588000D02*
D03*
X588000Y320000D02*
D03*
X580000D02*
D03*
X572000D02*
D03*
X564000D02*
D03*
X556000D02*
D03*
X596000D02*
D03*
X596000Y327000D02*
D03*
X556000D02*
D03*
X564000D02*
D03*
X572000D02*
D03*
X580000D02*
D03*
X588000D02*
D03*
X507000Y327500D02*
D03*
X499000D02*
D03*
X491000D02*
D03*
X483000D02*
D03*
X475000D02*
D03*
X515000D02*
D03*
X515000Y320500D02*
D03*
X475000D02*
D03*
X483000D02*
D03*
X491000D02*
D03*
X499000D02*
D03*
X507000D02*
D03*
X507000Y313500D02*
D03*
X499000D02*
D03*
X491000D02*
D03*
X483000D02*
D03*
X475000D02*
D03*
X515000D02*
D03*
X433000Y313000D02*
D03*
X401000D02*
D03*
X409000D02*
D03*
X417000D02*
D03*
X425000D02*
D03*
X425000Y320000D02*
D03*
X417000D02*
D03*
X409000D02*
D03*
X401000D02*
D03*
X433000D02*
D03*
X433000Y327000D02*
D03*
X401000D02*
D03*
X409000D02*
D03*
X417000D02*
D03*
X425000D02*
D03*
X822000Y333000D02*
D03*
X745000Y328000D02*
D03*
X530000Y618000D02*
D03*
X532000Y575000D02*
D03*
Y530000D02*
D03*
X531000Y554000D02*
D03*
X890000Y769000D02*
D03*
Y745000D02*
D03*
Y761000D02*
D03*
Y753000D02*
D03*
X882000Y745000D02*
D03*
Y753000D02*
D03*
Y761000D02*
D03*
Y769000D02*
D03*
X327000Y826000D02*
D03*
X338000Y871000D02*
D03*
X346000D02*
D03*
X417000Y840500D02*
D03*
X696750Y752270D02*
D03*
X686000Y746250D02*
D03*
X853000Y800000D02*
D03*
X855000Y744000D02*
D03*
X1089000Y656000D02*
D03*
X1038000Y674000D02*
D03*
X1035000Y640000D02*
D03*
X997000Y630000D02*
D03*
X954000Y658000D02*
D03*
X905000Y669000D02*
D03*
X903000Y684000D02*
D03*
X899000Y636000D02*
D03*
X862000Y631000D02*
D03*
X818000Y652000D02*
D03*
X766000Y666000D02*
D03*
X762000Y636000D02*
D03*
X726000Y627000D02*
D03*
X627000Y635000D02*
D03*
X592000Y628000D02*
D03*
X313000Y733000D02*
D03*
X317000Y665000D02*
D03*
X323000Y672000D02*
D03*
X338250Y686250D02*
D03*
X343000Y826000D02*
D03*
X338250Y694250D02*
D03*
X343000Y818000D02*
D03*
X330250Y686250D02*
D03*
Y694250D02*
D03*
X335000Y818000D02*
D03*
Y826000D02*
D03*
X327000Y818000D02*
D03*
X329000Y733000D02*
D03*
X321000D02*
D03*
X99000Y838000D02*
D03*
X212927Y910927D02*
D03*
X165000Y910000D02*
D03*
X139000D02*
D03*
X48000Y816000D02*
D03*
X517000Y832000D02*
D03*
X515500Y780500D02*
D03*
Y787750D02*
D03*
X362896Y796134D02*
D03*
X367502Y790214D02*
D03*
X380250Y796000D02*
D03*
X388000Y797000D02*
D03*
X423965Y767036D02*
D03*
X433000Y767000D02*
D03*
X387661Y764661D02*
D03*
X48000Y829000D02*
D03*
X391000Y741000D02*
D03*
X391111Y749111D02*
D03*
X391423Y758173D02*
D03*
X166000Y519000D02*
D03*
X1154000Y290000D02*
D03*
X633000Y671000D02*
D03*
X676000Y726000D02*
D03*
X733000Y750000D02*
D03*
X761000Y682000D02*
D03*
X639000Y484000D02*
D03*
X374000Y431000D02*
D03*
X256000Y497000D02*
D03*
X343000Y518000D02*
D03*
X250000Y689000D02*
D03*
X258000D02*
D03*
X266000D02*
D03*
X234500Y637250D02*
D03*
Y645500D02*
D03*
X658000Y479000D02*
D03*
X650000D02*
D03*
X442000Y471000D02*
D03*
X435000D02*
D03*
X428000D02*
D03*
X421000D02*
D03*
X341000Y409039D02*
D03*
X267000Y497000D02*
D03*
X1038000Y588000D02*
D03*
X1181000Y224000D02*
D03*
X1177000Y236000D02*
D03*
X1173000Y251000D02*
D03*
X1170000Y263000D02*
D03*
X984000Y125871D02*
D03*
X955000Y140000D02*
D03*
X50750Y563750D02*
D03*
Y556750D02*
D03*
X58750Y563750D02*
D03*
X50750Y549750D02*
D03*
X58750Y556750D02*
D03*
X1009000Y145000D02*
D03*
X575000Y444000D02*
D03*
X142500Y242250D02*
D03*
Y235000D02*
D03*
X65000Y221000D02*
D03*
X57000D02*
D03*
X72000D02*
D03*
X65000Y228000D02*
D03*
X57000D02*
D03*
X72000D02*
D03*
X86000Y240000D02*
D03*
X75000Y276000D02*
D03*
X422000Y717450D02*
D03*
X430000D02*
D03*
X597000Y746250D02*
D03*
X623000D02*
D03*
X541000Y747000D02*
D03*
X473000Y840000D02*
D03*
X465000D02*
D03*
X473000Y832000D02*
D03*
X465000D02*
D03*
X468000Y809000D02*
D03*
X291000Y567000D02*
D03*
Y575000D02*
D03*
Y583000D02*
D03*
Y597000D02*
D03*
Y605000D02*
D03*
Y613000D02*
D03*
X391000Y718000D02*
D03*
X372000Y783000D02*
D03*
X377965Y776964D02*
D03*
X382000Y770000D02*
D03*
X391000Y733000D02*
D03*
X503000Y753000D02*
D03*
X347000Y678000D02*
D03*
Y669000D02*
D03*
Y661000D02*
D03*
X571000Y715000D02*
D03*
X947000Y724000D02*
D03*
X726250Y730000D02*
D03*
X806000Y737000D02*
D03*
X808000Y782000D02*
D03*
X546000Y705000D02*
D03*
X524000Y471000D02*
D03*
X517000D02*
D03*
X391000Y725500D02*
D03*
X465000Y628000D02*
D03*
X522000Y640000D02*
D03*
X493000Y590000D02*
D03*
X764000Y577000D02*
D03*
X630000D02*
D03*
X493000Y609000D02*
D03*
X902502Y579605D02*
D03*
X841000Y528000D02*
D03*
X1048000Y280000D02*
D03*
X490000Y553000D02*
D03*
X564000Y524000D02*
D03*
X590000Y523000D02*
D03*
X890000Y448000D02*
D03*
X1107000Y284000D02*
D03*
X799000Y528000D02*
D03*
X718000Y522000D02*
D03*
X745000Y515000D02*
D03*
X474000Y802000D02*
D03*
X475000Y792000D02*
D03*
X463000Y710000D02*
D03*
X455000D02*
D03*
X453000Y613000D02*
D03*
X465000Y619000D02*
D03*
X432000Y645000D02*
D03*
X440000D02*
D03*
X448000D02*
D03*
X423000Y786000D02*
D03*
X463000Y702000D02*
D03*
X430000Y796000D02*
D03*
X455000Y702000D02*
D03*
X422000Y796000D02*
D03*
X412000D02*
D03*
X403000Y452000D02*
D03*
X442000Y538000D02*
D03*
X504000Y454000D02*
D03*
X404000Y799000D02*
D03*
X396788Y796940D02*
D03*
X493000Y569000D02*
D03*
X800000Y458000D02*
D03*
X837000Y463000D02*
D03*
X583000Y453000D02*
D03*
X405000Y462000D02*
D03*
X493000Y446000D02*
D03*
X631000Y509000D02*
D03*
X576000Y523000D02*
D03*
X795000Y447000D02*
D03*
X779000Y523000D02*
D03*
X882000Y447000D02*
D03*
X711750Y730000D02*
D03*
X384000Y447000D02*
D03*
X501000Y650000D02*
D03*
X999000Y809000D02*
D03*
X165000Y873000D02*
D03*
X151000Y872000D02*
D03*
X205000Y874000D02*
D03*
X250000Y866000D02*
D03*
X28000Y790000D02*
D03*
X1043000Y246000D02*
D03*
X1066000Y231000D02*
D03*
X934000Y300000D02*
D03*
X636000Y442000D02*
D03*
X643000D02*
D03*
X650000D02*
D03*
X657000D02*
D03*
X198000Y736000D02*
D03*
X209000Y794000D02*
D03*
X989000Y696000D02*
D03*
X846390Y700250D02*
D03*
X846000Y756000D02*
D03*
X749000Y746000D02*
D03*
X635000Y686606D02*
D03*
X633000Y727000D02*
D03*
X955000Y161000D02*
D03*
X192250Y955750D02*
D03*
Y963750D02*
D03*
X200250Y955750D02*
D03*
Y963750D02*
D03*
X376000Y457000D02*
D03*
X675000Y407000D02*
D03*
X667689D02*
D03*
X660495D02*
D03*
X832000Y453000D02*
D03*
X825000D02*
D03*
X818000D02*
D03*
X811000D02*
D03*
X752000D02*
D03*
X745000D02*
D03*
X738000D02*
D03*
X510000Y471000D02*
D03*
X352000Y630000D02*
D03*
X688000Y790000D02*
D03*
Y798000D02*
D03*
X680000D02*
D03*
Y790000D02*
D03*
X1175250Y703250D02*
D03*
X1033000Y796000D02*
D03*
X1033390Y730000D02*
D03*
X931000Y967000D02*
D03*
X879000D02*
D03*
X827000D02*
D03*
X775000D02*
D03*
X1175250Y743250D02*
D03*
Y783250D02*
D03*
X1175250Y835250D02*
D03*
X969500Y229000D02*
D03*
X961500D02*
D03*
X977500D02*
D03*
Y237000D02*
D03*
X961500D02*
D03*
X969500D02*
D03*
Y245000D02*
D03*
X961500D02*
D03*
X977500D02*
D03*
X969500Y253000D02*
D03*
X961500D02*
D03*
X977500D02*
D03*
X969500Y261000D02*
D03*
X961500D02*
D03*
X977500D02*
D03*
X854000Y371000D02*
D03*
Y379000D02*
D03*
Y363000D02*
D03*
X862000D02*
D03*
Y379000D02*
D03*
Y371000D02*
D03*
X870000D02*
D03*
Y379000D02*
D03*
Y363000D02*
D03*
X878000Y371000D02*
D03*
Y379000D02*
D03*
Y363000D02*
D03*
X886000Y371000D02*
D03*
Y379000D02*
D03*
Y363000D02*
D03*
X774000Y371000D02*
D03*
Y379000D02*
D03*
Y363000D02*
D03*
X782000D02*
D03*
Y379000D02*
D03*
Y371000D02*
D03*
X790000D02*
D03*
Y379000D02*
D03*
Y363000D02*
D03*
X798000Y371000D02*
D03*
Y379000D02*
D03*
Y363000D02*
D03*
X806000Y371000D02*
D03*
Y379000D02*
D03*
Y363000D02*
D03*
X694000Y371000D02*
D03*
Y379000D02*
D03*
Y363000D02*
D03*
X702000D02*
D03*
Y379000D02*
D03*
Y371000D02*
D03*
X710000D02*
D03*
Y379000D02*
D03*
Y363000D02*
D03*
X718000Y371000D02*
D03*
Y379000D02*
D03*
Y363000D02*
D03*
X726000Y371000D02*
D03*
Y379000D02*
D03*
Y363000D02*
D03*
X559000Y371000D02*
D03*
Y379000D02*
D03*
Y363000D02*
D03*
X567000D02*
D03*
Y379000D02*
D03*
Y371000D02*
D03*
X575000D02*
D03*
Y379000D02*
D03*
Y363000D02*
D03*
X583000Y371000D02*
D03*
Y379000D02*
D03*
Y363000D02*
D03*
X591000Y371000D02*
D03*
Y379000D02*
D03*
Y363000D02*
D03*
X479000Y371000D02*
D03*
Y379000D02*
D03*
Y363000D02*
D03*
X487000D02*
D03*
Y379000D02*
D03*
Y371000D02*
D03*
X495000D02*
D03*
Y379000D02*
D03*
Y363000D02*
D03*
X503000Y371000D02*
D03*
Y379000D02*
D03*
Y363000D02*
D03*
X511000Y371000D02*
D03*
Y379000D02*
D03*
Y363000D02*
D03*
X431000D02*
D03*
Y379000D02*
D03*
Y371000D02*
D03*
X423000Y363000D02*
D03*
Y379000D02*
D03*
Y371000D02*
D03*
X415000Y363000D02*
D03*
Y379000D02*
D03*
Y371000D02*
D03*
X407000D02*
D03*
Y379000D02*
D03*
Y363000D02*
D03*
X399000D02*
D03*
Y379000D02*
D03*
Y371000D02*
D03*
X152000Y663000D02*
D03*
X144000D02*
D03*
X136000D02*
D03*
X152000Y671000D02*
D03*
X144000D02*
D03*
X136000D02*
D03*
X226000Y637250D02*
D03*
Y645250D02*
D03*
X84000Y563000D02*
D03*
X87250Y617055D02*
D03*
D102*
X148800Y943850D02*
D03*
X235200D02*
D03*
D103*
X148800Y985650D02*
D03*
X235200D02*
D03*
D109*
X194350Y355650D02*
D03*
X150000D02*
D03*
X105650D02*
D03*
Y400000D02*
D03*
X150000D02*
D03*
X194350D02*
D03*
Y444350D02*
D03*
X150000D02*
D03*
X105650D02*
D03*
X1094350Y355650D02*
D03*
X1050000D02*
D03*
X1005650D02*
D03*
Y400000D02*
D03*
X1050000D02*
D03*
X1094350D02*
D03*
Y444350D02*
D03*
X1050000D02*
D03*
X1005650D02*
D03*
D110*
X785750Y233000D02*
D03*
X414250D02*
D03*
D111*
X744950Y164000D02*
D03*
X704950D02*
D03*
X664950D02*
D03*
X624950D02*
D03*
X584950D02*
D03*
X550000D02*
D03*
X525000D02*
D03*
X500000D02*
D03*
X475000D02*
D03*
X450000D02*
D03*
X750000Y189000D02*
D03*
X725000D02*
D03*
X700000D02*
D03*
X675000D02*
D03*
X650000D02*
D03*
X625000D02*
D03*
X600000D02*
D03*
X575000D02*
D03*
X550000D02*
D03*
X525000D02*
D03*
X500000D02*
D03*
X475000D02*
D03*
X450000D02*
D03*
D112*
X735000Y224000D02*
D03*
X667500D02*
D03*
X600000D02*
D03*
X532500D02*
D03*
X465000D02*
D03*
D113*
X854000Y223500D02*
D03*
X346000D02*
D03*
D114*
X50000Y950000D02*
D03*
Y150000D02*
D03*
X1150000D02*
D03*
Y950000D02*
D03*
M02*
