G04*
G04 #@! TF.GenerationSoftware,Altium Limited,Altium Designer,25.0.2 (28)*
G04*
G04 Layer_Color=128*
%FSLAX44Y44*%
%MOMM*%
G71*
G04*
G04 #@! TF.SameCoordinates,1924397C-AF8B-4530-83B7-FB2F84BC8B12*
G04*
G04*
G04 #@! TF.FilePolarity,Positive*
G04*
G01*
G75*
G36*
X38000Y757200D02*
X34800Y754000D01*
X38000Y750800D01*
X41200Y754000D01*
X38000Y757200D01*
D02*
G37*
G36*
X113000Y758200D02*
X109800Y755000D01*
X113000Y751800D01*
X116200Y755000D01*
X113000Y758200D01*
D02*
G37*
G36*
X23550Y846500D02*
X26750Y843300D01*
X29950Y846500D01*
X26750Y849700D01*
X23550Y846500D01*
D02*
G37*
G36*
X83050Y829750D02*
X86250Y826550D01*
X89450Y829750D01*
X86250Y832950D01*
X83050Y829750D01*
D02*
G37*
G36*
X130800Y853000D02*
X134000Y849800D01*
X137200Y853000D01*
X134000Y856200D01*
X130800Y853000D01*
D02*
G37*
G36*
X214800Y857000D02*
X218000Y853800D01*
X221200Y857000D01*
X218000Y860200D01*
X214800Y857000D01*
D02*
G37*
G36*
X356200Y913000D02*
X353000Y916200D01*
X349800Y913000D01*
X353000Y909800D01*
X356200Y913000D01*
D02*
G37*
G36*
X401200D02*
X398000Y916200D01*
X394800Y913000D01*
X398000Y909800D01*
X401200Y913000D01*
D02*
G37*
G36*
X548200Y633000D02*
X545000Y636200D01*
X541800Y633000D01*
X545000Y629800D01*
X548200Y633000D01*
D02*
G37*
G36*
X724200Y485000D02*
X721000Y488200D01*
X717800Y485000D01*
X721000Y481800D01*
X724200Y485000D01*
D02*
G37*
G36*
X670455Y708255D02*
X667255Y711455D01*
X664055Y708255D01*
X667255Y705055D01*
X670455Y708255D01*
D02*
G37*
G36*
X736455D02*
X733255Y711455D01*
X730055Y708255D01*
X733255Y705055D01*
X736455Y708255D01*
D02*
G37*
G36*
X446200Y913000D02*
X443000Y916200D01*
X439800Y913000D01*
X443000Y909800D01*
X446200Y913000D01*
D02*
G37*
G36*
X491200Y913000D02*
X488000Y916200D01*
X484800Y913000D01*
X488000Y909800D01*
X491200Y913000D01*
D02*
G37*
G36*
X536200D02*
X533000Y916200D01*
X529800Y913000D01*
X533000Y909800D01*
X536200Y913000D01*
D02*
G37*
G36*
X581200D02*
X578000Y916200D01*
X574800Y913000D01*
X578000Y909800D01*
X581200Y913000D01*
D02*
G37*
M02*
