G04*
G04 #@! TF.GenerationSoftware,Altium Limited,Altium Designer,25.0.2 (28)*
G04*
G04 Layer_Color=32896*
%FSLAX44Y44*%
%MOMM*%
G71*
G04*
G04 #@! TF.SameCoordinates,1924397C-AF8B-4530-83B7-FB2F84BC8B12*
G04*
G04*
G04 #@! TF.FilePolarity,Positive*
G04*
G01*
G75*
%ADD12C,0.2500*%
%ADD14C,0.1000*%
D12*
X582258Y880643D02*
X583924Y882309D01*
X587257D01*
X588923Y880643D01*
Y873978D01*
X587257Y872312D01*
X583924D01*
X582258Y873978D01*
Y877310D01*
X585590D01*
X578926Y872312D02*
Y882309D01*
X572261Y872312D01*
Y882309D01*
X568929D02*
Y872312D01*
X563931D01*
X562265Y873978D01*
Y880643D01*
X563931Y882309D01*
X568929D01*
X543923Y880643D02*
X542257Y882309D01*
X538924D01*
X537258Y880643D01*
Y878977D01*
X538924Y877310D01*
X540590D01*
X538924D01*
X537258Y875644D01*
Y873978D01*
X538924Y872312D01*
X542257D01*
X543923Y873978D01*
X533926Y882309D02*
Y875644D01*
X530594Y872312D01*
X527261Y875644D01*
Y882309D01*
X523929Y880643D02*
X522263Y882309D01*
X518931D01*
X517265Y880643D01*
Y878977D01*
X518931Y877310D01*
X520597D01*
X518931D01*
X517265Y875644D01*
Y873978D01*
X518931Y872312D01*
X522263D01*
X523929Y873978D01*
X97476Y866089D02*
X99142Y867755D01*
X102474D01*
X104140Y866089D01*
Y859424D01*
X102474Y857758D01*
X99142D01*
X97476Y859424D01*
X87479Y866089D02*
X89145Y867755D01*
X92477D01*
X94143Y866089D01*
Y859424D01*
X92477Y857758D01*
X89145D01*
X87479Y859424D01*
X77482Y857758D02*
X84146D01*
X77482Y864423D01*
Y866089D01*
X79148Y867755D01*
X82480D01*
X84146Y866089D01*
X31690Y816813D02*
X33356Y818479D01*
X36688D01*
X38354Y816813D01*
Y810148D01*
X36688Y808482D01*
X33356D01*
X31690Y810148D01*
X21693Y816813D02*
X23359Y818479D01*
X26691D01*
X28357Y816813D01*
Y810148D01*
X26691Y808482D01*
X23359D01*
X21693Y810148D01*
X18360Y808482D02*
X15028D01*
X16694D01*
Y818479D01*
X18360Y816813D01*
X143958Y823163D02*
X145624Y824829D01*
X148956D01*
X150622Y823163D01*
Y821497D01*
X148956Y819830D01*
X145624D01*
X143958Y818164D01*
Y816498D01*
X145624Y814832D01*
X148956D01*
X150622Y816498D01*
X140625Y824829D02*
Y814832D01*
X135627D01*
X133961Y816498D01*
Y818164D01*
X135627Y819830D01*
X140625D01*
X135627D01*
X133961Y821497D01*
Y823163D01*
X135627Y824829D01*
X140625D01*
X130628D02*
Y816498D01*
X128962Y814832D01*
X125630D01*
X123964Y816498D01*
Y824829D01*
X120632Y814832D02*
X117299D01*
X118966D01*
Y824829D01*
X120632Y823163D01*
X229555Y827227D02*
X231222Y828893D01*
X234554D01*
X236220Y827227D01*
Y825561D01*
X234554Y823894D01*
X231222D01*
X229555Y822228D01*
Y820562D01*
X231222Y818896D01*
X234554D01*
X236220Y820562D01*
X226223Y828893D02*
Y818896D01*
X221225D01*
X219559Y820562D01*
Y822228D01*
X221225Y823894D01*
X226223D01*
X221225D01*
X219559Y825561D01*
Y827227D01*
X221225Y828893D01*
X226223D01*
X216226D02*
Y820562D01*
X214560Y818896D01*
X211228D01*
X209562Y820562D01*
Y828893D01*
X199565Y818896D02*
X206230D01*
X199565Y825561D01*
Y827227D01*
X201231Y828893D01*
X204564D01*
X206230Y827227D01*
X753881Y457870D02*
X747217D01*
X750549D01*
Y447873D01*
X743884Y446207D02*
X737220D01*
X733888Y447873D02*
Y454538D01*
X730555Y457870D01*
X727223Y454538D01*
Y447873D01*
Y452872D01*
X733888D01*
X723891Y457870D02*
Y447873D01*
X717226D01*
X713894Y457870D02*
Y447873D01*
X707230D01*
X697233Y457870D02*
X703897D01*
Y447873D01*
X697233D01*
X703897Y452872D02*
X700565D01*
X693901Y447873D02*
Y457870D01*
X688902D01*
X687236Y456204D01*
Y452872D01*
X688902Y451205D01*
X693901D01*
X690568D02*
X687236Y447873D01*
X683904Y457870D02*
X677239D01*
X680572D01*
Y447873D01*
X824738Y714156D02*
X821406D01*
X823072D01*
Y704159D01*
X824738D01*
X821406D01*
X816407D02*
Y714156D01*
X809743Y704159D01*
Y714156D01*
X806411D02*
X799746D01*
X803078D01*
Y704159D01*
X796414Y702493D02*
X789749D01*
X786417Y714156D02*
X783085D01*
X784751D01*
Y704159D01*
X786417D01*
X783085D01*
X778086D02*
X771422Y710824D01*
X763091Y714156D02*
X766423D01*
X768090Y712490D01*
Y705825D01*
X766423Y704159D01*
X763091D01*
X761425Y705825D01*
Y712490D01*
X763091Y714156D01*
X696863Y670090D02*
Y680087D01*
X691865D01*
X690199Y678421D01*
Y675088D01*
X691865Y673422D01*
X696863D01*
X693531D02*
X690199Y670090D01*
X680202Y678421D02*
X681868Y680087D01*
X685200D01*
X686866Y678421D01*
Y676755D01*
X685200Y675088D01*
X681868D01*
X680202Y673422D01*
Y671756D01*
X681868Y670090D01*
X685200D01*
X686866Y671756D01*
X676870Y680087D02*
X670205D01*
X673537D01*
Y670090D01*
X666873Y668424D02*
X660208D01*
X656876Y680087D02*
X653544D01*
X655210D01*
Y670090D01*
X656876D01*
X653544D01*
X648545D02*
X641881Y676755D01*
X633550Y680087D02*
X636882D01*
X638549Y678421D01*
Y671756D01*
X636882Y670090D01*
X633550D01*
X631884Y671756D01*
Y678421D01*
X633550Y680087D01*
X145542Y794857D02*
X142210D01*
X143876D01*
Y784860D01*
X145542D01*
X142210D01*
X130547D02*
X137211D01*
X130547Y791525D01*
Y793191D01*
X132213Y794857D01*
X135545D01*
X137211Y793191D01*
X120550D02*
X122216Y794857D01*
X125548D01*
X127215Y793191D01*
Y786526D01*
X125548Y784860D01*
X122216D01*
X120550Y786526D01*
X117218Y783194D02*
X110553D01*
X100556Y793191D02*
X102223Y794857D01*
X105555D01*
X107221Y793191D01*
Y791525D01*
X105555Y789858D01*
X102223D01*
X100556Y788192D01*
Y786526D01*
X102223Y784860D01*
X105555D01*
X107221Y786526D01*
X90560Y793191D02*
X92226Y794857D01*
X95558D01*
X97224Y793191D01*
Y786526D01*
X95558Y784860D01*
X92226D01*
X90560Y786526D01*
X87227Y794857D02*
Y784860D01*
X80563D01*
X70612Y726023D02*
X67280D01*
X68946D01*
Y716026D01*
X70612D01*
X67280D01*
X55617D02*
X62281D01*
X55617Y722691D01*
Y724357D01*
X57283Y726023D01*
X60615D01*
X62281Y724357D01*
X45620D02*
X47286Y726023D01*
X50618D01*
X52285Y724357D01*
Y717692D01*
X50618Y716026D01*
X47286D01*
X45620Y717692D01*
X42288Y714360D02*
X35623D01*
X25626Y724357D02*
X27293Y726023D01*
X30625D01*
X32291Y724357D01*
Y722691D01*
X30625Y721024D01*
X27293D01*
X25626Y719358D01*
Y717692D01*
X27293Y716026D01*
X30625D01*
X32291Y717692D01*
X22294Y726023D02*
Y716026D01*
X17296D01*
X15630Y717692D01*
Y724357D01*
X17296Y726023D01*
X22294D01*
X12298Y716026D02*
Y722691D01*
X8965Y726023D01*
X5633Y722691D01*
Y716026D01*
Y721024D01*
X12298D01*
X501396Y941070D02*
Y951067D01*
X496398D01*
X494731Y949401D01*
Y946068D01*
X496398Y944402D01*
X501396D01*
X498064D02*
X494731Y941070D01*
X484735Y949401D02*
X486401Y951067D01*
X489733D01*
X491399Y949401D01*
Y947735D01*
X489733Y946068D01*
X486401D01*
X484735Y944402D01*
Y942736D01*
X486401Y941070D01*
X489733D01*
X491399Y942736D01*
X481402Y951067D02*
X474738D01*
X478070D01*
Y941070D01*
X348665Y883332D02*
X350331Y884998D01*
X353663D01*
X355329Y883332D01*
Y881666D01*
X353663Y880000D01*
X350331D01*
X348665Y878334D01*
Y876668D01*
X350331Y875002D01*
X353663D01*
X355329Y876668D01*
X345332Y884998D02*
Y875002D01*
X342000Y878334D01*
X338668Y875002D01*
Y884998D01*
X330337D02*
X333669D01*
X335335Y883332D01*
Y876668D01*
X333669Y875002D01*
X330337D01*
X328671Y876668D01*
Y883332D01*
X330337Y884998D01*
X404562Y883361D02*
X406228Y885027D01*
X409560D01*
X411226Y883361D01*
Y876696D01*
X409560Y875030D01*
X406228D01*
X404562Y876696D01*
X401229Y885027D02*
Y875030D01*
X394565D01*
X391232Y885027D02*
Y875030D01*
Y878362D01*
X384568Y885027D01*
X389566Y880028D01*
X384568Y875030D01*
X465496Y884998D02*
Y875002D01*
X460498D01*
X458831Y876668D01*
Y883332D01*
X460498Y884998D01*
X465496D01*
X455499D02*
X452167D01*
X453833D01*
Y875002D01*
X455499D01*
X452167D01*
X442170Y884998D02*
X445502D01*
X447169Y883332D01*
Y876668D01*
X445502Y875002D01*
X442170D01*
X440504Y876668D01*
Y883332D01*
X442170Y884998D01*
X568370Y671159D02*
Y661162D01*
X563372D01*
X561706Y662828D01*
Y664494D01*
X563372Y666160D01*
X568370D01*
X563372D01*
X561706Y667827D01*
Y669493D01*
X563372Y671159D01*
X568370D01*
X553375D02*
X556707D01*
X558374Y669493D01*
Y662828D01*
X556707Y661162D01*
X553375D01*
X551709Y662828D01*
Y669493D01*
X553375Y671159D01*
X543378D02*
X546711D01*
X548377Y669493D01*
Y662828D01*
X546711Y661162D01*
X543378D01*
X541712Y662828D01*
Y669493D01*
X543378Y671159D01*
X538380D02*
X531716D01*
X535048D01*
Y661162D01*
X528383Y669493D02*
X526717Y671159D01*
X523385D01*
X521719Y669493D01*
Y662828D01*
X523385Y661162D01*
X526717D01*
X528383Y662828D01*
Y669493D01*
D14*
X598000Y913000D02*
G03*
X598000Y913000I-20000J0D01*
G01*
X565000Y633000D02*
G03*
X565000Y633000I-20000J0D01*
G01*
X463000Y913000D02*
G03*
X463000Y913000I-20000J0D01*
G01*
X418000D02*
G03*
X418000Y913000I-20000J0D01*
G01*
X373000D02*
G03*
X373000Y913000I-20000J0D01*
G01*
X508000Y913000D02*
G03*
X508000Y913000I-20000J0D01*
G01*
X58000Y754000D02*
G03*
X58000Y754000I-20000J0D01*
G01*
X133000Y755000D02*
G03*
X133000Y755000I-20000J0D01*
G01*
X687255Y708255D02*
G03*
X687255Y708255I-20000J0D01*
G01*
X753255D02*
G03*
X753255Y708255I-20000J0D01*
G01*
X741000Y485000D02*
G03*
X741000Y485000I-20000J0D01*
G01*
X238000Y857000D02*
G03*
X238000Y857000I-20000J0D01*
G01*
X154000Y853000D02*
G03*
X154000Y853000I-20000J0D01*
G01*
X46750Y846500D02*
G03*
X46750Y846500I-20000J0D01*
G01*
X106250Y829750D02*
G03*
X106250Y829750I-20000J0D01*
G01*
X553000Y913000D02*
G03*
X553000Y913000I-20000J0D01*
G01*
M02*
