G04*
G04 #@! TF.GenerationSoftware,Altium Limited,Altium Designer,25.0.2 (28)*
G04*
G04 Layer_Color=16711935*
%FSLAX44Y44*%
%MOMM*%
G71*
G04*
G04 #@! TF.SameCoordinates,1924397C-AF8B-4530-83B7-FB2F84BC8B12*
G04*
G04*
G04 #@! TF.FilePolarity,Negative*
G04*
G01*
G75*
%ADD95C,2.2032*%
%ADD96C,3.4032*%
%ADD97C,4.3032*%
%ADD98O,4.1032X2.1532*%
%ADD99C,2.1532*%
%ADD100C,2.5032*%
G04:AMPARAMS|DCode=101|XSize=1mm|YSize=1.8mm|CornerRadius=0.5mm|HoleSize=0mm|Usage=FLASHONLY|Rotation=180.000|XOffset=0mm|YOffset=0mm|HoleType=Round|Shape=RoundedRectangle|*
%AMROUNDEDRECTD101*
21,1,1.0000,0.8000,0,0,180.0*
21,1,0.0000,1.8000,0,0,180.0*
1,1,1.0000,0.0000,0.4000*
1,1,1.0000,0.0000,0.4000*
1,1,1.0000,0.0000,-0.4000*
1,1,1.0000,0.0000,-0.4000*
%
%ADD101ROUNDEDRECTD101*%
G04:AMPARAMS|DCode=102|XSize=1mm|YSize=2.1mm|CornerRadius=0.5mm|HoleSize=0mm|Usage=FLASHONLY|Rotation=180.000|XOffset=0mm|YOffset=0mm|HoleType=Round|Shape=RoundedRectangle|*
%AMROUNDEDRECTD102*
21,1,1.0000,1.1000,0,0,180.0*
21,1,0.0000,2.1000,0,0,180.0*
1,1,1.0000,0.0000,0.5500*
1,1,1.0000,0.0000,0.5500*
1,1,1.0000,0.0000,-0.5500*
1,1,1.0000,0.0000,-0.5500*
%
%ADD102ROUNDEDRECTD102*%
%ADD103C,0.6500*%
%ADD104C,10.2032*%
D95*
X578000Y913000D02*
D03*
X545000Y633000D02*
D03*
X443000Y913000D02*
D03*
X398000D02*
D03*
X353000D02*
D03*
X488000Y913000D02*
D03*
X38000Y754000D02*
D03*
X113000Y755000D02*
D03*
X667255Y708255D02*
D03*
X733255D02*
D03*
X721000Y485000D02*
D03*
X218000Y857000D02*
D03*
X134000Y853000D02*
D03*
X26750Y846500D02*
D03*
X86250Y829750D02*
D03*
X533000Y913000D02*
D03*
D96*
X105650Y444350D02*
D03*
X150000D02*
D03*
X194350D02*
D03*
Y400000D02*
D03*
X150000D02*
D03*
X105650D02*
D03*
Y355650D02*
D03*
X150000D02*
D03*
X194350D02*
D03*
X1005650Y444350D02*
D03*
X1050000D02*
D03*
X1094350D02*
D03*
Y400000D02*
D03*
X1050000D02*
D03*
X1005650D02*
D03*
Y355650D02*
D03*
X1050000D02*
D03*
X1094350D02*
D03*
D97*
X346000Y223500D02*
D03*
X854000D02*
D03*
D98*
X465000Y224000D02*
D03*
X532500D02*
D03*
X600000D02*
D03*
X667500D02*
D03*
X735000D02*
D03*
D99*
X450000Y189000D02*
D03*
X475000D02*
D03*
X500000D02*
D03*
X525000D02*
D03*
X550000D02*
D03*
X575000D02*
D03*
X600000D02*
D03*
X625000D02*
D03*
X650000D02*
D03*
X675000D02*
D03*
X700000D02*
D03*
X725000D02*
D03*
X750000D02*
D03*
X450000Y164000D02*
D03*
X475000D02*
D03*
X500000D02*
D03*
X525000D02*
D03*
X550000D02*
D03*
X584950D02*
D03*
X624950D02*
D03*
X664950D02*
D03*
X704950D02*
D03*
X744950D02*
D03*
D100*
X414250Y233000D02*
D03*
X785750D02*
D03*
D101*
X235200Y985650D02*
D03*
X148800D02*
D03*
D102*
X235200Y943850D02*
D03*
X148800D02*
D03*
D103*
X220900Y948850D02*
D03*
X163100D02*
D03*
D104*
X50000Y950000D02*
D03*
Y150000D02*
D03*
X1150000D02*
D03*
Y950000D02*
D03*
M02*
