G04*
G04 #@! TF.GenerationSoftware,Altium Limited,Altium Designer,25.5.2 (35)*
G04*
G04 Layer_Color=8421504*
%FSLAX44Y44*%
%MOMM*%
G71*
G04*
G04 #@! TF.SameCoordinates,34ED6EBC-D28A-49E4-976B-BF1F03E75610*
G04*
G04*
G04 #@! TF.FilePolarity,Positive*
G04*
G01*
G75*
%ADD18R,1.9606X1.9606*%
%ADD19R,0.9000X1.5000*%
%ADD20R,1.6000X1.0000*%
%ADD21R,1.4000X0.3000*%
%ADD22R,0.3000X1.4000*%
%ADD23R,0.5500X1.2000*%
%ADD24R,1.1000X0.6000*%
%ADD25R,0.7000X0.9500*%
%ADD26R,0.5000X0.8500*%
%ADD27R,0.4500X1.3100*%
%ADD28R,4.0000X2.6500*%
%ADD29R,1.7500X2.5000*%
%ADD30R,0.8000X0.3500*%
G04:AMPARAMS|DCode=31|XSize=1.97mm|YSize=0.59mm|CornerRadius=0.0738mm|HoleSize=0mm|Usage=FLASHONLY|Rotation=180.000|XOffset=0mm|YOffset=0mm|HoleType=Round|Shape=RoundedRectangle|*
%AMROUNDEDRECTD31*
21,1,1.9700,0.4425,0,0,180.0*
21,1,1.8225,0.5900,0,0,180.0*
1,1,0.1475,-0.9113,0.2213*
1,1,0.1475,0.9113,0.2213*
1,1,0.1475,0.9113,-0.2213*
1,1,0.1475,-0.9113,-0.2213*
%
%ADD31ROUNDEDRECTD31*%
%ADD32R,0.8000X0.9000*%
%ADD33R,0.7400X2.7900*%
%ADD34R,1.4000X0.9500*%
%ADD35R,1.0500X0.9000*%
%ADD36R,2.7430X2.1590*%
%ADD37R,0.4500X1.6000*%
%ADD38R,0.9500X0.9500*%
%ADD39R,0.8700X0.9800*%
%ADD40R,0.6000X1.1500*%
%ADD41R,0.3000X1.1500*%
G04:AMPARAMS|DCode=42|XSize=0.2393mm|YSize=0.9611mm|CornerRadius=0.1196mm|HoleSize=0mm|Usage=FLASHONLY|Rotation=180.000|XOffset=0mm|YOffset=0mm|HoleType=Round|Shape=RoundedRectangle|*
%AMROUNDEDRECTD42*
21,1,0.2393,0.7218,0,0,180.0*
21,1,0.0000,0.9611,0,0,180.0*
1,1,0.2393,0.0000,0.3609*
1,1,0.2393,0.0000,0.3609*
1,1,0.2393,0.0000,-0.3609*
1,1,0.2393,0.0000,-0.3609*
%
%ADD42ROUNDEDRECTD42*%
G04:AMPARAMS|DCode=43|XSize=0.9611mm|YSize=0.2393mm|CornerRadius=0.1196mm|HoleSize=0mm|Usage=FLASHONLY|Rotation=180.000|XOffset=0mm|YOffset=0mm|HoleType=Round|Shape=RoundedRectangle|*
%AMROUNDEDRECTD43*
21,1,0.9611,0.0000,0,0,180.0*
21,1,0.7218,0.2393,0,0,180.0*
1,1,0.2393,-0.3609,0.0000*
1,1,0.2393,0.3609,0.0000*
1,1,0.2393,0.3609,0.0000*
1,1,0.2393,-0.3609,0.0000*
%
%ADD43ROUNDEDRECTD43*%
%ADD44R,0.9611X0.2393*%
%ADD45R,1.0000X1.7000*%
%ADD46R,1.4500X1.1500*%
%ADD47R,1.1000X0.9500*%
%ADD48R,7.5000X3.0000*%
%ADD49R,1.2000X1.4000*%
%ADD50R,0.9500X1.1000*%
%ADD51R,1.7000X1.0000*%
%ADD52R,0.8500X0.5000*%
%ADD53R,0.9500X0.7000*%
%ADD54R,0.9500X0.9500*%
%ADD55R,0.9000X1.0500*%
%ADD56R,0.6000X1.1000*%
%ADD57R,1.3100X0.4500*%
%ADD58R,2.6500X4.0000*%
G36*
X179200Y698000D02*
X176000Y694800D01*
X172800Y698000D01*
X176000Y701200D01*
X179200Y698000D01*
D02*
G37*
G36*
X52200Y663000D02*
X49000Y659800D01*
X45800Y663000D01*
X49000Y666200D01*
X52200Y663000D01*
D02*
G37*
G36*
X327200Y543000D02*
X324000Y539800D01*
X320800Y543000D01*
X324000Y546200D01*
X327200Y543000D01*
D02*
G37*
G36*
X1098871Y459254D02*
X1101692Y458086D01*
X1104231Y456390D01*
X1106390Y454231D01*
X1108086Y451692D01*
X1109254Y448871D01*
X1109850Y445877D01*
Y444350D01*
Y442823D01*
X1109254Y439829D01*
X1108086Y437008D01*
X1106390Y434469D01*
X1104231Y432310D01*
X1101692Y430614D01*
X1098871Y429446D01*
X1095877Y428850D01*
X1092823D01*
X1089829Y429446D01*
X1087008Y430614D01*
X1084469Y432310D01*
X1082310Y434469D01*
X1080614Y437008D01*
X1079446Y439829D01*
X1078850Y442823D01*
Y444350D01*
Y445877D01*
X1079446Y448871D01*
X1080614Y451692D01*
X1082310Y454231D01*
X1084469Y456390D01*
X1087008Y458086D01*
X1089829Y459254D01*
X1092823Y459850D01*
X1095877D01*
X1098871Y459254D01*
D02*
G37*
G36*
X1054521D02*
X1057342Y458086D01*
X1059881Y456390D01*
X1062040Y454231D01*
X1063736Y451692D01*
X1064904Y448871D01*
X1065500Y445877D01*
Y444350D01*
Y442823D01*
X1064904Y439829D01*
X1063736Y437008D01*
X1062040Y434469D01*
X1059881Y432310D01*
X1057342Y430614D01*
X1054521Y429446D01*
X1051527Y428850D01*
X1048473D01*
X1045479Y429446D01*
X1042658Y430614D01*
X1040119Y432310D01*
X1037960Y434469D01*
X1036264Y437008D01*
X1035096Y439829D01*
X1034500Y442823D01*
Y444350D01*
Y445877D01*
X1035096Y448871D01*
X1036264Y451692D01*
X1037960Y454231D01*
X1040119Y456390D01*
X1042658Y458086D01*
X1045479Y459254D01*
X1048473Y459850D01*
X1051527D01*
X1054521Y459254D01*
D02*
G37*
G36*
X1010171D02*
X1012992Y458086D01*
X1015531Y456390D01*
X1017690Y454231D01*
X1019386Y451692D01*
X1020554Y448871D01*
X1021150Y445877D01*
Y444350D01*
Y442823D01*
X1020554Y439829D01*
X1019386Y437008D01*
X1017690Y434469D01*
X1015531Y432310D01*
X1012992Y430614D01*
X1010171Y429446D01*
X1007177Y428850D01*
X1004123D01*
X1001129Y429446D01*
X998308Y430614D01*
X995769Y432310D01*
X993610Y434469D01*
X991914Y437008D01*
X990746Y439829D01*
X990150Y442823D01*
Y444350D01*
Y445877D01*
X990746Y448871D01*
X991914Y451692D01*
X993610Y454231D01*
X995769Y456390D01*
X998308Y458086D01*
X1001129Y459254D01*
X1004123Y459850D01*
X1007177D01*
X1010171Y459254D01*
D02*
G37*
G36*
X198871D02*
X201692Y458086D01*
X204231Y456390D01*
X206390Y454231D01*
X208086Y451692D01*
X209254Y448871D01*
X209850Y445877D01*
Y444350D01*
Y442823D01*
X209254Y439829D01*
X208086Y437008D01*
X206390Y434469D01*
X204231Y432310D01*
X201692Y430614D01*
X198871Y429446D01*
X195877Y428850D01*
X192823D01*
X189829Y429446D01*
X187008Y430614D01*
X184469Y432310D01*
X182310Y434469D01*
X180614Y437008D01*
X179446Y439829D01*
X178850Y442823D01*
Y444350D01*
Y445877D01*
X179446Y448871D01*
X180614Y451692D01*
X182310Y454231D01*
X184469Y456390D01*
X187008Y458086D01*
X189829Y459254D01*
X192823Y459850D01*
X195877D01*
X198871Y459254D01*
D02*
G37*
G36*
X154521D02*
X157342Y458086D01*
X159881Y456390D01*
X162040Y454231D01*
X163736Y451692D01*
X164904Y448871D01*
X165500Y445877D01*
Y444350D01*
Y442823D01*
X164904Y439829D01*
X163736Y437008D01*
X162040Y434469D01*
X159881Y432310D01*
X157342Y430614D01*
X154521Y429446D01*
X151527Y428850D01*
X148473D01*
X145479Y429446D01*
X142658Y430614D01*
X140119Y432310D01*
X137960Y434469D01*
X136264Y437008D01*
X135096Y439829D01*
X134500Y442823D01*
Y444350D01*
Y445877D01*
X135096Y448871D01*
X136264Y451692D01*
X137960Y454231D01*
X140119Y456390D01*
X142658Y458086D01*
X145479Y459254D01*
X148473Y459850D01*
X151527D01*
X154521Y459254D01*
D02*
G37*
G36*
X110171D02*
X112992Y458086D01*
X115531Y456390D01*
X117690Y454231D01*
X119386Y451692D01*
X120554Y448871D01*
X121150Y445877D01*
Y444350D01*
Y442823D01*
X120554Y439829D01*
X119386Y437008D01*
X117690Y434469D01*
X115531Y432310D01*
X112992Y430614D01*
X110171Y429446D01*
X107177Y428850D01*
X104123D01*
X101129Y429446D01*
X98308Y430614D01*
X95769Y432310D01*
X93610Y434469D01*
X91914Y437008D01*
X90746Y439829D01*
X90150Y442823D01*
Y444350D01*
Y445877D01*
X90746Y448871D01*
X91914Y451692D01*
X93610Y454231D01*
X95769Y456390D01*
X98308Y458086D01*
X101129Y459254D01*
X104123Y459850D01*
X107177D01*
X110171Y459254D01*
D02*
G37*
G36*
X1098871Y414904D02*
X1101692Y413736D01*
X1104231Y412040D01*
X1106390Y409881D01*
X1108086Y407342D01*
X1109254Y404521D01*
X1109850Y401527D01*
Y400000D01*
Y398473D01*
X1109254Y395479D01*
X1108086Y392658D01*
X1106390Y390119D01*
X1104231Y387960D01*
X1101692Y386264D01*
X1098871Y385096D01*
X1095877Y384500D01*
X1092823D01*
X1089829Y385096D01*
X1087008Y386264D01*
X1084469Y387960D01*
X1082310Y390119D01*
X1080614Y392658D01*
X1079446Y395479D01*
X1078850Y398473D01*
Y400000D01*
Y401527D01*
X1079446Y404521D01*
X1080614Y407342D01*
X1082310Y409881D01*
X1084469Y412040D01*
X1087008Y413736D01*
X1089829Y414904D01*
X1092823Y415500D01*
X1095877D01*
X1098871Y414904D01*
D02*
G37*
G36*
X1054521D02*
X1057342Y413736D01*
X1059881Y412040D01*
X1062040Y409881D01*
X1063736Y407342D01*
X1064904Y404521D01*
X1065500Y401527D01*
Y400000D01*
Y398473D01*
X1064904Y395479D01*
X1063736Y392658D01*
X1062040Y390119D01*
X1059881Y387960D01*
X1057342Y386264D01*
X1054521Y385096D01*
X1051527Y384500D01*
X1048473D01*
X1045479Y385096D01*
X1042658Y386264D01*
X1040119Y387960D01*
X1037960Y390119D01*
X1036264Y392658D01*
X1035096Y395479D01*
X1034500Y398473D01*
Y400000D01*
Y401527D01*
X1035096Y404521D01*
X1036264Y407342D01*
X1037960Y409881D01*
X1040119Y412040D01*
X1042658Y413736D01*
X1045479Y414904D01*
X1048473Y415500D01*
X1051527D01*
X1054521Y414904D01*
D02*
G37*
G36*
X1010171D02*
X1012992Y413736D01*
X1015531Y412040D01*
X1017690Y409881D01*
X1019386Y407342D01*
X1020554Y404521D01*
X1021150Y401527D01*
Y400000D01*
Y398473D01*
X1020554Y395479D01*
X1019386Y392658D01*
X1017690Y390119D01*
X1015531Y387960D01*
X1012992Y386264D01*
X1010171Y385096D01*
X1007177Y384500D01*
X1004123D01*
X1001129Y385096D01*
X998308Y386264D01*
X995769Y387960D01*
X993610Y390119D01*
X991914Y392658D01*
X990746Y395479D01*
X990150Y398473D01*
Y400000D01*
Y401527D01*
X990746Y404521D01*
X991914Y407342D01*
X993610Y409881D01*
X995769Y412040D01*
X998308Y413736D01*
X1001129Y414904D01*
X1004123Y415500D01*
X1007177D01*
X1010171Y414904D01*
D02*
G37*
G36*
X198871D02*
X201692Y413736D01*
X204231Y412040D01*
X206390Y409881D01*
X208086Y407342D01*
X209254Y404521D01*
X209850Y401527D01*
Y400000D01*
Y398473D01*
X209254Y395479D01*
X208086Y392658D01*
X206390Y390119D01*
X204231Y387960D01*
X201692Y386264D01*
X198871Y385096D01*
X195877Y384500D01*
X192823D01*
X189829Y385096D01*
X187008Y386264D01*
X184469Y387960D01*
X182310Y390119D01*
X180614Y392658D01*
X179446Y395479D01*
X178850Y398473D01*
Y400000D01*
Y401527D01*
X179446Y404521D01*
X180614Y407342D01*
X182310Y409881D01*
X184469Y412040D01*
X187008Y413736D01*
X189829Y414904D01*
X192823Y415500D01*
X195877D01*
X198871Y414904D01*
D02*
G37*
G36*
X154521D02*
X157342Y413736D01*
X159881Y412040D01*
X162040Y409881D01*
X163736Y407342D01*
X164904Y404521D01*
X165500Y401527D01*
Y400000D01*
Y398473D01*
X164904Y395479D01*
X163736Y392658D01*
X162040Y390119D01*
X159881Y387960D01*
X157342Y386264D01*
X154521Y385096D01*
X151527Y384500D01*
X148473D01*
X145479Y385096D01*
X142658Y386264D01*
X140119Y387960D01*
X137960Y390119D01*
X136264Y392658D01*
X135096Y395479D01*
X134500Y398473D01*
Y400000D01*
Y401527D01*
X135096Y404521D01*
X136264Y407342D01*
X137960Y409881D01*
X140119Y412040D01*
X142658Y413736D01*
X145479Y414904D01*
X148473Y415500D01*
X151527D01*
X154521Y414904D01*
D02*
G37*
G36*
X110171D02*
X112992Y413736D01*
X115531Y412040D01*
X117690Y409881D01*
X119386Y407342D01*
X120554Y404521D01*
X121150Y401527D01*
Y400000D01*
Y398473D01*
X120554Y395479D01*
X119386Y392658D01*
X117690Y390119D01*
X115531Y387960D01*
X112992Y386264D01*
X110171Y385096D01*
X107177Y384500D01*
X104123D01*
X101129Y385096D01*
X98308Y386264D01*
X95769Y387960D01*
X93610Y390119D01*
X91914Y392658D01*
X90746Y395479D01*
X90150Y398473D01*
Y400000D01*
Y401527D01*
X90746Y404521D01*
X91914Y407342D01*
X93610Y409881D01*
X95769Y412040D01*
X98308Y413736D01*
X101129Y414904D01*
X104123Y415500D01*
X107177D01*
X110171Y414904D01*
D02*
G37*
G36*
X1098871Y370554D02*
X1101692Y369386D01*
X1104231Y367690D01*
X1106390Y365531D01*
X1108086Y362992D01*
X1109254Y360171D01*
X1109850Y357177D01*
Y355650D01*
Y354123D01*
X1109254Y351129D01*
X1108086Y348308D01*
X1106390Y345769D01*
X1104231Y343610D01*
X1101692Y341914D01*
X1098871Y340746D01*
X1095877Y340150D01*
X1092823D01*
X1089829Y340746D01*
X1087008Y341914D01*
X1084469Y343610D01*
X1082310Y345769D01*
X1080614Y348308D01*
X1079446Y351129D01*
X1078850Y354123D01*
Y355650D01*
Y357177D01*
X1079446Y360171D01*
X1080614Y362992D01*
X1082310Y365531D01*
X1084469Y367690D01*
X1087008Y369386D01*
X1089829Y370554D01*
X1092823Y371150D01*
X1095877D01*
X1098871Y370554D01*
D02*
G37*
G36*
X1054521D02*
X1057342Y369386D01*
X1059881Y367690D01*
X1062040Y365531D01*
X1063736Y362992D01*
X1064904Y360171D01*
X1065500Y357177D01*
Y355650D01*
Y354123D01*
X1064904Y351129D01*
X1063736Y348308D01*
X1062040Y345769D01*
X1059881Y343610D01*
X1057342Y341914D01*
X1054521Y340746D01*
X1051527Y340150D01*
X1048473D01*
X1045479Y340746D01*
X1042658Y341914D01*
X1040119Y343610D01*
X1037960Y345769D01*
X1036264Y348308D01*
X1035096Y351129D01*
X1034500Y354123D01*
Y355650D01*
Y357177D01*
X1035096Y360171D01*
X1036264Y362992D01*
X1037960Y365531D01*
X1040119Y367690D01*
X1042658Y369386D01*
X1045479Y370554D01*
X1048473Y371150D01*
X1051527D01*
X1054521Y370554D01*
D02*
G37*
G36*
X1010171D02*
X1012992Y369386D01*
X1015531Y367690D01*
X1017690Y365531D01*
X1019386Y362992D01*
X1020554Y360171D01*
X1021150Y357177D01*
Y355650D01*
Y354123D01*
X1020554Y351129D01*
X1019386Y348308D01*
X1017690Y345769D01*
X1015531Y343610D01*
X1012992Y341914D01*
X1010171Y340746D01*
X1007177Y340150D01*
X1004123D01*
X1001129Y340746D01*
X998308Y341914D01*
X995769Y343610D01*
X993610Y345769D01*
X991914Y348308D01*
X990746Y351129D01*
X990150Y354123D01*
Y355650D01*
Y357177D01*
X990746Y360171D01*
X991914Y362992D01*
X993610Y365531D01*
X995769Y367690D01*
X998308Y369386D01*
X1001129Y370554D01*
X1004123Y371150D01*
X1007177D01*
X1010171Y370554D01*
D02*
G37*
G36*
X198871D02*
X201692Y369386D01*
X204231Y367690D01*
X206390Y365531D01*
X208086Y362992D01*
X209254Y360171D01*
X209850Y357177D01*
Y355650D01*
Y354123D01*
X209254Y351129D01*
X208086Y348308D01*
X206390Y345769D01*
X204231Y343610D01*
X201692Y341914D01*
X198871Y340746D01*
X195877Y340150D01*
X192823D01*
X189829Y340746D01*
X187008Y341914D01*
X184469Y343610D01*
X182310Y345769D01*
X180614Y348308D01*
X179446Y351129D01*
X178850Y354123D01*
Y355650D01*
Y357177D01*
X179446Y360171D01*
X180614Y362992D01*
X182310Y365531D01*
X184469Y367690D01*
X187008Y369386D01*
X189829Y370554D01*
X192823Y371150D01*
X195877D01*
X198871Y370554D01*
D02*
G37*
G36*
X154521D02*
X157342Y369386D01*
X159881Y367690D01*
X162040Y365531D01*
X163736Y362992D01*
X164904Y360171D01*
X165500Y357177D01*
Y355650D01*
Y354123D01*
X164904Y351129D01*
X163736Y348308D01*
X162040Y345769D01*
X159881Y343610D01*
X157342Y341914D01*
X154521Y340746D01*
X151527Y340150D01*
X148473D01*
X145479Y340746D01*
X142658Y341914D01*
X140119Y343610D01*
X137960Y345769D01*
X136264Y348308D01*
X135096Y351129D01*
X134500Y354123D01*
Y355650D01*
Y357177D01*
X135096Y360171D01*
X136264Y362992D01*
X137960Y365531D01*
X140119Y367690D01*
X142658Y369386D01*
X145479Y370554D01*
X148473Y371150D01*
X151527D01*
X154521Y370554D01*
D02*
G37*
G36*
X110171D02*
X112992Y369386D01*
X115531Y367690D01*
X117690Y365531D01*
X119386Y362992D01*
X120554Y360171D01*
X121150Y357177D01*
Y355650D01*
Y354123D01*
X120554Y351129D01*
X119386Y348308D01*
X117690Y345769D01*
X115531Y343610D01*
X112992Y341914D01*
X110171Y340746D01*
X107177Y340150D01*
X104123D01*
X101129Y340746D01*
X98308Y341914D01*
X95769Y343610D01*
X93610Y345769D01*
X91914Y348308D01*
X90746Y351129D01*
X90150Y354123D01*
Y355650D01*
Y357177D01*
X90746Y360171D01*
X91914Y362992D01*
X93610Y365531D01*
X95769Y367690D01*
X98308Y369386D01*
X101129Y370554D01*
X104123Y371150D01*
X107177D01*
X110171Y370554D01*
D02*
G37*
D18*
X683755Y794500D02*
D03*
D19*
X961000Y931500D02*
D03*
X947000D02*
D03*
X961000Y962500D02*
D03*
X947000D02*
D03*
X265000Y863500D02*
D03*
X279000D02*
D03*
X265000Y832500D02*
D03*
X279000D02*
D03*
X337000Y931500D02*
D03*
X323000D02*
D03*
X337000Y962500D02*
D03*
X323000D02*
D03*
X531000D02*
D03*
X545000D02*
D03*
X531000Y931500D02*
D03*
X545000D02*
D03*
X597000D02*
D03*
X583000D02*
D03*
X597000Y962500D02*
D03*
X583000D02*
D03*
X649000Y931500D02*
D03*
X635000D02*
D03*
X649000Y962500D02*
D03*
X635000D02*
D03*
X701000Y931500D02*
D03*
X687000D02*
D03*
X701000Y962500D02*
D03*
X687000D02*
D03*
X753000Y931500D02*
D03*
X739000D02*
D03*
X753000Y962500D02*
D03*
X739000D02*
D03*
X805000Y931500D02*
D03*
X791000D02*
D03*
X805000Y962500D02*
D03*
X791000D02*
D03*
X857000Y931500D02*
D03*
X843000D02*
D03*
X857000Y962500D02*
D03*
X843000D02*
D03*
X909000Y931500D02*
D03*
X895000D02*
D03*
X909000Y962500D02*
D03*
X895000D02*
D03*
D20*
X339500Y618500D02*
D03*
Y583500D02*
D03*
X316500Y601000D02*
D03*
D21*
X460000Y724500D02*
D03*
Y729500D02*
D03*
Y734500D02*
D03*
Y739500D02*
D03*
Y744500D02*
D03*
Y749500D02*
D03*
Y754500D02*
D03*
Y759500D02*
D03*
Y764500D02*
D03*
Y769500D02*
D03*
Y774500D02*
D03*
Y779500D02*
D03*
Y784500D02*
D03*
Y789500D02*
D03*
Y794500D02*
D03*
Y799500D02*
D03*
X346000D02*
D03*
Y794500D02*
D03*
Y789500D02*
D03*
Y784500D02*
D03*
Y779500D02*
D03*
Y774500D02*
D03*
Y769500D02*
D03*
Y764500D02*
D03*
Y759500D02*
D03*
Y754500D02*
D03*
Y749500D02*
D03*
Y744500D02*
D03*
Y739500D02*
D03*
Y734500D02*
D03*
Y729500D02*
D03*
Y724500D02*
D03*
D22*
X440500Y819000D02*
D03*
X435500D02*
D03*
X430500D02*
D03*
X425500D02*
D03*
X420500D02*
D03*
X415500D02*
D03*
X410500D02*
D03*
X405500D02*
D03*
X400500D02*
D03*
X395500D02*
D03*
X390500D02*
D03*
X385500D02*
D03*
X380500D02*
D03*
X375500D02*
D03*
X370500D02*
D03*
X365500D02*
D03*
Y705000D02*
D03*
X370500D02*
D03*
X375500D02*
D03*
X380500D02*
D03*
X385500D02*
D03*
X390500D02*
D03*
X395500D02*
D03*
X400500D02*
D03*
X405500D02*
D03*
X410500D02*
D03*
X415500D02*
D03*
X420500D02*
D03*
X425500D02*
D03*
X430500D02*
D03*
X435500D02*
D03*
X440500D02*
D03*
D23*
X104000Y600000D02*
D03*
X113500D02*
D03*
X94500D02*
D03*
Y575000D02*
D03*
X104000D02*
D03*
X113500D02*
D03*
D24*
X1071122Y648105D02*
D03*
Y629105D02*
D03*
X1045122D02*
D03*
Y638605D02*
D03*
Y648105D02*
D03*
X969000Y154500D02*
D03*
Y145000D02*
D03*
Y135500D02*
D03*
X995000D02*
D03*
Y154500D02*
D03*
X663781Y644145D02*
D03*
Y625145D02*
D03*
X637781D02*
D03*
Y634645D02*
D03*
Y644145D02*
D03*
X936303Y648145D02*
D03*
Y629146D02*
D03*
X910303D02*
D03*
Y638645D02*
D03*
Y648145D02*
D03*
X798360Y644290D02*
D03*
Y625290D02*
D03*
X772360D02*
D03*
Y634790D02*
D03*
Y644290D02*
D03*
D25*
X176000Y868250D02*
D03*
X185500Y843750D02*
D03*
X166500D02*
D03*
D26*
X572500Y491750D02*
D03*
X559500D02*
D03*
X566000Y470250D02*
D03*
X358000Y437250D02*
D03*
X351500Y458750D02*
D03*
X364500D02*
D03*
X489500Y476750D02*
D03*
X476500D02*
D03*
X483000Y455250D02*
D03*
X697000Y485250D02*
D03*
X690500Y506750D02*
D03*
X703500D02*
D03*
X773000Y470250D02*
D03*
X766500Y491750D02*
D03*
X779500D02*
D03*
X1072000Y244250D02*
D03*
X1085000D02*
D03*
X1078500Y265750D02*
D03*
X820500Y483250D02*
D03*
X833500D02*
D03*
X827000Y504750D02*
D03*
D27*
X595500Y341000D02*
D03*
X589000D02*
D03*
X556500D02*
D03*
X563000D02*
D03*
X569500D02*
D03*
X576000D02*
D03*
X582500D02*
D03*
X595500Y398000D02*
D03*
X589000D02*
D03*
X556500D02*
D03*
X563000D02*
D03*
X569500D02*
D03*
X576000D02*
D03*
X582500D02*
D03*
X432500Y341000D02*
D03*
X426000D02*
D03*
X393500D02*
D03*
X400000D02*
D03*
X406500D02*
D03*
X413000D02*
D03*
X419500D02*
D03*
X432500Y398000D02*
D03*
X426000D02*
D03*
X393500D02*
D03*
X400000D02*
D03*
X406500D02*
D03*
X413000D02*
D03*
X419500D02*
D03*
X514500Y341500D02*
D03*
X508000D02*
D03*
X475500D02*
D03*
X482000D02*
D03*
X488500D02*
D03*
X495000D02*
D03*
X501500D02*
D03*
X514500Y398500D02*
D03*
X508000D02*
D03*
X475500D02*
D03*
X482000D02*
D03*
X488500D02*
D03*
X495000D02*
D03*
X501500D02*
D03*
X729500Y341500D02*
D03*
X723000D02*
D03*
X690500D02*
D03*
X697000D02*
D03*
X703500D02*
D03*
X710000D02*
D03*
X716500D02*
D03*
X729500Y398500D02*
D03*
X723000D02*
D03*
X690500D02*
D03*
X697000D02*
D03*
X703500D02*
D03*
X710000D02*
D03*
X716500D02*
D03*
X809500Y341500D02*
D03*
X803000D02*
D03*
X770500D02*
D03*
X777000D02*
D03*
X783500D02*
D03*
X790000D02*
D03*
X796500D02*
D03*
X809500Y398500D02*
D03*
X803000D02*
D03*
X770500D02*
D03*
X777000D02*
D03*
X783500D02*
D03*
X790000D02*
D03*
X796500D02*
D03*
X889500Y341500D02*
D03*
X883000D02*
D03*
X850500D02*
D03*
X857000D02*
D03*
X863500D02*
D03*
X870000D02*
D03*
X876500D02*
D03*
X889500Y398500D02*
D03*
X883000D02*
D03*
X850500D02*
D03*
X857000D02*
D03*
X863500D02*
D03*
X870000D02*
D03*
X876500D02*
D03*
D28*
X576000Y369500D02*
D03*
X413000D02*
D03*
X495000Y370000D02*
D03*
X710000D02*
D03*
X790000D02*
D03*
X870000D02*
D03*
D29*
X110376Y252900D02*
D03*
D30*
X125376Y262650D02*
D03*
Y256150D02*
D03*
Y249650D02*
D03*
Y243150D02*
D03*
X95376D02*
D03*
Y249650D02*
D03*
Y256150D02*
D03*
Y262650D02*
D03*
D31*
X117750Y792950D02*
D03*
Y805650D02*
D03*
Y818350D02*
D03*
Y831050D02*
D03*
X68250D02*
D03*
Y818350D02*
D03*
Y805650D02*
D03*
Y792950D02*
D03*
D32*
X248000Y548500D02*
D03*
Y513500D02*
D03*
X127000Y525500D02*
D03*
Y490500D02*
D03*
D33*
X153600Y136650D02*
D03*
Y177350D02*
D03*
X166300Y136650D02*
D03*
Y177350D02*
D03*
X179000Y136650D02*
D03*
Y177350D02*
D03*
X191700D02*
D03*
X204400Y136650D02*
D03*
Y177350D02*
D03*
D34*
X821000Y422750D02*
D03*
Y441250D02*
D03*
X434000Y422750D02*
D03*
Y441250D02*
D03*
X1025500Y194750D02*
D03*
Y213250D02*
D03*
X912000Y422750D02*
D03*
Y441250D02*
D03*
X527000Y422750D02*
D03*
Y441250D02*
D03*
X609000Y422750D02*
D03*
Y441250D02*
D03*
X741000Y422750D02*
D03*
Y441250D02*
D03*
D35*
X553000Y420000D02*
D03*
Y434000D02*
D03*
X271000Y547000D02*
D03*
Y533000D02*
D03*
X72000Y563000D02*
D03*
Y549000D02*
D03*
X215000Y699000D02*
D03*
Y685000D02*
D03*
X430000Y627000D02*
D03*
Y613000D02*
D03*
X416750Y511000D02*
D03*
Y497000D02*
D03*
X413000Y534000D02*
D03*
Y548000D02*
D03*
X157000Y257000D02*
D03*
Y243000D02*
D03*
X244000Y819000D02*
D03*
Y833000D02*
D03*
X300000Y790000D02*
D03*
Y776000D02*
D03*
X315000Y790000D02*
D03*
Y776000D02*
D03*
X385000Y436000D02*
D03*
Y422000D02*
D03*
X404000Y422000D02*
D03*
Y436000D02*
D03*
X335000Y419000D02*
D03*
Y433000D02*
D03*
X489000Y422000D02*
D03*
Y436000D02*
D03*
X504000Y436000D02*
D03*
Y422000D02*
D03*
X461000Y473000D02*
D03*
Y459000D02*
D03*
X474000Y436000D02*
D03*
Y422000D02*
D03*
X459000Y436000D02*
D03*
Y422000D02*
D03*
X254000Y776000D02*
D03*
Y790000D02*
D03*
X270000D02*
D03*
Y776000D02*
D03*
X703000Y420000D02*
D03*
Y434000D02*
D03*
X717000Y434000D02*
D03*
Y420000D02*
D03*
X674000Y501000D02*
D03*
Y487000D02*
D03*
X783000Y420000D02*
D03*
Y434000D02*
D03*
X798000Y434000D02*
D03*
Y420000D02*
D03*
X749000Y495000D02*
D03*
Y481000D02*
D03*
X764000Y420000D02*
D03*
Y434000D02*
D03*
X687122Y627606D02*
D03*
Y641606D02*
D03*
X955000Y632000D02*
D03*
Y646000D02*
D03*
X580000Y637000D02*
D03*
Y623000D02*
D03*
X847122Y627606D02*
D03*
Y641606D02*
D03*
X820928Y627750D02*
D03*
Y641750D02*
D03*
X1089000Y632000D02*
D03*
Y646000D02*
D03*
X715000Y627750D02*
D03*
Y641750D02*
D03*
X983122Y631605D02*
D03*
Y645605D02*
D03*
X869000Y775000D02*
D03*
Y789000D02*
D03*
X1012000Y782000D02*
D03*
Y796000D02*
D03*
X869390Y718250D02*
D03*
Y732250D02*
D03*
X1012390Y716000D02*
D03*
Y730000D02*
D03*
X632000Y766000D02*
D03*
Y752000D02*
D03*
X1052500Y268000D02*
D03*
Y254000D02*
D03*
Y224000D02*
D03*
Y238000D02*
D03*
X238000Y790000D02*
D03*
Y776000D02*
D03*
X223000Y790000D02*
D03*
Y776000D02*
D03*
X873000Y435000D02*
D03*
Y421000D02*
D03*
X853000Y435000D02*
D03*
Y421000D02*
D03*
X888000D02*
D03*
Y435000D02*
D03*
X851000Y470000D02*
D03*
Y456000D02*
D03*
X870000Y453000D02*
D03*
Y467000D02*
D03*
X530000Y897000D02*
D03*
Y883000D02*
D03*
X548000Y897000D02*
D03*
Y883000D02*
D03*
X582000Y897000D02*
D03*
Y883000D02*
D03*
X600000Y897000D02*
D03*
Y883000D02*
D03*
X634000Y897000D02*
D03*
Y883000D02*
D03*
X652000Y897000D02*
D03*
Y883000D02*
D03*
X686000Y897000D02*
D03*
Y883000D02*
D03*
X704000Y897000D02*
D03*
Y883000D02*
D03*
X738000Y897000D02*
D03*
Y883000D02*
D03*
X756000Y897000D02*
D03*
Y883000D02*
D03*
X790000Y897000D02*
D03*
Y883000D02*
D03*
X808000Y897000D02*
D03*
Y883000D02*
D03*
X842000Y897000D02*
D03*
Y883000D02*
D03*
X860000Y897000D02*
D03*
Y883000D02*
D03*
X894000Y897000D02*
D03*
Y883000D02*
D03*
X912000Y897000D02*
D03*
Y883000D02*
D03*
X946000Y897000D02*
D03*
Y883000D02*
D03*
X964000Y897000D02*
D03*
Y883000D02*
D03*
X167000Y886000D02*
D03*
Y900000D02*
D03*
X186000Y886000D02*
D03*
Y900000D02*
D03*
X224000Y886000D02*
D03*
Y900000D02*
D03*
X243000Y886000D02*
D03*
Y900000D02*
D03*
X205000Y886000D02*
D03*
Y900000D02*
D03*
X148000Y886000D02*
D03*
Y900000D02*
D03*
X285000Y790000D02*
D03*
Y776000D02*
D03*
X571000Y420000D02*
D03*
Y434000D02*
D03*
X585000Y434000D02*
D03*
Y420000D02*
D03*
X542000Y496000D02*
D03*
Y482000D02*
D03*
D36*
X61000Y450900D02*
D03*
Y495100D02*
D03*
D37*
X636250Y420000D02*
D03*
X642750D02*
D03*
X649250D02*
D03*
X655750D02*
D03*
X636250Y462000D02*
D03*
X642750D02*
D03*
X649250D02*
D03*
X655750D02*
D03*
D38*
X1160500Y703000D02*
D03*
X1145500D02*
D03*
X587500Y745000D02*
D03*
X572500D02*
D03*
X603500Y485000D02*
D03*
X618500D02*
D03*
X1160500Y835000D02*
D03*
X1145500D02*
D03*
X1160500Y783000D02*
D03*
X1145500D02*
D03*
X1160500Y743000D02*
D03*
X1145500D02*
D03*
D39*
X187350Y237000D02*
D03*
X200650D02*
D03*
X504000Y828000D02*
D03*
X490700D02*
D03*
X187350Y258000D02*
D03*
X200650D02*
D03*
D40*
X160000Y938100D02*
D03*
X224000D02*
D03*
X168000D02*
D03*
X216000D02*
D03*
D41*
X174500D02*
D03*
X179500D02*
D03*
X184500D02*
D03*
X199500D02*
D03*
X204500D02*
D03*
X209500D02*
D03*
X194500D02*
D03*
X189500D02*
D03*
D42*
X701255Y769745D02*
D03*
X696255D02*
D03*
X691255D02*
D03*
X686255D02*
D03*
X681255D02*
D03*
X676255D02*
D03*
X671255D02*
D03*
X666255D02*
D03*
Y819255D02*
D03*
X671255D02*
D03*
X676255D02*
D03*
X681255D02*
D03*
X686255D02*
D03*
X691255D02*
D03*
X696255D02*
D03*
X701255D02*
D03*
D43*
X659000Y777000D02*
D03*
Y782000D02*
D03*
Y787000D02*
D03*
Y792000D02*
D03*
Y797000D02*
D03*
Y802000D02*
D03*
Y807000D02*
D03*
Y812000D02*
D03*
X708511D02*
D03*
Y807000D02*
D03*
Y802000D02*
D03*
Y797000D02*
D03*
Y792000D02*
D03*
Y787000D02*
D03*
Y782000D02*
D03*
D44*
Y777000D02*
D03*
D45*
X457500Y865000D02*
D03*
X430500D02*
D03*
X91500Y526000D02*
D03*
X64500D02*
D03*
X247500Y602000D02*
D03*
X274500D02*
D03*
X247500Y571000D02*
D03*
X274500D02*
D03*
X465500Y661000D02*
D03*
X438500D02*
D03*
D46*
X394000Y841000D02*
D03*
Y863000D02*
D03*
D47*
X612000Y390750D02*
D03*
Y405250D02*
D03*
X235000Y665750D02*
D03*
Y680250D02*
D03*
X324000Y705750D02*
D03*
Y720250D02*
D03*
X345000Y842750D02*
D03*
Y857250D02*
D03*
X364000Y843750D02*
D03*
Y858250D02*
D03*
X46376Y254150D02*
D03*
Y239650D02*
D03*
X64376Y254150D02*
D03*
Y239650D02*
D03*
X124376Y224150D02*
D03*
Y209650D02*
D03*
X446000Y405250D02*
D03*
Y390750D02*
D03*
X461000Y405250D02*
D03*
Y390750D02*
D03*
X528000Y405250D02*
D03*
Y390750D02*
D03*
X543000Y405250D02*
D03*
Y390750D02*
D03*
X743000D02*
D03*
Y405250D02*
D03*
X757000Y390750D02*
D03*
Y405250D02*
D03*
X823000Y390750D02*
D03*
Y405250D02*
D03*
X837000D02*
D03*
Y390750D02*
D03*
X851000Y774750D02*
D03*
Y789250D02*
D03*
X994000Y781500D02*
D03*
Y796000D02*
D03*
X851390Y718000D02*
D03*
Y732500D02*
D03*
X994390Y715750D02*
D03*
Y730250D02*
D03*
X46000Y788000D02*
D03*
Y802500D02*
D03*
X672000Y418750D02*
D03*
Y433250D02*
D03*
X919000Y279750D02*
D03*
Y294250D02*
D03*
X1101500Y247750D02*
D03*
Y262250D02*
D03*
X938000Y420750D02*
D03*
Y435250D02*
D03*
X804000Y485750D02*
D03*
Y500250D02*
D03*
X628000Y390750D02*
D03*
Y405250D02*
D03*
D48*
X184000Y544000D02*
D03*
Y594000D02*
D03*
D49*
X527500Y680000D02*
D03*
X510500D02*
D03*
X527500Y702000D02*
D03*
X510500D02*
D03*
D50*
X120750Y623000D02*
D03*
X135250D02*
D03*
X248750Y629000D02*
D03*
X263250D02*
D03*
X458250Y685000D02*
D03*
X443750D02*
D03*
X436750Y841000D02*
D03*
X451250D02*
D03*
X490100Y793000D02*
D03*
X504600D02*
D03*
X490100Y811000D02*
D03*
X504600D02*
D03*
X525250Y661000D02*
D03*
X510750D02*
D03*
X511750Y721000D02*
D03*
X526250D02*
D03*
X511750Y746000D02*
D03*
X526250D02*
D03*
X449000Y513000D02*
D03*
X434500D02*
D03*
X86126Y223900D02*
D03*
X100626D02*
D03*
X368750Y317000D02*
D03*
X383250D02*
D03*
X340750Y475000D02*
D03*
X355250D02*
D03*
X465250Y317000D02*
D03*
X450750D02*
D03*
X489250Y494000D02*
D03*
X474750D02*
D03*
X663750Y317000D02*
D03*
X678250D02*
D03*
X702250Y523000D02*
D03*
X687750D02*
D03*
X744750Y317000D02*
D03*
X759250D02*
D03*
X781250Y508000D02*
D03*
X766750D02*
D03*
X602750Y639605D02*
D03*
X617250D02*
D03*
X875252Y643605D02*
D03*
X889752D02*
D03*
X643872Y668605D02*
D03*
X658372D02*
D03*
X916053Y672605D02*
D03*
X930553D02*
D03*
X736750Y639750D02*
D03*
X751250D02*
D03*
X1009250Y643606D02*
D03*
X1023750D02*
D03*
X778110Y668750D02*
D03*
X792610D02*
D03*
X1050872Y672606D02*
D03*
X1065372D02*
D03*
X720250Y748000D02*
D03*
X705750D02*
D03*
X650750Y750000D02*
D03*
X665250D02*
D03*
X996750Y205000D02*
D03*
X982250D02*
D03*
X996750Y187000D02*
D03*
X982250D02*
D03*
X921750Y207000D02*
D03*
X936250D02*
D03*
X908750Y401000D02*
D03*
X923250D02*
D03*
X899750Y320000D02*
D03*
X914250D02*
D03*
X838250Y317000D02*
D03*
X823750D02*
D03*
X619200D02*
D03*
X604700D02*
D03*
X574500Y508000D02*
D03*
X560000D02*
D03*
D51*
X175000Y637500D02*
D03*
Y664500D02*
D03*
X208000Y637500D02*
D03*
Y664500D02*
D03*
X297500Y726500D02*
D03*
Y699500D02*
D03*
X321000Y836500D02*
D03*
Y863500D02*
D03*
D52*
X451500Y532500D02*
D03*
Y545500D02*
D03*
X430000Y539000D02*
D03*
D53*
X269500Y209500D02*
D03*
Y228500D02*
D03*
X245000Y219000D02*
D03*
D54*
X290000Y547500D02*
D03*
Y532500D02*
D03*
X215000Y719500D02*
D03*
Y734500D02*
D03*
D55*
X92000Y630000D02*
D03*
X78000D02*
D03*
X60000Y584000D02*
D03*
X74000D02*
D03*
Y605000D02*
D03*
X60000D02*
D03*
X88000Y550000D02*
D03*
X102000D02*
D03*
X587000Y727000D02*
D03*
X573000D02*
D03*
X448750Y498000D02*
D03*
X434750D02*
D03*
X312000Y511000D02*
D03*
X326000D02*
D03*
X101376Y281900D02*
D03*
X115376D02*
D03*
X266000Y814000D02*
D03*
X280000D02*
D03*
X367000Y420000D02*
D03*
X353000D02*
D03*
X365750Y402000D02*
D03*
X351750D02*
D03*
X687000Y469000D02*
D03*
X673000D02*
D03*
X673000Y450000D02*
D03*
X687000D02*
D03*
X783000Y452000D02*
D03*
X769000D02*
D03*
X650122Y605606D02*
D03*
X664122D02*
D03*
X922748Y609267D02*
D03*
X936748D02*
D03*
X603000Y586605D02*
D03*
X617000D02*
D03*
X603000Y680605D02*
D03*
X617000D02*
D03*
X875502Y590606D02*
D03*
X889502D02*
D03*
X875502Y684968D02*
D03*
X889502D02*
D03*
X617000Y661606D02*
D03*
X603000D02*
D03*
X889502Y665606D02*
D03*
X875502D02*
D03*
X603000Y604605D02*
D03*
X617000D02*
D03*
X875502Y608520D02*
D03*
X889502D02*
D03*
X603000Y622606D02*
D03*
X617000D02*
D03*
X875502Y626394D02*
D03*
X889502D02*
D03*
X784482Y605355D02*
D03*
X798482D02*
D03*
X1057346Y609030D02*
D03*
X1071346D02*
D03*
X737000Y586866D02*
D03*
X751000D02*
D03*
X737000Y681014D02*
D03*
X751000D02*
D03*
X1023577Y590540D02*
D03*
X1009577D02*
D03*
X1009500Y685000D02*
D03*
X1023500D02*
D03*
X751000Y661750D02*
D03*
X737000D02*
D03*
X1023500Y666000D02*
D03*
X1009500D02*
D03*
X737000Y604973D02*
D03*
X751000D02*
D03*
X1009500Y608566D02*
D03*
X1023500D02*
D03*
X737000Y622837D02*
D03*
X751000D02*
D03*
X1009500Y626392D02*
D03*
X1023500D02*
D03*
X833000Y767000D02*
D03*
X819000D02*
D03*
X976000Y773750D02*
D03*
X962000D02*
D03*
X819000Y782000D02*
D03*
X833000D02*
D03*
X962000Y788750D02*
D03*
X976000D02*
D03*
X819000Y797000D02*
D03*
X833000D02*
D03*
X962000Y803750D02*
D03*
X976000D02*
D03*
X833390Y711250D02*
D03*
X819390D02*
D03*
X976000Y707000D02*
D03*
X962000D02*
D03*
X819390Y726250D02*
D03*
X833390D02*
D03*
X962000Y723000D02*
D03*
X976000D02*
D03*
X819390Y741250D02*
D03*
X833390D02*
D03*
X962000Y738000D02*
D03*
X976000D02*
D03*
X411000Y635000D02*
D03*
X397000D02*
D03*
X411000Y617000D02*
D03*
X397000D02*
D03*
X729000Y764000D02*
D03*
X743000D02*
D03*
X665000Y733000D02*
D03*
X651000D02*
D03*
X618000Y503000D02*
D03*
X604000D02*
D03*
X320000Y907000D02*
D03*
X306000D02*
D03*
X339000D02*
D03*
X353000D02*
D03*
X506000Y606000D02*
D03*
X520000D02*
D03*
X520000Y560000D02*
D03*
X506000D02*
D03*
X506000Y584000D02*
D03*
X520000D02*
D03*
X1020500Y245000D02*
D03*
X1034500D02*
D03*
X1034500Y269000D02*
D03*
X1020500D02*
D03*
X1034500Y230000D02*
D03*
X1020500D02*
D03*
X1034500Y285000D02*
D03*
X1020500D02*
D03*
X1092500Y283000D02*
D03*
X1078500D02*
D03*
X506000Y535000D02*
D03*
X520000D02*
D03*
X811000Y522000D02*
D03*
X825000D02*
D03*
X893000Y484000D02*
D03*
X907000D02*
D03*
X1104000Y833000D02*
D03*
X1118000D02*
D03*
X1104000Y783000D02*
D03*
X1118000D02*
D03*
X1104000Y743000D02*
D03*
X1118000D02*
D03*
X1104000Y703000D02*
D03*
X1118000D02*
D03*
X566000Y452000D02*
D03*
X552000D02*
D03*
D56*
X253500Y649000D02*
D03*
X263000D02*
D03*
X272500D02*
D03*
Y675000D02*
D03*
X253500D02*
D03*
D57*
X942000Y225500D02*
D03*
Y232000D02*
D03*
Y264500D02*
D03*
Y258000D02*
D03*
Y251500D02*
D03*
Y245000D02*
D03*
Y238500D02*
D03*
X999000Y225500D02*
D03*
Y232000D02*
D03*
Y264500D02*
D03*
Y258000D02*
D03*
Y251500D02*
D03*
Y245000D02*
D03*
Y238500D02*
D03*
D58*
X970500Y245000D02*
D03*
M02*
