M48
;Layer_Color=9474304
;FILE_FORMAT=4:4
METRIC,LZ
;TYPE=PLATED
T01F00S00C0.3000
T03F00S00C1.3000
T05F00S00C1.8500
;TYPE=NON_PLATED
T06F00S00C0.6500
T07F00S00C2.3000
T08F00S00C4.1000
T09F00S00C5.0000
%
T01
X00567Y00124
X00575
X00582
X00589
X00596
X00603
Y00132
X00596
X00589
X00582
X00575
X00567
Y0014
Y00148
X00575
X00582
X00589
X00596
X00603
Y0014
X00596
X00589
X00582
X00575
X00954Y00135
X00955Y00161
X009615Y00229
X009695
X009775
Y00237
X009695
X009615
Y00245
X009695
X009775
Y00253
X009695
X009615
Y00261
X009695
X009775
X01031Y00164
Y00155
X0101Y00136
X00886Y00363
X00878
X0087
X00862
X00854
Y00371
Y00379
X00862
Y00371
X0087
Y00379
X00878
Y00371
X00886
Y00379
X00842Y00375
X00834
X00827
X00819
Y00367
Y00359
X00827
X00834
Y00367
X00827
X00842
Y00359
X00806Y00363
X00798
X0079
X00782
X00774
Y00371
Y00379
X00782
Y00371
X0079
Y00379
X00798
Y00371
X00806
Y00379
X00762Y00375
Y00367
Y00359
X00811Y00453
X00818
X00825
X00832
X00902
X00909
X00916
X00923
X00752
X00745
X00738
X00731
X00726Y00379
X00718
X0071
X00702
X00694
Y00371
Y00363
X00702
Y00371
X0071
Y00363
X00718
Y00371
X00726
Y00363
X00739Y00359
Y00367
Y00375
X00747
X00754
Y00367
X00747
Y00359
X00754
X00675Y00358
X00667
X0066
Y00366
X00667
Y00374
X0066
X00652
X00644
X00637
Y00366
X00644
Y00358
X00637
X00629
Y00366
Y00374
X00621
X00614
Y00366
X00621
Y00358
X00614
X00606
Y00366
Y00374
X00591Y00371
X00583
X00575
X00567
X00559
Y00379
X00567
X00575
X00583
X00591
Y00363
X00583
X00575
X00567
X00559
X00548Y003665
Y003585
X0054
X00533
Y003665
X0054
Y003745
X00533
X00525
Y003665
Y003585
X00511Y00363
X00503
X00495
X00487
X00479
Y00371
Y00379
X00487
Y00371
X00495
Y00379
X00503
Y00371
X00511
Y00379
X00548Y003745
X00466Y00374
X00458
X00451
X00443
Y00366
Y00358
X00451
X00458
Y00366
X00451
X00466
Y00358
X00431Y00363
Y00371
Y00379
X00423
Y00371
Y00363
X00415
Y00371
Y00379
X00407
Y00371
Y00363
X00399
Y00371
Y00379
X00424Y00453
X00431
X00438
X00445
X00517
X00524
X00531
X00538
X00599
X00606
X00613
X0062
X00660495Y00407
X00667689
X00675
X00675Y00374
Y00366
X00652
Y00358
X00376Y00457
X00324Y00583
X00294
Y00575
Y00567
X00286
Y00597
Y00605
Y00613
X00294
Y00605
Y00597
X00292Y00625
Y00633
X00284
X00276
Y00625
X00284
X00238Y00619
X0023Y0062
X00232Y00628
X00223
Y00637
X00231
X00239
Y00645
X00231
X00223
X00152Y00663
X00144
X00136
Y00671
X00144
X00152
X00127
X00119
Y00663
X00127
X00111
Y00671
X00102
X00094
X00086
Y00663
X00094
X00102
Y00652
X00094
X00086
Y00644
X00094
X00102
X0008725Y00617055
X00084Y00563
X00174Y00523
Y00515
X00182
Y00523
X00191
Y00515
X00199
Y00523
X00208
Y00515
X00216
Y00523
X00225
Y00515
X00233
Y00523
Y00507
X00225
X00216
X00208
X00199
X00191
X00182
X00174
X00352Y0063
X00338Y00685
X0033
X00322
Y00693
X0033
X00338
X00337Y00702
X00345
X00353
Y0071
X00345
X00337
X00335Y00818
X00343
Y00826
X00335
X00327
Y00818
X00207Y00937
Y00945
Y00953
X00215
Y00945
X00198
Y00953
X0019
Y00945
Y00937
X00198
X00181
X00173
Y00945
Y00953
X00181
Y00945
X00415Y00856
Y00848
X00423
Y0084
X00415
X00515Y00967
X00567
X00619
X00671
X00723
X00696Y00806
Y00798
Y0079
Y00782
X00688
Y0079
Y00798
Y00806
X0068
Y00798
Y0079
Y00782
X00672
Y0079
Y00798
Y00806
X00693Y00751
X00687Y00743
X0089039Y0073225
X0089Y00789
X01033Y00796
X0103339Y0073
X00931Y00967
X00879
X00827
X00775
X0117525Y0083525
X0117525Y0078325
Y0074325
Y0070325
T03
X0045Y00164
X00475
X005
X00525
X0055
Y00189
X00575
X006
X00625
X0065
X00675
X007
X00725
X0075
X0074495Y00164
X0070495
X0066495
X0062495
X0058495
X00525Y00189
X005
X00475
X0045
T05
X0100565Y0035565
Y004
Y0044435
X0105
X0109435
Y004
X0105
Y0035565
X0109435
X0019435
Y004
Y0044435
X0015
X0010565
Y004
X0015
Y0035565
X0010565
T06
X001631Y0093385
X002209
T07
X0041425Y00233
X0078575
T08
X00346Y002235
X00854
T09
X0005Y0015
X0115
X0005Y0095
X0115
M30
