M48
;Layer_Color=9474304
;FILE_FORMAT=4:4
METRIC,LZ
;TYPE=PLATED
T01F00S00C0.3000
T03F00S00C1.3000
T05F00S00C1.8500
;TYPE=NON_PLATED
T06F00S00C0.6500
T07F00S00C2.3000
T08F00S00C4.1000
T09F00S00C5.0000
%
T01
X00057Y00221
Y00228
X00065
X00072
Y00221
X00065
X00086Y0024
X00075Y00276
X001425Y0024225
Y00235
Y00227
X00161Y00222
X00173
X00186
X00213Y00223
X00914Y00225
X00921Y00225
Y00233
X00914Y00233
Y00241
X00921Y00241
Y002535
X00914Y002535
Y002615
X00921Y002615
Y002695
X00914Y002695
X009615Y00261
Y00253
Y00245
Y00237
Y00229
X009695
X009775
Y00237
X009695
Y00245
X009775
Y00253
X009695
Y00261
X009775
X01043Y00246
X01066Y00231
X01048Y0028
X01045Y0016375
X01035Y0014525
X01009Y00145
X00982Y00149
X00984Y00125871
X00955Y0014
Y00161
X0095225Y00175
X009465Y00182
X0094075Y00189
X00935Y00196
X01014Y00178
X01181Y00224
X01177Y00236
X01173Y00251
X0117Y00263
X01154Y0029
X01107Y00284
X00934Y003
X008835Y003135
X00877
X00877Y003205
X008835
X008835Y003275
X00877
X00864
X00864Y003205
X00864Y003135
X00856
X00856Y003205
X00856Y003275
X00848
X00848Y003205
X00848Y003135
X0081
X0081Y003205
X0081Y003275
X00802
X00802Y003205
X00802Y003135
X00794
X00794Y003205
X00794Y003275
X00786
X00786Y003205
X00786Y003135
X00778
X00778Y003205
X00778Y003275
X0077
X0077Y003205
X0077Y003135
X00774Y00363
Y00371
Y00379
X00782
Y00371
Y00363
X0079
Y00371
Y00379
X00798
Y00371
Y00363
X00806
Y00371
Y00379
X00854
Y00371
Y00363
X00862
Y00371
Y00379
X0087
Y00371
Y00363
X00878
Y00371
Y00379
X00886
Y00371
Y00363
X00882Y00447
X0089Y00448
X00858151Y00447699
X00832Y00453
X00825
X00818
X00811
X008Y00458
X00795Y00447
X00837Y00463
X00841Y00528
X00799
X00779Y00523
X00764Y00577
X00762Y00636
X00766Y00666
X00818Y00652
X00862Y00631
X00899Y00636
X00905Y00669
X00954Y00658
X00997Y0063
X01035Y0064
X01038Y00674
X01089Y00656
X01038Y00588
X00902502Y00579605
X0092Y0047
X009605Y0047925
X009675
X009745
Y0048725
X009675
X009605
X00822Y00333
X00745Y00328
X0073Y003275
X0073Y003205
X0073Y003135
X00722
X00722Y003205
X00722Y003275
X00714
X00714Y003205
X00714Y003135
X00706
X00706Y003205
X00706Y003275
X00698
X00698Y003205
X00698Y003135
X0069
X0069Y003205
X0069Y003275
X00664Y00328
X0061945
X00596Y00327
X00596Y0032
X00596Y00313
X00588
X00588Y0032
X00588Y00327
X0058
X0058Y0032
X0058Y00313
X00572
X00572Y0032
X00572Y00327
X00564
X00564Y0032
X00564Y00313
X00556
X00556Y0032
X00556Y00327
X00559Y00363
Y00371
Y00379
X00567
Y00371
Y00363
X00575
Y00371
Y00379
X00583
Y00371
Y00363
X00591
Y00371
Y00379
X00511Y00379
X00503
X00495
X00487
X00479
Y00371
Y00363
X00487
Y00371
X00495
Y00363
X00503
Y00371
X00511
Y00363
X00515Y003275
X00515Y003205
X00515Y003135
X00507
X00507Y003205
X00507Y003275
X00499
X00499Y003205
X00499Y003135
X00491
X00491Y003205
X00491Y003275
X00483
X00483Y003205
X00483Y003135
X00475
X00475Y003205
X00475Y003275
X00451Y00328
X00433Y00327
X00433Y0032
X00433Y00313
X00425
X00425Y0032
X00425Y00327
X00417
X00417Y0032
X00417Y00313
X00409
X00409Y0032
X00409Y00327
X00401
X00401Y0032
X00401Y00313
X00393
X00393Y0032
X00393Y00327
X00369Y00328
X00399Y00363
X00407
X00415
X00423
X00431
Y00371
Y00379
X00423
Y00371
X00415
Y00379
X00407
Y00371
X00399
Y00379
X00374Y00431
X00384Y00447
X00376Y00457
X00403Y00452
X00405Y00462
X00421Y00471
X00428
X00435
X00442
Y00538
X0049Y00553
X00493Y00569
X00493Y0059
Y00609
X00465Y00619
Y00628
X00453Y00613
X00448Y00645
X0044
X00432
X00392Y00653
X00501Y0065
X00522Y0064
X0053Y00618
X00532Y00575
X00531Y00554
X00532Y0053
X00564Y00524
X00576Y00523
X0059
X00631Y00509
X00639Y00484
X0065Y00479
X00658
X00657Y00442
X0065
X00643
X00636
X00619Y00453
X00612
X00605
X00598
X00583
X00575Y00444
X00524Y00471
X00517
X0051
X00504Y00454
X00493Y00446
X00483Y00506
X0063Y00577
X00627Y00635
X00592Y00628
X00633Y00671
X0069125Y00653
X00726Y00627
X00718Y00522
X00745Y00515
X00745Y00453
X00738
X00731
X00715Y00449
X00707Y00444
X00752Y00453
X00726Y00379
X00718
X0071
X00702
X00694
Y00371
Y00363
X00702
Y00371
X0071
Y00363
X00718
Y00371
X00726
Y00363
X00675Y00407
X00667689
X00660495
X00341Y00409039
X003185Y0047625
X003115
X003045
X00267Y00497
X00256
X00301Y00548
X00291Y00567
Y00575
Y00583
Y00597
Y00605
Y00613
X00283Y00651
X00317Y00665
X00323Y00672
X00347Y00669
Y00661
Y00678
X00352Y0063
X00327879Y00583
X00343Y00518
X00166Y00519
X00084Y00563
X0005875Y0056375
Y0055675
Y0054975
X0005075
Y0055675
Y0056375
X0008725Y00617055
X00136Y00663
X00144
X00152
Y00671
X00144
X00136
X00226Y0064525
Y0063725
X002345
Y006455
X00181Y00292
X00198Y00736
X00209Y00794
X00205Y00874
X002Y0091
X00212927Y00910927
X00165Y0091
X00139
X00151Y00872
X00165Y00873
X0025Y00866
X00338Y00871
X00346
X00354
X00362
X00343Y00826
X00335
X00327
Y00818
X00335
X00343
X00362896Y00796134
X00329Y00733
X00321
X00313
X0033025Y0069425
X0033825
Y0068625
X0033025
X00266Y00689
X00258
X0025
X00099Y00838
X00048Y00829
Y00816
X00028Y0079
X0019225Y0095575
Y0096375
X0020025
Y0095575
X00356Y0095
X00417Y0085875
Y0085
Y008405
X00465Y0084
X00473
Y00832
X00465
X00468Y00809
X00474Y00802
X00475Y00792
X005155Y0078775
Y007805
X00503Y00753
X00541Y00747
X00546Y00705
X00571Y00715
X00597Y0074625
X00623
X00633Y00727
X00635Y00686606
X00676Y00726
X00686Y0074625
X0069675Y0075227
X0071175Y0073
X0072625
X00733Y0075
X00749Y00746
X00761Y00682
X00688Y0079
Y00798
X0068
Y0079
X00672Y0095
X0072
X00618
X00565
X00513
X00517Y00832
X00437Y008
X0043Y00796
X00422
X00412
X00404Y00799
X00396788Y0079694
X00388Y00797
X0038025Y00796
X00367502Y00790214
X00372Y00783
X00377965Y00776964
X00382Y0077
X00387661Y00764661
X00391423Y00758173
X00391111Y00749111
X00391Y00741
Y00733
Y007255
Y00718
X00422Y0071745
X0043
X00455Y0071
X00463
Y00702
X00455
X00433Y00767
X00423965Y00767036
X00423Y00786
X00808Y00782
X00806Y00737
X00855Y00744
X00846Y00756
X00882Y00753
X0089
Y00745
X00882
Y00761
X0089
Y00769
X00882
X00902Y00789
X00949Y00788
X00989Y0076275
X00996Y00743
X0103339Y0073
X01033Y00796
X00999Y00809
X00989Y00696
X00947Y00724
X009Y00732
X00903Y00684
X0084639Y0070025
X00853Y008
X00827Y00967
X00879
X00931
X00775
X0117525Y0083525
X0117525Y0078325
Y0074325
Y0070325
T03
X0045Y00164
Y00189
X00475
X005
X00525
X0055
X00575
X006
X00625
X0065
X00675
X007
X00725
X0075
X0074495Y00164
X0070495
X0066495
X0062495
X0058495
X0055
X00525
X005
X00475
T05
X0100565Y0035565
Y004
Y0044435
X0105
X0109435
Y004
X0105
Y0035565
X0109435
X0019435
Y004
Y0044435
X0015
X0010565
Y004
X0015
Y0035565
X0010565
T06
X001631Y0094885
X002209
T07
X0041425Y00233
X0078575
T08
X00346Y002235
X00854
T09
X0005Y0015
X0115
X0005Y0095
X0115
M30
